<?xml version="1.0" standalone="no"?> <!DOCTYPE svg PUBLIC "-//W3C//DTD SVG 1.0//EN" "http://www.w3.org/TR/2001/REC-SVG-20010904/DTD/svg10.dtd" > <svg xmlns="http://www.w3.org/2000/svg" width="100%" height="100%">
<defs >
<font id="copperplate" horiz-adv-x="572" ><font-face
    font-family="Copperplate"
    units-per-em="1000"
    panose-1="2 0 5 4 0 0 0 2 0 4"
    ascent="763"
    descent="-248"
    alphabetic="0" />
<missing-glyph horiz-adv-x="364" d="M33 0V666H298V0H33ZM66 33H265V633H66V33Z" />
<glyph unicode=" " glyph-name="space" horiz-adv-x="305" />
<glyph unicode="!" glyph-name="exclam" horiz-adv-x="333" d="M249 540H83V528Q98 524 102 519T108 502L139 235Q140 227 141 221T142 207Q142 199 137 197T124 194V182H208V194Q200 194 195 196T190 207Q190 214 191 220T193 235L224 502Q226 514 230 519T249
528V540ZM166 122Q140 122 121 103T102 58Q102 32 121 15T166 -3Q192 -3 211 14T230 58Q230 84 211 103T166 122Z" />
<glyph unicode="&quot;" glyph-name="quotedbl" horiz-adv-x="333" d="M269 247L285 434Q286 445 286 455T287 478Q287 498 280 515T246 532Q220 532 213 515T205 478Q205 466 205 456T207 434L223 247Q224 236 228 226T246 216Q260 216 264 226T269 247ZM110
247L126 434Q127 445 127 455T128 478Q128 498 121 515T87 532Q61 532 54 515T46 478Q46 466 46 456T48 434L64 247Q65 236 69 226T87 216Q101 216 105 226T110 247Z" />
<glyph unicode="#" glyph-name="numbersign" horiz-adv-x="611" d="M428 211L448 315H560V369H458L488 526H422L391 369H266L297 526H231L200 369H90V315H189L169 211H60V157H158L127 0H193L224 157H349L318 0H387L418 157H530V211H428ZM255 315H380L360 211H235L255
315Z" />
<glyph unicode="$" glyph-name="dollar" horiz-adv-x="611" d="M336 76V220Q351 219 373 217T416 209T450 191T465 157Q465 133 452 118T420 93T378 80T336 76ZM276 450V322Q263 322 244 323T207 330T176 346T163 375Q163 400 173 414T199 436T236 446T276 450ZM46
41L57 35Q62 46 76 46Q83 46 95 41T129 27T186 10T276 -3V-83H336V-3Q374 -1 414 8T488 39T543 92T565 170Q565 217 543 244T486 285T412 306T336 316V450Q355 450 379 448T425 438T463 416T483 378L491 375L557 497L548 503Q542 498 538 496T526 494Q523 494 505
500T461 513T402 526T336 532V594H276V532Q242 532 205 522T136 492T84 442T63 372Q63 328 83 300T133 256T202 234T276 226V76Q255 76 226 80T170 95T123 123T99 166L91 169L46 41Z" />
<glyph unicode="%" glyph-name="percent" horiz-adv-x="889" d="M243 -65L637 582H576L183 -65H243ZM612 198Q654 198 680 171T706 103Q706 63 680 36T612 8Q570 8 544 35T518 103Q518 143 544 170T612 198ZM612 274Q577 274 546 261T492 224T456 170T442 103Q442
67 455 36T492 -17T546 -52T612 -65Q647 -65 678 -52T732 -17T768 36T782 103Q782 139 769 170T732 224T678 260T612 274ZM210 506Q252 506 278 479T304 411Q304 371 278 344T210 316Q168 316 142 343T116 411Q116 451 142 478T210 506ZM210 582Q175 582 144 569T90
532T54 478T40 411Q40 375 53 344T90 290T144 254T210 240Q245 240 276 253T330 290T366 344T380 411Q380 447 367 478T330 532T276 568T210 582Z" />
<glyph unicode="&amp;" glyph-name="ampersand" horiz-adv-x="722" d="M292 458Q327 458 351 442T376 390Q376 355 352 339T292 322Q257 322 233 338T208 390Q208 425 232 441T292 458ZM162 167Q162 193 173 210T202 239T241 255T284 260Q315 260 330 250T354
224T370 187T392 145Q390 132 381 120T356 97T323 81T284 74Q263 74 242 79T202 95T173 124T162 167ZM627 -3V119H617Q617 108 614 99T596 90Q579 91 560 105T526 138Q529 148 536 163T552 192T572 217T595 227Q606 227 610 219T617 205H627V359H617Q617 355 613
353T604 348Q596 346 580 336T543 308T503 267T468 217Q461 224 456 235T445 259T431 284T410 306Q433 314 452 339T472 400Q472 435 456 459T414 500T356 524T292 532Q261 532 229 525T171 501T129 460T112 400Q112 366 134 341T188 305V303Q159 295 134 283T91
253T63 211T52 153Q52 111 72 81T122 32T190 5T264 -3Q296 -3 320 -1T366 10T408 32T453 66Q465 53 479 41T514 18T562 3T627 -3Z" />
<glyph unicode="&apos;" glyph-name="quotesingle" horiz-adv-x="222" d="M134 247L150 434Q151 445 151 455T152 478Q152 498 145 515T111 532Q85 532 78 515T70 478Q70 466 70 456T72 434L88 247Q89 236 93 226T111 216Q125 216 129 226T134 247Z" />
<glyph unicode="(" glyph-name="parenleft" horiz-adv-x="389" d="M304 516V536Q252 520 211 484T142 401T100 303T85 205Q85 159 99 108T142 11T211 -70T304 -123V-103Q271 -85 248 -58T211 5T191 91T185 205Q185 269 191 319T211 406T248 471T304 516Z" />
<glyph unicode=")" glyph-name="parenright" horiz-adv-x="389" d="M85 -103V-123Q138 -107 178 -71T247 11T289 107T304 205Q304 251 290 302T247 400T179 483T85 536V516Q118 498 141 471T178 407T198 319T204 205Q204 141 198 92T178 6T141 -58T85 -103Z" />
<glyph unicode="*" glyph-name="asterisk" horiz-adv-x="500" d="M414 376L388 461L264 384L260 387L294 526H206L240 387L236 384L112 461L86 376L227 363L230 358L119 265L193 210L248 345H252L307 210L381 265L270 358L273 363L414 376Z" />
<glyph unicode="+" glyph-name="plus" horiz-adv-x="600" d="M261 440V259H80V181H261V0H339V181H520V259H339V440H261Z" />
<glyph unicode="," glyph-name="comma" horiz-adv-x="305" d="M52 -116V-148Q83 -141 112 -123T163 -80T198 -26T212 36Q212 78 192 107T131 136Q105 136 85 115T64 65Q64 35 82 19T126 2Q134 2 143 1T154 -4Q156 -22 146 -40T121 -73T86 -100T52 -116Z" />
<glyph unicode="-" glyph-name="hyphen" horiz-adv-x="333" d="M48 178H285V262H48V178Z" />
<glyph unicode="." glyph-name="period" horiz-adv-x="305" d="M81 65Q81 36 102 17T152 -3Q181 -3 202 16T223 65Q223 94 202 115T152 136Q123 136 102 115T81 65Z" />
<glyph unicode="/" glyph-name="slash" horiz-adv-x="278" d="M-20 -4H57L299 532H220L-20 -4Z" />
<glyph unicode="0" glyph-name="zero" horiz-adv-x="611" d="M305 446Q340 446 370 432T421 394T455 336T468 263Q468 224 456 191T422 133T370 94T305 80Q270 80 240 94T189 132T155 190T142 263Q142 302 154 335T188 393T240 432T305 446ZM305 532Q247 532 197
512T109 456T50 371T28 263Q28 204 49 155T108 71T196 16T305 -3Q363 -3 413 16T501 70T560 155T582 263Q582 322 561 371T502 456T414 512T305 532Z" />
<glyph unicode="1" glyph-name="one" horiz-adv-x="611" d="M229 0H394V12Q384 12 376 17T368 40V498Q368 508 376 513T396 520V532H234V520Q245 518 251 514T258 496Q258 481 247 471T218 460Q210 460 201 463T192 476H180V350H192Q195 358 202 362T219 369T237
373T254 374V40Q254 23 247 18T229 12V0Z" />
<glyph unicode="2" glyph-name="two" horiz-adv-x="611" d="M548 120H536Q536 100 527 96T506 92H176V102Q203 127 238 143T312 173T388 203T454 239T502 292T520 370Q520 414 503 444T457 494T392 523T317 532Q259 532 217 517T147 484T103 451T81 436Q76 436
72 438T64 442L54 435L157 325L167 332Q163 335 161 343T158 356Q158 377 174 393T214 422T262 440T304 446Q321 446 339 443T372 432T396 410T406 375Q406 344 380 321T313 277T227 233T141 182T75 115T48 24V-12H60Q60 -3 67 -2T85 0H506Q517 0 526 -1T536 -13H548V120Z"
/>
<glyph unicode="3" glyph-name="three" horiz-adv-x="611" d="M133 352L142 358Q140 363 139 368T138 378Q138 390 153 402T191 424T242 440T297 446Q320 446 342 444T383 434T413 415T425 382Q425 361 412 347T381 325T341 314T304 311Q280 311 261 317T239 344H227V208H239Q245
226 262 230T304 235Q321 235 344 233T389 222T424 200T439 161Q439 136 424 121T388 96T342 84T299 80Q276 80 243 86T179 105T126 136T104 177V184Q104 189 105 191L94 197L36 53L45 50Q49 52 52 54T61 56Q69 56 88 47T138 26T207 6T291 -3Q331 -3 376 3T460
29T523 82T549 166Q549 211 522 240T451 280V282Q487 290 508 320T529 387Q529 426 509 453T456 498T384 524T305 532Q247 532 207 521T140 495T101 470T82 458Q73 458 65 463L53 454L133 352Z" />
<glyph unicode="4" glyph-name="four" horiz-adv-x="611" d="M368 176H142L368 424V176ZM76 90H368V40Q368 23 360 18T341 12V0H492V12Q485 12 479 17T472 40V90H504Q517 90 524 86T532 65H544V200H532Q532 184 525 180T504 176H472V495Q472 504 478 509T493 514V526H299V514Q304
511 310 509T316 498Q316 492 307 482T287 459L30 180V68H42Q42 81 50 85T76 90Z" />
<glyph unicode="5" glyph-name="five" horiz-adv-x="611" d="M124 184L45 80L57 70Q62 71 66 71T72 72Q80 72 92 62T138 33Q166 18 204 8T298 -3Q341 -3 387 5T471 36T533 95T558 183Q558 228 537 260T483 314T409 344T329 354Q287 354 250 347T174 325V434H474Q485
434 494 430T504 409H516V544H504Q504 532 495 529T474 526H63V514Q82 514 82 496V358Q82 348 78 344T61 330L185 208L191 216Q188 221 188 226Q188 241 202 250T237 264T277 272T307 274Q330 274 355 270T400 254T434 225T448 177Q448 149 435 130T402 100T358
85T311 80Q280 80 248 88T191 108T149 136T132 164Q132 167 132 170T133 175L124 184Z" />
<glyph unicode="6" glyph-name="six" horiz-adv-x="611" d="M313 264Q370 264 405 239T440 172Q440 130 405 105T313 80Q256 80 221 105T186 172Q186 214 221 239T313 264ZM555 483L547 490Q545 488 540 487T528 486Q520 486 507 493T470 509Q448 518 416 525T336
532Q276 532 225 511T136 453T77 365T56 253Q56 194 73 146T124 65T204 14T311 -3Q352 -3 395 7T473 41T531 99T554 181Q554 222 537 252T491 304T428 335T355 346Q301 346 259 333T170 295Q173 373 216 411T336 450Q348 450 367 448T408 439T448 423T477 398Q481
393 482 389T485 379L497 375L555 483Z" />
<glyph unicode="7" glyph-name="seven" horiz-adv-x="611" d="M412 434L161 40Q154 29 143 21T123 12V0H303V12Q284 12 284 28Q284 36 293 48T312 77L546 454V544H534Q534 526 504 526H84Q73 526 64 529T54 544H42V409H54Q54 426 63 430T84 434H412Z" />
<glyph unicode="8" glyph-name="eight" horiz-adv-x="611" d="M306 454Q372 454 400 439T428 389Q428 354 400 339T306 324Q240 324 212 339T184 389Q184 424 212 439T306 454ZM305 242Q448 242 448 159Q448 76 305 76Q162 76 162 159Q162 242 305 242ZM441 282V281Q484
293 511 318T538 391Q538 436 514 464T455 507T378 527T302 532Q266 532 226 527T152 507T96 463T74 388Q74 343 103 317T173 282V280Q146 272 124 262T85 236T61 200T52 146Q52 102 75 73T135 27T213 3T295 -3Q332 -3 377 1T463 23T530 72T558 155Q558 212 526
240T441 280V282Z" />
<glyph unicode="9" glyph-name="nine" horiz-adv-x="611" d="M297 446Q321 446 344 442T385 427T413 399T424 355Q424 329 414 312T385 284T344 269T297 264Q273 264 250 268T209 283T181 311T170 355Q170 381 180 398T209 426T250 441T297 446ZM56 45L64 38Q72
44 83 44Q91 44 104 37T138 20T190 4T267 -3Q332 -3 384 16T475 73T533 163T554 281Q554 336 536 382T485 461T407 513T306 532Q262 532 218 521T137 487T79 427T56 340Q56 298 75 268T125 219T194 191T268 182Q314 182 356 197T440 233Q430 76 274 76Q258 76 238
78T199 87T162 102T135 125Q131 130 130 137T128 149L116 155L56 45Z" />
<glyph unicode=":" glyph-name="colon" horiz-adv-x="305" d="M81 65Q81 36 102 17T152 -3Q181 -3 202 16T223 65Q223 94 202 115T152 136Q123 136 102 115T81 65ZM81 327Q81 298 102 277T152 256Q181 256 202 277T223 327Q223 356 202 377T152 398Q123 398 102
377T81 327Z" />
<glyph unicode=";" glyph-name="semicolon" horiz-adv-x="305" d="M64 327Q64 298 85 277T135 256Q164 256 185 277T206 327Q206 356 185 377T135 398Q106 398 85 377T64 327ZM52 -116V-148Q83 -141 112 -123T163 -80T198 -26T212 36Q212 78 192 107T131 136Q105
136 85 115T64 65Q64 35 82 19T126 2Q134 2 143 1T154 -4Q156 -22 146 -40T121 -73T86 -100T52 -116Z" />
<glyph unicode="&lt;" glyph-name="less" horiz-adv-x="600" d="M520 0V75L172 220L520 365V440L80 250V190L520 0Z" />
<glyph unicode="=" glyph-name="equal" horiz-adv-x="600" d="M520 93V171H80V93H520ZM520 269V347H80V269H520Z" />
<glyph unicode="&gt;" glyph-name="greater" horiz-adv-x="600" d="M80 75V0L520 190V250L80 440V365L428 220L80 75Z" />
<glyph unicode="?" glyph-name="question" horiz-adv-x="444" d="M231 122Q205 122 186 103T167 58Q167 32 186 15T231 -3Q257 -3 276 14T295 58Q295 84 276 103T231 122ZM59 476L136 392L145 399Q142 408 142 417Q142 423 147 432T163 450T189 464T224 470Q250
470 267 455T285 412Q285 389 272 372T242 334Q226 315 212 290T193 223Q191 206 187 200T176 194V182H288V194Q279 194 275 201T271 220Q271 243 289 263T328 306Q350 329 367 356T385 421Q385 451 373 474T339 513T292 537T238 546Q196 546 170 536T127 515T100
493T79 483Q78 483 68 485L59 476Z" />
<glyph unicode="@" glyph-name="at" horiz-adv-x="600" d="M403 392L396 366Q392 372 388 379T379 391T365 400T342 404Q303 404 274 383T227 332T199 270T189 213Q189 183 197 165T216 136T241 121T264 117Q282 118 297 125T323 141T342 159T351 172H353H354Q354
168 357 159T369 141T391 124T425 117Q460 117 487 135T532 180T560 239T570 302Q570 352 550 394T496 466T414 514T313 532Q256 532 205 512T114 455T52 366T29 251Q29 211 46 166T99 83T190 21T322 -3Q367 -3 407 9T484 41L475 78Q442 61 408 51T321 40Q279 40
241 56T174 100T128 164T111 243Q111 308 129 354T176 429T241 472T313 486Q362 486 400 470T465 427T506 368T520 302Q520 277 514 250T496 201T469 164T437 149Q427 149 422 155T414 169T411 187T414 202L460 392H403ZM379 311Q371 233 345 196T293 159Q277 159
266 175T255 224Q255 254 264 279T288 323T319 352T349 362Q366 362 372 349T379 311Z" />
<glyph unicode="A" glyph-name="A" horiz-adv-x="667" d="M398 204L314 390L220 204H398ZM21 18Q34 20 41 31T56 56L241 445Q248 458 253 469T259 488Q259 498 252 502T237 508V526H406V508Q399 506 392 503T385 488Q385 480 388 472T399 451L607 44Q612 33 620
28T640 18V0H464V18Q468 18 474 21T480 30Q480 40 472 56L434 130H190L154 59Q144 38 144 29Q144 18 163 18V0H21V18Z" />
<glyph unicode="B" glyph-name="B" horiz-adv-x="722" d="M225 320V440H416Q461 440 490 429T520 380Q520 343 491 332T416 320H225ZM225 92V234H416Q479 234 506 215T534 163Q534 131 507 112T416 92H225ZM396 526H83V508Q111 508 111 490V36Q111 18 83 18V0H450Q497
0 534 10T596 40T635 84T648 140Q648 197 616 227T536 272V274Q576 288 605 313T634 386Q634 425 614 451T561 494T485 518T396 526Z" />
<glyph unicode="C" glyph-name="C" horiz-adv-x="722" d="M649 80L583 186L569 178Q573 173 573 166Q573 153 554 139T505 113T441 94T374 86Q332 86 294 98T227 133T181 189T164 266Q164 309 181 342T226 399T293 434T374 446Q399 446 428 440T484 425T529 405T549
382Q550 378 550 375T551 369L561 362L639 483L624 495Q622 492 619 487T610 482Q606 482 588 490T539 507T467 524T374 532Q311 532 253 515T151 464T80 380T54 263Q54 196 80 146T150 63T253 13T374 -3Q422 -3 466 8T544 34T601 61T630 73Q633 73 635 73T641
72L649 80Z" />
<glyph unicode="D" glyph-name="D" horiz-adv-x="722" d="M211 86V440H366Q413 440 448 432T506 404T540 349T552 263Q552 211 541 177T506 123T448 94T366 86H211ZM74 526V508Q97 508 97 490V36Q97 18 74 18V0H406Q461 0 508 16T591 64T646 146T666 263Q666 330
646 379T591 461T509 510T406 526H74Z" />
<glyph unicode="E" glyph-name="E" horiz-adv-x="667" d="M598 418V550H580Q580 539 572 533T542 526H86V508Q93 508 98 504T104 490V36Q104 27 99 23T86 18V0H552Q567 0 576 -2T586 -19H604V118H586Q586 106 577 99T552 92H218V230H414Q434 230 445 224T456 194H474V350H456Q456
327 445 322T414 316H218V440H542Q563 440 571 435T580 418H598Z" />
<glyph unicode="F" glyph-name="F" horiz-adv-x="611" d="M586 418V550H568Q568 539 560 533T530 526H66V508Q92 508 92 490V36Q92 18 66 18V0H236V18Q223 18 215 22T206 36V230H402Q422 230 433 224T444 194H462V338H444Q444 324 433 320T402 316H206V440H530Q551
440 559 435T568 418H586Z" />
<glyph unicode="G" glyph-name="G" horiz-adv-x="722" d="M624 496L612 503Q607 500 602 496T588 492Q583 492 563 498T511 512T440 526T356 532Q286 532 229 514T130 460T67 376T44 263Q44 200 66 151T130 67T228 15T356 -3Q392 -3 429 -1T504 9T578 33T648 71V87Q640
91 634 94T628 107V220Q628 233 633 237T658 244V262H408Q394 262 387 266T378 288H360V160H378Q380 180 387 186T408 192H536V106Q504 95 459 86T356 76Q319 76 283 86T218 119T172 176T154 261Q154 311 171 346T217 403T282 435T356 446Q386 446 419 442T481
430T528 409T547 382Q547 376 545 370L565 364L624 496Z" />
<glyph unicode="H" glyph-name="H" horiz-adv-x="778" d="M550 320H228V490Q228 499 233 503T246 508V526H95V508Q114 508 114 490V36Q114 18 95 18V0H246V18Q239 18 234 22T228 36V224H550V36Q550 18 528 18V0H682V18Q675 18 670 22T664 36V490Q664 499 669 503T682
508V526H528V508Q550 508 550 490V320Z" />
<glyph unicode="I" glyph-name="I" horiz-adv-x="333" d="M83 0H249V18Q223 18 223 36V490Q223 508 249 508V526H83V508Q109 508 109 490V36Q109 18 83 18V0Z" />
<glyph unicode="J" glyph-name="J" horiz-adv-x="500" d="M-17 24L-2 14Q5 26 16 26Q26 26 41 21T77 11T124 1T181 -3Q231 -3 272 5T343 32T389 80T406 148V478Q406 492 418 500T447 508V526H257V508Q268 508 280 500T292 478V157Q292 109 265 92T177 74Q158 74
137 78T98 91T68 112T52 140L36 146L-17 24Z" />
<glyph unicode="K" glyph-name="K" horiz-adv-x="667" d="M209 179L293 244L464 47Q478 30 478 25Q478 18 465 18V0H650V18Q633 23 616 37T585 67L375 310L605 493Q623 508 641 508V526H431V508Q437 508 441 505T446 495Q446 490 438 483T416 463L209 300V490Q209
499 215 503T229 508V526H73V508Q95 508 95 490V36Q95 18 73 18V0H229V18Q221 18 215 22T209 36V179Z" />
<glyph unicode="L" glyph-name="L" horiz-adv-x="611" d="M574 -19H592V118H574Q574 106 565 99T540 92H208V490Q208 508 236 508V526H64V508Q94 508 94 490V36Q94 18 64 18V0H540Q555 0 564 -2T574 -19Z" />
<glyph unicode="M" glyph-name="M" horiz-adv-x="833" d="M88 0H238V18Q210 18 210 36V369H212L409 0H412L613 368H615V36Q615 18 588 18V0H745V18Q737 18 731 22T725 36V492Q725 501 731 504T745 508V526H560V508Q573 508 573 497Q573 491 570 484T559 463L415
206L272 466Q267 475 263 483T259 496Q259 502 264 505T275 508V526H88V508Q96 508 102 505T108 492V36Q108 27 102 23T88 18V0Z" />
<glyph unicode="N" glyph-name="N" horiz-adv-x="778" d="M91 0H239V18Q216 18 216 36V368L521 50Q537 34 537 27Q537 18 524 18V0H686V18Q667 18 667 36V490Q667 508 686 508V526H535V508Q561 508 561 490V172L274 470Q254 490 254 498Q254 508 262 508V526H91V508Q110
508 110 490V36Q110 18 91 18V0Z" />
<glyph unicode="O" glyph-name="O" horiz-adv-x="778" d="M389 440Q427 440 465 428T533 394T583 338T602 263Q602 221 583 188T534 133T465 98T389 86Q351 86 313 98T245 132T195 188T176 263Q176 305 195 338T244 393T313 428T389 440ZM389 532Q334 532 277
516T173 466T96 383T66 263Q66 194 96 144T173 60T277 12T389 -3Q444 -3 501 12T605 60T682 143T712 263Q712 332 682 382T605 466T501 515T389 532Z" />
<glyph unicode="P" glyph-name="P" horiz-adv-x="667" d="M227 306V434H440Q473 434 496 421T520 370Q520 332 497 319T440 306H227ZM259 0V18Q227 18 227 36V214H428Q524 214 579 249T634 370Q634 455 579 490T428 526H76V508Q113 508 113 490V36Q113 18 76 18V0H259Z" />
<glyph unicode="Q" glyph-name="Q" horiz-adv-x="778" d="M389 440Q427 440 465 428T533 394T583 338T602 263Q602 220 583 187T532 131Q516 143 501 155T469 176T435 190T396 196Q371 196 350 190T328 176Q328 172 335 169T356 158T389 135T430 90Q413 86 389
86Q351 86 313 98T245 132T195 188T176 263Q176 305 195 338T244 393T313 428T389 440ZM575 -102L691 -1L678 10Q670 2 658 2Q653 2 645 8T629 24T612 42T598 56Q649 89 680 140T712 263Q712 332 682 382T605 466T501 515T389 532Q334 532 277 516T173 466T96 383T66
263Q66 194 96 144T173 60T277 12T389 -3Q416 -3 443 -1T498 10Q505 1 517 -10T542 -34T562 -57T571 -74Q571 -80 569 -85T563 -94L575 -102Z" />
<glyph unicode="R" glyph-name="R" horiz-adv-x="722" d="M223 292V440H396Q432 440 456 435T494 419T514 396T520 366Q520 350 514 337T494 313T456 298T396 292H223ZM80 526V508Q109 508 109 490V36Q109 18 80 18V0H253V18Q236 18 230 22T223 36V214H366L476
58Q484 47 488 41T492 29Q492 24 486 21T470 18V0H657V18Q649 18 640 20T623 32L490 222Q556 234 595 269T634 370Q634 413 619 442T576 490T509 517T422 526H80Z" />
<glyph unicode="S" glyph-name="S" horiz-adv-x="667" d="M70 44L84 36Q90 44 97 44Q108 44 123 37T163 20T227 4T323 -3Q364 -3 411 3T500 29T568 81T596 166Q596 211 579 239T533 283T468 307T393 318T319 323T254 331T208 349T190 385Q190 402 202 413T234
432T276 442T322 446Q351 446 380 441T434 426T477 406T504 382Q510 373 512 359L522 355L591 480L579 488Q573 482 559 482Q546 482 527 490T479 507T411 524T319 532Q257 532 211 518T135 480T91 427T76 366Q76 320 93 292T139 247T204 223T279 213T353 209T418
202T464 186T482 152Q482 129 463 115T418 93T365 83T321 80Q298 80 269 85T214 100T167 120T139 144Q135 151 135 160L125 165L70 44Z" />
<glyph unicode="T" glyph-name="T" horiz-adv-x="611" d="M362 36V434H527Q536 434 544 429T553 410H571V550H553Q553 536 545 531T527 526H83Q74 526 66 531T57 550H39V410H57Q57 424 65 429T83 434H248V36Q248 27 243 23T230 18V0H384V18Q362 18 362 36Z" />
<glyph unicode="U" glyph-name="U" horiz-adv-x="722" d="M230 526H66V508Q94 508 94 490V195Q94 136 111 98T162 36T246 5T363 -3Q429 -3 479 5T564 36T615 97T632 195V490Q632 508 656 508V526H496V508Q526 508 526 490V190Q526 127 486 104T367 80Q289 80 249
103T208 190V490Q208 508 230 508V526Z" />
<glyph unicode="V" glyph-name="V" horiz-adv-x="667" d="M644 526H469V508Q497 508 497 492Q497 484 487 464T464 417L339 146L211 421Q199 446 191 463T182 491Q182 501 188 504T202 508V526H23V508Q40 503 49 498T63 482L243 91Q254 68 261 53T269 32Q269 22
260 18V0H413V18Q409 21 407 24T404 32Q404 37 410 49T425 81L602 470Q606 479 615 493T644 508V526Z" />
<glyph unicode="W" glyph-name="W" horiz-adv-x="944" d="M186 526H31V508Q41 506 45 499T54 480L214 67Q218 57 221 48T225 31Q225 24 219 21T207 18V0H362V18Q349 22 349 38Q349 48 364 87L473 376H475L590 81Q598 63 601 53T605 35Q605 28 599 24T586 18V0H744V18Q735
18 730 23T725 36Q725 44 729 56T740 84L884 466Q891 484 896 496T913 508V526H765V508Q772 508 777 503T782 491Q782 479 775 464L667 176H665L558 458Q548 482 548 492Q548 498 551 503T561 508V526H390V508Q403 508 403 489Q403 484 402 478T395 458L289 176H287L180
454Q174 470 173 477T171 489Q171 508 186 508V526Z" />
<glyph unicode="X" glyph-name="X" horiz-adv-x="667" d="M260 526H42V508Q61 508 75 500T106 469L268 263L93 40Q82 26 72 22T42 18V0H226V18Q207 18 207 32Q207 40 214 49T227 66L326 190L418 70Q427 59 433 50T440 34Q440 18 424 18V0H625V18Q613 18 604 23T586
36T573 52T563 66L397 278L570 492Q578 502 589 505T625 508V526H422V508Q449 508 449 495Q449 490 441 480T422 456L339 351L257 454Q248 465 243 475T237 492Q237 500 244 504T260 508V526Z" />
<glyph unicode="Y" glyph-name="Y" horiz-adv-x="611" d="M11 526V508Q21 508 35 501T57 484L250 214V36Q250 27 244 23T229 18V0H387V18Q364 18 364 36V214L534 455Q546 473 554 483T570 499T585 506T600 508V526H425V508Q433 508 442 506T452 497Q452 491 447
484T434 465L317 304Q304 325 283 355T243 413T209 464T194 493Q194 503 202 505T219 508V526H11Z" />
<glyph unicode="Z" glyph-name="Z" horiz-adv-x="611" d="M49 28V0H515Q543 0 543 -19H561V114H543Q543 92 515 92H243L561 498V526H100Q70 526 70 550H52V412H70Q70 440 100 440H372L49 28Z" />
<glyph unicode="[" glyph-name="bracketleft" horiz-adv-x="389" d="M69 -132H320V-86H161V480H320V526H69V-132Z" />
<glyph unicode="\" glyph-name="backslash" horiz-adv-x="278" d="M59 532H-17L231 -4H309L59 532Z" />
<glyph unicode="]" glyph-name="bracketright" horiz-adv-x="389" d="M320 526H69V480H228V-86H69V-132H320V526Z" />
<glyph unicode="^" glyph-name="asciicircum" horiz-adv-x="600" d="M106 208H184L300 450L416 208H494L337 526H263L106 208Z" />
<glyph unicode="_" glyph-name="underscore" horiz-adv-x="500" d="M0 -123H500V-73H0V-123Z" />
<glyph unicode="`" glyph-name="grave" horiz-adv-x="333" d="M152 634H16L160 490H242L152 634Z" />
<glyph unicode="a" glyph-name="a" horiz-adv-x="556" d="M197 184L268 352L349 184H197ZM15 0H149V18Q140 18 135 20T130 30Q130 35 132 41T139 56L167 110H381L408 53Q411 45 413 40T415 29Q415 21 410 18T399 15V0H541V18Q534 20 528 24T517 37L355 377Q350
388 346 396T341 411Q341 418 344 419T351 422V440H200V422Q203 420 205 419T208 411Q208 403 205 395T195 372L46 47Q42 39 35 30T15 18V0Z" />
<glyph unicode="b" glyph-name="b" horiz-adv-x="611" d="M189 266V366H367Q379 366 391 365T412 358T427 343T433 317Q433 286 412 276T367 266H189ZM189 74V192H349Q401 192 423 177T445 131Q445 104 428 89T365 74H189ZM93 407V33Q93 25 86 22T70 18V0H377Q421
0 452 9T503 35T532 72T541 117Q541 138 534 156T516 188T491 212T463 228V229Q475 235 486 245T507 267T523 295T529 329Q529 351 520 371T493 406T447 431T381 440H70V422Q78 422 85 419T93 407Z" />
<glyph unicode="c" glyph-name="c" horiz-adv-x="556" d="M440 306L506 401L494 408Q490 406 487 403T478 400Q471 400 455 407T415 423T360 439T290 446Q241 446 195 432T112 390T54 319T32 221Q32 165 54 123T111 52T191 10T282 -3Q327 -3 363 5T427 24T473
45T499 54Q504 54 516 49L526 54L452 160L441 150Q442 146 442 140V132Q442 123 428 112T390 92T339 75T284 68Q255 68 227 78T177 109T142 158T128 223Q128 259 140 287T174 334T225 362T291 372Q321 372 346 367T389 353T418 337T428 323Q428 320 428 318T429
314L440 306Z" />
<glyph unicode="d" glyph-name="d" horiz-adv-x="611" d="M186 74V366H316Q347 366 375 363T424 345T457 302T470 223Q470 173 458 144T424 99T375 79T316 74H186ZM67 0H349Q408 0 449 19T516 68T554 138T566 220Q566 262 554 301T515 371T446 421T345 440H67V422Q90
422 90 407V33Q90 18 67 18V0Z" />
<glyph unicode="e" glyph-name="e" horiz-adv-x="556" d="M486 347V458H468Q468 440 437 440H82V422Q87 422 92 419T97 407V33Q97 25 92 22T82 18V0H449Q461 0 469 -1T477 -11H495V94H477Q477 85 469 80T449 74H193V192H339Q359 192 370 190T378 176H398V282H380Q380
271 372 269T347 266H193V366H437Q468 366 468 347H486Z" />
<glyph unicode="f" glyph-name="f" horiz-adv-x="556" d="M512 352V458H494Q494 450 487 445T463 440H75V422Q96 422 96 407V33Q96 18 77 18V0H215V18Q206 18 199 21T192 33V186H368Q385 186 389 182T394 170H412V275H394Q393 267 389 264T368 260H192V366H463Q480
366 487 362T494 352H512Z" />
<glyph unicode="g" glyph-name="g" horiz-adv-x="611" d="M529 404L517 410Q511 405 507 404T495 402Q488 402 474 409T437 424Q415 432 385 439T316 446Q251 446 199 431T110 386T54 315T34 220Q34 167 53 126T109 55T198 12T316 -3Q364 -3 403 3T471 20T520
40T549 57V69Q539 73 537 76T534 89V184Q534 194 537 199T549 208V226H353Q342 226 334 229T324 242H306V139H324Q326 151 334 155T353 160H456V97Q424 80 386 74T304 68Q275 68 244 76T188 101T146 147T130 218Q130 260 145 289T185 336T243 363T313 372Q340 372
366 367T414 352T448 333T461 313Q461 312 459 302L471 295L529 404Z" />
<glyph unicode="h" glyph-name="h" horiz-adv-x="667" d="M199 184H467V33Q467 25 463 22T452 18V0H578V18Q572 18 568 21T563 33V407Q563 415 567 418T578 422V440H452V422Q458 422 462 419T467 407V266H199V407Q199 415 203 418T214 422V440H88V422Q94 422 98
419T103 407V33Q103 25 99 22T88 18V0H214V18Q208 18 204 21T199 33V184Z" />
<glyph unicode="i" glyph-name="i" horiz-adv-x="333" d="M90 0H242V18Q214 18 214 33V407Q214 422 242 422V440H90V422Q106 422 112 419T118 407V33Q118 25 112 22T90 18V0Z" />
<glyph unicode="j" glyph-name="j" horiz-adv-x="444" d="M-4 20L5 12Q10 17 14 20T26 24Q35 24 49 20T81 10T120 1T163 -3Q202 -3 235 2T293 23T332 63T346 124V397Q346 408 355 415T374 422V440H225V422Q232 422 241 415T250 397V136Q250 95 229 82T164 68Q127
68 99 78T63 100Q58 106 58 114T57 130L43 135L-4 20Z" />
<glyph unicode="k" glyph-name="k" horiz-adv-x="556" d="M186 145L264 207L387 57Q400 42 404 35T409 24Q409 18 398 18V0H546V18Q532 22 518 37T492 68L334 264L501 399Q525 418 537 422V440H372V425Q377 425 382 422T388 414Q388 410 369 394T321 353T256 301T186
244V407Q186 422 205 422V440H74V422Q90 422 90 407V33Q90 18 74 18V0H205V18Q186 18 186 33V145Z" />
<glyph unicode="l" glyph-name="l" horiz-adv-x="556" d="M76 440V422Q102 422 102 407V33Q102 18 76 18V0H468Q480 0 488 -1T496 -10H514V95H496Q496 85 488 80T468 74H198V407Q198 422 221 422V440H76Z" />
<glyph unicode="m" glyph-name="m" horiz-adv-x="722" d="M93 0H206V18Q189 18 189 33V314H191H190L351 0H359L529 314H531V33Q534 18 513 18V0H629V18Q624 18 620 21T615 33V409Q615 417 619 419T629 422V440H488V422Q496 422 496 413Q496 410 492 403T481 383L358
159L236 384Q229 396 226 402T222 413Q222 422 232 422V440H93V422Q100 422 102 419T105 402V36Q105 25 102 22T93 18V0Z" />
<glyph unicode="n" glyph-name="n" horiz-adv-x="667" d="M81 0H204V18Q183 18 183 33V324L431 60Q443 47 452 37T462 23Q462 18 455 18V0H585V18Q567 18 567 33V407Q567 422 585 422V440H463V422Q483 422 483 407V136L243 390Q221 412 221 417Q221 421 228 422V440H81V422Q99
422 99 407V33Q99 18 81 18V0Z" />
<glyph unicode="o" glyph-name="o" horiz-adv-x="611" d="M305 372Q337 372 367 362T422 332T460 284T475 220Q475 184 461 156T422 109T368 79T305 68Q273 68 243 78T188 108T150 156T135 220Q135 256 149 284T188 331T242 361T305 372ZM305 446Q250 446 202
432T117 390T60 320T39 220Q39 163 60 121T117 50T201 10T305 -3Q360 -3 408 9T493 50T550 120T571 220Q571 277 550 319T493 390T409 432T305 446Z" />
<glyph unicode="p" glyph-name="p" horiz-adv-x="556" d="M188 257V366H356Q385 366 404 354T424 310Q424 278 405 268T356 257H188ZM92 407V33Q92 18 67 18V0H209V18Q188 18 188 33V183H358Q439 183 479 210T520 310Q520 382 480 411T358 440H67V422Q92 422 92 407Z" />
<glyph unicode="q" glyph-name="q" horiz-adv-x="611" d="M305 372Q337 372 367 362T422 332T460 284T475 220Q475 181 458 151T412 101Q373 136 346 155T283 174Q265 174 255 171T244 162Q244 158 251 154T272 142T303 117T342 72Q329 68 305 68Q273 68 243 78T188
108T150 156T135 220Q135 256 149 284T188 331T242 361T305 372ZM448 -84L456 -96L564 -13L554 -4Q549 -9 534 -9Q522 -9 473 38Q518 64 544 109T571 220Q571 277 550 319T493 390T409 432T305 446Q250 446 202 432T117 390T60 320T39 220Q39 163 60 121T117 50T201
10T305 -3Q352 -3 399 6Q426 -20 442 -38T458 -65Q458 -71 455 -75T448 -84Z" />
<glyph unicode="r" glyph-name="r" horiz-adv-x="611" d="M194 250V366H352Q403 366 426 352T450 312Q450 250 352 250H194ZM354 440H78V422Q96 422 96 407V33Q96 18 78 18V0H211V18Q205 18 199 21T192 33V176H331L410 58Q425 37 425 27Q425 18 412 18V0H565V18Q554
21 545 26T527 43L429 186Q450 191 470 200T506 225T533 262T543 310Q543 381 493 410T354 440Z" />
<glyph unicode="s" glyph-name="s" horiz-adv-x="556" d="M92 158L46 46L60 36Q65 42 72 42Q76 42 95 35T141 19T202 4T270 -3Q304 -3 342 2T413 23T466 67T488 139Q488 183 464 208T402 246T322 264T242 275T181 290T156 322Q156 336 164 345T186 361T218 369T256
372Q308 372 350 360T412 331Q420 325 421 319T423 307L441 301L491 395L480 406Q474 403 470 401T458 398Q451 398 437 405T399 422T343 438T262 446Q166 446 113 408T60 306Q60 263 84 240T146 204T226 186T306 175T367 159T392 127Q392 108 378 97T344 79T304
70T269 68Q254 68 228 73T175 86T129 107T110 135Q110 140 110 144T111 153L92 158Z" />
<glyph unicode="t" glyph-name="t" horiz-adv-x="500" d="M187 18V0H316V18Q298 18 298 33V366H428Q436 366 443 362T450 349H468V464H450Q450 450 443 445T428 440H72Q64 440 57 445T50 464H32V349H50Q50 358 57 362T72 366H202V33Q202 25 197 22T187 18Z" />
<glyph unicode="u" glyph-name="u" horiz-adv-x="667" d="M217 440H74V422Q91 422 97 419T103 407V154Q103 123 117 95T159 44T232 10T337 -3Q397 -3 441 9T514 44T557 94T571 154V407Q571 422 593 422V440H454V422Q479 422 479 407V178Q479 130 444 101T337 72Q265
72 230 101T195 178V407Q195 422 217 422V440Z" />
<glyph unicode="v" glyph-name="v" horiz-adv-x="556" d="M532 440H401V422Q415 422 416 410Q417 403 411 391T394 355L285 113L170 362Q163 377 158 389T152 409Q152 422 164 422V440H23V422Q29 422 35 417T46 403L198 76Q207 57 213 46T220 30Q220 25 216 23T206
18V0H357V18Q339 21 339 27Q339 32 344 41T361 76L507 399Q518 422 532 422V440Z" />
<glyph unicode="w" glyph-name="w" horiz-adv-x="778" d="M143 440H16V422Q31 419 37 403L169 56Q171 51 174 42T178 26Q178 20 175 19T168 18V0H291V18Q282 18 279 21T276 32Q276 35 283 54T302 102T327 164T353 228T374 282T385 315H387Q403 265 420 216T451
128T475 62T484 32Q484 24 482 22T472 18V0H612V18Q598 18 598 31Q598 36 604 49T616 80L731 385Q744 422 761 422V440H634V422Q650 422 650 408Q650 401 647 391T638 366L545 123L457 364Q452 376 447 389T442 410Q442 422 460 422V440H317V422Q333 422 333 408Q333
400 329 388T319 361L234 123H232L144 366Q138 382 134 392T130 408Q130 422 143 422V440Z" />
<glyph unicode="x" glyph-name="x" horiz-adv-x="556" d="M200 440H43V422Q50 422 59 416T82 392L220 220L68 33Q61 24 53 21T38 18V0H184V18Q175 18 175 25Q175 32 189 49L274 153L361 46Q372 29 372 26Q372 19 365 18V0H518V18Q503 18 492 32T473 55L334 230L485
412Q495 422 511 422V440H358V422Q371 422 371 414Q371 406 355 387L279 294L209 379Q200 390 194 398T188 411Q188 422 200 422V440Z" />
<glyph unicode="y" glyph-name="y" horiz-adv-x="556" d="M230 187V33Q230 18 212 18V0H345V18Q326 18 326 33V183L479 381Q490 395 504 408T531 422V440H378V422Q383 422 388 420T393 410Q393 404 389 398T375 378L286 254L185 386Q180 393 176 398T172 409Q172
415 178 418T189 422V440H24V422Q33 422 43 418T60 405L230 187Z" />
<glyph unicode="z" glyph-name="z" horiz-adv-x="556" d="M57 18V0H458Q481 0 481 -10H499V95H481Q481 74 458 74H219L498 422V440H100Q75 440 75 463H57V346H75Q75 354 81 360T100 366H329L57 18Z" />
<glyph unicode="{" glyph-name="braceleft" horiz-adv-x="389" d="M130 107V-26Q130 -60 137 -81T161 -113T206 -129T276 -133V-121Q247 -115 235 -102T222 -66V96Q222 138 203 161T147 194V196Q184 206 203 229T222 294V459Q222 481 234 494T276 514V526Q234
526 206 522T161 507T137 474T130 419V283Q130 245 113 226T73 195Q96 184 113 165T130 107Z" />
<glyph unicode="|" glyph-name="bar" horiz-adv-x="222" d="M72 750V-248H150V750H72Z" />
<glyph unicode="}" glyph-name="braceright" horiz-adv-x="389" d="M259 283V419Q259 453 252 474T228 506T183 522T113 526V514Q142 508 154 495T167 459V294Q167 252 186 229T242 196V194Q205 184 186 161T167 96V-66Q167 -88 155 -101T113 -121V-133Q155 -133
183 -129T228 -114T252 -81T259 -26V107Q259 145 276 164T316 195Q293 206 276 225T259 283Z" />
<glyph unicode="~" glyph-name="asciitilde" horiz-adv-x="600" d="M531 231L495 299Q486 286 477 273T458 250T435 234T407 227Q387 227 360 239T305 263Q276 276 248 285T194 295Q169 295 150 288T115 268T88 241T69 209L105 141Q111 154 118 167T136 190T160
206T189 213Q224 213 252 203T304 178Q329 164 353 155T406 145Q429 145 447 152T481 172T508 199T531 231Z" />
</font>
</defs>
</svg>
