<?xml version="1.0" encoding="utf-8"?>
<!-- Generator: Adobe Illustrator 15.0.2, SVG Export Plug-In  -->
<!DOCTYPE svg PUBLIC "-//W3C//DTD SVG 1.1//EN" "http://www.w3.org/Graphics/SVG/1.1/DTD/svg11.dtd" [
	<!ENTITY ns_flows "http://ns.adobe.com/Flows/1.0/">
]>
<svg version="1.1"
	 xmlns="http://www.w3.org/2000/svg" xmlns:xlink="http://www.w3.org/1999/xlink" xmlns:a="http://ns.adobe.com/AdobeSVGViewerExtensions/3.0/"
	 x="0px" y="0px" width="992px" height="256px" viewBox="0.002 0 992 256"
	 overflow="visible" enable-background="new 0.002 0 992 256" xml:space="preserve">
<defs>
</defs>
<polygon fill="#C2681F" points="320.002,32 352.002,96 0.002,64 0.002,175.001 544.002,160 736.002,32 "/>
<polygon fill="#C2681F" points="918.486,0 677.222,102.707 736.002,32 508.45,34.167 544.002,128 544.002,256 864.002,64 
	992.002,160 "/>
<polygon fill="#C76C20" points="0.002,64 350.468,128 352.002,96 "/>
<polygon fill="#CC7022" points="352.002,96 320.002,32 350.468,128 "/>
<polygon fill="#CC7022" points="350.468,128 544.002,128 320.002,32 "/>
<polygon fill="#C2681F" points="0,175.001 544.002,160 350.468,128 "/>
<polygon fill="#D37522" points="320.002,32 512.002,32 736.002,32 544.002,128 "/>
<polygon fill="#CC7022" points="736.002,32 677.222,102.707 508.45,34.167 "/>
<polygon fill="#C76C20" points="544.002,128 677.222,102.707 512.002,32 "/>
<polygon fill="#C2681F" points="544.002,128 544.002,256 677.222,102.707 "/>
<polygon fill="#D37522" points="677.222,102.707 779.627,88.205 544.002,256 "/>
<polygon fill="#CC7022" points="677.222,102.707 918.486,0 779.627,88.205 "/>
<polygon fill="#D37522" points="779.627,88.205 864.002,64 992.002,160 918.486,0 "/>
<polygon fill="#C2681F" points="779.627,88.205 864.002,64 544.002,256 "/>
</svg>
