<?xml version="1.0" encoding="utf-8"?>
<!-- Generator: Adobe Illustrator 15.0.2, SVG Export Plug-In  -->
<!DOCTYPE svg PUBLIC "-//W3C//DTD SVG 1.1//EN" "http://www.w3.org/Graphics/SVG/1.1/DTD/svg11.dtd" [
	<!ENTITY ns_flows "http://ns.adobe.com/Flows/1.0/">
]>
<svg version="1.1"
	 xmlns="http://www.w3.org/2000/svg" xmlns:xlink="http://www.w3.org/1999/xlink" xmlns:a="http://ns.adobe.com/AdobeSVGViewerExtensions/3.0/"
	 x="0px" y="0px" width="987px" height="399px" viewBox="0 0 987 399" overflow="visible" enable-background="new 0 0 987 399"
	 xml:space="preserve">
<defs>
</defs>
<polygon fill="#CC7022" points="879.715,307.971 821.701,335.483 986.514,303.485 "/>
<polygon fill="#CC7022" points="879.787,307.92 743.17,268.928 595.149,143.482 276.87,143.482 189.168,0.09 189.431,0.002 
	189.122,0.016 189.112,0 189.056,0.02 70.295,5.459 0,111.482 127.086,63.925 159.247,85.74 155.716,162.17 410.038,271.241 
	410.514,399.483 604.94,303.485 821.701,335.483 826.514,333.077 "/>
<polygon fill="#BF661F" points="410.038,271.241 442.514,271.483 410.514,399.483 "/>
<polygon fill="#C76C20" points="410.514,399.483 445.259,337.758 442.514,271.483 "/>
<polygon fill="#CC7022" points="410.514,399.483 604.94,303.485 445.259,337.758 "/>
<polygon fill="#C2681F" points="410.038,271.241 334.907,194.283 442.514,271.483 "/>
<polygon fill="#BF661F" points="334.907,194.283 595.149,143.482 445.259,337.758 442.514,271.483 "/>
<polygon fill="#C2681F" points="445.259,337.758 595.149,143.482 604.94,303.485 "/>
<polygon fill="#C76C20" points="334.907,194.283 276.87,143.482 595.149,143.482 "/>
<polygon fill="#C76C20" points="595.149,143.482 821.701,335.483 602.514,271.483 "/>
<polygon fill="#CC7022" points="602.514,271.483 604.94,303.485 821.701,335.483 "/>
<polygon fill="#C2681F" points="595.149,143.482 655.717,243.969 821.701,335.483 "/>
<polygon fill="#C76C20" points="821.701,335.483 986.514,303.485 879.715,307.971 "/>
<polygon fill="#BF661F" points="410.038,271.241 155.716,162.17 334.907,194.283 "/>
<polygon fill="#C76C20" points="155.716,162.17 159.247,85.74 334.907,194.283 "/>
<polygon fill="#CC7022" points="159.247,85.74 276.87,143.482 334.907,194.283 "/>
<polygon fill="#C2681F" points="159.247,85.74 276.87,143.482 189.112,0 "/>
<polygon fill="#C76C20" points="159.247,85.74 123.482,22.158 189.112,0 "/>
<polygon fill="#BF661F" points="123.482,22.158 159.247,85.74 90.366,39.018 "/>
<polygon fill="#C2681F" points="189.431,0.002 70.295,5.459 90.366,39.018 123.482,22.158 "/>
<polygon fill="#CC7022" points="70.295,5.459 0,111.482 90.366,39.018 "/>
<polygon fill="#C2681F" points="90.366,39.018 26.514,92.785 0,111.482 "/>
<polygon fill="#C76C20" points="0,111.482 127.137,63.906 26.475,92.756 "/>
<polygon fill="#CC7022" points="821.701,335.483 879.787,307.92 655.717,243.969 "/>
<polygon fill="#BF661F" points="127.137,63.906 90.366,39.018 26.475,92.756 "/>
<polygon fill="#CC7022" points="113.889,54.994 127.137,63.906 90.366,39.018 "/>
<polygon fill="#BF661F" points="410.038,271.241 442.514,271.483 410.514,399.483 "/>
<polygon fill="#C76C20" points="410.514,399.483 445.259,337.758 442.514,271.483 "/>
<polygon fill="#CC7022" points="410.514,399.483 604.94,303.485 445.259,337.758 "/>
<polygon fill="#C2681F" points="410.038,271.241 334.907,194.283 442.514,271.483 "/>
<polygon fill="#BF661F" points="334.907,194.283 595.149,143.482 445.259,337.758 442.514,271.483 "/>
<polygon fill="#C2681F" points="445.259,337.758 595.149,143.482 604.94,303.485 "/>
<polygon fill="#C76C20" points="334.907,194.283 276.87,143.482 595.149,143.482 "/>
<polygon fill="#C76C20" points="595.149,143.482 821.701,335.483 602.514,271.483 "/>
<polygon fill="#CC7022" points="602.514,271.483 604.94,303.485 821.701,335.483 "/>
<polygon fill="#C2681F" points="595.149,143.482 655.717,243.969 821.701,335.483 "/>
<polygon fill="#BF661F" points="821.701,335.483 986.514,303.485 879.715,307.971 "/>
<polygon fill="#BF661F" points="410.038,271.241 155.716,162.17 334.907,194.283 "/>
<polygon fill="#C76C20" points="155.716,162.17 159.247,85.74 334.907,194.283 "/>
<polygon fill="#CC7022" points="159.247,85.74 276.87,143.482 334.907,194.283 "/>
<polygon fill="#C2681F" points="159.247,85.74 276.87,143.482 189.112,0 "/>
<polygon fill="#C76C20" points="159.247,85.74 123.482,22.158 189.112,0 "/>
<polygon fill="#BF661F" points="123.482,22.158 159.247,85.74 90.366,39.018 "/>
<polygon fill="#C2681F" points="189.431,0.002 70.295,5.459 90.366,39.018 123.482,22.158 "/>
<polygon fill="#CC7022" points="70.295,5.459 0,111.482 90.366,39.018 "/>
<polygon fill="#C2681F" points="90.366,39.018 26.514,92.785 0,111.482 "/>
<polygon fill="#C76C20" points="0,111.482 127.137,63.906 26.475,92.756 "/>
<polygon fill="#BF661F" points="127.137,63.906 90.366,39.018 26.475,92.756 "/>
<polygon fill="#CC7022" points="113.889,54.994 127.137,63.906 90.366,39.018 "/>
<polygon fill="#C2681F" points="735.993,266.881 826.514,333.077 879.787,307.92 "/>
<polygon fill="#CC7022" points="655.717,243.969 821.701,335.483 826.514,333.077 735.993,266.881 "/>
</svg>
