<?xml version="1.0" encoding="utf-8"?>
<!-- Generator: Adobe Illustrator 15.0.2, SVG Export Plug-In  -->
<!DOCTYPE svg PUBLIC "-//W3C//DTD SVG 1.1//EN" "http://www.w3.org/Graphics/SVG/1.1/DTD/svg11.dtd" [
	<!ENTITY ns_flows "http://ns.adobe.com/Flows/1.0/">
]>
<svg version="1.1"
	 xmlns="http://www.w3.org/2000/svg" xmlns:xlink="http://www.w3.org/1999/xlink" xmlns:a="http://ns.adobe.com/AdobeSVGViewerExtensions/3.0/"
	 x="0px" y="0px" width="192px" height="234px" viewBox="-0.001 0 192 234"
	 overflow="visible" enable-background="new -0.001 0 192 234" xml:space="preserve">
<defs>
</defs>
<polygon fill="#B8611E" points="158.262,41.336 106.098,0 70.947,27.582 45.465,39.396 0,233.724 40.152,233.724 68.818,233.724 
	104.75,233.724 139.252,233.724 192,233.724 "/>
<polygon fill="#C2681F" points="176.162,143.547 120.682,47.844 139.252,169.385 "/>
<polygon fill="#BD651F" points="139.252,169.385 120.682,47.844 104.75,158.898 "/>
<polygon fill="#C2681F" points="120.682,47.844 158.262,41.336 106.098,0 "/>
<polygon fill="#B8611E" points="158.262,41.336 176.162,143.547 120.682,47.844 "/>
<polygon fill="#BD651F" points="120.682,47.844 106.098,0 70.947,27.582 85.053,35.174 "/>
<polygon fill="#B55F1C" points="120.682,47.844 85.689,35.174 104.75,158.898 "/>
<polygon fill="#C2681F" points="104.75,158.898 45.465,39.396 85.689,35.174 "/>
<polygon fill="#BD651F" points="104.75,158.898 68.818,144.539 45.465,39.396 "/>
<polygon fill="#B55F1C" points="45.465,39.396 40.152,164.525 68.818,144.539 "/>
<polygon fill="#C2681F" points="45.465,39.396 17.729,157.07 40.152,164.525 "/>
<polygon fill="#B8611E" points="70.947,27.582 45.465,39.396 85.689,35.174 "/>
</svg>
