<?xml version="1.0" encoding="utf-8"?>
<!-- Generator: Adobe Illustrator 15.0.2, SVG Export Plug-In  -->
<!DOCTYPE svg PUBLIC "-//W3C//DTD SVG 1.1//EN" "http://www.w3.org/Graphics/SVG/1.1/DTD/svg11.dtd" [
	<!ENTITY ns_flows "http://ns.adobe.com/Flows/1.0/">
]>
<svg version="1.1"
	 xmlns="http://www.w3.org/2000/svg" xmlns:xlink="http://www.w3.org/1999/xlink" xmlns:a="http://ns.adobe.com/AdobeSVGViewerExtensions/3.0/"
	 x="0px" y="0px" width="1120px" height="276px" viewBox="0 0 1120 276" overflow="visible" enable-background="new 0 0 1120 276"
	 xml:space="preserve">
<defs>
</defs>
<polygon fill="#C2681F" points="575.274,72.981 709.48,7.974 565.294,17.242 424.006,0.042 423.958,0 423.944,0.046 
	257.629,104.564 256,103.974 0,39.974 0,263.974 384,248.34 421.807,230.187 574.792,72.942 574.793,72.944 421.877,230.132 
	569.578,129.215 661.118,198.186 704.607,200.439 576,73.213 "/>
<polygon fill="#C2681F" points="1120,263.974 1057.332,160.04 832,135.974 748.283,78.41 709.48,7.974 575.682,73.018 
	704.607,200.439 928.06,208.284 1054.17,275.857 "/>
<polygon fill="#C76C20" points="251.033,140.979 266.885,189.588 0,263.974 "/>
<polygon fill="#C2681F" points="251.033,140.979 423.976,0.038 265.602,189.588 "/>
<polygon fill="#CC7022" points="575.682,73.018 704.607,200.439 709.48,7.974 "/>
<polygon fill="#C76C20" points="704.607,200.439 748.283,78.41 709.48,7.974 "/>
<polygon fill="#CC7022" points="574.879,72.856 421.877,230.132 569.578,129.215 "/>
<polygon fill="#C76C20" points="574.879,72.856 569.578,129.215 661.118,198.186 576,73.213 "/>
<polygon fill="#C2681F" points="576,73.213 661.118,198.186 704.607,200.439 "/>
<polygon fill="#CC7022" points="423.976,0.038 574.879,73.019 565.294,17.242 "/>
<polygon fill="#C76C20" points="709.48,7.974 565.294,17.242 574.879,73.019 574.879,73.019 "/>
<polygon fill="#C2681F" points="423.958,0 421.807,230.187 574.838,72.896 "/>
<polygon fill="#CC7022" points="0,263.984 384,248.34 265.635,189.187 "/>
<polygon fill="#C76C20" points="423.976,0.038 265.635,189.187 384,248.34 421.807,230.187 "/>
<polygon fill="#C2681F" points="748.283,78.41 832,135.974 704.607,200.439 "/>
<polygon fill="#C2681F" points="0,39.974 253.777,139.689 256,138.661 256,103.974 "/>
<polygon fill="#C76C20" points="257.629,104.564 256,103.974 256,138.661 423.976,0.038 "/>
<polygon fill="#CC7022" points="704.607,200.439 1037.104,201.465 832,135.974 "/>
<polygon fill="#C76C20" points="832,135.974 1057.332,160.04 1037.104,201.465 "/>
<polygon fill="#C2681F" points="1037.104,201.465 1120,263.974 1057.332,160.04 "/>
<polygon fill="#CC7022" points="1037.104,201.465 1054.17,275.857 1120,263.974 "/>
<polygon fill="#C2681F" points="1037.104,201.465 928,208.209 1054.17,275.857 "/>
</svg>
