<?xml version="1.0" encoding="utf-8"?>
<!-- Generator: Adobe Illustrator 15.0.2, SVG Export Plug-In  -->
<!DOCTYPE svg PUBLIC "-//W3C//DTD SVG 1.1//EN" "http://www.w3.org/Graphics/SVG/1.1/DTD/svg11.dtd" [
	<!ENTITY ns_flows "http://ns.adobe.com/Flows/1.0/">
]>
<svg version="1.1"
	 xmlns="http://www.w3.org/2000/svg" xmlns:xlink="http://www.w3.org/1999/xlink" xmlns:a="http://ns.adobe.com/AdobeSVGViewerExtensions/3.0/"
	 x="0px" y="0px" width="923px" height="264px" viewBox="0 0 923 264" overflow="visible" enable-background="new 0 0 923 264"
	 xml:space="preserve">
<defs>
</defs>
<polygon fill="#C2681F" points="444.289,72.982 736.979,45.935 501.293,17.242 360.006,0.042 359.958,0 359.944,0.045 1.666,67.559 
	0.037,66.968 0.02,263.974 7.391,263.524 251.312,248.34 289.118,230.187 443.807,72.942 443.808,72.943 289.188,230.132 
	438.593,129.215 597.117,198.186 732.105,238.4 445.015,73.213 "/>
<polygon fill="#C2681F" points="923.499,228.765 892.831,168.715 810.462,159.401 775.782,116.371 736.979,45.935 444.696,73.018 
	732.105,238.4 838.702,216.959 857.669,240.648 "/>
<polygon fill="#C76C20" points="160,167.974 202.885,189.588 0.02,263.974 "/>
<polygon fill="#C2681F" points="160,167.974 359.976,0.038 201.602,189.588 "/>
<polygon fill="#CC7022" points="444.696,73.018 732.105,238.4 736.979,45.935 "/>
<polygon fill="#C76C20" points="732.105,238.4 775.782,116.371 736.979,45.935 "/>
<polygon fill="#CC7022" points="443.894,72.856 289.188,230.132 438.593,129.215 "/>
<polygon fill="#C76C20" points="443.894,72.856 438.593,129.215 597.117,198.186 445.015,73.213 "/>
<polygon fill="#C2681F" points="445.015,73.213 597.117,198.186 732.105,238.4 "/>
<polygon fill="#CC7022" points="359.976,0.038 443.894,73.019 501.293,17.242 "/>
<polygon fill="#C76C20" points="736.979,45.935 501.293,17.242 443.894,73.019 443.894,73.019 "/>
<polygon fill="#C2681F" points="359.958,0 289.118,230.187 443.853,72.896 "/>
<polygon fill="#CC7022" points="0,263.984 251.312,248.34 201.635,189.187 "/>
<polygon fill="#C76C20" points="359.976,0.038 201.635,189.187 251.312,248.34 289.118,230.187 "/>
<polygon fill="#C2681F" points="775.782,116.371 810.462,159.401 732.105,238.4 "/>
<polygon fill="#C2681F" points="0.02,263.974 162.744,166.684 164.967,165.655 0.037,66.968 "/>
<polygon fill="#C76C20" points="0.037,66.968 0.037,66.968 164.967,165.655 359.976,0.038 "/>
<polygon fill="#CC7022" points="732.105,238.4 872.603,210.14 810.462,159.401 "/>
<polygon fill="#C76C20" points="810.462,159.401 892.831,168.715 872.603,210.14 "/>
<polygon fill="#C2681F" points="872.603,210.14 923.499,228.765 892.831,168.715 "/>
<polygon fill="#CC7022" points="872.603,210.14 857.669,240.648 923.499,228.765 "/>
<polygon fill="#C2681F" points="872.603,210.14 838.642,216.884 857.669,240.648 "/>
</svg>
