<?xml version="1.0" encoding="utf-8"?>
<!-- Generator: Adobe Illustrator 15.0.2, SVG Export Plug-In  -->
<!DOCTYPE svg PUBLIC "-//W3C//DTD SVG 1.1//EN" "http://www.w3.org/Graphics/SVG/1.1/DTD/svg11.dtd" [
	<!ENTITY ns_flows "http://ns.adobe.com/Flows/1.0/">
]>
<svg version="1.1"
	 xmlns="http://www.w3.org/2000/svg" xmlns:xlink="http://www.w3.org/1999/xlink" xmlns:a="http://ns.adobe.com/AdobeSVGViewerExtensions/3.0/"
	 x="0px" y="0px" width="960px" height="384px" viewBox="0 0 960 384" overflow="visible" enable-background="new 0 0 960 384"
	 xml:space="preserve">
<defs>
</defs>
<polygon fill="#C2681F" points="412.289,136.982 608,192 469.294,32 328.006,64.042 327.958,64 327.944,64.045 192,0.591 190.371,0 
	128,128 7.391,319.54 288,248.016 383.93,288.055 411.807,136.942 411.808,136.944 384,288 406.593,193.215 565.118,262.186 
	640,384 413.015,137.213 "/>
<polygon fill="#C2681F" points="960,188.049 929.332,128 778.462,223.401 743.782,180.372 608,192 412.696,137.018 640,384 
	806.701,280.959 894.17,199.934 "/>
<polygon fill="#C76C20" points="160,223.989 202.885,245.604 0,320 "/>
<polygon fill="#C2681F" points="160,223.989 327.976,64.038 201.602,245.604 "/>
<polygon fill="#CC7022" points="412.696,137.018 640,384 608,192 "/>
<polygon fill="#C76C20" points="640,384 743.782,180.372 608,192 "/>
<polygon fill="#CC7022" points="411.894,136.856 384,288 406.593,193.215 "/>
<polygon fill="#C76C20" points="411.894,136.856 406.593,193.215 565.118,262.186 413.015,137.213 "/>
<polygon fill="#C2681F" points="413.015,137.213 565.118,262.186 640,384 "/>
<polygon fill="#CC7022" points="327.976,64.038 411.894,137.018 469.294,32 "/>
<polygon fill="#C76C20" points="608,192 469.294,32 411.894,137.018 411.894,137.018 "/>
<polygon fill="#C2681F" points="327.958,64 383.93,288.055 411.853,136.895 "/>
<polygon fill="#CC7022" points="0,320 288,248.016 201.635,245.202 "/>
<polygon fill="#C76C20" points="327.976,64.038 201.635,245.202 288,224 383.93,288.055 "/>
<polygon fill="#C2681F" points="743.782,180.372 778.462,223.401 640,384 "/>
<polygon fill="#C2681F" points="128,128 162.744,222.7 164.967,221.67 190.371,0 "/>
<polygon fill="#C76C20" points="192,0.591 190.371,0 164.967,221.67 327.976,64.038 "/>
<polygon fill="#CC7022" points="640,384 909.104,169.424 778.462,223.401 "/>
<polygon fill="#C76C20" points="778.462,223.401 929.332,128 909.104,169.424 "/>
<polygon fill="#C2681F" points="909.104,169.424 960,188.049 929.332,128 "/>
<polygon fill="#CC7022" points="909.104,169.424 894.17,199.934 960,188.049 "/>
<polygon fill="#C2681F" points="909.104,169.424 806.642,280.883 894.17,199.934 "/>
</svg>
