<?xml version="1.0" encoding="utf-8"?>
<!-- Generator: Adobe Illustrator 15.0.2, SVG Export Plug-In  -->
<!DOCTYPE svg PUBLIC "-//W3C//DTD SVG 1.1//EN" "http://www.w3.org/Graphics/SVG/1.1/DTD/svg11.dtd" [
	<!ENTITY ns_flows "http://ns.adobe.com/Flows/1.0/">
]>
<svg version="1.1"
	 xmlns="http://www.w3.org/2000/svg" xmlns:xlink="http://www.w3.org/1999/xlink" xmlns:a="http://ns.adobe.com/AdobeSVGViewerExtensions/3.0/"
	 x="0px" y="0px" width="928px" height="512px" viewBox="0 0 928 512" overflow="visible" enable-background="new 0 0 928 512"
	 xml:space="preserve">
<defs>
</defs>
<polygon fill="#CC7022" points="736,512 928,339.969 800.002,403.969 "/>
<polygon fill="#CC7022" points="672,288 643.434,326.818 576,256 319.73,32.042 320,32.002 192,0 0,160 175.37,95.925 
	207.531,117.74 288,194.17 384,352 509.658,416 650.385,422.076 800.002,403.969 928.072,339.918 "/>
<polygon fill="#BF661F" points="384,352 459.273,335.725 509.658,416 "/>
<polygon fill="#C76C20" points="509.658,416 544.404,354.275 459.273,335.725 "/>
<polygon fill="#CC7022" points="509.658,416 650.385,422.076 544.404,354.275 "/>
<polygon fill="#C2681F" points="384,352 383.191,226.283 459.273,335.725 "/>
<polygon fill="#BF661F" points="383.191,226.283 643.434,326.818 544.404,354.275 459.273,335.725 "/>
<polygon fill="#C2681F" points="544.404,354.275 643.434,326.818 650.385,422.076 "/>
<polygon fill="#C76C20" points="383.191,226.283 576,256 643.434,326.818 "/>
<polygon fill="#C76C20" points="643.434,326.818 800.002,403.969 640,352 "/>
<polygon fill="#CC7022" points="640,352 650.385,422.076 800.002,403.969 "/>
<polygon fill="#C2681F" points="643.434,326.818 672,288 800.002,403.969 "/>
<polygon fill="#C76C20" points="800.002,403.969 736,512 928,339.969 "/>
<polygon fill="#BF661F" points="384,352 288,194.17 383.191,226.283 "/>
<polygon fill="#C76C20" points="288,194.17 207.531,117.74 383.191,226.283 "/>
<polygon fill="#CC7022" points="207.531,117.74 576,256 383.191,226.283 "/>
<polygon fill="#C2681F" points="207.531,117.74 576,256 319.682,32 "/>
<polygon fill="#C76C20" points="207.531,117.74 171.768,54.158 319.682,32 "/>
<polygon fill="#BF661F" points="171.768,54.158 207.531,117.74 138.65,71.018 "/>
<polygon fill="#C2681F" points="320,32.002 192,0 138.65,71.018 171.768,54.158 "/>
<polygon fill="#CC7022" points="192,0 0,160 138.65,71.018 "/>
<polygon fill="#C2681F" points="138.65,71.018 133.312,96.254 0,160 "/>
<polygon fill="#C76C20" points="0,160 175.421,95.906 133.272,96.225 "/>
<polygon fill="#CC7022" points="800.002,403.969 928.072,339.918 672,288 "/>
<polygon fill="#BF661F" points="175.421,95.906 138.65,71.018 133.272,96.225 "/>
<polygon fill="#CC7022" points="162.173,86.994 175.421,95.906 138.65,71.018 "/>
</svg>
