<?xml version="1.0" encoding="utf-8"?>
<!-- Generator: Adobe Illustrator 15.0.2, SVG Export Plug-In  -->
<!DOCTYPE svg PUBLIC "-//W3C//DTD SVG 1.1//EN" "http://www.w3.org/Graphics/SVG/1.1/DTD/svg11.dtd" [
	<!ENTITY ns_flows "http://ns.adobe.com/Flows/1.0/">
]>
<svg version="1.1"
	 xmlns="http://www.w3.org/2000/svg" xmlns:xlink="http://www.w3.org/1999/xlink" xmlns:a="http://ns.adobe.com/AdobeSVGViewerExtensions/3.0/"
	 x="0px" y="0px" width="172px" height="205px" viewBox="0 0 172 205" overflow="visible" enable-background="new 0 0 172 205"
	 xml:space="preserve">
<defs>
</defs>
<polygon fill="#B05C18" points="171.512,150.658 171.55,150.57 171.465,150.521 103.258,0 55.402,82.857 6.907,145.096 0,205.096 
	119.012,205.096 156.125,205.096 "/>
<line fill="#B05C18" x1="119.049" y1="205.096" x2="171.535" y2="150.738"/>
<polygon fill="#BF661F" points="171.55,150.57 88.723,205.096 119.012,205.096 "/>
<polygon fill="#B05C18" points="114.483,76.801 171.55,150.57 88.723,205.096 "/>
<polygon fill="#B55F1C" points="114.483,76.801 103.258,0 88.723,205.096 88.723,205.096 "/>
<polygon fill="#AB5818" points="171.518,150.578 113.928,76.472 103.258,0 "/>
<polygon fill="#C26721" points="103.258,0 55.402,82.857 88.723,205.096 "/>
<polygon fill="#B55F1C" points="55.402,82.857 0,205.096 88.723,205.096 "/>
<polygon fill="#BF661F" points="55.402,82.857 6.907,145.096 0,205.096 "/>
<polygon fill="#B55F1C" points="171.518,150.578 156.125,205.096 119.012,205.096 "/>
</svg>
