<?xml version="1.0" encoding="utf-8"?>
<!-- Generator: Adobe Illustrator 15.0.2, SVG Export Plug-In  -->
<!DOCTYPE svg PUBLIC "-//W3C//DTD SVG 1.1//EN" "http://www.w3.org/Graphics/SVG/1.1/DTD/svg11.dtd" [
	<!ENTITY ns_flows "http://ns.adobe.com/Flows/1.0/">
]>
<svg version="1.1"
	 xmlns="http://www.w3.org/2000/svg" xmlns:xlink="http://www.w3.org/1999/xlink" xmlns:a="http://ns.adobe.com/AdobeSVGViewerExtensions/3.0/"
	 x="0px" y="0px" width="1083px" height="288px" viewBox="0 0 1083 288" overflow="visible" enable-background="new 0 0 1083 288"
	 xml:space="preserve">
<defs>
</defs>
<path fill="#C2681F" d="M987.499,119.325l-160,8.675l-64-32L597.294,0L521.83,22.469L521.015,22l-1.121,0.883l-0.232,0.383
	l-0.041,0.039l0.232-0.383L409.499,128l-0.002,0.038l-146.83-0.286l-0.124-0.074l0.456-0.178l-0.533,0.131l-0.217-0.131l-0.642,0.25
	h-0.108l0.043,0.025L260.968,128h-0.001L57.87,160L0,288l94.644-93.014l0.688-0.268L347.312,159l57.807,53.213l83.863-138.358
	l0.038-0.026l-83.831,138.33L534.593,62.761l158.525,94.212l134.988,41.454l170.711-61.486l38.748,16.06l45.934-25l-9-33
	L987.499,119.325z M96.381,194.311l1.556-0.336l-1.586,0.348L96.381,194.311z"/>
<polygon fill="#C76C20" points="262.249,127.5 298.885,149.614 95.499,194.5 "/>
<polygon fill="#C2681F" points="261.499,127.75 409.517,128.038 297.602,149.614 "/>
<polygon fill="#CC7022" points="520.696,23.044 828.106,198.427 763.499,96 "/>
<polygon fill="#C76C20" points="828.106,198.427 827.499,128 763.499,96 "/>
<polygon fill="#CC7022" points="519.894,22.883 405.188,212.158 534.593,62.761 "/>
<polygon fill="#C76C20" points="519.894,22.883 534.593,62.761 693.118,156.973 521.015,22 "/>
<polygon fill="#C2681F" points="521.015,22 693.118,156.973 828.106,198.427 "/>
<polygon fill="#CC7022" points="409.517,128.038 519.894,23.045 597.294,0 "/>
<polygon fill="#C76C20" points="763.499,96 597.294,0 519.894,23.045 519.894,23.045 "/>
<polygon fill="#C2681F" points="409.499,128 405.118,212.213 519.853,22.922 "/>
<polygon fill="#CC7022" points="93.249,195 347.312,159 297.635,149.213 "/>
<polygon fill="#C76C20" points="409.517,128.038 297.635,149.213 347.312,159 405.118,212.213 "/>
<polygon fill="#C2681F" points="827.499,128 987.499,119.325 828.106,198.427 "/>
<polygon fill="#C2681F" points="0,288 94.644,194.986 262.999,127.5 260.967,128 57.87,160 "/>
<polygon fill="#C76C20" points="59.499,160.591 57.87,160 260.749,128.25 409.517,128.038 "/>
<polygon fill="#CC7022" points="828.106,198.427 1019.499,129.491 987.499,119.325 "/>
<polygon fill="#C76C20" points="987.499,119.325 1074.499,95 1019.499,129.491 "/>
<polygon fill="#C2681F" points="1019.499,129.491 1083.499,128 1074.499,95 "/>
<polygon fill="#CC7022" points="1019.499,129.491 1037.565,153 1083.499,128 "/>
<polygon fill="#C2681F" points="1019.499,129.491 998.642,136.235 1037.565,153 "/>
</svg>
