<?xml version="1.0" encoding="utf-8"?>
<!-- Generator: Adobe Illustrator 15.0.2, SVG Export Plug-In  -->
<!DOCTYPE svg PUBLIC "-//W3C//DTD SVG 1.1//EN" "http://www.w3.org/Graphics/SVG/1.1/DTD/svg11.dtd" [
	<!ENTITY ns_flows "http://ns.adobe.com/Flows/1.0/">
]>
<svg version="1.1"
	 xmlns="http://www.w3.org/2000/svg" xmlns:xlink="http://www.w3.org/1999/xlink" xmlns:a="http://ns.adobe.com/AdobeSVGViewerExtensions/3.0/"
	 x="0px" y="0px" width="1152px" height="762px" viewBox="0 0 1152 762" overflow="visible" enable-background="new 0 0 1152 762"
	 xml:space="preserve">
<defs>
</defs>
<polygon fill="#C56B20" points="1002.687,405.182 724.985,179.438 511.37,336.777 418.495,405.182 391.577,116.926 404.39,254.109 
	418.495,405.182 724.985,179.438 560.312,91.455 412.128,0 300.296,147.315 216.193,254.109 107.662,331.566 0,530.771 
	101.389,562.719 144.564,534.094 180.583,556.994 300.296,570.305 443.47,599.475 541.79,689.553 664.503,651.348 741.485,689.553 
	863.837,762.139 1066.042,762.139 1151.6,762.139 "/>
<rect y="530.771" fill="#C56B20" width="1035.659" height="231.367"/>
<polygon fill="#CD7122" points="107.662,331.566 0,530.771 101.389,562.719 "/>
<polygon fill="#BA621E" points="107.662,331.566 144.564,534.094 101.389,562.719 "/>
<polygon fill="#BF661F" points="144.564,534.094 107.662,331.566 216.193,254.109 180.583,556.994 "/>
<polygon fill="#CD7122" points="180.583,556.994 216.193,254.109 265.683,428.625 "/>
<polygon fill="#BF661F" points="180.583,556.994 300.296,570.305 265.683,428.625 "/>
<polygon fill="#BF661F" points="216.193,254.109 300.296,147.315 265.683,428.625 "/>
<polygon fill="#C2681F" points="300.296,147.315 391.577,116.926 418.495,405.182 "/>
<polygon fill="#C56B20" points="265.683,428.625 305.624,452.066 300.296,147.315 "/>
<polygon fill="#CD7122" points="418.495,405.182 300.296,147.315 305.624,452.066 "/>
<polygon fill="#BA621E" points="305.624,452.066 300.296,570.305 265.683,428.625 "/>
<polygon fill="#C56B20" points="305.624,452.066 443.47,599.475 418.495,405.182 "/>
<polygon fill="#BF661F" points="305.624,452.066 300.296,570.305 443.47,599.475 "/>
<polygon fill="#CD7122" points="391.577,116.926 412.128,0 560.312,91.455 404.39,254.109 "/>
<polygon fill="#BF661F" points="560.312,91.455 418.495,405.182 404.39,254.109 "/>
<polygon fill="#C56B20" points="560.312,91.455 724.985,179.438 418.495,405.182 "/>
<polygon fill="#BA621E" points="443.47,599.475 511.37,336.777 418.495,405.182 "/>
<polygon fill="#C56B20" points="511.37,336.777 664.503,651.348 541.79,689.553 "/>
<polygon fill="#C2681F" points="443.47,599.475 541.79,689.553 511.37,336.777 "/>
<polygon fill="#C2681F" points="664.503,651.348 633.665,463.127 511.37,336.777 "/>
<polygon fill="#BF661F" points="633.665,463.127 724.985,179.438 511.37,336.777 "/>
<polygon fill="#CD7122" points="724.985,179.438 1002.687,405.182 741.485,432.99 "/>
<polygon fill="#C56B20" points="633.665,463.127 698.073,508.162 724.985,179.438 "/>
<polygon fill="#BF661F" points="698.073,508.162 724.985,179.438 741.485,432.99 "/>
<polygon fill="#BA621E" points="741.485,432.99 741.485,689.553 664.503,651.348 698.073,508.162 "/>
<polygon fill="#CD7122" points="633.665,463.127 664.503,651.348 698.073,508.162 "/>
<polygon fill="#C2681F" points="741.485,432.99 863.837,762.139 741.485,689.553 "/>
<polygon fill="#C56B20" points="863.837,762.139 1002.687,405.182 741.485,432.99 "/>
<polygon fill="#CD7122" points="1002.687,405.182 1151.6,762.139 1066.042,762.139 "/>
<polygon fill="#BA621E" points="1066.042,762.139 863.837,762.139 1002.687,405.182 "/>
<polygon fill="#C56B20" points="300.296,147.315 412.128,0 391.577,116.926 "/>
</svg>
