<?xml version="1.0" encoding="utf-8"?>
<!-- Generator: Adobe Illustrator 16.0.3, SVG Export Plug-In . SVG Version: 6.00 Build 0)  -->
<!DOCTYPE svg PUBLIC "-//W3C//DTD SVG 1.1//EN" "http://www.w3.org/Graphics/SVG/1.1/DTD/svg11.dtd">
<svg version="1.1" id="Layer_1" xmlns="http://www.w3.org/2000/svg" xmlns:xlink="http://www.w3.org/1999/xlink" x="0px" y="0px"
	 width="1106px" height="457px" viewBox="0 0 1106 457" enable-background="new 0 0 1106 457" xml:space="preserve">
<polygon fill="#D6DCDF" points="1038.563,221.17 1037.652,221.076 1037.646,221.076 1038.5,221 870.542,203.093 784.362,151.578 
	687.537,80.413 577.704,80.413 505.776,71.114 500.079,71.938 446.016,100.009 308.78,177.983 53.647,237.562 0,346.409 373.5,436 
	548.943,457.653 746.5,438 1062.5,437 1106.204,330.172 "/>
<polygon fill="#AFD8DD" points="1062.5,437 746.5,438 1106.204,330.172 "/>
<polygon fill="#BBD9DD" points="500.079,71.938 387.121,316.973 446.016,100.009 "/>
<polygon fill="#CBDADE" points="548.943,457.653 387.121,316.973 500.079,71.938 505.776,71.114 "/>
<polygon fill="#C5DADE" points="548.943,457.653 373.5,436 387.121,316.973 "/>
<polygon fill="#CBDADE" points="373.5,436 0,346.409 53.647,237.562 "/>
<polygon fill="#BBD9DD" points="387.121,316.973 53.647,237.562 308.78,177.983 "/>
<polygon fill="#DCDBDD" points="387.121,316.973 373.5,436 53.647,237.562 "/>
<polygon fill="#BBD9DD" points="1106.204,330.172 746.5,438 658.108,244.521 687.537,80.413 784.362,151.578 870.542,203.093 
	1037.652,221.076 1038.563,221.17 "/>
<polygon fill="#C5DADE" points="687.537,80.413 658.729,245.218 577.704,80.413 "/>
<polygon fill="#CBDADE" points="658.729,245.218 870.542,203.093 784.362,151.578 "/>
<polygon fill="#CBDADE" points="1038.5,221 895.855,223.996 870.542,203.093 "/>
<polygon fill="#D6DCDF" points="658.729,245.218 895.855,223.996 1106.204,330.172 "/>
<g>
	<g>
		<path fill="#DCDBDD" d="M558.104,0.889c0.587,0,2.1-0.889,0.807-0.889C558.322,0,556.81,0.889,558.104,0.889L558.104,0.889z"/>
	</g>
</g>
<polygon fill="#CBDADE" points="1106.204,330.172 746.5,438 658.729,245.218 "/>
<polygon fill="#C5DADE" points="746.5,438 548.943,457.653 658.729,245.218 "/>
<polygon fill="#D6DCDF" points="658.729,245.218 548.943,457.653 505.776,71.114 577.704,80.413 "/>
<polygon fill="#D6DCDF" points="387.121,316.973 308.78,177.983 446.016,100.009 "/>
<polygon fill="#D6DCDF" points="387.121,316.973 373.5,436 53.647,237.562 "/>
</svg>
