<?xml version="1.0" encoding="utf-8"?>
<!-- Generator: Adobe Illustrator 16.0.3, SVG Export Plug-In . SVG Version: 6.00 Build 0)  -->
<!DOCTYPE svg PUBLIC "-//W3C//DTD SVG 1.1//EN" "http://www.w3.org/Graphics/SVG/1.1/DTD/svg11.dtd">
<svg version="1.1" id="Layer_1" xmlns="http://www.w3.org/2000/svg" xmlns:xlink="http://www.w3.org/1999/xlink" x="0px" y="0px"
	 width="946px" height="457px" viewBox="0 0 946 457" enable-background="new 0 0 946 457" xml:space="preserve">
<polygon fill="#D6DCDF" points="916.056,151.444 915.414,151.378 915.992,151.274 840.519,61.924 734.323,80.464 664.914,25.816 
	471.623,41.154 455.737,0 450.04,0.824 275.883,28.895 178.679,96.861 0,116.408 0,275.295 0,456.594 218.686,316.484 
	511.403,307.479 665.86,316.484 946.079,229.034 "/>
<polygon fill="#D6DCDF" points="916.056,151.444 915.145,151.351 915.138,151.351 915.992,151.274 840.519,61.924 734.323,80.464 
	664.914,25.816 471.623,41.154 455.737,0 450.04,0.824 275.883,28.895 178.679,96.861 0,116.408 0,275.295 0,456.594 
	218.686,316.484 511.403,307.479 665.86,316.484 946.079,229.034 "/>
<polygon fill="#D6DCDF" points="916.056,151.444 915.414,151.378 915.992,151.274 840.519,61.924 734.323,80.464 664.914,25.816 
	471.623,41.154 455.737,0 450.04,0.824 275.883,28.895 178.679,96.861 0,116.408 0,275.295 0,456.594 218.686,316.484 
	511.403,307.479 665.86,316.484 946.079,229.034 "/>
<polygon fill="#AFD8DD" points="665.86,316.484 511.403,307.479 946.079,229.034 "/>
<polygon fill="#BBD9DD" points="450.04,0.824 186.965,235.85 275.883,28.895 "/>
<polygon fill="#CBDADE" points="218.686,316.484 186.965,235.85 450.04,0.824 455.737,0 "/>
<polygon fill="#C5DADE" points="218.686,316.484 0,456.594 186.965,235.85 "/>
<polygon fill="#BBD9DD" points="186.965,235.85 0,116.408 178.679,96.861 "/>
<polygon fill="#DCDBDD" points="186.965,235.85 0,456.594 0,116.408 "/>
<polygon fill="#BBD9DD" points="946.079,229.034 511.403,307.479 568.038,173.408 664.914,25.816 734.323,80.464 840.519,61.924 
	915.145,151.351 916.056,151.444 "/>
<polygon fill="#C5DADE" points="664.914,25.816 568.659,174.104 471.623,41.154 "/>
<polygon fill="#CBDADE" points="568.659,174.104 840.519,61.924 734.323,80.464 "/>
<polygon fill="#CBDADE" points="915.992,151.274 795.777,172.897 840.519,61.924 "/>
<polygon fill="#D6DCDF" points="568.659,174.104 795.777,172.897 946.079,229.034 "/>
<polygon fill="#CBDADE" points="946.079,229.034 511.403,307.479 568.659,174.104 "/>
<polygon fill="#C5DADE" points="511.403,307.479 218.686,316.484 568.659,174.104 "/>
<polygon fill="#D6DCDF" points="568.659,174.104 218.686,316.484 455.737,0 471.623,41.154 "/>
<polygon fill="#D6DCDF" points="186.965,235.85 178.679,96.861 275.883,28.895 "/>
<polygon fill="#D6DCDF" points="186.965,235.85 0,456.594 0,116.408 "/>
</svg>
