<?xml version="1.0" encoding="utf-8"?>
<!-- Generator: Adobe Illustrator 16.0.3, SVG Export Plug-In . SVG Version: 6.00 Build 0)  -->
<!DOCTYPE svg PUBLIC "-//W3C//DTD SVG 1.1//EN" "http://www.w3.org/Graphics/SVG/1.1/DTD/svg11.dtd">
<svg version="1.1" id="Layer_1" xmlns="http://www.w3.org/2000/svg" xmlns:xlink="http://www.w3.org/1999/xlink" x="0px" y="0px"
	 width="1144.064px" height="382px" viewBox="0 0 1144.064 382" enable-background="new 0 0 1144.064 382" xml:space="preserve">
<linearGradient id="SVGID_1_" gradientUnits="userSpaceOnUse" x1="711.5303" y1="583.8154" x2="416.9807" y2="-239.1961" gradientTransform="matrix(1 0 0 -1 0 383)">
	<stop  offset="0" style="stop-color:#94E5FF"/>
	<stop  offset="1" style="stop-color:#BFF5FF"/>
</linearGradient>
<polygon fill="url(#SVGID_1_)" points="1145.314,122.796 1145.357,122.725 1144.926,122.591 915.601,10.536 915.646,10.516 
	915.562,10.516 915.532,10.5 915.497,10.516 615.738,23.5 530.877,42.5 524.532,42.5 463.532,6.5 296.532,24.5 69.594,54.182 
	0,382.132 619.786,355.532 616.532,352.5 619.786,355.532 1088.47,215.289 1145.214,122.959 1146.215,123.272 "/>
<linearGradient id="SVGID_2_" gradientUnits="userSpaceOnUse" x1="1001.168" y1="141.4155" x2="1001.168" y2="318.4067" gradientTransform="matrix(1 0 0 -1 0 383)">
	<stop  offset="0" style="stop-color:#94E5FF"/>
	<stop  offset="1" style="stop-color:#BFF5FF"/>
</linearGradient>
<polygon fill="url(#SVGID_2_)" points="1088.47,215.289 856.977,91.596 1145.357,122.725 "/>
<linearGradient id="SVGID_3_" gradientUnits="userSpaceOnUse" x1="248.3438" y1="412.2471" x2="252.0786" y2="159.5077" gradientTransform="matrix(1 0 0 -1 0 383)">
	<stop  offset="0" style="stop-color:#94E5FF"/>
	<stop  offset="1" style="stop-color:#BFF5FF"/>
</linearGradient>
<polygon fill="url(#SVGID_3_)" points="431.15,161.905 69.594,54.182 296.532,24.5 "/>
<polygon fill="#94E5FF" points="915.646,10.516 733.649,81.99 615.738,23.5 "/>
<linearGradient id="SVGID_4_" gradientUnits="userSpaceOnUse" x1="733.6494" y1="336.7549" x2="992.123" y2="336.7549" gradientTransform="matrix(1 0 0 -1 0 383)">
	<stop  offset="0" style="stop-color:#94E5FF"/>
	<stop  offset="1" style="stop-color:#BFF5FF"/>
</linearGradient>
<polygon fill="url(#SVGID_4_)" points="733.649,81.99 915.532,10.5 992.123,74.882 "/>
<polygon fill="#94E5FF" points="1146.215,123.272 991.998,75.132 915.532,10.5 "/>
<linearGradient id="SVGID_5_" gradientUnits="userSpaceOnUse" x1="733.6494" y1="284.2383" x2="1145.3574" y2="284.2383" gradientTransform="matrix(1 0 0 -1 0 383)">
	<stop  offset="0" style="stop-color:#94E5FF"/>
	<stop  offset="1" style="stop-color:#BFF5FF"/>
</linearGradient>
<polygon fill="url(#SVGID_5_)" points="991.541,74.799 733.649,81.99 1145.357,122.725 "/>
<linearGradient id="SVGID_6_" gradientUnits="userSpaceOnUse" x1="642.0723" y1="250.5654" x2="943.5583" y2="33.075" gradientTransform="matrix(1 0 0 -1 0 383)">
	<stop  offset="0" style="stop-color:#94E5FF"/>
	<stop  offset="1" style="stop-color:#BFF5FF"/>
</linearGradient>
<polygon fill="url(#SVGID_6_)" points="856.977,91.596 1088.47,215.289 619.786,355.532 733.649,81.99 "/>
<linearGradient id="SVGID_7_" gradientUnits="userSpaceOnUse" x1="296.5322" y1="201.9844" x2="619.7861" y2="201.9844" gradientTransform="matrix(1 0 0 -1 0 383)">
	<stop  offset="0" style="stop-color:#94E5FF"/>
	<stop  offset="1" style="stop-color:#BFF5FF"/>
</linearGradient>
<polygon fill="url(#SVGID_7_)" points="530.877,42.5 524.532,42.5 463.532,6.5 296.532,24.5 431.15,161.905 619.786,355.532 "/>
<polygon fill="#94E5FF" points="431.15,161.905 83.532,57.5 376.103,262.587 "/>
<linearGradient id="SVGID_8_" gradientUnits="userSpaceOnUse" x1="399.0098" y1="190.313" x2="-29.9682" y2="160.314" gradientTransform="matrix(1 0 0 -1 0 383)">
	<stop  offset="0" style="stop-color:#94E5FF"/>
	<stop  offset="1" style="stop-color:#BFF5FF"/>
</linearGradient>
<polygon fill="url(#SVGID_8_)" points="83.532,57.5 69.594,54.182 0,382.132 376.103,262.587 "/>
<linearGradient id="SVGID_9_" gradientUnits="userSpaceOnUse" x1="743.498" y1="354.5195" x2="519.8573" y2="127.7283" gradientTransform="matrix(1 0 0 -1 0 383)">
	<stop  offset="0" style="stop-color:#94E5FF"/>
	<stop  offset="1" style="stop-color:#BFF5FF"/>
</linearGradient>
<polygon fill="url(#SVGID_9_)" points="676.75,35.082 615.738,23.5 530.877,42.5 543.532,82.5 619.786,355.532 733.649,81.99 "/>
<g>
	
		<linearGradient id="SVGID_10_" gradientUnits="userSpaceOnUse" x1="0" y1="61.1064" x2="619.7861" y2="61.1064" gradientTransform="matrix(1 0 0 -1 0 383)">
		<stop  offset="0" style="stop-color:#94E5FF"/>
		<stop  offset="1" style="stop-color:#BFF5FF"/>
	</linearGradient>
	<polygon fill="url(#SVGID_10_)" points="374.161,261.655 0,382.132 619.786,355.532 616.532,352.5 	"/>
	
		<linearGradient id="SVGID_11_" gradientUnits="userSpaceOnUse" x1="542.2319" y1="205.9062" x2="489.8993" y2="59.6821" gradientTransform="matrix(1 0 0 -1 0 383)">
		<stop  offset="0" style="stop-color:#94E5FF"/>
		<stop  offset="1" style="stop-color:#BFF5FF"/>
	</linearGradient>
	<polygon fill="url(#SVGID_11_)" points="431.15,161.905 374.513,262.712 616.532,352.5 	"/>
</g>
</svg>
