<?xml version="1.0" encoding="utf-8"?>
<!-- Generator: Adobe Illustrator 15.0.2, SVG Export Plug-In  -->
<!DOCTYPE svg PUBLIC "-//W3C//DTD SVG 1.1//EN" "http://www.w3.org/Graphics/SVG/1.1/DTD/svg11.dtd" [
	<!ENTITY ns_flows "http://ns.adobe.com/Flows/1.0/">
]>
<svg version="1.1"
	 xmlns="http://www.w3.org/2000/svg" xmlns:xlink="http://www.w3.org/1999/xlink" xmlns:a="http://ns.adobe.com/AdobeSVGViewerExtensions/3.0/"
	 x="0px" y="0px" width="1106px" height="457px" viewBox="0 0.444 1106 457"
	 overflow="visible" enable-background="new 0 0.444 1106 457" xml:space="preserve">
<defs>
</defs>
<polygon fill="#D6DCDF" points="1052.557,237.562 797.423,177.983 660.188,100.009 606.125,71.938 600.428,71.114 544.511,112.269 
	351.22,96.931 321.842,151.578 142,144.653 0.063,202.373 0.857,202.455 0,202.543 0,330.172 0,457.653 353.612,457.653 
	557.261,457.653 720.865,457.653 1106.204,346.409 "/>
<polygon fill="#D6DCDF" points="0,202.543 0.911,202.449 0.918,202.449 0.063,202.373 142,144.653 321.842,151.578 351.22,96.931 
	544.511,112.269 600.428,71.114 606.125,71.938 660.188,100.009 797.423,177.983 1052.557,237.562 1106.204,346.409 
	720.865,457.653 557.261,457.653 353.612,457.653 0,457.653 0,330.172 "/>
<polygon fill="#AFD8DD" points="0,457.653 353.612,457.653 0,330.172 "/>
<polygon fill="#BBD9DD" points="606.125,71.938 719.083,316.972 660.188,100.009 "/>
<polygon fill="#CBDADE" points="557.261,457.653 719.083,316.972 606.125,71.938 600.428,71.114 "/>
<polygon fill="#C5DADE" points="557.261,457.653 720.865,457.653 719.083,316.972 "/>
<polygon fill="#CBDADE" points="720.865,457.653 1106.204,346.409 1052.557,237.562 "/>
<polygon fill="#BBD9DD" points="719.083,316.972 1052.557,237.562 797.423,177.983 "/>
<polygon fill="#DCDBDD" points="719.083,316.972 720.865,457.653 1052.557,237.562 "/>
<polygon fill="#BBD9DD" points="0,330.172 353.612,457.653 448.096,244.522 351.22,96.931 321.842,151.578 142,144.653 
	0.911,202.449 0,202.543 "/>
<polygon fill="#C5DADE" points="351.22,96.931 447.475,245.218 544.511,112.269 "/>
<polygon fill="#CBDADE" points="447.475,245.218 142,144.653 321.842,151.578 "/>
<polygon fill="#CBDADE" points="0.063,202.373 210.349,223.996 142,144.653 "/>
<polygon fill="#D6DCDF" points="447.475,245.218 210.349,223.996 0,330.172 "/>
<g>
	<g>
		<path fill="#DCDBDD" d="M547.295,0.889c0.587,0,2.1-0.889,0.807-0.889C547.515,0,546.002,0.889,547.295,0.889L547.295,0.889z"/>
	</g>
</g>
<polygon fill="#CBDADE" points="0,330.172 353.612,457.653 447.475,245.218 "/>
<polygon fill="#C5DADE" points="353.612,457.653 557.261,457.653 447.475,245.218 "/>
<polygon fill="#D6DCDF" points="447.475,245.218 557.261,457.653 600.428,71.114 544.511,112.269 "/>
<polygon fill="#D6DCDF" points="719.083,316.972 797.423,177.983 660.188,100.009 "/>
<polygon fill="#D6DCDF" points="719.083,316.972 720.865,457.653 1052.557,237.562 "/>
</svg>
