<?xml version="1.0" encoding="utf-8"?>
<!-- Generator: Adobe Illustrator 16.0.3, SVG Export Plug-In . SVG Version: 6.00 Build 0)  -->
<!DOCTYPE svg PUBLIC "-//W3C//DTD SVG 1.1//EN" "http://www.w3.org/Graphics/SVG/1.1/DTD/svg11.dtd">
<svg version="1.1" id="Layer_1" xmlns="http://www.w3.org/2000/svg" xmlns:xlink="http://www.w3.org/1999/xlink" x="0px" y="0px"
	 width="985px" height="358px" viewBox="0 0 985 358" enable-background="new 0 0 985 358" xml:space="preserve">
<linearGradient id="SVGID_1_" gradientUnits="userSpaceOnUse" x1="-392.3379" y1="185.6543" x2="972.0193" y2="185.6543" gradientTransform="matrix(1 0 0 -1 0 359)">
	<stop  offset="0" style="stop-color:#94E5FF"/>
	<stop  offset="1" style="stop-color:#BFF5FF"/>
</linearGradient>
<path fill="url(#SVGID_1_)" d="M889,190.441L672,92.5L546,0.775l-2.786-1.55l-60.188,17.024l-5.623,0.178l0.021,0.659l-222.416,73
	l-19.791,40.422l-0.774-0.01l0.639,0.286l-0.034,0.069l-0.459-0.206L127.761,162.74l-0.008-0.001l-0.005,0.004l-0.091,0.027
	l0.056,0.005L1.245,280.654L0,281.212L27,319.5l260.479,9.967l127.536,18l0,0L560,312.5l364,30l48.021-1.001L889,190.441z
	 M140.768,218.15l-0.006-0.023l0.095-0.016L140.768,218.15z"/>
<linearGradient id="SVGID_2_" gradientUnits="userSpaceOnUse" x1="415.0146" y1="177.1421" x2="627.4785" y2="177.1421" gradientTransform="matrix(1 0 0 -1 0 359)">
	<stop  offset="0" style="stop-color:#94E5FF"/>
	<stop  offset="1" style="stop-color:#BFF5FF"/>
</linearGradient>
<polygon fill="url(#SVGID_2_)" points="415.015,347.467 627.479,206.825 483.026,16.249 477.403,16.427 481.055,134.775 "/>
<polygon fill="#94E5FF" points="924,342.5 972.02,341.499 889,190.441 "/>
<linearGradient id="SVGID_3_" gradientUnits="userSpaceOnUse" x1="825.8457" y1="115.1587" x2="668.0696" y2="220.6595" gradientTransform="matrix(1 0 0 -1 0 359)">
	<stop  offset="0" style="stop-color:#94E5FF"/>
	<stop  offset="1" style="stop-color:#BFF5FF"/>
</linearGradient>
<polygon fill="url(#SVGID_3_)" points="627.479,206.825 889,190.441 672,92.5 "/>
<linearGradient id="SVGID_4_" gradientUnits="userSpaceOnUse" x1="806.2275" y1="169.1338" x2="777.2059" y2="88.4175" gradientTransform="matrix(1 0 0 -1 0 359)">
	<stop  offset="0" style="stop-color:#94E5FF"/>
	<stop  offset="1" style="stop-color:#BFF5FF"/>
</linearGradient>
<polygon fill="url(#SVGID_4_)" points="627.479,206.825 924,342.5 889,190.441 "/>
<linearGradient id="SVGID_5_" gradientUnits="userSpaceOnUse" x1="127.6572" y1="201.6582" x2="353.8623" y2="201.6582" gradientTransform="matrix(1 0 0 -1 0 359)">
	<stop  offset="0" style="stop-color:#94E5FF"/>
	<stop  offset="1" style="stop-color:#BFF5FF"/>
</linearGradient>
<polygon fill="url(#SVGID_5_)" points="127.657,162.771 353.862,184.038 234.589,130.647 "/>
<linearGradient id="SVGID_6_" gradientUnits="userSpaceOnUse" x1="127.7529" y1="168.5591" x2="353.8623" y2="168.5591" gradientTransform="matrix(1 0 0 -1 0 359)">
	<stop  offset="0" style="stop-color:#94E5FF"/>
	<stop  offset="1" style="stop-color:#BFF5FF"/>
</linearGradient>
<polygon fill="url(#SVGID_6_)" points="353.862,184.038 127.753,162.739 140.665,218.143 "/>
<linearGradient id="SVGID_7_" gradientUnits="userSpaceOnUse" x1="0" y1="136.7231" x2="140.812" y2="136.7231" gradientTransform="matrix(1 0 0 -1 0 359)">
	<stop  offset="0" style="stop-color:#94E5FF"/>
	<stop  offset="1" style="stop-color:#BFF5FF"/>
</linearGradient>
<polygon fill="url(#SVGID_7_)" points="0,281.814 140.812,218.339 127.753,162.739 "/>
<polygon fill="#94E5FF" points="353.862,184.038 141.155,217.979 0,281.212 "/>
<linearGradient id="SVGID_8_" gradientUnits="userSpaceOnUse" x1="0" y1="102.2476" x2="353.8623" y2="102.2476" gradientTransform="matrix(1 0 0 -1 0 359)">
	<stop  offset="0" style="stop-color:#94E5FF"/>
	<stop  offset="1" style="stop-color:#BFF5FF"/>
</linearGradient>
<polygon fill="url(#SVGID_8_)" points="0,281.212 27,319.5 287.479,329.467 353.862,184.038 "/>
<linearGradient id="SVGID_9_" gradientUnits="userSpaceOnUse" x1="287.4785" y1="93.2476" x2="415.0146" y2="93.2476" gradientTransform="matrix(1 0 0 -1 0 359)">
	<stop  offset="0" style="stop-color:#94E5FF"/>
	<stop  offset="1" style="stop-color:#BFF5FF"/>
</linearGradient>
<polygon fill="url(#SVGID_9_)" points="287.479,329.467 415.015,347.467 353.862,184.038 "/>
<linearGradient id="SVGID_10_" gradientUnits="userSpaceOnUse" x1="234.4429" y1="120.0181" x2="480.5771" y2="120.0181" gradientTransform="matrix(1 0 0 -1 0 359)">
	<stop  offset="0" style="stop-color:#94E5FF"/>
	<stop  offset="1" style="stop-color:#BFF5FF"/>
</linearGradient>
<polygon fill="url(#SVGID_10_)" points="353.862,184.038 234.443,130.497 480.577,133.599 415.015,347.467 "/>
<linearGradient id="SVGID_11_" gradientUnits="userSpaceOnUse" x1="234.9829" y1="283.499" x2="481.1172" y2="283.499" gradientTransform="matrix(1 0 0 -1 0 359)">
	<stop  offset="0" style="stop-color:#94E5FF"/>
	<stop  offset="1" style="stop-color:#BFF5FF"/>
</linearGradient>
<polygon fill="url(#SVGID_11_)" points="255.008,90.085 477.943,16.915 481.117,134.087 234.983,130.985 "/>
<polygon fill="#94E5FF" points="543.214,-0.775 483.026,16.249 627.479,206.825 627.532,206.672 546,0.775 "/>
<linearGradient id="SVGID_12_" gradientUnits="userSpaceOnUse" x1="440.5498" y1="310.3047" x2="722.1824" y2="204.3139" gradientTransform="matrix(1 0 0 -1 0 359)">
	<stop  offset="0" style="stop-color:#94E5FF"/>
	<stop  offset="1" style="stop-color:#BFF5FF"/>
</linearGradient>
<polygon fill="url(#SVGID_12_)" points="546,0.775 627.532,206.672 672,92.5 "/>
<g>
	<polygon fill="#94E5FF" points="415.015,347.467 560,312.5 625.872,208.413 	"/>
	
		<linearGradient id="SVGID_13_" gradientUnits="userSpaceOnUse" x1="413.0781" y1="84.3374" x2="923.9999" y2="84.3374" gradientTransform="matrix(1 0 0 -1 0 359)">
		<stop  offset="0" style="stop-color:#94E5FF"/>
		<stop  offset="1" style="stop-color:#BFF5FF"/>
	</linearGradient>
	<polygon fill="url(#SVGID_13_)" points="627.479,206.825 625.872,208.413 560,312.5 924,342.5 	"/>
</g>
</svg>
