<?xml version="1.0" encoding="utf-8"?>
<!-- Generator: Adobe Illustrator 16.0.3, SVG Export Plug-In . SVG Version: 6.00 Build 0)  -->
<!DOCTYPE svg PUBLIC "-//W3C//DTD SVG 1.1//EN" "http://www.w3.org/Graphics/SVG/1.1/DTD/svg11.dtd">
<svg version="1.1" id="Layer_1" xmlns="http://www.w3.org/2000/svg" xmlns:xlink="http://www.w3.org/1999/xlink" x="0px" y="0px"
	 width="1098.162px" height="494px" viewBox="0 0 1098.162 494" enable-background="new 0 0 1098.162 494" xml:space="preserve">
<linearGradient id="SVGID_1_" gradientUnits="userSpaceOnUse" x1="852.2441" y1="0.6924" x2="128.8786" y2="637.9432">
	<stop  offset="0" style="stop-color:#94E5FF"/>
	<stop  offset="1" style="stop-color:#BFF5FF"/>
</linearGradient>
<polygon fill="url(#SVGID_1_)" points="1097.705,203.044 994.071,119.023 684.076,44.101 677.387,41.658 563.3,0 556.955,0.916 
	496.743,32.18 343.899,119.023 59.749,185.377 0,306.604 0,494.046 631.377,460.501 866.97,417.582 1000.071,383.932 
	1096.907,204.522 1098.041,203.472 1098.162,203.481 "/>
<linearGradient id="SVGID_2_" gradientUnits="userSpaceOnUse" x1="492.3149" y1="346.0703" x2="639.3076" y2="179.5786">
	<stop  offset="0" style="stop-color:#94E5FF"/>
	<stop  offset="1" style="stop-color:#BFF5FF"/>
</linearGradient>
<polygon fill="url(#SVGID_2_)" points="631.377,460.501 431.15,273.818 556.955,0.916 563.3,0 "/>
<linearGradient id="SVGID_3_" gradientUnits="userSpaceOnUse" x1="315.9629" y1="482.873" x2="305.4634" y2="268.3838">
	<stop  offset="0" style="stop-color:#94E5FF"/>
	<stop  offset="1" style="stop-color:#BFF5FF"/>
</linearGradient>
<polygon fill="url(#SVGID_3_)" points="631.377,460.501 0,494.046 431.15,273.818 "/>
<polygon fill="#94E5FF" points="0,494.046 0,306.604 59.749,185.377 "/>
<polygon fill="#94E5FF" points="903.205,230.25 1098.049,203.464 581.444,162.475 "/>
<linearGradient id="SVGID_4_" gradientUnits="userSpaceOnUse" x1="730.1504" y1="283.252" x2="828.2649" y2="171.4014">
	<stop  offset="0" style="stop-color:#94E5FF"/>
	<stop  offset="1" style="stop-color:#BFF5FF"/>
</linearGradient>
<polygon fill="url(#SVGID_4_)" points="903.205,230.25 866.97,417.582 581.444,162.475 "/>
<linearGradient id="SVGID_5_" gradientUnits="userSpaceOnUse" x1="755.5283" y1="453.2969" x2="644.5342" y2="204.3096">
	<stop  offset="0" style="stop-color:#94E5FF"/>
	<stop  offset="1" style="stop-color:#BFF5FF"/>
</linearGradient>
<polygon fill="url(#SVGID_5_)" points="866.97,417.582 631.377,460.501 581.444,162.475 "/>
<linearGradient id="SVGID_6_" gradientUnits="userSpaceOnUse" x1="343.8994" y1="137.3672" x2="556.9551" y2="137.3672">
	<stop  offset="0" style="stop-color:#94E5FF"/>
	<stop  offset="1" style="stop-color:#BFF5FF"/>
</linearGradient>
<polygon fill="url(#SVGID_6_)" points="496.743,32.18 343.899,119.023 431.15,273.818 556.955,0.916 "/>
<linearGradient id="SVGID_7_" gradientUnits="userSpaceOnUse" x1="257.3857" y1="273.9355" x2="204.8887" y2="78.9453">
	<stop  offset="0" style="stop-color:#94E5FF"/>
	<stop  offset="1" style="stop-color:#BFF5FF"/>
</linearGradient>
<polygon fill="url(#SVGID_7_)" points="431.15,273.818 59.749,185.377 343.899,119.023 "/>
<linearGradient id="SVGID_8_" gradientUnits="userSpaceOnUse" x1="985.0234" y1="357.207" x2="978.2936" y2="232.2253">
	<stop  offset="0" style="stop-color:#94E5FF"/>
	<stop  offset="1" style="stop-color:#BFF5FF"/>
</linearGradient>
<polygon fill="url(#SVGID_8_)" points="866.97,417.582 1098.049,203.464 903.205,230.25 "/>
<g>
	<linearGradient id="SVGID_9_" gradientUnits="userSpaceOnUse" x1="1157.2021" y1="228.7173" x2="533.7522" y2="71.4991">
		<stop  offset="0" style="stop-color:#94E5FF"/>
		<stop  offset="1" style="stop-color:#BFF5FF"/>
	</linearGradient>
	<polygon fill="url(#SVGID_9_)" points="677.387,41.658 563.3,0 581.444,162.475 1098.162,203.481 1097.705,203.044 	"/>
	<linearGradient id="SVGID_10_" gradientUnits="userSpaceOnUse" x1="886.7217" y1="123.6084" x2="959.0635" y2="13.3721">
		<stop  offset="0" style="stop-color:#94E5FF"/>
		<stop  offset="1" style="stop-color:#BFF5FF"/>
	</linearGradient>
	<polygon fill="url(#SVGID_10_)" points="994.071,119.023 684.076,44.101 677.387,41.658 1097.705,203.044 	"/>
</g>
<polygon fill="#94E5FF" points="1097.705,203.044 1000.071,383.932 866.97,417.582 "/>
<polygon fill="#94E5FF" points="431.15,273.818 73.687,188.695 341.828,346.602 "/>
<linearGradient id="SVGID_11_" gradientUnits="userSpaceOnUse" x1="227.0205" y1="242.8809" x2="-24.9673" y2="464.8701">
	<stop  offset="0" style="stop-color:#94E5FF"/>
	<stop  offset="1" style="stop-color:#BFF5FF"/>
</linearGradient>
<polygon fill="url(#SVGID_11_)" points="73.687,188.695 59.749,185.377 0,494.046 341.828,346.602 "/>
</svg>
