<?xml version="1.0" encoding="utf-8"?>
<!-- Generator: Adobe Illustrator 16.0.3, SVG Export Plug-In . SVG Version: 6.00 Build 0)  -->
<!DOCTYPE svg PUBLIC "-//W3C//DTD SVG 1.1//EN" "http://www.w3.org/Graphics/SVG/1.1/DTD/svg11.dtd">
<svg version="1.1" id="Layer_1" xmlns="http://www.w3.org/2000/svg" xmlns:xlink="http://www.w3.org/1999/xlink" x="0px" y="0px"
	 width="985px" height="358px" viewBox="0 0 985 358" enable-background="new 0 0 985 358" xml:space="preserve">
<linearGradient id="SVGID_1_" gradientUnits="userSpaceOnUse" x1="2230.2207" y1="-2268.1592" x2="618.7297" y2="-159.2952" gradientTransform="matrix(1 0 0 -1 0 359)">
	<stop  offset="0" style="stop-color:#94E5FF"/>
	<stop  offset="1" style="stop-color:#BFF5FF"/>
</linearGradient>
<path fill="url(#SVGID_1_)" d="M942.039,348.154l-64.468-139.993l-1.382,2.546l1.257-2.359l-2.349,1.099l2.474-1.284L739.578,81.095
	L567.087,3.273l-84.061,8.651L341.667,50.833l-107.078,79.814L127.761,162.74l-0.008-0.001l-0.005,0.005l-0.09,0.027l0.055,0.005
	L0,281.212v76.255L389,341.5l86.015,15.967l341.138-19.969l-0.189,0.348L942.039,348.154z M127.763,162.781L127.763,162.781
	l0.051,0.217L127.763,162.781z M140.767,218.152l-0.006-0.025l0.096-0.016L140.767,218.152z"/>
<linearGradient id="SVGID_2_" gradientUnits="userSpaceOnUse" x1="185.8428" y1="690.043" x2="301.842" y2="513.3772" gradientTransform="matrix(1 0 0 1 0 -433)">
	<stop  offset="0" style="stop-color:#94E5FF"/>
	<stop  offset="1" style="stop-color:#BFF5FF"/>
</linearGradient>
<polygon fill="url(#SVGID_2_)" points="353.862,184.038 234.589,130.647 127.761,162.74 127.753,162.739 127.754,162.742 
	127.658,162.771 127.763,162.781 140.665,218.143 "/>
<polygon fill="#94E5FF" points="3.42,280.271 353.862,184.038 141.155,217.979 140.767,218.152 127.753,162.739 1.245,280.654 
	0,281.212 0.917,280.96 0,281.814 "/>
<linearGradient id="SVGID_3_" gradientUnits="userSpaceOnUse" x1="200.7563" y1="588.9209" x2="187.4226" y2="920.2576" gradientTransform="matrix(1 0 0 1 0 -433)">
	<stop  offset="0" style="stop-color:#94E5FF"/>
	<stop  offset="1" style="stop-color:#BFF5FF"/>
</linearGradient>
<polygon fill="url(#SVGID_3_)" points="0,281.212 0,357.467 389,341.5 353.862,184.038 "/>
<polygon fill="#94E5FF" points="389,341.5 475.015,357.467 353.862,184.038 "/>
<linearGradient id="SVGID_4_" gradientUnits="userSpaceOnUse" x1="234.5889" y1="617.6953" x2="632" y2="617.6953" gradientTransform="matrix(1 0 0 1 0 -433)">
	<stop  offset="0" style="stop-color:#94E5FF"/>
	<stop  offset="1" style="stop-color:#BFF5FF"/>
</linearGradient>
<polygon fill="url(#SVGID_4_)" points="632,243.829 483.026,11.924 341.667,50.833 234.589,130.647 353.862,184.038 
	475.015,357.466 475.015,357.461 475.015,357.467 "/>
<polygon fill="#94E5FF" points="815.963,337.846 942.039,348.154 877.571,208.161 "/>
<polygon fill="#94E5FF" points="483.026,11.924 632,243.829 567.087,3.273 "/>
<g>
	
		<linearGradient id="SVGID_5_" gradientUnits="userSpaceOnUse" x1="572.0137" y1="506.1377" x2="841.0431" y2="717.3494" gradientTransform="matrix(1 0 0 1 0 -433)">
		<stop  offset="0" style="stop-color:#94E5FF"/>
		<stop  offset="1" style="stop-color:#BFF5FF"/>
	</linearGradient>
	<polygon fill="url(#SVGID_5_)" points="877.446,208.348 875.099,209.445 877.571,208.161 739.578,81.095 567.087,3.273 
		632,243.829 818.09,336.639 	"/>
	
		<linearGradient id="SVGID_6_" gradientUnits="userSpaceOnUse" x1="1266.791" y1="-30.5088" x2="702.3174" y2="708.1848" gradientTransform="matrix(1 0 0 1 0 -433)">
		<stop  offset="0" style="stop-color:#94E5FF"/>
		<stop  offset="1" style="stop-color:#BFF5FF"/>
	</linearGradient>
	<polygon fill="url(#SVGID_6_)" points="632,243.829 632,243.829 475.015,357.467 819,337.5 819.125,337.5 	"/>
</g>
</svg>
