<?xml version="1.0" encoding="utf-8"?>
<!-- Generator: Adobe Illustrator 16.0.3, SVG Export Plug-In . SVG Version: 6.00 Build 0)  -->
<!DOCTYPE svg PUBLIC "-//W3C//DTD SVG 1.1//EN" "http://www.w3.org/Graphics/SVG/1.1/DTD/svg11.dtd">
<svg version="1.1" id="Layer_1" xmlns="http://www.w3.org/2000/svg" xmlns:xlink="http://www.w3.org/1999/xlink" x="0px" y="0px"
	 width="1005px" height="341px" viewBox="0 0 1005 341" enable-background="new 0 0 1005 341" xml:space="preserve">
<linearGradient id="SVGID_1_" gradientUnits="userSpaceOnUse" x1="906.1982" y1="-309.2402" x2="277.3903" y2="328.6826" gradientTransform="matrix(1 0 0 -1 0 342)">
	<stop  offset="0" style="stop-color:#94E5FF"/>
	<stop  offset="1" style="stop-color:#BFF5FF"/>
</linearGradient>
<path fill="url(#SVGID_1_)" d="M898.905,125.351L696,33l-86,30L483.026,0l-5.623,0.178l-0.066,0.48l-84.585,23.064L346,92
	l0.012,0.125l-238.217,34.36l-0.058-0.01l-0.016,0.021l-0.078,0.011l0.061,0.01L0,265.566l0.771-0.532l92.911,58.761L364,341l73-47
	l568.055,10.434l-66-153.522L898.905,125.351z M120.747,181.871l0.183-0.012l-0.16,0.11L120.747,181.871z"/>
<polygon fill="#94E5FF" points="107.643,126.507 353.862,167.789 346.363,92.074 "/>
<linearGradient id="SVGID_2_" gradientUnits="userSpaceOnUse" x1="617.6035" y1="176.7842" x2="460.4836" y2="194.9473" gradientTransform="matrix(1 0 0 -1 0 342)">
	<stop  offset="0.0563" style="stop-color:#94E5FF"/>
	<stop  offset="0.3768" style="stop-color:#A3EAFF"/>
	<stop  offset="1" style="stop-color:#BFF5FF"/>
</linearGradient>
<polygon fill="url(#SVGID_2_)" points="437,294 627.479,190.576 483.026,0 477.403,0.178 "/>
<linearGradient id="SVGID_3_" gradientUnits="userSpaceOnUse" x1="644.3486" y1="-41.4883" x2="752.1775" y2="77.0168" gradientTransform="matrix(1 0 0 -1 0 342)">
	<stop  offset="0" style="stop-color:#94E5FF"/>
	<stop  offset="1" style="stop-color:#BFF5FF"/>
</linearGradient>
<polygon fill="url(#SVGID_3_)" points="437,294 1005.055,304.434 627.479,190.576 "/>
<linearGradient id="SVGID_4_" gradientUnits="userSpaceOnUse" x1="331.0024" y1="203.9785" x2="122.0016" y2="184.9785" gradientTransform="matrix(1 0 0 -1 0 342)">
	<stop  offset="0" style="stop-color:#94E5FF"/>
	<stop  offset="1" style="stop-color:#BFF5FF"/>
</linearGradient>
<polygon fill="url(#SVGID_4_)" points="353.862,167.789 107.737,126.475 120.649,181.877 "/>
<linearGradient id="SVGID_5_" gradientUnits="userSpaceOnUse" x1="0" y1="145.9795" x2="120.7949" y2="145.9795" gradientTransform="matrix(1 0 0 -1 0 342)">
	<stop  offset="0" style="stop-color:#94E5FF"/>
	<stop  offset="1" style="stop-color:#BFF5FF"/>
</linearGradient>
<polygon fill="url(#SVGID_5_)" points="0,265.566 120.795,182.074 107.737,126.475 "/>
<linearGradient id="SVGID_6_" gradientUnits="userSpaceOnUse" x1="179.4546" y1="117.5796" x2="164.4549" y2="172.5785" gradientTransform="matrix(1 0 0 -1 0 342)">
	<stop  offset="0" style="stop-color:#94E5FF"/>
	<stop  offset="1" style="stop-color:#BFF5FF"/>
</linearGradient>
<polygon fill="url(#SVGID_6_)" points="353.862,167.789 121.14,181.715 0.658,264.963 "/>
<linearGradient id="SVGID_7_" gradientUnits="userSpaceOnUse" x1="165.6338" y1="22.4609" x2="286.6338" y2="142.4609" gradientTransform="matrix(1 0 0 -1 0 342)">
	<stop  offset="0" style="stop-color:#94E5FF"/>
	<stop  offset="1" style="stop-color:#BFF5FF"/>
</linearGradient>
<polygon fill="url(#SVGID_7_)" points="0.658,264.963 93.681,323.795 364,341 353.862,167.789 "/>
<polygon fill="#94E5FF" points="364,341 437,294 353.862,167.789 "/>
<polygon fill="#94E5FF" points="610,63 696,33 627.479,190.576 483.026,0 "/>
<linearGradient id="SVGID_8_" gradientUnits="userSpaceOnUse" x1="377.957" y1="100.6885" x2="446.7953" y2="346.246" gradientTransform="matrix(1 0 0 -1 0 342)">
	<stop  offset="0" style="stop-color:#94E5FF"/>
	<stop  offset="1" style="stop-color:#BFF5FF"/>
</linearGradient>
<polygon fill="url(#SVGID_8_)" points="477.58,0.592 392.752,23.723 346,92 353.491,167.955 437,294 "/>
<linearGradient id="SVGID_9_" gradientUnits="userSpaceOnUse" x1="788.6367" y1="258.6973" x2="735.2056" y2="101.919" gradientTransform="matrix(1 0 0 -1 0 342)">
	<stop  offset="0" style="stop-color:#94E5FF"/>
	<stop  offset="1" style="stop-color:#BFF5FF"/>
</linearGradient>
<polygon fill="url(#SVGID_9_)" points="696,33 627.479,190.576 627.479,190.576 898.905,125.351 "/>
<linearGradient id="SVGID_10_" gradientUnits="userSpaceOnUse" x1="1016.4316" y1="-65.2886" x2="728.7894" y2="226.5233" gradientTransform="matrix(1 0 0 -1 0 342)">
	<stop  offset="0" style="stop-color:#94E5FF"/>
	<stop  offset="1" style="stop-color:#BFF5FF"/>
</linearGradient>
<polygon fill="url(#SVGID_10_)" points="898.905,125.351 627.479,190.576 1005.055,304.434 939.055,150.911 "/>
</svg>
