<?xml version="1.0" encoding="utf-8"?>
<!-- Generator: Adobe Illustrator 16.0.3, SVG Export Plug-In . SVG Version: 6.00 Build 0)  -->
<!DOCTYPE svg PUBLIC "-//W3C//DTD SVG 1.1//EN" "http://www.w3.org/Graphics/SVG/1.1/DTD/svg11.dtd">
<svg version="1.1" id="Layer_1" xmlns="http://www.w3.org/2000/svg" xmlns:xlink="http://www.w3.org/1999/xlink" x="0px" y="0px"
	 width="1106px" height="457px" viewBox="0 0 1106 457" enable-background="new 0 0 1106 457" xml:space="preserve">
<polygon fill="#D6DCDF" points="1033.706,227.082 1034.5,227 870.542,203.093 784.362,151.578 754.984,96.931 561.693,112.269 
	505.776,71.114 500.079,71.938 446.016,100.009 308.78,177.983 53.647,237.562 0,346.409 385.339,457.653 548.943,457.653 
	752.592,457.653 1017.5,425 1106.204,330.172 1034.562,227.17 "/>
<polygon fill="#D6DCDF" points="1034.562,227.17 1033.652,227.076 1033.646,227.076 1034.5,227 870.542,203.093 784.362,151.578 
	754.984,96.931 561.693,112.269 505.776,71.114 500.079,71.938 446.016,100.009 308.78,177.983 53.647,237.562 0,346.409 
	385.339,457.653 548.943,457.653 752.592,457.653 1017.5,425 1106.204,330.172 "/>
<polygon fill="#AFD8DD" points="1017.5,425 752.592,457.653 1106.204,330.172 "/>
<polygon fill="#BBD9DD" points="500.079,71.938 387.121,316.973 446.016,100.009 "/>
<polygon fill="#CBDADE" points="548.943,457.653 387.121,316.973 500.079,71.938 505.776,71.114 "/>
<polygon fill="#C5DADE" points="548.943,457.653 385.339,457.653 387.121,316.973 "/>
<polygon fill="#CBDADE" points="385.339,457.653 0,346.409 53.647,237.562 "/>
<polygon fill="#BBD9DD" points="387.121,316.973 53.647,237.562 308.78,177.983 "/>
<polygon fill="#DCDBDD" points="387.121,316.973 385.339,457.653 53.647,237.562 "/>
<polygon fill="#BBD9DD" points="1106.204,330.172 752.592,457.653 658.108,244.521 754.984,96.931 784.362,151.578 870.542,203.093 
	1033.652,227.076 1034.562,227.17 "/>
<polygon fill="#C5DADE" points="754.984,96.931 658.729,245.218 561.693,112.269 "/>
<polygon fill="#CBDADE" points="658.729,245.218 870.542,203.093 784.362,151.578 "/>
<polygon fill="#CBDADE" points="1034.5,227 895.855,223.996 870.542,203.093 "/>
<polygon fill="#D6DCDF" points="658.729,245.218 895.855,223.996 1106.204,330.172 "/>
<g>
	<g>
		<path fill="#DCDBDD" d="M558.104,0.889c0.588,0,2.101-0.889,0.808-0.889C558.322,0,556.81,0.889,558.104,0.889L558.104,0.889z"/>
	</g>
</g>
<polygon fill="#CBDADE" points="1106.204,330.172 752.592,457.653 658.729,245.218 "/>
<polygon fill="#C5DADE" points="752.592,457.653 548.943,457.653 658.729,245.218 "/>
<polygon fill="#D6DCDF" points="658.729,245.218 548.943,457.653 505.776,71.114 561.693,112.269 "/>
<polygon fill="#D6DCDF" points="387.121,316.973 308.78,177.983 446.016,100.009 "/>
<polygon fill="#D6DCDF" points="387.121,316.973 385.339,457.653 53.647,237.562 "/>
</svg>
