<?xml version="1.0" encoding="utf-8"?>
<!-- Generator: Adobe Illustrator 16.0.3, SVG Export Plug-In . SVG Version: 6.00 Build 0)  -->
<!DOCTYPE svg PUBLIC "-//W3C//DTD SVG 1.1//EN" "http://www.w3.org/Graphics/SVG/1.1/DTD/svg11.dtd">
<svg version="1.1" id="Layer_1" xmlns="http://www.w3.org/2000/svg" xmlns:xlink="http://www.w3.org/1999/xlink" x="0px" y="0px"
	 width="1005px" height="341px" viewBox="0 0 1005 341" enable-background="new 0 0 1005 341" xml:space="preserve">
<linearGradient id="SVGID_1_" gradientUnits="userSpaceOnUse" x1="766.5332" y1="-155.6079" x2="236.4933" y2="408.6269" gradientTransform="matrix(1 0 0 -1 0 342)">
	<stop  offset="0" style="stop-color:#94E5FF"/>
	<stop  offset="1" style="stop-color:#BFF5FF"/>
</linearGradient>
<path fill="url(#SVGID_1_)" d="M916,81L608.585,54.597l-36.747-0.791L483.026,0l-5.623,0.178l0.02,0.63l-84.308,22.989
	l-19.938,40.721l-0.628-0.309l-0.035,0.192L107.76,126.479l-0.024-0.004l-0.009,0.012l-0.084,0.02l0.061,0.01L0,265.566l0.771-0.532
	l92.911,58.761l220.796,17.423l160.536-44.702l0,0L954,290l12-164L916,81z M120.771,181.971l-0.023-0.1l0.183-0.012L120.771,181.971
	z"/>
<linearGradient id="SVGID_2_" gradientUnits="userSpaceOnUse" x1="232.1333" y1="285.2871" x2="265.1318" y2="126.2949" gradientTransform="matrix(1 0 0 -1 0 342)">
	<stop  offset="0" style="stop-color:#94E5FF"/>
	<stop  offset="1" style="stop-color:#BFF5FF"/>
</linearGradient>
<polygon fill="url(#SVGID_2_)" points="107.643,126.507 353.862,167.789 372.696,64.359 "/>
<linearGradient id="SVGID_3_" gradientUnits="userSpaceOnUse" x1="428.7295" y1="216.3145" x2="619.2206" y2="130.8185" gradientTransform="matrix(1 0 0 -1 0 342)">
	<stop  offset="0" style="stop-color:#94E5FF"/>
	<stop  offset="1" style="stop-color:#BFF5FF"/>
</linearGradient>
<polygon fill="url(#SVGID_3_)" points="475.015,296.516 627.479,190.576 483.026,0 477.403,0.178 481.055,118.526 "/>
<linearGradient id="SVGID_4_" gradientUnits="userSpaceOnUse" x1="719.1396" y1="32.4033" x2="672.209" y2="197.9655" gradientTransform="matrix(1 0 0 -1 0 342)">
	<stop  offset="0" style="stop-color:#94E5FF"/>
	<stop  offset="1" style="stop-color:#BFF5FF"/>
</linearGradient>
<polygon fill="url(#SVGID_4_)" points="475.015,296.516 656,314 852,318 954,290 691.081,254.504 627.479,190.576 "/>
<polygon fill="#94E5FF" points="954,290 966,126 916,81 "/>
<linearGradient id="SVGID_5_" gradientUnits="userSpaceOnUse" x1="587.4512" y1="220.502" x2="951.7288" y2="207.5381" gradientTransform="matrix(1 0 0 -1 0 342)">
	<stop  offset="0" style="stop-color:#94E5FF"/>
	<stop  offset="1" style="stop-color:#BFF5FF"/>
</linearGradient>
<polygon fill="url(#SVGID_5_)" points="627.479,190.576 916,81 608.585,54.597 "/>
<linearGradient id="SVGID_6_" gradientUnits="userSpaceOnUse" x1="239.4536" y1="251.6035" x2="225.9544" y2="163.1099" gradientTransform="matrix(1 0 0 -1 0 342)">
	<stop  offset="0" style="stop-color:#94E5FF"/>
	<stop  offset="1" style="stop-color:#BFF5FF"/>
</linearGradient>
<polygon fill="url(#SVGID_6_)" points="353.862,167.789 107.737,126.475 120.649,181.877 "/>
<polygon fill="#94E5FF" points="0,265.566 120.795,182.074 107.737,126.475 "/>
<linearGradient id="SVGID_7_" gradientUnits="userSpaceOnUse" x1="187.5684" y1="87.2793" x2="150.0703" y2="226.7725" gradientTransform="matrix(1 0 0 -1 0 342)">
	<stop  offset="0" style="stop-color:#94E5FF"/>
	<stop  offset="0.2306" style="stop-color:#AAEDFF"/>
	<stop  offset="1" style="stop-color:#BFF5FF"/>
</linearGradient>
<polygon fill="url(#SVGID_7_)" points="353.862,167.789 121.14,181.715 0.658,264.963 "/>
<linearGradient id="SVGID_8_" gradientUnits="userSpaceOnUse" x1="0.6582" y1="87.4966" x2="353.8623" y2="87.4966" gradientTransform="matrix(1 0 0 -1 0 342)">
	<stop  offset="0" style="stop-color:#94E5FF"/>
	<stop  offset="1" style="stop-color:#BFF5FF"/>
</linearGradient>
<polygon fill="url(#SVGID_8_)" points="0.658,264.963 93.681,323.795 314.479,341.218 353.862,167.789 "/>
<linearGradient id="SVGID_9_" gradientUnits="userSpaceOnUse" x1="314.4785" y1="87.4966" x2="475.0146" y2="87.4966" gradientTransform="matrix(1 0 0 -1 0 342)">
	<stop  offset="0" style="stop-color:#94E5FF"/>
	<stop  offset="1" style="stop-color:#BFF5FF"/>
</linearGradient>
<polygon fill="url(#SVGID_9_)" points="314.479,341.218 475.015,296.516 353.862,167.789 "/>
<polygon fill="#94E5FF" points="571.838,53.806 608.585,54.597 627.479,190.576 483.026,0 "/>
<linearGradient id="SVGID_10_" gradientUnits="userSpaceOnUse" x1="353.8623" y1="193.4092" x2="481.1172" y2="193.4092" gradientTransform="matrix(1 0 0 -1 0 342)">
	<stop  offset="0" style="stop-color:#94E5FF"/>
	<stop  offset="1" style="stop-color:#BFF5FF"/>
</linearGradient>
<polygon fill="url(#SVGID_10_)" points="481.117,117.838 477.943,0.666 393.115,23.797 373.179,64.518 372.551,64.209 
	353.862,167.789 475.015,296.516 480.57,117.569 "/>
<polygon fill="#94E5FF" points="627.479,190.576 916,81 691.081,254.504 "/>
<linearGradient id="SVGID_11_" gradientUnits="userSpaceOnUse" x1="939.7129" y1="29.292" x2="783.5129" y2="195.569" gradientTransform="matrix(1 0 0 -1 0 342)">
	<stop  offset="0" style="stop-color:#94E5FF"/>
	<stop  offset="1" style="stop-color:#BFF5FF"/>
</linearGradient>
<polygon fill="url(#SVGID_11_)" points="904.465,86.001 916,81 954,290 691.081,254.504 736.248,222.314 "/>
</svg>
