<?xml version="1.0" encoding="utf-8"?>
<!-- Generator: Adobe Illustrator 16.0.3, SVG Export Plug-In . SVG Version: 6.00 Build 0)  -->
<!DOCTYPE svg PUBLIC "-//W3C//DTD SVG 1.1//EN" "http://www.w3.org/Graphics/SVG/1.1/DTD/svg11.dtd">
<svg version="1.1" id="Layer_1" xmlns="http://www.w3.org/2000/svg" xmlns:xlink="http://www.w3.org/1999/xlink" x="0px" y="0px"
	 width="1525px" height="447px" viewBox="0 0 1525 447" enable-background="new 0 0 1525 447" xml:space="preserve">
<polygon fill="#D6DCDF" points="1216.973,192.447 921.985,123.562 837,52 700.806,0.953 694.219,0 629.566,47.583 397,62 391,134 
	240.475,176.595 0.073,151.763 0.99,151.857 0,151.959 0,299.523 0,446.919 408.849,446.919 644.309,446.919 833.469,446.919 
	1525,446.919 "/>
<polygon fill="#D6DCDF" points="0,151.959 1.053,151.851 1.062,151.851 0.073,151.763 240.475,176.595 391,134 397,62 
	629.566,47.583 694.219,0 700.806,0.953 837,52 921.985,123.562 1216.973,192.447 1525,446.919 833.469,446.919 644.309,446.919 
	408.849,446.919 0,446.919 0,299.523 "/>
<polygon fill="#C5DADE" points="0,446.919 408.849,446.919 0,299.523 "/>
<polygon fill="#BBD9DD" points="700.806,0.953 831.408,284.262 837,52 "/>
<polygon fill="#C5DADE" points="831.408,284.262 700.806,0.953 694.219,0 644.309,446.919 833.469,446.919 "/>
<polygon fill="#C5DADE" points="833.469,446.919 1525,446.919 1216.973,192.447 "/>
<polygon fill="#BBD9DD" points="831.408,284.262 1216.973,192.447 921.985,123.562 "/>
<polygon fill="#DCDBDD" points="831.408,284.262 833.469,446.919 1216.973,192.447 "/>
<polygon fill="#C5DADE" points="0,299.523 408.849,446.919 518.091,200.495 397,62 391,134 240.475,176.595 1.053,151.851 
	0,151.959 "/>
<polygon fill="#C5DADE" points="397,62 517.373,201.3 629.566,47.583 "/>
<polygon fill="#CBDADE" points="517.373,201.3 240.475,176.595 391,134 "/>
<polygon fill="#D6DCDF" points="517.373,201.3 243.207,176.763 0,299.523 "/>
<polygon fill="#CBDADE" points="0,299.523 408.849,446.919 517.373,201.3 "/>
<polygon fill="#C5DADE" points="408.849,446.919 644.309,446.919 517.373,201.3 "/>
<polygon fill="#D6DCDF" points="517.373,201.3 644.309,446.919 694.219,0 629.566,47.583 "/>
<polygon fill="#D6DCDF" points="831.408,284.262 921.985,123.562 837,52 "/>
<polygon fill="#D6DCDF" points="831.408,284.262 833.469,446.919 1216.973,192.447 "/>
</svg>
