<?xml version="1.0" encoding="utf-8"?>
<!-- Generator: Adobe Illustrator 15.0.2, SVG Export Plug-In  -->
<!DOCTYPE svg PUBLIC "-//W3C//DTD SVG 1.1//EN" "http://www.w3.org/Graphics/SVG/1.1/DTD/svg11.dtd" [
	<!ENTITY ns_flows "http://ns.adobe.com/Flows/1.0/">
]>
<svg version="1.1"
	 xmlns="http://www.w3.org/2000/svg" xmlns:xlink="http://www.w3.org/1999/xlink" xmlns:a="http://ns.adobe.com/AdobeSVGViewerExtensions/3.0/"
	 x="0px" y="0px" width="1106px" height="457px" viewBox="0 0.444 1106 457"
	 overflow="visible" enable-background="new 0 0.444 1106 457" xml:space="preserve">
<defs>
</defs>
<polygon fill="#D6DCDF" points="992.141,215.554 991.229,215.46 991.223,215.46 992.077,215.384 870.542,203.093 784.362,151.578 
	754.984,96.931 561.693,112.269 505.776,71.114 500.079,71.938 446.016,100.009 308.78,177.983 53.647,237.562 0,346.409 
	385.339,374.567 548.943,457.653 722.568,373.44 1106.204,358.886 1106.204,260.117 "/>
<polygon fill="#D6DCDF" points="992.141,215.554 991.229,215.46 991.223,215.46 992.077,215.384 870.542,203.093 784.362,151.578 
	754.984,96.931 561.693,112.269 505.776,71.114 500.079,71.938 446.016,100.009 308.78,177.983 53.647,237.562 0,346.409 
	385.339,374.567 548.943,457.653 722.568,373.44 1106.204,358.886 1106.204,260.117 "/>
<polygon fill="#AFD8DD" points="1106.204,358.886 722.568,373.44 1106.204,260.117 "/>
<polygon fill="#BBD9DD" points="500.079,71.938 387.121,316.972 446.016,100.009 "/>
<polygon fill="#CBDADE" points="548.943,457.653 387.121,316.972 500.079,71.938 505.776,71.114 "/>
<polygon fill="#C5DADE" points="548.943,457.653 385.339,374.567 387.121,316.972 "/>
<polygon fill="#CBDADE" points="385.339,374.567 0,346.409 53.647,237.562 "/>
<polygon fill="#BBD9DD" points="387.121,316.972 53.647,237.562 308.78,177.983 "/>
<polygon fill="#DCDBDD" points="387.121,316.972 385.339,374.567 53.647,237.562 "/>
<polygon fill="#BBD9DD" points="1106.204,260.117 722.568,373.44 658.108,244.522 754.984,96.931 784.362,151.578 870.542,203.093 
	991.229,215.46 992.141,215.554 "/>
<polygon fill="#C5DADE" points="754.984,96.931 658.729,245.218 561.693,112.269 "/>
<polygon fill="#CBDADE" points="658.729,245.218 870.542,203.093 784.362,151.578 "/>
<polygon fill="#CBDADE" points="992.077,215.384 895.855,223.996 870.542,203.093 "/>
<polygon fill="#D6DCDF" points="658.729,245.218 895.855,223.996 1106.204,260.117 "/>
<g>
	<g>
		<path fill="#DCDBDD" d="M558.103,0.889c0.587,0,2.1-0.889,0.807-0.889C558.322,0,556.81,0.889,558.103,0.889L558.103,0.889z"/>
	</g>
</g>
<polygon fill="#CBDADE" points="1106.204,260.117 722.568,373.44 658.729,245.218 "/>
<polygon fill="#C5DADE" points="722.568,373.44 548.943,457.653 658.729,245.218 "/>
<polygon fill="#D6DCDF" points="658.729,245.218 548.943,457.653 505.776,71.114 561.693,112.269 "/>
<polygon fill="#D6DCDF" points="387.121,316.972 308.78,177.983 446.016,100.009 "/>
<polygon fill="#D6DCDF" points="387.121,316.972 385.339,374.567 53.647,237.562 "/>
</svg>
