<?xml version="1.0" encoding="utf-8"?>
<!-- Generator: Adobe Illustrator 16.0.3, SVG Export Plug-In . SVG Version: 6.00 Build 0)  -->
<!DOCTYPE svg PUBLIC "-//W3C//DTD SVG 1.1//EN" "http://www.w3.org/Graphics/SVG/1.1/DTD/svg11.dtd">
<svg version="1.1" id="Layer_1" xmlns="http://www.w3.org/2000/svg" xmlns:xlink="http://www.w3.org/1999/xlink" x="0px" y="0px"
	 width="511px" height="173px" viewBox="0 0 511 173" enable-background="new 0 0 511 173" xml:space="preserve">
<linearGradient id="SVGID_1_" gradientUnits="userSpaceOnUse" x1="-251.5771" y1="85.1665" x2="496.0001" y2="85.1665">
	<stop  offset="0" style="stop-color:#94E5FF"/>
	<stop  offset="1" style="stop-color:#BFF5FF"/>
</linearGradient>
<polygon fill="url(#SVGID_1_)" points="367,50.261 313,47.215 293.182,8.517 292.5,8.631 252,36.554 252,36.554 210.548,44.16 
	87.978,0.055 87.92,0 87.902,0.028 87.871,0.017 87.895,0.039 0,137.076 0.335,136.765 15,154.845 158.667,170.333 241.474,153.05 
	335.5,135.553 395.5,154.845 428,156.875 496,113.722 "/>
<polygon fill="#94E5FF" points="15,152.5 158.667,167.666 0.335,134.693 "/>
<linearGradient id="SVGID_2_" gradientUnits="userSpaceOnUse" x1="295.2607" y1="83.415" x2="226.7607" y2="143.915">
	<stop  offset="0" style="stop-color:#94E5FF"/>
	<stop  offset="1" style="stop-color:#BFF5FF"/>
</linearGradient>
<polygon fill="url(#SVGID_2_)" points="241.474,150.732 335.5,133.5 279.5,109 252,36 244.544,60.253 "/>
<linearGradient id="SVGID_3_" gradientUnits="userSpaceOnUse" x1="313" y1="90" x2="359" y2="90">
	<stop  offset="0" style="stop-color:#94E5FF"/>
	<stop  offset="1" style="stop-color:#BFF5FF"/>
</linearGradient>
<polygon fill="url(#SVGID_3_)" points="335.5,133.5 359,81.5 313,46.5 "/>
<linearGradient id="SVGID_4_" gradientUnits="userSpaceOnUse" x1="87.8711" y1="42.6562" x2="210.5728" y2="42.6562">
	<stop  offset="0" style="stop-color:#94E5FF"/>
	<stop  offset="1" style="stop-color:#BFF5FF"/>
</linearGradient>
<polygon fill="url(#SVGID_4_)" points="87.871,0.016 179.886,85.296 210.573,43.5 "/>
<polygon fill="#94E5FF" points="179.886,85.296 87.92,0 94.483,28.163 "/>
<linearGradient id="SVGID_5_" gradientUnits="userSpaceOnUse" x1="0" y1="67.5005" x2="94.5581" y2="67.5005">
	<stop  offset="0" style="stop-color:#94E5FF"/>
	<stop  offset="1" style="stop-color:#BFF5FF"/>
</linearGradient>
<polygon fill="url(#SVGID_5_)" points="0,135.001 94.558,28.264 87.92,0 "/>
<linearGradient id="SVGID_6_" gradientUnits="userSpaceOnUse" x1="0.335" y1="81.3872" x2="179.8862" y2="81.3872">
	<stop  offset="0" style="stop-color:#94E5FF"/>
	<stop  offset="1" style="stop-color:#BFF5FF"/>
</linearGradient>
<polygon fill="url(#SVGID_6_)" points="179.886,85.296 94.733,28.081 0.335,134.693 "/>
<linearGradient id="SVGID_7_" gradientUnits="userSpaceOnUse" x1="275.1934" y1="143.4473" x2="-58.8066" y2="89.9473">
	<stop  offset="0" style="stop-color:#94E5FF"/>
	<stop  offset="1" style="stop-color:#BFF5FF"/>
</linearGradient>
<polygon fill="url(#SVGID_7_)" points="0.335,134.693 158.667,167.666 179.886,85.296 "/>
<linearGradient id="SVGID_8_" gradientUnits="userSpaceOnUse" x1="197.6279" y1="176.4951" x2="221.083" y2="10.4336">
	<stop  offset="0" style="stop-color:#94E5FF"/>
	<stop  offset="0.3" style="stop-color:#BFF5FF"/>
</linearGradient>
<polygon fill="url(#SVGID_8_)" points="158.667,167.666 241.474,150.732 179.886,85.296 "/>
<linearGradient id="SVGID_9_" gradientUnits="userSpaceOnUse" x1="181.7236" y1="119.1406" x2="284.2236" y2="68.1406">
	<stop  offset="0" style="stop-color:#94E5FF"/>
	<stop  offset="1" style="stop-color:#BFF5FF"/>
</linearGradient>
<polygon fill="url(#SVGID_9_)" points="179.886,85.296 210.5,43.5 252,36 244.576,59.903 241.474,150.732 "/>
<polygon fill="#94E5FF" points="335.5,133.5 359,81.5 395.5,152.5 "/>
<linearGradient id="SVGID_10_" gradientUnits="userSpaceOnUse" x1="475.3027" y1="158.6367" x2="318.8746" y2="18.9687">
	<stop  offset="0" style="stop-color:#94E5FF"/>
	<stop  offset="1" style="stop-color:#BFF5FF"/>
</linearGradient>
<polygon fill="url(#SVGID_10_)" points="428,154.5 395.5,152.5 359,81.5 496,112 "/>
<linearGradient id="SVGID_11_" gradientUnits="userSpaceOnUse" x1="313" y1="79.25" x2="496" y2="79.25">
	<stop  offset="0" style="stop-color:#94E5FF"/>
	<stop  offset="1" style="stop-color:#BFF5FF"/>
</linearGradient>
<polygon fill="url(#SVGID_11_)" points="496,112 359,81.5 313,46.5 367,49.5 "/>
<g>
	<polygon fill="#94E5FF" points="252,36 279.5,109 280.104,109.265 292.5,8.5 	"/>
	<linearGradient id="SVGID_12_" gradientUnits="userSpaceOnUse" x1="252.0073" y1="70.9438" x2="335.5001" y2="70.9438">
		<stop  offset="0" style="stop-color:#94E5FF"/>
		<stop  offset="1" style="stop-color:#BFF5FF"/>
	</linearGradient>
	<polygon fill="url(#SVGID_12_)" points="313,46.5 293.182,8.388 292.5,8.5 280.104,109.265 335.5,133.5 	"/>
</g>
</svg>
