<?xml version="1.0" encoding="utf-8"?>
<!-- Generator: Adobe Illustrator 16.0.3, SVG Export Plug-In . SVG Version: 6.00 Build 0)  -->
<!DOCTYPE svg PUBLIC "-//W3C//DTD SVG 1.1//EN" "http://www.w3.org/Graphics/SVG/1.1/DTD/svg11.dtd">
<svg version="1.1" id="Layer_1" xmlns="http://www.w3.org/2000/svg" xmlns:xlink="http://www.w3.org/1999/xlink" x="0px" y="0px"
	 width="739px" height="281px" viewBox="0 0 739 281" enable-background="new 0 0 739 281" xml:space="preserve">
<path fill="#D3B361" d="M494,28L389.723,0h-71.606h-4.099h-0.435h-67.96L217,10l-0.321,0.096L216.681,10l-0.092,0.02L216.566,10
	l0,0.025l-106.847,22.92l-0.007-0.007l-0.007,0.01l-0.07,0.015l0.034,0.033L0,179.041l0.543-0.458l45.061,102.251l230.56-6.936
	l130.016-65.873L646,217l23-135L494,28z M120.229,77.722l-0.014-0.059l0.049,0.03L120.229,77.722z"/>
<polygon fill="#C7A451" points="45.604,280.834 276.164,273.898 0.531,178.555 "/>
<polygon fill="#C39F4E" points="406.18,208.025 434.585,153.66 318.116,0 313.583,0 316.525,95.566 "/>
<polygon fill="#BD9A47" points="406.18,208.025 646,217 506.136,193.125 434.585,153.66 "/>
<polygon fill="#D3B361" points="434.585,153.66 669,82 494,28 "/>
<polygon fill="#DCDBDD" points="434.585,153.66 646,217 669,82 "/>
<polygon fill="#CEAD5B" points="109.635,32.963 213.972,135.286 216.681,10 "/>
<polygon fill="#B78F39" points="213.972,135.286 109.712,32.938 120.122,77.606 "/>
<polygon fill="#CEAD5B" points="0,179.041 120.239,77.766 109.712,32.938 "/>
<polygon fill="#D3B361" points="213.972,135.286 120.519,77.477 0.531,178.555 "/>
<polygon fill="#CEAD5B" points="0.531,178.555 276.164,273.898 213.972,135.286 "/>
<polygon fill="#C39F4E" points="276.164,273.898 406.18,208.025 213.972,135.286 "/>
<polygon fill="#CEAD5B" points="389.723,0 494,28 434.585,153.66 318.116,0 "/>
<polygon fill="#DBC065" points="213.972,135.286 216.566,10 316.576,95.012 406.18,208.025 "/>
<polygon fill="#CEAD5B" points="245.623,0 314.018,0 316.576,95.012 217,10 "/>
<polygon fill="#DBC065" points="434.585,153.66 669,82 505.895,193.625 "/>
<polygon fill="#D3B361" points="669,82 669,82 646,217 503.77,193.25 "/>
</svg>
