<?xml version="1.0" encoding="utf-8"?>
<!-- Generator: Adobe Illustrator 16.0.3, SVG Export Plug-In . SVG Version: 6.00 Build 0)  -->
<!DOCTYPE svg PUBLIC "-//W3C//DTD SVG 1.1//EN" "http://www.w3.org/Graphics/SVG/1.1/DTD/svg11.dtd">
<svg version="1.1" id="Layer_1" xmlns="http://www.w3.org/2000/svg" xmlns:xlink="http://www.w3.org/1999/xlink" x="0px" y="0px"
	 width="300px" height="331px" viewBox="0 0 300 331" enable-background="new 0 0 300 331" xml:space="preserve">
<polygon fill="#885340" points="264.783,71.011 200.85,5.182 115.5,24 27.5,91 0,262.046 94.184,295.038 98,330.916 
	194.667,330.916 252.02,295.038 300.324,262.046 "/>
<polygon fill="#743A2E" points="0,262.046 80.48,85.021 94.184,295.038 "/>
<polygon fill="#915F48" points="94.184,295.038 80.48,85.021 149.273,278.039 "/>
<polygon fill="#7F4837" points="80.48,85.021 27.5,91 115.5,24 "/>
<polygon fill="#9A6A50" points="27.5,91 0,262.046 80.48,85.021 "/>
<polygon fill="#B48A67" points="80.48,85.021 115.5,24 200.85,5.182 143.796,62.506 "/>
<polygon fill="#6D3127" points="80.48,85.021 142.665,62.506 149.273,278.039 "/>
<polygon fill="#885340" points="149.273,278.039 264.783,71.011 142.665,62.506 "/>
<polygon fill="#6A2E25" points="149.273,278.039 192.812,270.932 264.783,71.011 "/>
<polygon fill="#936149" points="264.783,71.011 252.02,295.038 192.812,270.932 "/>
<polygon fill="#763D30" points="264.783,71.011 300.324,262.046 252.02,295.038 "/>
<polygon fill="#A97C5D" points="200.85,5.182 264.783,71.011 142.665,62.506 "/>
</svg>
