<?xml version="1.0" encoding="utf-8"?>
<!-- Generator: Adobe Illustrator 16.0.3, SVG Export Plug-In . SVG Version: 6.00 Build 0)  -->
<!DOCTYPE svg PUBLIC "-//W3C//DTD SVG 1.1//EN" "http://www.w3.org/Graphics/SVG/1.1/DTD/svg11.dtd">
<svg version="1.1" id="Layer_1" xmlns="http://www.w3.org/2000/svg" xmlns:xlink="http://www.w3.org/1999/xlink" x="0px" y="0px"
	 width="832px" height="1203.5px" viewBox="-176 -243.5 832 1203.5" enable-background="new -176 -243.5 832 1203.5"
	 xml:space="preserve">
<polygon fill="#F7DF6D" points="261.422,541.623 83.926,327.949 87.226,316.422 127.603,212.809 128.124,212.631 87.226,316.422 
	160.878,201.51 282.799,0 165.598,0 158.131,11.533 0,399.869 0.152,400.145 126.979,213.02 127.307,212.908 0.152,400.145 
	76.444,393.189 85.382,409.252 168.227,547.048 168.417,548.092 167.777,563.152 177.689,959.905 194.914,838.515 234.729,656.788 
	262.887,544.841 262.885,544.837 "/>
<polygon fill="#F6DA97" points="165.598,0 282.799,0 160.878,201.51 126.979,213.02 158.131,11.533 "/>
<polygon fill="#F6DB87" points="0,399.869 158.131,11.533 126.979,213.02 0.152,400.145 "/>
<polygon fill="#F6EF9D" points="87.226,316.422 83.926,327.949 82.349,324.483 "/>
<polygon fill="#F6DA91" points="160.878,201.51 87.226,316.422 128.124,212.631 "/>
<polygon fill="#F6DA97" points="127.908,212.022 87.226,316.422 82.349,324.483 83.926,327.949 76.444,393.189 0.152,400.145 "/>
<polygon fill="#F6DA96" points="76.444,393.189 83.926,327.949 261.422,541.623 85.382,409.252 "/>
<polygon fill="#F6DAA0" points="85.382,409.252 261.422,541.623 262.885,544.837 168.417,548.092 168.227,547.048 "/>
<polygon fill="#F6DB89" points="168.417,548.092 262.885,544.837 262.887,544.841 234.729,656.788 167.777,563.152 "/>
<polygon fill="#F6DA97" points="234.729,656.788 194.914,838.515 167.777,563.152 "/>
<polygon fill="#F6DB8B" points="167.777,563.152 170.497,571.589 194.914,838.515 177.689,959.905 "/>
<g>
	<path fill="#C39F4E" d="M576.583-148.681l-9.432,4.087L344.598-62.267L576.583-148.681l-189.694-33.873l-71.567-25.034
		l-88.841-10.511l-4.598,0.146l0.019,0.515l-106.574,0.994l-16.303,33.298l-0.514-0.252l-0.029,0.157L-80.37-114.677l-0.019-0.004
		l-0.009,0.011l-0.07,0.017l0.051,0.008l-88.07,113.697l0.629-0.434l75.973,48.049L88.66,60.915l131.27-36.554l4.543-146.324
		l0.378,0.186l0.02,0.597l-4.94,145.541l333.899,26.224l60.343-153.931L576.583-148.681z M-69.734-69.304l-0.019-0.081l0.149-0.008
		L-69.734-69.304z"/>
	<polygon fill="#BD9A47" points="-91.885,46.666 88.66,60.914 -167.949,-1.44 	"/>
	<polygon fill="#C39F4E" points="219.93,24.359 344.598,-62.267 226.48,-218.099 221.883,-217.954 224.87,-121.181 	"/>
	<polygon fill="#B78F39" points="219.93,24.359 553.829,50.584 417.164,-22.24 344.598,-62.267 	"/>
	<polygon fill="#DCBF69" points="553.829,50.584 614.172,-103.346 576.583,-148.681 	"/>
	<polygon fill="#CEAD5B" points="344.598,-62.267 576.583,-148.681 386.889,-182.555 	"/>
	<polygon fill="#D3B361" points="-80.469,-114.654 120.866,-80.899 98.629,-183.277 	"/>
	<polygon fill="#CEAD5B" points="120.866,-80.899 -80.39,-114.681 -69.833,-69.379 	"/>
	<polygon fill="#DBC065" points="-168.487,-0.948 -69.713,-69.218 -80.39,-114.681 	"/>
	<polygon fill="#C7A451" points="120.866,-80.899 -69.432,-69.512 -167.949,-1.44 	"/>
	<polygon fill="#C39F4E" points="-167.949,-1.44 88.66,60.914 120.866,-80.899 	"/>
	<polygon fill="#C7A450" points="88.66,60.914 219.93,24.359 120.866,-80.899 	"/>
	<polygon fill="#D3B361" points="315.325,-207.589 386.889,-182.555 344.598,-62.267 226.48,-218.099 	"/>
	<polygon fill="#DBC065" points="120.866,-80.899 98.509,-183.399 224.479,-122.143 219.93,24.359 	"/>
	<polygon fill="#CEAD5B" points="115.324,-216.445 222.325,-217.555 224.921,-121.743 98.953,-183 	"/>
	<polygon fill="#BD9A47" points="344.598,-62.267 567.151,-144.594 416.815,-22.013 	"/>
	<polygon fill="#C39F4E" points="567.151,-144.594 576.583,-148.681 553.829,50.584 416.815,-22.013 433.541,-36.314 	"/>
</g>
</svg>
