<?xml version="1.0" encoding="utf-8"?>
<!-- Generator: Adobe Illustrator 16.0.3, SVG Export Plug-In . SVG Version: 6.00 Build 0)  -->
<!DOCTYPE svg PUBLIC "-//W3C//DTD SVG 1.1//EN" "http://www.w3.org/Graphics/SVG/1.1/DTD/svg11.dtd">
<svg version="1.1" id="Layer_1" xmlns="http://www.w3.org/2000/svg" xmlns:xlink="http://www.w3.org/1999/xlink" x="0px" y="0px"
	 width="917px" height="311px" viewBox="0 0 917 311" enable-background="new 0 0 917 311" xml:space="preserve">
<path fill="#C39F4E" d="M831.071,77.43l-10.521,4.56l-248.24,91.83L831.071,77.43L619.48,39.648l-97.92,9.428L440.559,0
	l-5.129,0.162l0.02,0.575l-76.896,20.968L340.37,58.846l-0.574-0.281l-0.031,0.175L98.288,115.36l-0.022-0.004l-0.009,0.011
	l-0.078,0.019l0.057,0.009L0,242.217l0.702-0.484l84.742,53.595l201.385,15.894l146.423-40.773l5.066-163.213l0.421,0.207
	l0.021,0.666l-5.508,162.34l483.438,7.223L873,128L831.071,77.43z M110.152,165.971l-0.021-0.09l0.166-0.011L110.152,165.971z"/>
<polygon fill="#BD9A47" points="85.444,295.326 286.829,311.219 0.6,241.667 "/>
<polygon fill="#C39F4E" points="433.252,270.445 572.31,173.82 440.559,0 435.43,0.162 438.76,108.105 "/>
<polygon fill="#B78F39" points="433.252,270.445 916.689,277.668 653.25,218.466 572.31,173.82 "/>
<polygon fill="#DCBF69" points="916.689,277.668 873,128 831.071,77.43 "/>
<polygon fill="#CEAD5B" points="572.31,173.82 831.071,77.43 619.481,39.647 "/>
<polygon fill="#D3B361" points="98.178,115.385 322.751,153.037 339.929,58.701 "/>
<polygon fill="#CEAD5B" points="322.751,153.037 98.265,115.355 110.042,165.886 "/>
<polygon fill="#DBC065" points="0,242.217 110.175,166.066 98.265,115.355 "/>
<polygon fill="#C7A451" points="322.751,153.037 110.488,165.738 0.6,241.667 "/>
<polygon fill="#C39F4E" points="0.6,241.667 286.829,311.219 322.751,153.037 "/>
<polygon fill="#C7A450" points="286.829,311.219 433.252,270.445 322.751,153.037 "/>
<polygon fill="#D3B361" points="521.562,49.075 619.481,39.647 572.31,173.82 440.559,0 "/>
<polygon fill="#DBC065" points="322.751,153.037 339.795,58.564 438.325,107.032 433.252,270.445 "/>
<polygon fill="#CEAD5B" points="358.552,21.705 435.922,0.607 438.816,107.478 340.289,59.01 "/>
<polygon fill="#BD9A47" points="572.31,173.82 820.55,81.99 652.861,218.721 "/>
<polygon fill="#C39F4E" points="820.55,81.99 831.071,77.43 916.689,277.668 652.861,218.721 671.517,202.768 "/>
</svg>
