<?xml version="1.0" encoding="utf-8"?>
<!-- Generator: Adobe Illustrator 16.0.3, SVG Export Plug-In . SVG Version: 6.00 Build 0)  -->
<!DOCTYPE svg PUBLIC "-//W3C//DTD SVG 1.1//EN" "http://www.w3.org/Graphics/SVG/1.1/DTD/svg11.dtd">
<svg version="1.1" id="Layer_1" xmlns="http://www.w3.org/2000/svg" xmlns:xlink="http://www.w3.org/1999/xlink" x="0px" y="0px"
	 width="938px" height="702px" viewBox="0 0 938 702" enable-background="new 0 0 938 702" xml:space="preserve">
<g>
	<path fill="#AE8261" d="M581.324,64.052c1.119,0,1.469-1.457,0.16-1.457C580.365,62.595,580.016,64.052,581.324,64.052z"/>
	<polygon fill="#AE8261" points="856.4,379.334 676.4,134.276 550.4,48.276 388.402,0 388.402,0 254.4,66.276 137.067,166.276 
		64.497,281.36 0,509.896 82.495,541.396 187.067,508.321 221.812,519.659 304.623,542.756 396.4,578.276 475.814,578.215 
		568.901,549.233 627.298,578.215 720.11,633.276 873.498,689.321 938.4,702.334 	"/>
</g>
<g>
	<g>
		<path fill="#FFFFFF" d="M581.324,64.052c1.119,0,1.469-1.457,0.16-1.457C580.365,62.595,580.016,64.052,581.324,64.052
			L581.324,64.052z"/>
	</g>
</g>
<polygon fill="#8A5641" points="64.497,281.36 0,509.896 82.495,541.396 "/>
<polygon fill="#96644C" points="64.497,281.36 187.067,508.321 82.495,541.396 "/>
<polygon fill="#9E6F53" points="187.067,508.321 64.497,281.36 137.067,166.276 221.812,519.659 "/>
<polygon fill="#7F4838" points="221.812,519.659 137.067,166.276 266.366,380.281 "/>
<polygon fill="#96654C" points="221.812,519.659 304.623,542.756 266.366,380.281 "/>
<polygon fill="#8F5B45" points="137.067,166.276 254.4,66.276 266.366,380.281 "/>
<polygon fill="#794133" points="254.4,66.276 372.812,62.973 382.286,362.498 "/>
<polygon fill="#95644B" points="266.366,380.281 296.665,398.062 254.4,66.276 "/>
<polygon fill="#BB926C" points="382.286,362.498 254.4,66.276 296.665,398.062 "/>
<polygon fill="#95644B" points="296.665,398.062 304.623,542.756 266.366,380.281 "/>
<polygon fill="#A57759" points="296.665,398.062 396.4,578.276 382.286,362.498 "/>
<polygon fill="#8C5943" points="296.665,398.062 304.623,542.756 396.4,578.276 "/>
<polygon fill="#8F5B45" points="371.415,62.949 388.402,0 550.4,48.276 370.5,249.5 "/>
<polygon fill="#9E6F53" points="550.4,48.276 382.286,362.498 371.586,247.898 "/>
<polygon fill="#BB926C" points="550.4,48.276 676.4,134.276 499.475,344.356 382.286,362.498 "/>
<polygon fill="#BF9871" points="396.4,578.276 499.475,344.356 382.286,362.498 "/>
<polygon fill="#A47658" points="499.475,344.356 568.901,549.233 475.814,578.215 "/>
<polygon fill="#95644B" points="396.4,578.276 475.814,578.215 499.475,344.356 "/>
<polygon fill="#926049" points="568.901,549.233 545.509,406.454 499.475,344.356 "/>
<polygon fill="#95644B" points="545.509,406.454 676.4,134.276 499.475,344.356 "/>
<polygon fill="#A27457" points="676.4,134.276 856.4,379.334 627.298,383.593 "/>
<polygon fill="#895440" points="545.509,406.454 594.366,440.616 676.4,134.276 "/>
<polygon fill="#794133" points="594.366,440.616 676.4,134.276 627.298,383.593 "/>
<polygon fill="#7F4838" points="627.298,383.593 627.298,578.215 568.901,549.233 594.366,440.616 "/>
<polygon fill="#8A5541" points="545.509,406.454 568.901,549.233 594.366,440.616 "/>
<polygon fill="#9B6B50" points="627.298,383.593 720.11,633.276 627.298,578.215 "/>
<polygon fill="#8F5B45" points="856.4,379.334 938.4,702.334 873.498,689.321 "/>
<polygon fill="#99684F" points="873.498,689.321 720.11,633.276 856.4,379.334 "/>
<polygon fill="#794032" points="254.4,66.276 388.402,0 370.807,64.369 "/>
<polygon fill="#AE8261" points="720.11,633.276 856.4,379.334 627.298,383.593 "/>
</svg>
