<?xml version="1.0" encoding="utf-8"?>
<!-- Generator: Adobe Illustrator 15.0.2, SVG Export Plug-In  -->
<!DOCTYPE svg PUBLIC "-//W3C//DTD SVG 1.1//EN" "http://www.w3.org/Graphics/SVG/1.1/DTD/svg11.dtd" [
	<!ENTITY ns_flows "http://ns.adobe.com/Flows/1.0/">
]>
<svg version="1.1"
	 xmlns="http://www.w3.org/2000/svg" xmlns:xlink="http://www.w3.org/1999/xlink" xmlns:a="http://ns.adobe.com/AdobeSVGViewerExtensions/3.0/"
	 x="0px" y="0px" width="739px" height="281px" viewBox="0 0 739 281" overflow="visible" enable-background="new 0 0 739 281"
	 xml:space="preserve">
<defs>
</defs>
<path fill="#D3B361" d="M729.719,0H502.163h-112.44h-71.606h-4.099h-0.435h-67.96h-16.147l87.03,94.936l0,0L229.145,0.111L229.157,0
	l-0.092,0.025L229.042,0l-0.004,0.033L109.715,32.94l-0.003-0.003l-0.004,0.005l-0.073,0.021l0.033,0.033L0,179.041l0.544-0.458
	l45.06,102.251l230.561-6.935l130.016-65.874l332.84,37.435V74.913V0H729.719z M120.229,77.721l-0.013-0.057l0.047,0.028
	L120.229,77.721z"/>
<polygon fill="#C7A451" points="45.604,280.834 276.164,273.899 0.531,178.555 "/>
<polygon fill="#C39F4E" points="406.18,208.025 434.585,153.66 318.116,0 313.583,0 316.525,95.566 "/>
<polygon fill="#BD9A47" points="406.18,208.025 739.02,245.46 506.136,193.125 434.585,153.66 "/>
<polygon fill="#D3B361" points="434.585,153.66 739.02,0 502.163,0 "/>
<polygon fill="#DCDBDD" points="434.585,153.66 739.02,245.46 739.02,0 "/>
<polygon fill="#CEAD5B" points="109.635,32.963 213.972,135.286 229.157,0 "/>
<polygon fill="#B78F39" points="213.972,135.286 109.712,32.938 120.122,77.606 "/>
<polygon fill="#CEAD5B" points="0,179.041 120.239,77.766 109.712,32.938 "/>
<polygon fill="#D3B361" points="213.972,135.286 120.519,77.477 0.531,178.555 "/>
<polygon fill="#CEAD5B" points="0.531,178.555 276.164,273.899 213.972,135.286 "/>
<polygon fill="#C39F4E" points="276.164,273.899 406.18,208.025 213.972,135.286 "/>
<polygon fill="#CEAD5B" points="389.723,0 502.163,0 434.585,153.66 318.116,0 "/>
<polygon fill="#DBC065" points="213.972,135.286 229.042,0 316.576,95.012 406.18,208.025 "/>
<polygon fill="#CEAD5B" points="245.623,0 314.018,0 316.576,95.012 229.476,0 "/>
<polygon fill="#DBC065" points="434.585,153.66 729.719,0 505.895,193.625 "/>
<polygon fill="#D3B361" points="729.719,0 739.02,0 739.02,245.46 503.77,193.25 520.27,177 "/>
</svg>
