<?xml version="1.0" encoding="utf-8"?>
<!-- Generator: Adobe Illustrator 16.0.3, SVG Export Plug-In . SVG Version: 6.00 Build 0)  -->
<!DOCTYPE svg PUBLIC "-//W3C//DTD SVG 1.1//EN" "http://www.w3.org/Graphics/SVG/1.1/DTD/svg11.dtd">
<svg version="1.1" id="Layer_1" xmlns="http://www.w3.org/2000/svg" xmlns:xlink="http://www.w3.org/1999/xlink" x="0px" y="0px"
	 width="750px" height="199px" viewBox="0 0 750 199" enable-background="new 0 0 750 199" xml:space="preserve">
<g>
	<polygon fill="#C7A451" points="675.824,79.802 675.548,79.785 675.779,79.729 576.608,80.019 547.385,53.586 503.997,41.484 
		379.227,24.829 324.91,30.235 320.816,30.595 282.932,29.187 235.502,46.614 0,102.758 0,131.867 238.361,162.452 355.932,198.652 
		490.004,172.352 729.294,150.783 749.773,125.296 	"/>
	<path fill="#C7A451" d="M362.399-0.111c0.587,0,2.1-0.889,0.807-0.889C362.619-1,361.106-0.111,362.399-0.111z"/>
</g>
<polygon fill="#BD9A47" points="729.294,150.783 490.004,172.352 749.773,125.296 "/>
<polygon fill="#BD9A47" points="320.816,30.595 239.643,137.357 282.932,29.187 "/>
<polygon fill="#C39F4E" points="355.932,198.652 239.643,137.357 320.816,30.595 324.91,30.235 "/>
<polygon fill="#B78F39" points="355.932,198.652 238.361,162.452 238.361,136.266 "/>
<polygon fill="#DBC065" points="238.361,162.452 0,131.867 0,102.758 "/>
<polygon fill="#CEAD5B" points="239.719,137.357 0,102.758 235.502,46.614 "/>
<polygon fill="#DCDBDD" points="239.643,137.357 238.361,162.452 0,102.758 "/>
<polygon fill="#CEAD5B" points="749.773,125.296 490.004,172.352 434.38,105.791 503.997,41.484 547.385,53.586 576.608,80.019 
	675.169,79.762 675.824,79.802 "/>
<polygon fill="#DBC065" points="503.997,41.484 434.826,106.095 379.227,24.829 "/>
<polygon fill="#D3B361" points="434.826,106.095 576.608,80.019 547.385,53.586 "/>
<polygon fill="#D3B361" points="675.779,79.729 605.23,96.848 576.608,80.019 "/>
<polygon fill="#DBC065" points="434.826,106.095 605.23,96.848 749.773,125.296 "/>
<g>
	<g>
		<path fill="#DCDBDD" d="M362.399-0.111c0.587,0,2.1-0.889,0.807-0.889C362.619-1,361.106-0.111,362.399-0.111L362.399-0.111z"/>
	</g>
</g>
<polygon fill="#D3B361" points="749.773,125.296 490.004,172.352 434.826,106.095 "/>
<polygon fill="#CEAD5B" points="490.004,172.352 355.932,198.652 434.826,106.095 "/>
<polygon fill="#D3B361" points="434.826,106.095 355.932,198.652 324.91,30.235 379.227,24.829 "/>
<polygon fill="#D3B361" points="239.643,137.357 235.502,46.614 282.932,29.187 "/>
<polygon fill="#C7A451" points="239.779,137.018 238.361,162.452 0,102.758 "/>
</svg>
