<?xml version="1.0" encoding="utf-8"?>
<!-- Generator: Adobe Illustrator 16.0.3, SVG Export Plug-In . SVG Version: 6.00 Build 0)  -->
<!DOCTYPE svg PUBLIC "-//W3C//DTD SVG 1.1//EN" "http://www.w3.org/Graphics/SVG/1.1/DTD/svg11.dtd">
<svg version="1.1" id="Layer_1" xmlns="http://www.w3.org/2000/svg" xmlns:xlink="http://www.w3.org/1999/xlink" x="0px" y="0px"
	 width="561px" height="1025px" viewBox="-238 -158 561 1025" enable-background="new -238 -158 561 1025" xml:space="preserve">
<polygon fill="#D3B361" points="234,-106 181,-127 76.723,-155 5.116,-155 0.583,-155 0.593,-154.684 -38,-126 -98,-108 
	-98.319,-107.946 -98.319,-108 -187.956,-129.945 -188,-130 -188.012,-129.959 -188.077,-129.975 -188.026,-129.912 
	-232.531,18.486 -232,18 -46,86 93.18,53.025 274,36 "/>
<polygon fill="#F7DF6D" points="142.301,10.416 133.779,0 0,0 139.166,181.984 203.221,265.747 206.986,276.157 84.446,489.143 
	82.776,492.045 82.774,492.049 100.906,593.148 130.338,757.267 149.999,866.896 131.291,518.594 130.561,504.992 130.779,504.05 
	225.34,369.598 235.541,355.092 322.624,231.271 322.799,231.023 "/>
<polygon fill="#F6DA97" points="133.779,0 0,0 139.166,181.984 177.857,192.379 142.301,10.416 "/>
<polygon fill="#F7DC75" points="322.799,231.023 142.301,10.416 177.857,192.379 322.624,231.271 "/>
<polygon fill="#F6EF9D" points="203.221,265.747 206.986,276.157 208.787,273.027 "/>
<polygon fill="#F7DF6D" points="139.166,181.984 203.221,265.747 176.552,192.027 "/>
<polygon fill="#F6DA97" points="176.552,192.027 203.221,265.747 208.787,273.027 206.986,276.157 235.541,355.092 322.624,231.271 
	"/>
<polygon fill="#F7DC79" points="235.541,355.092 206.986,276.157 84.446,489.143 225.34,369.598 "/>
<polygon fill="#F6DAA0" points="225.34,369.598 84.446,489.143 82.776,492.045 130.561,504.992 130.779,504.05 "/>
<polygon fill="#F6DB7F" points="130.561,504.992 82.776,492.045 82.774,492.049 100.906,593.148 131.291,518.594 "/>
<polygon fill="#F6DA97" points="100.906,593.148 130.338,757.267 128.186,526.213 "/>
<polygon fill="#F7DF6D" points="131.291,518.594 128.186,526.213 130.338,757.267 149.999,866.896 "/>
<g>
	<polygon fill="#C39F4E" points="93.18,53.025 121.585,-1.34 5.116,-155 0.583,-155 3.525,-59.434 	"/>
	<polygon fill="#BD9A47" points="93.18,53.025 274,36 193.136,38.125 121.585,-1.34 	"/>
	<polygon fill="#D3B361" points="121.585,-1.34 234,-106 181,-127 	"/>
	<polygon fill="#DCDBDD" points="121.585,-1.34 274,36 234,-106 	"/>
	<polygon fill="#CEAD5B" points="-188.077,-129.975 -99.028,-19.714 -98.319,-108 	"/>
	<polygon fill="#B78F39" points="-99.028,-19.714 -188,-130 -192.878,-77.394 	"/>
	<polygon fill="#CEAD5B" points="-232.531,18.486 -192.761,-77.234 -188,-130 	"/>
	<polygon fill="#D3B361" points="-99.028,-19.714 -192.481,-77.523 -232,18 	"/>
	<polygon fill="#CEAD5B" points="-232,18 -46,86 -99.028,-19.714 	"/>
	<polygon fill="#C39F4E" points="-46,86 93.18,53.025 -99.028,-19.714 	"/>
	<polygon fill="#CEAD5B" points="76.723,-155 181,-127 121.585,-1.34 5.116,-155 	"/>
	<polygon fill="#DBC065" points="-99.028,-19.714 -98.434,-108 3.576,-59.988 93.18,53.025 	"/>
	<polygon fill="#CEAD5B" points="-38,-126 1.018,-155 3.576,-59.988 -98,-108 	"/>
	<polygon fill="#DBC065" points="121.585,-1.34 234,-106 192.895,38.625 	"/>
	<polygon fill="#D3B361" points="234,-106 234,-106 274,36 190.77,38.25 	"/>
</g>
</svg>
