<?xml version="1.0" encoding="utf-8"?>
<!-- Generator: Adobe Illustrator 16.0.3, SVG Export Plug-In . SVG Version: 6.00 Build 0)  -->
<!DOCTYPE svg PUBLIC "-//W3C//DTD SVG 1.1//EN" "http://www.w3.org/Graphics/SVG/1.1/DTD/svg11.dtd">
<svg version="1.1" id="Layer_1" xmlns="http://www.w3.org/2000/svg" xmlns:xlink="http://www.w3.org/1999/xlink" x="0px" y="0px"
	 width="286px" height="155px" viewBox="0 0 286 155" enable-background="new 0 0 286 155" xml:space="preserve">
<path fill="#C97024" d="M251.378,80.386L133.281,0l-27.84,10.801L66.954,35.01L0,155.057h128.754h100.344l22.516-74.541
	L251.378,80.386z M154.484,26.724l43.966,24.361l-43.937-24.323L154.484,26.724z"/>
<polygon fill="#8C5843" points="251.574,80.604 251.611,80.516 251.527,80.466 133.281,0 105.441,10.801 66.954,35.01 0,155.057 
	229.098,155.057 286.227,155.057 "/>
<line fill="none" x1="229.135" y1="155.057" x2="251.598" y2="80.684"/>
<polygon fill="#8C5843" points="251.611,80.516 128.754,155.057 229.098,155.057 "/>
<polygon fill="#753C2F" points="154.516,26.762 133.281,0 128.754,155.057 128.754,155.057 "/>
<polygon fill="#A27356" points="251.58,80.523 153.959,26.433 133.281,0 "/>
<polygon fill="#7C4535" points="133.281,0 105.441,10.801 128.754,155.057 "/>
<polygon fill="#97664D" points="105.441,10.801 0,155.057 128.754,155.057 "/>
<polygon fill="#905E47" points="105.441,10.801 66.954,35.01 0,155.057 "/>
<polygon fill="#926049" points="251.58,80.523 286.227,155.057 229.098,155.057 "/>
<image overflow="visible" width="859" height="2084" xlink:href="2369EDD71A315ACF.jpg"  transform="matrix(0.24 0 0 0.24 454.5 -148)">
</image>
<linearGradient id="SVGID_1_" gradientUnits="userSpaceOnUse" x1="57.3892" y1="131.5381" x2="161.5372" y2="576.5359" gradientTransform="matrix(1 0 0 -1 0 156)">
	<stop  offset="0" style="stop-color:#6A2E25"/>
	<stop  offset="0.9693" style="stop-color:#FFE7A9"/>
</linearGradient>
<polygon fill="url(#SVGID_1_)" points="-212.377,-139.185 -84.571,-254.367 -14.357,-285.136 60.5,-290 143.717,-273.578 
	181.276,-260.598 226.268,-238.203 287.014,-197.828 318.569,-171.529 356.438,-128.928 406.928,-66.866 419.025,-35.84 
	268.199,-35.84 62.58,-35.84 -209.764,-35.84 -276.021,-35.84 "/>
<polygon fill="#86513E" points="154.516,26.762 251.611,80.516 128.754,155.057 "/>
</svg>
