<?xml version="1.0" encoding="utf-8"?>
<!-- Generator: Adobe Illustrator 15.0.0, SVG Export Plug-In . SVG Version: 6.00 Build 0)  -->
<!DOCTYPE svg PUBLIC "-//W3C//DTD SVG 1.1//EN" "http://www.w3.org/Graphics/SVG/1.1/DTD/svg11.dtd">
<svg version="1.1" id="Layer_1" xmlns="http://www.w3.org/2000/svg" xmlns:xlink="http://www.w3.org/1999/xlink" x="0px" y="0px"
	 width="708.988px" height="844.775px" viewBox="169.128 55.997 708.988 844.775"
	 enable-background="new 169.128 55.997 708.988 844.775" xml:space="preserve">
<g>
	<path fill="#26322C" d="M326.848,379.75"/>
	<polygon fill="#C3C4C8" points="288.368,587.092 169.128,471.088 327.057,378.762 	"/>
	<polygon fill="#514554" points="232.053,650.693 288.368,587.092 169.128,471.088 	"/>
	<path fill="#26322C" d="M327.057,378.762"/>
	<polygon fill="#514554" points="489.049,507.482 288.167,587.311 327.057,378.762 	"/>
	<polygon fill="#47535E" points="489.049,507.482 403.6,465.59 344.075,398.712 327.057,378.762 	"/>
	<polygon fill="#9B9198" points="380.863,649.824 395.299,544.518 288.167,587.311 	"/>
	<polygon fill="#9B9198" points="387.355,599.996 374.604,601.729 380.863,649.824 	"/>
	<polygon fill="#47535E" points="374.604,601.729 288.167,587.311 380.863,649.824 	"/>
	<polygon fill="#6E6E8D" points="374.604,601.729 358.212,559.396 387.693,599.996 	"/>
	<polygon fill="#C3C4C8" points="374.604,601.729 358.212,559.396 318.681,592.383 	"/>
	<polygon fill="#444B62" points="380.863,649.824 338.728,645.426 288.167,587.311 	"/>
	<polygon fill="#444B62" points="232.053,650.693 184.198,565.611 216.127,570.723 	"/>
	<polygon fill="#858899" points="169.128,471.088 184.289,566.404 216.127,570.723 	"/>
	<polygon fill="#858899" points="327.057,378.762 316.498,435.351 344.075,398.712 	"/>
	<polygon fill="#9B9198" points="316.498,435.351 237.64,430.958 327.057,378.762 	"/>
	<polygon fill="#858899" points="169.128,471.088 239.163,420.592 327.057,378.762 	"/>
	<polygon fill="#9B9198" points="255.621,624.096 249.69,549.285 288.167,587.311 	"/>
	<polygon fill="#47535E" points="216.127,570.723 255.621,624.096 232.053,650.693 	"/>
	<polygon fill="#858899" points="288.167,587.311 228.527,547.441 169.128,471.088 	"/>
	<polyline fill="#C3C4C8" points="228.146,547.24 216.127,570.723 250.72,562.277 228.527,547.441 	"/>
	<polygon fill="#6E6E8D" points="403.6,465.59 288.167,587.311 395.299,544.738 	"/>
	<polyline fill="#C3C4C8" points="403.095,466.725 316.498,435.351 344.075,398.712 403.6,465.59 	"/>
	<polygon fill="#C3C4C8" points="303.081,507.916 169.128,471.088 288.167,587.311 	"/>
</g>
<g>
	<path fill="#47452B" d="M203.539,71.294"/>
	<g>
		<g>
			<path fill="#0B132D" d="M425.675,127.507c0.858,0,2.002-1.303,0.696-1.303C425.514,126.205,424.369,127.507,425.675,127.507
				L425.675,127.507z"/>
		</g>
	</g>
	<polygon fill="#0D1225" points="343.361,55.997 409.019,198.802 456.044,92.62 	"/>
	<path fill="#47452B" d="M204.308,71.319"/>
	<polygon fill="#47535E" points="343.361,55.997 248.65,189.641 409.79,198.827 	"/>
	<g>
		<g>
			<path fill="#0B132D" d="M426.449,127.533c0.858,0,2.002-1.303,0.696-1.303C426.287,126.23,425.143,127.533,426.449,127.533
				L426.449,127.533z"/>
		</g>
	</g>
	<polygon fill="#C3C4C8" points="343.361,55.997 409.628,199.25 456.813,92.643 	"/>
	<polygon fill="#3E3649" points="343.361,55.997 359.164,126.618 409.628,199.25 	"/>
	<polygon fill="#9B9198" points="218.874,109.932 256.881,114.193 299.189,118.406 248.65,189.641 	"/>
	<polygon fill="#858899" points="203.463,71.496 218.874,109.932 256.881,114.193 	"/>
	<polygon fill="#3E3649" points="256.881,114.193 265.106,64.623 203.463,71.496 	"/>
	<polygon fill="#514554" points="256.881,114.193 253.334,123.282 218.874,109.932 	"/>
	<polygon fill="#858899" points="253.334,123.282 248.65,189.641 218.874,109.932 	"/>
	<polygon fill="#6E6E8D" points="253.334,123.282 281.731,143.056 256.881,114.193 	"/>
	<polygon fill="#C3C4C8" points="253.334,123.282 281.731,143.056 248.65,189.641 	"/>
	<polygon fill="#47535E" points="218.874,109.932 214.65,141.804 248.65,189.641 	"/>
	<path fill="#32311A" d="M203.297,70.723"/>
	<path fill="#38371F" d="M203.463,71.496"/>
	<polygon fill="#9B9198" points="218.874,109.932 203.463,71.496 214.65,141.804 	"/>
	<polygon fill="#444B62" points="457.276,91.762 419.91,80.723 449.089,107.985 	"/>
	<polygon fill="#858899" points="449.089,107.985 456.958,115.326 457.276,91.762 	"/>
	<polygon fill="#858899" points="419.91,80.723 436.243,139.119 449.089,107.985 	"/>
	<polygon fill="#3E3649" points="449.089,107.985 456.958,115.326 436.243,139.119 	"/>
	<polygon fill="#3E3649" points="409.628,199.25 366.065,196.342 398.058,182.657 	"/>
	<polygon fill="#6E6E8D" points="359.164,126.618 248.65,189.641 299.189,118.406 	"/>
	<polyline fill="#C3C4C8" points="359.164,126.618 366.065,196.342 409.628,199.25 359.164,126.618 	"/>
</g>
<g>
	<path fill="#47452B" d="M515.457,256.178"/>
	<path fill="#47452B" d="M516.656,256.216"/>
	<polygon fill="#47535E" points="733.364,232.337 585.762,440.616 836.891,454.931 	"/>
	<polygon fill="#3E3649" points="733.364,232.337 757.992,342.396 836.639,455.59 	"/>
	<polygon fill="#9B9198" points="539.356,316.393 598.588,323.033 664.524,329.599 585.762,440.616 	"/>
	<polygon fill="#858899" points="515.34,256.492 539.356,316.393 598.588,323.033 	"/>
	<polygon fill="#3E3649" points="593.061,337.197 733.364,232.337 515.34,256.492 	"/>
	<polygon fill="#514554" points="733.364,232.337 664.524,329.599 593.061,337.197 	"/>
	<polygon fill="#858899" points="593.061,337.197 585.762,440.616 539.356,316.393 	"/>
	<polygon fill="#6E6E8D" points="593.061,337.197 637.318,368.015 666.235,329.599 	"/>
	<polygon fill="#C3C4C8" points="593.061,337.197 637.318,368.015 585.762,440.616 	"/>
	<polygon fill="#47535E" points="539.356,316.393 532.773,366.064 585.762,440.616 	"/>
	<path fill="#32311A" d="M515.08,255.287"/>
	<path fill="#38371F" d="M515.34,256.492"/>
	<polygon fill="#9B9198" points="539.356,316.393 515.34,256.492 532.773,366.064 	"/>
	<g>
		<polygon fill="#47535E" points="835.689,454.892 835.995,454.2 733.364,232.337 		"/>
		<polygon fill="#47535E" points="835.995,454.2 836.639,455.59 878.116,361.879 877.639,360.172 		"/>
		<polygon fill="#47535E" points="852.662,270.872 852.671,270.874 733.364,232.337 852.735,271.134 		"/>
		<polygon fill="#47535E" points="852.735,271.134 733.364,232.337 835.995,454.2 877.639,360.172 		"/>
		<polygon fill="#47535E" points="878.116,361.879 878.116,361.879 878.116,361.877 		"/>
		<polygon fill="#47535E" points="852.662,270.872 852.735,271.134 853.053,271.237 		"/>
	</g>
	<polygon fill="#3E3649" points="836.639,455.59 768.749,451.059 818.607,429.731 	"/>
	<polygon fill="#6E6E8D" points="757.992,342.396 585.762,440.616 664.524,329.599 	"/>
	<polyline fill="#C3C4C8" points="757.992,342.396 768.749,451.059 836.639,455.59 757.992,342.396 	"/>
	<polygon fill="#6E6E8D" points="836.639,455.59 853.053,271.237 733.364,232.337 	"/>
	<polygon fill="#9B9198" points="637.318,367.866 664.524,329.599 593.061,337.197 	"/>
</g>
<g>
	<path fill="#0B132D" d="M737.583,703.096"/>
	<path fill="#0B132D" d="M737.194,702.309"/>
	<g>
		<g>
			<g>
				<path fill="#6A6230" d="M721.938,842.772c1.128,0,1.462-1.48,0.154-1.48C720.965,841.292,720.631,842.772,721.938,842.772
					L721.938,842.772z"/>
			</g>
		</g>
		<path fill="#26322C" d="M567.076,725.178"/>
		<g>
			<g>
				<path fill="#0B132D" d="M634.026,673.973c0.857,0,2.002-1.303,0.695-1.303C633.864,672.67,632.72,673.973,634.026,673.973
					L634.026,673.973z"/>
			</g>
		</g>
		<polygon fill="#C3C4C8" points="652.739,887.96 507.78,872.296 566.402,724.589 590.102,768.792 620.219,825.665 		"/>
		<path fill="#26322C" d="M566.685,724.39"/>
		<polygon fill="#858899" points="747.968,725.89 653.021,887.761 566.685,724.39 		"/>
		<g>
			<g>
				<path fill="#0B132D" d="M633.635,673.18c0.857,0,2.002-1.303,0.695-1.303C633.473,671.877,632.328,673.18,633.635,673.18
					L633.635,673.18z"/>
			</g>
		</g>
		<polygon fill="#47535E" points="747.968,725.89 566.319,724.753 655.57,624.996 		"/>
		<polygon fill="#3E3649" points="747.968,725.89 666.443,742.909 566.319,724.753 		"/>
		<polygon fill="#514554" points="750.699,881.247 703.53,801.402 653.005,888.015 		"/>
		<polygon fill="#6E6E7A" points="728.027,842.87 720.308,851.654 750.699,881.247 		"/>
		<polygon fill="#C3C4C8" points="720.308,851.654 653.005,888.015 750.699,881.247 		"/>
		<polygon fill="#444B62" points="720.308,851.654 686.073,831.437 728.027,842.87 		"/>
		<polygon fill="#9B9198" points="720.308,851.654 686.073,831.437 676.757,875.17 		"/>
		<polygon fill="#4E4D5E" points="750.699,881.247 719.313,900.772 653.005,888.015 		"/>
		<polygon fill="#858899" points="566.319,724.753 590.102,768.792 589.217,728.948 		"/>
		<polygon fill="#514554" points="590.102,768.792 533.449,807.964 566.319,724.753 		"/>
		<polygon fill="#9B9198" points="508.062,872.097 528.882,800.05 566.319,724.753 		"/>
		<polygon fill="#3E3649" points="653.005,888.015 590.342,892.616 508.062,872.097 		"/>
		<polygon fill="#6E6E8D" points="666.443,742.909 653.005,888.015 703.53,801.402 		"/>
		<polyline fill="#6E6E7A" points="666.825,742.785 590.211,767.622 589.217,728.948 666.443,742.909 		"/>
		<polygon fill="#47535E" points="620.219,825.665 508.062,872.097 653.194,888.051 		"/>
		<polyline fill="#C3C4C8" points="747.968,725.89 660.779,725.344 685.698,657.894 747.968,725.89 		"/>
	</g>
</g>
</svg>
