<?xml version="1.0" encoding="utf-8"?>
<!-- Generator: Adobe Illustrator 15.0.0, SVG Export Plug-In . SVG Version: 6.00 Build 0)  -->
<!DOCTYPE svg PUBLIC "-//W3C//DTD SVG 1.1//EN" "http://www.w3.org/Graphics/SVG/1.1/DTD/svg11.dtd">
<svg version="1.1" id="Layer_1" xmlns="http://www.w3.org/2000/svg" xmlns:xlink="http://www.w3.org/1999/xlink" x="0px" y="0px"
	 width="2203.113px" height="1427.682px" viewBox="0 0 2203.113 1427.682" enable-background="new 0 0 2203.113 1427.682"
	 xml:space="preserve">
<g opacity="0.74">
	<g>
		<path fill="none" stroke="#E6E7E8" stroke-width="4" stroke-miterlimit="10" d="M11.736,1375.192
			c-0.086-0.141-0.172-0.282-0.257-0.423"/>
		<path fill="none" stroke="#E6E7E8" stroke-width="4" stroke-miterlimit="10" stroke-dasharray="0.9982,11.9789" d="M6.14,1364.062
			c-61.574-152.677,346.534-554.407,930.062-911.504C1526.824,91.115,2076.375-89.495,2174.842,43.843"/>
		<path fill="none" stroke="#E6E7E8" stroke-width="4" stroke-miterlimit="10" d="M2178.207,48.803
			c0.087,0.14,0.174,0.281,0.26,0.421"/>
	</g>
</g>
<g>
	<defs>
		<path id="SVGID_1_" d="M675.667,592.066c90.466-262.164,376.335-401.353,638.501-310.879
			c262.163,90.467,401.351,376.334,310.883,638.498c-90.467,262.164-376.336,401.354-638.498,310.88
			C724.388,1140.101,585.2,854.236,675.667,592.066z"/>
	</defs>
	<clipPath id="SVGID_2_">
		<use xlink:href="#SVGID_1_"  overflow="visible"/>
	</clipPath>
	<polygon clip-path="url(#SVGID_2_)" fill="#21273A" points="1190.723,1290.675 915.367,1214.391 947.538,1193.139 	"/>
	<polygon clip-path="url(#SVGID_2_)" fill="#0B132D" points="638.654,564.498 777.894,673.314 755.91,1113.263 	"/>
	<g clip-path="url(#SVGID_2_)">
		<g>
			<path fill="#0B132D" d="M913.904,1055.293c0.858,0,2.002-1.303,0.696-1.303C913.742,1053.99,912.598,1055.293,913.904,1055.293
				L913.904,1055.293z"/>
		</g>
	</g>
	<polygon clip-path="url(#SVGID_2_)" fill="#0D1225" points="777.894,673.314 1186.424,1090.55 755.91,1113.263 	"/>
	<polygon clip-path="url(#SVGID_2_)" fill="#0D1321" points="1186.424,1090.55 1189.259,1290.423 755.91,1113.263 	"/>
	<polygon clip-path="url(#SVGID_2_)" fill="#0B132D" points="637.723,567.188 776.957,676.011 754.978,1115.953 	"/>
	<g clip-path="url(#SVGID_2_)">
		<g>
			<path fill="#0B132D" d="M912.98,1057.979c0.858,0,2.002-1.303,0.696-1.303C912.819,1056.676,911.674,1057.979,912.98,1057.979
				L912.98,1057.979z"/>
		</g>
	</g>
	<polygon clip-path="url(#SVGID_2_)" fill="#0D1225" points="776.957,676.011 1185.5,1093.235 754.978,1115.953 	"/>
	<polygon clip-path="url(#SVGID_2_)" fill="#0D1321" points="1185.5,1093.235 1188.332,1293.119 947.538,1193.139 754.978,1115.953 
			"/>
	<polygon clip-path="url(#SVGID_2_)" fill="#0B132D" points="751.3,1116.392 760.004,973.423 818.4,1109.451 	"/>
	<polygon clip-path="url(#SVGID_2_)" fill="#3A3921" points="642.021,885.056 679.162,761.433 696.64,841.176 	"/>
	<polygon clip-path="url(#SVGID_2_)" fill="#1F2B25" points="696.455,840.793 768.302,849.246 760.292,972.676 	"/>
	<polygon clip-path="url(#SVGID_2_)" fill="#26322C" points="751.3,1116.392 802.486,1168.663 833.536,1146.271 	"/>
	<polygon clip-path="url(#SVGID_2_)" fill="#3A3921" points="818.4,1109.451 833.536,1146.271 751.3,1116.392 	"/>
	<polygon clip-path="url(#SVGID_2_)" fill="#26322C" points="637.441,565.447 679.162,761.433 642.021,885.056 	"/>
	<polygon clip-path="url(#SVGID_2_)" fill="#292F32" points="833.536,1146.271 915.367,1214.391 802.486,1168.663 	"/>
	<polygon clip-path="url(#SVGID_2_)" fill="#21273A" points="833.536,1146.271 944.284,1103.731 915.367,1214.391 	"/>
	<polygon clip-path="url(#SVGID_2_)" fill="#33726D" points="947.538,1193.139 944.284,1103.731 915.367,1214.391 	"/>
	<polygon clip-path="url(#SVGID_2_)" fill="#0B132D" points="760.004,973.423 944.284,1103.731 818.4,1109.451 	"/>
	<polygon clip-path="url(#SVGID_2_)" fill="#33726D" points="818.4,1109.451 833.536,1146.271 944.284,1103.731 	"/>
	<polygon clip-path="url(#SVGID_2_)" fill="#514C21" points="1564.221,347.964 1623.996,544.864 1561.148,596.778 	"/>
	<polygon clip-path="url(#SVGID_2_)" fill="#46442D" points="1365.839,522.604 1659.277,889.069 1186.424,1090.55 	"/>
	<polygon clip-path="url(#SVGID_2_)" fill="#6B6331" points="1564.221,347.964 1365.839,522.604 1659.277,889.069 	"/>
	<path clip-path="url(#SVGID_2_)" fill="#47452B" d="M1013.977,213.334"/>
	<polygon clip-path="url(#SVGID_2_)" fill="#47452B" points="1365.839,522.604 776.957,676.011 1013.977,213.334 	"/>
	<path clip-path="url(#SVGID_2_)" fill="#26322C" d="M1186.424,1090.55"/>
	<polygon clip-path="url(#SVGID_2_)" fill="#26322C" points="776.957,676.011 1365.839,522.604 1186.424,1090.55 	"/>
	<polygon clip-path="url(#SVGID_2_)" fill="#26322C" points="1013.977,213.334 638.654,564.498 777.894,673.314 	"/>
	<polygon clip-path="url(#SVGID_2_)" fill="#736D2E" points="1013.977,213.334 1564.221,347.964 1365.839,522.604 	"/>
	<polygon clip-path="url(#SVGID_2_)" fill="#292F32" points="1659.277,889.069 1189.259,1290.423 1186.424,1090.55 	"/>
	<path clip-path="url(#SVGID_2_)" fill="#0B132D" d="M748.159,751.455"/>
	<line clip-path="url(#SVGID_2_)" fill="#8E8239" x1="1198.027" y1="375.66" x2="1013.187" y2="213.559"/>
	<polygon clip-path="url(#SVGID_2_)" fill="#38371F" points="1364.912,525.289 1658.353,891.755 1185.5,1093.235 	"/>
	<polygon clip-path="url(#SVGID_2_)" fill="#6B6331" points="1563.292,350.649 1364.912,525.289 1658.353,891.755 	"/>
	<path clip-path="url(#SVGID_2_)" fill="#47452B" d="M1013.044,216.027"/>
	<polygon clip-path="url(#SVGID_2_)" fill="#47452B" points="1364.912,525.289 768.056,665.341 1013.044,216.027 	"/>
	<path clip-path="url(#SVGID_2_)" fill="#26322C" d="M1185.5,1093.235"/>
	<polygon clip-path="url(#SVGID_2_)" fill="#26322C" points="776.957,676.011 1364.912,525.289 1185.5,1093.235 	"/>
	<polygon clip-path="url(#SVGID_2_)" fill="#26322C" points="1013.044,216.027 637.723,567.188 776.957,676.011 	"/>
	<polygon clip-path="url(#SVGID_2_)" fill="#736D2E" points="1013.044,216.027 1563.292,350.649 1364.912,525.289 	"/>
	<polygon clip-path="url(#SVGID_2_)" fill="#292F32" points="1658.353,891.755 1491.974,1141.742 1188.332,1293.119 
		1185.5,1093.235 	"/>
	<path clip-path="url(#SVGID_2_)" fill="#0B132D" d="M747.227,754.146"/>
	<line clip-path="url(#SVGID_2_)" fill="#8E8239" x1="1197.099" y1="378.345" x2="1012.261" y2="216.245"/>
	<polygon clip-path="url(#SVGID_2_)" fill="#1F2B25" points="637.441,565.447 797.617,349.845 892.358,452.518 	"/>
	<polygon clip-path="url(#SVGID_2_)" fill="#36433C" points="797.617,349.845 1014.769,213.348 890.991,454.299 	"/>
	<polygon clip-path="url(#SVGID_2_)" fill="#1A2123" points="1491.974,1141.742 1187.173,1093.243 1183.733,1291.21 	"/>
	<polygon clip-path="url(#SVGID_2_)" fill="#21273A" points="776.957,676.011 1001.365,823.461 1187.173,1093.243 	"/>
	<path clip-path="url(#SVGID_2_)" fill="#33726D" d="M574.46,554.038c111.479-323.056,463.732-494.563,786.78-383.089
		c323.043,111.479,494.559,463.733,383.078,786.777c-111.473,323.043-463.73,494.555-786.774,383.076
		C634.498,1229.331,462.98,877.069,574.46,554.038z"/>
	<polygon clip-path="url(#SVGID_2_)" fill="#5C5628" points="1127.943,317.116 1055.062,601.496 1364.912,525.289 	"/>
	<polygon clip-path="url(#SVGID_2_)" fill="#38371F" points="1014.769,213.348 1127.943,317.116 1092.761,453.954 	"/>
	<polygon clip-path="url(#SVGID_2_)" fill="#3A3921" points="1092.761,453.954 909.826,417.163 1017.556,211.341 	"/>
	<polygon clip-path="url(#SVGID_2_)" fill="#514C21" points="1092.761,453.954 1128.982,453.66 1127.943,317.116 	"/>
	<polygon clip-path="url(#SVGID_2_)" fill="#5A512A" points="1128.982,453.66 1364.912,525.289 1127.943,317.116 	"/>
	<polygon clip-path="url(#SVGID_2_)" fill="#5C5D2A" points="1128.982,453.66 1161.342,575.357 1092.761,453.954 	"/>
	<polygon clip-path="url(#SVGID_2_)" fill="#5B622B" points="1128.982,453.66 1161.342,575.357 1282.007,499.696 	"/>
	<polygon clip-path="url(#SVGID_2_)" fill="#6B6331" points="1127.943,317.116 1244.886,345.5 1364.912,525.289 	"/>
	<path clip-path="url(#SVGID_2_)" fill="#32311A" d="M1012.312,211.753"/>
	<path clip-path="url(#SVGID_2_)" fill="#38371F" d="M1014.769,213.348"/>
	<polygon clip-path="url(#SVGID_2_)" fill="#615A2B" points="1127.943,317.116 1014.769,213.348 1244.886,345.5 	"/>
	<polygon clip-path="url(#SVGID_2_)" fill="#736D2E" points="1012.312,211.753 1310.503,261.229 1244.886,345.5 	"/>
	<polygon clip-path="url(#SVGID_2_)" fill="#6C672B" points="1565.561,348.496 1310.503,261.229 1282.833,282.528 	"/>
	<polygon clip-path="url(#SVGID_2_)" fill="#514C21" points="1244.886,345.5 1282.833,282.528 1509.008,464.409 	"/>
	<polygon clip-path="url(#SVGID_2_)" fill="#6A6230" points="1509.008,464.409 1406.257,310.819 1282.833,282.528 	"/>
	<polygon clip-path="url(#SVGID_2_)" fill="#5B622B" points="1623.996,544.864 1648.602,622.439 1561.148,596.778 	"/>
	<polygon clip-path="url(#SVGID_2_)" fill="#5C5D2A" points="1657.953,887.512 1648.623,620.191 1561.148,596.778 	"/>
	<polygon clip-path="url(#SVGID_2_)" fill="#5C5628" points="1187.173,1093.243 1234.384,938.983 1144.785,1031.459 	"/>
	<polygon clip-path="url(#SVGID_2_)" fill="#3A3921" points="1234.384,938.983 1447.099,978.375 1187.173,1093.243 	"/>
	<polygon clip-path="url(#SVGID_2_)" fill="#5C5D2A" points="1447.099,978.375 1445.396,1007.788 1187.173,1093.243 	"/>
	<polygon clip-path="url(#SVGID_2_)" fill="#514C21" points="1055.062,601.496 909.826,417.163 1092.761,453.954 	"/>
	<polyline clip-path="url(#SVGID_2_)" fill="#5B622B" points="1364.912,525.289 1267.439,651.982 1248.572,553.902 
		1364.912,525.289 	"/>
	<polygon clip-path="url(#SVGID_2_)" fill="#38371F" points="984.616,512.19 1055.062,601.496 1011.427,719.69 	"/>
	<polygon clip-path="url(#SVGID_2_)" fill="#5C5628" points="1011.427,719.69 1165.462,717.267 1038.152,647.011 	"/>
	<polygon clip-path="url(#SVGID_2_)" fill="#6B6331" points="1038.152,647.011 1043.852,631.522 1164.577,718.429 	"/>
	<polygon clip-path="url(#SVGID_2_)" fill="#736D2E" points="1055.062,601.496 991.512,566.522 984.616,512.19 	"/>
	<polygon clip-path="url(#SVGID_2_)" fill="#5B622B" points="1107.632,717.616 1165.462,717.267 1115.255,812.171 	"/>
	<polygon clip-path="url(#SVGID_2_)" fill="#6B6331" points="1115.255,812.171 1279.663,796.221 1234.384,938.983 	"/>
	<polygon clip-path="url(#SVGID_2_)" fill="#5C5D2A" points="1115.255,812.171 969.796,910.543 1144.785,1031.459 	"/>
	<polygon clip-path="url(#SVGID_2_)" fill="#38371F" points="1115.255,812.171 1234.384,938.983 1144.785,1031.459 	"/>
	<polygon clip-path="url(#SVGID_2_)" fill="#514C21" points="1279.663,796.221 1447.099,978.375 1234.384,938.983 	"/>
	<polygon clip-path="url(#SVGID_2_)" fill="#6B6331" points="1084.929,1264.517 1084.15,1217.214 1123.568,1216.569 	"/>
	<polygon clip-path="url(#SVGID_2_)" fill="#3A3921" points="1084.929,1264.517 1189.745,1223.018 1123.568,1216.569 	"/>
	<polygon clip-path="url(#SVGID_2_)" fill="#615A2B" points="1084.15,1217.214 1183.854,1140.463 1123.568,1216.569 	"/>
	<polygon clip-path="url(#SVGID_2_)" fill="#6A6230" points="1445.396,1007.788 1354.556,1118.139 1187.173,1093.243 	"/>
	<polygon clip-path="url(#SVGID_2_)" fill="#514C21" points="1354.556,1118.139 1189.745,1223.018 1187.173,1093.243 	"/>
	<polygon clip-path="url(#SVGID_2_)" fill="#514C21" points="1144.785,1031.459 1187.173,1093.243 1133.952,1179.659 	"/>
	<polygon clip-path="url(#SVGID_2_)" fill="#38371F" points="1187.173,1093.243 1183.854,1140.463 1133.952,1179.659 
		1133.952,1179.659 	"/>
	<polyline clip-path="url(#SVGID_2_)" fill="#6B6331" points="1055.45,968.96 1144.785,1031.459 1133.952,1179.659 
		1057.067,967.379 	"/>
	<polygon clip-path="url(#SVGID_2_)" fill="#514C21" points="1123.568,1216.569 1189.745,1223.018 1354.556,1118.139 
		1187.173,1093.243 1183.854,1140.463 	"/>
	<g clip-path="url(#SVGID_2_)">
		<defs>
			<path id="SVGID_3_" d="M1645.912,574.636c0,0-998.143,293.619-1682.062-169.257c0,0,901.25,654.851,1574.16,553.847
				C2210.917,858.228,1645.912,574.636,1645.912,574.636z"/>
		</defs>
		<clipPath id="SVGID_4_">
			<use xlink:href="#SVGID_3_"  overflow="visible"/>
		</clipPath>
		<path clip-path="url(#SVGID_4_)" fill="#47452B" d="M896.818,632.93"/>
		<polygon clip-path="url(#SVGID_4_)" fill="#47452B" points="1209.021,1048.179 1425.413,410.789 896.818,632.93 		"/>
		<polygon clip-path="url(#SVGID_4_)" fill="#26322C" points="1425.413,410.789 1209.021,1048.179 1852.197,897.825 		"/>
		<g clip-path="url(#SVGID_4_)">
			<g>
				<path fill="#0B132D" d="M1835.177,594.488c0.857,0,2.002-1.303,0.695-1.303C1835.015,593.185,1833.871,594.488,1835.177,594.488
					L1835.177,594.488z"/>
			</g>
		</g>
		<line clip-path="url(#SVGID_4_)" fill="#8E8239" x1="1060.741" y1="850.19" x2="897.131" y2="632.075"/>
		<path clip-path="url(#SVGID_4_)" fill="#47452B" d="M899.861,632.139"/>
		<polygon clip-path="url(#SVGID_4_)" fill="#B9B1A4" points="1212.068,1047.378 1428.458,409.991 899.861,632.139 		"/>
		<path clip-path="url(#SVGID_4_)" fill="#26322C" d="M1855.257,897.022"/>
		<polygon clip-path="url(#SVGID_4_)" fill="#6E6C67" points="1428.458,409.991 1212.068,1047.378 1855.257,897.022 		"/>
		<g clip-path="url(#SVGID_4_)">
			<g>
				<path fill="#0B132D" d="M1838.22,593.698c0.857,0,2.002-1.303,0.695-1.303C1838.058,592.396,1836.914,593.698,1838.22,593.698
					L1838.22,593.698z"/>
			</g>
		</g>
		<line clip-path="url(#SVGID_4_)" fill="#8E8239" x1="1063.784" y1="849.384" x2="900.167" y2="631.288"/>
		<polygon clip-path="url(#SVGID_4_)" fill="#DED8CE" points="1066.056,405.253 896.763,633.824 1173.664,517.321 		"/>
		<polygon clip-path="url(#SVGID_4_)" fill="#A9A198" points="1425.828,412.438 1569.885,673.046 1614.627,560.82 		"/>
		<polygon clip-path="url(#SVGID_4_)" fill="#5B5655" points="1157.715,739.399 1336.177,681.711 1211.434,1048.013 		"/>
		<polygon clip-path="url(#SVGID_4_)" fill="#787975" points="896.763,633.824 1001.918,767.735 1156.213,740.409 		"/>
		<polygon clip-path="url(#SVGID_4_)" fill="#4A4944" points="1001.918,767.735 1022.302,898.565 1211.434,1048.013 		"/>
		<path clip-path="url(#SVGID_4_)" fill="#32311A" d="M895.196,630.956"/>
		<path clip-path="url(#SVGID_4_)" fill="#38371F" d="M896.763,633.824"/>
		<polygon clip-path="url(#SVGID_4_)" fill="#D0C9BC" points="1852.197,897.825 1680.56,938.032 1779.792,855.767 		"/>
		<polygon clip-path="url(#SVGID_4_)" fill="#93897F" points="1755.911,543.008 1724.994,604.137 1739.405,628.776 
			1820.624,556.526 		"/>
		<polygon clip-path="url(#SVGID_4_)" fill="#E4E4EC" points="1703.099,524.978 1755.911,543.008 1724.938,604.977 
			1682.626,529.886 		"/>
		<polygon clip-path="url(#SVGID_4_)" fill="#F4EFE0" points="1737.013,626.699 1746.589,715.792 1645.598,756.579 		"/>
		<polygon clip-path="url(#SVGID_4_)" fill="#E4E4EC" points="1746.589,715.792 1786.671,760.929 1645.924,756.429 		"/>
		<polygon clip-path="url(#SVGID_4_)" fill="#D8D7DB" points="1790.11,759.261 1781.308,855.327 1699.319,806.448 1645.598,756.579 
					"/>
		<polyline clip-path="url(#SVGID_4_)" fill="#EAE2CB" points="1614.627,560.82 1569.885,673.046 1645.598,756.579 
			1739.405,628.776 1682.626,529.886 		"/>
		<path clip-path="url(#SVGID_4_)" fill="#26322C" d="M1813.912,884.104"/>
		<polygon clip-path="url(#SVGID_4_)" fill="#B3AE9D" points="1674.76,1020.116 1744.01,851.632 1641.595,839.263 		"/>
		<polygon clip-path="url(#SVGID_4_)" fill="#ABAE9F" points="1604.555,761.913 1569.885,673.046 1336.177,681.711 		"/>
		<polygon clip-path="url(#SVGID_4_)" fill="#F4EFE0" points="1517.58,735.921 1389.959,918.749 1336.177,681.711 		"/>
		<polygon clip-path="url(#SVGID_4_)" fill="#EFE4D1" points="1524.688,974.284 1599.535,944.784 1674.76,1020.116 
			1536.117,1214.891 		"/>
		<polygon clip-path="url(#SVGID_4_)" fill="#555748" points="1642.208,840.534 1674.76,1020.116 1599.535,944.784 		"/>
		<polygon clip-path="url(#SVGID_4_)" fill="#EAEAEA" points="1517.58,735.921 1642.208,840.534 1604.555,761.913 		"/>
		<polygon clip-path="url(#SVGID_4_)" fill="#E4E4EC" points="1389.959,918.749 1641.595,988.298 1214.239,1046.774 		"/>
		<polygon clip-path="url(#SVGID_4_)" fill="#939387" points="1642.878,986.448 1641.595,839.263 1389.959,918.749 		"/>
		<polygon clip-path="url(#SVGID_4_)" fill="#47452B" points="441.08,1006.151 657.471,368.769 128.875,590.908 		"/>
		<polygon clip-path="url(#SVGID_4_)" fill="#26322C" points="657.471,368.769 441.08,1006.151 1084.265,855.806 		"/>
		<polygon clip-path="url(#SVGID_4_)" fill="#B9B1A4" points="444.133,1005.349 660.519,367.975 131.926,590.108 		"/>
		<path clip-path="url(#SVGID_4_)" fill="#26322C" d="M1087.317,855.003"/>
		<polygon clip-path="url(#SVGID_4_)" fill="#6E6C67" points="660.519,367.975 444.133,1005.349 1196.94,954.672 		"/>
		<polygon clip-path="url(#SVGID_4_)" fill="#DED8CE" points="298.119,363.222 128.826,591.802 405.725,475.308 		"/>
		<polygon clip-path="url(#SVGID_4_)" fill="#A9A198" points="657.884,370.417 801.945,631.024 846.683,518.802 		"/>
		<polygon clip-path="url(#SVGID_4_)" fill="#5B5655" points="233.984,725.706 559.909,665.691 443.486,1005.989 		"/>
		<polygon clip-path="url(#SVGID_4_)" fill="#787975" points="128.826,591.802 233.984,725.706 388.272,698.392 		"/>
		<g clip-path="url(#SVGID_4_)">
			<g>
				<path fill="#5B622B" d="M462.611,710.254c0.596,0,2.098-0.902,0.804-0.902C462.819,709.352,461.317,710.254,462.611,710.254
					L462.611,710.254z"/>
			</g>
		</g>
		<polygon clip-path="url(#SVGID_4_)" fill="#4A4944" points="233.984,725.706 254.363,856.546 443.486,1005.989 		"/>
		<polygon clip-path="url(#SVGID_4_)" fill="#D0C9BC" points="1194.775,952.304 976.066,809.62 1011.848,813.745 		"/>
		<polygon clip-path="url(#SVGID_4_)" fill="#E4E4EC" points="935.163,482.956 1066.056,405.253 956.998,562.957 914.686,487.866 		
			"/>
		<polygon clip-path="url(#SVGID_4_)" fill="#F4EFE0" points="969.077,584.686 978.641,673.757 877.661,714.56 		"/>
		<polygon clip-path="url(#SVGID_4_)" fill="#E4E4EC" points="979.381,666.715 1157.715,739.399 877.993,714.409 		"/>
		<polygon clip-path="url(#SVGID_4_)" fill="#D8D7DB" points="1157.715,739.399 1013.372,813.308 931.388,764.419 877.661,714.56 		
			"/>
		<polyline clip-path="url(#SVGID_4_)" fill="#EAE2CB" points="846.683,518.802 814.552,663.329 877.661,714.56 971.46,586.752 
			914.686,487.866 		"/>
		<path clip-path="url(#SVGID_4_)" fill="#26322C" d="M1045.971,842.095"/>
		<polygon clip-path="url(#SVGID_4_)" fill="#B3AE9D" points="906.82,978.101 976.066,809.62 873.66,797.239 		"/>
		<polygon clip-path="url(#SVGID_4_)" fill="#ABAE9F" points="836.622,719.886 801.945,631.024 539.604,631.151 		"/>
		<polygon clip-path="url(#SVGID_4_)" fill="#F4EFE0" points="707.554,678.781 622.025,876.735 568.245,639.681 		"/>
		<polygon clip-path="url(#SVGID_4_)" fill="#555748" points="874.272,798.515 906.82,978.101 831.595,902.771 		"/>
		<polygon clip-path="url(#SVGID_4_)" fill="#EAEAEA" points="707.554,678.781 874.272,798.515 836.622,719.886 		"/>
		<polygon clip-path="url(#SVGID_4_)" fill="#E4E4EC" points="622.025,876.735 873.651,946.278 446.304,1004.747 		"/>
		<polygon clip-path="url(#SVGID_4_)" fill="#939387" points="874.941,944.431 873.66,797.239 622.025,876.735 		"/>
		<path opacity="0.74" clip-path="url(#SVGID_4_)" fill="#E6E7E8" d="M-797.342,159.28
			C-961.543,635.116-407.319,1258.039,440.549,1550.622c847.877,292.586,1668.318,144.035,1832.525-331.796
			c164.199-475.843-390.029-1098.76-1237.894-1391.342C187.309-465.105-633.137-316.558-797.342,159.28z"/>
	</g>
	<g clip-path="url(#SVGID_2_)">
		<defs>
			<path id="SVGID_5_" d="M1614.413,16.134c0,0-998.143,293.619-1682.062-169.257c0,0,901.25,654.851,1574.16,553.847
				C2179.417,299.725,1614.413,16.134,1614.413,16.134z"/>
		</defs>
		<clipPath id="SVGID_6_">
			<use xlink:href="#SVGID_5_"  overflow="visible"/>
		</clipPath>
		<path clip-path="url(#SVGID_6_)" fill="#47452B" d="M865.319,74.428"/>
		<polygon clip-path="url(#SVGID_6_)" fill="#47452B" points="1177.522,489.676 1393.914,-147.714 865.319,74.428 		"/>
		<polygon clip-path="url(#SVGID_6_)" fill="#26322C" points="1393.914,-147.714 1177.522,489.676 1820.698,339.323 		"/>
		<g clip-path="url(#SVGID_6_)">
			<g>
				<path fill="#0B132D" d="M1803.678,35.985c0.857,0,2.002-1.303,0.695-1.303C1803.516,34.683,1802.372,35.985,1803.678,35.985
					L1803.678,35.985z"/>
			</g>
		</g>
		<line clip-path="url(#SVGID_6_)" fill="#8E8239" x1="1029.242" y1="291.688" x2="865.632" y2="73.572"/>
		<path clip-path="url(#SVGID_6_)" fill="#47452B" d="M868.362,73.636"/>
		<polygon clip-path="url(#SVGID_6_)" fill="#B9B1A4" points="1180.569,488.875 1396.958,-148.512 868.362,73.636 		"/>
		<path clip-path="url(#SVGID_6_)" fill="#26322C" d="M1823.758,338.52"/>
		<polygon clip-path="url(#SVGID_6_)" fill="#6E6C67" points="1396.958,-148.512 1180.569,488.875 1823.758,338.52 		"/>
		<g clip-path="url(#SVGID_6_)">
			<g>
				<path fill="#0B132D" d="M1806.721,35.196c0.857,0,2.002-1.303,0.695-1.303C1806.559,33.893,1805.415,35.196,1806.721,35.196
					L1806.721,35.196z"/>
			</g>
		</g>
		<line clip-path="url(#SVGID_6_)" fill="#8E8239" x1="1032.285" y1="290.881" x2="868.668" y2="72.785"/>
		<polygon clip-path="url(#SVGID_6_)" fill="#DED8CE" points="1034.557,-153.249 865.264,75.322 1142.165,-41.181 		"/>
		<polygon clip-path="url(#SVGID_6_)" fill="#A9A198" points="1394.329,-146.064 1538.386,114.543 1583.128,2.318 		"/>
		<polygon clip-path="url(#SVGID_6_)" fill="#5B5655" points="1126.216,180.897 1304.678,123.209 1179.935,489.51 		"/>
		<polygon clip-path="url(#SVGID_6_)" fill="#787975" points="865.264,75.322 970.419,209.233 1124.714,181.907 		"/>
		<polygon clip-path="url(#SVGID_6_)" fill="#4A4944" points="970.419,209.233 990.803,340.063 1179.935,489.51 		"/>
		<path clip-path="url(#SVGID_6_)" fill="#32311A" d="M863.697,72.453"/>
		<path clip-path="url(#SVGID_6_)" fill="#38371F" d="M865.264,75.322"/>
		<polygon clip-path="url(#SVGID_6_)" fill="#D0C9BC" points="1820.698,339.323 1649.061,379.53 1748.293,297.264 		"/>
		<polygon clip-path="url(#SVGID_6_)" fill="#93897F" points="1724.412,-15.495 1693.495,45.634 1707.906,70.274 1789.125,-1.977 		
			"/>
		<polygon clip-path="url(#SVGID_6_)" fill="#E4E4EC" points="1671.6,-33.524 1724.412,-15.495 1693.439,46.475 1651.127,-28.617 		
			"/>
		<polygon clip-path="url(#SVGID_6_)" fill="#F4EFE0" points="1705.514,68.197 1715.09,157.289 1614.099,198.077 		"/>
		<polygon clip-path="url(#SVGID_6_)" fill="#E4E4EC" points="1715.09,157.289 1755.172,202.426 1614.425,197.926 		"/>
		<polygon clip-path="url(#SVGID_6_)" fill="#D8D7DB" points="1758.611,200.758 1749.809,296.825 1667.82,247.946 1614.099,198.077 
					"/>
		<polyline clip-path="url(#SVGID_6_)" fill="#EAE2CB" points="1583.128,2.318 1538.386,114.543 1614.099,198.077 1707.906,70.274 
			1651.127,-28.617 		"/>
		<path clip-path="url(#SVGID_6_)" fill="#26322C" d="M1782.413,325.602"/>
		<polygon clip-path="url(#SVGID_6_)" fill="#B3AE9D" points="1643.261,461.614 1712.511,293.129 1610.096,280.76 		"/>
		<polygon clip-path="url(#SVGID_6_)" fill="#ABAE9F" points="1573.056,203.411 1538.386,114.543 1304.678,123.209 		"/>
		<polygon clip-path="url(#SVGID_6_)" fill="#F4EFE0" points="1486.081,177.418 1358.46,360.247 1304.678,123.209 		"/>
		<polygon clip-path="url(#SVGID_6_)" fill="#EFE4D1" points="1493.189,415.782 1568.036,386.282 1643.261,461.614 
			1504.618,656.388 		"/>
		<polygon clip-path="url(#SVGID_6_)" fill="#555748" points="1610.709,282.032 1643.261,461.614 1568.036,386.282 		"/>
		<polygon clip-path="url(#SVGID_6_)" fill="#EAEAEA" points="1486.081,177.418 1610.709,282.032 1573.056,203.411 		"/>
		<polygon clip-path="url(#SVGID_6_)" fill="#E4E4EC" points="1358.46,360.247 1610.096,429.795 1182.74,488.272 		"/>
		<polygon clip-path="url(#SVGID_6_)" fill="#939387" points="1611.379,427.946 1610.096,280.76 1358.46,360.247 		"/>
		<polygon clip-path="url(#SVGID_6_)" fill="#47452B" points="409.581,447.649 625.972,-189.734 97.375,32.406 		"/>
		<polygon clip-path="url(#SVGID_6_)" fill="#26322C" points="625.972,-189.734 409.581,447.649 1052.766,297.303 		"/>
		<polygon clip-path="url(#SVGID_6_)" fill="#B9B1A4" points="412.634,446.846 629.02,-190.528 100.427,31.605 		"/>
		<path clip-path="url(#SVGID_6_)" fill="#26322C" d="M1055.818,296.5"/>
		<polygon clip-path="url(#SVGID_6_)" fill="#6E6C67" points="629.02,-190.528 412.634,446.846 1165.441,396.169 		"/>
		<polygon clip-path="url(#SVGID_6_)" fill="#DED8CE" points="266.62,-195.28 97.327,33.3 374.226,-83.195 		"/>
		<polygon clip-path="url(#SVGID_6_)" fill="#A9A198" points="626.385,-188.085 770.446,72.521 815.184,-39.7 		"/>
		<polygon clip-path="url(#SVGID_6_)" fill="#5B5655" points="202.485,167.204 528.41,107.188 411.987,447.487 		"/>
		<polygon clip-path="url(#SVGID_6_)" fill="#787975" points="97.327,33.3 202.485,167.204 356.773,139.89 		"/>
		<g clip-path="url(#SVGID_6_)">
			<g>
				<path fill="#5B622B" d="M431.112,151.752c0.596,0,2.098-0.902,0.804-0.902C431.32,150.85,429.818,151.752,431.112,151.752
					L431.112,151.752z"/>
			</g>
		</g>
		<polygon clip-path="url(#SVGID_6_)" fill="#4A4944" points="202.485,167.204 222.864,298.043 411.987,447.487 		"/>
		<polygon clip-path="url(#SVGID_6_)" fill="#D0C9BC" points="1163.276,393.801 944.567,251.118 980.349,255.243 		"/>
		<polygon clip-path="url(#SVGID_6_)" fill="#E4E4EC" points="903.664,-75.546 1034.557,-153.249 925.499,4.455 883.187,-70.637 		
			"/>
		<polygon clip-path="url(#SVGID_6_)" fill="#F4EFE0" points="937.578,26.183 947.142,115.254 846.162,156.058 		"/>
		<polygon clip-path="url(#SVGID_6_)" fill="#E4E4EC" points="947.882,108.212 1126.216,180.897 846.494,155.906 		"/>
		<polygon clip-path="url(#SVGID_6_)" fill="#D8D7DB" points="1126.216,180.897 981.873,254.805 899.889,205.917 846.162,156.058 		
			"/>
		<polyline clip-path="url(#SVGID_6_)" fill="#EAE2CB" points="815.184,-39.7 783.053,104.827 846.162,156.058 939.961,28.25 
			883.187,-70.637 		"/>
		<path clip-path="url(#SVGID_6_)" fill="#26322C" d="M1014.472,283.592"/>
		<polygon clip-path="url(#SVGID_6_)" fill="#B3AE9D" points="875.321,419.598 944.567,251.118 842.161,238.737 		"/>
		<polygon clip-path="url(#SVGID_6_)" fill="#ABAE9F" points="805.123,161.384 770.446,72.521 508.105,72.649 		"/>
		<polygon clip-path="url(#SVGID_6_)" fill="#F4EFE0" points="676.055,120.279 590.526,318.233 536.746,81.179 		"/>
		<polygon clip-path="url(#SVGID_6_)" fill="#555748" points="842.773,240.012 875.321,419.598 800.096,344.268 		"/>
		<polygon clip-path="url(#SVGID_6_)" fill="#EAEAEA" points="676.055,120.279 842.773,240.012 805.123,161.384 		"/>
		<polygon clip-path="url(#SVGID_6_)" fill="#E4E4EC" points="590.526,318.233 842.152,387.776 414.805,446.245 		"/>
		<polygon clip-path="url(#SVGID_6_)" fill="#939387" points="843.442,385.928 842.161,238.737 590.526,318.233 		"/>
		<path opacity="0.74" clip-path="url(#SVGID_6_)" fill="#E6E7E8" d="M-828.841-399.223
			C-993.042,76.614-438.818,699.537,409.05,992.12c847.877,292.586,1668.318,144.035,1832.525-331.796
			c164.199-475.843-390.029-1098.76-1237.894-1391.342C155.81-1023.607-664.636-875.061-828.841-399.223z"/>
	</g>
	<g clip-path="url(#SVGID_2_)">
		<defs>
			<path id="SVGID_7_" d="M224.802,1013.004c0,0,998.143,293.619,1682.062-169.257c0,0-901.25,654.851-1574.16,553.847
				C-340.203,1296.596,224.802,1013.004,224.802,1013.004z"/>
		</defs>
		<clipPath id="SVGID_8_">
			<use xlink:href="#SVGID_7_"  overflow="visible"/>
		</clipPath>
		<path clip-path="url(#SVGID_8_)" fill="#47452B" d="M973.896,1071.299"/>
		<polygon clip-path="url(#SVGID_8_)" fill="#47452B" points="661.693,1486.547 445.301,849.156 973.896,1071.299 		"/>
		<polygon clip-path="url(#SVGID_8_)" fill="#26322C" points="445.301,849.156 661.693,1486.547 18.517,1336.193 		"/>
		<g clip-path="url(#SVGID_8_)">
			<g>
				<path fill="#0B132D" d="M34.841,1032.856c0.858,0,2.002-1.303,0.696-1.303C34.679,1031.554,33.535,1032.856,34.841,1032.856
					L34.841,1032.856z"/>
			</g>
		</g>
		<line clip-path="url(#SVGID_8_)" fill="#8E8239" x1="809.973" y1="1288.559" x2="973.583" y2="1070.443"/>
		<path clip-path="url(#SVGID_8_)" fill="#47452B" d="M970.853,1070.507"/>
		<polygon clip-path="url(#SVGID_8_)" fill="#B9B1A4" points="658.646,1485.746 442.256,848.359 970.853,1070.507 		"/>
		<path clip-path="url(#SVGID_8_)" fill="#26322C" d="M15.457,1335.391"/>
		<polygon clip-path="url(#SVGID_8_)" fill="#6E6C67" points="442.256,848.359 658.646,1485.746 15.457,1335.391 		"/>
		<g clip-path="url(#SVGID_8_)">
			<g>
				<path fill="#0B132D" d="M31.798,1032.066c0.858,0,2.002-1.303,0.696-1.303C31.636,1030.764,30.492,1032.066,31.798,1032.066
					L31.798,1032.066z"/>
			</g>
		</g>
		<line clip-path="url(#SVGID_8_)" fill="#8E8239" x1="806.93" y1="1287.752" x2="970.546" y2="1069.656"/>
		<polygon clip-path="url(#SVGID_8_)" fill="#DED8CE" points="804.658,843.621 973.951,1072.192 697.05,955.689 		"/>
		<polygon clip-path="url(#SVGID_8_)" fill="#A9A198" points="444.886,850.807 300.829,1111.414 256.086,999.188 		"/>
		<polygon clip-path="url(#SVGID_8_)" fill="#5B5655" points="712.999,1177.768 534.537,1120.08 659.28,1486.381 		"/>
		<polygon clip-path="url(#SVGID_8_)" fill="#787975" points="973.951,1072.192 868.795,1206.104 714.5,1178.777 		"/>
		<polygon clip-path="url(#SVGID_8_)" fill="#4A4944" points="868.795,1206.104 848.412,1336.934 659.28,1486.381 		"/>
		<path clip-path="url(#SVGID_8_)" fill="#32311A" d="M975.517,1069.324"/>
		<path clip-path="url(#SVGID_8_)" fill="#38371F" d="M973.951,1072.192"/>
		<polygon clip-path="url(#SVGID_8_)" fill="#D0C9BC" points="18.517,1336.193 190.154,1376.4 90.921,1294.135 		"/>
		<polygon clip-path="url(#SVGID_8_)" fill="#93897F" points="114.803,981.376 145.72,1042.505 131.309,1067.145 50.09,994.895 		
			"/>
		<polygon clip-path="url(#SVGID_8_)" fill="#E4E4EC" points="167.615,963.346 114.803,981.376 145.776,1043.346 188.087,968.254 		
			"/>
		<polygon clip-path="url(#SVGID_8_)" fill="#F4EFE0" points="133.701,1065.067 124.125,1154.16 225.116,1194.947 		"/>
		<polygon clip-path="url(#SVGID_8_)" fill="#E4E4EC" points="124.125,1154.16 84.042,1199.297 224.79,1194.797 		"/>
		<polygon clip-path="url(#SVGID_8_)" fill="#D8D7DB" points="80.604,1197.629 89.406,1293.695 171.395,1244.816 225.116,1194.947 
					"/>
		<polyline clip-path="url(#SVGID_8_)" fill="#EAE2CB" points="256.086,999.188 300.829,1111.414 225.116,1194.947 
			131.309,1067.145 188.087,968.254 		"/>
		<path clip-path="url(#SVGID_8_)" fill="#26322C" d="M56.802,1322.473"/>
		<polygon clip-path="url(#SVGID_8_)" fill="#B3AE9D" points="195.954,1458.484 126.704,1290 229.119,1277.631 		"/>
		<polygon clip-path="url(#SVGID_8_)" fill="#ABAE9F" points="266.159,1200.281 300.829,1111.414 534.537,1120.08 		"/>
		<polygon clip-path="url(#SVGID_8_)" fill="#F4EFE0" points="353.134,1174.289 480.754,1357.117 534.537,1120.08 		"/>
		<polygon clip-path="url(#SVGID_8_)" fill="#EFE4D1" points="346.026,1412.652 271.179,1383.152 195.954,1458.484 
			334.597,1653.259 		"/>
		<polygon clip-path="url(#SVGID_8_)" fill="#555748" points="228.505,1278.902 195.954,1458.484 271.179,1383.152 		"/>
		<polygon clip-path="url(#SVGID_8_)" fill="#EAEAEA" points="353.134,1174.289 228.505,1278.902 266.159,1200.281 		"/>
		<polygon clip-path="url(#SVGID_8_)" fill="#E4E4EC" points="480.754,1357.117 229.119,1426.666 656.475,1485.143 		"/>
		<polygon clip-path="url(#SVGID_8_)" fill="#939387" points="227.835,1424.816 229.119,1277.631 480.754,1357.117 		"/>
		<polygon clip-path="url(#SVGID_8_)" fill="#47452B" points="1429.634,1444.52 1213.243,807.137 1741.839,1029.276 		"/>
		<polygon clip-path="url(#SVGID_8_)" fill="#26322C" points="1213.243,807.137 1429.634,1444.52 786.449,1294.174 		"/>
		<polygon clip-path="url(#SVGID_8_)" fill="#B9B1A4" points="1426.581,1443.717 1210.196,806.343 1738.788,1028.477 		"/>
		<path clip-path="url(#SVGID_8_)" fill="#26322C" d="M783.397,1293.371"/>
		<polygon clip-path="url(#SVGID_8_)" fill="#6E6C67" points="1210.196,806.343 1426.581,1443.717 673.774,1393.04 		"/>
		<polygon clip-path="url(#SVGID_8_)" fill="#DED8CE" points="1572.595,801.59 1741.888,1030.17 1464.989,913.676 		"/>
		<polygon clip-path="url(#SVGID_8_)" fill="#A9A198" points="1212.83,808.785 1068.769,1069.393 1024.031,957.17 		"/>
		<polygon clip-path="url(#SVGID_8_)" fill="#5B5655" points="1636.73,1164.074 1310.805,1104.059 1427.227,1444.357 		"/>
		<polygon clip-path="url(#SVGID_8_)" fill="#787975" points="1741.888,1030.17 1636.73,1164.074 1482.442,1136.76 		"/>
		<g clip-path="url(#SVGID_8_)">
			<g>
				<path fill="#5B622B" d="M1407.299,1148.623c0.595,0,2.098-0.902,0.803-0.902
					C1407.507,1147.721,1406.004,1148.623,1407.299,1148.623L1407.299,1148.623z"/>
			</g>
		</g>
		<polygon clip-path="url(#SVGID_8_)" fill="#4A4944" points="1636.73,1164.074 1616.351,1294.914 1427.227,1444.357 		"/>
		<polygon clip-path="url(#SVGID_8_)" fill="#D0C9BC" points="675.939,1390.672 894.648,1247.988 858.866,1252.113 		"/>
		<polygon clip-path="url(#SVGID_8_)" fill="#E4E4EC" points="935.551,921.324 804.658,843.621 913.716,1001.325 956.028,926.234 		
			"/>
		<polygon clip-path="url(#SVGID_8_)" fill="#F4EFE0" points="901.637,1023.054 892.073,1112.125 993.053,1152.928 		"/>
		<polygon clip-path="url(#SVGID_8_)" fill="#E4E4EC" points="891.333,1105.083 712.999,1177.768 992.721,1152.777 		"/>
		<polygon clip-path="url(#SVGID_8_)" fill="#D8D7DB" points="712.999,1177.768 857.342,1251.676 939.326,1202.787 
			993.053,1152.928 		"/>
		<polyline clip-path="url(#SVGID_8_)" fill="#EAE2CB" points="1024.031,957.17 1056.162,1101.697 993.053,1152.928 
			899.253,1025.12 956.028,926.234 		"/>
		<path clip-path="url(#SVGID_8_)" fill="#26322C" d="M824.743,1280.463"/>
		<polygon clip-path="url(#SVGID_8_)" fill="#B3AE9D" points="963.894,1416.469 894.648,1247.988 997.054,1235.607 		"/>
		<polygon clip-path="url(#SVGID_8_)" fill="#ABAE9F" points="1034.092,1158.254 1068.769,1069.393 1331.11,1069.52 		"/>
		<polygon clip-path="url(#SVGID_8_)" fill="#F4EFE0" points="1163.161,1117.149 1248.689,1315.104 1302.469,1078.049 		"/>
		<polygon clip-path="url(#SVGID_8_)" fill="#555748" points="996.441,1236.883 963.894,1416.469 1039.119,1341.139 		"/>
		<polygon clip-path="url(#SVGID_8_)" fill="#EAEAEA" points="1163.161,1117.149 996.441,1236.883 1034.092,1158.254 		"/>
		<polygon clip-path="url(#SVGID_8_)" fill="#E4E4EC" points="1248.689,1315.104 997.063,1384.646 1424.41,1443.115 		"/>
		<polygon clip-path="url(#SVGID_8_)" fill="#939387" points="995.773,1382.799 997.054,1235.607 1248.689,1315.104 		"/>
		<path opacity="0.74" clip-path="url(#SVGID_8_)" fill="#E6E7E8" d="M2668.056,597.648
			c164.2,475.836-390.022,1098.759-1237.892,1391.342c-847.877,292.586-1668.318,144.035-1832.525-331.796
			C-566.56,1181.352-12.332,558.435,835.533,265.852C1683.405-26.737,2503.85,121.81,2668.056,597.648z"/>
	</g>
	<polygon clip-path="url(#SVGID_2_)" fill="#0D332D" points="696.64,841.176 760.292,972.676 718.215,943.901 	"/>
</g>
<g opacity="0.74">
	<g>
		<path fill="none" stroke="#E6E7E8" stroke-width="4" stroke-miterlimit="10" d="M2190.58,61.355
			c0.086,0.141,0.172,0.282,0.257,0.423"/>
		<path fill="none" stroke="#E6E7E8" stroke-width="4" stroke-miterlimit="10" stroke-dasharray="0.9982,11.9788" d="
			M2196.175,72.486c61.577,152.672-346.541,554.399-930.069,911.499C675.488,1345.427,125.939,1526.036,27.471,1392.701"/>
		<path fill="none" stroke="#E6E7E8" stroke-width="4" stroke-miterlimit="10" d="M24.106,1387.741
			c-0.087-0.141-0.173-0.281-0.26-0.422"/>
	</g>
</g>
<g>
	<defs>
		<circle id="SVGID_9_" cx="2027.286" cy="365.917" r="174.259"/>
	</defs>
	<clipPath id="SVGID_10_">
		<use xlink:href="#SVGID_9_"  overflow="visible"/>
	</clipPath>
	<polygon clip-path="url(#SVGID_10_)" fill="#46442D" points="1927.674,345.134 1951.641,107.663 2194.986,202.888 	"/>
	<polygon clip-path="url(#SVGID_10_)" fill="#6B6331" points="1807.873,337.893 1927.674,345.134 1951.641,107.663 	"/>
	<path clip-path="url(#SVGID_10_)" fill="#47452B" d="M1866.818,630.596"/>
	<polygon clip-path="url(#SVGID_10_)" fill="#47452B" points="1927.674,345.134 2194.722,499.758 1945.269,582.654 	"/>
	<polygon clip-path="url(#SVGID_10_)" fill="#26322C" points="2194.722,499.758 1927.674,345.134 2194.986,202.888 	"/>
	<polygon clip-path="url(#SVGID_10_)" fill="#26322C" points="1945.269,582.654 2206.507,588.825 2194.722,499.758 	"/>
	<line clip-path="url(#SVGID_10_)" fill="#736D2E" x1="1807.873" y1="337.893" x2="1927.674" y2="345.134"/>
	<polygon clip-path="url(#SVGID_10_)" fill="#292F32" points="1951.641,107.663 2265.121,129.333 2194.986,202.888 	"/>
	<path clip-path="url(#SVGID_10_)" fill="#0B132D" d="M2233.327,481.993"/>
	<polygon clip-path="url(#SVGID_10_)" fill="#0B132D" points="2206.507,588.825 2194.722,499.758 2359.33,347.92 	"/>
	<g clip-path="url(#SVGID_10_)">
		<g>
			<path fill="#0B132D" d="M2280.64,313.468c0.857,0,2.002-1.303,0.695-1.303C2280.478,312.166,2279.333,313.468,2280.64,313.468
				L2280.64,313.468z"/>
		</g>
	</g>
	<polygon clip-path="url(#SVGID_10_)" fill="#0D1225" points="2194.722,499.758 2194.986,202.888 2359.33,347.92 	"/>
	<polygon clip-path="url(#SVGID_10_)" fill="#0D1321" points="2194.986,202.888 2265.121,129.333 2359.33,347.92 	"/>
	<line clip-path="url(#SVGID_10_)" fill="#8E8239" x1="1936.254" y1="458.218" x2="1945.631" y2="582.85"/>
	<polygon clip-path="url(#SVGID_10_)" fill="#B4B0A6" points="1928.97,344.488 1952.931,107.017 2196.284,202.241 	"/>
	<polygon clip-path="url(#SVGID_10_)" fill="#50514B" points="1809.177,337.251 1928.97,344.488 1952.931,107.017 	"/>
	<path clip-path="url(#SVGID_10_)" fill="#47452B" d="M1868.116,629.95"/>
	<polygon clip-path="url(#SVGID_10_)" fill="#B9B1A4" points="1928.97,344.488 2196.016,499.111 1946.568,582.007 	"/>
	<path clip-path="url(#SVGID_10_)" fill="#26322C" d="M2196.284,202.241"/>
	<polygon clip-path="url(#SVGID_10_)" fill="#6E6C67" points="2196.016,499.111 1928.717,345.162 2196.284,202.241 	"/>
	<polygon clip-path="url(#SVGID_10_)" fill="#D0C8BD" points="1946.568,582.007 2207.801,588.178 2196.016,499.111 	"/>
	<polygon clip-path="url(#SVGID_10_)" fill="#6E6C67" points="1946.568,582.007 1809.177,337.251 1928.97,344.488 	"/>
	<polygon clip-path="url(#SVGID_10_)" fill="#E1DAD0" points="1952.931,107.017 2102.322,75.524 2266.418,128.688 2196.284,202.241 
			"/>
	<path clip-path="url(#SVGID_10_)" fill="#0B132D" d="M2234.625,481.346"/>
	<polygon clip-path="url(#SVGID_10_)" fill="#B8B4AA" points="2206.507,588.825 2194.722,499.758 2359.33,347.92 	"/>
	<g clip-path="url(#SVGID_10_)">
		<g>
			<path fill="#0B132D" d="M2281.93,312.824c0.857,0,2.002-1.303,0.695-1.303C2281.768,311.521,2280.624,312.824,2281.93,312.824
				L2281.93,312.824z"/>
		</g>
	</g>
	<polygon clip-path="url(#SVGID_10_)" fill="#6E6C67" points="2196.016,499.111 2196.284,202.241 2262.265,242.361 
		2298.567,259.867 2360.624,347.27 	"/>
	<polygon clip-path="url(#SVGID_10_)" fill="#B4B1A0" points="2194.649,201.624 2266.418,128.688 2360.624,347.27 2297.645,260.051 
		2262.448,241.807 	"/>
	<line clip-path="url(#SVGID_10_)" fill="#8E8239" x1="1937.553" y1="457.567" x2="1946.92" y2="582.203"/>
	<polygon clip-path="url(#SVGID_10_)" fill="#B2A295" points="2128.833,636.853 1993.944,658.08 1996.118,587.084 	"/>
	<polygon clip-path="url(#SVGID_10_)" fill="#DED8CE" points="2072.396,610.136 1944.989,582.369 2075.702,538.98 	"/>
	<polygon clip-path="url(#SVGID_10_)" fill="#777964" points="2102.322,75.524 2194.292,202.096 2266.584,128.555 	"/>
	<polygon clip-path="url(#SVGID_10_)" fill="#A9A198" points="2195.971,498.962 2165.413,365.66 2214.722,390.874 	"/>
	<polygon clip-path="url(#SVGID_10_)" fill="#777964" points="1940.851,504.419 2002.52,467.739 2022.506,444.224 1967.402,356.666 
		1928.717,345.162 	"/>
	<polygon clip-path="url(#SVGID_10_)" fill="#787975" points="1944.989,582.369 1940.851,504.419 2002.52,467.739 	"/>
	<g clip-path="url(#SVGID_10_)">
		<g>
			<path fill="#5B622B" d="M2024.278,441.223c0.595,0,2.098-0.902,0.803-0.902C2024.486,440.32,2022.983,441.223,2024.278,441.223
				L2024.278,441.223z"/>
		</g>
	</g>
	<polygon clip-path="url(#SVGID_10_)" fill="#4A4944" points="1940.851,504.419 1908.397,453.119 1928.717,345.162 	"/>
	<path clip-path="url(#SVGID_10_)" fill="#32311A" d="M1866.858,631.771"/>
	<path clip-path="url(#SVGID_10_)" fill="#38371F" d="M1866.537,630.311"/>
	<polygon clip-path="url(#SVGID_10_)" fill="#CFCBC3" points="1945.31,583.829 1854.707,459.7 1908.397,453.119 	"/>
	<polygon clip-path="url(#SVGID_10_)" fill="#C5C4BB" points="1729.131,385.164 1776.254,507.643 1793.87,509.76 	"/>
	<polygon clip-path="url(#SVGID_10_)" fill="#33312C" points="1780.083,388.613 1729.59,386.489 1793.87,509.76 	"/>
	<polygon clip-path="url(#SVGID_10_)" fill="#31302A" points="1807.583,337.221 1860.59,208.231 1883.198,248.684 	"/>
	<polygon clip-path="url(#SVGID_10_)" fill="#313228" points="1951.569,108.701 1859.78,209.042 1883.198,248.684 	"/>
	<polygon clip-path="url(#SVGID_10_)" fill="#4E4A3F" points="2362.118,348.418 2308.058,397.205 2335.286,327.052 	"/>
	<polygon clip-path="url(#SVGID_10_)" fill="#958B82" points="2362.118,348.418 2319.414,471.292 2284.265,467.803 	"/>
	<polygon clip-path="url(#SVGID_10_)" fill="#6C625A" points="2284.265,467.803 2308.058,397.205 2362.118,348.418 	"/>
	<polygon clip-path="url(#SVGID_10_)" fill="#CCC5B6" points="2319.414,471.292 2261.92,502.929 2284.265,467.803 	"/>
	<polygon clip-path="url(#SVGID_10_)" fill="#877A71" points="2362.118,348.418 2362.143,311.227 2342.902,308.292 	"/>
	<polygon clip-path="url(#SVGID_10_)" fill="#A39D95" points="2207.284,588.911 2261.92,502.929 2319.414,471.292 	"/>
	<polygon clip-path="url(#SVGID_10_)" fill="#3E352D" points="2342.902,308.292 2337.457,254.439 2362.143,311.227 	"/>
	<polygon clip-path="url(#SVGID_10_)" fill="#9D968F" points="2266.584,128.555 2337.457,254.439 2318.222,250.699 	"/>
	<polygon clip-path="url(#SVGID_10_)" fill="#B2ADA0" points="2340.951,326.205 2301.331,306.12 2337.457,254.439 	"/>
	<polygon clip-path="url(#SVGID_10_)" fill="#D0C9BC" points="2194.986,202.888 2123.627,240.818 2182.696,239.251 	"/>
	<polygon clip-path="url(#SVGID_10_)" fill="#939387" points="2123.627,240.818 2058.586,148.26 2194.986,202.888 	"/>
	<polygon clip-path="url(#SVGID_10_)" fill="#D8D7DB" points="1952.931,107.017 2071.541,140.721 2194.986,202.888 	"/>
	<polygon clip-path="url(#SVGID_10_)" fill="#363636" points="1851.306,340.216 1937.317,266.684 1928.717,345.162 	"/>
	<polygon clip-path="url(#SVGID_10_)" fill="#777964" points="1928.717,345.162 1883.198,248.684 1953.437,105.902 	"/>
	<polygon clip-path="url(#SVGID_10_)" fill="#BCB8A7" points="2102.322,75.524 2071.541,140.721 2194.986,202.888 	"/>
	<polygon clip-path="url(#SVGID_10_)" fill="#5B5E47" points="2029.442,298.926 1953.437,105.902 1928.717,345.162 	"/>
	<path clip-path="url(#SVGID_10_)" fill="#26322C" d="M2333.172,209.009"/>
	<polygon clip-path="url(#SVGID_10_)" fill="#93897F" points="2265.161,205.241 2322.232,233.667 2298.103,260.541 	"/>
	<polygon clip-path="url(#SVGID_10_)" fill="#D5CFC1" points="2298.039,260.333 2322.028,233.682 2341.172,264.291 
		2326.535,285.625 2306.172,289.448 	"/>
	<polygon clip-path="url(#SVGID_10_)" fill="#D0C8BD" points="2306.172,289.448 2323.905,285.756 2286.958,330.168 	"/>
	<polygon clip-path="url(#SVGID_10_)" fill="#93897F" points="2268.856,354.381 2239.737,342.62 2237.276,329.77 2287.109,330.185 	
		"/>
	<polygon clip-path="url(#SVGID_10_)" fill="#E4E4EC" points="2256.072,376.549 2268.856,354.381 2239.463,342.349 
		2247.532,381.039 	"/>
	<polygon clip-path="url(#SVGID_10_)" fill="#F4EFE0" points="2237.074,331.212 2213.492,297.584 2167.542,313.818 	"/>
	<polygon clip-path="url(#SVGID_10_)" fill="#E4E4EC" points="2213.492,297.584 2213.694,269.903 2167.542,313.818 	"/>
	<polygon clip-path="url(#SVGID_10_)" fill="#B3AE9D" points="2213.165,271.458 2234.823,250.013 2215.75,215.776 2182.842,239.107 
			"/>
	<polygon clip-path="url(#SVGID_10_)" fill="#EFE4D1" points="2234.823,250.013 2262.699,242.423 2265.161,205.241 2215.75,215.776 
			"/>
	<polygon clip-path="url(#SVGID_10_)" fill="#777964" points="2297.971,260.062 2265.161,205.241 2262.699,242.423 	"/>
	<polygon clip-path="url(#SVGID_10_)" fill="#EAE2CB" points="2214.722,390.874 2165.413,365.66 2167.542,313.818 2237.276,329.77 
		2247.532,381.039 	"/>
	<polygon clip-path="url(#SVGID_10_)" fill="#EAEAEA" points="2287.109,330.185 2297.971,260.062 2306.172,289.448 	"/>
	<path clip-path="url(#SVGID_10_)" fill="#26322C" d="M2185.916,219.173"/>
	<polygon clip-path="url(#SVGID_10_)" fill="#B3AE9D" points="2109.132,220.191 2183.703,239.107 2139.905,286.394 	"/>
	<polygon clip-path="url(#SVGID_10_)" fill="#8B8377" points="2139.905,286.394 2183.353,238.943 2213.675,271.05 2167.542,313.818 
		2150.563,324.529 	"/>
	<polygon clip-path="url(#SVGID_10_)" fill="#ABAE9F" points="2150.563,324.529 2165.413,365.66 2125.583,377.885 	"/>
	<polygon clip-path="url(#SVGID_10_)" fill="#777964" points="2101.684,409.569 2063.564,395.918 2060.061,379.221 
		2125.583,377.885 	"/>
	<polygon clip-path="url(#SVGID_10_)" fill="#F4EFE0" points="2060.061,379.221 2029.171,335.179 1967.402,356.666 	"/>
	<polygon clip-path="url(#SVGID_10_)" fill="#E4E4EC" points="2029.171,335.179 2029.442,298.926 1967.606,356.604 	"/>
	<polygon clip-path="url(#SVGID_10_)" fill="#D8D7DB" points="2029.442,298.926 2001.679,229.359 1971.971,312.891 
		1967.402,356.666 	"/>
	<polygon clip-path="url(#SVGID_10_)" fill="#B3AE9D" points="2029.442,298.926 2058.899,275.351 2001.679,229.359 
		2001.679,229.359 	"/>
	<polygon clip-path="url(#SVGID_10_)" fill="#EFE4D1" points="2058.899,275.351 2093.626,262.947 2109.132,220.191 
		2001.679,229.359 	"/>
	<polygon clip-path="url(#SVGID_10_)" fill="#777964" points="2139.905,286.394 2109.132,220.191 2093.626,262.947 	"/>
	<polyline clip-path="url(#SVGID_10_)" fill="#EAE2CB" points="2002.52,467.739 1967.402,356.666 2060.061,379.221 
		2073.751,444.481 2028.635,458.451 	"/>
	<polygon clip-path="url(#SVGID_10_)" fill="#EAEAEA" points="2125.583,377.885 2139.905,286.394 2150.563,324.529 	"/>
	<polygon clip-path="url(#SVGID_10_)" fill="#ABAE9F" points="2247.532,381.039 2195.971,499.056 2214.722,390.874 	"/>
	<polygon clip-path="url(#SVGID_10_)" fill="#F4EFE0" points="2256.072,376.549 2308.641,395.124 2195.971,499.056 
		2246.725,380.629 	"/>
	<polygon clip-path="url(#SVGID_10_)" fill="#EFE4D1" points="2286.925,330.368 2326.76,350.161 2336.895,325.285 2309.807,302.618 
			"/>
	<polygon clip-path="url(#SVGID_10_)" fill="#6E6C67" points="2063.564,395.918 2002.52,467.739 2128.45,521.019 	"/>
	<polygon clip-path="url(#SVGID_10_)" fill="#E4E4EC" points="2063.564,395.918 2101.684,409.569 2128.45,521.019 	"/>
	<polygon clip-path="url(#SVGID_10_)" fill="#D8D7DB" points="2128.45,521.019 2165.413,365.66 2125.583,377.885 2101.684,409.569 	
		"/>
	<polygon clip-path="url(#SVGID_10_)" fill="#4A4944" points="2002.52,467.739 2075.702,538.98 2014.936,561.189 	"/>
</g>
</svg>
