<?xml version="1.0" encoding="utf-8"?>
<!-- Generator: Adobe Illustrator 15.0.0, SVG Export Plug-In . SVG Version: 6.00 Build 0)  -->
<!DOCTYPE svg PUBLIC "-//W3C//DTD SVG 1.1//EN" "http://www.w3.org/Graphics/SVG/1.1/DTD/svg11.dtd">
<svg version="1.1" id="Layer_1" xmlns="http://www.w3.org/2000/svg" xmlns:xlink="http://www.w3.org/1999/xlink" x="0px" y="0px"
	 width="1000px" height="1000px" viewBox="0 0 1000 1000" enable-background="new 0 0 1000 1000" xml:space="preserve">
<g>
	<defs>
		<path id="SVGID_1_" d="M1,498.502C1,223.186,224.19,0,499.505,0c275.312,0,498.501,223.186,498.501,498.502
			C998.006,773.817,774.817,997,499.505,997C224.19,997,1,773.817,1,498.502z"/>
	</defs>
	<clipPath id="SVGID_2_">
		<use xlink:href="#SVGID_1_"  overflow="visible"/>
	</clipPath>
	<polygon clip-path="url(#SVGID_2_)" fill="#6C6432" points="1046.363,600.206 812.142,554.184 701.951,1015.874 	"/>
	<path clip-path="url(#SVGID_2_)" fill="#48452C" d="M840.415,81.362"/>
	<polygon clip-path="url(#SVGID_2_)" fill="#48452C" points="812.142,554.184 326.816,178.616 840.415,81.362 	"/>
	<path clip-path="url(#SVGID_2_)" fill="#26322C" d="M247.578,763.665"/>
	<polygon clip-path="url(#SVGID_2_)" fill="#26322C" points="840.415,81.362 327.2,-0.051 326.816,178.616 	"/>
	<line clip-path="url(#SVGID_2_)" fill="#746E2E" x1="1046.363" y1="600.206" x2="812.142" y2="554.184"/>
	<path clip-path="url(#SVGID_2_)" fill="#0D152E" d="M245.99,203.421"/>
	<line clip-path="url(#SVGID_2_)" fill="#8F8239" x1="825.234" y1="329.016" x2="839.759" y2="80.872"/>
	<polygon clip-path="url(#SVGID_2_)" fill="#90754E" points="807.943,555.836 661.068,1036.894 500.718,906.017 398.106,707.738 	
		"/>
	<polygon clip-path="url(#SVGID_2_)" fill="#292013" points="947.495,578.962 809.436,555.087 699.25,1016.775 874.263,756.553 	"/>
	<path clip-path="url(#SVGID_2_)" fill="#48452C" d="M837.713,82.301"/>
	<polygon clip-path="url(#SVGID_2_)" fill="#6D532A" points="809.293,554.061 323.926,178.527 837.567,81.273 	"/>
	<path clip-path="url(#SVGID_2_)" fill="#26322C" d="M244.87,764.605"/>
	<polygon clip-path="url(#SVGID_2_)" fill="#C3A481" points="323.926,178.527 552.232,354.414 810.435,556.544 398.106,707.738 
		245.871,766.064 	"/>
	<polygon clip-path="url(#SVGID_2_)" fill="#987137" points="838.031,81.273 325.929,-1.497 324.392,178.527 	"/>
	<polygon clip-path="url(#SVGID_2_)" fill="#101714" points="878.536,346.367 947.005,579.17 809.352,555.249 	"/>
	<polygon clip-path="url(#SVGID_2_)" fill="#6B4C1F" points="699.25,1016.775 396.453,1039.263 87.134,890.97 244.87,764.605 	"/>
	<path clip-path="url(#SVGID_2_)" fill="#0D152E" d="M243.288,204.326"/>
	<polygon clip-path="url(#SVGID_2_)" fill="#8B6327" points="326.449,13.032 324.392,178.527 179.001,279.805 142.073,217.972 
		302.505,27.104 	"/>
	<polygon clip-path="url(#SVGID_2_)" fill="#E3C498" points="323.926,178.527 245.942,765.994 -40.464,435.223 76.321,350.589 	"/>
	<polygon clip-path="url(#SVGID_2_)" fill="#B28B5D" points="246.06,765.968 87.134,890.97 -39.226,431.167 	"/>
	<line clip-path="url(#SVGID_2_)" fill="#8F8239" x1="822.495" y1="329.962" x2="837.061" y2="81.821"/>
	<polygon clip-path="url(#SVGID_2_)" fill="#684B1E" points="325.661,-0.413 597.173,-6.513 570.313,131.963 	"/>
	<polygon clip-path="url(#SVGID_2_)" fill="#3E3121" points="597.173,-6.513 840.914,82.02 570.313,131.963 	"/>
	<polygon clip-path="url(#SVGID_2_)" fill="#8F6C29" points="396.453,1039.263 245.882,765.938 86.782,891.203 	"/>
	<polyline clip-path="url(#SVGID_2_)" fill="#492D1E" points="245.942,765.994 323.926,178.527 346.65,449.072 	"/>
	<polygon clip-path="url(#SVGID_2_)" fill="#503A1B" points="828.403,236.75 550.423,355.227 809.422,555.109 	"/>
	<polygon clip-path="url(#SVGID_2_)" fill="#59452C" points="840.914,82.02 828.403,236.75 696.626,292.914 	"/>
	<polygon clip-path="url(#SVGID_2_)" fill="#583F1B" points="696.626,292.914 570.313,131.963 840.987,82.299 	"/>
	<polygon clip-path="url(#SVGID_2_)" fill="#7F6947" points="696.626,292.914 720.109,322.381 828.403,236.75 	"/>
	<polygon clip-path="url(#SVGID_2_)" fill="#503919" points="720.109,322.381 809.493,555.041 828.403,236.75 	"/>
	<polygon clip-path="url(#SVGID_2_)" fill="#9D815E" points="720.109,322.381 640.564,424.369 696.626,292.914 	"/>
	<polygon clip-path="url(#SVGID_2_)" fill="#795B25" points="720.109,322.381 640.564,424.369 778.411,473.068 	"/>
	<path clip-path="url(#SVGID_2_)" fill="#33321B" d="M840.65,79.048"/>
	<path clip-path="url(#SVGID_2_)" fill="#393720" d="M840.914,82.02"/>
	<polygon clip-path="url(#SVGID_2_)" fill="#634E37" points="828.178,236.658 840.688,81.928 878.536,346.367 	"/>
	<polygon clip-path="url(#SVGID_2_)" fill="#39281C" points="840.548,80.879 986.263,349.54 878.536,346.367 	"/>
	<polygon clip-path="url(#SVGID_2_)" fill="#2B3A35" points="1046.583,601.579 986.177,347.679 951.972,338.838 	"/>
	<polygon clip-path="url(#SVGID_2_)" fill="#2D2012" points="878.536,346.367 952.163,338.866 947.005,579.17 	"/>
	<polygon clip-path="url(#SVGID_2_)" fill="#0F1E17" points="946.534,581.453 1048.234,601.318 952.108,338.908 	"/>
	<polygon clip-path="url(#SVGID_2_)" fill="#0F1813" points="1046.773,601.609 908.089,841.785 874.266,756.06 	"/>
	<polygon clip-path="url(#SVGID_2_)" fill="#4A3A24" points="697.159,1017.868 908.257,841.886 874.399,755.853 	"/>
	<polygon clip-path="url(#SVGID_2_)" fill="#46301E" points="-43.225,432.558 76.321,350.589 3.96,481.797 	"/>
	<polygon clip-path="url(#SVGID_2_)" fill="#634E37" points="-43.225,432.558 73.497,201.688 142.073,217.972 	"/>
	<polygon clip-path="url(#SVGID_2_)" fill="#664229" points="142.073,217.972 141.022,223.219 76.321,350.589 -43.545,432.81 	"/>
	<polygon clip-path="url(#SVGID_2_)" fill="#483422" points="73.245,201.675 195.678,154.993 142.073,218.043 	"/>
	<polygon clip-path="url(#SVGID_2_)" fill="#4A3418" points="142.073,217.972 181.812,277.284 76.321,350.589 	"/>
	<polygon clip-path="url(#SVGID_2_)" fill="#B29C7F" points="-43.225,432.558 -53.152,505.816 -16.012,516.727 	"/>
	<polygon clip-path="url(#SVGID_2_)" fill="#A76534" points="3.96,481.797 -16.012,516.727 -43.225,432.558 	"/>
	<polygon clip-path="url(#SVGID_2_)" fill="#8D5E3B" points="304.405,24.831 195.678,154.993 73.497,201.688 	"/>
	<polygon clip-path="url(#SVGID_2_)" fill="#6D461C" points="-16.012,516.727 -19.565,624.294 -53.152,505.816 	"/>
	<polygon clip-path="url(#SVGID_2_)" fill="#ED9D54" points="86.782,891.203 -19.565,624.294 17.403,636.771 	"/>
	<polygon clip-path="url(#SVGID_2_)" fill="#CBA67B" points="-16.012,516.727 87.006,579.312 -19.565,624.294 	"/>
	<polygon clip-path="url(#SVGID_2_)" fill="#624429" points="17.403,636.771 87.006,579.312 -19.565,624.294 	"/>
	<polygon clip-path="url(#SVGID_2_)" fill="#B28B51" points="76.276,350.701 87.006,579.312 3.96,481.797 	"/>
	<polygon clip-path="url(#SVGID_2_)" fill="#946B37" points="3.96,481.797 -16.012,516.727 87.006,579.312 	"/>
	<polygon clip-path="url(#SVGID_2_)" fill="#936C30" points="398.291,707.836 501.941,907.514 245.882,765.938 	"/>
	<polygon clip-path="url(#SVGID_2_)" fill="#A17E52" points="698.935,1014.974 474.097,917.13 245.965,765.968 	"/>
	<polygon clip-path="url(#SVGID_2_)" fill="#422F19" points="946.936,578.962 773.233,705.09 809.422,554.969 	"/>
	<polygon clip-path="url(#SVGID_2_)" fill="#030303" points="874.266,756.06 946.779,578.922 1048.285,601.134 	"/>
	<polygon clip-path="url(#SVGID_2_)" fill="#241C12" points="809.703,553.921 799.42,759.682 697.981,1018.875 	"/>
	<polyline clip-path="url(#SVGID_2_)" fill="#24130D" points="799.489,760.915 874.266,756.06 803.301,683.338 799.42,759.682 	"/>
	<polygon clip-path="url(#SVGID_2_)" fill="#9A7A49" points="394.815,1041.598 474.383,917.216 245.942,765.994 	"/>
	<polygon clip-path="url(#SVGID_2_)" fill="#A98A64" points="346.65,449.072 809.563,555.109 552.232,354.414 	"/>
	<polyline clip-path="url(#SVGID_2_)" fill="#946E34" points="346.65,449.072 398.106,707.738 268.701,693.667 346.65,449.072 	"/>
	<polygon clip-path="url(#SVGID_2_)" fill="#503318" points="592.058,636.622 697.981,1018.875 809.436,555.087 	"/>
	<polygon clip-path="url(#SVGID_2_)" fill="#21150D" points="828.378,236.647 878.736,346.532 809.422,555.041 	"/>
</g>
</svg>
