<?xml version="1.0" encoding="utf-8"?>
<!-- Generator: Adobe Illustrator 15.0.0, SVG Export Plug-In . SVG Version: 6.00 Build 0)  -->
<!DOCTYPE svg PUBLIC "-//W3C//DTD SVG 1.1//EN" "http://www.w3.org/Graphics/SVG/1.1/DTD/svg11.dtd">
<svg version="1.1" id="Layer_1" xmlns="http://www.w3.org/2000/svg" xmlns:xlink="http://www.w3.org/1999/xlink" x="0px" y="0px"
	 width="2269.519px" height="1670.929px" viewBox="-736.985 -227.425 2269.519 1670.929"
	 enable-background="new -736.985 -227.425 2269.519 1670.929" xml:space="preserve">
<circle fill="#7E7165" cx="-399.168" cy="713.588" r="8.701"/>
<circle fill="#7E7165" cx="1204.125" cy="322.148" r="8.701"/>
<circle fill="#7E7165" cx="1523.832" cy="61.425" r="8.701"/>
<circle fill="#7E7165" cx="-728.284" cy="1171.397" r="8.701"/>
<circle fill="#7E7165" cx="719.505" cy="-67.267" r="8.702"/>
<circle fill="#7E7165" cx="580.089" cy="-210.023" r="17.401"/>
<circle fill="#7E7165" cx="1330.794" cy="562.131" r="17.402"/>
<circle fill="#7E7165" cx="557.325" cy="1121.113" r="17.402"/>
<circle fill="#7E7165" cx="-288.585" cy="558.084" r="32.833"/>
<circle fill="#7E7165" cx="1454.123" cy="622.431" r="32.832"/>
<circle fill="#7E7165" cx="412.297" cy="64.499" r="32.832"/>
<circle fill="#7E7165" cx="167.2" cy="1410.671" r="32.833"/>
<path fill="#47452B" d="M291.628,1207.262"/>
<path fill="#47452B" d="M294.728,1209.249"/>
<path fill="#32311A" d="M289.09,1208.88"/>
<path fill="#38371F" d="M291.907,1206.27"/>
<g>
	<defs>
		<path id="SVGID_1_" d="M878.854,826.231c-181.2,208.249-496.909,230.178-705.164,48.974
			c-208.246-181.201-230.173-496.909-48.968-705.16C305.925-38.206,621.634-60.13,829.881,121.071
			C1038.129,302.275,1060.06,617.983,878.854,826.231z"/>
	</defs>
	<clipPath id="SVGID_2_">
		<use xlink:href="#SVGID_1_"  overflow="visible"/>
	</clipPath>
	<polygon clip-path="url(#SVGID_2_)" fill="#46442D" points="765.35,705.698 414.161,1035.589 169.747,568.109 	"/>
	<polygon clip-path="url(#SVGID_2_)" fill="#6B6331" points="938.186,875.469 765.35,705.698 414.161,1035.589 	"/>
	<polygon clip-path="url(#SVGID_2_)" fill="#47452B" points="765.35,705.698 563.556,116.346 1053.287,320.66 	"/>
	<path clip-path="url(#SVGID_2_)" fill="#26322C" d="M169.747,568.109"/>
	<polygon clip-path="url(#SVGID_2_)" fill="#26322C" points="563.556,116.346 765.35,705.698 169.747,568.109 	"/>
	<polygon clip-path="url(#SVGID_2_)" fill="#26322C" points="1053.287,320.66 663.626,-34.921 563.556,116.346 	"/>
	<line clip-path="url(#SVGID_2_)" fill="#736D2E" x1="938.186" y1="875.469" x2="765.35" y2="705.698"/>
	<polygon clip-path="url(#SVGID_2_)" fill="#292F32" points="414.161,1035.589 -34.522,587.186 169.747,568.109 	"/>
	<path clip-path="url(#SVGID_2_)" fill="#0B132D" d="M481.202,92.253"/>
	<polygon clip-path="url(#SVGID_2_)" fill="#0B132D" points="663.626,-34.921 563.556,116.346 111.657,129.473 	"/>
	<g clip-path="url(#SVGID_2_)">
		<g>
			<path fill="#0B132D" d="M184.102,287.374c0.84,0,2.01-1.275,0.703-1.275C183.965,286.099,182.795,287.374,184.102,287.374
				L184.102,287.374z"/>
		</g>
	</g>
	<polygon clip-path="url(#SVGID_2_)" fill="#0D1225" points="563.556,116.346 169.747,568.109 111.657,129.473 	"/>
	<polygon clip-path="url(#SVGID_2_)" fill="#0D1321" points="169.747,568.109 -34.522,587.186 111.657,129.473 	"/>
	<line clip-path="url(#SVGID_2_)" fill="#8E8239" x1="902.11" y1="522.11" x2="1053.001" y2="319.872"/>
	<polygon clip-path="url(#SVGID_2_)" fill="#D0A772" points="762.524,704.965 411.336,1034.855 166.92,567.377 	"/>
	<polygon clip-path="url(#SVGID_2_)" fill="#BD997D" points="935.353,874.74 762.524,704.965 411.336,1034.855 	"/>
	<polygon clip-path="url(#SVGID_2_)" fill="#E4B462" points="762.524,704.965 560.729,115.615 1050.461,319.926 	"/>
	<path clip-path="url(#SVGID_2_)" fill="#26322C" d="M166.92,567.377"/>
	<polygon clip-path="url(#SVGID_2_)" fill="#D3A45C" points="560.729,115.615 762.524,704.965 166.92,567.377 	"/>
	<polygon clip-path="url(#SVGID_2_)" fill="#AA875B" points="1050.461,319.926 660.793,-35.651 560.729,115.615 	"/>
	<polygon clip-path="url(#SVGID_2_)" fill="#D1A571" points="1050.461,319.926 935.353,874.74 762.524,704.965 	"/>
	<polygon clip-path="url(#SVGID_2_)" fill="#DAAF61" points="411.336,1034.855 142.103,884.864 -37.354,586.453 166.92,567.377 	"/>
	<path clip-path="url(#SVGID_2_)" fill="#0B132D" d="M478.38,91.52"/>
	<polygon clip-path="url(#SVGID_2_)" fill="#C39A60" points="670.833,-42.167 560.729,115.615 108.831,128.739 	"/>
	<g clip-path="url(#SVGID_2_)">
		<g>
			<path fill="#0B132D" d="M181.269,286.627c0.813,0,2.022-1.234,0.715-1.234C181.171,285.393,179.962,286.627,181.269,286.627
				L181.269,286.627z"/>
		</g>
	</g>
	<polygon clip-path="url(#SVGID_2_)" fill="#E0B463" points="560.729,115.615 166.92,567.377 108.831,128.739 255.062,122.341 	"/>
	<polygon clip-path="url(#SVGID_2_)" fill="#ECBC68" points="166.92,567.377 -37.354,586.453 108.831,128.739 136.66,321.43 	"/>
	<line clip-path="url(#SVGID_2_)" fill="#8E8239" x1="899.283" y1="521.379" x2="1050.175" y2="319.14"/>
	<polygon clip-path="url(#SVGID_2_)" fill="#634647" points="662.556,-36.082 896.108,110.344 798.248,214.706 	"/>
	<polygon clip-path="url(#SVGID_2_)" fill="#A17D55" points="896.108,110.344 1053.34,321.473 798.248,214.706 	"/>
	<polygon clip-path="url(#SVGID_2_)" fill="#A1826A" points="142.103,884.864 166.92,567.377 -37.772,586.437 	"/>
	<polygon clip-path="url(#SVGID_2_)" fill="#CFA467" points="560.729,115.615 428.031,357.148 166.92,567.377 	"/>
	<polygon clip-path="url(#SVGID_2_)" fill="#CD9F5F" points="956.338,445.657 654.553,390.912 762.524,704.965 	"/>
	<polygon clip-path="url(#SVGID_2_)" fill="#CCA26C" points="1053.34,321.473 956.338,445.657 813.486,420.744 	"/>
	<polygon clip-path="url(#SVGID_2_)" fill="#D7AA5D" points="813.486,420.744 836.316,230.599 1053.34,321.473 	"/>
	<polygon clip-path="url(#SVGID_2_)" fill="#D7AA5D" points="813.486,420.744 816.715,457.779 956.338,445.657 	"/>
	<polygon clip-path="url(#SVGID_2_)" fill="#D1A571" points="816.715,457.779 762.524,704.965 956.338,445.657 	"/>
	<polygon clip-path="url(#SVGID_2_)" fill="#F2BE64" points="816.715,457.779 692.331,499.852 813.486,420.744 	"/>
	<polygon clip-path="url(#SVGID_2_)" fill="#DEB15A" points="816.715,457.779 692.331,499.852 782.004,618.074 	"/>
	<g clip-path="url(#SVGID_2_)">
		<g>
			<path fill="#5B622B" d="M743.939,431.95c0.596,0,2.098-0.902,0.803-0.902C744.146,431.047,742.645,431.95,743.939,431.95
				L743.939,431.95z"/>
		</g>
	</g>
	<polygon clip-path="url(#SVGID_2_)" fill="#BD997D" points="956.338,445.657 937.793,566.791 762.524,704.965 	"/>
	<polygon clip-path="url(#SVGID_2_)" fill="#917867" points="956.338,445.657 1053.34,321.473 937.793,566.791 	"/>
	<polygon clip-path="url(#SVGID_2_)" fill="#AF8D74" points="1054.777,318.825 1028.292,627.923 937.793,566.791 	"/>
	<polygon clip-path="url(#SVGID_2_)" fill="#96766C" points="937.753,876.888 1028.292,627.923 1004.261,601.343 	"/>
	<polygon clip-path="url(#SVGID_2_)" fill="#C7A17C" points="937.793,566.791 1004.261,601.343 864.718,804.112 	"/>
	<polygon clip-path="url(#SVGID_2_)" fill="#B89477" points="864.718,804.112 938.791,874.255 1004.261,601.343 	"/>
	<polygon clip-path="url(#SVGID_2_)" fill="#917867" points="937.753,876.888 686.099,1003.076 705.281,911.523 	"/>
	<polygon clip-path="url(#SVGID_2_)" fill="#B3927A" points="415.649,1034.105 688.395,1002.923 705.281,911.523 	"/>
	<polygon clip-path="url(#SVGID_2_)" fill="#5E5049" points="108.08,125.009 255.062,122.341 120.615,193.106 	"/>
	<polygon clip-path="url(#SVGID_2_)" fill="#3E3035" points="108.08,125.009 335.919,-5.524 384.831,46.349 	"/>
	<polygon clip-path="url(#SVGID_2_)" fill="#846F61" points="384.831,46.349 255.062,122.341 108.08,125.009 	"/>
	<polygon clip-path="url(#SVGID_2_)" fill="#8F715D" points="335.919,-5.524 465.409,22.469 384.831,46.349 	"/>
	<polygon clip-path="url(#SVGID_2_)" fill="#C9A06C" points="384.831,46.349 382.917,120.779 255.062,122.341 	"/>
	<polygon clip-path="url(#SVGID_2_)" fill="#393131" points="108.08,125.009 58.744,181.612 84.167,211.568 	"/>
	<polygon clip-path="url(#SVGID_2_)" fill="#917862" points="120.615,193.106 84.167,211.568 108.08,125.009 	"/>
	<polygon clip-path="url(#SVGID_2_)" fill="#795C50" points="662.556,-36.082 465.409,22.469 335.919,-5.524 	"/>
	<polygon clip-path="url(#SVGID_2_)" fill="#4C4142" points="84.167,211.568 21.092,300.807 58.744,181.612 	"/>
	<polygon clip-path="url(#SVGID_2_)" fill="#EC9C54" points="-37.772,586.437 21.092,300.807 45.445,331.999 	"/>
	<polygon clip-path="url(#SVGID_2_)" fill="#846F61" points="84.167,211.568 136.66,321.43 21.092,300.807 	"/>
	<polygon clip-path="url(#SVGID_2_)" fill="#BF9C72" points="45.445,331.999 136.66,321.43 21.092,300.807 	"/>
	<polygon clip-path="url(#SVGID_2_)" fill="#B39065" points="255.062,122.341 136.66,321.43 120.615,193.106 	"/>
	<polygon clip-path="url(#SVGID_2_)" fill="#6D5B52" points="120.615,193.106 84.167,211.568 136.66,321.43 	"/>
	<g clip-path="url(#SVGID_2_)">
		<g>
			<path fill="#6A6230" d="M25.557,81.642c0.677,0,2.073-1.027,0.77-1.027C25.649,80.614,24.253,81.642,25.557,81.642L25.557,81.642
				z"/>
		</g>
	</g>
	<polygon clip-path="url(#SVGID_2_)" fill="#FFCB70" points="166.92,567.377 328.699,604.903 226.354,519.525 	"/>
	<polygon clip-path="url(#SVGID_2_)" fill="#D0A772" points="328.699,604.903 305.084,832.049 166.92,567.377 	"/>
	<polygon clip-path="url(#SVGID_2_)" fill="#A1826A" points="411.336,1034.855 275.389,826.365 166.92,567.377 	"/>
	<polygon clip-path="url(#SVGID_2_)" fill="#D2A878" points="864.119,803.52 648.1,811.94 762.524,704.965 	"/>
	<polygon clip-path="url(#SVGID_2_)" fill="#A98770" points="705.281,911.523 864.718,804.112 943.667,876.669 	"/>
	<polygon clip-path="url(#SVGID_2_)" fill="#B89477" points="762.524,704.965 639.834,872.822 409.094,1035.889 	"/>
	<polyline clip-path="url(#SVGID_2_)" fill="#917867" points="639.195,873.91 705.281,911.523 685.668,810.247 639.834,872.822 	"/>
	<polygon clip-path="url(#SVGID_2_)" fill="#CFA467" points="142.103,884.864 275.389,826.365 166.92,567.377 	"/>
	<polygon clip-path="url(#SVGID_2_)" fill="#F7C663" points="428.031,357.148 762.524,704.965 654.553,390.912 	"/>
	<polyline clip-path="url(#SVGID_2_)" fill="#C59B63" points="431.223,358.75 328.699,604.903 226.822,520.725 428.031,357.148 	"/>
	<polygon clip-path="url(#SVGID_2_)" fill="#ECBC68" points="536.165,652.638 409.094,1035.889 762.524,704.965 	"/>
	<path opacity="0.66" clip-path="url(#SVGID_2_)" fill="#C59857" d="M203.201,852.619c0,0,788.503-360.97,903.706-798.742
		l171.525,499.214c0,0-302.088,373.769-1047.069,412.172C-513.619,1003.663,203.201,852.619,203.201,852.619z"/>
	<path opacity="0.19" clip-path="url(#SVGID_2_)" fill="#2B221D" d="M965.954,179.458l20.902,14.503
		c0,0-423.676,561.772-977.405,691.825c-555.088,130.371,57.264-34.135,57.264-34.135S642.371,615.67,965.954,179.458z"/>
</g>
<g>
	<path fill="#B3927A" d="M30.76,669.224c-4.108-10.873-7.844-21.927-11.191-33.146c-74.954,65.354-142.143,128.441-198.921,187.046
		c-130.129,134.313-193.38,234.15-169.211,267.064c6.22,8.468,18.948,12.761,37.827,12.761
		c130.519,0,501.874-203.156,882.997-483.059c221.127-162.401,418.258-329.616,555.082-470.842
		c130.126-134.314,193.381-234.151,169.21-267.063c-6.222-8.469-18.949-12.761-37.828-12.761
		c-82.459,0-261.061,81.109-477.505,211.408c12.409,8.188,24.435,16.898,36.033,26.112
		C960.726,31.639,1062.768,0.15,1085.404,31.281l6.128,4.281c41.915,57.631-204.11,307.962-549.491,559.137
		C196.647,845.867-117.321,1002.765-159.234,945.13l-6.119-4.282C-190.573,906.163-111.483,801.673,30.76,669.224z"/>
	<path fill="#9E8075" d="M1415.542-194.265l-9.184-6.416c-46.292-63.664-314.094,47.345-658.984,260.84
		c6.065,3.351,12.075,6.785,17.983,10.375c223.11-135.12,406.051-217.788,493.366-217.788c24.414,0,41.61,6.556,51.108,19.485
		c38.714,52.716-71.438,185.865-170.655,288.281c-137.445,141.868-335.315,309.729-557.163,472.656
		c-389.836,286.301-756.947,486.258-892.75,486.258c-24.415,0-41.609-6.558-51.106-19.485
		c-38.716-52.717,71.434-185.867,170.656-288.282c58.577-60.462,128.161-125.656,205.87-193.165
		c-2.083-8.063-3.974-16.201-5.654-24.416c-324.84,271.902-524.892,503.067-477.31,568.504l9.171,6.416
		c62.823,86.386,533.394-148.774,1051.07-525.227C1109.624,267.312,1478.361-107.887,1415.542-194.265z"/>
</g>
<g>
	<path fill="#392B22" d="M753.598,64.998c66.55-41.277,134.013-81.126,202.854-118.494c34.425-18.67,69.185-36.736,104.394-53.897
		c35.215-17.142,70.864-33.438,107.216-48.066c18.176-7.306,36.525-14.2,55.111-20.421c18.586-6.205,37.407-11.783,56.56-16.05
		c9.575-2.124,19.236-3.912,28.983-5.133c9.743-1.212,19.59-1.879,29.441-1.436c4.923,0.234,9.846,0.755,14.698,1.732
		c4.848,0.979,9.637,2.421,14.137,4.577c4.492,2.146,8.687,5.055,12.065,8.783c3.404,3.732,5.892,8.192,7.407,12.978
		c1.513,4.78,2.1,9.792,2.078,14.752c-0.018,4.969-0.635,9.902-1.583,14.746c-1.927,9.696-5.19,19.039-9.001,28.093
		c-7.704,18.103-17.592,35.137-28.189,51.622c-10.642,16.474-22.129,32.375-34.061,47.917
		c-11.939,15.539-24.346,30.711-37.046,45.625c-25.427,29.812-52.046,58.575-79.284,86.719
		c-27.254,28.131-55.171,55.611-83.541,82.608c-28.372,26.997-57.203,53.505-86.381,79.624
		c-29.171,26.127-58.675,51.88-88.478,77.281C821.705,460.095,698.292,556.729,571.751,649.044
		c-63.262,46.173-127.32,91.258-192.213,135.114c-64.896,43.851-130.621,86.488-197.35,127.509
		c-66.732,41.008-134.415,80.509-203.454,117.538c-34.521,18.507-69.404,36.354-104.75,53.248
		c-35.354,16.87-71.162,32.843-107.696,47.04c-18.27,7.084-36.727,13.711-55.437,19.578c-18.713,5.836-37.681,10.98-57.007,14.507
		c-9.661,1.745-19.414,3.088-29.243,3.662c-9.816,0.556-19.753,0.405-29.507-1.425c-4.865-0.928-9.681-2.302-14.23-4.378
		c-4.537-2.074-8.804-4.892-12.292-8.538c-3.498-3.631-6.145-8.065-7.762-12.819c-1.629-4.757-2.311-9.773-2.355-14.741
		c-0.065-9.972,2.149-19.731,5.136-29.095c3.027-9.378,6.933-18.427,11.264-27.237c8.706-17.615,19.076-34.319,30.081-50.535
		c11.033-16.207,22.79-31.9,34.941-47.269c12.16-15.363,24.735-30.391,37.583-45.175c25.711-29.56,52.496-58.162,79.888-86.154
		c27.403-27.984,55.437-55.342,83.904-82.234c56.953-53.773,115.698-105.614,175.477-156.203l0.13,0.152
		c-59.613,50.781-118.09,102.907-174.927,156.768c-28.407,26.94-56.378,54.345-83.712,82.369
		c-27.324,28.031-54.036,56.669-79.665,86.251c-12.807,14.796-25.338,29.831-37.45,45.195
		c-12.103,15.368-23.807,31.058-34.779,47.242c-10.943,16.192-21.245,32.862-29.86,50.383c-4.285,8.762-8.141,17.746-11.111,27.013
		c-2.933,9.248-5.076,18.854-4.99,28.509c0.052,4.81,0.723,9.618,2.278,14.131c1.546,4.509,4.044,8.67,7.349,12.089
		c3.295,3.432,7.344,6.103,11.703,8.086c4.368,1.981,9.031,3.321,13.776,4.223c9.513,1.783,19.31,1.938,29.015,1.383
		c9.72-0.57,19.399-1.904,28.999-3.643c19.206-3.51,38.104-8.64,56.758-14.466c18.653-5.855,37.067-12.474,55.302-19.551
		c36.463-14.184,72.223-30.148,107.536-47.014c35.305-16.893,70.15-34.741,104.673-53.189
		c69.025-36.945,136.711-76.369,203.453-117.303c133.423-81.992,263.215-169.843,389.903-261.905
		c63.322-46.068,125.86-93.218,187.5-141.516c61.64-48.297,122.398-97.729,181.923-148.613
		c59.546-50.853,117.943-103.071,174.54-157.184c28.293-27.06,56.133-54.595,83.304-82.775
		c27.163-28.185,53.668-57.013,79.028-86.821c12.674-14.907,25.051-30.067,36.957-45.587c11.898-15.523,23.349-31.398,33.943-47.827
		c10.551-16.437,20.382-33.413,28.008-51.372c3.765-8.981,6.999-18.221,8.901-27.742c0.936-4.756,1.541-9.582,1.562-14.408
		c0.025-4.818-0.542-9.647-1.982-14.213c-1.427-4.547-3.824-8.832-7.022-12.338c-3.202-3.54-7.196-6.324-11.524-8.397
		c-4.334-2.081-8.989-3.493-13.729-4.454c-4.745-0.96-9.585-1.479-14.438-1.714c-9.716-0.447-19.478,0.203-29.154,1.397
		c-9.683,1.204-19.297,2.973-28.835,5.08c-19.078,4.232-37.857,9.777-56.412,15.952c-18.553,6.191-36.882,13.057-55.042,20.337
		c-36.312,14.596-71.979,30.776-107.211,47.83c-35.228,17.069-70.015,35.048-104.472,53.632
		c-68.9,37.205-136.555,76.7-203.248,117.742L753.598,64.998z"/>
</g>
<path fill="none" stroke="#6D5B52" stroke-width="8" stroke-miterlimit="10" d="M811.503,99.612
	C987.298,3.2,1114.328-39.831,1140.791-3.492c45.412,62.36-222.53,334.845-598.465,608.608
	c-375.935,273.766-717.507,445.141-762.919,382.78c-29.565-40.602,73.693-170.269,253.103-331.369"/>
<path fill="none" stroke="#6D5B52" stroke-width="3" stroke-miterlimit="10" d="M790.398,88.19
	c246.456-145.763,430.483-217.725,464.256-171.35c50.887,69.878-258.653,381.979-691.375,697.098
	c-432.723,315.117-824.766,513.922-875.652,444.044c-35.514-48.77,104.528-215.521,339.479-418.938"/>
</svg>
