<?xml version="1.0" encoding="utf-8"?>
<!-- Generator: Adobe Illustrator 15.0.0, SVG Export Plug-In . SVG Version: 6.00 Build 0)  -->
<!DOCTYPE svg PUBLIC "-//W3C//DTD SVG 1.1//EN" "http://www.w3.org/Graphics/SVG/1.1/DTD/svg11.dtd">
<svg version="1.1" id="Layer_1" xmlns="http://www.w3.org/2000/svg" xmlns:xlink="http://www.w3.org/1999/xlink" x="0px" y="0px"
	 width="2000px" height="2000px" viewBox="0 0 2000 2000" enable-background="new 0 0 2000 2000" xml:space="preserve">
<g>
	<g>
		<defs>
			<circle id="SVGID_1_" cx="1000" cy="1000" r="1000"/>
		</defs>
		<clipPath id="SVGID_2_">
			<use xlink:href="#SVGID_1_"  overflow="visible"/>
		</clipPath>
		<g clip-path="url(#SVGID_2_)">
			<g>
				<g>
					<defs>
						<path id="SVGID_3_" d="M302.821,293.338c391.184-391.185,1025.416-391.18,1416.596,0.001
							c391.178,391.179,391.184,1025.411,0,1416.595c-391.181,391.18-1025.41,391.172-1416.588-0.007
							C-88.352,1318.747-88.36,684.518,302.821,293.338z"/>
					</defs>
					<clipPath id="SVGID_4_">
						<use xlink:href="#SVGID_3_"  overflow="visible"/>
					</clipPath>
					<polygon clip-path="url(#SVGID_4_)" fill="#6C6432" points="1728.623,2060.486 1425.279,1608.791 503.526,2175.337 					"/>
				</g>
				<g>
					<g>
						<defs>
							<path id="SVGID_5_" d="M207.631,211.645c443.756-443.756,1163.224-443.75,1606.976,0.002
								c443.75,443.75,443.755,1163.217,0,1606.973c-443.752,443.751-1163.217,443.743-1606.966-0.007
								C-236.111,1374.861-236.121,655.396,207.631,211.645z"/>
						</defs>
						<clipPath id="SVGID_6_">
							<use xlink:href="#SVGID_5_"  overflow="visible"/>
						</clipPath>
						<path clip-path="url(#SVGID_6_)" fill="#48452C" d="M2232.947,892.265"/>
					</g>
					<g>
						<defs>
							<path id="SVGID_7_" d="M207.631,211.645c443.756-443.756,1163.224-443.75,1606.976,0.002
								c443.75,443.75,443.755,1163.217,0,1606.973c-443.752,443.751-1163.217,443.743-1606.966-0.007
								C-236.111,1374.861-236.121,655.396,207.631,211.645z"/>
						</defs>
						<clipPath id="SVGID_8_">
							<use xlink:href="#SVGID_7_"  overflow="visible"/>
						</clipPath>
						<polygon clip-path="url(#SVGID_8_)" fill="#48452C" points="1425.279,1608.791 1248.375,221.203 2232.947,892.265 						"/>
					</g>
					<g>
						<defs>
							<path id="SVGID_9_" d="M207.631,211.645c443.756-443.756,1163.224-443.75,1606.976,0.002
								c443.75,443.75,443.755,1163.217,0,1606.973c-443.752,443.751-1163.217,443.743-1606.966-0.007
								C-236.111,1374.861-236.121,655.396,207.631,211.645z"/>
						</defs>
						<clipPath id="SVGID_10_">
							<use xlink:href="#SVGID_9_"  overflow="visible"/>
						</clipPath>
						<path clip-path="url(#SVGID_10_)" fill="#26322C" d="M177.678,1036.468"/>
					</g>
					<g>
						<defs>
							<path id="SVGID_11_" d="M207.631,211.645c443.756-443.756,1163.224-443.75,1606.976,0.002
								c443.75,443.75,443.755,1163.217,0,1606.973c-443.752,443.751-1163.217,443.743-1606.966-0.007
								C-236.111,1374.861-236.121,655.396,207.631,211.645z"/>
						</defs>
						<clipPath id="SVGID_12_">
							<use xlink:href="#SVGID_11_"  overflow="visible"/>
						</clipPath>
						<polygon clip-path="url(#SVGID_12_)" fill="#26322C" points="2232.947,892.265 1536.969,-66.156 1248.375,221.203 						"/>
					</g>
					<g>
						<defs>
							<path id="SVGID_13_" d="M207.631,211.645c443.756-443.756,1163.224-443.75,1606.976,0.002
								c443.75,443.75,443.755,1163.217,0,1606.973c-443.752,443.751-1163.217,443.743-1606.966-0.007
								C-236.111,1374.861-236.121,655.396,207.631,211.645z"/>
						</defs>
						<clipPath id="SVGID_14_">
							<use xlink:href="#SVGID_13_"  overflow="visible"/>
						</clipPath>
						<line clip-path="url(#SVGID_14_)" fill="none" x1="1728.623" y1="2060.486" x2="1425.279" y2="1608.791"/>
					</g>
					<g>
						<g>
							<defs>
								<path id="SVGID_15_" d="M207.631,211.645c443.756-443.756,1163.224-443.75,1606.976,0.002
									c443.75,443.75,443.755,1163.217,0,1606.973c-443.752,443.751-1163.217,443.743-1606.966-0.007
									C-236.111,1374.861-236.121,655.396,207.631,211.645z"/>
							</defs>
							<clipPath id="SVGID_16_">
								<use xlink:href="#SVGID_15_"  overflow="visible"/>
							</clipPath>
							<path clip-path="url(#SVGID_16_)" fill="#0D152E" d="M1078.119,130.907"/>
						</g>
						<g>
							<g>
								<defs>
									<path id="SVGID_17_" d="M207.631,211.645c443.756-443.756,1163.224-443.75,1606.976,0.002
										c443.75,443.75,443.755,1163.217,0,1606.973c-443.752,443.751-1163.217,443.743-1606.966-0.007
										C-236.111,1374.861-236.121,655.396,207.631,211.645z"/>
								</defs>
								<clipPath id="SVGID_18_">
									<use xlink:href="#SVGID_17_"  overflow="visible"/>
								</clipPath>
								<line clip-path="url(#SVGID_18_)" fill="none" x1="1809.312" y1="1266.969" x2="2232.679" y2="890.418"/>
							</g>
							<g>
								<g>
									<defs>
										<path id="SVGID_19_" d="M207.631,211.645c443.756-443.756,1163.224-443.75,1606.976,0.002
											c443.75,443.75,443.755,1163.217,0,1606.973c-443.752,443.751-1163.217,443.743-1606.966-0.007
											C-236.111,1374.861-236.121,655.396,207.631,211.645z"/>
									</defs>
									<clipPath id="SVGID_20_">
										<use xlink:href="#SVGID_19_"  overflow="visible"/>
									</clipPath>
									<polygon clip-path="url(#SVGID_20_)" fill="#90754E" points="1415.853,1604.689 403.749,2143.324 356.244,1673.92 
										510.438,1188.947 									"/>
								</g>
								<g>
									<g>
										<defs>
											<path id="SVGID_21_" d="M207.631,211.645c443.756-443.756,1163.224-443.75,1606.976,0.002
												c443.75,443.75,443.755,1163.217,0,1606.973c-443.752,443.751-1163.217,443.743-1606.966-0.007
												C-236.111,1374.861-236.121,655.396,207.631,211.645z"/>
										</defs>
										<clipPath id="SVGID_22_">
											<use xlink:href="#SVGID_21_"  overflow="visible"/>
										</clipPath>
										<polygon clip-path="url(#SVGID_22_)" fill="#292013" points="1603.507,1866.889 1419.467,1605.884 497.718,2172.438 
											1199.229,2035.096 										"/>
									</g>
									<g>
										<g>
											<defs>
												<path id="SVGID_23_" d="M302.683,294.232c443.756-443.756,1003.681-411.701,1447.433,32.052
													c443.75,443.75,408.313,940.598-35.441,1384.354c-261.299,292.657-943.794,462.601-1387.543,18.851
													C-116.621,1285.737-141.069,737.984,302.683,294.232z"/>
											</defs>
											<clipPath id="SVGID_24_">
												<use xlink:href="#SVGID_23_"  overflow="visible"/>
											</clipPath>
											<path clip-path="url(#SVGID_24_)" fill="#48452C" d="M2227.08,889.425"/>
										</g>
										<g>
											<defs>
												<circle id="SVGID_25_" cx="1011.121" cy="1000" r="1000"/>
											</defs>
											<clipPath id="SVGID_26_">
												<use xlink:href="#SVGID_25_"  overflow="visible"/>
											</clipPath>
											<g clip-path="url(#SVGID_26_)">
												<defs>
													<path id="SVGID_27_" d="M207.631,211.645c443.756-443.756,1163.224-443.75,1606.976,0.002
														c443.75,443.75,443.755,1163.217,0,1606.973c-443.752,443.751-1163.217,443.743-1606.966-0.007
														C-236.111,1374.861-236.121,655.396,207.631,211.645z"/>
												</defs>
												<clipPath id="SVGID_28_">
													<use xlink:href="#SVGID_27_"  overflow="visible"/>
												</clipPath>
												<polygon clip-path="url(#SVGID_28_)" fill="#6D532A" points="1420.889,1604.001 1243.859,216.399 2228.502,887.533 
																									"/>
											</g>
											<g clip-path="url(#SVGID_26_)">
												<g>
													<defs>
														<path id="SVGID_29_" d="M207.631,211.645c443.756-443.756,1163.224-443.75,1606.976,0.002
															c443.75,443.75,443.755,1163.217,0,1606.973c-443.752,443.751-1163.217,443.743-1606.966-0.007
															C-236.111,1374.861-236.121,655.396,207.631,211.645z"/>
													</defs>
													<clipPath id="SVGID_30_">
														<use xlink:href="#SVGID_29_"  overflow="visible"/>
													</clipPath>
													<path clip-path="url(#SVGID_30_)" fill="#26322C" d="M171.793,1033.619"/>
												</g>
												<g>
													<g>
														<defs>
															<path id="SVGID_31_" d="M207.631,211.645c443.756-443.756,1163.224-443.75,1606.976,0.002
																c443.75,443.75,443.755,1163.217,0,1606.973c-443.752,443.751-1163.217,443.743-1606.966-0.007
																C-236.111,1374.861-236.121,655.396,207.631,211.645z"/>
														</defs>
														<clipPath id="SVGID_32_">
															<use xlink:href="#SVGID_31_"  overflow="visible"/>
														</clipPath>
														
															<linearGradient id="SVGID_33_" gradientUnits="userSpaceOnUse" x1="171.0566" y1="1087.8799" x2="1418.7266" y2="1087.8799" gradientTransform="matrix(1 0 0 -1 0 2001)">
															<stop  offset="0" style="stop-color:#C26A16"/>
															<stop  offset="1" style="stop-color:#FAAF40"/>
														</linearGradient>
														<polygon opacity="0.37" clip-path="url(#SVGID_32_)" fill="url(#SVGID_33_)" enable-background="new    " points="
															1243.859,216.399 1328.35,867.879 1418.727,1609.841 510.438,1188.947 171.057,1037.584 														"/>
													</g>
													<g>
														<g>
															<defs>
																<path id="SVGID_34_" d="M207.631,211.645c443.756-443.756,1163.224-443.75,1606.976,0.002
																	c443.75,443.75,443.755,1163.217,0,1606.973c-443.752,443.751-1163.217,443.743-1606.966-0.007
																	C-236.111,1374.861-236.121,655.396,207.631,211.645z"/>
															</defs>
															<clipPath id="SVGID_35_">
																<use xlink:href="#SVGID_34_"  overflow="visible"/>
															</clipPath>
															<polygon clip-path="url(#SVGID_35_)" fill="#987137" points="2229.25,888.281 1537.25,-70.536 1244.61,217.149 
																															"/>
														</g>
														<g>
															<g>
																<defs>
																	<path id="SVGID_36_" d="M207.631,211.645c443.756-443.756,1163.224-443.75,1606.976,0.002
																		c443.75,443.75,443.755,1163.217,0,1606.973c-443.752,443.751-1163.217,443.743-1606.966-0.007
																		C-236.111,1374.861-236.121,655.396,207.631,211.645z"/>
																</defs>
																<clipPath id="SVGID_37_">
																	<use xlink:href="#SVGID_36_"  overflow="visible"/>
																</clipPath>
																<polygon clip-path="url(#SVGID_37_)" fill="#101714" points="1867.254,1380.845 1602.38,1866.436 1419.07,1606.011 
																																	"/>
															</g>
															<g>
																<g>
																	<defs>
																		<path id="SVGID_38_" d="M207.631,211.645c443.756-443.756,1163.224-443.75,1606.976,0.002
																			c443.75,443.75,443.755,1163.217,0,1606.973c-443.752,443.751-1163.217,443.743-1606.966-0.007
																			C-236.111,1374.861-236.121,655.396,207.631,211.645z"/>
																	</defs>
																	<clipPath id="SVGID_39_">
																		<use xlink:href="#SVGID_38_"  overflow="visible"/>
																	</clipPath>
																	<polygon clip-path="url(#SVGID_39_)" fill="#6B4C1F" points="497.718,2172.438 -26.574,1720.634 -286.119,983.052 
																		171.793,1033.619 																	"/>
																</g>
																<g>
																	<g>
																		<defs>
																			<path id="SVGID_40_" d="M207.631,211.645c443.756-443.756,1163.224-443.75,1606.976,0.002
																				c443.75,443.75,443.755,1163.217,0,1606.973c-443.752,443.751-1163.217,443.743-1606.966-0.007
																				C-236.111,1374.861-236.121,655.396,207.631,211.645z"/>
																		</defs>
																		<clipPath id="SVGID_41_">
																			<use xlink:href="#SVGID_40_"  overflow="visible"/>
																		</clipPath>
																		<path clip-path="url(#SVGID_41_)" fill="#0D152E" d="M1072.303,128.01"/>
																	</g>
																	<g>
																		<g>
																			<defs>
																				<path id="SVGID_42_" d="M207.631,211.645c443.756-443.756,1163.224-443.75,1606.976,0.002
																					c443.75,443.75,443.755,1163.217,0,1606.973c-443.752,443.751-1163.217,443.743-1606.966-0.007
																					C-236.111,1374.861-236.121,655.396,207.631,211.645z"/>
																			</defs>
																			<clipPath id="SVGID_43_">
																				<use xlink:href="#SVGID_42_"  overflow="visible"/>
																			</clipPath>
																			<polygon clip-path="url(#SVGID_43_)" fill="#8B6327" points="1514.673,-46.278 1244.61,217.149 847.028,146.048 
																				887.17,-13.134 1453.396,-62.192 																			"/>
																		</g>
																		<g>
																			<g>
																				<defs>
																					<path id="SVGID_44_" d="M207.631,211.645c443.756-443.756,1163.224-443.75,1606.976,0.002
																						c443.75,443.75,443.755,1163.217,0,1606.973c-443.752,443.751-1163.217,443.743-1606.966-0.007
																						C-236.111,1374.861-236.121,655.396,207.631,211.645z"/>
																				</defs>
																				<clipPath id="SVGID_45_">
																					<use xlink:href="#SVGID_44_"  overflow="visible"/>
																				</clipPath>
																				<polygon clip-path="url(#SVGID_45_)" fill="#E3C498" points="1243.859,216.399 171.283,1037.586 
																					242.792,42.817 567.439,94.638 																				"/>
																			</g>
																			<g>
																				<g>
																					<defs>
																						<path id="SVGID_46_" d="M207.631,211.645c443.756-443.756,1163.224-443.75,1606.976,0.002
																							c443.75,443.75,443.755,1163.217,0,1606.973c-443.752,443.751-1163.217,443.743-1606.966-0.007
																							C-236.111,1374.861-236.121,655.396,207.631,211.645z"/>
																					</defs>
																					<clipPath id="SVGID_47_">
																						<use xlink:href="#SVGID_46_"  overflow="visible"/>
																					</clipPath>
																					<polygon clip-path="url(#SVGID_47_)" fill="#B28B5D" points="171.517,1037.733 -286.119,983.052 
																						251.325,38.276 																					"/>
																				</g>
																				<g>
																					<g>
																						<defs>
																							<path id="SVGID_48_" d="M207.631,211.645c443.756-443.756,1163.224-443.75,1606.976,0.002
																								c443.75,443.75,443.755,1163.217,0,1606.973c-443.752,443.751-1163.217,443.743-1606.966-0.007
																								C-236.111,1374.861-236.121,655.396,207.631,211.645z"/>
																						</defs>
																						<clipPath id="SVGID_49_">
																							<use xlink:href="#SVGID_48_"  overflow="visible"/>
																						</clipPath>
																						<line clip-path="url(#SVGID_49_)" fill="none" x1="1803.369" y1="1264.076" x2="2226.803" y2="887.601"/>
																					</g>
																					<g>
																						<g>
																							<defs>
																								<path id="SVGID_50_" d="M207.631,211.645c443.756-443.756,1163.224-443.75,1606.976,0.002
																									c443.75,443.75,443.755,1163.217,0,1606.973c-443.752,443.751-1163.217,443.743-1606.966-0.007
																									C-236.111,1374.861-236.121,655.396,207.631,211.645z"/>
																							</defs>
																							<clipPath id="SVGID_51_">
																								<use xlink:href="#SVGID_50_"  overflow="visible"/>
																							</clipPath>
																							<polygon clip-path="url(#SVGID_51_)" fill="#684B1E" points="1535.071,-69.221 1982.526,358.57 
																								1716.038,538.474 																							"/>
																						</g>
																						<g>
																							<g>
																								<polygon fill="#3E3121" points="1982.526,358.57 2232.693,894.131 1716.038,538.474 
																																																	"/>
																							</g>
																							<g>
																								<g>
																									<polygon fill="#8F6C29" points="-26.574,1720.634 171.277,1037.396 -287.062,982.863 
																																																			"/>
																								</g>
																								<g>
																									
																										<linearGradient id="SVGID_52_" gradientUnits="userSpaceOnUse" x1="171.2832" y1="1374.0078" x2="1243.8594" y2="1374.0078" gradientTransform="matrix(1 0 0 -1 0 2001)">
																										<stop  offset="0" style="stop-color:#C26A16"/>
																										<stop  offset="1" style="stop-color:#FAAF40"/>
																									</linearGradient>
																									<polyline opacity="0.37" fill="url(#SVGID_52_)" enable-background="new    " points="171.283,1037.586 
																										1243.859,216.399 844.422,689.092 																									"/>
																								</g>
																								<g>
																									<polygon fill="#503A1B" points="1963.132,1123.36 1324.12,866.271 1419.406,1605.899 
																																																			"/>
																								</g>
																								<g>
																									<polygon fill="#59452C" points="2232.693,894.131 1963.132,1123.36 1660.208,1001.485 
																																																			"/>
																								</g>
																								<g>
																									<polygon fill="#583F1B" points="1660.208,1001.485 1716.038,538.474 2232.36,894.698 
																																																			"/>
																								</g>
																								<g>
																									<polygon fill="#7F6947" points="1660.208,1001.485 1650.565,1086.834 1963.132,1123.36 
																																																			"/>
																								</g>
																								<g>
																									<polygon fill="#503919" points="1650.565,1086.834 1419.63,1605.904 1963.132,1123.36 
																																																			"/>
																								</g>
																								<g>
																									<polygon fill="#9D815E" points="1650.565,1086.834 1357.97,1123.008 1660.208,1001.485 
																																																			"/>
																								</g>
																								<g>
																									<polygon fill="#795B25" points="1650.565,1086.834 1357.97,1123.008 1501.655,1423.682 
																																																			"/>
																								</g>
																								<g>
																									<path fill="#33321B" d="M2237.059,888.917"/>
																								</g>
																								<g>
																									<path fill="#393720" d="M2232.693,894.131"/>
																								</g>
																								<g>
																									<polygon fill="#634E37" points="1962.918,1122.851 2232.477,893.619 1867.254,1380.845 
																																																			"/>
																								</g>
																								<g>
																									<polygon fill="#39281C" points="2233.94,891.702 2035.775,1559.593 1867.254,1380.845 
																																																			"/>
																								</g>
																								<g>
																									<polygon fill="#2B3A35" points="1726.764,2063.055 2038.636,1556.454 1997.754,1487.073 
																																																			"/>
																								</g>
																								<g>
																									<polygon fill="#2D2012" points="1867.254,1380.845 1998.018,1487.428 1602.38,1866.436 
																																																			"/>
																								</g>
																								<g>
																									<polygon fill="#0F1E17" points="1597.942,1869.357 1729.846,2065.298 1997.861,1487.407 
																																																			"/>
																								</g>
																								<g>
																									<polygon fill="#0F1813" points="1727.021,2063.412 1116.372,2226.994 1200.03,2034.306 
																																																			"/>
																								</g>
																								<g>
																									<polygon fill="#4A3A24" points="492.586,2170.826 1116.482,2227.425 1200.576,2034.187 
																																																			"/>
																								</g>
																								<g>
																									<polygon fill="#46301E" points="242.637,34.071 567.439,94.638 239.324,189.488 																									
																										"/>
																								</g>
																								<g>
																									<polygon fill="#634E37" points="242.637,34.071 802.886,-149.912 887.17,-13.134 
																																																			"/>
																								</g>
																								<g>
																									<polygon fill="#664229" points="887.17,-13.134 877.021,-6.371 567.439,94.638 241.717,33.963 
																																																			"/>
																								</g>
																								<g>
																									<polygon fill="#483422" points="802.5,-150.339 1075.082,-28.243 887.057,-13.021 
																																																			"/>
																								</g>
																								<g>
																									<polygon fill="#4A3418" points="887.17,-13.134 855.623,146.517 567.439,94.638 																									
																										"/>
																								</g>
																								<g>
																									<polygon fill="#B29C7F" points="242.637,34.071 108.558,136.151 150.836,213.598 
																																																			"/>
																								</g>
																								<g>
																									<polygon fill="#A76534" points="239.324,189.488 150.836,213.598 242.637,34.071 
																																																			"/>
																								</g>
																								<g>
																									<polygon fill="#8D5E3B" points="1460.122,-62.792 1075.082,-28.243 802.886,-149.912 
																																																			"/>
																								</g>
																								<g>
																									<polygon fill="#6D461C" points="150.836,213.598 -28.267,381.247 108.558,136.151 
																																																			"/>
																								</g>
																								<g>
																									<polygon fill="#ED9D54" points="-287.062,982.863 -28.267,381.247 11.205,460.945 
																																																			"/>
																								</g>
																								<g>
																									<polygon fill="#CBA67B" points="150.836,213.598 216.005,480.52 -28.267,381.247 
																																																			"/>
																								</g>
																								<g>
																									<polygon fill="#624429" points="11.205,460.945 216.005,480.52 -28.267,381.247 																									
																										"/>
																								</g>
																								<g>
																									<polygon fill="#B28B51" points="567.186,94.748 216.005,480.52 239.324,189.488 																									
																										"/>
																								</g>
																								<g>
																									<polygon fill="#946B37" points="239.324,189.488 150.836,213.598 216.005,480.52 
																																																			"/>
																								</g>
																								<g>
																									<polygon fill="#936C30" points="510.582,1189.403 355.803,1678.309 171.277,1037.396 
																																																			"/>
																								</g>
																								<g>
																									<polygon fill="#A17E52" points="500.113,2169.021 295.423,1648.924 171.364,1037.579 
																																																			"/>
																								</g>
																								<g>
																									<polygon fill="#422F19" points="1602.607,1865.989 1119.337,1789.309 1419.632,1605.673 
																																																			"/>
																								</g>
																								<g>
																									
																										<linearGradient id="SVGID_53_" gradientUnits="userSpaceOnUse" x1="1200.0303" y1="35.6226" x2="1730.2256" y2="35.6226" gradientTransform="matrix(1 0 0 -1 0 2001)">
																										<stop  offset="0" style="stop-color:#C26A16"/>
																										<stop  offset="1" style="stop-color:#FAAF40"/>
																									</linearGradient>
																									<polygon opacity="0.37" fill="url(#SVGID_53_)" enable-background="new    " points="1200.03,2034.306 
																										1602.418,1865.674 1730.226,2065.081 																									"/>
																								</g>
																								<g>
																									<polygon fill="#241C12" points="1421.777,1604.437 1073.556,1919.51 492.288,2173.775 
																																																			"/>
																								</g>
																								<g>
																									<polyline fill="#24130D" points="1071.68,1921.606 1200.03,2034.306 1202.86,1802.713 1073.556,1919.51 
																																																			"/>
																								</g>
																								<g>
																									<polygon fill="#9A7A49" points="-32.981,1721.757 295.748,1649.526 171.283,1037.586 
																																																			"/>
																								</g>
																								<g>
																									<polygon fill="#A98A64" points="844.422,689.092 1419.633,1606.126 1328.35,867.879 
																																																			"/>
																								</g>
																								<g>
																									<polyline fill="#946E34" points="844.422,689.092 510.438,1188.947 324.546,957.691 844.422,689.092 
																																																			"/>
																								</g>
																								<g>
																									<polygon fill="#503318" points="937.676,1386.931 492.288,2173.775 1419.467,1605.884 
																																																			"/>
																								</g>
																								<g>
																									<polygon fill="#21150D" points="1963.257,1123.152 1867.312,1381.436 1419.516,1605.789 
																																																			"/>
																								</g>
																							</g>
																						</g>
																					</g>
																				</g>
																			</g>
																		</g>
																	</g>
																</g>
															</g>
														</g>
													</g>
												</g>
											</g>
											
												<linearGradient id="SVGID_54_" gradientUnits="userSpaceOnUse" x1="1000.0005" y1="2082.4307" x2="1000.0004" y2="-61.8032">
												<stop  offset="0" style="stop-color:#C26A16"/>
												<stop  offset="1" style="stop-color:#FAAF40"/>
											</linearGradient>
											<circle clip-path="url(#SVGID_26_)" fill="url(#SVGID_54_)" cx="1000" cy="1010.313" r="1072.117"/>
											
												<linearGradient id="SVGID_55_" gradientUnits="userSpaceOnUse" x1="1000.0005" y1="2023.0645" x2="1000.0004" y2="-23.0645">
												<stop  offset="0" style="stop-color:#C26A16"/>
												<stop  offset="1" style="stop-color:#FAAF40"/>
											</linearGradient>
											<circle opacity="0.38" clip-path="url(#SVGID_26_)" fill="url(#SVGID_55_)" cx="1000" cy="1000" r="1023.064"/>
										</g>
									</g>
								</g>
							</g>
						</g>
					</g>
				</g>
			</g>
		</g>
	</g>
</g>
</svg>
