<?xml version="1.0" encoding="utf-8"?>
<!-- Generator: Adobe Illustrator 15.0.0, SVG Export Plug-In . SVG Version: 6.00 Build 0)  -->
<!DOCTYPE svg PUBLIC "-//W3C//DTD SVG 1.1//EN" "http://www.w3.org/Graphics/SVG/1.1/DTD/svg11.dtd">
<svg version="1.1" id="Layer_1" xmlns="http://www.w3.org/2000/svg" xmlns:xlink="http://www.w3.org/1999/xlink" x="0px" y="0px"
	 width="1000px" height="1000px" viewBox="0 0 1000 1000" enable-background="new 0 0 1000 1000" xml:space="preserve">
<g>
	<defs>
		<path id="SVGID_1_" d="M0,500.182C0,223.939,223.94,0,500.186,0s500.183,223.939,500.183,500.182
			c0,276.246-223.938,500.182-500.183,500.182S0,776.428,0,500.182z"/>
	</defs>
	<clipPath id="SVGID_2_">
		<use xlink:href="#SVGID_1_"  overflow="visible"/>
	</clipPath>
	<polygon clip-path="url(#SVGID_2_)" fill="#47452E" points="498.994,143.17 1016.524,209.385 794.248,735.599 	"/>
	<path clip-path="url(#SVGID_2_)" fill="#48452C" d="M-21.062,167.768"/>
	<path clip-path="url(#SVGID_2_)" fill="#26322C" d="M794.248,735.599"/>
	<polygon clip-path="url(#SVGID_2_)" fill="#26322C" points="-21.062,167.768 -49.773,738.283 145.549,717.701 	"/>
	<line clip-path="url(#SVGID_2_)" fill="#746E2E" x1="521.813" y1="-118.189" x2="498.994" y2="143.17"/>
	<polygon clip-path="url(#SVGID_2_)" fill="#2A3032" points="1016.524,209.385 950.891,893.138 794.248,735.599 	"/>
	<path clip-path="url(#SVGID_2_)" fill="#0D152E" d="M182.137,803.095"/>
	<polygon clip-path="url(#SVGID_2_)" fill="#0D152E" points="-49.773,738.283 145.549,717.701 467.763,1086.237 	"/>
	<g clip-path="url(#SVGID_2_)">
		<g>
			<path fill="#0D152E" d="M548.67,917.743c0.857,0,2.002-1.303,0.695-1.303C548.508,916.44,547.363,917.743,548.67,917.743
				L548.67,917.743z"/>
		</g>
	</g>
	<line clip-path="url(#SVGID_2_)" fill="#8F8239" x1="251.407" y1="155.336" x2="-21.513" y2="168.564"/>
	<polygon clip-path="url(#SVGID_2_)" fill="#FBB03B" points="500.33,146.044 1017.854,212.252 795.592,738.445 	"/>
	<polygon clip-path="url(#SVGID_2_)" fill="#FFCF4A" points="520.374,-117.844 510.256,-6.879 500.33,146.044 1017.854,212.252 	"/>
	<path clip-path="url(#SVGID_2_)" fill="#48452C" d="M-19.71,170.645"/>
	<polygon clip-path="url(#SVGID_2_)" fill="#C1712A" points="500.33,146.044 146.873,720.575 -19.71,170.645 	"/>
	<path clip-path="url(#SVGID_2_)" fill="#26322C" d="M795.592,738.445"/>
	<polygon clip-path="url(#SVGID_2_)" fill="#E99723" points="146.873,720.575 500.33,146.044 795.592,738.445 	"/>
	<polygon clip-path="url(#SVGID_2_)" fill="#A4752A" points="-19.71,170.645 -48.437,741.147 146.873,720.575 	"/>
	<polygon clip-path="url(#SVGID_2_)" fill="#F6AA38" points="-19.71,170.645 520.374,-117.844 510.256,-6.879 500.33,146.044 	"/>
	<polygon clip-path="url(#SVGID_2_)" fill="#ED8E22" points="1017.854,212.252 1077.961,540.524 952.227,896.021 795.592,738.445 	
		"/>
	<path clip-path="url(#SVGID_2_)" fill="#0D152E" d="M183.472,805.956"/>
	<polygon clip-path="url(#SVGID_2_)" fill="#9D6728" points="-48.948,740.671 146.873,720.575 469.093,1089.124 	"/>
	<g clip-path="url(#SVGID_2_)">
		<g>
			<path fill="#0D152E" d="M550.018,920.621c0.857,0,2.002-1.303,0.695-1.303C549.855,919.318,548.711,920.621,550.018,920.621
				L550.018,920.621z"/>
		</g>
	</g>
	<polygon clip-path="url(#SVGID_2_)" fill="#C18B2C" points="146.873,720.575 795.318,739.078 610.928,933.144 469.093,1089.124 
		363.033,971.347 	"/>
	<polygon clip-path="url(#SVGID_2_)" fill="#B4742B" points="795.592,738.445 952.227,896.021 469.093,1089.124 610.928,933.144 	
		"/>
	<line clip-path="url(#SVGID_2_)" fill="#8F8239" x1="252.733" y1="158.195" x2="-20.174" y2="171.418"/>
	<polygon clip-path="url(#SVGID_2_)" fill="#B0792C" points="-50.003,739.961 -88.53,443.957 66.491,452.835 	"/>
	<polygon clip-path="url(#SVGID_2_)" fill="#A16F29" points="-88.53,443.957 -20.413,167.166 66.491,452.835 	"/>
	<polygon clip-path="url(#SVGID_2_)" fill="#D78728" points="1076.428,542.204 795.392,738.854 950.956,898.045 	"/>
	<polygon clip-path="url(#SVGID_2_)" fill="#E39E30" points="146.873,720.575 440.097,665.08 795.318,739.078 	"/>
	<polygon clip-path="url(#SVGID_2_)" fill="#FCB135" points="150.163,162.688 227.751,299.209 312.031,452.117 500.33,146.044 	"/>
	<polygon clip-path="url(#SVGID_2_)" fill="#F6AA38" points="-20.413,167.166 150.163,162.688 227.751,299.209 	"/>
	<polygon clip-path="url(#SVGID_2_)" fill="#C37C2A" points="227.751,299.209 53.141,411.097 -20.413,167.166 	"/>
	<polygon clip-path="url(#SVGID_2_)" fill="#ED8E22" points="227.751,299.209 256.465,271 150.163,162.688 	"/>
	<polygon clip-path="url(#SVGID_2_)" fill="#FFC64B" points="256.465,271 500.33,146.044 150.163,162.688 	"/>
	<polygon clip-path="url(#SVGID_2_)" fill="#FFCF4A" points="256.465,271 377.281,345.938 227.751,299.209 	"/>
	<polygon clip-path="url(#SVGID_2_)" fill="#F4A635" points="256.465,271 377.281,345.938 414.318,189.596 	"/>
	<polygon clip-path="url(#SVGID_2_)" fill="#F39C28" points="150.163,162.688 264.159,94.75 500.33,146.044 	"/>
	<path clip-path="url(#SVGID_2_)" fill="#33321B" d="M-23.603,167.79"/>
	<path clip-path="url(#SVGID_2_)" fill="#393720" d="M-20.413,167.166"/>
	<polygon clip-path="url(#SVGID_2_)" fill="#FFCF4A" points="150.163,162.688 -20.413,167.166 264.159,94.75 	"/>
	<polygon clip-path="url(#SVGID_2_)" fill="#CC7F29" points="-23.603,167.79 252.902,-22.973 264.159,94.75 	"/>
	<polygon clip-path="url(#SVGID_2_)" fill="#DB6C27" points="521,-117.625 252.902,-22.973 247.245,15.408 	"/>
	<polygon clip-path="url(#SVGID_2_)" fill="#F29727" points="264.159,94.75 247.245,15.408 510.256,-6.879 	"/>
	<polygon clip-path="url(#SVGID_2_)" fill="#FFC64B" points="510.256,-6.879 520.374,-117.844 247.245,15.408 	"/>
	<polygon clip-path="url(#SVGID_2_)" fill="#FFDA4D" points="521,-117.625 802.071,4.569 712.346,51.591 	"/>
	<polygon clip-path="url(#SVGID_2_)" fill="#F68722" points="1014.27,209.155 800.346,2.746 712.346,51.591 	"/>
	<polygon clip-path="url(#SVGID_2_)" fill="#8E5624" points="466.488,1092.313 363.033,971.347 514.765,1034.921 	"/>
	<polygon clip-path="url(#SVGID_2_)" fill="#8E5624" points="466.488,1092.313 200.506,991.842 210.358,915.09 	"/>
	<polygon clip-path="url(#SVGID_2_)" fill="#A4752A" points="210.358,915.09 363.033,971.347 466.488,1092.313 	"/>
	<polygon clip-path="url(#SVGID_2_)" fill="#483422" points="200.506,991.842 132.86,862.962 210.358,915.09 	"/>
	<polygon clip-path="url(#SVGID_2_)" fill="#8E5624" points="210.358,915.09 273.931,865.901 363.033,971.347 	"/>
	<polygon clip-path="url(#SVGID_2_)" fill="#CE6E28" points="466.488,1092.313 547.778,1094.551 555.286,1052.667 	"/>
	<polygon clip-path="url(#SVGID_2_)" fill="#A76534" points="514.765,1034.921 555.286,1052.667 466.488,1092.313 	"/>
	<polygon clip-path="url(#SVGID_2_)" fill="#8D5E3B" points="-50.003,739.961 132.86,862.962 200.506,991.842 	"/>
	<polygon clip-path="url(#SVGID_2_)" fill="#6D461C" points="555.286,1052.667 673.314,1043.903 547.778,1094.551 	"/>
	<polygon clip-path="url(#SVGID_2_)" fill="#ED9D54" points="952.494,896.363 673.314,1043.903 682.586,1002.076 	"/>
	<polygon clip-path="url(#SVGID_2_)" fill="#AF6F29" points="555.286,1052.667 610.928,933.144 673.314,1043.903 	"/>
	<polygon clip-path="url(#SVGID_2_)" fill="#9D6728" points="682.586,1002.076 610.928,933.144 673.314,1043.903 	"/>
	<polygon clip-path="url(#SVGID_2_)" fill="#A16F29" points="363.033,971.347 610.928,933.144 514.765,1034.921 	"/>
	<polygon clip-path="url(#SVGID_2_)" fill="#8E5624" points="514.765,1034.921 555.286,1052.667 610.928,933.144 	"/>
	<polygon clip-path="url(#SVGID_2_)" fill="#CC7629" points="795.318,739.078 715.519,577.445 715.519,722.455 	"/>
	<polygon clip-path="url(#SVGID_2_)" fill="#E37D26" points="1017.854,212.252 937.278,469.45 795.592,738.445 	"/>
	<polygon clip-path="url(#SVGID_2_)" fill="#F39C28" points="510.256,-6.879 668.533,167.966 500.33,146.044 	"/>
	<polygon clip-path="url(#SVGID_2_)" fill="#FCB135" points="712.346,51.591 510.256,-6.879 520.374,-117.844 	"/>
	<polygon clip-path="url(#SVGID_2_)" fill="#F68722" points="500.33,146.044 726.434,132.721 1020.256,213.414 	"/>
	<polyline clip-path="url(#SVGID_2_)" fill="#FAA32E" points="726.434,132.721 712.346,51.591 641.236,137.722 725.077,132.927 	"/>
	<polygon clip-path="url(#SVGID_2_)" fill="#F6AA38" points="1077.961,540.524 937.278,469.45 795.318,739.078 	"/>
	<polygon clip-path="url(#SVGID_2_)" fill="#ED8E22" points="440.097,665.08 500.33,146.044 312.276,452.562 	"/>
	<polyline clip-path="url(#SVGID_2_)" fill="#D98427" points="439.235,661.323 715.519,577.445 715.519,722.455 440.097,665.08 	"/>
	<polygon clip-path="url(#SVGID_2_)" fill="#FFCF4A" points="500.33,146.044 977.642,307.454 795.028,737.609 	"/>
	<polygon clip-path="url(#SVGID_2_)" fill="#ED8E22" points="715.519,578.005 977.642,307.454 795.318,739.078 	"/>
</g>
</svg>
