<?xml version="1.0" encoding="utf-8"?>
<!-- Generator: Adobe Illustrator 16.0.0, SVG Export Plug-In . SVG Version: 6.00 Build 0)  -->
<!DOCTYPE svg PUBLIC "-//W3C//DTD SVG 1.1//EN" "http://www.w3.org/Graphics/SVG/1.1/DTD/svg11.dtd">
<svg version="1.1" id="Layer_1" xmlns="http://www.w3.org/2000/svg" xmlns:xlink="http://www.w3.org/1999/xlink" x="0px" y="0px"
	 width="1500px" height="1500px" viewBox="0 0 1500 1500" enable-background="new 0 0 1500 1500" xml:space="preserve">
<g id="Earth">
	<g id="FG_5_">
		<defs>
			<circle id="SVGID_1_" cx="1174.76" cy="561.101" r="84.526"/>
		</defs>
		<clipPath id="SVGID_2_">
			<use xlink:href="#SVGID_1_"  overflow="visible"/>
		</clipPath>
		<polygon clip-path="url(#SVGID_2_)" fill="#B4B0A6" points="1127.071,550.705 1138.694,435.517 1256.735,481.707 		"/>
		<polygon clip-path="url(#SVGID_2_)" fill="#50514B" points="1068.966,547.195 1127.071,550.705 1138.694,435.517 		"/>
		<polygon clip-path="url(#SVGID_2_)" fill="#B9B1A4" points="1127.071,550.705 1256.604,625.708 1135.606,665.917 		"/>
		<polygon clip-path="url(#SVGID_2_)" fill="#6E6C67" points="1256.604,625.708 1126.948,551.033 1256.735,481.707 		"/>
		<polygon clip-path="url(#SVGID_2_)" fill="#6E6C67" points="1135.606,665.917 1068.966,547.195 1127.071,550.705 		"/>
		<polygon clip-path="url(#SVGID_2_)" fill="#A9A198" points="1256.583,625.635 1241.76,560.976 1265.678,573.205 		"/>
		<polygon clip-path="url(#SVGID_2_)" fill="#777964" points="1132.835,628.283 1162.746,610.49 1172.44,599.084 1145.713,556.612 
			1126.948,551.033 		"/>
		<polygon clip-path="url(#SVGID_2_)" fill="#787975" points="1134.842,666.093 1132.835,628.283 1162.746,610.49 		"/>
		<polygon clip-path="url(#SVGID_2_)" fill="#4A4944" points="1132.835,628.283 1117.092,603.399 1126.948,551.033 		"/>
		<polygon clip-path="url(#SVGID_2_)" fill="#CFCBC3" points="1134.996,666.8 1091.05,606.591 1117.092,603.399 		"/>
		<polygon clip-path="url(#SVGID_2_)" fill="#D0C9BC" points="1256.106,482.022 1221.492,500.419 1250.145,499.66 		"/>
		<polygon clip-path="url(#SVGID_2_)" fill="#939387" points="1221.492,500.419 1189.942,455.523 1256.106,482.022 		"/>
		<polygon clip-path="url(#SVGID_2_)" fill="#D8D7DB" points="1138.694,435.517 1196.228,451.867 1256.106,482.022 		"/>
		<polygon clip-path="url(#SVGID_2_)" fill="#363636" points="1089.399,548.633 1131.12,512.966 1126.948,551.033 		"/>
		<polygon clip-path="url(#SVGID_2_)" fill="#777964" points="1126.948,551.033 1104.87,504.234 1138.939,434.977 		"/>
		<polygon clip-path="url(#SVGID_2_)" fill="#5B5E47" points="1175.807,528.605 1138.939,434.977 1126.948,551.033 		"/>
		<polygon clip-path="url(#SVGID_2_)" fill="#F4EFE0" points="1276.521,544.267 1265.081,527.955 1242.793,535.829 		"/>
		<polygon clip-path="url(#SVGID_2_)" fill="#E4E4EC" points="1265.081,527.955 1265.179,514.528 1242.793,535.829 		"/>
		<polygon clip-path="url(#SVGID_2_)" fill="#EAE2CB" points="1265.678,573.205 1241.76,560.976 1242.793,535.829 1276.617,543.566 
			1281.592,568.435 		"/>
		<path clip-path="url(#SVGID_2_)" fill="#26322C" d="M1251.706,489.92"/>
		<polygon clip-path="url(#SVGID_2_)" fill="#B3AE9D" points="1214.458,490.414 1250.634,499.59 1229.387,522.527 		"/>
		<polygon clip-path="url(#SVGID_2_)" fill="#8B8377" points="1229.387,522.527 1250.463,499.509 1265.172,515.084 
			1242.793,535.829 1234.557,541.025 		"/>
		<polygon clip-path="url(#SVGID_2_)" fill="#ABAE9F" points="1234.557,541.025 1241.76,560.976 1222.44,566.906 		"/>
		<polygon clip-path="url(#SVGID_2_)" fill="#777964" points="1210.847,582.274 1192.357,575.653 1190.659,567.554 1222.44,566.906 
					"/>
		<polygon clip-path="url(#SVGID_2_)" fill="#F4EFE0" points="1190.659,567.554 1175.675,546.19 1145.713,556.612 		"/>
		<polygon clip-path="url(#SVGID_2_)" fill="#E4E4EC" points="1175.675,546.19 1175.807,528.605 1145.811,556.583 		"/>
		<polygon clip-path="url(#SVGID_2_)" fill="#D8D7DB" points="1175.807,528.605 1162.34,494.862 1147.928,535.379 1145.713,556.612 
					"/>
		<polygon clip-path="url(#SVGID_2_)" fill="#B3AE9D" points="1175.807,528.605 1190.095,517.17 1162.34,494.862 1162.34,494.862 		
			"/>
		<polygon clip-path="url(#SVGID_2_)" fill="#EFE4D1" points="1190.095,517.17 1206.939,511.153 1214.458,490.414 1162.34,494.862 
					"/>
		<polygon clip-path="url(#SVGID_2_)" fill="#777964" points="1229.387,522.527 1214.458,490.414 1206.939,511.153 		"/>
		<polyline clip-path="url(#SVGID_2_)" fill="#EAE2CB" points="1162.746,610.49 1145.713,556.612 1190.659,567.554 
			1197.298,599.208 1175.415,605.985 		"/>
		<polygon clip-path="url(#SVGID_2_)" fill="#EAEAEA" points="1222.44,566.906 1229.387,522.527 1234.557,541.025 		"/>
		<polygon clip-path="url(#SVGID_2_)" fill="#ABAE9F" points="1281.592,568.435 1256.583,625.681 1265.678,573.205 		"/>
		<polygon clip-path="url(#SVGID_2_)" fill="#6E6C67" points="1192.357,575.653 1162.746,610.49 1223.831,636.334 		"/>
		<polygon clip-path="url(#SVGID_2_)" fill="#E4E4EC" points="1192.357,575.653 1210.847,582.274 1223.831,636.334 		"/>
		<polygon clip-path="url(#SVGID_2_)" fill="#D8D7DB" points="1223.831,636.334 1241.76,560.976 1222.44,566.906 1210.847,582.274 
					"/>
		<polygon clip-path="url(#SVGID_2_)" fill="#4A4944" points="1162.746,610.49 1198.244,645.046 1168.769,655.82 		"/>
	</g>
</g>
</svg>
