<?xml version="1.0" encoding="utf-8"?>
<!-- Generator: Adobe Illustrator 16.0.0, SVG Export Plug-In . SVG Version: 6.00 Build 0)  -->
<!DOCTYPE svg PUBLIC "-//W3C//DTD SVG 1.1//EN" "http://www.w3.org/Graphics/SVG/1.1/DTD/svg11.dtd">
<svg version="1.1" id="Layer_1" xmlns="http://www.w3.org/2000/svg" xmlns:xlink="http://www.w3.org/1999/xlink" x="0px" y="0px"
	 width="1500px" height="1500px" viewBox="0 0 1500 1500" enable-background="new 0 0 1500 1500" xml:space="preserve">
<g id="Jupiter">
	<g id="FG_1_">
		<g>
			<defs>
				<ellipse id="SVGID_1_" cx="311.215" cy="648.184" rx="66.253" ry="66.957"/>
			</defs>
			<clipPath id="SVGID_2_">
				<use xlink:href="#SVGID_1_"  overflow="visible"/>
			</clipPath>
			<polygon clip-path="url(#SVGID_2_)" fill="#46442D" points="215.291,637.928 226.736,523.319 342.942,569.277 			"/>
			<polygon clip-path="url(#SVGID_2_)" fill="#6B6331" points="158.083,634.434 215.291,637.928 226.736,523.319 			"/>
			<path clip-path="url(#SVGID_2_)" fill="#47452B" d="M223.693,752.561"/>
			<polygon clip-path="url(#SVGID_2_)" fill="#47452B" points="215.291,637.928 342.815,712.555 223.693,752.561 			"/>
			<polygon clip-path="url(#SVGID_2_)" fill="#26322C" points="342.815,712.555 215.291,637.928 342.942,569.277 			"/>
			<polygon clip-path="url(#SVGID_2_)" fill="#26322C" points="223.693,752.561 348.444,755.542 342.815,712.555 			"/>
			<line clip-path="url(#SVGID_2_)" fill="#736D2E" x1="158.083" y1="634.434" x2="215.291" y2="637.928"/>
			<polygon clip-path="url(#SVGID_2_)" fill="#292F32" points="226.736,523.319 376.436,533.777 342.942,569.277 			"/>
			<path clip-path="url(#SVGID_2_)" fill="#0B132D" d="M361.251,703.98"/>
			<polygon clip-path="url(#SVGID_2_)" fill="#0B132D" points="348.444,755.542 342.815,712.555 421.421,639.275 			"/>
			<g clip-path="url(#SVGID_2_)">
				<g>
					<path fill="#0B132D" d="M383.663,622.983c0.858,0,2.002-1.303,0.696-1.303C383.501,621.681,382.356,622.983,383.663,622.983
						L383.663,622.983z"/>
				</g>
			</g>
			<polygon clip-path="url(#SVGID_2_)" fill="#0D1225" points="342.815,712.555 342.942,569.277 421.421,639.275 			"/>
			<polygon clip-path="url(#SVGID_2_)" fill="#0D1321" points="342.942,569.277 376.436,533.777 421.421,639.275 			"/>
			<line clip-path="url(#SVGID_2_)" fill="#8E8239" x1="219.391" y1="692.506" x2="223.867" y2="752.656"/>
			<polygon clip-path="url(#SVGID_2_)" fill="#CF8936" points="215.91,637.619 227.354,523.005 343.561,568.964 			"/>
			<polygon clip-path="url(#SVGID_2_)" fill="#634E1F" points="158.707,634.124 215.91,637.619 227.354,523.005 			"/>
			<path clip-path="url(#SVGID_2_)" fill="#47452B" d="M224.316,752.251"/>
			<polygon clip-path="url(#SVGID_2_)" fill="#99753C" points="215.91,637.619 343.434,712.244 224.316,752.251 			"/>
			<path clip-path="url(#SVGID_2_)" fill="#26322C" d="M343.561,568.964"/>
			<polygon clip-path="url(#SVGID_2_)" fill="#BA9D46" points="343.434,712.244 215.91,637.619 343.561,568.964 			"/>
			<polygon clip-path="url(#SVGID_2_)" fill="#AE7B3F" points="224.316,752.251 349.063,755.229 343.434,712.244 			"/>
			<polygon clip-path="url(#SVGID_2_)" fill="#8F703E" points="224.316,752.251 190.032,698.938 158.707,634.124 215.91,637.619 			
				"/>
			<polygon clip-path="url(#SVGID_2_)" fill="#5D431B" points="227.354,523.005 298.692,507.807 377.054,533.467 343.561,568.964 
							"/>
			<path clip-path="url(#SVGID_2_)" fill="#0B132D" d="M361.869,703.669"/>
			<polygon clip-path="url(#SVGID_2_)" fill="#E1BE62" points="348.444,755.542 342.815,712.555 421.421,639.275 			"/>
			<g clip-path="url(#SVGID_2_)">
				<g>
					<path fill="#0B132D" d="M384.279,622.672c0.858,0,2.002-1.303,0.696-1.303C384.117,621.37,382.973,622.672,384.279,622.672
						L384.279,622.672z"/>
				</g>
			</g>
			<polygon clip-path="url(#SVGID_2_)" fill="#ECD087" points="343.434,712.244 343.561,568.964 375.331,587.382 392.406,596.778 
				422.039,638.96 			"/>
			<polygon clip-path="url(#SVGID_2_)" fill="#E1A03E" points="342.781,568.665 377.054,533.467 423.02,640.408 391.967,596.866 
				375.159,588.062 			"/>
			<line clip-path="url(#SVGID_2_)" fill="#8E8239" x1="220.009" y1="692.192" x2="224.483" y2="752.347"/>
			<polygon clip-path="url(#SVGID_2_)" fill="#7B4E21" points="348.816,755.582 284.402,765.828 285.438,731.563 			"/>
			<polygon clip-path="url(#SVGID_2_)" fill="#926F2D" points="284.402,765.828 223.56,752.426 285.98,731.484 			"/>
			<polygon clip-path="url(#SVGID_2_)" fill="#8F682C" points="298.692,507.807 342.61,568.893 377.134,533.401 			"/>
			<polygon clip-path="url(#SVGID_2_)" fill="#FFC440" points="343.413,712.171 328.819,647.836 352.365,660.004 			"/>
			<polygon clip-path="url(#SVGID_2_)" fill="#BCA381" points="221.584,714.804 283.94,677.32 215.71,637.605 			"/>
			<polygon clip-path="url(#SVGID_2_)" fill="#9D6327" points="223.56,752.426 221.584,714.804 250.945,696.878 			"/>
			<g clip-path="url(#SVGID_2_)">
				<g>
					<path fill="#5B622B" d="M261.213,684.54c0.595,0,2.098-0.902,0.804-0.902C261.422,683.638,259.919,684.54,261.213,684.54
						L261.213,684.54z"/>
				</g>
			</g>
			<polygon clip-path="url(#SVGID_2_)" fill="#89682C" points="221.584,714.804 206.086,690.046 215.71,637.605 			"/>
			<path clip-path="url(#SVGID_2_)" fill="#32311A" d="M223.713,753.129"/>
			<path clip-path="url(#SVGID_2_)" fill="#38371F" d="M223.56,752.426"/>
			<polygon clip-path="url(#SVGID_2_)" fill="#5B3C23" points="223.713,753.129 180.447,693.222 206.086,690.046 			"/>
			<polygon clip-path="url(#SVGID_2_)" fill="#423C38" points="157.945,634.108 180.447,693.222 188.086,692.176 			"/>
			<polygon clip-path="url(#SVGID_2_)" fill="#68615A" points="182.276,635.776 157.672,633.645 188.33,692.422 			"/>
			<polygon clip-path="url(#SVGID_2_)" fill="#5E452B" points="157.945,634.108 183.256,571.855 194.053,591.38 			"/>
			<polygon clip-path="url(#SVGID_2_)" fill="#6D4E20" points="226.702,523.819 182.869,572.249 194.053,591.38 			"/>
			<polygon clip-path="url(#SVGID_2_)" fill="#EDC569" points="422.754,639.516 396.939,663.061 409.941,629.201 			"/>
			<polygon clip-path="url(#SVGID_2_)" fill="#F79A36" points="422.754,639.516 402.361,698.816 385.575,697.133 			"/>
			<polygon clip-path="url(#SVGID_2_)" fill="#DFBB68" points="385.575,697.133 396.939,663.061 422.754,639.516 			"/>
			<polygon clip-path="url(#SVGID_2_)" fill="#3A3D25" points="402.361,698.816 374.907,714.085 385.575,697.133 			"/>
			<polygon clip-path="url(#SVGID_2_)" fill="#FAC050" points="422.754,639.516 422.765,621.564 413.576,620.149 			"/>
			<polygon clip-path="url(#SVGID_2_)" fill="#C9AD69" points="347.468,756.485 373.261,714.678 401.146,699.553 			"/>
			<polygon clip-path="url(#SVGID_2_)" fill="#F0C376" points="411.585,630.816 410.977,594.157 422.765,621.564 			"/>
			<polygon clip-path="url(#SVGID_2_)" fill="#FFEDCE" points="377.134,533.401 410.977,594.157 401.793,592.352 			"/>
			<polygon clip-path="url(#SVGID_2_)" fill="#F1CB6C" points="412.645,628.796 393.725,619.101 410.977,594.157 			"/>
			<polygon clip-path="url(#SVGID_2_)" fill="#CB8B2A" points="342.942,569.277 308.865,587.583 337.073,586.826 			"/>
			<polygon clip-path="url(#SVGID_2_)" fill="#AE792B" points="308.865,587.583 277.807,542.913 342.942,569.277 			"/>
			<polygon clip-path="url(#SVGID_2_)" fill="#B98D41" points="227.354,523.005 283.994,539.273 342.942,569.277 			"/>
			<polygon clip-path="url(#SVGID_2_)" fill="#AE8A5B" points="182.276,635.776 219.718,600.368 215.876,637.949 			"/>
			<polygon clip-path="url(#SVGID_2_)" fill="#9F7632" points="215.914,638.209 194.053,591.38 227.594,522.469 			"/>
			<polygon clip-path="url(#SVGID_2_)" fill="#E2B983" points="308.663,539.391 296.362,565.723 345.692,590.829 			"/>
			<polygon clip-path="url(#SVGID_2_)" fill="#B68441" points="264.43,611.533 227.594,522.469 215.91,637.619 			"/>
			<path clip-path="url(#SVGID_2_)" fill="#26322C" d="M408.932,572.23"/>
			<polygon clip-path="url(#SVGID_2_)" fill="#FFECDF" points="392.154,597 407.569,587.289 411.097,594.666 405.762,609.208 
				396.037,611.053 			"/>
			<polygon clip-path="url(#SVGID_2_)" fill="#EBC04F" points="396.037,611.053 405.987,609.422 386.86,630.706 			"/>
			<polygon clip-path="url(#SVGID_2_)" fill="#EBCBAB" points="372.113,653.091 378.217,642.392 364.181,636.585 368.034,655.258 
							"/>
			<polygon clip-path="url(#SVGID_2_)" fill="#4F3A14" points="363.041,631.21 351.778,614.981 329.257,622.894 			"/>
			<polygon clip-path="url(#SVGID_2_)" fill="#DEC382" points="351.778,614.981 351.876,601.621 329.335,622.87 			"/>
			<polygon clip-path="url(#SVGID_2_)" fill="#F1CD54" points="352.365,660.004 328.819,647.836 329.257,622.894 363.137,630.514 
				368.034,655.258 			"/>
			<polygon clip-path="url(#SVGID_2_)" fill="#F7D678" points="386.935,630.714 392.121,596.872 396.037,611.053 			"/>
			<path clip-path="url(#SVGID_2_)" fill="#26322C" d="M338.61,577.135"/>
			<polygon clip-path="url(#SVGID_2_)" fill="#C79F37" points="309.461,587.242 337.387,586.676 351.869,602.174 329.835,622.818 
				321.729,627.984 			"/>
			<polygon clip-path="url(#SVGID_2_)" fill="#D9B86B" points="321.729,627.984 328.819,647.836 309.799,653.735 			"/>
			<polygon clip-path="url(#SVGID_2_)" fill="#D3AF76" points="298.387,669.029 280.176,661.6 278.635,653.476 309.799,653.735 			
				"/>
			<polygon clip-path="url(#SVGID_2_)" fill="#A9A198" points="286.456,687.043 298.387,669.029 280.007,661.42 285.049,685.877 			
				"/>
			<polyline clip-path="url(#SVGID_2_)" fill="#AD924E" points="264.529,692.1 216.216,638.043 278.635,653.476 285.049,685.877 
				263.504,692.619 			"/>
			<polygon clip-path="url(#SVGID_2_)" fill="#E5BD60" points="309.799,653.735 316.595,609.406 321.729,627.984 			"/>
			<polygon clip-path="url(#SVGID_2_)" fill="#E8BF47" points="368.034,655.258 343.413,712.216 352.365,660.004 			"/>
			<polygon clip-path="url(#SVGID_2_)" fill="#D8B842" points="372.113,653.091 397.215,662.056 343.413,712.216 367.65,655.06 			
				"/>
			<polygon clip-path="url(#SVGID_2_)" fill="#E0B553" points="386.847,630.802 405.868,640.356 410.711,628.351 397.773,617.411 
							"/>
			<polygon clip-path="url(#SVGID_2_)" fill="#BC9237" points="280.72,661.806 250.945,696.878 311.17,722.816 			"/>
			<polygon clip-path="url(#SVGID_2_)" fill="#BFA343" points="280.176,661.6 298.387,669.029 311.17,722.816 			"/>
			<polygon clip-path="url(#SVGID_2_)" fill="#D7A94F" points="311.17,722.816 328.819,647.836 309.799,653.735 298.387,669.029 			
				"/>
			<polygon clip-path="url(#SVGID_2_)" fill="#883A27" points="250.945,696.878 285.98,731.484 256.962,742.205 			"/>
			<polygon clip-path="url(#SVGID_2_)" fill="#BA964A" points="278.635,653.476 264.43,611.533 309.799,653.735 			"/>
			<polygon clip-path="url(#SVGID_2_)" fill="#D4A951" points="316.595,609.406 309.461,587.242 264.43,611.533 			"/>
			<polygon clip-path="url(#SVGID_2_)" fill="#EAE2CB" points="351.876,601.621 342.942,569.277 336.743,586.864 			"/>
			<polygon clip-path="url(#SVGID_2_)" fill="#777964" points="351.778,614.981 392.121,596.872 351.876,601.621 			"/>
			<polygon clip-path="url(#SVGID_2_)" fill="#E6C15C" points="392.406,596.778 363.137,630.514 364.313,636.715 378.217,642.392 
				386.935,630.714 386.86,630.711 			"/>
			<polygon clip-path="url(#SVGID_2_)" fill="#A5762B" points="279.469,543.898 264.43,611.533 225.653,520.668 			"/>
		</g>
		<g>
			<defs>
				<ellipse id="SVGID_3_" cx="1195.441" cy="1181.028" rx="52.707" ry="53.269"/>
			</defs>
			<clipPath id="SVGID_4_">
				<use xlink:href="#SVGID_3_"  overflow="visible"/>
			</clipPath>
			<polygon clip-path="url(#SVGID_4_)" fill="#E0B553" points="1217.315,1081.687 1227.988,1069.855 1220.457,1063.892 
				1210.049,1071.029 			"/>
			<polygon clip-path="url(#SVGID_4_)" fill="#46442D" points="1187.279,1207.477 1108.306,1175.738 1164.684,1100.923 			"/>
			<polygon clip-path="url(#SVGID_4_)" fill="#6B6331" points="1173.101,1248.223 1187.279,1207.477 1108.306,1175.738 			"/>
			<path clip-path="url(#SVGID_4_)" fill="#47452B" d="M1270.333,1224.836"/>
			<polygon clip-path="url(#SVGID_4_)" fill="#47452B" points="1187.279,1207.477 1266.314,1130.322 1270.333,1224.836 			"/>
			<polygon clip-path="url(#SVGID_4_)" fill="#26322C" points="1266.314,1130.322 1187.279,1207.477 1164.684,1100.923 			"/>
			<polygon clip-path="url(#SVGID_4_)" fill="#26322C" points="1270.333,1224.836 1297.966,1135.036 1266.314,1130.322 			"/>
			<line clip-path="url(#SVGID_4_)" fill="#736D2E" x1="1173.101" y1="1248.223" x2="1187.279" y2="1207.477"/>
			<polygon clip-path="url(#SVGID_4_)" fill="#292F32" points="1108.306,1175.738 1146.347,1069.385 1164.684,1100.923 			"/>
			<path clip-path="url(#SVGID_4_)" fill="#0B132D" d="M1264.004,1115.208"/>
			<polygon clip-path="url(#SVGID_4_)" fill="#0B132D" points="1297.966,1135.036 1266.314,1130.322 1230.399,1058.365 			"/>
			<g clip-path="url(#SVGID_4_)">
				<g>
					<path fill="#0B132D" d="M1210.378,1082.664c0.858,0,2.002-1.303,0.696-1.303
						C1210.216,1081.361,1209.072,1082.664,1210.378,1082.664L1210.378,1082.664z"/>
				</g>
			</g>
			<polygon clip-path="url(#SVGID_4_)" fill="#0D1225" points="1266.314,1130.322 1164.684,1100.923 1230.399,1058.365 			"/>
			<polygon clip-path="url(#SVGID_4_)" fill="#0D1321" points="1164.684,1100.923 1146.347,1069.385 1230.399,1058.365 			"/>
			<line clip-path="url(#SVGID_4_)" fill="#8E8239" x1="1226.845" y1="1215.67" x2="1270.438" y2="1224.73"/>
			<polygon clip-path="url(#SVGID_4_)" fill="#D1BC9D" points="1187.188,1206.967 1108.211,1175.229 1164.589,1100.411 			"/>
			<polygon clip-path="url(#SVGID_4_)" fill="#AEAFA5" points="1173.006,1247.711 1187.188,1206.967 1108.211,1175.229 			"/>
			<path clip-path="url(#SVGID_4_)" fill="#47452B" d="M1270.242,1224.324"/>
			<polygon clip-path="url(#SVGID_4_)" fill="#B59F7B" points="1187.188,1206.967 1266.22,1129.81 1270.242,1224.324 			"/>
			<path clip-path="url(#SVGID_4_)" fill="#26322C" d="M1164.589,1100.411"/>
			<polygon clip-path="url(#SVGID_4_)" fill="#B69C74" points="1266.22,1129.81 1187.188,1206.967 1164.589,1100.411 			"/>
			<polygon clip-path="url(#SVGID_4_)" fill="#9B735F" points="1270.242,1224.324 1297.87,1134.523 1266.22,1129.81 			"/>
			<polygon clip-path="url(#SVGID_4_)" fill="#C5C6A0" points="1270.242,1224.324 1225.402,1238.264 1173.006,1247.711 
				1187.188,1206.967 			"/>
			<polygon clip-path="url(#SVGID_4_)" fill="#97969B" points="1108.211,1175.229 1112.016,1120.419 1146.253,1068.874 
				1164.589,1100.411 			"/>
			<path clip-path="url(#SVGID_4_)" fill="#0B132D" d="M1263.908,1114.694"/>
			<polygon clip-path="url(#SVGID_4_)" fill="#85674D" points="1297.966,1135.036 1266.314,1130.322 1230.399,1058.365 			"/>
			<g clip-path="url(#SVGID_4_)">
				<g>
					<path fill="#0B132D" d="M1210.285,1082.151c0.858,0,2.002-1.303,0.696-1.303
						C1210.124,1080.849,1208.979,1082.151,1210.285,1082.151L1210.285,1082.151z"/>
				</g>
			</g>
			<polygon clip-path="url(#SVGID_4_)" fill="#BD9D76" points="1266.22,1129.81 1164.589,1100.411 1184.157,1081.151 
				1194.313,1070.699 1230.305,1057.85 			"/>
			<polygon clip-path="url(#SVGID_4_)" fill="#B4AC99" points="1164.216,1100.914 1146.253,1068.874 1231.533,1057.438 
				1194.287,1071.036 1184.602,1081.417 			"/>
			<line clip-path="url(#SVGID_4_)" fill="#8E8239" x1="1226.748" y1="1215.159" x2="1270.343" y2="1224.222"/>
			<polygon clip-path="url(#SVGID_4_)" fill="#A09D97" points="1298.069,1134.774 1292.166,1183.553 1268.064,1175.793 			"/>
			<polygon clip-path="url(#SVGID_4_)" fill="#C7C2B5" points="1292.166,1183.553 1270.21,1224.906 1268.12,1175.387 			"/>
			<polygon clip-path="url(#SVGID_4_)" fill="#B3B4AD" points="1112.016,1120.419 1164.343,1101.084 1146.224,1068.801 			"/>
			<polygon clip-path="url(#SVGID_4_)" fill="#97724A" points="1266.165,1129.81 1217.533,1127.225 1230.984,1112.65 			"/>
			<polygon clip-path="url(#SVGID_4_)" fill="#FFFAEC" points="1243.112,1218.643 1229.271,1165.781 1187.14,1207.108 			"/>
			<polygon clip-path="url(#SVGID_4_)" fill="#D0C6AB" points="1270.21,1224.906 1243.112,1218.643 1236.4,1193.696 			"/>
			<g clip-path="url(#SVGID_4_)">
				<g>
					<path fill="#5B622B" d="M1229.105,1183.796c0.596,0,2.098-0.902,0.804-0.902
						C1229.313,1182.894,1227.812,1183.796,1229.105,1183.796L1229.105,1183.796z"/>
				</g>
			</g>
			<polygon clip-path="url(#SVGID_4_)" fill="#CAC29A" points="1243.112,1218.643 1222.376,1224.809 1187.14,1207.108 			"/>
			<path clip-path="url(#SVGID_4_)" fill="#32311A" d="M1270.74,1224.939"/>
			<path clip-path="url(#SVGID_4_)" fill="#38371F" d="M1270.21,1224.906"/>
			<polygon clip-path="url(#SVGID_4_)" fill="#ACB3AE" points="1270.74,1224.939 1219.387,1244.041 1222.376,1224.809 			"/>
			<polygon clip-path="url(#SVGID_4_)" fill="#A8B4A1" points="1172.842,1248.258 1219.387,1244.041 1220.207,1238.291 			"/>
			<polygon clip-path="url(#SVGID_4_)" fill="#92AC99" points="1179.002,1230.965 1172.456,1248.36 1220.43,1238.164 			"/>
			<polygon clip-path="url(#SVGID_4_)" fill="#ADBBB6" points="1172.842,1248.258 1133.847,1217.179 1149.91,1213.349 			"/>
			<polygon clip-path="url(#SVGID_4_)" fill="#A2A5A7" points="1108.656,1175.867 1134.047,1217.54 1149.91,1213.349 			"/>
			<polygon clip-path="url(#SVGID_4_)" fill="#9C989B" points="1230.844,1057.448 1268.748,1084.354 1264.121,1096.177 			"/>
			<polygon clip-path="url(#SVGID_4_)" fill="#B0ABA3" points="1264.121,1096.177 1242.269,1080.974 1230.844,1057.448 			"/>
			<polygon clip-path="url(#SVGID_4_)" fill="#957259" points="1268.748,1084.354 1273.965,1107.379 1264.121,1096.177 			"/>
			<polygon clip-path="url(#SVGID_4_)" fill="#849391" points="1230.844,1057.448 1218.109,1053.766 1215.228,1060.136 			"/>
			<polygon clip-path="url(#SVGID_4_)" fill="#8F888F" points="1298.437,1135.936 1274.048,1108.692 1269.023,1085.39 			"/>
			<polygon clip-path="url(#SVGID_4_)" fill="#8B998F" points="1222.388,1063.763 1196.252,1056.702 1218.109,1053.766 			"/>
			<polygon clip-path="url(#SVGID_4_)" fill="#FFEDCE" points="1146.224,1068.801 1196.252,1056.702 1193.094,1062.99 			"/>
			<polygon clip-path="url(#SVGID_4_)" fill="#B2AF9D" points="1221.171,1062.579 1210.421,1074.307 1196.252,1056.702 			"/>
			<polygon clip-path="url(#SVGID_4_)" fill="#CDB797" points="1164.684,1100.923 1170.702,1129.362 1175.932,1108.765 			"/>
			<polygon clip-path="url(#SVGID_4_)" fill="#AE9274" points="1170.702,1129.362 1132.653,1142.733 1164.684,1100.923 			"/>
			<polygon clip-path="url(#SVGID_4_)" fill="#978067" points="1108.211,1175.229 1131.337,1137.508 1164.684,1100.923 			"/>
			<polygon clip-path="url(#SVGID_4_)" fill="#CED0C5" points="1179.002,1230.965 1161.539,1196.588 1187.414,1207.058 			"/>
			<polygon clip-path="url(#SVGID_4_)" fill="#C3C6C5" points="1187.608,1207.085 1149.91,1213.349 1107.877,1174.945 			"/>
			<polygon clip-path="url(#SVGID_4_)" fill="#927873" points="1112.016,1120.419 1131.337,1137.508 1164.684,1100.923 			"/>
			<polygon clip-path="url(#SVGID_4_)" fill="#C3B7A1" points="1178.607,1166.466 1107.877,1174.945 1187.188,1206.967 			"/>
			<path clip-path="url(#SVGID_4_)" fill="#26322C" d="M1180.277,1053.701"/>
			<polygon clip-path="url(#SVGID_4_)" fill="#A2A999" points="1194.421,1070.929 1190.681,1057.768 1196.637,1056.72 
				1205.863,1063.563 1205.184,1070.988 			"/>
			<polygon clip-path="url(#SVGID_4_)" fill="#BFB59A" points="1205.184,1070.988 1206.063,1063.442 1217.251,1081.658 			"/>
			<polygon clip-path="url(#SVGID_4_)" fill="#EBCBAB" points="1230.117,1096.926 1223.776,1090.313 1216.784,1099.297 
				1230.819,1100.323 			"/>
			<polygon clip-path="url(#SVGID_4_)" fill="#BAA689" points="1212.736,1099.025 1198.919,1103.866 1199.926,1121.805 			"/>
			<polygon clip-path="url(#SVGID_4_)" fill="#DEC382" points="1198.919,1103.866 1189.458,1101.063 1199.926,1121.747 			"/>
			<polygon clip-path="url(#SVGID_4_)" fill="#B69169" points="1230.984,1112.65 1217.533,1127.225 1199.926,1121.805 
				1212.261,1098.811 1230.819,1100.323 			"/>
			<polygon clip-path="url(#SVGID_4_)" fill="#C2AC8D" points="1217.271,1081.605 1194.322,1070.926 1205.184,1070.988 			"/>
			<path clip-path="url(#SVGID_4_)" fill="#26322C" d="M1169.374,1105.668"/>
			<polygon clip-path="url(#SVGID_4_)" fill="#B68E65" points="1170.582,1128.859 1175.893,1108.507 1189.849,1101.182 
				1199.991,1121.373 1201.999,1128.305 			"/>
			<polygon clip-path="url(#SVGID_4_)" fill="#A9845B" points="1201.999,1128.305 1217.533,1127.225 1217.828,1142.217 			"/>
			<polygon clip-path="url(#SVGID_4_)" fill="#D3AF76" points="1226.344,1153.617 1217.348,1165.295 1211.269,1164.75 
				1217.828,1142.217 			"/>
			<polygon clip-path="url(#SVGID_4_)" fill="#A9A198" points="1236.685,1165.948 1226.344,1153.617 1217.188,1165.382 
				1235.571,1166.729 			"/>
			<polyline clip-path="url(#SVGID_4_)" fill="#C8A87A" points="1235.789,1182.873 1187.552,1206.832 1211.269,1164.75 
				1235.571,1166.729 1235.947,1183.724 			"/>
			<polygon clip-path="url(#SVGID_4_)" fill="#C5A77E" points="1217.828,1142.217 1187.767,1128.225 1201.999,1128.305 			"/>
			<polygon clip-path="url(#SVGID_4_)" fill="#A68666" points="1230.819,1100.323 1266.196,1129.821 1230.984,1112.65 			"/>
			<polygon clip-path="url(#SVGID_4_)" fill="#B6A790" points="1230.117,1096.926 1241.614,1080.567 1266.196,1129.821 
				1230.602,1100.562 			"/>
			<polygon clip-path="url(#SVGID_4_)" fill="#B5946C" points="1217.607,1164.944 1236.4,1193.696 1267.122,1155.356 			"/>
			<polygon clip-path="url(#SVGID_4_)" fill="#A6794E" points="1217.348,1165.295 1226.344,1153.617 1267.122,1155.356 			"/>
			<polygon clip-path="url(#SVGID_4_)" fill="#C9AE8A" points="1267.122,1155.356 1217.533,1127.225 1217.828,1142.217 
				1226.344,1153.617 			"/>
			<polygon clip-path="url(#SVGID_4_)" fill="#A47751" points="1236.4,1193.696 1268.12,1175.387 1269.791,1198.606 			"/>
			<polygon clip-path="url(#SVGID_4_)" fill="#C4A678" points="1211.269,1164.75 1178.607,1166.466 1217.828,1142.217 			"/>
			<polygon clip-path="url(#SVGID_4_)" fill="#DFCEAB" points="1187.767,1128.225 1170.582,1128.859 1178.607,1166.466 			"/>
			<polygon clip-path="url(#SVGID_4_)" fill="#EAE2CB" points="1189.458,1101.063 1164.684,1100.923 1175.893,1109.012 			"/>
			<polygon clip-path="url(#SVGID_4_)" fill="#777964" points="1198.919,1103.866 1194.322,1070.926 1189.458,1101.063 			"/>
			<polygon clip-path="url(#SVGID_4_)" fill="#B6926A" points="1194.313,1070.699 1212.261,1098.811 1216.905,1099.228 
				1223.776,1090.313 1217.271,1081.605 1217.258,1081.658 			"/>
			<polygon clip-path="url(#SVGID_4_)" fill="#B4A391" points="1133.693,1141.731 1178.607,1166.466 1106.203,1175.983 			"/>
			<polygon clip-path="url(#SVGID_4_)" fill="#BBAE97" points="1227.144,1046.799 1242.269,1080.974 1219.163,1062.02 			"/>
		</g>
		<g>
			<defs>
				<ellipse id="SVGID_5_" cx="204.076" cy="1128.978" rx="91.733" ry="92.711"/>
			</defs>
			<clipPath id="SVGID_6_">
				<use xlink:href="#SVGID_5_"  overflow="visible"/>
			</clipPath>
			<polygon clip-path="url(#SVGID_6_)" fill="#E0B553" points="228.165,1008.64 245.387,989.545 233.235,979.919 216.438,991.44 			
				"/>
			<polygon clip-path="url(#SVGID_6_)" fill="#46442D" points="179.687,1211.667 52.222,1160.44 143.215,1039.684 			"/>
			<polygon clip-path="url(#SVGID_6_)" fill="#6B6331" points="156.8,1277.428 179.687,1211.667 52.222,1160.44 			"/>
			<path clip-path="url(#SVGID_6_)" fill="#47452B" d="M313.735,1239.682"/>
			<polygon clip-path="url(#SVGID_6_)" fill="#47452B" points="179.687,1211.667 307.248,1087.134 313.735,1239.682 			"/>
			<polygon clip-path="url(#SVGID_6_)" fill="#26322C" points="307.248,1087.134 179.687,1211.667 143.215,1039.684 			"/>
			<polygon clip-path="url(#SVGID_6_)" fill="#26322C" points="313.735,1239.682 358.334,1094.743 307.248,1087.134 			"/>
			<line clip-path="url(#SVGID_6_)" fill="#736D2E" x1="156.8" y1="1277.428" x2="179.687" y2="1211.667"/>
			<polygon clip-path="url(#SVGID_6_)" fill="#292F32" points="52.222,1160.44 113.62,988.786 143.215,1039.684 			"/>
			<path clip-path="url(#SVGID_6_)" fill="#0B132D" d="M303.515,1062.738"/>
			<polygon clip-path="url(#SVGID_6_)" fill="#0B132D" points="358.334,1094.743 307.248,1087.134 249.281,970.995 			"/>
			<g clip-path="url(#SVGID_6_)">
				<g>
					<path fill="#0B132D" d="M217.182,1009.814c0.858,0,2.002-1.303,0.696-1.303
						C217.021,1008.511,215.876,1009.814,217.182,1009.814L217.182,1009.814z"/>
				</g>
			</g>
			<polygon clip-path="url(#SVGID_6_)" fill="#0D1225" points="307.248,1087.134 143.215,1039.684 249.281,970.995 			"/>
			<polygon clip-path="url(#SVGID_6_)" fill="#0D1321" points="143.215,1039.684 113.62,988.786 249.281,970.995 			"/>
			<line clip-path="url(#SVGID_6_)" fill="#8E8239" x1="243.542" y1="1224.889" x2="313.901" y2="1239.51"/>
			<polygon clip-path="url(#SVGID_6_)" fill="#7E7165" points="179.539,1210.838 52.068,1159.616 143.063,1038.857 			"/>
			<polygon clip-path="url(#SVGID_6_)" fill="#837F84" points="156.65,1276.602 179.539,1210.838 52.068,1159.616 			"/>
			<path clip-path="url(#SVGID_6_)" fill="#47452B" d="M313.584,1238.854"/>
			<polygon clip-path="url(#SVGID_6_)" fill="#DBCAC5" points="179.539,1210.838 307.097,1086.307 313.584,1238.854 			"/>
			<path clip-path="url(#SVGID_6_)" fill="#26322C" d="M143.063,1038.857"/>
			<polygon clip-path="url(#SVGID_6_)" fill="#695B48" points="307.097,1086.307 179.539,1210.838 143.063,1038.857 			"/>
			<polygon clip-path="url(#SVGID_6_)" fill="#DECEC0" points="313.584,1238.854 358.182,1093.917 307.097,1086.307 			"/>
			<polygon clip-path="url(#SVGID_6_)" fill="#D1C4C8" points="313.584,1238.854 241.216,1261.354 156.65,1276.602 
				179.539,1210.838 			"/>
			<polygon clip-path="url(#SVGID_6_)" fill="#3F3A2F" points="52.068,1159.616 58.214,1071.151 113.468,987.961 143.063,1038.857 
							"/>
			<path clip-path="url(#SVGID_6_)" fill="#0B132D" d="M303.36,1061.914"/>
			<polygon clip-path="url(#SVGID_6_)" fill="#8A786A" points="358.334,1094.743 307.248,1087.134 249.281,970.995 			"/>
			<g clip-path="url(#SVGID_6_)">
				<g>
					<path fill="#0B132D" d="M217.029,1008.988c0.858,0,2.002-1.303,0.696-1.303
						C216.867,1007.685,215.723,1008.988,217.029,1008.988L217.029,1008.988z"/>
				</g>
			</g>
			<polygon clip-path="url(#SVGID_6_)" fill="#4F423F" points="307.097,1086.307 143.063,1038.857 174.643,1007.777 
				191.037,990.906 249.126,970.17 			"/>
			<polygon clip-path="url(#SVGID_6_)" fill="#675E5C" points="142.464,1039.67 113.468,987.961 251.108,969.5 190.994,991.451 
				175.364,1008.203 			"/>
			<line clip-path="url(#SVGID_6_)" fill="#8E8239" x1="243.388" y1="1224.063" x2="313.75" y2="1238.689"/>
			<polygon clip-path="url(#SVGID_6_)" fill="#C5B3B2" points="358.503,1094.322 348.969,1173.052 310.073,1160.527 			"/>
			<polygon clip-path="url(#SVGID_6_)" fill="#FFFBF6" points="348.969,1173.052 313.536,1239.795 310.162,1159.866 			"/>
			<polygon clip-path="url(#SVGID_6_)" fill="#494139" points="58.214,1071.151 142.668,1039.946 113.421,987.848 			"/>
			<polygon clip-path="url(#SVGID_6_)" fill="#85796B" points="307.007,1086.31 228.515,1082.138 250.223,1058.615 			"/>
			<polygon clip-path="url(#SVGID_6_)" fill="#FFFAEC" points="269.802,1229.684 247.462,1144.37 179.457,1211.071 			"/>
			<polygon clip-path="url(#SVGID_6_)" fill="#E8D9D5" points="313.536,1239.795 269.802,1229.684 258.966,1189.422 			"/>
			<g clip-path="url(#SVGID_6_)">
				<g>
					<path fill="#5B622B" d="M247.44,1173.167c0.595,0,2.098-0.902,0.804-0.902C247.648,1172.265,246.146,1173.167,247.44,1173.167
						L247.44,1173.167z"/>
				</g>
			</g>
			<polygon clip-path="url(#SVGID_6_)" fill="#C3B9BC" points="269.802,1229.684 236.332,1239.641 179.457,1211.071 			"/>
			<path clip-path="url(#SVGID_6_)" fill="#32311A" d="M314.39,1239.848"/>
			<path clip-path="url(#SVGID_6_)" fill="#38371F" d="M313.536,1239.795"/>
			<polygon clip-path="url(#SVGID_6_)" fill="#E0D6DE" points="314.39,1239.848 231.506,1270.676 236.332,1239.641 			"/>
			<polygon clip-path="url(#SVGID_6_)" fill="#A8B4A1" points="156.384,1277.484 231.506,1270.676 232.828,1261.397 			"/>
			<polygon clip-path="url(#SVGID_6_)" fill="#988D95" points="166.323,1249.572 155.762,1277.65 233.19,1261.193 			"/>
			<polygon clip-path="url(#SVGID_6_)" fill="#ADBBB6" points="156.384,1277.484 93.45,1227.322 119.373,1221.143 			"/>
			<polygon clip-path="url(#SVGID_6_)" fill="#A2A5A7" points="52.785,1160.647 93.77,1227.903 119.373,1221.143 			"/>
			<polygon clip-path="url(#SVGID_6_)" fill="#AB9FA8" points="249.997,969.517 311.174,1012.948 303.706,1032.026 			"/>
			<polygon clip-path="url(#SVGID_6_)" fill="#BDAFB9" points="303.706,1032.026 268.439,1007.487 249.997,969.517 			"/>
			<polygon clip-path="url(#SVGID_6_)" fill="#77655E" points="311.174,1012.948 319.596,1050.104 303.706,1032.026 			"/>
			<polygon clip-path="url(#SVGID_6_)" fill="#849391" points="249.997,969.517 229.444,963.575 224.791,973.855 			"/>
			<polygon clip-path="url(#SVGID_6_)" fill="#8F888F" points="359.09,1096.198 319.73,1052.223 311.616,1014.614 			"/>
			<polygon clip-path="url(#SVGID_6_)" fill="#B2A9B0" points="236.352,979.711 194.167,968.317 229.444,963.575 			"/>
			<polygon clip-path="url(#SVGID_6_)" fill="#FFEDCE" points="113.421,987.848 194.167,968.317 189.069,978.465 			"/>
			<polygon clip-path="url(#SVGID_6_)" fill="#867D83" points="234.384,977.799 217.037,996.731 194.167,968.317 			"/>
			<polygon clip-path="url(#SVGID_6_)" fill="#847A69" points="143.215,1039.684 152.928,1085.588 161.373,1052.345 			"/>
			<polygon clip-path="url(#SVGID_6_)" fill="#514738" points="152.928,1085.588 91.519,1107.167 143.215,1039.684 			"/>
			<polygon clip-path="url(#SVGID_6_)" fill="#4C4235" points="52.068,1159.616 89.395,1098.733 143.215,1039.684 			"/>
			<polygon clip-path="url(#SVGID_6_)" fill="#CED0C5" points="166.323,1249.572 138.138,1194.086 179.904,1210.989 			"/>
			<polygon clip-path="url(#SVGID_6_)" fill="#C3C6C5" points="180.216,1211.029 119.373,1221.143 51.532,1159.156 			"/>
			<polygon clip-path="url(#SVGID_6_)" fill="#3C3828" points="58.214,1071.151 89.395,1098.733 143.215,1039.684 			"/>
			<polygon clip-path="url(#SVGID_6_)" fill="#887F86" points="165.686,1145.471 51.532,1159.156 179.539,1210.838 			"/>
			<path clip-path="url(#SVGID_6_)" fill="#26322C" d="M168.386,963.472"/>
			<polygon clip-path="url(#SVGID_6_)" fill="#978E98" points="191.21,991.273 185.179,970.037 194.791,968.344 209.682,979.386 
				208.584,991.371 			"/>
			<polygon clip-path="url(#SVGID_6_)" fill="#87807E" points="208.584,991.371 210.001,979.194 228.062,1008.594 			"/>
			<polygon clip-path="url(#SVGID_6_)" fill="#938374" points="248.825,1033.236 238.588,1022.562 227.305,1037.063 
				249.959,1038.719 			"/>
			<polygon clip-path="url(#SVGID_6_)" fill="#463A2D" points="220.774,1036.622 198.47,1044.438 200.097,1073.393 			"/>
			<polygon clip-path="url(#SVGID_6_)" fill="#5F5447" points="198.47,1044.438 183.204,1039.913 200.094,1073.295 			"/>
			<polygon clip-path="url(#SVGID_6_)" fill="#52463A" points="250.223,1058.615 228.515,1082.138 200.097,1073.393 
				220.009,1036.28 249.959,1038.719 			"/>
			<polygon clip-path="url(#SVGID_6_)" fill="#887F85" points="228.093,1008.509 191.052,991.269 208.584,991.371 			"/>
			<path clip-path="url(#SVGID_6_)" fill="#26322C" d="M150.785,1047.348"/>
			<polygon clip-path="url(#SVGID_6_)" fill="#716453" points="152.736,1084.777 161.308,1051.928 183.834,1040.104 
				200.199,1072.689 203.439,1083.879 			"/>
			<polygon clip-path="url(#SVGID_6_)" fill="#85796F" points="203.439,1083.879 228.515,1082.138 228.991,1106.333 			"/>
			<polygon clip-path="url(#SVGID_6_)" fill="#9E9188" points="242.735,1124.733 228.216,1143.583 218.405,1142.7 228.991,1106.333 
							"/>
			<polygon clip-path="url(#SVGID_6_)" fill="#A9A198" points="259.426,1144.634 242.735,1124.733 227.957,1143.721 
				257.627,1145.896 			"/>
			<polyline clip-path="url(#SVGID_6_)" fill="#978776" points="257.979,1171.956 180.127,1210.623 218.405,1142.7 
				257.627,1145.896 258.234,1173.327 			"/>
			<polygon clip-path="url(#SVGID_6_)" fill="#968776" points="228.991,1106.333 180.469,1083.752 203.439,1083.879 			"/>
			<polygon clip-path="url(#SVGID_6_)" fill="#7C6D62" points="249.959,1038.719 307.058,1086.324 250.223,1058.615 			"/>
			<polygon clip-path="url(#SVGID_6_)" fill="#B6A790" points="248.825,1033.236 267.379,1006.831 307.058,1086.324 
				249.608,1039.104 			"/>
			<polygon clip-path="url(#SVGID_6_)" fill="#C5B6AD" points="228.633,1143.011 258.966,1189.422 308.552,1127.539 			"/>
			<polygon clip-path="url(#SVGID_6_)" fill="#9A8A7B" points="228.216,1143.583 242.735,1124.733 308.552,1127.539 			"/>
			<polygon clip-path="url(#SVGID_6_)" fill="#7C6B5B" points="308.552,1127.539 228.515,1082.138 228.991,1106.333 
				242.735,1124.733 			"/>
			<polygon clip-path="url(#SVGID_6_)" fill="#BFAF9E" points="258.966,1189.422 310.162,1159.866 312.856,1197.348 			"/>
			<polygon clip-path="url(#SVGID_6_)" fill="#B9AA9B" points="218.405,1142.7 165.686,1145.471 228.991,1106.333 			"/>
			<polygon clip-path="url(#SVGID_6_)" fill="#948577" points="180.469,1083.752 152.736,1084.777 165.686,1145.471 			"/>
			<polygon clip-path="url(#SVGID_6_)" fill="#463A2D" points="183.204,1039.913 143.215,1039.684 161.31,1052.742 			"/>
			<polygon clip-path="url(#SVGID_6_)" fill="#71676A" points="198.47,1044.438 191.052,991.269 183.204,1039.913 			"/>
			<polygon clip-path="url(#SVGID_6_)" fill="#5B4D3D" points="191.037,990.906 220.009,1036.28 227.498,1036.951 238.588,1022.562 
				228.093,1008.509 228.067,1008.595 			"/>
			<polygon clip-path="url(#SVGID_6_)" fill="#716A5E" points="93.198,1105.553 165.686,1145.471 48.831,1160.832 			"/>
			<polygon clip-path="url(#SVGID_6_)" fill="#8D7F89" points="244.027,952.333 268.439,1007.487 231.144,976.9 			"/>
		</g>
	</g>
</g>
</svg>
