<?xml version="1.0" encoding="utf-8"?>
<!-- Generator: Adobe Illustrator 16.0.0, SVG Export Plug-In . SVG Version: 6.00 Build 0)  -->
<!DOCTYPE svg PUBLIC "-//W3C//DTD SVG 1.1//EN" "http://www.w3.org/Graphics/SVG/1.1/DTD/svg11.dtd">
<svg version="1.1" id="Layer_1" xmlns="http://www.w3.org/2000/svg" xmlns:xlink="http://www.w3.org/1999/xlink" x="0px" y="0px"
	 width="512px" height="512px" viewBox="0 0 512 512" enable-background="new 0 0 512 512" xml:space="preserve">
<g display="none">
	<circle display="inline" fill="#071C2C" cx="256" cy="256" r="252.262"/>
	<g display="inline">
		<g>
			<path fill="#FADF8D" d="M383.415,33.771C260.682-36.601,104.14,5.852,33.771,128.583
				c-70.369,122.735-27.921,279.274,94.81,349.646c122.735,70.372,279.277,27.924,349.648-94.812
				C548.598,260.682,506.148,104.142,383.415,33.771z M469.58,367.035c-11.919,20.786-61.294,19.321-69.942,7.362
				c-11.678-16.152-10.747-11.724-21.823-12.536c-17.316-1.272-26.073,5.563-35.519,6.02c-9.803,0.473-29.384-18.59-40.882-21.055
				c-16.021-3.437-37.36,4.466-43.153,4.533c-5.791,0.066-18.495-4.027-30.089-15.362c-0.95-0.93-1.885-1.632-2.808-2.168
				c-0.873-6.535-1.119-12.66,0.165-15.354c5.515-11.603,26.458-12.49,28.034-24.282c1.088-8.145-6.662-20.693-8.746-28.688
				c-1.649-6.346-2.281-15.802-1.311-24.764c2.036-10.392,16.162-26.808,16.162-26.808c1.423-2.479,1.32-5.504,0.021-8.363
				c10.454-2.109,23.526-12.633,34.777-28.316c0.113,0.07,0.232,0.143,0.354,0.201c0.892,0.447,1.854,0.59,2.775,0.473l3.497,18.497
				c-0.283,0.242-0.525,0.548-0.708,0.908c-0.433,0.866-0.396,1.846,0.011,2.646l-4.54,6.764c0.061,0.021,0.119,0.055,0.178,0.076
				c-1.988-0.721-4.303-0.272-5.873,1.339c-0.104,0.108-0.132,0.264-0.08,0.397c0.017,0.051,0.046,0.092,0.084,0.134l0.249,0.239
				l0.46,0.451l0.274,0.269c0.067,0.067,0.167,0.104,0.264,0.104c0.101-0.004,0.199-0.042,0.268-0.113
				c1.318-1.355,3.497-1.385,4.854-0.066c0.354,0.348,0.622,0.753,0.801,1.209c0.49,1.252,0.201,2.684-0.736,3.646
				c-0.107,0.113-0.134,0.268-0.082,0.401c0.019,0.046,0.05,0.093,0.088,0.13l0.982,0.959c0.069,0.066,0.167,0.104,0.264,0.104
				c0.103,0,0.201-0.042,0.268-0.113c1.52-1.558,1.984-3.876,1.193-5.901c-0.143-0.36-0.316-0.703-0.528-1.021l5.015-7.472
				c-0.025-0.005-0.054-0.009-0.083-0.009c0.81-0.201,1.532-0.724,1.934-1.527c0.645-1.281,0.264-2.801-0.827-3.65l-3.872-20.477
				c0.106-0.172,0.215-0.344,0.308-0.527c1.078-2.144,0.394-4.705-1.505-6.057c0.01-0.018,0.023-0.034,0.033-0.055l0.103,0.059
				l1.851-3.228l-18.372-10.535c1.392-0.356,2.681-1.08,3.729-2.118l11.553,6.617c1.921,1.105,3.374,0.767,4.408,0.034h0.006
				c0,0,0.002-0.005,0.008-0.009l0.008-0.008c0.394-0.281,0.724-0.62,0.999-0.959c1.302-2.336,2.495-4.676,3.577-7.007
				c1.653,0.996,3.832,0.661,5.088-0.879c1.377-1.687,1.13-4.169-0.559-5.551c-0.458-0.376-0.978-0.624-1.52-0.762
				c7.032-18.836,6.536-35.771-2.122-41.845c0.869-3.973,0.169-12.444-0.036-14.667c0.62-0.335,1.16-0.842,1.539-1.499
				c1.082-1.892,0.429-4.299-1.459-5.379c-1.892-1.088-4.303-0.435-5.385,1.457c-1.084,1.884-0.429,4.295,1.46,5.379
				c0.264,0.15,0.534,0.264,0.812,0.348c0.266,3.695,0.316,9.883-1.961,12.293c-9.531-1.72-22.683,6.254-34.097,20.251
				c-0.09-0.092-0.186-0.18-0.289-0.264c-1.687-1.377-4.169-1.13-5.551,0.557c-1.377,1.687-1.13,4.169,0.557,5.546
				c0.187,0.155,0.385,0.285,0.593,0.402c-1.438,2.072-2.832,4.244-4.167,6.5c-0.18,0.439-0.329,0.946-0.379,1.486
				c0,0,0,0.008-0.002,0.013c0.002,0.004,0,0.013,0,0.013h0.002c-0.113,1.256,0.331,2.688,2.254,3.788l10.998,6.308
				c-0.37,1.428-0.341,2.909,0.052,4.291l-17.396-9.975l-0.012,0.016l-0.019-0.012c-0.371,0.648-0.734,1.297-1.09,1.946l-0.732,1.28
				l0.031,0.009c-0.017,0.029-0.027,0.055-0.042,0.079c-2.162-1.096-4.849-0.414-6.197,1.666c-0.113,0.172-0.205,0.352-0.293,0.536
				l-19.636,6.999c-1.281-0.516-2.788-0.071-3.566,1.13c-0.485,0.749-0.575,1.641-0.339,2.437c-0.017-0.021-0.033-0.038-0.048-0.063
				l-3.761,7.786c-2.884-0.076-5.383,2.101-5.659,5.014c-0.015,0.155,0.063,0.289,0.184,0.364c0.042,0.021,0.092,0.038,0.146,0.046
				l0.348,0.034l0.641,0.059l0.376,0.037c0.101,0.009,0.201-0.021,0.276-0.083c0.077-0.063,0.127-0.155,0.136-0.256
				c0.178-1.884,1.856-3.27,3.742-3.089c0.494,0.046,0.961,0.192,1.381,0.436c1.17,0.674,1.842,1.967,1.712,3.307
				c-0.01,0.15,0.065,0.293,0.19,0.364c0.044,0.021,0.092,0.041,0.149,0.046l1.364,0.134c0.099,0.004,0.199-0.025,0.274-0.092
				c0.075-0.063,0.127-0.15,0.136-0.252c0.174-1.824-0.58-3.595-1.948-4.755l3.353-6.939c0.898-0.055,1.762-0.515,2.29-1.331
				c0.22-0.335,0.358-0.695,0.427-1.067l17.731-6.325c0.36,0.858,0.971,1.616,1.808,2.156c0.182,0.121,0.369,0.217,0.561,0.305
				c-7.909,17.773-10.355,34.491-6.771,44.55c-2.993,0.385-5.529,1.813-6.904,4.211c0,0-18.724,19.36-51.38,24.526
				c-3.905,0.618-10.155,1.607-13.52,3.546c-6.365,3.679-15.184,18.731-19.937,20.2c-5.345,1.645-7.516,2.4-10.24,3.872
				c3.977-22.555-15.11-46.083-39.098-53.418c-16.768-5.127-37.358-10.674-44.934,3.281c-4.031,7.414-24.294-33.247-1.582-72.861
				c63.76-111.203,208.11-148.223,322.417-82.682C492.365,112.553,533.337,255.832,469.58,367.035z"/>
		</g>
	</g>
</g>
<g display="none">
	<path display="inline" fill="#FADF8D" d="M473.713,380.828c-68.941,120.241-222.302,161.827-342.543,92.885
		c-120.237-68.941-161.823-222.3-92.883-342.541c68.939-120.237,222.3-161.827,342.54-92.886
		C501.065,107.228,542.653,260.587,473.713,380.828z"/>
	<g display="inline">
		<g>
			<path fill="#071C2C" d="M383.415,33.771C260.682-36.601,104.14,5.852,33.771,128.583
				c-70.369,122.735-27.921,279.274,94.81,349.646c122.735,70.372,279.277,27.924,349.648-94.812
				C548.598,260.682,506.148,104.142,383.415,33.771z M469.58,367.035c-11.919,20.786-61.294,19.321-69.942,7.362
				c-11.678-16.152-10.747-11.724-21.823-12.536c-17.316-1.272-26.073,5.563-35.519,6.02c-9.803,0.473-29.384-18.59-40.882-21.055
				c-16.021-3.437-37.36,4.466-43.153,4.533c-5.791,0.066-18.495-4.027-30.089-15.362c-0.95-0.93-1.885-1.632-2.808-2.168
				c-0.873-6.535-1.119-12.66,0.165-15.354c5.515-11.603,26.458-12.49,28.034-24.282c1.088-8.145-6.662-20.693-8.746-28.688
				c-1.649-6.346-2.281-15.802-1.311-24.764c2.036-10.392,16.162-26.808,16.162-26.808c1.423-2.479,1.32-5.504,0.021-8.363
				c10.454-2.109,23.526-12.633,34.777-28.316c0.113,0.07,0.232,0.143,0.354,0.201c0.892,0.447,1.854,0.59,2.775,0.473l3.497,18.497
				c-0.283,0.242-0.525,0.548-0.708,0.908c-0.433,0.866-0.396,1.846,0.011,2.646l-4.54,6.764c0.061,0.021,0.119,0.055,0.178,0.076
				c-1.988-0.721-4.303-0.272-5.873,1.339c-0.104,0.108-0.132,0.264-0.08,0.397c0.017,0.051,0.046,0.092,0.084,0.134l0.249,0.239
				l0.46,0.451l0.274,0.269c0.067,0.067,0.167,0.104,0.264,0.104c0.101-0.004,0.199-0.042,0.268-0.113
				c1.318-1.355,3.497-1.385,4.854-0.066c0.354,0.348,0.622,0.753,0.801,1.209c0.49,1.252,0.201,2.684-0.736,3.646
				c-0.107,0.113-0.134,0.268-0.082,0.401c0.019,0.046,0.05,0.093,0.088,0.13l0.982,0.959c0.069,0.066,0.167,0.104,0.264,0.104
				c0.103,0,0.201-0.042,0.268-0.113c1.52-1.558,1.984-3.876,1.193-5.901c-0.143-0.36-0.316-0.703-0.528-1.021l5.015-7.472
				c-0.025-0.005-0.054-0.009-0.083-0.009c0.81-0.201,1.532-0.724,1.934-1.527c0.645-1.281,0.264-2.801-0.827-3.65l-3.872-20.477
				c0.106-0.172,0.215-0.344,0.308-0.527c1.078-2.144,0.394-4.705-1.505-6.057c0.01-0.018,0.023-0.034,0.033-0.055l0.103,0.059
				l1.851-3.228l-18.372-10.535c1.392-0.356,2.681-1.08,3.729-2.118l11.553,6.617c1.921,1.105,3.374,0.767,4.408,0.034h0.006
				c0,0,0.002-0.005,0.008-0.009l0.008-0.008c0.394-0.281,0.724-0.62,0.999-0.959c1.302-2.336,2.495-4.676,3.577-7.007
				c1.653,0.996,3.832,0.661,5.088-0.879c1.377-1.687,1.13-4.169-0.559-5.551c-0.458-0.376-0.978-0.624-1.52-0.762
				c7.032-18.836,6.536-35.771-2.122-41.845c0.869-3.973,0.169-12.444-0.036-14.667c0.62-0.335,1.16-0.842,1.539-1.499
				c1.082-1.892,0.429-4.299-1.459-5.379c-1.892-1.088-4.303-0.435-5.385,1.457c-1.084,1.884-0.429,4.295,1.46,5.379
				c0.264,0.15,0.534,0.264,0.812,0.348c0.266,3.695,0.316,9.883-1.961,12.293c-9.531-1.72-22.683,6.254-34.097,20.251
				c-0.09-0.092-0.186-0.18-0.289-0.264c-1.687-1.377-4.169-1.13-5.551,0.557c-1.377,1.687-1.13,4.169,0.557,5.546
				c0.187,0.155,0.385,0.285,0.593,0.402c-1.438,2.072-2.832,4.244-4.167,6.5c-0.18,0.439-0.329,0.946-0.379,1.486
				c0,0,0,0.008-0.002,0.013c0.002,0.004,0,0.013,0,0.013h0.002c-0.113,1.256,0.331,2.688,2.254,3.788l10.998,6.308
				c-0.37,1.428-0.341,2.909,0.052,4.291l-17.396-9.975l-0.012,0.016l-0.019-0.012c-0.371,0.648-0.734,1.297-1.09,1.946l-0.732,1.28
				l0.031,0.009c-0.017,0.029-0.027,0.055-0.042,0.079c-2.162-1.096-4.849-0.414-6.197,1.666c-0.113,0.172-0.205,0.352-0.293,0.536
				l-19.636,6.999c-1.281-0.516-2.788-0.071-3.566,1.13c-0.485,0.749-0.575,1.641-0.339,2.437c-0.017-0.021-0.033-0.038-0.048-0.063
				l-3.761,7.786c-2.884-0.076-5.383,2.101-5.659,5.014c-0.015,0.155,0.063,0.289,0.184,0.364c0.042,0.021,0.092,0.038,0.146,0.046
				l0.348,0.034l0.641,0.059l0.376,0.037c0.101,0.009,0.201-0.021,0.276-0.083c0.077-0.063,0.127-0.155,0.136-0.256
				c0.178-1.884,1.856-3.27,3.742-3.089c0.494,0.046,0.961,0.192,1.381,0.436c1.17,0.674,1.842,1.967,1.712,3.307
				c-0.01,0.15,0.065,0.293,0.19,0.364c0.044,0.021,0.092,0.041,0.149,0.046l1.364,0.134c0.099,0.004,0.199-0.025,0.274-0.092
				c0.075-0.063,0.127-0.15,0.136-0.252c0.174-1.824-0.58-3.595-1.948-4.755l3.353-6.939c0.898-0.055,1.762-0.515,2.29-1.331
				c0.22-0.335,0.358-0.695,0.427-1.067l17.731-6.325c0.36,0.858,0.971,1.616,1.808,2.156c0.182,0.121,0.369,0.217,0.561,0.305
				c-7.909,17.773-10.355,34.491-6.771,44.55c-2.993,0.385-5.529,1.813-6.904,4.211c0,0-18.724,19.36-51.38,24.526
				c-3.905,0.618-10.155,1.607-13.52,3.546c-6.365,3.679-15.184,18.731-19.937,20.2c-5.345,1.645-7.516,2.4-10.24,3.872
				c3.977-22.555-15.11-46.083-39.098-53.418c-16.768-5.127-37.358-10.674-44.934,3.281c-4.031,7.414-24.294-33.247-1.582-72.861
				c63.76-111.203,208.11-148.223,322.417-82.682C492.365,112.553,533.337,255.832,469.58,367.035z"/>
		</g>
	</g>
</g>
<g>
	<g>
		<path d="M383.416,33.771C260.683-36.601,104.141,5.852,33.771,128.583c-70.369,122.735-27.921,279.274,94.81,349.646
			c122.735,70.372,279.277,27.924,349.648-94.812C548.599,260.682,506.148,104.142,383.416,33.771z M469.58,367.035
			c-11.919,20.786-61.294,19.321-69.942,7.362c-11.678-16.152-10.747-11.724-21.823-12.536c-17.316-1.272-26.073,5.563-35.519,6.02
			c-9.803,0.473-29.384-18.59-40.882-21.055c-16.021-3.437-37.36,4.466-43.153,4.533c-5.791,0.066-18.495-4.027-30.089-15.362
			c-0.95-0.93-1.885-1.632-2.808-2.168c-0.874-6.535-1.119-12.66,0.164-15.354c5.515-11.603,26.458-12.49,28.034-24.282
			c1.088-8.145-6.662-20.693-8.746-28.688c-1.649-6.346-2.281-15.802-1.311-24.764c2.036-10.392,16.162-26.808,16.162-26.808
			c1.423-2.479,1.32-5.504,0.021-8.363c10.454-2.109,23.526-12.633,34.777-28.316c0.113,0.07,0.232,0.143,0.354,0.201
			c0.892,0.447,1.854,0.59,2.775,0.473l3.497,18.497c-0.283,0.242-0.525,0.548-0.708,0.908c-0.433,0.866-0.396,1.846,0.011,2.646
			l-4.54,6.764c0.061,0.021,0.119,0.055,0.178,0.076c-1.988-0.721-4.303-0.272-5.873,1.339c-0.104,0.108-0.132,0.264-0.08,0.397
			c0.017,0.051,0.046,0.092,0.084,0.134l0.249,0.239l0.46,0.451l0.274,0.269c0.067,0.067,0.167,0.104,0.264,0.104
			c0.101-0.004,0.199-0.042,0.268-0.113c1.318-1.355,3.497-1.385,4.854-0.066c0.354,0.348,0.622,0.753,0.801,1.209
			c0.49,1.252,0.201,2.684-0.736,3.646c-0.107,0.113-0.134,0.268-0.082,0.401c0.019,0.046,0.05,0.093,0.088,0.13l0.982,0.959
			c0.069,0.066,0.167,0.104,0.264,0.104c0.103,0,0.201-0.042,0.268-0.113c1.52-1.558,1.984-3.876,1.193-5.901
			c-0.143-0.36-0.316-0.703-0.528-1.021l5.015-7.472c-0.025-0.005-0.054-0.009-0.083-0.009c0.81-0.201,1.532-0.724,1.934-1.527
			c0.645-1.281,0.264-2.801-0.827-3.65l-3.872-20.477c0.106-0.172,0.215-0.344,0.308-0.527c1.078-2.144,0.394-4.705-1.505-6.057
			c0.01-0.018,0.023-0.034,0.033-0.055l0.103,0.059l1.851-3.228l-18.372-10.535c1.392-0.356,2.681-1.08,3.729-2.118l11.553,6.617
			c1.921,1.105,3.374,0.767,4.408,0.034h0.006c0,0,0.002-0.005,0.008-0.009l0.008-0.008c0.394-0.281,0.724-0.62,0.999-0.959
			c1.302-2.336,2.495-4.676,3.577-7.007c1.653,0.996,3.832,0.661,5.088-0.879c1.377-1.687,1.13-4.169-0.559-5.551
			c-0.458-0.376-0.978-0.624-1.52-0.762c7.032-18.836,6.536-35.771-2.122-41.845c0.869-3.973,0.169-12.444-0.036-14.667
			c0.62-0.335,1.16-0.842,1.539-1.499c1.082-1.892,0.429-4.299-1.459-5.379c-1.892-1.088-4.303-0.435-5.385,1.457
			c-1.084,1.884-0.429,4.295,1.46,5.379c0.264,0.15,0.534,0.264,0.812,0.348c0.266,3.695,0.316,9.883-1.961,12.293
			c-9.531-1.72-22.683,6.254-34.097,20.251c-0.09-0.092-0.186-0.18-0.289-0.264c-1.687-1.377-4.169-1.13-5.551,0.557
			c-1.377,1.687-1.13,4.169,0.557,5.546c0.187,0.155,0.385,0.285,0.593,0.402c-1.438,2.072-2.832,4.244-4.167,6.5
			c-0.18,0.439-0.329,0.946-0.379,1.486c0,0,0,0.008-0.002,0.013c0.002,0.004,0,0.013,0,0.013h0.002
			c-0.113,1.256,0.331,2.688,2.254,3.788l10.998,6.308c-0.37,1.428-0.341,2.909,0.052,4.291l-17.396-9.975l-0.012,0.016
			l-0.019-0.012c-0.371,0.648-0.734,1.297-1.09,1.946l-0.732,1.28l0.031,0.009c-0.017,0.029-0.027,0.055-0.042,0.079
			c-2.162-1.096-4.849-0.414-6.197,1.666c-0.113,0.172-0.205,0.352-0.293,0.536l-19.636,6.999c-1.281-0.516-2.788-0.071-3.566,1.13
			c-0.485,0.749-0.575,1.641-0.339,2.437c-0.017-0.021-0.033-0.038-0.048-0.063l-3.761,7.786c-2.884-0.076-5.383,2.101-5.659,5.014
			c-0.015,0.155,0.063,0.289,0.184,0.364c0.042,0.021,0.092,0.038,0.146,0.046l0.348,0.034l0.641,0.059l0.376,0.037
			c0.101,0.009,0.201-0.021,0.276-0.083c0.077-0.063,0.127-0.155,0.136-0.256c0.178-1.884,1.856-3.27,3.742-3.089
			c0.494,0.046,0.961,0.192,1.381,0.436c1.17,0.674,1.842,1.967,1.712,3.307c-0.01,0.15,0.065,0.293,0.19,0.364
			c0.044,0.021,0.092,0.041,0.149,0.046l1.364,0.134c0.099,0.004,0.199-0.025,0.274-0.092c0.075-0.063,0.127-0.15,0.136-0.252
			c0.174-1.824-0.58-3.595-1.948-4.755l3.353-6.939c0.898-0.055,1.762-0.515,2.29-1.331c0.22-0.335,0.358-0.695,0.427-1.067
			l17.731-6.325c0.36,0.858,0.971,1.616,1.808,2.156c0.182,0.121,0.369,0.217,0.561,0.305c-7.909,17.773-10.355,34.491-6.771,44.55
			c-2.993,0.385-5.529,1.813-6.904,4.211c0,0-18.724,19.36-51.38,24.526c-3.905,0.618-10.155,1.607-13.52,3.546
			c-6.365,3.679-15.184,18.731-19.937,20.2c-5.345,1.645-7.516,2.4-10.24,3.872c3.977-22.555-15.11-46.083-39.098-53.418
			c-16.768-5.127-37.358-10.674-44.934,3.281c-4.031,7.414-24.294-33.247-1.582-72.861c63.76-111.203,208.11-148.223,322.417-82.682
			C492.365,112.553,533.338,255.832,469.58,367.035z"/>
	</g>
</g>
<g display="none">
	<g display="inline">
		<path fill="#FFFFFF" d="M383.416,33.771C260.683-36.601,104.141,5.852,33.771,128.583
			c-70.369,122.735-27.921,279.274,94.81,349.646c122.735,70.372,279.277,27.924,349.648-94.812
			C548.599,260.682,506.148,104.142,383.416,33.771z M469.58,367.035c-11.919,20.786-61.294,19.321-69.942,7.362
			c-11.678-16.152-10.747-11.724-21.823-12.536c-17.316-1.272-26.073,5.563-35.519,6.02c-9.803,0.473-29.384-18.59-40.882-21.055
			c-16.021-3.437-37.36,4.466-43.153,4.533c-5.791,0.066-18.495-4.027-30.089-15.362c-0.95-0.93-1.885-1.632-2.808-2.168
			c-0.874-6.535-1.119-12.66,0.164-15.354c5.515-11.603,26.458-12.49,28.034-24.282c1.088-8.145-6.662-20.693-8.746-28.688
			c-1.649-6.346-2.281-15.802-1.311-24.764c2.036-10.392,16.162-26.808,16.162-26.808c1.423-2.479,1.32-5.504,0.021-8.363
			c10.454-2.109,23.526-12.633,34.777-28.316c0.113,0.07,0.232,0.143,0.354,0.201c0.892,0.447,1.854,0.59,2.775,0.473l3.497,18.497
			c-0.283,0.242-0.525,0.548-0.708,0.908c-0.433,0.866-0.396,1.846,0.011,2.646l-4.54,6.764c0.061,0.021,0.119,0.055,0.178,0.076
			c-1.988-0.721-4.303-0.272-5.873,1.339c-0.104,0.108-0.132,0.264-0.08,0.397c0.017,0.051,0.046,0.092,0.084,0.134l0.249,0.239
			l0.46,0.451l0.274,0.269c0.067,0.067,0.167,0.104,0.264,0.104c0.101-0.004,0.199-0.042,0.268-0.113
			c1.318-1.355,3.497-1.385,4.854-0.066c0.354,0.348,0.622,0.753,0.801,1.209c0.49,1.252,0.201,2.684-0.736,3.646
			c-0.107,0.113-0.134,0.268-0.082,0.401c0.019,0.046,0.05,0.093,0.088,0.13l0.982,0.959c0.069,0.066,0.167,0.104,0.264,0.104
			c0.103,0,0.201-0.042,0.268-0.113c1.52-1.558,1.984-3.876,1.193-5.901c-0.143-0.36-0.316-0.703-0.528-1.021l5.015-7.472
			c-0.025-0.005-0.054-0.009-0.083-0.009c0.81-0.201,1.532-0.724,1.934-1.527c0.645-1.281,0.264-2.801-0.827-3.65l-3.872-20.477
			c0.106-0.172,0.215-0.344,0.308-0.527c1.078-2.144,0.394-4.705-1.505-6.057c0.01-0.018,0.023-0.034,0.033-0.055l0.103,0.059
			l1.851-3.228l-18.372-10.535c1.392-0.356,2.681-1.08,3.729-2.118l11.553,6.617c1.921,1.105,3.374,0.767,4.408,0.034h0.006
			c0,0,0.002-0.005,0.008-0.009l0.008-0.008c0.394-0.281,0.724-0.62,0.999-0.959c1.302-2.336,2.495-4.676,3.577-7.007
			c1.653,0.996,3.832,0.661,5.088-0.879c1.377-1.687,1.13-4.169-0.559-5.551c-0.458-0.376-0.978-0.624-1.52-0.762
			c7.032-18.836,6.536-35.771-2.122-41.845c0.869-3.973,0.169-12.444-0.036-14.667c0.62-0.335,1.16-0.842,1.539-1.499
			c1.082-1.892,0.429-4.299-1.459-5.379c-1.892-1.088-4.303-0.435-5.385,1.457c-1.084,1.884-0.429,4.295,1.46,5.379
			c0.264,0.15,0.534,0.264,0.812,0.348c0.266,3.695,0.316,9.883-1.961,12.293c-9.531-1.72-22.683,6.254-34.097,20.251
			c-0.09-0.092-0.186-0.18-0.289-0.264c-1.687-1.377-4.169-1.13-5.551,0.557c-1.377,1.687-1.13,4.169,0.557,5.546
			c0.187,0.155,0.385,0.285,0.593,0.402c-1.438,2.072-2.832,4.244-4.167,6.5c-0.18,0.439-0.329,0.946-0.379,1.486
			c0,0,0,0.008-0.002,0.013c0.002,0.004,0,0.013,0,0.013h0.002c-0.113,1.256,0.331,2.688,2.254,3.788l10.998,6.308
			c-0.37,1.428-0.341,2.909,0.052,4.291l-17.396-9.975l-0.012,0.016l-0.019-0.012c-0.371,0.648-0.734,1.297-1.09,1.946l-0.732,1.28
			l0.031,0.009c-0.017,0.029-0.027,0.055-0.042,0.079c-2.162-1.096-4.849-0.414-6.197,1.666c-0.113,0.172-0.205,0.352-0.293,0.536
			l-19.636,6.999c-1.281-0.516-2.788-0.071-3.566,1.13c-0.485,0.749-0.575,1.641-0.339,2.437c-0.017-0.021-0.033-0.038-0.048-0.063
			l-3.761,7.786c-2.884-0.076-5.383,2.101-5.659,5.014c-0.015,0.155,0.063,0.289,0.184,0.364c0.042,0.021,0.092,0.038,0.146,0.046
			l0.348,0.034l0.641,0.059l0.376,0.037c0.101,0.009,0.201-0.021,0.276-0.083c0.077-0.063,0.127-0.155,0.136-0.256
			c0.178-1.884,1.856-3.27,3.742-3.089c0.494,0.046,0.961,0.192,1.381,0.436c1.17,0.674,1.842,1.967,1.712,3.307
			c-0.01,0.15,0.065,0.293,0.19,0.364c0.044,0.021,0.092,0.041,0.149,0.046l1.364,0.134c0.099,0.004,0.199-0.025,0.274-0.092
			c0.075-0.063,0.127-0.15,0.136-0.252c0.174-1.824-0.58-3.595-1.948-4.755l3.353-6.939c0.898-0.055,1.762-0.515,2.29-1.331
			c0.22-0.335,0.358-0.695,0.427-1.067l17.731-6.325c0.36,0.858,0.971,1.616,1.808,2.156c0.182,0.121,0.369,0.217,0.561,0.305
			c-7.909,17.773-10.355,34.491-6.771,44.55c-2.993,0.385-5.529,1.813-6.904,4.211c0,0-18.724,19.36-51.38,24.526
			c-3.905,0.618-10.155,1.607-13.52,3.546c-6.365,3.679-15.184,18.731-19.937,20.2c-5.345,1.645-7.516,2.4-10.24,3.872
			c3.977-22.555-15.11-46.083-39.098-53.418c-16.768-5.127-37.358-10.674-44.934,3.281c-4.031,7.414-24.294-33.247-1.582-72.861
			c63.76-111.203,208.11-148.223,322.417-82.682C492.365,112.553,533.338,255.832,469.58,367.035z"/>
	</g>
</g>
</svg>
