<?xml version="1.0" encoding="utf-8"?>
<!-- Generator: Adobe Illustrator 16.0.0, SVG Export Plug-In . SVG Version: 6.00 Build 0)  -->
<!DOCTYPE svg PUBLIC "-//W3C//DTD SVG 1.1//EN" "http://www.w3.org/Graphics/SVG/1.1/DTD/svg11.dtd">
<svg version="1.1" id="Layer_1" xmlns="http://www.w3.org/2000/svg" xmlns:xlink="http://www.w3.org/1999/xlink" x="0px" y="0px"
	 width="1500px" height="1500px" viewBox="0 0 1500 1500" enable-background="new 0 0 1500 1500" xml:space="preserve">
<g id="Mars">
	<g id="FG_2_">
		<g>
			<defs>
				<path id="SVGID_1_" d="M1024.121,799.747c20.853-20.726,50.646-24.903,66.534-9.328c15.893,15.571,11.87,44.995-8.986,65.719
					c-20.856,20.728-50.646,24.903-66.534,9.332C999.242,849.898,1003.266,820.471,1024.121,799.747z"/>
			</defs>
			<clipPath id="SVGID_2_">
				<use xlink:href="#SVGID_1_"  overflow="visible"/>
			</clipPath>
			<polygon clip-path="url(#SVGID_2_)" fill="#46442D" points="1027.309,804.222 1070.89,768.853 1095.844,824.616 			"/>
			<polygon clip-path="url(#SVGID_2_)" fill="#6B6331" points="1008.42,783.33 1027.309,804.222 1070.89,768.853 			"/>
			<path clip-path="url(#SVGID_2_)" fill="#47452B" d="M990.698,846.438"/>
			<polygon clip-path="url(#SVGID_2_)" fill="#47452B" points="1027.309,804.222 1046.348,873.715 990.698,846.438 			"/>
			<polygon clip-path="url(#SVGID_2_)" fill="#26322C" points="1046.348,873.715 1027.309,804.222 1095.844,824.616 			"/>
			<polygon clip-path="url(#SVGID_2_)" fill="#26322C" points="990.698,846.438 1033.489,890.396 1046.348,873.715 			"/>
			<line clip-path="url(#SVGID_2_)" fill="#736D2E" x1="1008.42" y1="783.33" x2="1027.309" y2="804.222"/>
			<polygon clip-path="url(#SVGID_2_)" fill="#292F32" points="1070.89,768.853 1119.859,823.968 1095.844,824.616 			"/>
			<path clip-path="url(#SVGID_2_)" fill="#0B132D" d="M1055.785,877.119"/>
			<polygon clip-path="url(#SVGID_2_)" fill="#0B132D" points="1033.489,890.396 1046.348,873.715 1099.256,875.641 			"/>
			<g clip-path="url(#SVGID_2_)">
				<g>
					<path fill="#0B132D" d="M1091.611,857.604c0.858,0,2.002-1.303,0.696-1.303C1091.45,856.301,1090.305,857.604,1091.611,857.604
						L1091.611,857.604z"/>
				</g>
			</g>
			<polygon clip-path="url(#SVGID_2_)" fill="#0D1225" points="1046.348,873.715 1095.844,824.616 1099.256,875.641 			"/>
			<polygon clip-path="url(#SVGID_2_)" fill="#0D1321" points="1095.844,824.616 1119.859,823.968 1099.256,875.641 			"/>
			<line clip-path="url(#SVGID_2_)" fill="#8E8239" x1="1009.917" y1="824.354" x2="990.725" y2="846.527"/>
			<polygon clip-path="url(#SVGID_2_)" fill="#B4B0A6" points="1027.633,804.328 1071.212,768.956 1096.173,824.724 			"/>
			<polygon clip-path="url(#SVGID_2_)" fill="#50514B" points="1008.746,783.437 1027.633,804.328 1071.212,768.956 			"/>
			<path clip-path="url(#SVGID_2_)" fill="#47452B" d="M991.023,846.539"/>
			<polygon clip-path="url(#SVGID_2_)" fill="#B9B1A4" points="1027.633,804.328 1046.676,873.82 991.023,846.539 			"/>
			<path clip-path="url(#SVGID_2_)" fill="#26322C" d="M1096.173,824.724"/>
			<polygon clip-path="url(#SVGID_2_)" fill="#6E6C67" points="1046.676,873.82 1027.633,804.328 1096.173,824.724 			"/>
			<polygon clip-path="url(#SVGID_2_)" fill="#D0C8BD" points="991.023,846.539 1033.813,890.502 1046.676,873.82 			"/>
			<polygon clip-path="url(#SVGID_2_)" fill="#6E6C67" points="991.023,846.539 1008.746,783.437 1027.633,804.328 			"/>
			<polygon clip-path="url(#SVGID_2_)" fill="#E1DAD0" points="1071.212,768.956 1101.514,788.302 1120.183,824.077 
				1096.173,824.724 			"/>
			<path clip-path="url(#SVGID_2_)" fill="#0B132D" d="M1056.109,877.229"/>
			<polygon clip-path="url(#SVGID_2_)" fill="#B8B4AA" points="1033.489,890.396 1046.348,873.715 1099.256,875.641 			"/>
			<g clip-path="url(#SVGID_2_)">
				<g>
					<path fill="#0B132D" d="M1091.936,857.707c0.858,0,2.002-1.303,0.696-1.303
						C1091.774,856.404,1090.629,857.707,1091.936,857.707L1091.936,857.707z"/>
				</g>
			</g>
			<polygon clip-path="url(#SVGID_2_)" fill="#413B34" points="1046.676,873.82 1096.173,824.724 1099.58,875.746 			"/>
			<polygon clip-path="url(#SVGID_2_)" fill="#B4B1A0" points="1096,824.354 1120.183,824.077 1099.58,875.746 			"/>
			<line clip-path="url(#SVGID_2_)" fill="#8E8239" x1="1010.242" y1="824.46" x2="991.049" y2="846.63"/>
			<polygon clip-path="url(#SVGID_2_)" fill="#B2A295" points="1033.606,890.542 1007.442,871.881 1019.633,860.481 			"/>
			<polygon clip-path="url(#SVGID_2_)" fill="#DED8CE" points="1007.442,871.881 990.7,846.338 1019.851,860.644 			"/>
			<polygon clip-path="url(#SVGID_2_)" fill="#777964" points="1101.514,788.302 1095.86,824.37 1120.234,824.08 			"/>
			<polygon clip-path="url(#SVGID_2_)" fill="#A9A198" points="1046.405,873.544 1063.77,846.703 1067.841,858.979 			"/>
			<polygon clip-path="url(#SVGID_2_)" fill="#5B5655" points="1002.989,832.755 1037.83,841.36 1027.571,804.255 			"/>
			<polygon clip-path="url(#SVGID_2_)" fill="#787975" points="990.7,846.338 1002.989,832.755 1019.491,836.715 			"/>
			<g clip-path="url(#SVGID_2_)">
				<g>
					<path fill="#5B622B" d="M1027.254,836.451c0.596,0,2.098-0.901,0.804-0.901C1027.462,835.55,1025.96,836.451,1027.254,836.451
						L1027.254,836.451z"/>
				</g>
			</g>
			<polygon clip-path="url(#SVGID_2_)" fill="#4A4944" points="1002.989,832.755 1006.091,818.93 1027.571,804.255 			"/>
			<path clip-path="url(#SVGID_2_)" fill="#32311A" d="M990.509,846.634"/>
			<path clip-path="url(#SVGID_2_)" fill="#38371F" d="M990.7,846.338"/>
			<polygon clip-path="url(#SVGID_2_)" fill="#CFCBC3" points="990.509,846.634 995.989,811.189 1006.091,818.93 			"/>
			<polygon clip-path="url(#SVGID_2_)" fill="#C5C4BB" points="1008.485,783.169 995.989,811.189 998.591,814.442 			"/>
			<polygon clip-path="url(#SVGID_2_)" fill="#33312C" points="1016.459,792.119 1008.345,783.467 998.591,814.442 			"/>
			<polygon clip-path="url(#SVGID_2_)" fill="#31302A" points="1008.485,783.169 1038.862,770.534 1035.917,780.945 			"/>
			<polygon clip-path="url(#SVGID_2_)" fill="#313228" points="1070.704,769.014 1038.592,770.534 1035.917,780.945 			"/>
			<polygon clip-path="url(#SVGID_2_)" fill="#4E4A3F" points="1099.638,876.179 1082.441,875.374 1098.696,868.23 			"/>
			<polygon clip-path="url(#SVGID_2_)" fill="#958B82" points="1099.638,876.179 1072.007,889.5 1066.693,883.149 			"/>
			<polygon clip-path="url(#SVGID_2_)" fill="#6C625A" points="1066.693,883.149 1082.441,875.374 1099.638,876.179 			"/>
			<polygon clip-path="url(#SVGID_2_)" fill="#CCC5B6" points="1072.007,889.5 1057.093,885.288 1066.693,883.149 			"/>
			<polygon clip-path="url(#SVGID_2_)" fill="#877A71" points="1099.638,876.179 1105.839,870.03 1103.099,866.382 			"/>
			<polygon clip-path="url(#SVGID_2_)" fill="#A39D95" points="1033.606,890.542 1057.093,885.288 1072.007,889.5 			"/>
			<polygon clip-path="url(#SVGID_2_)" fill="#3E352D" points="1103.099,866.382 1111.156,856.573 1105.839,870.03 			"/>
			<polygon clip-path="url(#SVGID_2_)" fill="#9D968F" points="1120.234,824.08 1111.156,856.573 1108.551,852.788 			"/>
			<polygon clip-path="url(#SVGID_2_)" fill="#B2ADA0" points="1103.099,866.382 1098.253,852.243 1111.156,856.573 			"/>
			<polygon clip-path="url(#SVGID_2_)" fill="#D0C9BC" points="1095.844,824.616 1077.557,819.166 1087.726,828.617 			"/>
			<polygon clip-path="url(#SVGID_2_)" fill="#939387" points="1077.557,819.166 1082.067,793.149 1095.844,824.616 			"/>
			<polygon clip-path="url(#SVGID_2_)" fill="#8C9483" points="1071.212,768.956 1085.494,794.034 1095.844,824.616 			"/>
			<polygon clip-path="url(#SVGID_2_)" fill="#363636" points="1016.459,792.119 1041.831,792.861 1027.509,804.431 			"/>
			<polygon clip-path="url(#SVGID_2_)" fill="#282922" points="1027.43,804.533 1035.917,780.945 1071.482,768.853 			"/>
			<polygon clip-path="url(#SVGID_2_)" fill="#BCB8A7" points="1101.514,788.302 1085.494,794.034 1095.844,824.616 			"/>
			<polygon clip-path="url(#SVGID_2_)" fill="#5B5E47" points="1053.681,812.083 1071.482,768.853 1027.633,804.328 			"/>
			<path clip-path="url(#SVGID_2_)" fill="#26322C" d="M1118.002,848.345"/>
			<polygon clip-path="url(#SVGID_2_)" fill="#93897F" points="1107.224,836.543 1112.059,850.63 1103.541,851.11 			"/>
			<polygon clip-path="url(#SVGID_2_)" fill="#D5CFC1" points="1103.562,851.066 1112.029,850.598 1110.135,858.814 
				1104.126,859.939 1100.074,857.223 			"/>
			<polygon clip-path="url(#SVGID_2_)" fill="#D0C8BD" points="1100.074,857.223 1104.175,859.939 1090.812,860.661 			"/>
			<polygon clip-path="url(#SVGID_2_)" fill="#93897F" points="1082.999,861.838 1080.079,855.104 1081.805,852.571 
				1090.091,860.833 			"/>
			<polygon clip-path="url(#SVGID_2_)" fill="#E4E4EC" points="1077.164,863.408 1082.999,861.838 1080.076,855.018 
				1074.983,862.745 			"/>
			<polygon clip-path="url(#SVGID_2_)" fill="#F4EFE0" points="1081.527,852.774 1083.177,843.333 1072.531,838.297 			"/>
			<polygon clip-path="url(#SVGID_2_)" fill="#E4E4EC" points="1083.177,843.333 1087.821,838.784 1072.566,838.316 			"/>
			<polygon clip-path="url(#SVGID_2_)" fill="#D8D7DB" points="1088.181,838.989 1087.885,828.675 1078.683,833.337 
				1072.531,838.297 			"/>
			<polygon clip-path="url(#SVGID_2_)" fill="#555748" points="1103.596,851.007 1107.224,836.543 1100.617,842.291 			"/>
			<polyline clip-path="url(#SVGID_2_)" fill="#EAE2CB" points="1067.841,858.979 1063.77,846.703 1072.531,838.297 
				1081.805,852.571 1074.983,862.745 			"/>
			<polygon clip-path="url(#SVGID_2_)" fill="#EAEAEA" points="1090.091,860.833 1103.596,851.007 1100.074,857.223 			"/>
			<path clip-path="url(#SVGID_2_)" fill="#26322C" d="M1091.609,825.822"/>
			<polygon clip-path="url(#SVGID_2_)" fill="#B3AE9D" points="1077.493,810.364 1083.829,828.814 1072.666,829.442 			"/>
			<polygon clip-path="url(#SVGID_2_)" fill="#8B8377" points="1072.699,829.386 1087.885,828.675 1096.82,840.663 
				1081.272,840.362 1068.13,837.452 			"/>
			<polygon clip-path="url(#SVGID_2_)" fill="#ABAE9F" points="1068.13,837.452 1063.77,846.703 1035.397,844.915 			"/>
			<polygon clip-path="url(#SVGID_2_)" fill="#F4EFE0" points="1053.889,840.967 1045.993,819.256 1038.554,844.196 			"/>
			<polygon clip-path="url(#SVGID_2_)" fill="#EFE4D1" points="1060.945,814.245 1068.839,817.896 1077.493,810.364 
				1063.827,788.64 			"/>
			<polygon clip-path="url(#SVGID_2_)" fill="#555748" points="1072.739,829.313 1077.493,810.364 1068.839,817.896 			"/>
			<polygon clip-path="url(#SVGID_2_)" fill="#EAEAEA" points="1055.054,842.177 1072.739,829.313 1068.13,837.452 			"/>
			<polygon clip-path="url(#SVGID_2_)" fill="#E4E4EC" points="1045.993,819.256 1073.683,813.537 1027.867,804.408 			"/>
			<polygon clip-path="url(#SVGID_2_)" fill="#939387" points="1073.81,813.741 1072.666,829.442 1045.993,819.256 			"/>
		</g>
		<g>
			<defs>
				<path id="SVGID_3_" d="M1048.824,784.702c14.324-14.232,36.858-15.064,50.332-1.855c13.475,13.206,12.787,35.448-1.53,49.677
					c-14.319,14.232-36.854,15.062-50.328,1.86C1033.821,821.173,1034.508,798.931,1048.824,784.702z"/>
			</defs>
			<clipPath id="SVGID_4_">
				<use xlink:href="#SVGID_3_"  overflow="visible"/>
			</clipPath>
			<path clip-path="url(#SVGID_4_)" fill="#413B34" d="M1061.088,791.53c8.353-8.298,22.111-8.17,30.74,0.289
				c8.63,8.452,8.853,22.03,0.508,30.333c-8.355,8.299-22.116,8.173-30.746-0.287C1052.96,813.412,1052.737,799.828,1061.088,791.53
				z"/>
			<g clip-path="url(#SVGID_4_)">
				<path fill="#26322C" d="M1127.996,822.104"/>
				<g>
					<g>
						<path fill="#5B622B" d="M1034.711,805.958c0.596,0,2.098-0.901,0.804-0.901
							C1034.919,805.057,1033.417,805.958,1034.711,805.958L1034.711,805.958z"/>
					</g>
				</g>
				<polygon fill="#E4E4EC" points="1102.721,840.026 1110.779,836.315 1091.485,828.804 				"/>
				<polygon fill="#D8D7DB" points="1111.146,836.736 1115.566,823.41 1101.626,825.206 1091.451,828.766 				"/>
				<path fill="#26322C" d="M1121.652,821.448"/>
				<polygon fill="#B3AE9D" points="1110.779,795.284 1110.306,821.751 1095.737,817.503 				"/>
				<polygon fill="#8B8377" points="1095.804,817.443 1115.566,823.41 1111.42,836.518 1091.667,829.094 1086.214,825.692 				"/>
				<polygon fill="#ABAE9F" points="1087.182,825.665 1076.67,836.151 1067.048,825.799 				"/>
				<polygon fill="#D8D7DB" points="1054.798,823.292 1053.995,810.28 1058.43,807.064 1067.29,825.814 				"/>
				<polygon fill="#A9A198" points="1040.521,821.234 1054.798,823.292 1054.048,810.129 1040.815,820.06 				"/>
				<polygon fill="#F4EFE0" points="1057.852,807.245 1066.358,792.401 1051.597,777.651 				"/>
				<polygon fill="#E4E4EC" points="1066.358,792.401 1076.909,787.536 1051.642,777.7 				"/>
				<polygon fill="#D8D7DB" points="1077.39,788.088 1083.177,770.633 1064.92,772.988 1051.597,777.651 				"/>
				<polygon fill="#B3AE9D" points="1077.441,788.039 1088.283,791.902 1097.846,778.636 1083.177,770.633 				"/>
				<polygon fill="#EFE4D1" points="1087.814,792.75 1096.211,801 1110.779,795.284 1097.846,778.636 				"/>
				<polygon fill="#555748" points="1095.895,817.367 1110.779,795.284 1096.211,801 				"/>
				<polyline fill="#EAE2CB" points="1031.137,809.521 1051.597,777.651 1058.43,807.064 1040.815,820.06 1030.533,809.049 				"/>
				<polygon fill="#EAEAEA" points="1067.29,825.814 1095.895,817.367 1086.214,825.692 				"/>
			</g>
		</g>
	</g>
</g>
</svg>
