<?xml version="1.0" encoding="utf-8"?>
<!-- Generator: Adobe Illustrator 16.0.0, SVG Export Plug-In . SVG Version: 6.00 Build 0)  -->
<!DOCTYPE svg PUBLIC "-//W3C//DTD SVG 1.1//EN" "http://www.w3.org/Graphics/SVG/1.1/DTD/svg11.dtd">
<svg version="1.1" id="Layer_1" xmlns="http://www.w3.org/2000/svg" xmlns:xlink="http://www.w3.org/1999/xlink" x="0px" y="0px"
	 width="1500px" height="1500px" viewBox="0 0 1500 1500" enable-background="new 0 0 1500 1500" xml:space="preserve">
<g id="Neptune">
	<g id="Planet__x2B__Rings_1_">
		<g opacity="0.74">
			<g>
				<path fill="none" stroke="#E6E7E8" stroke-width="4" stroke-miterlimit="10" d="M1374.235,605.329
					c0.045,0.159,0.09,0.319,0.133,0.479"/>
				<path fill="none" stroke="#E6E7E8" stroke-width="4" stroke-miterlimit="10" stroke-dasharray="0.9958,11.9493" d="
					M1375.653,617.64c-3.521,83.87-258.599,219.644-590.797,311.489c-340.204,94.061-635.71,107.328-672.144,31.664"/>
				<path fill="none" stroke="#E6E7E8" stroke-width="4" stroke-miterlimit="10" d="M110.55,955.224
					c-0.047-0.158-0.094-0.317-0.139-0.477"/>
			</g>
		</g>
		<g opacity="0.74">
			<g>
				<path fill="none" stroke="#E6E7E8" stroke-width="4" stroke-miterlimit="10" d="M1301.642,1147.867
					c-0.102,0.129-0.206,0.258-0.309,0.387"/>
				<path fill="none" stroke="#E6E7E8" stroke-width="4" stroke-miterlimit="10" stroke-dasharray="1.0013,12.0156" d="
					M1292.459,1156.285c-70.563,47.113-333.108-74.16-605.607-282.628c-278.998-213.444-465.441-439.51-425.312-513.334"/>
				<path fill="none" stroke="#E6E7E8" stroke-width="4" stroke-miterlimit="10" d="M264.815,355.283
					c0.101-0.131,0.202-0.261,0.304-0.391"/>
			</g>
		</g>
		<g opacity="0.74">
			<g>
				<path fill="none" stroke="#E6E7E8" stroke-width="4" stroke-miterlimit="10" d="M111.019,505.956
					c0.05-0.158,0.1-0.316,0.152-0.473"/>
				<path fill="none" stroke="#E6E7E8" stroke-width="4" stroke-miterlimit="10" stroke-dasharray="0.9956,11.9473" d="
					M116.587,494.886c49.096-68.627,338.237-46.554,667.992,53.629c337.646,102.581,593.239,249.177,582.184,332.202"/>
				<path fill="none" stroke="#E6E7E8" stroke-width="4" stroke-miterlimit="10" d="M1365.511,886.556
					c-0.047,0.159-0.096,0.317-0.146,0.475"/>
			</g>
		</g>
		<g opacity="0.74">
			<g>
				<path fill="none" stroke="#E6E7E8" stroke-width="4" stroke-miterlimit="10" d="M177.188,1092.686
					c-0.087-0.14-0.173-0.281-0.258-0.422"/>
				<path fill="none" stroke="#E6E7E8" stroke-width="4" stroke-miterlimit="10" stroke-dasharray="1.0026,12.0313" d="
					M172.411,1081.166c-19.677-81.69,188.256-280.579,482.51-457.851c301.379-181.569,582.068-273.433,638.06-210.4"/>
				<path fill="none" stroke="#E6E7E8" stroke-width="4" stroke-miterlimit="10" d="M1296.615,417.711
					c0.089,0.14,0.178,0.28,0.265,0.42"/>
			</g>
		</g>
		<g>
			<defs>
				<path id="SVGID_1_" d="M987.547,584.577c93.759,130.13,62.604,310.443-69.583,402.738
					c-132.186,92.303-315.35,61.631-409.105-68.503c-93.756-130.129-62.602-310.441,69.585-402.738
					C710.629,423.774,893.795,454.448,987.547,584.577z"/>
			</defs>
			<clipPath id="SVGID_2_">
				<use xlink:href="#SVGID_1_"  overflow="visible"/>
			</clipPath>
			<polygon clip-path="url(#SVGID_2_)" fill="#46442D" points="656.096,596.91 912.277,480.307 959.3,777.34 			"/>
			<polygon clip-path="url(#SVGID_2_)" fill="#6B6331" points="592.563,474.1 656.096,596.91 912.277,480.307 			"/>
			<polygon clip-path="url(#SVGID_2_)" fill="#47452B" points="656.096,596.91 656.619,952.49 424.482,754.661 			"/>
			<path clip-path="url(#SVGID_2_)" fill="#26322C" d="M959.3,777.34"/>
			<polygon clip-path="url(#SVGID_2_)" fill="#26322C" points="656.619,952.49 656.096,596.91 959.3,777.34 			"/>
			<polygon clip-path="url(#SVGID_2_)" fill="#26322C" points="424.482,754.661 572.838,1016.789 656.619,952.49 			"/>
			<line clip-path="url(#SVGID_2_)" fill="#736D2E" x1="592.563" y1="474.1" x2="656.096" y2="596.91"/>
			<polygon clip-path="url(#SVGID_2_)" fill="#292F32" points="912.277,480.307 1075.764,803.28 959.3,777.34 			"/>
			<path clip-path="url(#SVGID_2_)" fill="#0B132D" d="M697.586,980.185"/>
			<polygon clip-path="url(#SVGID_2_)" fill="#0B132D" points="572.838,1016.789 656.619,952.49 908.791,1025.633 			"/>
			<g clip-path="url(#SVGID_2_)">
				<g>
					<path fill="#0B132D" d="M897.838,928.036c0.858,0,2.002-1.303,0.696-1.303C897.677,926.733,896.532,928.036,897.838,928.036
						L897.838,928.036z"/>
				</g>
			</g>
			<polygon clip-path="url(#SVGID_2_)" fill="#0D1225" points="656.619,952.49 959.3,777.34 908.791,1025.633 			"/>
			<polygon clip-path="url(#SVGID_2_)" fill="#0D1321" points="959.3,777.34 1075.764,803.28 908.791,1025.633 			"/>
			<line clip-path="url(#SVGID_2_)" fill="#8E8239" x1="545.957" y1="672.221" x2="424.492" y2="755.137"/>
			<polygon clip-path="url(#SVGID_2_)" fill="#B7CFEB" points="657.52,597.808 913.698,481.211 960.726,778.243 			"/>
			<polygon clip-path="url(#SVGID_2_)" fill="#546F96" points="593.992,475.002 657.52,597.808 913.698,481.211 			"/>
			<polygon clip-path="url(#SVGID_2_)" fill="#8CACDA" points="657.52,597.808 658.04,953.389 425.906,755.557 			"/>
			<path clip-path="url(#SVGID_2_)" fill="#26322C" d="M960.726,778.243"/>
			<polygon clip-path="url(#SVGID_2_)" fill="#D1E3F4" points="658.04,953.389 657.52,597.808 960.726,778.243 776.704,844.376 			
				"/>
			<polygon clip-path="url(#SVGID_2_)" fill="#5C7785" points="425.906,755.557 574.26,1017.682 658.04,953.389 			"/>
			<polygon clip-path="url(#SVGID_2_)" fill="#40546E" points="425.906,755.557 593.992,475.002 657.52,597.808 			"/>
			<polygon clip-path="url(#SVGID_2_)" fill="#849DB3" points="913.698,481.211 1034.227,610.403 1077.192,804.174 960.726,778.243 
							"/>
			<path clip-path="url(#SVGID_2_)" fill="#0B132D" d="M699.007,981.09"/>
			<polygon clip-path="url(#SVGID_2_)" fill="#B5D5F0" points="574.26,1017.682 658.04,953.389 910.224,1026.534 			"/>
			<g clip-path="url(#SVGID_2_)">
				<g>
					<path fill="#0B132D" d="M899.26,928.932c0.857,0,2.002-1.303,0.696-1.303C899.099,927.629,897.954,928.932,899.26,928.932
						L899.26,928.932z"/>
				</g>
			</g>
			<polygon clip-path="url(#SVGID_2_)" fill="#C4D6EE" points="658.04,953.389 775.365,843.674 960.726,778.243 910.224,1026.534 
							"/>
			<polygon clip-path="url(#SVGID_2_)" fill="#84A5CF" points="959.477,776.759 1077.192,804.174 910.224,1026.534 			"/>
			<line clip-path="url(#SVGID_2_)" fill="#8E8239" x1="547.379" y1="673.115" x2="425.919" y2="756.035"/>
			<polygon clip-path="url(#SVGID_2_)" fill="#364154" points="573.21,1017.604 471.729,896.686 528.088,842.423 			"/>
			<polygon clip-path="url(#SVGID_2_)" fill="#657F9C" points="471.729,896.686 424.61,754.208 528.598,841.921 			"/>
			<polygon clip-path="url(#SVGID_2_)" fill="#8CA4C1" points="1032.2,610.177 958.95,777.068 1075.393,804.033 			"/>
			<polygon clip-path="url(#SVGID_2_)" fill="#9CB4D6" points="501.596,704.061 658.038,787.367 657.304,597.38 			"/>
			<polygon clip-path="url(#SVGID_2_)" fill="#657F9C" points="424.61,754.208 501.596,704.061 575.833,742.956 			"/>
			<polygon clip-path="url(#SVGID_2_)" fill="#7D9EC8" points="575.833,742.956 527.416,842.058 424.61,754.208 			"/>
			<g clip-path="url(#SVGID_2_)">
				<g>
					<path fill="#5B622B" d="M615.665,749.853c0.595,0,2.098-0.902,0.804-0.902C615.873,748.951,614.371,749.853,615.665,749.853
						L615.665,749.853z"/>
				</g>
			</g>
			<polygon clip-path="url(#SVGID_2_)" fill="#BBC8E6" points="501.596,704.061 534.653,641.643 657.304,597.38 			"/>
			<polygon clip-path="url(#SVGID_2_)" fill="#849DBA" points="501.596,704.061 424.61,754.208 534.653,641.643 			"/>
			<polygon clip-path="url(#SVGID_2_)" fill="#40546E" points="423.316,755.389 496.159,592.404 534.653,641.643 			"/>
			<polygon clip-path="url(#SVGID_2_)" fill="#40546E" points="593.071,473.417 496.159,592.404 504.433,611.09 			"/>
			<polygon clip-path="url(#SVGID_2_)" fill="#849DBA" points="534.653,641.643 504.433,611.09 619.72,525.87 			"/>
			<polygon clip-path="url(#SVGID_2_)" fill="#5C7785" points="619.72,525.87 592.005,474.654 504.433,611.09 			"/>
			<polygon clip-path="url(#SVGID_2_)" fill="#40546E" points="593.071,473.417 755.891,449.647 728.052,495.911 			"/>
			<polygon clip-path="url(#SVGID_2_)" fill="#5D6677" points="911.177,480.846 754.591,449.324 728.052,495.911 			"/>
			<polygon clip-path="url(#SVGID_2_)" fill="#7697C8" points="909.934,1028.693 828.209,1004.032 915.828,989.522 			"/>
			<polygon clip-path="url(#SVGID_2_)" fill="#849DBA" points="909.934,1028.693 759.451,1059.037 742.191,1022.206 			"/>
			<polygon clip-path="url(#SVGID_2_)" fill="#B5D5F0" points="742.191,1022.206 828.209,1004.032 909.934,1028.693 			"/>
			<polygon clip-path="url(#SVGID_2_)" fill="#BBC8E6" points="759.451,1059.037 693.169,1020.855 742.191,1022.206 			"/>
			<polygon clip-path="url(#SVGID_2_)" fill="#DEF2FC" points="742.191,1022.206 758.094,981.701 828.209,1004.032 			"/>
			<polygon clip-path="url(#SVGID_2_)" fill="#BBC8E6" points="909.934,1028.693 947.854,1006.744 939.449,985.979 			"/>
			<polygon clip-path="url(#SVGID_2_)" fill="#5C7785" points="915.828,989.522 939.449,985.979 909.934,1028.693 			"/>
			<polygon clip-path="url(#SVGID_2_)" fill="#40546E" points="573.21,1017.604 693.169,1020.855 759.451,1059.037 			"/>
			<polygon clip-path="url(#SVGID_2_)" fill="#7697C8" points="939.449,985.979 991.104,948.767 947.854,1006.744 			"/>
			<polygon clip-path="url(#SVGID_2_)" fill="#DEF2FC" points="1077.418,804.257 991.104,948.767 983.52,927.519 			"/>
			<polygon clip-path="url(#SVGID_2_)" fill="#546F96" points="939.449,985.979 931.131,917.054 991.104,948.767 			"/>
			<polygon clip-path="url(#SVGID_2_)" fill="#BBC8E6" points="983.52,927.519 931.131,917.054 991.104,948.767 			"/>
			<polygon clip-path="url(#SVGID_2_)" fill="#84ACD6" points="828.209,1004.032 931.131,917.054 915.828,989.522 			"/>
			<polygon clip-path="url(#SVGID_2_)" fill="#849DBA" points="915.828,989.522 939.449,985.979 931.131,917.054 			"/>
			<polygon clip-path="url(#SVGID_2_)" fill="#ADC7E8" points="960.977,777.297 878.397,729.152 918.834,792.91 			"/>
			<polygon clip-path="url(#SVGID_2_)" fill="#BDD6EF" points="878.397,729.152 934.221,610.107 960.977,777.297 			"/>
			<polygon clip-path="url(#SVGID_2_)" fill="#DEF2FC" points="913.698,481.211 949.56,618.467 960.977,777.297 			"/>
			<polygon clip-path="url(#SVGID_2_)" fill="#B5D5F0" points="619.72,525.87 740.896,560.096 656.787,598.147 			"/>
			<polygon clip-path="url(#SVGID_2_)" fill="#7697C8" points="728.052,495.911 618.781,526.925 592.563,474.1 			"/>
			<polygon clip-path="url(#SVGID_2_)" fill="#BDCFEB" points="656.288,598.543 756.924,528.532 915.131,481.046 			"/>
			<polyline clip-path="url(#SVGID_2_)" fill="#849DBA" points="757.48,528.056 728.052,495.911 719.813,554.346 756.924,528.532 
							"/>
			<polygon clip-path="url(#SVGID_2_)" fill="#BBC8E6" points="1034.227,610.403 949.56,618.467 960.949,777.373 			"/>
			<polygon clip-path="url(#SVGID_2_)" fill="#C9E2F5" points="776.853,845.923 657.52,597.808 658.038,787.367 			"/>
			<polygon clip-path="url(#SVGID_2_)" fill="#DEF2FC" points="919.553,794.861 878.397,729.152 776.104,846.436 			"/>
			<polygon clip-path="url(#SVGID_2_)" fill="#9CBBE2" points="772.748,666.403 915.131,481.046 657.52,597.808 			"/>
			<polygon clip-path="url(#SVGID_2_)" fill="#BBC8E6" points="776.853,845.923 828.957,1003.013 932.845,917.764 			"/>
			<polygon clip-path="url(#SVGID_2_)" fill="#D1E3F4" points="960.977,777.297 932.845,917.764 918.834,792.91 			"/>
			<polygon clip-path="url(#SVGID_2_)" fill="#DEF2FC" points="772.748,666.403 934.221,610.107 878.397,729.152 			"/>
			<polygon clip-path="url(#SVGID_2_)" fill="#BBC8E6" points="934.221,610.107 893.372,487.34 918.847,515.924 			"/>
			<polygon clip-path="url(#SVGID_2_)" fill="#7697C8" points="575.833,742.956 656.288,598.543 501.596,704.061 			"/>
			<polygon clip-path="url(#SVGID_2_)" fill="#84ACD6" points="527.416,842.058 658.038,787.367 575.833,742.956 			"/>
			<polygon clip-path="url(#SVGID_2_)" fill="#DEF2FC" points="658.038,787.367 706.908,700.487 656.096,596.91 			"/>
			<polygon clip-path="url(#SVGID_2_)" fill="#C3DCF2" points="706.908,700.487 878.397,729.152 772.748,666.403 			"/>
		</g>
		<g opacity="0.74">
			<g>
				<path fill="none" stroke="#E6E7E8" stroke-width="4" stroke-miterlimit="10" d="M1303.14,424.304
					c0.087,0.14,0.173,0.281,0.259,0.422"/>
				<path fill="none" stroke="#E6E7E8" stroke-width="4" stroke-miterlimit="10" stroke-dasharray="1.0026,12.0312" d="
					M1307.917,435.823c19.679,81.684-188.261,280.572-482.515,457.844c-301.38,181.565-582.064,273.434-638.056,210.402"/>
				<path fill="none" stroke="#E6E7E8" stroke-width="4" stroke-miterlimit="10" d="M183.712,1099.272
					c-0.089-0.139-0.178-0.279-0.265-0.42"/>
			</g>
		</g>
		<g opacity="0.74">
			<g>
				<path fill="none" stroke="#E6E7E8" stroke-width="4" stroke-miterlimit="10" d="M1364.8,895.733
					c-0.049,0.158-0.1,0.315-0.152,0.473"/>
				<path fill="none" stroke="#E6E7E8" stroke-width="4" stroke-miterlimit="10" stroke-dasharray="0.9956,11.9473" d="
					M1359.232,906.803c-49.091,68.629-338.234,46.549-667.994-53.634C353.597,750.594,98.005,603.995,109.057,520.974"/>
				<path fill="none" stroke="#E6E7E8" stroke-width="4" stroke-miterlimit="10" d="M110.308,515.134
					c0.047-0.159,0.096-0.317,0.146-0.475"/>
			</g>
		</g>
		<g opacity="0.74">
			<g>
				<path fill="none" stroke="#E6E7E8" stroke-width="4" stroke-miterlimit="10" d="M268.773,346.947
					c0.102-0.129,0.206-0.258,0.309-0.387"/>
				<path fill="none" stroke="#E6E7E8" stroke-width="4" stroke-miterlimit="10" stroke-dasharray="1.0013,12.0157" d="
					M277.957,338.53c70.566-47.111,333.115,74.153,605.609,282.624c278.999,213.446,465.446,439.511,425.312,513.341"/>
				<path fill="none" stroke="#E6E7E8" stroke-width="4" stroke-miterlimit="10" d="M1305.602,1139.534
					c-0.101,0.131-0.202,0.261-0.304,0.391"/>
			</g>
		</g>
		<g opacity="0.74">
			<g>
				<path fill="none" stroke="#E6E7E8" stroke-width="4" stroke-miterlimit="10" d="M106.094,947.134
					c-0.045-0.159-0.09-0.319-0.133-0.479"/>
				<path fill="none" stroke="#E6E7E8" stroke-width="4" stroke-miterlimit="10" stroke-dasharray="0.9958,11.9493" d="
					M104.676,934.823c3.521-83.871,258.592-219.647,590.793-311.495c340.204-94.058,635.712-107.328,672.144-31.66"/>
				<path fill="none" stroke="#E6E7E8" stroke-width="4" stroke-miterlimit="10" d="M1369.775,597.236
					c0.048,0.158,0.094,0.317,0.14,0.477"/>
			</g>
		</g>
	</g>
</g>
</svg>
