<?xml version="1.0" encoding="utf-8"?>
<!-- Generator: Adobe Illustrator 16.0.0, SVG Export Plug-In . SVG Version: 6.00 Build 0)  -->
<!DOCTYPE svg PUBLIC "-//W3C//DTD SVG 1.1//EN" "http://www.w3.org/Graphics/SVG/1.1/DTD/svg11.dtd">
<svg version="1.1" id="Layer_1" xmlns="http://www.w3.org/2000/svg" xmlns:xlink="http://www.w3.org/1999/xlink" x="0px" y="0px"
	 width="1500px" height="1500px" viewBox="0 0 1500 1500" enable-background="new 0 0 1500 1500" xml:space="preserve">
<g id="Uranus">
	<g id="BG_4_">
		<circle fill="#7E7165" cx="454.012" cy="876.263" r="13.673"/>
		<circle fill="#7E7165" cx="405.548" cy="428.169" r="6.125"/>
		<circle fill="#7E7165" cx="436.768" cy="494.24" r="6.125"/>
		<path fill="#7E7165" d="M95.99,830.395c0-3.382,2.742-6.124,6.124-6.124c3.384,0,6.126,2.742,6.126,6.124
			c0,3.385-2.742,6.125-6.126,6.125C98.731,836.519,95.99,833.779,95.99,830.395z"/>
		<circle fill="#7E7165" cx="504.341" cy="1169.11" r="6.124"/>
		<circle fill="#7E7165" cx="267.013" cy="1010.337" r="6.124"/>
		<path fill="#7E7165" d="M1061.812,1148.87c0-3.38,2.742-6.122,6.124-6.122c3.385,0,6.125,2.742,6.125,6.122
			c0,3.386-2.74,6.129-6.125,6.129C1064.554,1154.999,1061.812,1152.256,1061.812,1148.87z"/>
		<circle fill="#7E7165" cx="873.042" cy="386.262" r="6.124"/>
		<circle fill="#7E7165" cx="208.565" cy="755.667" r="13.672"/>
		<circle fill="#7E7165" cx="803.685" cy="300.229" r="13.672"/>
		<path fill="#7E7165" d="M1110.718,763.354c0-7.549,6.118-13.67,13.671-13.67c7.55,0,13.673,6.121,13.673,13.67
			c0,7.553-6.123,13.674-13.673,13.674C1116.835,777.029,1110.718,770.908,1110.718,763.354z"/>
		<circle fill="#7E7165" cx="1100.132" cy="477.567" r="13.672"/>
	</g>
</g>
</svg>
