<?xml version="1.0" encoding="utf-8"?>
<!-- Generator: Adobe Illustrator 16.0.0, SVG Export Plug-In . SVG Version: 6.00 Build 0)  -->
<!DOCTYPE svg PUBLIC "-//W3C//DTD SVG 1.1//EN" "http://www.w3.org/Graphics/SVG/1.1/DTD/svg11.dtd">
<svg version="1.1" id="Layer_1" xmlns="http://www.w3.org/2000/svg" xmlns:xlink="http://www.w3.org/1999/xlink" x="0px" y="0px"
	 width="256px" height="256px" viewBox="0 0 256 256" enable-background="new 0 0 256 256" xml:space="preserve">
<g id="asteroid_x5F_a">
	<polygon fill="#463849" points="147.07,25.753 80.058,75.036 79.785,75.518 79.579,75.67 79.687,75.691 39.787,146.139 
		9.156,200.225 74.576,236.491 138.208,238.065 229.222,121.064 239.906,108.057 239.418,107.956 239.648,107.66 206.583,50.258 
		198.047,16.233 178.499,1.365 	"/>
	<polygon fill="#463849" points="76.829,183.854 9.156,200.225 74.576,236.491 	"/>
	<path fill="#47452B" d="M8.827,202.146"/>
	<g>
		<g>
			<path fill="#0B132D" d="M188.764,50.056c0.858,0,2.002-1.303,0.696-1.303C188.603,48.753,187.458,50.056,188.764,50.056
				L188.764,50.056z"/>
		</g>
	</g>
	<polygon fill="#0D1225" points="79.579,75.67 239.164,108.291 178.479,2.935 	"/>
	<polygon fill="#6C5E70" points="138.208,238.065 105.873,150.76 80.058,75.036 39.787,146.139 9.156,200.225 	"/>
	<polygon fill="#463849" points="80.058,75.036 105.873,150.76 138.208,238.065 239.648,107.66 	"/>
	<g>
		<g>
			<path fill="#0B132D" d="M189.251,49.42c0.858,0,2.002-1.303,0.696-1.303C189.09,48.117,187.945,49.42,189.251,49.42
				L189.251,49.42z"/>
		</g>
	</g>
	<polygon fill="#9B9198" points="80.058,75.036 239.648,107.66 206.583,50.258 178.959,2.301 147.07,25.753 	"/>
	<polygon fill="#3E3649" points="80.058,75.036 150.881,107.828 239.906,108.057 	"/>
	<polygon fill="#463849" points="50.412,213.187 105.873,150.76 138.208,238.065 	"/>
	<polygon fill="#463849" points="9.156,200.225 50.412,213.187 76.829,183.854 	"/>
	<polygon fill="#3E3649" points="76.829,183.854 39.787,146.139 9.156,200.225 	"/>
	<polygon fill="#514554" points="76.829,183.854 82.31,192.467 50.412,213.187 	"/>
	<polygon fill="#463849" points="82.31,192.467 114.398,223.072 138.208,238.065 50.412,213.187 	"/>
	<polygon fill="#6C5E70" points="82.31,192.467 115.949,180.832 76.829,183.854 	"/>
	<polygon fill="#514554" points="82.31,192.467 115.949,180.832 114.398,223.072 	"/>
	<polygon fill="#3E3649" points="50.412,213.187 74.576,236.491 138.208,238.065 	"/>
	<polygon fill="#9B9198" points="178.499,1.365 147.07,25.753 187.167,18.308 	"/>
	<polygon fill="#817087" points="187.167,18.308 198.047,16.233 178.499,1.365 	"/>
	<polygon fill="#514554" points="147.07,25.753 206.583,50.258 187.167,18.308 	"/>
	<polygon fill="#6C5E70" points="187.167,18.308 198.047,16.233 206.583,50.258 	"/>
	<polygon fill="#3E3649" points="239.906,108.057 211.28,142.905 219.048,107.511 	"/>
	<polygon fill="#514554" points="150.881,107.828 138.208,238.065 105.873,150.76 	"/>
	<polygon fill="#514554" points="219.048,107.511 211.28,142.905 150.881,107.828 	"/>
</g>
</svg>
