<?xml version="1.0" encoding="utf-8"?>
<!-- Generator: Adobe Illustrator 16.0.0, SVG Export Plug-In . SVG Version: 6.00 Build 0)  -->
<!DOCTYPE svg PUBLIC "-//W3C//DTD SVG 1.1//EN" "http://www.w3.org/Graphics/SVG/1.1/DTD/svg11.dtd">
<svg version="1.1" id="Layer_1" xmlns="http://www.w3.org/2000/svg" xmlns:xlink="http://www.w3.org/1999/xlink" x="0px" y="0px"
	 width="256px" height="256px" viewBox="0 0 256 256" enable-background="new 0 0 256 256" xml:space="preserve">
<g id="asteroid_x5F_b">
	<polygon fill="#463849" points="171.035,18.237 171.109,18.446 171.108,18.446 171.035,18.237 90.484,22.16 33.333,46.626 
		1.381,114.88 11.453,192.919 50.816,179.129 74.734,163.393 87.598,228.511 125.651,239.979 170.562,165.173 254.619,166.734 
		171.511,18.368 171.149,18.438 	"/>
	<path fill="#26322C" d="M171.033,19.048"/>
	<polygon fill="#817087" points="74.734,163.393 33.333,46.626 87.587,34.65 171.511,18.368 	"/>
	<polygon fill="#514554" points="11.453,192.919 50.816,179.129 74.734,163.393 33.333,46.626 	"/>
	<path fill="#26322C" d="M171.511,18.368"/>
	<polygon fill="#463849" points="254.619,166.734 74.734,163.393 171.511,18.368 	"/>
	<polygon fill="#9B9198" points="254.619,166.734 202.412,108.102 171.035,18.237 	"/>
	<polygon fill="#3E3649" points="125.651,239.979 170.634,165.054 137.337,164.564 74.734,163.393 	"/>
	<polygon fill="#3E3649" points="146.674,204.419 136.316,201.697 125.651,239.979 	"/>
	<polygon fill="#463849" points="136.316,201.697 100.135,185.838 74.734,163.393 125.651,239.979 	"/>
	<polygon fill="#514554" points="136.316,201.697 137.337,164.564 146.674,204.419 	"/>
	<polygon fill="#6C5E70" points="136.316,201.697 137.337,164.564 100.135,185.838 	"/>
	<polygon fill="#3E3649" points="125.651,239.979 87.598,228.511 74.734,163.393 	"/>
	<polygon fill="#463849" points="11.453,192.919 1.381,114.88 24.468,128.206 	"/>
	<polygon fill="#9B9198" points="33.333,46.626 1.381,114.88 24.468,128.206 	"/>
	<polygon fill="#514554" points="171.035,18.237 145.185,57.747 178.174,38.806 	"/>
	<polygon fill="#6C5E70" points="145.185,57.747 87.587,34.65 171.035,18.237 	"/>
	<polygon fill="#9B9198" points="33.333,46.626 90.484,22.16 171.035,18.237 87.587,34.65 	"/>
	<polygon fill="#463849" points="50.816,179.129 52.255,136.129 74.734,163.393 	"/>
	<polygon fill="#3E3649" points="24.468,128.206 50.816,179.129 11.453,192.919 	"/>
	<polygon fill="#3E3649" points="74.734,163.393 52.255,136.129 41.493,114.547 33.333,46.626 	"/>
	<polyline fill="#463849" points="41.265,114.277 24.468,128.206 52.255,136.129 41.493,114.547 	"/>
	<polygon fill="#3E3649" points="202.412,108.102 74.734,163.393 137.337,164.564 170.634,165.054 	"/>
	<polygon fill="#817087" points="202.412,108.102 178.174,38.806 145.185,57.747 	"/>
</g>
</svg>
