<?xml version="1.0" encoding="utf-8"?>
<!-- Generator: Adobe Illustrator 16.0.0, SVG Export Plug-In . SVG Version: 6.00 Build 0)  -->
<!DOCTYPE svg PUBLIC "-//W3C//DTD SVG 1.1//EN" "http://www.w3.org/Graphics/SVG/1.1/DTD/svg11.dtd">
<svg version="1.1" xmlns="http://www.w3.org/2000/svg" xmlns:xlink="http://www.w3.org/1999/xlink" x="0px" y="0px"
	 width="725.071px" height="512px" viewBox="0 0 725.071 512" enable-background="new 0 0 725.071 512" xml:space="preserve">
<g id="Layer_1">
	<g>
		<g>
			<path fill="#E5E5D8" d="M144.531,22.086c0,0,23.713,20.659,25.043,37.988c-10.064,8.33-10.064,8.33-24.552,8.043
				c20.815-8.711-10.599-45.428-10.599-45.428L144.531,22.086z"/>
			<circle fill="#E5E5D8" cx="139.191" cy="17.648" r="12.623"/>
			<circle fill="#454545" cx="139.191" cy="17.648" r="6.945"/>
		</g>
		<path fill="#222222" d="M164.168,189.785c-18.34,0-33.01,15.01-33.01,33.35s14.67,33.066,33.01,33.066s33.01-14.727,33.01-33.066
			S182.508,189.785,164.168,189.785z"/>
		<g>
			<path fill="#C6C5B5" d="M122.793,161.949c0,16.15-13.09,29.241-29.24,29.241c-16.153,0-29.242-13.091-29.242-29.241
				c0-16.152,13.089-29.242,29.242-29.242C109.703,132.707,122.793,145.797,122.793,161.949z"/>
			<path fill="#454545" d="M93.412,139.151c-12.715,0-23.012,10.304-23.018,23.017c0,12.709,10.303,23.012,23.018,23.012
				c12.709,0,23.01-10.303,23.01-23.012C116.422,149.455,106.121,139.151,93.412,139.151z"/>
		</g>
		<g>
			<path fill="#C6C5B5" d="M205.543,161.949c0,16.15,13.09,29.241,29.24,29.241c16.153,0,29.242-13.091,29.242-29.241
				c0-16.152-13.089-29.242-29.242-29.242C218.633,132.707,205.543,145.797,205.543,161.949z"/>
			<path fill="#454545" d="M234.924,139.151c12.715,0,23.012,10.304,23.018,23.017c0,12.709-10.303,23.012-23.018,23.012
				c-12.709,0-23.01-10.303-23.01-23.012C211.914,149.455,222.215,139.151,234.924,139.151z"/>
		</g>
		<path fill="#E5E5D8" d="M216.678,83.963c-0.119-0.219-0.243-0.43-0.365-0.645c-14.064-25.039-32.178-40.322-52.145-40.322
			s-38.08,15.283-52.145,40.322c-0.122,0.215-0.246,0.426-0.365,0.645c-17.019,30.663-27.781,79.355-27.781,129.845h2.268h78.023
			h78.023h2.268C244.459,163.318,233.696,114.626,216.678,83.963z"/>
		<path fill="#E5E5D8" d="M164.168,42.996c-19.967,0-38.08,15.283-52.145,40.322l52.145,52.145l52.145-52.145
			C202.248,58.279,184.135,42.996,164.168,42.996z"/>
		<path fill="#DDDDCE" d="M112.023,83.318c-0.122,0.215-0.246,0.426-0.365,0.645c-17.019,30.663-27.781,79.355-27.781,129.845h2.268
			l78.023-78.345L112.023,83.318z"/>
		<path fill="#DDDDCE" d="M216.312,83.318c0.122,0.215,0.246,0.426,0.365,0.645c17.019,30.663,27.781,79.355,27.781,129.845h-2.268
			l-78.023-78.345L216.312,83.318z"/>
		<polygon fill="#E5E5D8" points="164.168,135.463 86.145,213.808 164.168,213.808 242.191,213.808 		"/>
		<path fill="#222222" d="M197.729,110.111h-33.561h-33.561c-14.271,0-25.844,12.731-25.844,28.438
			c0,15.702,11.572,28.434,25.844,28.434h33.561h33.561c14.271,0,25.844-12.731,25.844-28.434
			C223.572,122.843,212,110.111,197.729,110.111z"/>
		<g>
			<defs>
				<path id="SVGID_93_" d="M142.64,155.117c0,2.707-2.194,4.9-4.9,4.9l0,0c-2.706,0-4.901-2.193-4.901-4.9v-29.307
					c0-2.707,2.195-4.902,4.901-4.902l0,0c2.706,0,4.9,2.195,4.9,4.902V155.117z"/>
			</defs>
			<clipPath id="SVGID_1_">
				<use xlink:href="#SVGID_93_"  overflow="visible"/>
			</clipPath>
			<path clip-path="url(#SVGID_1_)" fill="#EECC70" d="M142.64,155.117c0,2.707-2.194,4.9-4.9,4.9l0,0
				c-2.706,0-4.901-2.193-4.901-4.9v-29.307c0-2.707,2.195-4.902,4.901-4.902l0,0c2.706,0,4.9,2.195,4.9,4.902V155.117z"/>
			<polygon clip-path="url(#SVGID_1_)" fill="#FADF8D" points="131.572,119.742 131.572,161.557 143.782,110.111 			"/>
			<polygon clip-path="url(#SVGID_1_)" fill="#EECC70" points="131.572,161.557 142.545,165.793 143.782,110.111 			"/>
		</g>
		<polygon fill="#FADF8D" points="164.168,110.111 150.005,110.111 164.168,131.707 178.331,110.111 		"/>
		<g>
			<defs>
				<path id="SVGID_95_" d="M185.696,155.117c0,2.707,2.194,4.9,4.9,4.9l0,0c2.706,0,4.901-2.193,4.901-4.9v-29.307
					c0-2.707-2.195-4.902-4.901-4.902l0,0c-2.706,0-4.9,2.195-4.9,4.902V155.117z"/>
			</defs>
			<clipPath id="SVGID_3_">
				<use xlink:href="#SVGID_95_"  overflow="visible"/>
			</clipPath>
			<path clip-path="url(#SVGID_3_)" fill="#EECC70" d="M185.696,155.117c0,2.707,2.194,4.9,4.9,4.9l0,0
				c2.706,0,4.901-2.193,4.901-4.9v-29.307c0-2.707-2.195-4.902-4.901-4.902l0,0c-2.706,0-4.9,2.195-4.9,4.902V155.117z"/>
			<polygon clip-path="url(#SVGID_3_)" fill="#FADF8D" points="196.764,119.742 196.764,161.557 184.554,110.111 			"/>
			<polygon clip-path="url(#SVGID_3_)" fill="#EECC70" points="196.764,161.557 185.791,165.793 184.554,110.111 			"/>
		</g>
		<g>
			<g>
				<path fill="#E4E4D8" d="M78.804,247.012l-59.888,70.014c4.679,0.773,8.738,3.352,11.448,7.008l58.052-67.867
					C84.275,254.14,80.957,250.907,78.804,247.012z"/>
			</g>
			<g>
				<path fill="#E4E4D8" d="M17.098,366.5c3.752-1.7,7.77-2.035,11.514-1.251l-2.095-29.585c-2.011,0.639-4.163,0.95-6.396,0.828
					c-2.498-0.137-4.851-0.784-6.961-1.826l2.314,32.673C15.996,367.038,16.537,366.756,17.098,366.5z"/>
			</g>
			<g>
				<path fill="#454546" d="M7.884,391c-4.252-9.386-0.093-20.441,9.29-24.695c9.385-4.252,20.443-0.096,24.697,9.29l-4.494,2.037
					c-3.128-6.898-11.262-9.958-18.163-6.83s-9.96,11.261-6.833,18.16l-1.248,0.564l-2.111,0.958L7.884,391z"/>
			</g>
			<path fill="#C6C5B5" d="M102.517,259.268c-0.522,9.527-8.664,16.824-18.188,16.305c-9.525-0.52-16.825-8.661-16.303-18.188
				c0.52-9.522,8.664-16.823,18.187-16.303C95.736,241.602,103.037,249.746,102.517,259.268z"/>
			<path fill="#454546" d="M95.779,259.062c-0.32,5.852-5.321,10.332-11.17,10.013c-5.851-0.319-10.334-5.32-10.013-11.171
				c0.319-5.847,5.321-10.328,11.171-10.011C91.614,248.215,96.098,253.214,95.779,259.062z"/>
			<path fill="#C6C5B5" d="M31.316,327.714c-0.318,5.854-5.322,10.338-11.174,10.019c-5.852-0.322-10.335-5.323-10.016-11.177
				c0.319-5.848,5.323-10.332,11.174-10.013C27.152,316.862,31.637,321.866,31.316,327.714z"/>
			<circle fill="#454546" cx="20.802" cy="327.355" r="6.517"/>
		</g>
		<g>
			<path fill="#D1D1C4" d="M251.126,248.374c8.326,1.621,47.18,170.572,192.562,118.646
				c145.383-51.925,187.716-126.258,204.991-133.457c13.966-5.822,38.757,5.558,29.699,24.858
				c-5.144,10.963-60.145,67.229-228.047,127.198C282.43,445.589,251.395,273.126,246.174,272.109l-8.568-1.668l4.953-23.735
				L251.126,248.374z"/>
			<path fill="#C6C5B5" d="M590.58,279.996c40.529-23.878,67.113-44.9,76.367-62.621c4.013-7.685-1.093-21.283-12.222-21.285
				c-26.588-0.005-39.729,43.398-85.271,65.732c-53.043,26.012-89.175,28.595-89.175,28.595
				c-13.244,6.494-11.09,28.434,5.862,30.825C496.433,322.693,513.856,325.195,590.58,279.996z"/>
			<path fill="#C6C5B5" d="M259.543,262.807c-2.396,9.236-11.819,14.779-21.054,12.387c-9.234-2.395-14.78-11.818-12.384-21.055
				c2.392-9.23,11.819-14.777,21.051-12.385C256.39,244.148,261.936,253.576,259.543,262.807z"/>
			<path fill="#454546" d="M252.979,261.271c-1.472,5.674-7.26,9.076-12.93,7.607c-5.672-1.471-9.078-7.26-7.605-12.932
				c1.469-5.668,7.258-9.07,12.93-7.604C251.041,249.816,254.447,255.604,252.979,261.271z"/>
		</g>
		<g>
			<defs>
				<path id="SVGID_97_" d="M80.177,229.213c0,104.656,37.519,189.686,83.991,189.686s83.991-85.029,83.991-189.686H80.177z"/>
			</defs>
			<clipPath id="SVGID_5_">
				<use xlink:href="#SVGID_97_"  overflow="visible"/>
			</clipPath>
			<path clip-path="url(#SVGID_5_)" fill="#DDDDCE" d="M80.177,229.213c0,104.656,37.519,189.686,83.991,189.686
				s83.991-85.029,83.991-189.686H80.177z"/>
			<polygon clip-path="url(#SVGID_5_)" fill="#DDDDCE" points="112.023,286.212 115.639,354.756 164.168,264.684 			"/>
			<polygon clip-path="url(#SVGID_5_)" fill="#D1D1C4" points="80.244,241.055 58.102,318.242 74.379,387.903 115.639,354.756 
				112.023,286.212 			"/>
			<polygon clip-path="url(#SVGID_5_)" fill="#C6C5B5" points="115.639,354.756 74.379,387.903 164.168,433.034 			"/>
			<polygon clip-path="url(#SVGID_5_)" fill="#DDDDCE" points="216.312,286.212 212.697,354.756 164.168,264.684 			"/>
			<polygon clip-path="url(#SVGID_5_)" fill="#D1D1C4" points="248.092,241.055 270.234,318.242 253.957,387.903 212.697,354.756 
				216.312,286.212 			"/>
			<polygon clip-path="url(#SVGID_5_)" fill="#C6C5B5" points="212.697,354.756 253.957,387.903 164.168,433.034 			"/>
			<polygon clip-path="url(#SVGID_5_)" fill="#E5E5D8" points="164.168,241.055 80.244,241.055 112.023,286.212 164.168,264.684 
				216.312,286.212 248.092,241.055 			"/>
		</g>
		<polygon fill="#DDDDCE" points="164.168,354.756 115.639,354.756 164.168,433.034 212.697,354.756 		"/>
		<polygon fill="#E39C27" points="198.676,433.034 189.197,433.034 176.988,433.034 164.168,433.034 151.348,433.034 
			139.139,433.034 129.66,433.034 139.139,474.264 146.238,450.288 164.168,493.865 182.098,450.288 189.197,474.264 		"/>
		<g>
			<polygon fill="#E39C27" points="139.139,433.034 164.168,493.865 164.168,433.034 			"/>
			<polygon fill="#E39C27" points="129.66,433.034 139.139,474.264 139.139,433.034 			"/>
			<polygon fill="#EBB246" points="139.139,433.034 139.139,474.264 151.348,433.034 			"/>
			<polygon fill="#EBB246" points="189.197,433.034 164.168,493.865 164.168,433.034 			"/>
			<polygon fill="#EBB246" points="198.676,433.034 189.197,474.264 189.197,433.034 			"/>
			<polygon fill="#E39C27" points="189.197,433.034 189.197,474.264 176.988,433.034 			"/>
		</g>
		<polygon fill="#454545" points="184.295,400.57 198.676,433.034 164.168,433.034 		"/>
		<polygon fill="#222222" points="184.295,400.57 198.676,433.034 184.295,433.034 		"/>
		<polygon fill="#454545" points="144.041,400.57 129.66,433.034 164.168,433.034 		"/>
		<polygon fill="#222222" points="144.041,400.57 129.66,433.034 144.041,433.034 		"/>
		<g>
			<polygon fill="#454545" points="164.168,210.306 82.293,210.306 82.293,217.311 164.168,217.311 246.043,217.311 
				246.043,210.306 			"/>
		</g>
		<g>
			<polygon fill="#454545" points="164.168,229.145 79.619,229.145 79.619,241.055 164.168,241.055 248.717,241.055 
				248.717,229.145 			"/>
		</g>
		<g>
			<polygon fill="#454545" points="164.168,428.85 128.79,428.85 128.79,437.491 164.168,437.491 199.546,437.491 199.546,428.85 
							"/>
		</g>
		<polygon fill="#FADF8D" points="164.168,264.684 115.639,354.756 164.168,354.756 212.697,354.756 		"/>
	</g>
	<g>
		<polygon fill="#C4C4C3" points="588.88,126.564 534.729,145.904 480.58,165.245 475.527,173.397 527.926,318.279 536.262,321.144 
			590.411,301.803 644.562,282.463 649.196,274.965 597.953,129.671 		"/>
		<path fill="#EEEEEE" d="M649.183,165.423c-6.522-18.262-25.212-19.124-42.575-18.612c-15.578,0.46-29.111,4.369-29.111,4.369
			s3.367-2.464,0.988-8.383c-2.381-5.92-5.407-3.245-5.407-3.245s1.227-5.793,0.856-10.792c-0.368-5.001,1.362-4.336,1.362-4.336
			s2.801,0.193,2.899-7.454c0.07-5.296-2.791-12.276-5.256-16.705c-2.469-4.429-5.236-3.261-5.236-3.261l-1.032-1.403
			c0,0,0.599-1.792,0.258-2.745c-4.442-12.438-24.739-29.127-57.386-17.467c-32.645,11.66-37.776,37.432-33.334,49.868
			c0.341,0.954,1.939,1.961,1.939,1.961l0.09,1.739c0,0-2.883,0.852-1.985,5.841c0.898,4.987,3.104,12.202,6.515,16.256
			c4.922,5.854,6.967,3.93,6.967,3.93s0.918-1.611,3.799,2.492c2.883,4.103,7.501,7.808,7.501,7.808s-4.036-0.152-2.127,5.936
			c1.909,6.087,6.075,5.859,6.075,5.859s-12.949,5.551-25.292,15.062c-13.76,10.604-24.04,18.821-17.519,37.083l31.887,3.143
			l7.52-2.382l33.509,93.968c0,0,11.98,18.526,37.096,10.925c3.788-1.146,14.082,4.956,21.521,5.877
			c7.44,0.92,5.573,0.735,5.573,0.735s5.14-7.426,14.987-9.603c7.32-1.618,7.546-14.529,11.203-16.041
			c24.249-10.029,21.781-31.954,21.781-31.954l-33.604-93.934l7.329-2.922L649.183,165.423z"/>
		<g>
			<path fill="#EEEEEE" d="M633.562,437.48l-51.373,18.349l2.109,5.904c0,0-2.729,18.738-0.062,29.181
				c2.669,10.442,6.026,19.468,20.551,14.428c20.775-7.211,33.729-53.991,33.729-53.991l-2.845-7.966L633.562,437.48z"/>
			<path fill="#EEEEEE" d="M586.46,305.604c21.803,61.045,18.075,50.606,27.836,77.937c9.762,27.331,7.517,21.044,19.266,53.94
				l-51.373,18.349c-12.245-34.283-9.519-26.65-19.266-53.94s-4.687-13.123-27.836-77.937L586.46,305.604z"/>
			
				<rect x="580.599" y="440.383" transform="matrix(0.9417 -0.3364 0.3364 0.9417 -114.8165 230.4856)" fill="#454545" width="54.551" height="12.541"/>
			<polygon fill="#E0E0E0" points="631.452,431.574 568.031,416.189 613.665,381.773 			"/>
			<polygon fill="#E0E0E0" points="613.665,381.773 599.277,341.489 568.031,416.189 			"/>
		</g>
		<g>
			<path fill="#EEEEEE" d="M648.93,393.402c-10.741-39.632-17.442-47.568-27.215-55.411c-10.15-8.146-12.577-8.795-24.819-33.843
				l50.66-20.229c11.55,23.529,23.787,26.898,30.407,38.253s10.901,20.647,16.187,40.537l2.779,6.96l-45.653,29.609L648.93,393.402z
				"/>
			<path fill="#EEEEEE" d="M651.275,399.278l45.653-29.609l1.871,4.688c0,0,11.039,16.011,15.31,25.907
				c4.521,10.477,5.22,24.455-9.06,30.157c-21.933,8.758-48.491-17.913-48.491-17.913l-2.979-7.458L651.275,399.278z"/>
			<g>
				<defs>
					<path id="SVGID_99_" d="M648.93,393.402c-10.741-39.632-17.442-47.568-27.215-55.411c-10.15-8.146-12.577-8.795-24.819-33.843
						l50.66-20.229c11.55,23.529,23.787,26.898,30.407,38.253s10.901,20.647,16.187,40.537l2.779,6.96l-45.653,29.609
						L648.93,393.402z"/>
				</defs>
				<clipPath id="SVGID_6_">
					<use xlink:href="#SVGID_99_"  overflow="visible"/>
				</clipPath>
				<polygon clip-path="url(#SVGID_6_)" fill="#E0E0E0" points="648.93,393.402 677.963,322.172 631.851,348.613 				"/>
				<polygon clip-path="url(#SVGID_6_)" fill="#E0E0E0" points="631.851,348.613 614.265,331.887 677.963,322.172 				"/>
			</g>
			<polygon fill="#454545" points="653.58,405.05 698.8,374.356 694.149,362.709 648.93,393.402 			"/>
		</g>
		<path fill="#454545" d="M540.822,162.964c-31.939,11.408-37.161,10.405-41.505,9.392c3.993,9.457,13.88,5.92,43.229-4.562
			c29.352-10.482,39.24-14.01,36.34-23.857C576.168,147.473,572.764,151.557,540.822,162.964z"/>
		<path fill="#FFFFFF" d="M511.436,80.686c-53.679,19.172-18.642,72.674-6.576,83.921c0,0,10.993,0.294,33.751-7.835
			c22.759-8.128,31.079-15.32,31.079-15.32C571.899,125.105,565.115,61.514,511.436,80.686z"/>
		<g>
			<defs>
				<path id="SVGID_101_" d="M512.529,83.746c-47.793,17.07-17.482,67.746-11.142,72.119c6.34,4.372,34.784-5.921,34.784-5.921
					s28.531-10.057,30.666-17.456C568.974,125.088,560.322,66.676,512.529,83.746z"/>
			</defs>
			<clipPath id="SVGID_7_">
				<use xlink:href="#SVGID_101_"  overflow="visible"/>
			</clipPath>
			<path clip-path="url(#SVGID_7_)" fill="#222222" d="M512.529,83.746c-47.793,17.07-17.482,67.746-11.142,72.119
				c6.34,4.372,34.784-5.921,34.784-5.921s28.531-10.057,30.666-17.456C568.974,125.088,560.322,66.676,512.529,83.746z"/>
			<polygon clip-path="url(#SVGID_7_)" fill="#282828" points="465.566,128.661 518.469,100.376 496.564,178.778 			"/>
			<polygon clip-path="url(#SVGID_7_)" fill="#222222" points="518.469,100.376 496.564,178.778 541.624,165.208 585.086,147.161 
							"/>
			<polygon clip-path="url(#SVGID_7_)" fill="#303030" points="505.521,64.129 465.566,128.661 518.469,100.376 577.318,88.747 			
				"/>
			<polygon clip-path="url(#SVGID_7_)" fill="#282828" points="577.318,88.747 518.469,100.376 585.086,147.161 			"/>
		</g>
		<g>
			<polygon fill="#C4C4C3" points="550.089,188.909 517.129,200.682 532.041,242.432 565.001,230.659 597.962,218.887 
				583.05,177.137 			"/>
			<polygon fill="#DEDDDD" points="565.001,230.659 532.041,242.432 586.191,289.988 597.962,218.887 			"/>
			<polygon fill="#EEEEEE" points="551.21,192.048 521.043,202.822 532.031,233.586 562.198,222.812 592.366,212.037 
				581.378,181.273 			"/>
			<polygon fill="#FFFFFF" points="537.034,225.074 542.904,212.359 546.268,221.775 			"/>
			<polygon fill="#FFFFFF" points="542.904,212.359 537.034,225.074 533.671,215.656 			"/>
			<polygon fill="#FFFFFF" points="538.658,200.469 532.788,213.184 529.425,203.768 			"/>
			<polygon fill="#FFFFFF" points="532.788,213.184 538.658,200.469 542.021,209.887 			"/>
			<polygon fill="#B2B3B3" points="532.041,242.432 532.031,233.586 565.001,230.659 			"/>
			<polygon fill="#FFFFFF" points="583.102,208.62 570.505,202.501 573.868,211.918 			"/>
			<polygon fill="#FFFFFF" points="570.505,202.501 583.102,208.62 579.738,199.203 			"/>
			<polygon fill="#B2B3B3" points="597.962,218.887 592.366,212.037 565.001,230.659 			"/>
			<polygon fill="#A09F9F" points="562.198,222.812 532.031,233.586 565.001,230.659 592.366,212.037 			"/>
			<g>
				<polygon fill="#A09F9F" points="597.555,144.758 626.138,251.121 597.962,218.887 				"/>
				<polygon fill="#B2B3B3" points="586.5,146.656 597.962,218.887 597.555,144.758 				"/>
				<polygon fill="#8E8E8E" points="586.191,289.988 626.138,251.121 597.962,218.887 				"/>
				<polygon fill="#A09F9F" points="586.191,289.988 538.195,338.602 548.164,366.51 				"/>
			</g>
		</g>
		<g>
			<path fill="#EEEEEE" d="M606.164,147.113c16.951-6.055,11.417-23.466,6.417-41.448c-8.896-31.988-3.937-48.503-1.608-57.024
				l41.316,10.646c-5.325,15.546-6.638,18.354-1.089,41.058c7.501,30.695,15.862,70.324-30.685,86.949L606.164,147.113z"/>
			<path fill="#C4C4C3" d="M654.316,11.219c0.725-2.694-0.652-4.567-2.809-5.223c-2.246-0.686-4.797,0.104-5.567,2.969
				c-1.513,5.615-6.431,22.973-6.431,22.973l-1.265-0.287c0,0,5.931-22.052,6.514-24.221c1.892-7.035-8.295-9.044-10.126-2.237
				c-1.412,5.251-6.283,23.851-6.283,23.851l-1.499-0.409c0,0,2.136-8.911,4.667-18.926c1.312-4.879-0.544-7.043-3.114-7.702
				c-2.569-0.662-5.302,0.328-6.583,5.094c-2.562,9.53-11.151,41.465-11.151,41.465l41.204,11.08c0,0,9.336-34.713,11.091-41.237
				c0.725-2.694-0.875-4.626-3.033-5.282c-2.245-0.685-4.528,0.176-5.3,3.041c-1.51,5.616-5.209,18.438-5.209,18.438l-1.313-0.301
				L654.316,11.219z"/>
			<polygon fill="#454545" points="608.557,54.309 650.726,65.358 653.855,53.213 611.688,42.165 			"/>
		</g>
		<g>
			<path fill="#EEEEEE" d="M483.971,190.756c-16.951,6.055-23.697-10.924-31.221-28.005c-13.383-30.385-27.682-40.021-34.882-45.14
				l-25.226,34.411c13.97,8.655,16.765,9.997,26.854,31.077c13.642,28.502,32.278,64.461,78.825,47.836L483.971,190.756z"/>
			<path fill="#C4C4C3" d="M360.623,116.115c-2.268-1.625-2.389-3.946-1.135-5.82c1.305-1.953,3.777-2.959,6.189-1.229
				c4.727,3.387,19.527,13.701,19.527,13.701l0.798-1.024c0,0-18.559-13.305-20.385-14.613c-5.921-4.244,0.689-12.253,6.419-8.146
				c4.418,3.168,19.971,14.474,19.971,14.474l0.899-1.266c0,0-7.296-5.542-15.601-11.688c-4.105-2.943-4.04-5.794-2.47-7.933
				c1.569-2.139,4.31-3.104,8.321-0.229c8.02,5.751,34.896,25.018,34.896,25.018l-24.86,34.677c0,0-29.215-20.944-34.705-24.881
				c-2.269-1.626-2.255-4.134-1.001-6.009c1.304-1.951,3.616-2.732,6.028-1.004c4.727,3.389,15.71,10.965,15.71,10.965l0.826-1.063
				L360.623,116.115z"/>
			<polygon fill="#454545" points="423.328,120.466 397.7,155.73 387.586,148.315 413.213,113.054 			"/>
		</g>
	</g>
	<g>
		<path fill="#E4E4D8" d="M568.762,264.479c-63.537,22.693-59.357,47.609-79.4,51.366c-17.508,3.281-19.624-14.315-13.904-21.689
			c11.391-14.688,40.531-37.021,88.045-53.991c64.275-22.957,101.803-6.73,101.803-6.73c12.429,4.411,19.354,23.946,1.054,27.011
			C647.113,263.667,632.297,241.786,568.762,264.479z"/>
		<path fill="#E4E4D8" d="M554.962,224.632l5.183-1.956c0,0,30.653-12.565,59.481-10.8c19.278,1.181,27.745,9.701,36.229,7.828
			c13.119-2.896,12.01-15.592,2.998-22.847c-6.369-5.128-26.315-9.524-42.202-9.433c-27.327,0.156-64.303,14.633-64.303,14.633
			l-5.184,1.955L554.962,224.632z"/>
		<path fill="#C6C5B5" d="M547.165,204.013l7.797,20.619c0,0-23.886,9.033-30.847,11.666c-3.479,1.315-4.949,0.245-5.607-1.431
			c-0.657-1.679-0.149-3.03,3.412-4.378c7.247-2.854,13.645-5.458,13.645-5.458l-0.589-1.558c0,0-13.524,5.207-17.36,6.656
			c-4.97,1.881-7.959-4.512-2.819-6.456c1.587-0.6,17.688-6.688,17.688-6.688l-0.574-1.41c0,0-9.467,3.4-13.569,4.952
			c-2.094,0.793-3.457,0.223-3.966-1.287c-0.489-1.45,0.141-2.88,2.108-3.624C521.246,213.814,547.165,204.013,547.165,204.013z"/>
		
			<rect x="545.921" y="203.232" transform="matrix(-0.9354 0.3536 -0.3536 -0.9354 1142.66 219.7097)" fill="#454546" width="10.67" height="22.043"/>
	</g>
</g>
<g id="Layer_2">
</g>
</svg>
