<?xml version="1.0" encoding="utf-8"?>
<!-- Generator: Adobe Illustrator 16.0.0, SVG Export Plug-In . SVG Version: 6.00 Build 0)  -->
<!DOCTYPE svg PUBLIC "-//W3C//DTD SVG 1.1//EN" "http://www.w3.org/Graphics/SVG/1.1/DTD/svg11.dtd">
<svg version="1.1" xmlns="http://www.w3.org/2000/svg" xmlns:xlink="http://www.w3.org/1999/xlink" x="0px" y="0px" width="512px"
	 height="512px" viewBox="0 0 512 512" enable-background="new 0 0 512 512" xml:space="preserve">
<g id="Layer_1">
	<rect x="0" y="-530" display="none" fill="#071C2C" width="512" height="2661"/>
	<g>
		<polygon fill="#C4C4C3" points="313.5,119.072 256,119.072 198.5,119.072 191,125.051 191.614,279.115 198.5,284.616 256,284.616 
			313.5,284.616 320.387,279.115 321,125.051 		"/>
		<path fill="#EEEEEE" d="M357.383,179.103c0-19.392-17.474-29.643-33.998-35.001c-14.824-4.807-28.885-5.677-28.885-5.677
			s4-1.188,3.75-7.562s-4-4.875-4-4.875s3.104-5.042,4.438-9.875s2.74-3.625,2.74-3.625s2.572,1.124,5.238-6.044
			c1.848-4.964,1.5-12.5,0.668-17.5c-0.834-5-3.834-4.832-3.834-4.832l-0.5-1.668c0,0,1.166-1.486,1.166-2.5
			c0-13.206-13.5-35.75-48.166-35.75c-34.667,0-48.167,22.544-48.167,35.75c0,1.014,1.167,2.5,1.167,2.5l-0.5,1.668
			c0,0-3-0.168-3.833,4.832s-1.18,12.536,0.667,17.5c2.667,7.168,5.239,6.044,5.239,6.044s1.406-1.208,2.74,3.625
			s4.438,9.875,4.438,9.875s-3.75-1.5-4,4.875s3.75,7.562,3.75,7.562s-14.061,0.87-28.885,5.677
			c-16.524,5.358-33.998,15.609-33.998,35.001l33.999,7.714l7.884,0.286l-0.05,99.764c0,0,5.05,21.477,31.259,22.766
			c3.954,0.194,11.594,9.403,18.292,12.772s10,3,10,3s3.303,0.369,10-3s14.338-12.578,18.291-12.772
			c26.209-1.289,31.26-22.766,31.26-22.766l-0.051-99.764l7.884-0.286L357.383,179.103z"/>
		<g>
			<path fill="#EEEEEE" d="M290.945,409.519l-5.98-5.98l-4.434-4.434c-24.7-24.7-26.281-36.833-27.9-48.28
				c-1.53-10.816-1.631-29.996-1.631-63.958h-54.55c0,38.55,0,60.134,5.5,90.492c3.383,18.673,21.3,41.032,40.008,60.319
				l4.433,4.433c0,0,5.556,18.104,12.436,26.398c6.882,8.296,13.78,15.016,24.749,4.242
				C299.264,457.341,290.945,409.519,290.945,409.519z"/>
			<g>
				<defs>
					<path id="SVGID_47_" d="M290.945,409.519l-5.98-5.98l-4.434-4.434c-24.7-24.7-26.281-36.833-27.9-48.28
						c-1.53-10.816-1.631-29.996-1.631-63.958h-54.55c0,38.55,0,60.134,5.5,90.492c3.383,18.673,21.3,41.032,40.008,60.319
						l4.433,4.433c0,0,5.556,18.104,12.436,26.398c6.882,8.296,13.78,15.016,24.749,4.242
						C299.264,457.341,290.945,409.519,290.945,409.519z"/>
				</defs>
				<clipPath id="SVGID_1_">
					<use xlink:href="#SVGID_47_"  overflow="visible"/>
				</clipPath>
				
					<rect x="232.598" y="412.227" transform="matrix(0.7071 -0.7071 0.7071 0.7071 -219.4364 307.2267)" clip-path="url(#SVGID_1_)" fill="#454545" width="57.078" height="12.54"/>
				<polygon clip-path="url(#SVGID_1_)" fill="#A09F9F" points="201.95,377.358 276.883,393.882 339,458.667 262,489.667 
					192.333,396.334 				"/>
				<polygon clip-path="url(#SVGID_1_)" fill="#E0E0E0" points="252.631,350.824 251.187,324.56 201.95,377.358 				"/>
				<polygon clip-path="url(#SVGID_1_)" fill="#B2B3B3" points="276.883,393.882 252.631,350.824 201.95,377.358 				"/>
			</g>
		</g>
		<g>
			<path fill="#EEEEEE" d="M220.91,409.519l5.98-5.98l4.434-4.434c24.7-24.7,26.281-36.833,27.9-48.28
				c1.53-10.816,1.631-29.996,1.631-63.958h54.551c0,38.55,0,60.134-5.5,90.492c-3.383,18.673-21.301,41.032-40.009,60.319
				l-4.433,4.433c0,0-5.556,18.104-12.436,26.398c-6.882,8.296-13.78,15.016-24.749,4.242
				C212.592,457.341,220.91,409.519,220.91,409.519z"/>
			<g>
				<defs>
					<path id="SVGID_49_" d="M220.91,409.519l5.98-5.98l4.434-4.434c24.7-24.7,26.281-36.833,27.9-48.28
						c1.53-10.816,1.631-29.996,1.631-63.958h54.551c0,38.55,0,60.134-5.5,90.492c-3.383,18.673-21.301,41.032-40.009,60.319
						l-4.433,4.433c0,0-5.556,18.104-12.436,26.398c-6.882,8.296-13.78,15.016-24.749,4.242
						C212.592,457.341,220.91,409.519,220.91,409.519z"/>
				</defs>
				<clipPath id="SVGID_3_">
					<use xlink:href="#SVGID_49_"  overflow="visible"/>
				</clipPath>
				
					<rect x="222.179" y="412.227" transform="matrix(-0.7071 -0.7071 0.7071 -0.7071 132.0811 891.7029)" clip-path="url(#SVGID_3_)" fill="#454545" width="57.078" height="12.54"/>
				<polygon clip-path="url(#SVGID_3_)" fill="#E0E0E0" points="259.225,350.824 260.669,324.56 309.906,377.358 				"/>
				<polygon clip-path="url(#SVGID_3_)" fill="#E0E0E0" points="234.973,393.882 259.225,350.824 309.906,377.358 				"/>
			</g>
		</g>
		<g>
			<path fill="#EEEEEE" d="M316.328,187.104c10.166,0,10.908,13.887,10.908,26.393c0,12.504-2.941,20.941-27.641,45.642l30.17,30.17
				c25.74-25.741,40.332-48.913,40.332-77.892c0-34.637-14.77-66.98-58.77-66.98L316.328,187.104z"/>
			<path fill="#C4C4C3" d="M289.027,315.6c-1.973,1.973-4.283,1.714-5.928,0.172c-1.715-1.604-2.307-4.21-0.207-6.309
				c4.111-4.111,16.695-17.038,16.695-17.038l-0.881-0.953c0,0-16.146,16.147-17.734,17.735c-5.152,5.151-11.979-2.674-6.994-7.658
				c3.846-3.844,17.531-17.35,17.531-17.35l-1.105-1.094c0,0-6.652,6.297-14.068,13.491c-3.572,3.573-6.373,3.044-8.229,1.146
				s-2.359-4.757,1.129-8.247c6.979-6.978,30.359-30.358,30.359-30.358l30.17,30.17c0,0-25.416,25.416-30.193,30.192
				c-1.973,1.974-4.445,1.553-6.09,0.012c-1.715-1.605-2.109-4.014-0.01-6.111c4.111-4.112,13.375-13.717,13.375-13.717
				l-0.916-0.988L289.027,315.6z"/>
			
				<rect x="293.347" y="267.951" transform="matrix(-0.7071 -0.7071 0.7071 -0.7071 343.2982 690.6379)" fill="#454545" width="42.669" height="12.54"/>
		</g>
		<g>
			<polygon fill="#C4C4C3" points="256,164.737 221,164.737 221,209.07 256,209.07 291,209.07 291,164.737 			"/>
			<polygon fill="#DEDDDD" points="256,209.07 221,209.07 256,272.07 291,209.07 			"/>
			<polygon fill="#EEEEEE" points="256,168.07 223.966,168.07 223.966,200.737 256,200.737 288.034,200.737 288.034,168.07 			"/>
			<polygon fill="#FFFFFF" points="231.541,194.403 241.346,184.404 241.346,194.403 			"/>
			<polygon fill="#FFFFFF" points="241.346,184.404 231.541,194.403 231.541,184.404 			"/>
			<polygon fill="#FFFFFF" points="241.346,171.779 231.541,181.778 231.541,171.779 			"/>
			<polygon fill="#FFFFFF" points="231.541,181.778 241.346,171.779 241.346,181.778 			"/>
			<polygon fill="#B2B3B3" points="221,209.07 223.966,200.737 256,209.07 			"/>
			<polygon fill="#FFFFFF" points="280.459,194.403 270.654,184.404 270.654,194.403 			"/>
			<polygon fill="#FFFFFF" points="270.654,184.404 280.459,194.403 280.459,184.404 			"/>
			<polygon fill="#B2B3B3" points="291,209.07 288.034,200.737 256,209.07 			"/>
			<polygon fill="#A09F9F" points="256,200.737 223.966,200.737 256,209.07 288.034,200.737 			"/>
			<g>
				<polygon fill="#A09F9F" points="315.551,139.124 306.691,248.904 291,209.07 				"/>
				<polygon fill="#B2B3B3" points="304.5,137.193 291,209.07 315.551,139.124 				"/>
				<polygon fill="#8E8E8E" points="256,272.07 306.691,248.904 291,209.07 				"/>
				<polygon fill="#A09F9F" points="256,272.07 194.449,301.707 194.45,331.343 				"/>
			</g>
		</g>
		<path fill="#454545" d="M256,137.188c-33.917,0-38.496-2.7-42.246-5.117c0.579,10.25,11.079,10.245,42.246,10.245
			c31.166,0,41.666,0.005,42.246-10.245C294.496,134.487,289.916,137.188,256,137.188z"/>
		<path fill="#FFFFFF" d="M256,49.818c-57,0-42,62.169-34.421,76.818c0,0,10.254,3.975,34.421,3.975
			c24.166,0,34.421-3.975,34.421-3.975C298,111.987,313,49.818,256,49.818z"/>
		<g>
			<defs>
				<path id="SVGID_51_" d="M256,53.068c-50.75,0-39.25,57.919-34.75,64.169s34.75,6.125,34.75,6.125s30.25,0.125,34.75-6.125
					S306.75,53.068,256,53.068z"/>
			</defs>
			<clipPath id="SVGID_5_">
				<use xlink:href="#SVGID_51_"  overflow="visible"/>
			</clipPath>
			<path clip-path="url(#SVGID_5_)" fill="#222222" d="M256,53.068c-50.75,0-39.25,57.919-34.75,64.169s34.75,6.125,34.75,6.125
				s30.25,0.125,34.75-6.125S306.75,53.068,256,53.068z"/>
			<polygon clip-path="url(#SVGID_5_)" fill="#282828" points="196.667,79.57 256,70.728 209,137.193 			"/>
			<polygon clip-path="url(#SVGID_5_)" fill="#222222" points="256,70.728 209,137.193 256,139.57 303,137.193 			"/>
			<polygon clip-path="url(#SVGID_5_)" fill="#303030" points="256,32.237 196.667,79.57 256,70.728 315.333,79.57 			"/>
			<polygon clip-path="url(#SVGID_5_)" fill="#282828" points="315.333,79.57 256,70.728 303,137.193 			"/>
		</g>
		<g>
			<path fill="#EEEEEE" d="M196.5,187.104c-10.166,0-10.908,13.887-10.908,26.393c0,12.504,2.941,20.941,27.641,45.642l-30.17,30.17
				c-25.74-25.741-40.332-48.913-40.332-77.892c0-34.637,14.769-66.98,58.769-66.98L196.5,187.104z"/>
			<path fill="#C4C4C3" d="M223.801,315.6c1.973,1.973,4.283,1.714,5.928,0.172c1.715-1.604,2.307-4.21,0.207-6.309
				c-4.111-4.111-16.695-17.038-16.695-17.038l0.881-0.953c0,0,16.146,16.147,17.734,17.735c5.152,5.151,11.979-2.674,6.994-7.658
				c-3.846-3.844-17.531-17.35-17.531-17.35l1.105-1.094c0,0,6.652,6.297,14.068,13.491c3.572,3.573,6.373,3.044,8.229,1.146
				s2.359-4.757-1.129-8.247c-6.979-6.978-30.359-30.358-30.359-30.358l-30.17,30.17c0,0,25.416,25.416,30.193,30.192
				c1.973,1.974,4.445,1.553,6.09,0.012c1.715-1.605,2.109-4.014,0.01-6.111c-4.111-4.112-13.375-13.717-13.375-13.717l0.916-0.988
				L223.801,315.6z"/>
			
				<rect x="176.812" y="267.951" transform="matrix(0.7071 -0.7071 0.7071 0.7071 -135.867 220.4229)" fill="#454545" width="42.669" height="12.54"/>
		</g>
	</g>
</g>
<g id="Layer_2">
</g>
</svg>
