<?xml version="1.0" encoding="utf-8"?>
<!-- Generator: Adobe Illustrator 16.0.0, SVG Export Plug-In . SVG Version: 6.00 Build 0)  -->
<!DOCTYPE svg PUBLIC "-//W3C//DTD SVG 1.1//EN" "http://www.w3.org/Graphics/SVG/1.1/DTD/svg11.dtd">
<svg version="1.1" xmlns="http://www.w3.org/2000/svg" xmlns:xlink="http://www.w3.org/1999/xlink" x="0px" y="0px" width="512px"
	 height="512px" viewBox="0 0 512 512" enable-background="new 0 0 512 512" xml:space="preserve">
<g id="Layer_1">
	<rect display="none" fill="#071C2C" width="512" height="2107"/>
	<g>
		<g>
			<path fill="#E5E5D8" d="M236.364,22.086c0,0,23.713,20.659,25.042,37.988c-10.064,8.33-10.064,8.33-24.551,8.043
				c20.816-8.711-10.599-45.428-10.599-45.428L236.364,22.086z"/>
			<circle fill="#E5E5D8" cx="231.024" cy="17.648" r="12.623"/>
			<circle fill="#454545" cx="231.023" cy="17.648" r="6.946"/>
		</g>
		<path fill="#222222" d="M256,189.785c-18.34,0-33.009,15.01-33.009,33.35S237.66,256.201,256,256.201s33.009-14.727,33.009-33.066
			S274.34,189.785,256,189.785z"/>
		<g>
			<path fill="#C6C5B5" d="M214.625,161.949c0,16.15-13.09,29.241-29.241,29.241c-16.153,0-29.242-13.091-29.242-29.241
				c0-16.152,13.089-29.242,29.242-29.242C201.535,132.707,214.625,145.797,214.625,161.949z"/>
			<path fill="#454545" d="M185.244,139.151c-12.715,0-23.011,10.304-23.017,23.017c0,12.709,10.302,23.012,23.017,23.012
				c12.709,0,23.01-10.303,23.01-23.012C208.254,149.455,197.953,139.151,185.244,139.151z"/>
		</g>
		<g>
			<path fill="#C6C5B5" d="M297.375,161.949c0,16.15,13.09,29.241,29.241,29.241c16.153,0,29.242-13.091,29.242-29.241
				c0-16.152-13.089-29.242-29.242-29.242C310.465,132.707,297.375,145.797,297.375,161.949z"/>
			<path fill="#454545" d="M326.756,139.151c12.715,0,23.011,10.304,23.017,23.017c0,12.709-10.302,23.012-23.017,23.012
				c-12.709,0-23.01-10.303-23.01-23.012C303.746,149.455,314.047,139.151,326.756,139.151z"/>
		</g>
		<path fill="#E5E5D8" d="M308.51,83.963c-0.12-0.219-0.244-0.43-0.366-0.645C294.08,58.279,275.967,42.996,256,42.996
			s-38.08,15.283-52.145,40.322c-0.122,0.215-0.246,0.426-0.366,0.645c-17.018,30.663-27.781,79.355-27.781,129.845h2.267H256
			h78.024h2.267C336.291,163.318,325.528,114.626,308.51,83.963z"/>
		<path fill="#E5E5D8" d="M256,42.996c-19.967,0-38.08,15.283-52.145,40.322L256,135.463l52.145-52.145
			C294.08,58.279,275.967,42.996,256,42.996z"/>
		<path fill="#DDDDCE" d="M203.855,83.318c-0.122,0.215-0.246,0.426-0.366,0.645c-17.018,30.663-27.781,79.355-27.781,129.845h2.267
			L256,135.463L203.855,83.318z"/>
		<path fill="#DDDDCE" d="M308.145,83.318c0.122,0.215,0.246,0.426,0.366,0.645c17.018,30.663,27.781,79.355,27.781,129.845h-2.267
			L256,135.463L308.145,83.318z"/>
		<polygon fill="#E5E5D8" points="256,135.463 177.976,213.808 256,213.808 334.024,213.808 		"/>
		<path fill="#222222" d="M289.561,110.111H256h-33.561c-14.271,0-25.844,12.731-25.844,28.438
			c0,15.702,11.572,28.434,25.844,28.434H256h33.561c14.271,0,25.844-12.731,25.844-28.434
			C315.404,122.843,303.832,110.111,289.561,110.111z"/>
		<g>
			<defs>
				<path id="SVGID_39_" d="M234.472,155.117c0,2.707-2.194,4.9-4.9,4.9l0,0c-2.707,0-4.901-2.193-4.901-4.9v-29.307
					c0-2.707,2.194-4.902,4.901-4.902l0,0c2.706,0,4.9,2.195,4.9,4.902V155.117z"/>
			</defs>
			<clipPath id="SVGID_1_">
				<use xlink:href="#SVGID_39_"  overflow="visible"/>
			</clipPath>
			<path clip-path="url(#SVGID_1_)" fill="#EECC70" d="M234.472,155.117c0,2.707-2.194,4.9-4.9,4.9l0,0
				c-2.707,0-4.901-2.193-4.901-4.9v-29.307c0-2.707,2.194-4.902,4.901-4.902l0,0c2.706,0,4.9,2.195,4.9,4.902V155.117z"/>
			<polygon clip-path="url(#SVGID_1_)" fill="#FADF8D" points="223.404,119.742 223.404,161.557 235.614,110.111 			"/>
			<polygon clip-path="url(#SVGID_1_)" fill="#EECC70" points="223.404,161.557 234.376,165.793 235.614,110.111 			"/>
		</g>
		<polygon fill="#FADF8D" points="256,110.111 241.837,110.111 256,131.707 270.163,110.111 		"/>
		<g>
			<defs>
				<path id="SVGID_41_" d="M277.528,155.117c0,2.707,2.194,4.9,4.9,4.9l0,0c2.707,0,4.901-2.193,4.901-4.9v-29.307
					c0-2.707-2.194-4.902-4.901-4.902l0,0c-2.706,0-4.9,2.195-4.9,4.902V155.117z"/>
			</defs>
			<clipPath id="SVGID_3_">
				<use xlink:href="#SVGID_41_"  overflow="visible"/>
			</clipPath>
			<path clip-path="url(#SVGID_3_)" fill="#EECC70" d="M277.528,155.117c0,2.707,2.194,4.9,4.9,4.9l0,0
				c2.707,0,4.901-2.193,4.901-4.9v-29.307c0-2.707-2.194-4.902-4.901-4.902l0,0c-2.706,0-4.9,2.195-4.9,4.902V155.117z"/>
			<polygon clip-path="url(#SVGID_3_)" fill="#FADF8D" points="288.596,119.742 288.596,161.557 276.386,110.111 			"/>
			<polygon clip-path="url(#SVGID_3_)" fill="#EECC70" points="288.596,161.557 277.624,165.793 276.386,110.111 			"/>
		</g>
		<g>
			<g>
				<path fill="#E4E4D8" d="M170.636,247.012l-59.888,70.014c4.679,0.773,8.738,3.352,11.449,7.008l58.051-67.867
					C176.107,254.14,172.789,250.907,170.636,247.012z"/>
			</g>
			<g>
				<path fill="#E4E4D8" d="M108.929,366.5c3.753-1.7,7.77-2.035,11.515-1.251l-2.095-29.585c-2.011,0.639-4.163,0.95-6.395,0.828
					c-2.499-0.137-4.851-0.784-6.962-1.826l2.314,32.673C107.829,367.038,108.37,366.756,108.929,366.5z"/>
			</g>
			<g>
				<path fill="#454546" d="M99.716,391c-4.252-9.386-0.092-20.441,9.29-24.695c9.385-4.252,20.443-0.096,24.697,9.29l-4.495,2.037
					c-3.127-6.898-11.262-9.958-18.163-6.83c-6.901,3.128-9.96,11.261-6.833,18.16l-1.248,0.564l-2.111,0.958L99.716,391z"/>
			</g>
			<path fill="#C6C5B5" d="M194.349,259.268c-0.522,9.527-8.664,16.824-18.189,16.305s-16.825-8.661-16.302-18.188
				c0.52-9.522,8.664-16.823,18.187-16.303C187.569,241.602,194.869,249.746,194.349,259.268z"/>
			<path fill="#454546" d="M187.611,259.062c-0.319,5.852-5.321,10.332-11.169,10.013c-5.851-0.319-10.335-5.32-10.013-11.171
				c0.319-5.847,5.321-10.328,11.171-10.011C183.446,248.215,187.93,253.214,187.611,259.062z"/>
			<path fill="#C6C5B5" d="M123.149,327.714c-0.319,5.854-5.323,10.338-11.174,10.019c-5.851-0.322-10.335-5.323-10.016-11.177
				c0.319-5.848,5.323-10.332,11.174-10.013C118.984,316.862,123.468,321.866,123.149,327.714z"/>
			<circle fill="#454546" cx="112.633" cy="327.355" r="6.517"/>
		</g>
		<g>
			<g>
				<path fill="#E4E4D8" d="M340.894,247.012l59.888,70.014c-4.679,0.773-8.738,3.352-11.449,7.008l-58.051-67.867
					C335.422,254.14,338.74,250.907,340.894,247.012z"/>
			</g>
			<g>
				<path fill="#E4E4D8" d="M402.6,366.5c-3.753-1.7-7.77-2.035-11.515-1.251l2.095-29.585c2.011,0.639,4.163,0.95,6.395,0.828
					c2.499-0.137,4.851-0.784,6.962-1.826l-2.314,32.673C403.701,367.038,403.16,366.756,402.6,366.5z"/>
			</g>
			<g>
				<path fill="#454546" d="M411.813,391c4.252-9.386,0.092-20.441-9.29-24.695c-9.385-4.252-20.443-0.096-24.697,9.29l4.495,2.037
					c3.127-6.898,11.262-9.958,18.163-6.83c6.901,3.128,9.96,11.261,6.833,18.16l1.248,0.564l2.111,0.958L411.813,391z"/>
			</g>
			<path fill="#C6C5B5" d="M317.181,259.268c0.522,9.527,8.664,16.824,18.189,16.305s16.825-8.661,16.302-18.188
				c-0.52-9.522-8.664-16.823-18.187-16.303C323.96,241.602,316.661,249.746,317.181,259.268z"/>
			<path fill="#454546" d="M323.918,259.062c0.319,5.852,5.321,10.332,11.169,10.013c5.851-0.319,10.335-5.32,10.013-11.171
				c-0.319-5.847-5.321-10.328-11.171-10.011C328.083,248.215,323.599,253.214,323.918,259.062z"/>
			<path fill="#C6C5B5" d="M388.38,327.714c0.319,5.854,5.323,10.338,11.174,10.019c5.851-0.322,10.335-5.323,10.016-11.177
				c-0.319-5.848-5.323-10.332-11.174-10.013C392.545,316.862,388.061,321.866,388.38,327.714z"/>
			<circle fill="#454546" cx="398.896" cy="327.355" r="6.517"/>
		</g>
		<g>
			<defs>
				<path id="SVGID_43_" d="M172.009,229.213c0,104.656,37.519,189.686,83.991,189.686s83.991-85.029,83.991-189.686H172.009z"/>
			</defs>
			<clipPath id="SVGID_5_">
				<use xlink:href="#SVGID_43_"  overflow="visible"/>
			</clipPath>
			<path clip-path="url(#SVGID_5_)" fill="#DDDDCE" d="M172.009,229.213c0,104.656,37.519,189.686,83.991,189.686
				s83.991-85.029,83.991-189.686H172.009z"/>
			<polygon clip-path="url(#SVGID_5_)" fill="#DDDDCE" points="203.855,286.212 207.47,354.756 256,264.684 			"/>
			<polygon clip-path="url(#SVGID_5_)" fill="#D1D1C4" points="172.076,241.055 149.934,318.242 166.211,387.903 207.47,354.756 
				203.855,286.212 			"/>
			<polygon clip-path="url(#SVGID_5_)" fill="#C6C5B5" points="207.47,354.756 166.211,387.903 256,433.034 			"/>
			<polygon clip-path="url(#SVGID_5_)" fill="#DDDDCE" points="308.145,286.212 304.53,354.756 256,264.684 			"/>
			<polygon clip-path="url(#SVGID_5_)" fill="#D1D1C4" points="339.924,241.055 362.066,318.242 345.789,387.903 304.53,354.756 
				308.145,286.212 			"/>
			<polygon clip-path="url(#SVGID_5_)" fill="#C6C5B5" points="304.53,354.756 345.789,387.903 256,433.034 			"/>
			<polygon clip-path="url(#SVGID_5_)" fill="#E5E5D8" points="256,241.055 172.076,241.055 203.855,286.212 256,264.684 
				308.145,286.212 339.924,241.055 			"/>
		</g>
		<polygon fill="#DDDDCE" points="256,354.756 207.47,354.756 256,433.034 304.53,354.756 		"/>
		<polygon fill="#E39C27" points="290.507,433.034 281.029,433.034 268.821,433.034 256,433.034 243.179,433.034 230.971,433.034 
			221.493,433.034 230.971,474.264 238.07,450.288 256,493.865 273.93,450.288 281.029,474.264 		"/>
		<g>
			<polygon fill="#E39C27" points="230.971,433.034 256,493.865 256,433.034 			"/>
			<polygon fill="#E39C27" points="221.493,433.034 230.971,474.264 230.971,433.034 			"/>
			<polygon fill="#EBB246" points="230.971,433.034 230.971,474.264 243.179,433.034 			"/>
			<polygon fill="#EBB246" points="281.029,433.034 256,493.865 256,433.034 			"/>
			<polygon fill="#EBB246" points="290.507,433.034 281.029,474.264 281.029,433.034 			"/>
			<polygon fill="#E39C27" points="281.029,433.034 281.029,474.264 268.821,433.034 			"/>
		</g>
		<polygon fill="#454545" points="276.126,400.57 290.507,433.034 256,433.034 		"/>
		<polygon fill="#222222" points="276.126,400.57 290.507,433.034 276.126,433.034 		"/>
		<polygon fill="#454545" points="235.874,400.57 221.493,433.034 256,433.034 		"/>
		<polygon fill="#222222" points="235.874,400.57 221.493,433.034 235.874,433.034 		"/>
		<g>
			<polygon fill="#454545" points="256,210.306 174.125,210.306 174.125,217.311 256,217.311 337.875,217.311 337.875,210.306 			
				"/>
		</g>
		<g>
			<polygon fill="#454545" points="256,229.145 171.451,229.145 171.451,241.055 256,241.055 340.549,241.055 340.549,229.145 			
				"/>
		</g>
		<g>
			<polygon fill="#454545" points="256,428.85 220.622,428.85 220.622,437.491 256,437.491 291.378,437.491 291.378,428.85 			"/>
		</g>
		<polygon fill="#FADF8D" points="256,264.684 207.47,354.756 256,354.756 304.53,354.756 		"/>
	</g>
</g>
<g id="Layer_2">
</g>
</svg>
