<?xml version="1.0" encoding="utf-8"?>
<!-- Generator: Adobe Illustrator 16.0.0, SVG Export Plug-In . SVG Version: 6.00 Build 0)  -->
<!DOCTYPE svg PUBLIC "-//W3C//DTD SVG 1.1//EN" "http://www.w3.org/Graphics/SVG/1.1/DTD/svg11.dtd">
<svg version="1.1" id="Layer_1" xmlns="http://www.w3.org/2000/svg" xmlns:xlink="http://www.w3.org/1999/xlink" x="0px" y="0px"
	 width="512px" height="512px" viewBox="0 0 512 512" enable-background="new 0 0 512 512" xml:space="preserve">
<rect x="0" display="none" fill="#071C2C" width="512" height="512.5"/>
<path fill="#EEEEEE" d="M357.383,179.103c0-19.392-17.474-29.643-33.998-35.001c-14.824-4.807-28.885-5.677-28.885-5.677
	s4-1.188,3.75-7.563s-4-4.875-4-4.875s3.104-5.042,4.438-9.875s2.74-3.625,2.74-3.625s2.572,1.124,5.238-6.043
	c1.848-4.964,1.5-12.5,0.668-17.5c-0.834-5-3.834-4.833-3.834-4.833l-0.5-1.667c0,0,1.166-1.486,1.166-2.5
	c0-13.207-13.5-35.75-48.166-35.75c-34.667,0-48.167,22.543-48.167,35.75c0,1.014,1.167,2.5,1.167,2.5l-0.5,1.667
	c0,0-3-0.167-3.833,4.833s-1.18,12.536,0.667,17.5c2.667,7.167,5.239,6.043,5.239,6.043s1.406-1.208,2.74,3.625
	s4.438,9.875,4.438,9.875s-3.75-1.5-4,4.875s3.75,7.563,3.75,7.563s-14.061,0.87-28.885,5.677
	c-16.524,5.358-33.998,15.609-33.998,35.001l33.999,7.714l7.884,0.286l-0.05,99.764c0,0,5.05,21.477,31.259,22.766
	c3.954,0.194,11.594,9.404,18.292,12.772s10,3,10,3s3.303,0.369,10-3s14.338-12.578,18.291-12.772
	c26.209-1.289,31.26-22.766,31.26-22.766l-0.051-99.764l7.884-0.286L357.383,179.103z"/>
<g display="none">
	<path display="inline" fill="none" stroke="#010101" stroke-width="3" stroke-miterlimit="10" d="M379.878,607.142l1.949-27.518
		c-0.049,0.024-0.103,0.043-0.152,0.067c1.798-1.748,2.865-4.227,2.718-6.929c-0.237-4.359-3.552-7.817-7.721-8.396l-41.294-48.276
		c0.044-0.609,0.063-1.226,0.028-1.854c-0.42-7.69-6.722-13.652-14.302-13.797c0.002-0.042,0.004-0.087,0.004-0.132h0.359v-11.341
		h-49.184c0.34-1.855,0.526-3.767,0.526-5.723c0-1.894-0.176-3.745-0.495-5.546h44.827v-6.599h0.602
		c0-12.223-0.668-24.123-1.923-35.558c4.9-2.517,8.259-7.61,8.259-13.498c0-7.565-5.542-13.82-12.783-14.972
		c-4.064-19.21-9.896-36.438-17.074-50.782c-1.064-2.125-2.161-4.185-3.283-6.181c-12.386-22.053-28.195-36.034-45.546-38.005
		c-1.405-0.161-2.821-0.248-4.247-0.248c-0.381,0-0.758,0.016-1.138,0.027c-5.283-12.101-17.163-29.344-20.63-34.275
		c1.132-1.833,1.796-3.984,1.796-6.296c0-6.639-5.381-12.022-12.021-12.022c-6.639,0-12.021,5.384-12.021,12.022
		c0,6.636,5.382,12.018,12.021,12.018c0.921,0,1.815-0.113,2.677-0.309c5.619,8.354,13.81,22.22,13.84,32.091
		c-12.927,5.516-24.666,17.799-34.324,34.995c-0.116,0.206-0.234,0.406-0.349,0.614c-8.512,15.34-15.378,34.521-19.982,56.242
		c-7.593,0.835-13.503,7.266-13.503,15.082c0,6.147,3.661,11.428,8.916,13.815c-1.229,11.314-1.88,23.084-1.883,35.169h-0.792v6.67
		h46.308c-0.318,1.802-0.494,3.653-0.494,5.546c0,1.957,0.186,3.868,0.527,5.723h-49.009v0.065h-0.064
		c0,2.327,0.025,4.64,0.064,6.944v4.332h0.096c0,0.045,0.002,0.087,0.003,0.132c-7.532,0.199-13.776,6.143-14.194,13.797
		c-0.035,0.628-0.016,1.244,0.028,1.854l-41.294,48.276c-4.169,0.579-7.482,4.037-7.72,8.396c-0.147,2.702,0.92,5.181,2.717,6.929
		c-0.049-0.024-0.103-0.043-0.152-0.067l1.95,27.518c-6.907,4.025-9.784,12.705-6.413,20.146l0.962-0.436l1.786-0.811l1.056-0.478
		c-2.646-5.837-0.058-12.72,5.781-15.365c5.839-2.646,12.721-0.059,15.367,5.778l3.803-1.724c-2.171-4.789-6.443-7.956-11.232-8.934
		l-1.739-24.567c2.298-1.514,3.881-4.051,4.042-7.009c0.067-1.218-0.116-2.392-0.498-3.475l37.297-43.604
		c2.249,1.713,5.017,2.796,8.052,2.961c0.769,0.043,1.523,0.007,2.266-0.069c6.139,60.229,25.662,108.944,51.141,129.438
		l-6.086,19.819h14.754v-0.009h18.799l-0.071-0.16h0.502h0.06h18.846h14.621l-6.518-20.468
		c24.992-20.954,44.086-69.187,50.142-128.63c0.778,0.083,1.567,0.123,2.374,0.078c3.035-0.165,5.803-1.248,8.052-2.961
		l37.297,43.604c-0.382,1.083-0.564,2.257-0.498,3.475c0.161,2.958,1.744,5.495,4.042,7.009l-1.739,24.567
		c-4.789,0.978-9.061,4.145-11.232,8.934l3.803,1.724c2.646-5.837,9.528-8.425,15.368-5.778c5.839,2.646,8.427,9.528,5.78,15.365
		l1.057,0.478l1.786,0.811l0.963,0.436C389.661,619.847,386.784,611.167,379.878,607.142z"/>
</g>
<g>
	<polygon fill="#C4C4C3" points="191,125.051 198.5,119.073 256,119.073 256,284.616 198.5,284.616 191.614,279.115 	"/>
	<path fill="#EEEEEE" d="M196.5,187.103l-0.05,99.764c0,0,5.05,21.477,31.259,22.766c3.954,0.194,11.594,9.404,18.292,12.772
		s10,3,10,3V44.194c-34.667,0-48.167,22.543-48.167,35.75c0,1.014,1.167,2.5,1.167,2.5l-0.5,1.667c0,0-3-0.167-3.833,4.833
		s-1.18,12.536,0.667,17.5c2.667,7.167,5.239,6.043,5.239,6.043s1.406-1.208,2.74,3.625s4.438,9.875,4.438,9.875s-3.75-1.5-4,4.875
		s3.75,7.563,3.75,7.563s-14.061,0.87-28.885,5.677c-16.524,5.358-33.998,15.609-33.998,35.001l33.999,7.714L196.5,187.103z"/>
	<path fill="#454545" d="M256,137.188c-33.917,0-38.496-2.701-42.246-5.117c0.579,10.25,11.079,10.245,42.246,10.245V137.188z"/>
	<g>
		<path fill="#EEEEEE" d="M196.5,187.103c-12.884,0-10.167,18.578-10.167,37.245c0,29.021,0,19.068,0,47.723h-42.668
			c0-30.126,0-18.744,0-47.723c0-49.333,13.167-79.912,57.834-79.912L196.5,187.103z"/>
		<rect x="143.666" y="272.071" fill="#454545" width="42.668" height="12.545"/>
		<path fill="#EEEEEE" d="M153.882,325.744c0,2.79,1.816,4.241,4.07,4.313c2.346,0.078,4.605-1.346,4.605-4.313
			c0-5.815,0.242-23.854,0.242-23.854l1.297-0.051c0,0,0,22.835,0,25.082c0,7.284,10.359,6.578,10.359-0.471
			c0-5.437-0.127-24.664-0.127-24.664l1.555,0.008c0,0,0.252,9.158,0.408,19.487c0,5.053,2.354,6.659,5.008,6.63
			c2.652-0.029,5.033-1.695,5.033-6.63c0-9.868,0-36.665,0-36.665h-42.668c0,0,0,29.675,0,36.431c0,2.79,2.047,4.241,4.301,4.313
			c2.346,0.078,4.328-1.346,4.328-4.313c0-5.815,0.242-19.157,0.242-19.157l1.346-0.051V325.744z"/>
	</g>
	<g>
		<path fill="#FFFFFF" d="M221.579,126.636C214,111.987,199,49.818,256,49.818v80.793
			C231.833,130.612,221.579,126.636,221.579,126.636z"/>
		<path fill="#222222" d="M256,123.362c0,0-30.25,0.125-34.75-6.125s-16-64.169,34.75-64.169V123.362z"/>
		<g>
			<defs>
				<path id="SVGID_9_" d="M256,123.362c0,0-30.25,0.125-34.75-6.125s-16-64.169,34.75-64.169V123.362z"/>
			</defs>
			<clipPath id="SVGID_2_">
				<use xlink:href="#SVGID_9_"  overflow="visible"/>
			</clipPath>
			<polygon clip-path="url(#SVGID_2_)" fill="#222222" points="256,70.728 209,137.193 256,139.571 			"/>
			<polygon clip-path="url(#SVGID_2_)" fill="#303030" points="256,70.728 196.667,79.571 256,32.237 			"/>
			<polygon clip-path="url(#SVGID_2_)" fill="#282828" points="196.667,79.571 256,70.728 209,137.193 			"/>
		</g>
	</g>
	<g>
		<path fill="#EEEEEE" d="M251,426.902h-54.55v6.271c0,0-8.873,16.728-9.873,27.459s-0.874,20.361,14.5,20.5
			c21.99,0.197,49.923-39.5,49.923-39.5v-8.459V426.902z"/>
		<path fill="#EEEEEE" d="M251,286.866c0,64.821,0,53.738,0,82.759s0,22.345,0,57.277h-54.55c0-36.404,0-28.298,0-57.277
			s0-13.936,0-82.759H251z"/>
		<rect x="196.45" y="420.631" fill="#454545" width="54.55" height="12.541"/>
		<polygon fill="#E0E0E0" points="251,420.631 196.449,384.81 251,367.749 		"/>
		<polygon fill="#E0E0E0" points="251,367.749 251,324.973 196.449,384.81 		"/>
	</g>
</g>
<g>
	<path fill="#EEEEEE" d="M323.606,144.237c18,0,24.885-18.579,24.885-37.245c0-16.69,0,2.556,0-32.375h42.668
		c0,36.404,0,13.686,0,32.375c0,49.333-22.885,79.912-67.553,79.912V144.237z"/>
	<path fill="#B5B5B6" d="M380.942,39.761c0-2.79-1.816-4.242-4.07-4.314c-2.346-0.077-4.605,1.347-4.605,4.314
		c0,5.815-0.242,11.313-0.242,11.313l-1.297,0.051c0,0,0-12.362,0-14.609c0-7.284-10.359-6.579-10.359,0.47
		c0,5.437,0.127,14.191,0.127,14.191l-1.555-0.007c0,0,0-4.5,0-12.342c0-5.053-2.762-6.518-5.416-6.489
		c-2.652,0.03-5.033,1.695-5.033,6.63c0,9.868,0,35.648,0,35.648h42.668c0,0,0-25.47,0-32.226c0-2.79-2.047-4.242-4.301-4.314
		c-2.346-0.077-4.57,1.159-4.57,4.126c0,5.815,0,8.872,0,8.872l-1.346,0.051V39.761z"/>
	<rect x="348.491" y="68.346" fill="#454545" width="42.668" height="12.541"/>
	<path fill="#EEEEEE" d="M380.942,49.865v-7.572c0-2.79-1.816-4.242-4.07-4.314c-2.346-0.077-4.605,1.347-4.605,4.314
		c0,5.815-0.242,7.521-0.242,7.521c0,3.219,2.229,4.736,4.457,4.697C378.712,54.471,380.942,52.874,380.942,49.865z"/>
	<path fill="#EEEEEE" d="M391.159,49.858c0-3.508,0-3.705,0-5.78c0-2.79-2.047-4.242-4.301-4.314
		c-2.346-0.077-4.57,1.364-4.57,4.331c0,3.308,0,5.613,0,5.613c0,3.283,2.219,4.831,4.436,4.802
		C388.94,54.483,391.159,52.879,391.159,49.858z"/>
	<path fill="#EEEEEE" d="M348.491,44.875c0-3.162,0-0.748,0-3.417c0-4.935,2.381-6.6,5.033-6.63
		c2.654-0.029,5.416,1.437,5.416,6.489c0,3.172,0,3.601,0,3.601c0,3.922-2.611,5.946-5.225,5.972
		C351.104,50.917,348.491,48.944,348.491,44.875z"/>
	<path fill="#EEEEEE" d="M360.495,48.715c0,0-0.127-3.167-0.127-8.604c0-7.049,10.359-7.754,10.359-0.47c0,2.247,0,9.022,0,9.022
		c0,3.507-2.557,5.104-5.115,5.033C363.054,53.625,360.495,51.884,360.495,48.715z"/>
</g>
<g>
	<polygon fill="#C4C4C3" points="353.449,36.045 294.776,36.045 294.776,40.929 294.776,53.974 300.573,53.974 300.573,40.929 
		353.449,40.929 406.325,40.929 406.325,53.974 412.122,53.974 412.122,40.929 412.122,36.045 	"/>
	<polygon fill="#EEEEEE" points="353.449,51.769 269.252,51.769 269.252,140.385 353.449,140.385 437.646,140.385 437.646,51.769 	
		"/>
	<polygon fill="#C4C4C3" points="353.449,79.248 323.964,79.248 323.964,140.385 353.449,140.385 382.935,140.385 382.935,79.248 	
		"/>
	<polygon fill="#EEEEEE" points="353.449,81.474 326.166,81.474 326.166,140.385 353.449,140.385 380.732,140.385 380.732,81.474 	
		"/>
	<polygon fill="#C4C4C3" points="353.449,90.474 331.537,90.474 331.537,117.474 353.449,117.474 375.361,117.474 375.361,90.474 	
		"/>
	<polygon fill="#071C2C" points="353.449,58.057 309.418,58.057 309.418,70.775 353.449,70.775 397.48,70.775 397.48,58.057 	"/>
	<rect x="354.677" y="129.747" fill="#C4C4C3" width="5.364" height="8.411"/>
	<rect x="362.242" y="129.747" fill="#C4C4C3" width="5.364" height="8.411"/>
	<rect x="369.919" y="129.747" fill="#C4C4C3" width="5.364" height="8.411"/>
	<rect x="361.468" y="61.808" fill="#C4C4C3" width="1.342" height="5.217"/>
	<rect x="355.347" y="61.808" fill="#C4C4C3" width="1.342" height="5.217"/>
	<rect x="367.085" y="61.808" fill="#C4C4C3" width="1.342" height="5.217"/>
	<rect x="372.673" y="61.808" fill="#C4C4C3" width="1.342" height="5.217"/>
	<rect x="378.307" y="61.808" fill="#C4C4C3" width="1.341" height="5.217"/>
	<rect x="383.924" y="61.808" fill="#C4C4C3" width="1.341" height="5.217"/>
	<rect x="389.512" y="61.808" fill="#C4C4C3" width="1.14" height="5.217"/>
	<circle fill="#C4C4C3" cx="410.122" cy="102.587" r="23.339"/>
	<circle fill="#071C2C" cx="410.122" cy="102.587" r="18.797"/>
	<circle fill="#C4C4C3" cx="424.379" cy="64.416" r="8.699"/>
	<circle fill="#071C2C" cx="424.379" cy="64.416" r="6.358"/>
	<circle fill="#C4C4C3" cx="410.122" cy="102.587" r="5.797"/>
	<rect x="346.857" y="129.747" fill="#C4C4C3" width="5.364" height="8.411"/>
	<rect x="339.292" y="129.747" fill="#C4C4C3" width="5.364" height="8.411"/>
	<rect x="331.615" y="129.747" fill="#C4C4C3" width="5.364" height="8.411"/>
	<rect x="344.089" y="61.808" fill="#C4C4C3" width="1.342" height="5.217"/>
	<rect x="349.539" y="61.808" fill="#C4C4C3" width="1.342" height="5.217"/>
	<rect x="338.472" y="61.808" fill="#C4C4C3" width="1.342" height="5.217"/>
	<rect x="332.884" y="61.808" fill="#C4C4C3" width="1.342" height="5.217"/>
	<rect x="327.251" y="61.808" fill="#C4C4C3" width="1.341" height="5.217"/>
	<rect x="321.634" y="61.808" fill="#C4C4C3" width="1.341" height="5.217"/>
	<rect x="316.247" y="61.808" fill="#C4C4C3" width="1.14" height="5.217"/>
	<polygon fill="#071C2C" points="353.449,94.077 335.663,94.077 335.663,108.93 353.449,108.93 371.235,108.93 371.235,94.077 	"/>
	<circle fill="#C4C4C3" cx="296.776" cy="102.587" r="23.339"/>
	<circle fill="#071C2C" cx="296.776" cy="102.587" r="18.797"/>
	<circle fill="#C4C4C3" cx="282.52" cy="64.416" r="8.699"/>
	<circle fill="#071C2C" cx="282.52" cy="64.416" r="6.358"/>
	<circle fill="#C4C4C3" cx="296.776" cy="102.587" r="5.797"/>
</g>
<g>
	<polygon fill="#C4C4C3" points="321,125.051 313.5,119.073 256,119.073 256,284.616 313.5,284.616 320.387,279.115 	"/>
	<path fill="#EEEEEE" d="M315.5,187.103l0.051,99.764c0,0-5.051,21.477-31.26,22.766c-3.953,0.194-11.594,9.404-18.291,12.772
		s-10,3-10,3V44.194c34.666,0,48.166,22.543,48.166,35.75c0,1.014-1.166,2.5-1.166,2.5l0.5,1.667c0,0,3-0.167,3.834,4.833
		c0.832,5,1.18,12.536-0.668,17.5c-2.666,7.167-5.238,6.043-5.238,6.043s-1.406-1.208-2.74,3.625s-4.438,9.875-4.438,9.875
		s3.75-1.5,4,4.875s-3.75,7.563-3.75,7.563s14.061,0.87,28.885,5.677c16.524,5.358,33.998,15.609,33.998,35.001l-33.999,7.714
		L315.5,187.103z"/>
	<path fill="#454545" d="M256,137.188c33.916,0,38.496-2.701,42.246-5.117c-0.58,10.25-11.08,10.245-42.246,10.245V137.188z"/>
	<g>
		<path fill="#FFFFFF" d="M290.421,126.636C298,111.987,313,49.818,256,49.818v80.793
			C280.166,130.612,290.421,126.636,290.421,126.636z"/>
		<path fill="#222222" d="M256,123.362c0,0,30.25,0.125,34.75-6.125s16-64.169-34.75-64.169V123.362z"/>
		<g>
			<defs>
				<path id="SVGID_11_" d="M256,123.362c0,0,30.25,0.125,34.75-6.125s16-64.169-34.75-64.169V123.362z"/>
			</defs>
			<clipPath id="SVGID_4_">
				<use xlink:href="#SVGID_11_"  overflow="visible"/>
			</clipPath>
			<polygon clip-path="url(#SVGID_4_)" fill="#222222" points="256,70.728 303,137.193 256,139.571 			"/>
			<polygon clip-path="url(#SVGID_4_)" fill="#303030" points="256,70.728 315.333,79.571 256,32.237 			"/>
			<polygon clip-path="url(#SVGID_4_)" fill="#282828" points="315.333,79.571 256,70.728 303,137.193 			"/>
		</g>
	</g>
	<g>
		<path fill="#EEEEEE" d="M261,426.902h54.551v6.271c0,0,8.873,16.728,9.873,27.459s0.873,20.361-14.5,20.5
			c-21.99,0.197-49.924-39.5-49.924-39.5v-8.459V426.902z"/>
		<path fill="#EEEEEE" d="M261,286.866c0,64.821,0,53.738,0,82.759s0,22.345,0,57.277h54.551c0-36.404,0-28.298,0-57.277
			s0-13.936,0-82.759H261z"/>
		<rect x="261" y="420.631" fill="#454545" width="54.551" height="12.541"/>
		<polygon fill="#E0E0E0" points="261,420.631 315.551,384.81 261,367.749 		"/>
		<polygon fill="#E0E0E0" points="261,367.749 261,324.973 315.551,384.81 		"/>
	</g>
</g>
<g>
	<g>
		<rect x="221" y="164.737" fill="#C4C4C3" width="35" height="44.333"/>
		<rect x="223.966" y="168.071" fill="#EEEEEE" width="32.034" height="32.667"/>
		<polygon fill="#FFFFFF" points="231.541,194.403 241.346,184.405 241.346,194.403 		"/>
		<polygon fill="#FFFFFF" points="241.346,184.405 231.541,194.403 231.541,184.405 		"/>
		<polygon fill="#FFFFFF" points="241.346,171.78 231.541,181.778 231.541,171.78 		"/>
		<polygon fill="#FFFFFF" points="231.541,181.778 241.346,171.78 241.346,181.778 		"/>
		<polygon fill="#DEDDDD" points="221,209.071 256,272.071 256,209.071 		"/>
		<polygon fill="#B2B3B3" points="221,209.071 223.966,200.737 256,209.071 		"/>
		<polygon fill="#A09F9F" points="256,200.737 223.966,200.737 256,209.071 		"/>
	</g>
	<g>
		<rect x="256" y="164.737" fill="#C4C4C3" width="35" height="44.333"/>
		<rect x="256" y="168.071" fill="#EEEEEE" width="32.034" height="32.667"/>
		<polygon fill="#FFFFFF" points="280.459,194.403 270.654,184.405 270.654,194.403 		"/>
		<polygon fill="#FFFFFF" points="270.654,184.405 280.459,194.403 280.459,184.405 		"/>
		<polygon fill="#DEDDDD" points="291,209.071 256,272.071 256,209.071 		"/>
		<polygon fill="#B2B3B3" points="291,209.071 288.034,200.737 256,209.071 		"/>
		<polygon fill="#A09F9F" points="256,200.737 288.034,200.737 256,209.071 		"/>
	</g>
	<g>
		<polygon fill="#A09F9F" points="315.551,139.124 306.691,248.904 291,209.071 		"/>
		<polygon fill="#B2B3B3" points="304.5,137.193 291,209.071 315.551,139.124 		"/>
		<polygon fill="#8E8E8E" points="256,272.071 306.691,248.904 291,209.071 		"/>
		<polygon fill="#A09F9F" points="256,272.071 194.449,301.707 194.45,331.343 		"/>
	</g>
</g>
</svg>
