<?xml version="1.0" encoding="utf-8"?>
<!-- Generator: Adobe Illustrator 16.0.0, SVG Export Plug-In . SVG Version: 6.00 Build 0)  -->
<!DOCTYPE svg PUBLIC "-//W3C//DTD SVG 1.1//EN" "http://www.w3.org/Graphics/SVG/1.1/DTD/svg11.dtd">
<svg version="1.1" xmlns="http://www.w3.org/2000/svg" xmlns:xlink="http://www.w3.org/1999/xlink" x="0px" y="0px" width="512px"
	 height="900px" viewBox="0 0 512 900" enable-background="new 0 0 512 900" xml:space="preserve">
<g id="Layer_1">
	<g>
		<polygon fill="#C4C4C3" points="300.636,404.82 358.136,404.82 415.636,404.82 423.136,398.842 422.522,244.777 415.636,239.276 
			358.136,239.276 300.636,239.276 293.749,244.777 293.136,398.842 		"/>
		<path fill="#EEEEEE" d="M260.77,347.114c0,19.392,13.457,27.318,29.981,32.677c14.824,4.807,28.885,5.677,28.885,5.677
			s-4,1.188-3.75,7.562s4,4.875,4,4.875s-3.104,5.042-4.438,9.875s-2.74,3.625-2.74,3.625s-2.572-1.124-5.238,6.044
			c-1.848,4.964-1.5,12.5-0.668,17.5c0.834,5,3.834,4.832,3.834,4.832l0.5,1.668c0,0-1.166,1.486-1.166,2.5
			c0,13.206,13.5,35.75,48.166,35.75s48.166-22.544,48.166-35.75c0-1.014-1.166-2.5-1.166-2.5l0.5-1.668c0,0,3,0.168,3.834-4.832
			c0.832-5,1.18-12.536-0.668-17.5c-2.666-7.168-5.238-6.044-5.238-6.044s-1.406,1.208-2.74-3.625s-4.438-9.875-4.438-9.875
			s3.75,1.5,4-4.875s-3.75-7.562-3.75-7.562s14.061-0.87,28.885-5.677c16.524-5.358,33.998-15.609,33.998-35.001l-33.999-7.714
			l-7.884-0.286l0.051-99.764c0,0-5.051-21.477-31.26-22.766c-3.953-0.194-11.594-9.403-18.291-12.772s-11.977,2.573-20.846,3.336
			c-7.47,0.643-13.492,9.242-17.445,9.437c-26.209,1.289-31.26,22.766-31.26,22.766l0.051,99.764l-7.884,0.286L260.77,347.114z"/>
		<g>
			<path fill="#EEEEEE" d="M362.301,73.379h54.551v-6.27v-9.558c0,0,2.193-42.334-27.275-42.334
				c-27.275,0-27.275,43.433-27.275,43.433v8.459V73.379z"/>
			<path fill="#EEEEEE" d="M362.301,237.026c0-64.821,0-53.737,0-82.759s0-45.957,0-80.889h54.551c0,36.404,0,51.91,0,80.889
				s0,13.936,0,82.759H362.301z"/>
			<rect x="362.301" y="67.109" fill="#454545" width="54.551" height="12.541"/>
			<polygon fill="#E0E0E0" points="362.301,79.65 416.852,139.082 362.301,156.144 			"/>
			<polygon fill="#E0E0E0" points="362.301,156.144 362.301,198.92 416.852,139.082 			"/>
		</g>
		<g>
			<polygon fill="#C4C4C3" points="358.136,359.155 393.136,359.155 393.136,314.822 358.136,314.822 323.136,314.822 
				323.136,359.155 			"/>
			<polygon fill="#DEDDDD" points="358.136,314.822 393.136,314.822 358.136,251.822 323.136,314.822 			"/>
			<polygon fill="#EEEEEE" points="358.136,355.822 390.17,355.822 390.17,323.155 358.136,323.155 326.102,323.155 
				326.102,355.822 			"/>
			<polygon fill="#FFFFFF" points="382.595,329.489 372.79,339.488 372.79,329.489 			"/>
			<polygon fill="#FFFFFF" points="372.79,339.488 382.595,329.489 382.595,339.488 			"/>
			<polygon fill="#FFFFFF" points="372.79,352.113 382.595,342.114 382.595,352.113 			"/>
			<polygon fill="#FFFFFF" points="382.595,342.114 372.79,352.113 372.79,342.114 			"/>
			<polygon fill="#B2B3B3" points="393.136,314.822 390.17,323.155 358.136,314.822 			"/>
			<polygon fill="#FFFFFF" points="333.677,329.489 343.481,339.488 343.481,329.489 			"/>
			<polygon fill="#FFFFFF" points="343.481,339.488 333.677,329.489 333.677,339.488 			"/>
			<polygon fill="#B2B3B3" points="323.136,314.822 326.102,323.155 358.136,314.822 			"/>
			<polygon fill="#A09F9F" points="358.136,323.155 390.17,323.155 358.136,314.822 326.102,323.155 			"/>
			<g>
				<polygon fill="#A09F9F" points="298.585,384.769 307.444,274.988 323.136,314.822 				"/>
				<polygon fill="#B2B3B3" points="309.636,386.699 323.136,314.822 298.585,384.769 				"/>
				<polygon fill="#8E8E8E" points="358.136,251.822 307.444,274.988 323.136,314.822 				"/>
				<polygon fill="#A09F9F" points="358.136,251.822 419.687,222.186 419.687,192.55 				"/>
			</g>
		</g>
		<path fill="#454545" d="M358.136,386.705c33.916,0,38.496,2.7,42.246,5.117c-0.58-10.25-11.08-10.245-42.246-10.245
			s-41.666-0.005-42.246,10.245C319.64,389.405,324.22,386.705,358.136,386.705z"/>
		<path fill="#FFFFFF" d="M358.136,474.074c57,0,42-62.169,34.421-76.818c0,0-10.255-3.975-34.421-3.975s-34.421,3.975-34.421,3.975
			C316.136,411.905,301.136,474.074,358.136,474.074z"/>
		<g>
			<defs>
				<path id="SVGID_83_" d="M358.136,470.824c50.75,0,39.25-57.919,34.75-64.169s-34.75-6.125-34.75-6.125s-30.25-0.125-34.75,6.125
					S307.386,470.824,358.136,470.824z"/>
			</defs>
			<clipPath id="SVGID_1_">
				<use xlink:href="#SVGID_83_"  overflow="visible"/>
			</clipPath>
			<path clip-path="url(#SVGID_1_)" fill="#222222" d="M358.136,470.824c50.75,0,39.25-57.919,34.75-64.169
				s-34.75-6.125-34.75-6.125s-30.25-0.125-34.75,6.125S307.386,470.824,358.136,470.824z"/>
			<polygon clip-path="url(#SVGID_1_)" fill="#282828" points="417.469,444.322 358.136,453.165 405.136,386.699 			"/>
			<polygon clip-path="url(#SVGID_1_)" fill="#222222" points="358.136,453.165 405.136,386.699 358.136,384.322 311.136,386.699 
							"/>
			<polygon clip-path="url(#SVGID_1_)" fill="#303030" points="358.136,491.655 417.469,444.322 358.136,453.165 298.803,444.322 
							"/>
			<polygon clip-path="url(#SVGID_1_)" fill="#282828" points="298.803,444.322 358.136,453.165 311.136,386.699 			"/>
		</g>
		<g>
			
				<rect x="456.659" y="240.674" transform="matrix(-0.9571 -0.2897 0.2897 -0.9571 863.9348 621.7904)" fill="#454545" width="42.668" height="12.545"/>
			<path fill="#EEEEEE" d="M417.687,335.779c12.885,0,18.834-25.464,24.241-43.329c8.409-27.776,5.525-18.25,15.646-51.684
				l40.838,12.362c-10.547,34.841-7.249,23.946-15.646,51.684c-14.293,47.216-20.411,73.635-65.079,73.635V335.779z"/>
			<path fill="#C4C4C3" d="M502.365,204.805c0.809-2.671-0.51-4.586-2.646-5.309c-2.222-0.754-4.798-0.046-5.657,2.795
				c-1.685,5.565-7.144,22.761-7.144,22.761l-1.256-0.327c0,0,6.616-21.854,7.268-24.007c2.11-6.971-8.01-9.297-10.052-2.551
				c-1.575,5.204-7.024,23.644-7.024,23.644l-1.485-0.458c0,0,2.412-8.839,5.255-18.77c1.464-4.836-0.323-7.056-2.872-7.797
				c-2.547-0.74-5.309,0.164-6.738,4.888c-2.859,9.444-12.439,41.095-12.439,41.095l40.838,12.362c0,0,10.414-34.404,12.371-40.87
				c0.809-2.671-0.729-4.653-2.866-5.375c-2.223-0.755-4.532,0.033-5.393,2.875c-1.685,5.565-5.781,18.265-5.781,18.265
				l-1.303-0.342L502.365,204.805z"/>
			
				<rect x="456.658" y="240.678" transform="matrix(-0.9571 -0.2897 0.2897 -0.9571 863.9333 621.7941)" fill="#454545" width="42.668" height="12.541"/>
		</g>
		<g>
			<path fill="#EEEEEE" d="M290.529,379.655c-18,0-18.644,18.258-19.983,36.875c-2.383,33.114-12.607,46.999-17.666,54.242
				l-35.329-23.923c10.244-12.85,12.425-15.053,14.836-38.298c3.26-31.431,8.716-71.563,58.143-71.563V379.655z"/>
			<path fill="#8E8E8E" d="M210.153,476.655c-1.981,1.967-1.73,4.278-0.195,5.93c1.597,1.719,4.201,2.318,6.308,0.229
				c4.127-4.096,8.2-7.798,8.2-7.798l0.949,0.885c0,0-8.774,8.708-10.369,10.29c-5.17,5.131,2.627,11.988,7.63,7.022
				c3.859-3.829,9.984-10.086,9.984-10.086l1.089,1.109c0,0-3.193,3.169-8.759,8.693c-3.588,3.559-2.682,6.551-0.792,8.415
				c1.891,1.861,4.749,2.378,8.251-1.098c7.005-6.951,20.431-29.476,20.431-29.476l-35.329-23.923c0,0-7.933,15.943-12.728,20.702
				c-1.98,1.966-1.569,4.441-0.033,6.092c1.598,1.718,4.043,2.427,6.148,0.337c4.128-4.097,6.298-6.248,6.298-6.248l0.984,0.918
				L210.153,476.655z"/>
			<polygon fill="#454545" points="257.062,466.246 221.065,441.657 214.034,452.042 250.028,476.63 			"/>
		</g>
		<g>
			<path fill="#EEEEEE" d="M337.909,134.84c-4.722,40.79-1.441,50.646,4.726,61.553c6.406,11.33,8.419,12.833,10.5,40.634h-54.55
				c-2.001-26.135-12.116-33.801-14.054-46.801s-2.467-23.218,0-43.649v-7.494l53.378-10.568V134.84z"/>
			<path fill="#EEEEEE" d="M337.909,128.514l-53.378,10.568v-5.047c0,0-4.314-18.964-4.61-29.737
				c-0.313-11.406,4.222-24.647,19.597-24.647c23.617,0,38.392,34.617,38.392,34.617v8.031V128.514z"/>
			<g>
				<defs>
					<path id="SVGID_85_" d="M337.909,134.84c-4.722,40.79-1.441,50.646,4.726,61.553c6.406,11.33,8.419,12.833,10.5,40.634h-54.55
						c-2.001-26.135-12.116-33.801-14.054-46.801s-2.467-23.218,0-43.649v-7.494l53.378-10.568V134.84z"/>
				</defs>
				<clipPath id="SVGID_3_">
					<use xlink:href="#SVGID_85_"  overflow="visible"/>
				</clipPath>
				<polygon clip-path="url(#SVGID_3_)" fill="#E0E0E0" points="337.909,134.84 284.531,190.226 337.161,182.77 				"/>
				<polygon clip-path="url(#SVGID_3_)" fill="#E0E0E0" points="337.161,182.77 347.29,204.824 284.531,190.226 				"/>
			</g>
			<polygon fill="#454545" points="337.909,122.299 284.531,134.035 284.531,146.576 337.909,134.84 			"/>
		</g>
	</g>
	<g>
		<g>
			<path fill="#E4E4D8" d="M41.14,657.277c-17.582-3.547-42.234-26.606-36.097-57.032c4.981-24.698,23.103-26.54,25.996-40.883
				c3.335-16.533-34.885-26.538-27.235-64.461c1.962-9.726,3.784-18.757,3.784-18.757l21.608,4.358c0,0-1.682,8.336-3.783,18.758
				c-4.981,24.693,22.644,33.02,16.772,62.124c-5.321,26.378-17.333,25.875-20.624,42.192
				c-2.466,12.226,13.612,26.836,24.552,29.042l8.978,1.812l-4.975,24.657L41.14,657.277z"/>
			<path fill="#DEDCCE" d="M7.372,477.215l21.608,4.358c0,0,5.05-25.034,6.521-32.328c0.735-3.646-0.559-4.924-2.319-5.302
				c-1.764-0.378-3.014,0.34-3.768,4.074c-1.645,7.613-3.178,14.348-3.178,14.348l-1.635-0.325c0,0,2.951-14.191,3.762-18.213
				c1.051-5.208-5.742-7.122-6.828-1.737c-0.335,1.662-3.739,18.538-3.739,18.538l-1.483-0.339c0,0,1.825-9.892,2.692-14.19
				c0.443-2.195-0.34-3.448-1.912-3.706c-1.512-0.248-2.819,0.604-3.235,2.667C12.851,450.053,7.372,477.215,7.372,477.215z"/>
			<polyline fill="#454546" points="8.427,471.984 6.316,482.445 27.926,486.804 30.035,476.343 			"/>
			<path fill="#C6C5B5" d="M33.58,642.38c2.396-9.236,11.819-14.779,21.054-12.387c9.234,2.394,14.78,11.817,12.384,21.054
				c-2.392,9.231-11.819,14.777-21.051,12.385C36.733,661.038,31.188,651.61,33.58,642.38z"/>
			<path fill="#454546" d="M40.144,643.914c1.472-5.673,7.26-9.076,12.93-7.606c5.672,1.47,9.078,7.259,7.605,12.931
				c-1.469,5.668-7.258,9.071-12.93,7.604C42.082,655.37,38.676,649.583,40.144,643.914z"/>
		</g>
		<path fill="#222222" d="M130.956,718.304c18.34,0,33.01-15.01,33.01-33.35s-14.67-33.066-33.01-33.066s-33.01,14.727-33.01,33.066
			S112.616,718.304,130.956,718.304z"/>
		<g>
			<path fill="#C6C5B5" d="M230.957,746.14c0-16.15-13.09-29.241-29.24-29.241c-16.153,0-29.242,13.091-29.242,29.241
				c0,16.152,13.089,29.242,29.242,29.242C217.867,775.382,230.957,762.292,230.957,746.14z"/>
			<path fill="#454545" d="M201.576,768.938c-12.715,0-23.012-10.304-23.018-23.017c0-12.709,10.303-23.012,23.018-23.012
				c12.709,0,23.01,10.303,23.01,23.012C224.586,758.634,214.285,768.938,201.576,768.938z"/>
		</g>
		<g>
			<path fill="#C6C5B5" d="M89.581,746.14c0-16.15-13.09-29.241-29.24-29.241c-16.153,0-29.242,13.091-29.242,29.241
				c0,16.152,13.089,29.242,29.242,29.242C76.491,775.382,89.581,762.292,89.581,746.14z"/>
			<path fill="#454545" d="M60.2,768.938c-12.715,0-23.012-10.304-23.018-23.017c0-12.709,10.303-23.012,23.018-23.012
				c12.709,0,23.01,10.303,23.01,23.012C83.21,758.634,72.909,768.938,60.2,768.938z"/>
		</g>
		<path fill="#E5E5D8" d="M78.446,824.126c0.119,0.219,0.243,0.43,0.365,0.645c14.064,25.039,32.178,40.322,52.145,40.322
			s38.08-15.283,52.145-40.322c0.122-0.215,0.246-0.426,0.365-0.645c17.019-30.663,27.781-79.355,27.781-129.845h-2.268h-78.023
			H52.933h-2.268C50.665,744.771,61.428,793.463,78.446,824.126z"/>
		<path fill="#E5E5D8" d="M130.956,865.093c19.967,0,38.08-15.283,52.145-40.322l-52.145-52.145l-52.145,52.145
			C92.876,849.81,110.989,865.093,130.956,865.093z"/>
		<path fill="#DDDDCE" d="M183.101,824.771c0.122-0.215,0.246-0.426,0.365-0.645c17.019-30.663,27.781-79.355,27.781-129.845h-2.268
			l-78.023,78.345L183.101,824.771z"/>
		<path fill="#DDDDCE" d="M78.812,824.771c-0.122-0.215-0.246-0.426-0.365-0.645c-17.019-30.663-27.781-79.355-27.781-129.845h2.268
			l78.023,78.345L78.812,824.771z"/>
		<polygon fill="#E5E5D8" points="130.956,772.626 208.979,694.281 130.956,694.281 52.933,694.281 		"/>
		<path fill="#222222" d="M97.396,797.978h33.561h33.561c14.271,0,25.844-12.731,25.844-28.438
			c0-15.702-11.572-28.434-25.844-28.434h-33.561H97.396c-14.271,0-25.844,12.731-25.844,28.434
			C71.552,785.246,83.124,797.978,97.396,797.978z"/>
		<g>
			<defs>
				<path id="SVGID_87_" d="M152.484,752.972c0-2.707,2.194-4.9,4.9-4.9l0,0c2.706,0,4.901,2.193,4.901,4.9v29.307
					c0,2.707-2.195,4.902-4.901,4.902l0,0c-2.706,0-4.9-2.195-4.9-4.902V752.972z"/>
			</defs>
			<clipPath id="SVGID_5_">
				<use xlink:href="#SVGID_87_"  overflow="visible"/>
			</clipPath>
			<path clip-path="url(#SVGID_5_)" fill="#EECC70" d="M152.484,752.972c0-2.707,2.194-4.9,4.9-4.9l0,0
				c2.706,0,4.901,2.193,4.901,4.9v29.307c0,2.707-2.195,4.902-4.901,4.902l0,0c-2.706,0-4.9-2.195-4.9-4.902V752.972z"/>
			<polygon clip-path="url(#SVGID_5_)" fill="#FADF8D" points="163.552,788.347 163.552,746.532 151.342,797.978 			"/>
			<polygon clip-path="url(#SVGID_5_)" fill="#EECC70" points="163.552,746.532 152.579,742.296 151.342,797.978 			"/>
		</g>
		<polygon fill="#FADF8D" points="130.956,797.978 145.119,797.978 130.956,776.382 116.793,797.978 		"/>
		<g>
			<defs>
				<path id="SVGID_89_" d="M109.428,752.972c0-2.707-2.194-4.9-4.9-4.9l0,0c-2.706,0-4.901,2.193-4.901,4.9v29.307
					c0,2.707,2.195,4.902,4.901,4.902l0,0c2.706,0,4.9-2.195,4.9-4.902V752.972z"/>
			</defs>
			<clipPath id="SVGID_6_">
				<use xlink:href="#SVGID_89_"  overflow="visible"/>
			</clipPath>
			<path clip-path="url(#SVGID_6_)" fill="#EECC70" d="M109.428,752.972c0-2.707-2.194-4.9-4.9-4.9l0,0
				c-2.706,0-4.901,2.193-4.901,4.9v29.307c0,2.707,2.195,4.902,4.901,4.902l0,0c2.706,0,4.9-2.195,4.9-4.902V752.972z"/>
			<polygon clip-path="url(#SVGID_6_)" fill="#FADF8D" points="98.36,788.347 98.36,746.532 110.57,797.978 			"/>
			<polygon clip-path="url(#SVGID_6_)" fill="#EECC70" points="98.36,746.532 109.333,742.296 110.57,797.978 			"/>
		</g>
		<g>
			<path fill="#E4E4D8" d="M219.145,659.442c17.936,0,56.621-19.55,58.503-72.164c1.881-52.614-26.426-98.469-26.426-98.469
				l-2.828-5.772l-19.798,9.698l2.828,5.771c0,0,27.319,44.437,29.207,82.28c1.889,37.843-30.327,53.501-41.486,53.501h-9.157
				v25.154H219.145z"/>
			<path fill="#DEDCCE" d="M248.874,484.017l-19.798,9.699c0,0-11.235-22.935-14.508-29.617c-1.636-3.34-0.71-4.904,0.898-5.716
				c1.609-0.813,3.001-0.437,4.676,2.985c3.524,6.946,6.714,13.07,6.714,13.07l1.5-0.729c0,0-6.454-12.979-8.258-16.663
				c-2.338-4.771,3.747-8.346,6.163-3.413c0.745,1.522,8.32,16.983,8.32,16.983l1.35-0.704c0,0-4.276-9.104-6.206-13.042
				c-0.985-2.012-0.544-3.423,0.911-4.07c1.399-0.624,2.88-0.13,3.807,1.759C236.683,459.134,248.874,484.017,248.874,484.017z"/>
			<polyline fill="#454546" points="246.526,479.225 251.222,488.81 231.424,498.507 226.729,488.924 			"/>
			<path fill="#C6C5B5" d="M194.001,645.697c0.522-9.527,8.664-16.824,18.188-16.305c9.525,0.52,16.825,8.661,16.303,18.188
				c-0.52,9.522-8.664,16.823-18.187,16.303C200.781,663.363,193.48,655.219,194.001,645.697z"/>
			<path fill="#454546" d="M200.738,645.903c0.32-5.852,5.321-10.332,11.17-10.013c5.851,0.319,10.334,5.32,10.013,11.171
				c-0.319,5.847-5.321,10.328-11.171,10.011C204.903,656.75,200.42,651.751,200.738,645.903z"/>
		</g>
		<g>
			<defs>
				<path id="SVGID_91_" d="M214.947,678.876c0-104.656-37.519-189.686-83.991-189.686S46.965,574.22,46.965,678.876H214.947z"/>
			</defs>
			<clipPath id="SVGID_7_">
				<use xlink:href="#SVGID_91_"  overflow="visible"/>
			</clipPath>
			<path clip-path="url(#SVGID_7_)" fill="#DDDDCE" d="M214.947,678.876c0-104.656-37.519-189.686-83.991-189.686
				S46.965,574.22,46.965,678.876H214.947z"/>
			<polygon clip-path="url(#SVGID_7_)" fill="#DDDDCE" points="183.101,621.877 179.485,553.333 130.956,643.405 			"/>
			<polygon clip-path="url(#SVGID_7_)" fill="#D1D1C4" points="214.88,667.034 204.467,589.847 220.745,520.186 179.485,553.333 
				183.101,621.877 			"/>
			<polygon clip-path="url(#SVGID_7_)" fill="#C6C5B5" points="179.485,553.333 220.745,520.186 130.956,475.055 			"/>
			<polygon clip-path="url(#SVGID_7_)" fill="#DDDDCE" points="78.812,621.877 82.427,553.333 130.956,643.405 			"/>
			<polygon clip-path="url(#SVGID_7_)" fill="#D1D1C4" points="47.032,667.034 24.89,589.847 41.167,520.186 82.427,553.333 
				78.812,621.877 			"/>
			<polygon clip-path="url(#SVGID_7_)" fill="#C6C5B5" points="82.427,553.333 41.167,520.186 130.956,475.055 			"/>
			<polygon clip-path="url(#SVGID_7_)" fill="#E5E5D8" points="130.956,667.034 214.88,667.034 183.101,621.877 130.956,643.405 
				78.812,621.877 47.032,667.034 			"/>
			<polygon clip-path="url(#SVGID_7_)" fill="#FADF8D" points="130.956,643.405 179.485,553.333 130.956,553.333 82.427,553.333 			
				"/>
		</g>
		<polygon fill="#DDDDCE" points="130.956,553.333 179.485,553.333 130.956,475.055 82.427,553.333 		"/>
		<polygon fill="#E39C27" points="96.448,475.055 105.927,475.055 118.136,475.055 130.956,475.055 143.776,475.055 
			155.985,475.055 165.464,475.055 155.985,433.825 148.886,457.801 130.956,414.224 113.026,457.801 105.927,433.825 		"/>
		<g>
			<polygon fill="#E39C27" points="155.985,475.055 130.956,414.224 130.956,475.055 			"/>
			<polygon fill="#E39C27" points="165.464,475.055 155.985,433.825 155.985,475.055 			"/>
			<polygon fill="#EBB246" points="155.985,475.055 155.985,433.825 143.776,475.055 			"/>
			<polygon fill="#EBB246" points="105.927,475.055 130.956,414.224 130.956,475.055 			"/>
			<polygon fill="#EBB246" points="96.448,475.055 105.927,433.825 105.927,475.055 			"/>
			<polygon fill="#E39C27" points="105.927,475.055 105.927,433.825 118.136,475.055 			"/>
		</g>
		<polygon fill="#454545" points="110.829,507.519 96.448,475.055 130.956,475.055 		"/>
		<polygon fill="#222222" points="110.829,507.519 96.448,475.055 110.829,475.055 		"/>
		<polygon fill="#454545" points="151.083,507.519 165.464,475.055 130.956,475.055 		"/>
		<polygon fill="#222222" points="151.083,507.519 165.464,475.055 151.083,475.055 		"/>
		<g>
			<polygon fill="#454545" points="130.956,697.783 212.831,697.783 212.831,690.778 130.956,690.778 49.081,690.778 
				49.081,697.783 			"/>
		</g>
		<g>
			<polygon fill="#454545" points="130.956,678.944 215.505,678.944 215.505,667.034 130.956,667.034 46.407,667.034 
				46.407,678.944 			"/>
		</g>
		<g>
			<polygon fill="#454545" points="130.956,479.239 166.334,479.239 166.334,470.598 130.956,470.598 95.578,470.598 
				95.578,479.239 			"/>
		</g>
		<g>
			<path fill="#E5E5D8" d="M179.111,873.773c0,0-23.713-20.659-25.043-37.988c10.064-8.33,10.064-8.33,24.552-8.043
				c-20.815,8.711,10.599,45.428,10.599,45.428L179.111,873.773z"/>
			<circle fill="#E5E5D8" cx="184.451" cy="878.211" r="12.623"/>
			<circle fill="#454545" cx="184.451" cy="878.211" r="6.945"/>
		</g>
	</g>
	<g>
		<path fill="#C4C4C3" d="M217.325,469.539l-5.375,5.334c-1.98,1.965-1.731,4.276-0.194,5.928c1.597,1.719,4.199,2.32,6.307,0.23
			c4.126-4.096,5.508-5.126,5.508-5.126c2.286-2.269,1.791-4.917,0.194-6.473C222.165,467.878,219.46,467.42,217.325,469.539z"/>
		<path fill="#C4C4C3" d="M210.123,462.292c-2.489,2.471-2.629,2.608-4.102,4.071c-1.98,1.966-1.569,4.44-0.034,6.092
			c1.6,1.719,4.188,2.283,6.296,0.192c2.347-2.33,3.983-3.954,3.983-3.954c2.33-2.312,1.865-4.977,0.284-6.53
			C214.969,460.609,212.267,460.164,210.123,462.292z"/>
		<path fill="#C4C4C3" d="M236.642,496.087c-2.244,2.228-0.53,0.528-2.426,2.407c-3.502,3.477-6.361,2.96-8.251,1.098
			c-1.89-1.863-2.795-4.856,0.792-8.415c2.251-2.234,2.556-2.536,2.556-2.536c2.784-2.764,6.06-2.335,7.919-0.499
			C239.09,489.977,239.529,493.222,236.642,496.087z"/>
		<path fill="#C4C4C3" d="M230.912,484.862c0,0-2.159,2.32-6.018,6.15c-5.003,4.966-12.802-1.89-7.631-7.021
			c1.595-1.584,6.403-6.356,6.403-6.356c2.49-2.47,5.425-1.781,7.176,0.086C232.595,479.588,233.161,482.631,230.912,484.862z"/>
	</g>
</g>
<g id="Layer_2">
</g>
</svg>
