<?xml version="1.0" encoding="utf-8"?>
<!-- Generator: Adobe Illustrator 16.0.0, SVG Export Plug-In . SVG Version: 6.00 Build 0)  -->
<!DOCTYPE svg PUBLIC "-//W3C//DTD SVG 1.1//EN" "http://www.w3.org/Graphics/SVG/1.1/DTD/svg11.dtd">
<svg version="1.1" xmlns="http://www.w3.org/2000/svg" xmlns:xlink="http://www.w3.org/1999/xlink" x="0px" y="0px" width="512px"
	 height="512px" viewBox="0 0 512 512" enable-background="new 0 0 512 512" xml:space="preserve">
<g id="Layer_1">
	<g>
		<polygon fill="#C4C4C3" points="313.5,119.074 256,119.074 198.5,119.074 191,125.053 191.614,279.115 198.5,284.617 256,284.617 
			313.5,284.617 320.387,279.115 321,125.053 		"/>
		<path fill="#EEEEEE" d="M357.383,179.104c0-19.393-17.474-29.643-33.998-35.002c-14.824-4.807-28.885-5.676-28.885-5.676
			s4-1.188,3.75-7.562s-4-4.875-4-4.875s3.104-5.043,4.438-9.875c1.334-4.834,2.74-3.625,2.74-3.625s2.572,1.123,5.238-6.045
			c1.848-4.963,1.5-12.5,0.668-17.5c-0.834-5-3.834-4.832-3.834-4.832l-0.5-1.668c0,0,1.166-1.486,1.166-2.5
			c0-13.205-13.5-35.75-48.166-35.75s-48.166,22.545-48.166,35.75c0,1.014,1.166,2.5,1.166,2.5l-0.5,1.668
			c0,0-3.001-0.168-3.834,4.832s-1.18,12.537,0.667,17.5c2.667,7.168,5.239,6.045,5.239,6.045s1.406-1.209,2.74,3.625
			c1.334,4.832,4.438,9.875,4.438,9.875s-3.75-1.5-4,4.875s3.75,7.562,3.75,7.562s-14.061,0.869-28.885,5.676
			c-16.524,5.359-33.998,15.609-33.998,35.002l33.999,7.713l7.884,0.287l-0.051,99.764c0,0,5.051,21.477,31.26,22.766
			c3.953,0.193,15.795,15.34,23.291,15.34c2.711,0,7.25-4.973,15.846-5.904c7.453-0.807,13.492-9.242,17.445-9.436
			c26.209-1.289,31.26-22.766,31.26-22.766l-0.051-99.764l7.884-0.287L357.383,179.104z"/>
		<g>
			<path fill="#EEEEEE" d="M290.945,409.52l-5.98-5.98l-4.434-4.434c-24.7-24.701-26.281-36.834-27.9-48.281
				c-1.53-10.816-1.631-29.996-1.631-63.957h-54.551c0,38.549,0,60.133,5.5,90.492c3.383,18.672,21.301,41.031,40.009,60.318
				l4.433,4.434c0,0,5.556,18.104,12.436,26.398c6.882,8.295,13.78,15.016,24.749,4.242
				C299.264,457.342,290.945,409.52,290.945,409.52z"/>
			<g>
				<defs>
					<path id="SVGID_155_" d="M290.945,409.52l-5.98-5.98l-4.434-4.434c-24.7-24.701-26.281-36.834-27.9-48.281
						c-1.53-10.816-1.631-29.996-1.631-63.957h-54.551c0,38.549,0,60.133,5.5,90.492c3.383,18.672,21.301,41.031,40.009,60.318
						l4.433,4.434c0,0,5.556,18.104,12.436,26.398c6.882,8.295,13.78,15.016,24.749,4.242
						C299.264,457.342,290.945,409.52,290.945,409.52z"/>
				</defs>
				<clipPath id="SVGID_1_">
					<use xlink:href="#SVGID_155_"  overflow="visible"/>
				</clipPath>
				
					<rect x="232.598" y="412.227" transform="matrix(0.7071 -0.7071 0.7071 0.7071 -219.4381 307.2327)" clip-path="url(#SVGID_1_)" fill="#454545" width="57.079" height="12.54"/>
				<polygon clip-path="url(#SVGID_1_)" fill="#A09F9F" points="201.949,377.359 276.883,393.883 339,458.668 262,489.668 
					192.333,396.334 				"/>
				<polygon clip-path="url(#SVGID_1_)" fill="#E0E0E0" points="252.631,350.824 251.187,324.561 201.949,377.359 				"/>
				<polygon clip-path="url(#SVGID_1_)" fill="#B2B3B3" points="276.883,393.883 252.631,350.824 201.949,377.359 				"/>
			</g>
		</g>
		<g>
			<path fill="#EEEEEE" d="M276.227,389.053c4.722-40.789,1.441-50.645-4.726-61.553c-6.406-11.33-8.419-12.832-10.5-40.633h54.55
				c2.001,26.135,12.116,33.801,14.054,46.801s2.467,23.217,0,43.648v7.494l-53.378,10.568V389.053z"/>
			<path fill="#EEEEEE" d="M276.227,395.379l53.378-10.568v5.047c0,0,4.314,18.965,4.61,29.738
				c0.313,11.406-4.222,24.646-19.597,24.646c-23.617,0-38.392-34.617-38.392-34.617v-8.031V395.379z"/>
			<g>
				<defs>
					<path id="SVGID_157_" d="M276.227,389.053c4.722-40.789,1.441-50.645-4.726-61.553c-6.406-11.33-8.419-12.832-10.5-40.633
						h54.55c2.001,26.135,12.116,33.801,14.054,46.801s2.467,23.217,0,43.648v7.494l-53.378,10.568V389.053z"/>
				</defs>
				<clipPath id="SVGID_3_">
					<use xlink:href="#SVGID_157_"  overflow="visible"/>
				</clipPath>
				<polygon clip-path="url(#SVGID_3_)" fill="#E0E0E0" points="276.227,389.053 329.604,333.668 276.975,341.123 				"/>
				<polygon clip-path="url(#SVGID_3_)" fill="#E0E0E0" points="276.975,341.123 266.846,319.068 329.604,333.668 				"/>
			</g>
			<polygon fill="#454545" points="276.227,401.594 329.604,389.857 329.604,377.316 276.227,389.053 			"/>
		</g>
		<path fill="#454545" d="M256,137.189c-33.916,0-38.496-2.701-42.246-5.117c0.58,10.25,11.08,10.244,42.246,10.244
			s41.666,0.006,42.246-10.244C294.496,134.488,289.916,137.189,256,137.189z"/>
		<path fill="#FFFFFF" d="M256,49.818c-57,0-42,62.17-34.421,76.818c0,0,10.255,3.977,34.421,3.977s34.421-3.977,34.421-3.977
			C298,111.988,313,49.818,256,49.818z"/>
		<g>
			<path fill="#EEEEEE" d="M315.404,187.104c12.884,0,10.167,18.578,10.167,37.244c0,29.021,42.668,28.98,42.668,0
				c0-49.332-13.167-79.912-57.835-79.912L315.404,187.104z"/>
		</g>
		<g>
			<defs>
				<path id="SVGID_159_" d="M256,53.068c-50.75,0-39.25,57.92-34.75,64.17s34.75,6.125,34.75,6.125s30.25,0.125,34.75-6.125
					S306.75,53.068,256,53.068z"/>
			</defs>
			<clipPath id="SVGID_5_">
				<use xlink:href="#SVGID_159_"  overflow="visible"/>
			</clipPath>
			<path clip-path="url(#SVGID_5_)" fill="#222222" d="M256,53.068c-50.75,0-39.25,57.92-34.75,64.17s34.75,6.125,34.75,6.125
				s30.25,0.125,34.75-6.125S306.75,53.068,256,53.068z"/>
			<polygon clip-path="url(#SVGID_5_)" fill="#282828" points="196.667,79.572 256,70.729 209,137.193 			"/>
			<polygon clip-path="url(#SVGID_5_)" fill="#222222" points="256,70.729 209,137.193 256,139.572 303,137.193 			"/>
			<polygon clip-path="url(#SVGID_5_)" fill="#303030" points="256,32.238 196.667,79.572 256,70.729 315.333,79.572 			"/>
			<polygon clip-path="url(#SVGID_5_)" fill="#282828" points="315.333,79.572 256,70.729 303,137.193 			"/>
		</g>
		<g>
			<polygon fill="#C4C4C3" points="256,164.738 221,164.738 221,209.072 256,209.072 291,209.072 291,164.738 			"/>
			<polygon fill="#DEDDDD" points="256,209.072 221,209.072 256,272.072 291,209.072 			"/>
			<polygon fill="#EEEEEE" points="256,168.072 223.966,168.072 223.966,200.738 256,200.738 288.034,200.738 288.034,168.072 			
				"/>
			<polygon fill="#FFFFFF" points="231.541,194.404 241.346,184.406 241.346,194.404 			"/>
			<polygon fill="#FFFFFF" points="241.346,184.406 231.541,194.404 231.541,184.406 			"/>
			<polygon fill="#FFFFFF" points="241.346,171.781 231.541,181.779 231.541,171.781 			"/>
			<polygon fill="#FFFFFF" points="231.541,181.779 241.346,171.781 241.346,181.779 			"/>
			<polygon fill="#B2B3B3" points="221,209.072 223.966,200.738 256,209.072 			"/>
			<polygon fill="#FFFFFF" points="280.459,194.404 270.654,184.406 270.654,194.404 			"/>
			<polygon fill="#FFFFFF" points="270.654,184.406 280.459,194.404 280.459,184.406 			"/>
			<polygon fill="#B2B3B3" points="291,209.072 288.034,200.738 256,209.072 			"/>
			<polygon fill="#A09F9F" points="256,200.738 223.966,200.738 256,209.072 288.034,200.738 			"/>
			<g>
				<polygon fill="#A09F9F" points="315.551,139.125 306.691,248.904 291,209.072 				"/>
				<polygon fill="#B2B3B3" points="304.5,137.193 291,209.072 315.551,139.125 				"/>
				<polygon fill="#8E8E8E" points="256,272.072 306.691,248.904 291,209.072 				"/>
				<polygon fill="#A09F9F" points="256,272.072 194.449,301.707 194.449,331.344 				"/>
			</g>
		</g>
		<path opacity="0.4" fill="#EBB246" d="M395.312,181.566l-4.083,11.479l-128.213,54.543c0,0-6.01-10.949-2.68-18.645
			c4.11-9.498,12.983-14.58,12.983-14.58s-4.266-14.25-28.714-0.047c-18.138,10.539-29.347,22.867-68.005,23.219
			c-41.767,0.381-58.972,35.721-42.292,74.93c16.68,39.211,54.072,51.326,83.312,21.498c27.064-27.607,43.72-27.131,63.892-32.891
			c27.188-7.762,19.88-20.719,19.88-20.719s-9.815,2.869-19.507-0.756c-7.854-2.938-12.208-16.352-12.208-16.352l128.213-54.543
			l5.538,2.188l45.117-32.98l-4.61-10.838L395.312,181.566z"/>
		<g>
			<path fill="#EEEEEE" d="M196.5,187.104c-10.166,0-13.145,16.285-8.5,27.896c2.508,6.27,10.488,17.969,19.621,24.572
				c2.292,1.658,3.561,2.41,5.209,3.496L189.058,278.5c-2.037-1.463-3.369-2.117-5.208-3.494
				c-15.035-11.266-24.415-21.057-32.337-37.82c-20.092-42.514,3.105-92.75,49.988-92.75L196.5,187.104z"/>
			<path fill="#C4C4C3" d="M232.887,295.705c2.316,1.559,4.534,0.861,5.852-0.969c1.373-1.9,1.455-4.572-1.007-6.229
				c-4.825-3.248-19.653-13.521-19.653-13.521l0.682-1.104c0,0,18.942,12.752,20.808,14.004c6.042,4.068,11.241-4.92,5.394-8.855
				c-4.511-3.035-20.531-13.666-20.531-13.666l0.873-1.285c0,0,7.74,4.904,16.396,10.541c4.19,2.822,6.837,1.768,8.295-0.453
				c1.457-2.215,1.404-5.121-2.689-7.875c-8.186-5.512-35.62-23.977-35.62-23.977l-23.825,35.398c0,0,29.822,20.072,35.426,23.844
				c2.314,1.559,4.66,0.67,5.98-1.16c1.375-1.902,1.3-4.342-1.162-5.998c-4.824-3.248-15.758-10.898-15.758-10.898l0.711-1.145
				L232.887,295.705z"/>
			
				<rect x="179.608" y="254.513" transform="matrix(0.5572 -0.8304 0.8304 0.5572 -127.5703 282.3511)" fill="#454545" width="42.668" height="12.54"/>
		</g>
		<g>
			<path fill="#EEEEEE" d="M332.718,278.652c-4.933-7.463-5.381-14.645-6.008-22.021c-0.197-2.314-0.109-3.564-0.571-6.246
				l42.487-3.893c0.16,2.367,0.374,4.133,0.576,6.246c1.012,10.605,2.057,18.65-1.824,24.752
				C362.724,284.809,339.198,288.459,332.718,278.652z"/>
			<path fill="#C4C4C3" d="M355.696,218.742c-0.254-2.775-2.196-4.059-4.447-3.926c-2.344,0.137-4.465,1.76-4.193,4.717
				c0.531,5.791,0.371,5.258,0.371,5.258l-1.289,0.172c0,0-0.518-4.225-0.723-6.461c-0.664-7.254-10.916-5.605-10.274,1.414
				c0.499,5.414,0.813,6.033,0.813,6.033l-1.55,0.135c0,0-1.084-9.096-2.185-19.371c-0.461-5.031-2.952-6.416-5.592-6.145
				c-2.639,0.271-4.855,2.146-4.407,7.062c0.901,9.826,3.918,42.754,3.918,42.754l42.487-3.893c0,0-3.277-35.793-3.895-42.521
				c-0.254-2.777-2.424-4.035-4.674-3.904c-2.345,0.139-4.189,1.734-3.916,4.691c0.531,5.791,1.508,19.1,1.508,19.1l-1.338,0.176
				L355.696,218.742z"/>
			
				<rect x="326.049" y="242.169" transform="matrix(-0.9958 0.0913 -0.0913 -0.9958 715.9929 464.1381)" fill="#454545" width="42.67" height="12.543"/>
		</g>
	</g>
</g>
<g id="Layer_2">
</g>
</svg>
