<?xml version="1.0" encoding="utf-8"?>
<!-- Generator: Adobe Illustrator 16.0.0, SVG Export Plug-In . SVG Version: 6.00 Build 0)  -->
<!DOCTYPE svg PUBLIC "-//W3C//DTD SVG 1.1//EN" "http://www.w3.org/Graphics/SVG/1.1/DTD/svg11.dtd">
<svg version="1.1" xmlns="http://www.w3.org/2000/svg" xmlns:xlink="http://www.w3.org/1999/xlink" x="0px" y="0px" width="1400px"
	 height="1300px" viewBox="0 0 1400 1300" enable-background="new 0 0 1400 1300" xml:space="preserve">
<g id="Layer_1">
	<g>
		<linearGradient id="SVGID_1_" gradientUnits="userSpaceOnUse" x1="313.4932" y1="801.6738" x2="163.4932" y2="801.6738">
			<stop  offset="0" style="stop-color:#66C7F1"/>
			<stop  offset="1" style="stop-color:#0C4876"/>
		</linearGradient>
		<path fill="url(#SVGID_1_)" d="M213.943,697.944c-36.158,36.793-41.975,67.321-66.787,87.07
			c19.742,24.811,18.561,55.827,45.531,99.796c33.893,55.248,83.548,71.563,83.548,71.563l34.42-152.719l0.771-156.683
			C311.426,646.973,259.373,651.716,213.943,697.944z"/>
		<path fill="#303030" d="M225.448,712.882c-30.949,31.492-35.928,57.627-57.165,74.533c16.9,21.24,15.893,47.789,38.972,85.422
			c29.008,47.291,71.519,61.256,71.519,61.256l31.882-130.438v-0.007l-1.761-134.399
			C308.895,669.249,264.336,673.308,225.448,712.882z"/>
		<g>
			<defs>
				<path id="SVGID_2_" d="M225.448,712.882c-30.949,31.492-35.928,57.627-57.165,74.533c16.9,21.24,15.893,47.789,38.972,85.422
					c29.008,47.291,71.519,61.256,71.519,61.256l31.882-130.438v-0.007l-1.761-134.399
					C308.895,669.249,264.336,673.308,225.448,712.882z"/>
			</defs>
			<clipPath id="SVGID_3_">
				<use xlink:href="#SVGID_2_"  overflow="visible"/>
			</clipPath>
			<polygon clip-path="url(#SVGID_3_)" fill="#222222" points="159.573,790.175 325.553,813.444 335.056,729.897 			"/>
			<polygon clip-path="url(#SVGID_3_)" fill="#222222" points="160.422,782.724 327.382,797.323 317.885,880.87 			"/>
			<g clip-path="url(#SVGID_3_)">
				<path fill="#ED2289" d="M233.956,699.765c-6.842,6.361-13.817,13.354-20.794,21.022l21.861,0.591L233.956,699.765z"/>
				<path fill="#ED2289" d="M253.421,685.144c-8.079,5.641-16.675,12.156-25.537,19.626l23.293,2.483L253.421,685.144z"/>
			</g>
			<g clip-path="url(#SVGID_3_)">
				<path fill="#ED2289" d="M168.812,792.507c0,0,1.542,11.452,7.521,29.417l11.175-23.589L168.812,792.507z"/>
				<path fill="#ED2289" d="M169.836,783.521c0,0,4.072-10.812,13.935-26.975l5.593,25.491L169.836,783.521z"/>
				<path fill="#ED2289" d="M196.047,739.302c-7.336,10.598-12.934,20.42-17.104,28.687l26.049-0.069L196.047,739.302z"/>
				<path fill="#ED2289" d="M214.062,719.099c-7.979,8.41-17.582,21.125-23.691,29.39l26.746,0.548L214.062,719.099z"/>
				<path fill="#ED2289" d="M184.424,841.482c-4.771-11.974-8.012-22.8-10.224-31.793l25.368,5.915L184.424,841.482z"/>
				<path fill="#ED2289" d="M197.441,865.214c-5.885-9.987-12.388-24.536-16.482-33.959l26.183,5.473L197.441,865.214z"/>
				<path fill="#ED2289" d="M212.599,887.532c-5.23-7.736-10.464-16.119-15.539-25.156l21.437,4.327L212.599,887.532z"/>
				<path fill="#ED2289" d="M228.284,906.15c-6.599-7.31-13.52-15.595-20.473-24.863l23.252,2.81L228.284,906.15z"/>
			</g>
		</g>
		<path fill="#EC86B6" d="M380.008,770.087c0,0-116.026-5.256-200.197,67.692c-43.209,37.448-69.133,76.335-136.826,93.618
			c-67.129,17.142,20.165,106.58,142.588,80.654c113.571-24.051,165.631-2.881,165.631-2.881L380.008,770.087z"/>
		<g>
			<defs>
				<path id="SVGID_4_" d="M380.008,770.087c0,0-116.026-5.256-200.197,67.692c-43.209,37.448-69.133,76.335-136.826,93.618
					c-67.129,17.142,20.165,106.58,142.588,80.654c113.571-24.051,165.631-2.881,165.631-2.881L380.008,770.087z"/>
			</defs>
			<clipPath id="SVGID_5_">
				<use xlink:href="#SVGID_4_"  overflow="visible"/>
			</clipPath>
			<polygon clip-path="url(#SVGID_5_)" fill="#EA70AB" points="3.136,954.917 440.978,889.627 107.797,1149.835 			"/>
		</g>
		<linearGradient id="SVGID_6_" gradientUnits="userSpaceOnUse" x1="489.2998" y1="1212.1299" x2="489.2998" y2="1031.8865">
			<stop  offset="0" style="stop-color:#66C7F1"/>
			<stop  offset="1" style="stop-color:#0C4876"/>
		</linearGradient>
		<polygon fill="url(#SVGID_6_)" points="562.021,1013.323 614.389,1073.816 613.264,1083.715 464.91,1103.83 634.729,1267.011 
			585.219,1261.38 343.872,1098.841 353.155,1072.311 577.662,1071.517 508.102,1013.461 		"/>
		<polygon fill="#ED2289" points="585.219,1261.38 634.729,1267.011 464.91,1103.83 		"/>
		<polygon opacity="0.3" points="353.155,1072.311 464.91,1103.83 613.264,1083.715 		"/>
		<polygon opacity="0.1" points="614.389,1073.816 613.264,1083.715 353.155,1072.311 577.662,1071.517 		"/>
		<g>
			<polygon fill="#ED2289" points="157.959,931.614 150.392,907.245 176.046,904.835 			"/>
			<polygon fill="#ED2289" points="173.987,909.007 167.494,880.683 197.521,878.462 			"/>
			<polygon fill="#ED2289" points="190.286,889.556 186.313,858.392 210.854,863.061 			"/>
			<polygon fill="#ED2289" points="209.274,868.532 210.415,839.198 236.172,841.502 			"/>
			<polygon fill="#ED2289" points="226.417,850.106 227.795,821.432 256.742,825.978 			"/>
			<polygon fill="#ED2289" points="244.724,832.452 250.058,804.846 276.967,813.551 			"/>
		</g>
		<g>
			<polygon fill="#ED2289" points="190.658,644.104 177.812,666.149 202.275,674.259 			"/>
			<polygon fill="#ED2289" points="201.201,669.729 188.509,695.869 217.273,704.78 			"/>
			<polygon fill="#ED2289" points="212.717,692.343 201.842,721.822 226.811,722.778 			"/>
			<polygon fill="#ED2289" points="226.495,717.097 221.021,745.936 246.638,749.478 			"/>
			<polygon fill="#ED2289" points="239.063,738.897 233.967,767.151 263.195,769.228 			"/>
			<polygon fill="#ED2289" points="252.943,760.218 251.942,788.31 280.111,785.873 			"/>
		</g>
		<linearGradient id="SVGID_7_" gradientUnits="userSpaceOnUse" x1="1381.6885" y1="798.5273" x2="733.6171" y2="798.5273">
			<stop  offset="0" style="stop-color:#66C7F1"/>
			<stop  offset="1" style="stop-color:#0C4876"/>
		</linearGradient>
		<path fill="url(#SVGID_7_)" d="M180.902,586.093c0,0,1.682,67.896,32.051,131.526c27.59,57.796,75.699,80.666,84.306,84.464
			c-9.237,1.764-61.363,14.178-101.224,64.299c-43.889,55.189-60.772,120.973-60.772,120.973s46.327,39.116,94.597,44.609
			c48.271,5.492,111.233-2.398,111.233-2.398s497.347,0.247,664.694,0.247c320.478,0,376.299,3.573,380.969-6.237l0.201-0.449
			l-0.1-0.482c-2.347-10.611-37.521-204.52-348.135-282.447c-162.311-40.719-647.773-149.021-647.773-149.021
			s-59.578-21.819-107.85-27.309S180.902,586.093,180.902,586.093z"/>
		<g>
			<defs>
				<path id="SVGID_8_" d="M180.902,586.093c0,0,1.682,67.896,32.051,131.526c27.59,57.796,75.699,80.666,84.306,84.464
					c-9.237,1.764-61.363,14.178-101.224,64.299c-43.889,55.189-60.772,120.973-60.772,120.973s46.327,39.116,94.597,44.609
					c48.271,5.492,111.233-2.398,111.233-2.398s497.376,3.482,664.694,0.247c320.174-6.176,376.299,3.573,380.969-6.237l0.201-0.449
					l-0.1-0.482c-2.347-10.611-37.521-204.52-348.135-282.447c-162.311-40.719-647.773-149.021-647.773-149.021
					s-59.578-21.819-107.85-27.309S180.902,586.093,180.902,586.093z"/>
			</defs>
			<clipPath id="SVGID_9_">
				<use xlink:href="#SVGID_8_"  overflow="visible"/>
			</clipPath>
			<polygon opacity="0.2" clip-path="url(#SVGID_9_)" points="465.372,821.205 505.959,1057.095 785.449,622.493 			"/>
			<polygon opacity="0.1" clip-path="url(#SVGID_9_)" points="232.256,1060.313 465.372,821.205 505.959,1057.095 			"/>
			<polygon opacity="0.2" clip-path="url(#SVGID_9_)" points="723.371,1113.163 766.072,887.962 804.139,1108.559 			"/>
			<polygon opacity="0.15" clip-path="url(#SVGID_9_)" points="853.339,1072.786 899.428,965.192 929.635,1066.415 			"/>
			<polygon opacity="0.3" clip-path="url(#SVGID_9_)" points="1170.434,1062.644 1203.543,925.806 1225.192,1066.177 			"/>
			<polygon opacity="0.1" clip-path="url(#SVGID_9_)" points="291.797,536.778 465.372,821.205 566.467,601.866 			"/>
			<polygon opacity="0.15" clip-path="url(#SVGID_9_)" points="802.664,597.884 793.702,826.925 880.326,620.509 			"/>
			<polygon opacity="0.1" clip-path="url(#SVGID_9_)" points="916.081,669.946 1157.865,1106.351 1144.357,704.262 			"/>
			<polygon opacity="0.05" clip-path="url(#SVGID_9_)" points="1256.034,756.453 1257.571,897.233 1310.19,765.306 			"/>
			<polygon opacity="0.05" clip-path="url(#SVGID_9_)" points="333.402,806.196 232.256,1060.313 465.372,821.205 291.797,536.778 
							"/>
		</g>
		<g>
			<path opacity="0.3" d="M461.074,925.315c0,0-14.369-53.396-8.592-104.193c5.777-50.799,32.198-97.382,32.198-97.382
				s20.597,29.114,12.226,102.737C488.527,900.108,461.074,925.315,461.074,925.315z"/>
		</g>
		<g>
			<path opacity="0.3" d="M462.001,925.422c0,0-5.237-52.358,0.54-103.155c5.778-50.799,22.764-98.453,22.764-98.453
				s9.913,27.896,1.542,101.518C478.469,898.964,462.001,925.422,462.001,925.422z"/>
		</g>
		<linearGradient id="SVGID_10_" gradientUnits="userSpaceOnUse" x1="662.9277" y1="1032.1113" x2="662.9277" y2="738.082">
			<stop  offset="0" style="stop-color:#66C7F1"/>
			<stop  offset="1" style="stop-color:#0C4876"/>
		</linearGradient>
		<polygon fill="url(#SVGID_10_)" points="590.293,635.743 633.175,646.034 703.168,739.604 688.89,865.163 735.562,1068.725 
			696.343,1051.795 622.136,860.065 627.818,832.036 672.225,748.555 		"/>
		<polygon opacity="0.3" points="627.818,832.036 703.168,739.604 688.89,865.163 		"/>
		<polygon opacity="0.1" points="672.225,748.555 703.168,739.604 590.293,635.743 		"/>
		<polygon fill="#ED2289" points="735.562,1068.725 688.89,865.163 696.343,1051.795 		"/>
	</g>
	<polygon fill="#FADF8D" points="780.243,536.423 796.809,516.633 773.928,505.954 781.591,481.751 758.382,482.903 
		758.956,458.979 733.432,465.937 724.141,443.53 703.8,459.981 684.01,443.415 673.331,466.296 649.128,458.634 650.28,481.843 
		626.355,481.269 633.313,506.794 610.908,516.083 627.359,536.423 610.908,556.763 633.313,566.052 626.355,591.577 
		650.28,591.003 649.128,614.212 673.331,606.55 684.01,629.431 703.8,612.865 724.141,629.315 733.432,606.909 758.956,613.867 
		758.382,589.942 781.591,591.096 773.928,566.894 796.809,556.213 	"/>
	<g>
		<polygon fill="#C4C4C3" points="937.636,559.888 880.136,559.888 822.636,559.888 815.136,565.866 815.749,719.931 
			822.636,725.432 880.136,725.432 937.636,725.432 944.522,719.931 945.136,565.866 		"/>
		<path fill="#EEEEEE" d="M981.519,619.918c0-19.392-17.473-29.643-33.998-35.001c-14.824-4.807-28.885-5.677-28.885-5.677
			s4-1.188,3.75-7.562s-4-4.875-4-4.875s3.104-5.042,4.438-9.875s2.74-3.625,2.74-3.625s2.572,1.124,5.238-6.044
			c1.848-4.964,1.5-12.5,0.668-17.5c-0.834-5-3.834-4.832-3.834-4.832l-0.5-1.668c0,0,1.166-1.486,1.166-2.5
			c0-13.206-13.5-35.75-48.166-35.75s-48.166,22.544-48.166,35.75c0,1.014,1.166,2.5,1.166,2.5l-0.5,1.668c0,0-3-0.168-3.834,4.832
			c-0.832,5-1.18,12.536,0.668,17.5c2.666,7.168,5.238,6.044,5.238,6.044s1.406-1.208,2.74,3.625s4.438,9.875,4.438,9.875
			s-3.75-1.5-4,4.875s3.75,7.562,3.75,7.562s-14.061,0.87-28.885,5.677c-16.523,5.358-33.91,13.286-33.91,32.678l33.912,10.037
			l7.883,0.286l-0.051,99.764c0,0,5.051,21.477,31.26,22.766c3.953,0.194,10.062,10.748,17.445,9.437
			c12.846-2.283,14.148,6.705,20.846,3.336s14.338-12.578,18.291-12.772c26.209-1.289,31.26-22.766,31.26-22.766l-0.051-99.764
			l7.885-0.286L981.519,619.918z"/>
		<g>
			<path fill="#EEEEEE" d="M885.136,891.328h54.551v6.27v9.559c0,0,2.193,42.334-27.275,42.334
				c-27.275,0-27.275-43.434-27.275-43.434v-8.459V891.328z"/>
			<path fill="#EEEEEE" d="M885.136,727.682c0,64.82,0,53.736,0,82.758s0,45.957,0,80.889h54.551c0-36.404,0-51.91,0-80.889
				s0-13.936,0-82.758H885.136z"/>
			<rect x="885.136" y="885.057" fill="#454545" width="54.551" height="12.541"/>
			<polygon fill="#E0E0E0" points="885.136,885.057 939.687,825.625 885.136,808.564 			"/>
			<polygon fill="#E0E0E0" points="885.136,808.564 885.136,765.787 939.687,825.625 			"/>
		</g>
		<g>
			<path fill="#EEEEEE" d="M816.813,585.053c-18,0-44.554,34.525-59.282,27.557c-11.906-5.634-23.197-23.962-23-37.747
				c0.03-2.188,0-5.296,0-7.739h-27.214c0,3.031-0.001,4.43,0,7.739c0.005,17.538,4.88,44.259,22.714,62.969
				c16.666,17.485,48.81,16.811,86.782-10.111V585.053z"/>
			<g>
				<path fill="#8E8E8E" d="M707.317,566.929c0,0,0-59.543,0-65.293c0-9,10.165-9.75,10.165,0c0,6.75,6.231,23.393,6.231,31.379
					c0,10.69,10.824,12.371,10.817,26.366c-0.002,3.505,0.007,7.742,0.007,7.742L707.317,566.929z"/>
				<path fill="#C4C4C3" d="M707.317,566.929c0,0,0-29.148,0-36.162c0-10.111,13.117-11.514,13.117,0.183
					c0,16.018,14.104,17.391,14.097,28.432c0.007,6.379,0.007,7.742,0.007,7.742L707.317,566.929z"/>
			</g>
			<rect x="707.317" y="559.381" fill="#454545" width="27.214" height="15.481"/>
		</g>
		<g>
			<path fill="#EEEEEE" d="M859.909,829.868c-4.721-40.79-1.439-50.646,4.727-61.553c6.406-11.33,8.42-12.833,10.5-40.634h-54.551
				c-2,26.135-12.115,33.801-14.053,46.801s-2.467,23.218,0,43.649v7.494l53.377,10.568V829.868z"/>
			<path fill="#EEEEEE" d="M859.909,836.194l-53.377-10.568v5.047c0,0-4.314,18.964-4.609,29.737
				c-0.314,11.406,4.221,24.647,19.596,24.647c23.617,0,38.391-34.617,38.391-34.617v-8.031V836.194z"/>
			<g>
				<defs>
					<path id="SVGID_123_" d="M859.909,829.868c-4.721-40.79-1.439-50.646,4.727-61.553c6.406-11.33,8.42-12.833,10.5-40.634
						h-54.551c-2,26.135-12.115,33.801-14.053,46.801s-2.467,23.218,0,43.649v7.494l53.377,10.568V829.868z"/>
				</defs>
				<clipPath id="SVGID_12_">
					<use xlink:href="#SVGID_123_"  overflow="visible"/>
				</clipPath>
				<polygon clip-path="url(#SVGID_12_)" fill="#E0E0E0" points="859.909,829.868 806.532,774.482 859.163,781.938 				"/>
				<polygon clip-path="url(#SVGID_12_)" fill="#E0E0E0" points="859.163,781.938 869.292,759.884 806.532,774.482 				"/>
			</g>
			<polygon fill="#454545" points="859.909,842.409 806.532,830.673 806.532,818.132 859.909,829.868 			"/>
		</g>
		<g>
			<polygon fill="#C4C4C3" points="880.136,605.553 845.136,605.553 845.136,649.886 880.136,649.886 915.136,649.886 
				915.136,605.553 			"/>
			<polygon fill="#DEDDDD" points="880.136,649.886 845.136,649.886 880.136,712.886 915.136,649.886 			"/>
			<polygon fill="#EEEEEE" points="880.136,608.886 848.103,608.886 848.103,641.553 880.136,641.553 912.171,641.553 
				912.171,608.886 			"/>
			<polygon fill="#FFFFFF" points="855.677,635.219 865.481,625.22 865.481,635.219 			"/>
			<polygon fill="#FFFFFF" points="865.481,625.22 855.677,635.219 855.677,625.22 			"/>
			<polygon fill="#FFFFFF" points="865.481,612.595 855.677,622.594 855.677,612.595 			"/>
			<polygon fill="#FFFFFF" points="855.677,622.594 865.481,612.595 865.481,622.594 			"/>
			<polygon fill="#B2B3B3" points="845.136,649.886 848.103,641.553 880.136,649.886 			"/>
			<polygon fill="#FFFFFF" points="904.595,635.219 894.79,625.22 894.79,635.219 			"/>
			<polygon fill="#FFFFFF" points="894.79,625.22 904.595,635.219 904.595,625.22 			"/>
			<polygon fill="#B2B3B3" points="915.136,649.886 912.171,641.553 880.136,649.886 			"/>
			<polygon fill="#A09F9F" points="880.136,641.553 848.103,641.553 880.136,649.886 912.171,641.553 			"/>
			<g>
				<polygon fill="#A09F9F" points="939.687,579.939 930.827,689.72 915.136,649.886 				"/>
				<polygon fill="#B2B3B3" points="928.636,578.009 915.136,649.886 939.687,579.939 				"/>
				<polygon fill="#8E8E8E" points="880.136,712.886 930.827,689.72 915.136,649.886 				"/>
				<polygon fill="#A09F9F" points="880.136,712.886 818.136,731.101 815.136,749.315 				"/>
			</g>
		</g>
		<path fill="#454545" d="M880.136,578.003c-33.916,0-38.496-2.7-42.246-5.117c0.58,10.25,11.08,10.245,42.246,10.245
			s41.666,0.005,42.246-10.245C918.632,575.303,914.052,578.003,880.136,578.003z"/>
		<path fill="#FFFFFF" d="M880.136,490.634c-57,0-42,62.169-34.42,76.818c0,0,10.254,3.975,34.42,3.975s34.422-3.975,34.422-3.975
			C922.136,552.803,937.136,490.634,880.136,490.634z"/>
		<g>
			<defs>
				<path id="SVGID_125_" d="M880.136,493.884c-50.75,0-39.25,57.919-34.75,64.169s34.75,6.125,34.75,6.125s30.25,0.125,34.75-6.125
					S930.886,493.884,880.136,493.884z"/>
			</defs>
			<clipPath id="SVGID_14_">
				<use xlink:href="#SVGID_125_"  overflow="visible"/>
			</clipPath>
			<path clip-path="url(#SVGID_14_)" fill="#222222" d="M880.136,493.884c-50.75,0-39.25,57.919-34.75,64.169
				s34.75,6.125,34.75,6.125s30.25,0.125,34.75-6.125S930.886,493.884,880.136,493.884z"/>
			<polygon clip-path="url(#SVGID_14_)" fill="#282828" points="820.804,520.386 880.136,511.543 833.136,578.009 			"/>
			<polygon clip-path="url(#SVGID_14_)" fill="#222222" points="880.136,511.543 833.136,578.009 880.136,580.386 927.136,578.009 
							"/>
			<polygon clip-path="url(#SVGID_14_)" fill="#303030" points="880.136,473.053 820.804,520.386 880.136,511.543 939.47,520.386 
							"/>
			<polygon clip-path="url(#SVGID_14_)" fill="#282828" points="939.47,520.386 880.136,511.543 927.136,578.009 			"/>
		</g>
		<g>
			<path fill="#EEEEEE" d="M939.986,627.9c12.884,0,19.155,4.592,17.396,23.177c-1.232,13.014-1.6,14.436-2.627,23.61
				c-0.161,1.441-0.517,4.415-0.699,6.234l42.402,4.756c0.288-3.161,0.417-3.7,0.698-6.232c1.122-10.111,2.286-18.052,2.653-23.847
				c3.111-49.234-20.155-70.365-64.823-70.365L939.986,627.9z"/>
			<path fill="#8E8E8E" d="M996.458,685.678l-0.699,6.234c0,0-1.171,20.464-5.055,30.179c-1.271,3.175-4.207,9.483-13.34,7.348
				c-0.376-0.089,4.2-0.8,4.2-0.8l-0.36-0.599c0,0-4.719,0.839-6.275,1.057c-3.623,0.509-7.729-0.763-8.262-2.546
				c2.987,0.518,12.605-0.74,12.605-0.74l-0.37-0.724c0,0-11.183,0.869-12.342,0.653c-3.49-0.649-5.535-3.124-5.949-10.408
				c-0.247-4.354,3.009-9.013,9.239-10.284c6.231-1.271,8.343,7.293,2.605,8.563c-2.449,0.542-2.059,2.515-0.322,2.206
				c3.428-0.612,7.666-1.768,6.5-8.504c-1.166-6.735-8.581-6.763-13.283-4.933c-8.483,3.3-6.709,14.183-6.904,17.965
				c-0.174,3.348-9.408,2.778-9.523,0.145c-0.153-3.5-0.889-12.515-0.137-20.105c0.672-6.783,4.571-13.229,4.571-13.229l0.698-6.233
				L996.458,685.678z"/>
			<path fill="#B2B3B3" d="M956.982,638.466c0.753,3.229,0.896,7.361,0.399,12.611c-1.188,12.533-1.324,11.405-2.627,23.61
				c-0.191,1.795-0.453,3.772-0.699,6.234l42.402,4.756c0.288-3.161,0.417-3.7,0.698-6.232c1.122-10.111,2.286-18.052,2.653-23.847
				c0.463-7.329,0.342-14.036-0.348-20.143c0,0-3.975,7.186-20.143,7.186C963.153,642.642,956.982,638.466,956.982,638.466z"/>
			
				<rect x="953.661" y="677.028" transform="matrix(-0.9938 -0.1115 0.1115 -0.9938 1868.2534 1471.0708)" fill="#454545" width="43.192" height="12.545"/>
		</g>
	</g>
	<g>
		<g>
			<path fill="#E5E5D8" d="M460.929,465.855c0,0,25.666,18.176,28.727,35.285c-9.178,9.297-9.178,9.297-23.621,10.464
				c19.838-10.754-15.102-44.136-15.102-44.136L460.929,465.855z"/>
			<circle fill="#E5E5D8" cx="455.172" cy="461.976" r="12.623"/>
			<circle fill="#454545" cx="455.171" cy="461.976" r="6.945"/>
		</g>
		<path fill="#222222" d="M497.284,630.739c-18.246,1.839-31.338,18.245-29.498,36.492s17.912,31.428,36.158,29.589
			c18.248-1.839,31.367-17.963,29.527-36.21C531.634,642.363,515.532,628.9,497.284,630.739z"/>
		<g>
			<path fill="#C6C5B5" d="M453.327,607.193c1.619,16.068-10.092,30.406-26.16,32.026c-16.072,1.619-30.408-10.093-32.027-26.161
				c-1.621-16.071,10.09-30.408,26.162-32.027C437.37,579.411,451.706,591.122,453.327,607.193z"/>
			<path fill="#454545" d="M421.808,587.456c-12.65,1.275-21.863,12.56-20.594,25.21c1.275,12.645,12.559,21.862,25.211,20.587
				c12.645-1.274,21.859-12.559,20.586-25.203C445.735,595.4,434.452,586.182,421.808,587.456z"/>
		</g>
		<g>
			<path fill="#C6C5B5" d="M535.659,598.895c1.621,16.068,15.957,27.781,32.025,26.161c16.072-1.619,27.783-15.958,26.162-32.026
				c-1.619-16.07-15.955-27.781-32.027-26.162C545.751,568.487,534.04,582.823,535.659,598.895z"/>
			<path fill="#454545" d="M562.606,573.265c12.65-1.275,23.928,7.944,25.209,20.593c1.275,12.645-7.943,23.929-20.594,25.204
				c-12.645,1.274-23.926-7.943-25.201-20.588C540.745,585.824,549.962,574.539,562.606,573.265z"/>
		</g>
		<path fill="#E5E5D8" d="M538.917,520.185c-0.141-0.205-0.283-0.402-0.428-0.604c-16.504-23.502-36.059-36.892-55.926-34.89
			c-19.865,2.002-36.355,19.024-47.838,45.349c-0.1,0.226-0.201,0.448-0.299,0.677c-13.857,32.216-19.682,81.742-14.619,131.977
			l2.256-0.228l77.631-7.824l77.631-7.824l2.256-0.228C574.517,596.354,558.925,548.986,538.917,520.185z"/>
		<path fill="#E5E5D8" d="M482.563,484.69c-19.865,2.002-36.355,19.024-47.838,45.349l57.111,46.652l46.652-57.111
			C521.985,496.078,502.431,482.688,482.563,484.69z"/>
		<path fill="#DDDDCE" d="M434.726,530.039c-0.1,0.226-0.201,0.448-0.299,0.677c-13.857,32.216-19.682,81.742-14.619,131.977
			l2.256-0.228l69.773-85.773L434.726,530.039z"/>
		<path fill="#DDDDCE" d="M538.489,519.58c0.145,0.202,0.287,0.399,0.428,0.604c20.008,28.802,35.6,76.17,40.664,126.404
			l-2.256,0.228l-85.488-70.125L538.489,519.58z"/>
		<polygon fill="#E5E5D8" points="491.837,576.691 422.063,662.465 499.694,654.641 577.325,646.816 		"/>
		<path fill="#222222" d="M522.687,548.102l-33.393,3.365l-33.391,3.365c-14.199,1.432-24.438,15.26-22.861,30.887
			c1.574,15.623,14.365,27.13,28.564,25.698l33.391-3.365l33.393-3.365c14.199-1.432,24.438-15.259,22.861-30.882
			C549.677,558.178,536.886,546.67,522.687,548.102z"/>
		<g>
			<defs>
				<path id="SVGID_127_" d="M472.39,598.405c0.271,2.693-1.693,5.096-4.385,5.367l0,0c-2.693,0.271-5.098-1.691-5.369-4.385
					l-2.939-29.159c-0.271-2.693,1.693-5.097,4.387-5.368l0,0c2.691-0.271,5.096,1.692,5.367,4.386L472.39,598.405z"/>
			</defs>
			<clipPath id="SVGID_16_">
				<use xlink:href="#SVGID_127_"  overflow="visible"/>
			</clipPath>
			<path clip-path="url(#SVGID_16_)" fill="#EECC70" d="M472.39,598.405c0.271,2.693-1.693,5.096-4.385,5.367l0,0
				c-2.693,0.271-5.098-1.691-5.369-4.385l-2.939-29.159c-0.271-2.693,1.693-5.097,4.387-5.368l0,0
				c2.691-0.271,5.096,1.692,5.367,4.386L472.39,598.405z"/>
			<polygon clip-path="url(#SVGID_16_)" fill="#FADF8D" points="457.829,564.318 462.022,605.922 469.013,553.511 			"/>
			<polygon clip-path="url(#SVGID_16_)" fill="#EECC70" points="462.022,605.922 473.364,609.037 469.013,553.511 			"/>
		</g>
		<polygon fill="#FADF8D" points="489.294,551.467 475.204,552.887 491.46,572.954 503.386,550.047 		"/>
		<g>
			<defs>
				<path id="SVGID_129_" d="M515.228,594.087c0.271,2.693,2.676,4.656,5.367,4.385l0,0c2.693-0.271,4.658-2.674,4.387-5.367
					l-2.939-29.159c-0.271-2.693-2.676-4.657-5.369-4.386l0,0c-2.691,0.271-4.656,2.675-4.385,5.368L515.228,594.087z"/>
			</defs>
			<clipPath id="SVGID_18_">
				<use xlink:href="#SVGID_129_"  overflow="visible"/>
			</clipPath>
			<path clip-path="url(#SVGID_18_)" fill="#EECC70" d="M515.228,594.087c0.271,2.693,2.676,4.656,5.367,4.385l0,0
				c2.693-0.271,4.658-2.674,4.387-5.367l-2.939-29.159c-0.271-2.693-2.676-4.657-5.369-4.386l0,0
				c-2.691,0.271-4.656,2.675-4.385,5.368L515.228,594.087z"/>
			<polygon clip-path="url(#SVGID_18_)" fill="#FADF8D" points="522.692,557.781 526.886,599.385 509.577,549.423 			"/>
			<polygon clip-path="url(#SVGID_18_)" fill="#EECC70" points="526.886,599.385 516.394,604.699 509.577,549.423 			"/>
		</g>
		<g>
			<path fill="#E4E4D8" d="M411.983,688.53c-17.582,3.547-42.234,26.607-36.097,57.033c4.981,24.697,23.103,26.539,25.996,40.883
				c3.335,16.533-34.885,26.537-27.235,64.461c1.962,9.725,3.784,18.756,3.784,18.756l21.608-4.357c0,0-1.682-8.336-3.783-18.758
				c-4.981-24.693,22.644-33.02,16.772-62.125c-5.321-26.377-17.333-25.875-20.624-42.191
				c-2.466-12.227,13.612-26.836,24.552-29.043l8.978-1.811l-4.975-24.658L411.983,688.53z"/>
			<path fill="#DEDCCE" d="M378.216,868.593l21.608-4.357c0,0,5.05,25.033,6.521,32.328c0.735,3.646-0.559,4.924-2.319,5.301
				c-1.764,0.379-3.014-0.34-3.768-4.074c-1.645-7.613-3.178-14.348-3.178-14.348l-1.635,0.326c0,0,2.951,14.191,3.762,18.213
				c1.051,5.207-5.742,7.121-6.828,1.736c-0.335-1.662-3.739-18.537-3.739-18.537l-1.483,0.338c0,0,1.825,9.893,2.692,14.191
				c0.443,2.195-0.34,3.447-1.912,3.705c-1.512,0.248-2.819-0.604-3.235-2.666C383.694,895.755,378.216,868.593,378.216,868.593z"/>
			<polyline fill="#454546" points="379.271,873.823 377.16,863.362 398.77,859.005 400.879,869.466 			"/>
			<path fill="#C6C5B5" d="M404.424,703.429c2.396,9.236,11.819,14.779,21.054,12.387c9.234-2.395,14.78-11.818,12.384-21.055
				c-2.392-9.23-11.819-14.777-21.051-12.385C407.577,684.771,402.031,694.198,404.424,703.429z"/>
			<path fill="#454546" d="M410.987,701.894c1.472,5.674,7.26,9.076,12.93,7.607c5.672-1.471,9.078-7.26,7.605-12.932
				c-1.469-5.668-7.258-9.07-12.93-7.604C412.926,690.438,409.52,696.226,410.987,701.894z"/>
		</g>
		<g>
			<path fill="#E4E4D8" d="M586.368,711.74c128.996,0,113.49-139.398,113.49-139.398l0.043-6.428l-27.183-0.154l-0.043,6.427
				c0,0,13.629,114.399-86.308,114.399h-9.156v25.154H586.368z"/>
			<g>
				<path fill="#BAB9AE" d="M699.933,566.94c0,0,0-59.543,0-65.293c0-9-10.165-9.75-10.165,0c0,6.75-6.231,23.393-6.231,31.379
					c0,10.69-10.824,12.371-10.817,26.366c0.002,3.505-0.007,7.742-0.007,7.742L699.933,566.94z"/>
				<path fill="#E4E4D8" d="M699.933,566.94c0,0,0-29.148,0-36.162c0-10.111-13.117-11.514-13.117,0.183
					c0,16.018-14.104,17.391-14.097,28.432c-0.007,6.379-0.007,7.742-0.007,7.742L699.933,566.94z"/>
			</g>
			<path fill="#C6C5B5" d="M561.226,697.996c0.521-9.527,8.664-16.824,18.188-16.305c9.525,0.52,16.826,8.66,16.303,18.188
				c-0.52,9.523-8.664,16.824-18.186,16.303C568.005,715.662,560.704,707.518,561.226,697.996z"/>
			<path fill="#454546" d="M567.962,698.201c0.32-5.852,5.322-10.332,11.17-10.012c5.852,0.318,10.334,5.32,10.014,11.17
				c-0.32,5.848-5.322,10.328-11.172,10.012C572.128,709.049,567.644,704.049,567.962,698.201z"/>
			<polygon fill="#454546" points="699.933,561.67 699.933,566.94 699.858,572.342 672.676,572.187 672.712,566.941 
				672.748,561.517 			"/>
		</g>
		<g>
			<defs>
				<path id="SVGID_131_" d="M416.054,670.028c0,104.656,37.518,189.686,83.99,189.686s83.992-85.029,83.992-189.686H416.054z"/>
			</defs>
			<clipPath id="SVGID_20_">
				<use xlink:href="#SVGID_131_"  overflow="visible"/>
			</clipPath>
			<path clip-path="url(#SVGID_20_)" fill="#DDDDCE" d="M416.054,670.028c0,104.656,37.518,189.686,83.99,189.686
				s83.992-85.029,83.992-189.686H416.054z"/>
			<polygon clip-path="url(#SVGID_20_)" fill="#DDDDCE" points="447.899,727.027 451.515,795.571 500.044,705.499 			"/>
			<polygon clip-path="url(#SVGID_20_)" fill="#D1D1C4" points="416.12,681.87 393.978,759.058 410.255,828.719 451.515,795.571 
				447.899,727.027 			"/>
			<polygon clip-path="url(#SVGID_20_)" fill="#C6C5B5" points="451.515,795.571 410.255,828.719 500.044,873.85 			"/>
			<polygon clip-path="url(#SVGID_20_)" fill="#DDDDCE" points="552.188,727.027 548.573,795.571 500.044,705.499 			"/>
			<polygon clip-path="url(#SVGID_20_)" fill="#D1D1C4" points="583.968,681.87 606.11,759.058 589.833,828.719 548.573,795.571 
				552.188,727.027 			"/>
			<polygon clip-path="url(#SVGID_20_)" fill="#C6C5B5" points="548.573,795.571 589.833,828.719 500.044,873.85 			"/>
			<polygon clip-path="url(#SVGID_20_)" fill="#E5E5D8" points="500.044,681.87 416.12,681.87 447.899,727.027 500.044,705.499 
				552.188,727.027 583.968,681.87 			"/>
		</g>
		<polygon fill="#DDDDCE" points="500.044,795.571 451.515,795.571 500.044,873.85 548.573,795.571 		"/>
		<polygon fill="#E39C27" points="534.552,873.85 525.073,873.85 512.864,873.85 500.044,873.85 487.224,873.85 475.015,873.85 
			465.536,873.85 475.015,915.079 482.114,891.104 500.044,934.681 517.974,891.104 525.073,915.079 		"/>
		<g>
			<polygon fill="#E39C27" points="475.015,873.85 500.044,934.681 500.044,873.85 			"/>
			<polygon fill="#E39C27" points="465.536,873.85 475.015,915.079 475.015,873.85 			"/>
			<polygon fill="#EBB246" points="475.015,873.85 475.015,915.079 487.224,873.85 			"/>
			<polygon fill="#EBB246" points="525.073,873.85 500.044,934.681 500.044,873.85 			"/>
			<polygon fill="#EBB246" points="534.552,873.85 525.073,915.079 525.073,873.85 			"/>
			<polygon fill="#E39C27" points="525.073,873.85 525.073,915.079 512.864,873.85 			"/>
		</g>
		<polygon fill="#454545" points="520.171,841.386 534.552,873.85 500.044,873.85 		"/>
		<polygon fill="#222222" points="520.171,841.386 534.552,873.85 520.171,873.85 		"/>
		<polygon fill="#454545" points="479.917,841.386 465.536,873.85 500.044,873.85 		"/>
		<polygon fill="#222222" points="479.917,841.386 465.536,873.85 479.917,873.85 		"/>
		<g>
			<polygon fill="#454545" points="499.343,651.156 417.88,659.367 418.583,666.337 500.044,658.126 581.507,649.915 
				580.806,642.945 			"/>
		</g>
		<g>
			<polygon fill="#454545" points="500.044,669.96 415.495,669.96 415.495,681.87 500.044,681.87 584.593,681.87 584.593,669.96 			
				"/>
		</g>
		<g>
			<polygon fill="#454545" points="500.044,869.665 464.667,869.665 464.667,878.307 500.044,878.307 535.423,878.307 
				535.423,869.665 			"/>
		</g>
		<polygon fill="#FADF8D" points="500.044,705.499 451.515,795.571 500.044,795.571 548.573,795.571 		"/>
	</g>
</g>
<g id="Layer_2">
</g>
</svg>
