<?xml version="1.0" encoding="utf-8"?>
<!-- Generator: Adobe Illustrator 16.0.0, SVG Export Plug-In . SVG Version: 6.00 Build 0)  -->
<!DOCTYPE svg PUBLIC "-//W3C//DTD SVG 1.1//EN" "http://www.w3.org/Graphics/SVG/1.1/DTD/svg11.dtd">
<svg version="1.1" xmlns="http://www.w3.org/2000/svg" xmlns:xlink="http://www.w3.org/1999/xlink" x="0px" y="0px" width="512px"
	 height="512px" viewBox="0 0 512 512" enable-background="new 0 0 512 512" xml:space="preserve">
<g id="Layer_1">
	<rect x="0" y="-1061" display="none" fill="#071C2C" width="512" height="2661"/>
	<g>
		<polygon fill="#C4C4C3" points="313.5,119.072 256,119.072 198.5,119.072 191,125.051 191.614,279.115 198.5,284.616 256,284.616 
			313.5,284.616 320.387,279.115 321,125.051 		"/>
		<g>
			<path fill="#EEEEEE" d="M315.551,150.846c18,0,24.885-18.579,24.885-37.246c0-16.689,0,2.557,0-32.375h42.668
				c0,36.404,0,13.686,0,32.375c0,49.334-22.885,79.912-67.553,79.912V150.846z"/>
			<path fill="#8E8E8E" d="M372.887,46.369c0-2.79-1.816-4.242-4.07-4.314c-2.346-0.076-4.605,1.348-4.605,4.314
				c0,5.815-0.242,11.313-0.242,11.313l-1.297,0.052c0,0,0-12.363,0-14.609c0-7.285-10.359-6.579-10.359,0.47
				c0,5.437,0.127,14.19,0.127,14.19l-1.555-0.007c0,0,0-4.5,0-12.343c0-5.053-2.762-6.518-5.416-6.488
				c-2.652,0.029-5.033,1.695-5.033,6.629c0,9.869,0,35.648,0,35.648h42.668c0,0,0-25.471,0-32.227c0-2.789-2.047-4.241-4.301-4.313
				c-2.346-0.077-4.57,1.159-4.57,4.126c0,5.816,0,8.872,0,8.872l-1.346,0.052V46.369z"/>
			<rect x="340.436" y="74.954" fill="#454545" width="42.668" height="12.541"/>
			<path fill="#C4C4C3" d="M372.887,56.473V48.9c0-2.79-1.816-4.242-4.07-4.314c-2.346-0.076-4.605,1.348-4.605,4.314
				c0,5.815-0.242,7.521-0.242,7.521c0,3.219,2.229,4.735,4.457,4.696C370.656,61.079,372.887,59.481,372.887,56.473z"/>
			<path fill="#C4C4C3" d="M383.104,56.467c0-3.508,0-3.705,0-5.781c0-2.789-2.047-4.241-4.301-4.313
				c-2.346-0.077-4.57,1.364-4.57,4.331c0,3.309,0,5.613,0,5.613c0,3.283,2.219,4.83,4.436,4.803
				C380.885,61.091,383.104,59.486,383.104,56.467z"/>
			<path fill="#C4C4C3" d="M340.436,51.482c0-3.162,0-0.748,0-3.416c0-4.936,2.381-6.601,5.033-6.631
				c2.654-0.028,5.416,1.438,5.416,6.49c0,3.172,0,3.601,0,3.601c0,3.923-2.611,5.946-5.225,5.972
				C343.049,57.525,340.436,55.553,340.436,51.482z"/>
			<path fill="#C4C4C3" d="M352.439,55.322c0,0-0.127-3.166-0.127-8.604c0-7.049,10.359-7.754,10.359-0.471c0,2.248,0,9.023,0,9.023
				c0,3.506-2.557,5.104-5.115,5.033C354.998,60.232,352.439,58.492,352.439,55.322z"/>
		</g>
		<g>
			<polygon fill="#454545" points="354.687,44.045 296.014,44.045 296.014,48.93 296.014,61.975 301.811,61.975 301.811,48.93 
				354.687,48.93 407.562,48.93 407.562,61.975 413.359,61.975 413.359,48.93 413.359,44.045 			"/>
			<polygon fill="#E5E5D8" points="354.687,59.768 270.489,59.768 270.489,148.385 354.687,148.385 438.884,148.385 438.884,59.768 
							"/>
			<polygon fill="#C6C5B5" points="354.687,87.248 325.201,87.248 325.201,148.385 354.687,148.385 384.172,148.385 384.172,87.248 
							"/>
			<polygon fill="#DDDDCE" points="354.687,89.475 327.403,89.475 327.403,148.385 354.687,148.385 381.97,148.385 381.97,89.475 
							"/>
			<polygon fill="#454545" points="354.687,98.475 332.774,98.475 332.774,125.475 354.687,125.475 376.599,125.475 376.599,98.475 
							"/>
			<polygon fill="#222222" points="354.687,66.057 310.655,66.057 310.655,78.775 354.687,78.775 398.718,78.775 398.718,66.057 			
				"/>
			<rect x="355.914" y="137.746" fill="#454545" width="5.364" height="8.412"/>
			<rect x="363.479" y="137.746" fill="#454545" width="5.364" height="8.412"/>
			<rect x="371.156" y="137.746" fill="#454545" width="5.364" height="8.412"/>
			<rect x="362.705" y="69.807" fill="#C6C5B5" width="1.342" height="5.217"/>
			<rect x="356.584" y="69.807" fill="#C6C5B5" width="1.342" height="5.217"/>
			<rect x="368.322" y="69.807" fill="#C6C5B5" width="1.342" height="5.217"/>
			<rect x="373.91" y="69.807" fill="#C6C5B5" width="1.342" height="5.217"/>
			<rect x="379.544" y="69.807" fill="#C6C5B5" width="1.341" height="5.217"/>
			<rect x="385.161" y="69.807" fill="#C6C5B5" width="1.341" height="5.217"/>
			<rect x="390.749" y="69.807" fill="#C6C5B5" width="1.14" height="5.217"/>
			<circle fill="#C6C5B5" cx="411.359" cy="110.586" r="23.339"/>
			<circle fill="#454545" cx="411.359" cy="110.586" r="18.797"/>
			<circle fill="#C6C5B5" cx="425.616" cy="72.416" r="8.699"/>
			<circle fill="#454545" cx="425.616" cy="72.416" r="6.358"/>
			<circle fill="#EECC70" cx="411.359" cy="110.586" r="5.797"/>
			<rect x="348.095" y="137.746" fill="#454545" width="5.364" height="8.412"/>
			<rect x="340.529" y="137.746" fill="#454545" width="5.364" height="8.412"/>
			<rect x="332.853" y="137.746" fill="#454545" width="5.364" height="8.412"/>
			<rect x="345.326" y="69.807" fill="#C6C5B5" width="1.342" height="5.217"/>
			<rect x="350.776" y="69.807" fill="#C6C5B5" width="1.342" height="5.217"/>
			<rect x="339.709" y="69.807" fill="#C6C5B5" width="1.342" height="5.217"/>
			<rect x="334.121" y="69.807" fill="#C6C5B5" width="1.342" height="5.217"/>
			<rect x="328.488" y="69.807" fill="#C6C5B5" width="1.341" height="5.217"/>
			<rect x="322.871" y="69.807" fill="#C6C5B5" width="1.341" height="5.217"/>
			<rect x="317.484" y="69.807" fill="#C6C5B5" width="1.14" height="5.217"/>
			<polygon fill="#EECC70" points="354.687,102.076 336.9,102.076 336.9,116.93 354.687,116.93 372.473,116.93 372.473,102.076 			
				"/>
			<circle fill="#C6C5B5" cx="298.014" cy="110.586" r="23.339"/>
			<circle fill="#454545" cx="298.014" cy="110.586" r="18.797"/>
			<circle fill="#C6C5B5" cx="283.757" cy="72.416" r="8.699"/>
			<circle fill="#454545" cx="283.757" cy="72.416" r="6.358"/>
			<circle fill="#EECC70" cx="298.014" cy="110.586" r="5.797"/>
			<polygon fill="#FADF8D" points="336.9,116.93 354.687,102.076 372.473,116.93 			"/>
		</g>
		<path fill="#EEEEEE" d="M357.383,179.103c0-19.392-17.474-29.643-33.998-35.001c-14.824-4.807-28.885-5.677-28.885-5.677
			s4-1.188,3.75-7.562s-4-4.875-4-4.875s3.104-5.042,4.438-9.875s2.74-3.625,2.74-3.625s2.572,1.124,5.238-6.044
			c1.848-4.964,1.5-12.5,0.668-17.5c-0.834-5-3.834-4.832-3.834-4.832l-0.5-1.668c0,0,1.166-1.486,1.166-2.5
			c0-13.206-13.5-35.75-48.166-35.75c-34.667,0-48.167,22.544-48.167,35.75c0,1.014,1.167,2.5,1.167,2.5l-0.5,1.668
			c0,0-3-0.168-3.833,4.832s-1.18,12.536,0.667,17.5c2.667,7.168,5.239,6.044,5.239,6.044s1.406-1.208,2.74,3.625
			s4.438,9.875,4.438,9.875s-3.75-1.5-4,4.875s3.75,7.562,3.75,7.562s-14.061,0.87-28.885,5.677
			c-16.524,5.358-33.998,15.609-33.998,35.001l33.999,7.714l7.884,0.286l-0.05,99.764c0,0,5.05,21.477,31.259,22.766
			c3.954,0.194,11.594,9.403,18.292,12.772s10,3,10,3s3.303,0.369,10-3s14.338-12.578,18.291-12.772
			c26.209-1.289,31.26-22.766,31.26-22.766l-0.051-99.764l7.884-0.286L357.383,179.103z"/>
		<g>
			<path fill="#EEEEEE" d="M251,426.902h-54.55v6.27c0,0-8.873,16.729-9.873,27.459c-1,10.732-0.874,20.361,14.5,20.5
				c21.99,0.197,49.923-39.5,49.923-39.5v-8.459V426.902z"/>
			<path fill="#EEEEEE" d="M251,286.866c0,64.821,0,53.737,0,82.759s0,22.346,0,57.277h-54.55c0-36.404,0-28.299,0-57.277
				s0-13.936,0-82.759H251z"/>
			<rect x="196.45" y="420.631" fill="#454545" width="54.55" height="12.541"/>
			<polygon fill="#E0E0E0" points="251,420.631 196.449,384.811 251,367.749 			"/>
			<polygon fill="#E0E0E0" points="251,367.749 251,324.973 196.449,384.811 			"/>
		</g>
		<g>
			<polygon fill="#C4C4C3" points="256,164.737 221,164.737 221,209.07 256,209.07 291,209.07 291,164.737 			"/>
			<polygon fill="#DEDDDD" points="256,209.07 221,209.07 256,272.07 291,209.07 			"/>
			<polygon fill="#EEEEEE" points="256,168.07 223.966,168.07 223.966,200.737 256,200.737 288.034,200.737 288.034,168.07 			"/>
			<polygon fill="#FFFFFF" points="231.541,194.403 241.346,184.404 241.346,194.403 			"/>
			<polygon fill="#FFFFFF" points="241.346,184.404 231.541,194.403 231.541,184.404 			"/>
			<polygon fill="#FFFFFF" points="241.346,171.779 231.541,181.778 231.541,171.779 			"/>
			<polygon fill="#FFFFFF" points="231.541,181.778 241.346,171.779 241.346,181.778 			"/>
			<polygon fill="#B2B3B3" points="221,209.07 223.966,200.737 256,209.07 			"/>
			<polygon fill="#FFFFFF" points="280.459,194.403 270.654,184.404 270.654,194.403 			"/>
			<polygon fill="#FFFFFF" points="270.654,184.404 280.459,194.403 280.459,184.404 			"/>
			<polygon fill="#B2B3B3" points="291,209.07 288.034,200.737 256,209.07 			"/>
			<polygon fill="#A09F9F" points="256,200.737 223.966,200.737 256,209.07 288.034,200.737 			"/>
			<g>
				<polygon fill="#A09F9F" points="315.551,139.124 306.691,248.904 291,209.07 				"/>
				<polygon fill="#B2B3B3" points="304.5,137.193 291,209.07 315.551,139.124 				"/>
				<polygon fill="#8E8E8E" points="256,272.07 306.691,248.904 291,209.07 				"/>
				<polygon fill="#A09F9F" points="256,272.07 194.449,301.707 194.45,331.343 				"/>
			</g>
		</g>
		<g>
			<path fill="#EEEEEE" d="M261,426.902h54.551v6.27c0,0,8.873,16.729,9.873,27.459c1,10.732,0.873,20.361-14.5,20.5
				c-21.99,0.197-49.924-39.5-49.924-39.5v-8.459V426.902z"/>
			<path fill="#EEEEEE" d="M261,286.866c0,64.821,0,53.737,0,82.759s0,22.346,0,57.277h54.551c0-36.404,0-28.299,0-57.277
				s0-13.936,0-82.759H261z"/>
			<rect x="261" y="420.631" fill="#454545" width="54.551" height="12.541"/>
			<polygon fill="#E0E0E0" points="261,420.631 315.551,384.811 261,367.749 			"/>
			<polygon fill="#E0E0E0" points="261,367.749 261,324.973 315.551,384.811 			"/>
		</g>
		<path fill="#454545" d="M256,137.188c-33.917,0-38.496-2.7-42.246-5.117c0.579,10.25,11.079,10.245,42.246,10.245
			c31.166,0,41.666,0.005,42.246-10.245C294.496,134.487,289.916,137.188,256,137.188z"/>
		<path fill="#FFFFFF" d="M256,49.818c-57,0-42,62.169-34.421,76.818c0,0,10.254,3.975,34.421,3.975
			c24.166,0,34.421-3.975,34.421-3.975C298,111.987,313,49.818,256,49.818z"/>
		<g>
			<path fill="#EEEEEE" d="M196.5,187.103c-12.884,0-10.167,18.578-10.167,37.245c0,29.021,0,25.342,0,53.996h-42.668
				c0-30.127,0-25.017,0-53.996c0-49.333,13.167-79.912,57.834-79.912L196.5,187.103z"/>
			<path fill="#C4C4C3" d="M153.882,325.744c0,2.79,1.816,4.241,4.07,4.313c2.346,0.078,4.605-1.346,4.605-4.313
				c0-5.815,0.242-23.854,0.242-23.854l1.297-0.051c0,0,0,22.835,0,25.082c0,7.284,10.359,6.578,10.359-0.471
				c0-5.437-0.127-24.664-0.127-24.664l1.555,0.008c0,0,0.252,9.158,0.408,19.487c0,5.053,2.354,6.659,5.008,6.63
				c2.652-0.029,5.033-1.695,5.033-6.63c0-9.868,0-42.938,0-42.938h-42.668c0,0,0,35.947,0,42.703c0,2.79,2.047,4.241,4.301,4.313
				c2.346,0.078,4.328-1.346,4.328-4.313c0-5.815,0.242-19.157,0.242-19.157l1.346-0.051V325.744z"/>
			<rect x="143.666" y="272.07" fill="#454545" width="42.668" height="12.546"/>
		</g>
		<g>
			<defs>
				<path id="SVGID_45_" d="M256,53.068c-50.75,0-39.25,57.919-34.75,64.169s34.75,6.125,34.75,6.125s30.25,0.125,34.75-6.125
					S306.75,53.068,256,53.068z"/>
			</defs>
			<clipPath id="SVGID_1_">
				<use xlink:href="#SVGID_45_"  overflow="visible"/>
			</clipPath>
			<path clip-path="url(#SVGID_1_)" fill="#222222" d="M256,53.068c-50.75,0-39.25,57.919-34.75,64.169s34.75,6.125,34.75,6.125
				s30.25,0.125,34.75-6.125S306.75,53.068,256,53.068z"/>
			<polygon clip-path="url(#SVGID_1_)" fill="#282828" points="196.667,79.57 256,70.728 209,137.193 			"/>
			<polygon clip-path="url(#SVGID_1_)" fill="#222222" points="256,70.728 209,137.193 256,139.57 303,137.193 			"/>
			<polygon clip-path="url(#SVGID_1_)" fill="#303030" points="256,32.237 196.667,79.57 256,70.728 315.333,79.57 			"/>
			<polygon clip-path="url(#SVGID_1_)" fill="#282828" points="315.333,79.57 256,70.728 303,137.193 			"/>
		</g>
	</g>
</g>
<g id="Layer_2">
</g>
</svg>
