<?xml version="1.0" encoding="utf-8"?>
<!-- Generator: Adobe Illustrator 16.0.0, SVG Export Plug-In . SVG Version: 6.00 Build 0)  -->
<!DOCTYPE svg PUBLIC "-//W3C//DTD SVG 1.1//EN" "http://www.w3.org/Graphics/SVG/1.1/DTD/svg11.dtd">
<svg version="1.1" xmlns="http://www.w3.org/2000/svg" xmlns:xlink="http://www.w3.org/1999/xlink" x="0px" y="0px" width="256px"
	 height="256px" viewBox="0 0 256 256" enable-background="new 0 0 256 256" xml:space="preserve">
<g id="Layer_1">
	<path fill="#222222" d="M217.259,200.042c-21.439-6.952-34.577-10.519-34.577-10.519s5.785-1.718,5.424-10.938
		c-0.361-9.22-5.785-7.051-5.785-7.051s4.488-7.292,6.418-14.282c1.929-6.99,3.963-5.243,3.963-5.243s3.721,1.625,7.576-8.741
		c2.672-7.18,2.169-18.078,0.966-25.31c-1.206-7.231-5.545-6.99-5.545-6.99l-0.724-2.411c0,0,1.687-2.15,1.687-3.616
		c0-19.101-19.524-51.705-69.661-51.705s-69.662,32.604-69.662,51.705c0,1.466,1.687,3.616,1.687,3.616l-0.723,2.411
		c0,0-4.339-0.241-5.545,6.99c-1.204,7.231-1.706,18.13,0.966,25.31c3.855,10.366,7.576,8.741,7.576,8.741s2.033-1.748,3.963,5.243
		c1.93,6.991,6.418,14.282,6.418,14.282s-5.424-2.169-5.785,7.051c-0.361,9.22,5.424,10.938,5.424,10.938s-8.74,3.411-30.18,10.363
		c-23.899,7.75-31.805,21.247-31.805,49.292h237.332C246.666,221.133,241.158,207.792,217.259,200.042z M127,167.739
		c0,0-43.75,0.181-50.259-8.859c-6.508-9.039-23.14-92.806,50.259-92.806s56.767,83.767,50.258,92.806
		C170.75,167.919,127,167.739,127,167.739z"/>
</g>
<g id="Layer_2">
</g>
</svg>
