<?xml version="1.0" encoding="utf-8"?>
<!-- Generator: Adobe Illustrator 16.0.0, SVG Export Plug-In . SVG Version: 6.00 Build 0)  -->
<!DOCTYPE svg PUBLIC "-//W3C//DTD SVG 1.1//EN" "http://www.w3.org/Graphics/SVG/1.1/DTD/svg11.dtd">
<svg version="1.1" id="Layer_1" xmlns="http://www.w3.org/2000/svg" xmlns:xlink="http://www.w3.org/1999/xlink" x="0px" y="0px"
	 width="256px" height="256px" viewBox="0 0 256 256" enable-background="new 0 0 256 256" xml:space="preserve">
<g>
	<path fill="#222222" d="M212.083,198.603c-21.42-6.945-30.576-8.203-30.576-8.203s5.779-1.716,5.42-10.928
		c-0.361-9.212-5.781-7.043-5.781-7.043s4.484-7.285,6.412-14.27c1.928-6.984,3.959-5.238,3.959-5.238s3.717,1.624,7.57-8.732
		c2.67-7.173,2.168-18.063,0.965-25.288c-1.205-7.225-5.539-6.983-5.539-6.983l-0.723-2.408c0,0,1.684-2.148,1.684-3.613
		c0-19.083-19.506-51.658-69.598-51.658c-50.09,0-69.598,32.575-69.598,51.658c0,1.465,1.686,3.613,1.686,3.613l-0.725,2.408
		c0,0-4.334-0.241-5.539,6.983c-1.203,7.225-1.703,18.114,0.965,25.288c3.854,10.356,7.57,8.732,7.57,8.732s2.031-1.746,3.959,5.238
		c1.928,6.985,6.412,14.27,6.412,14.27s-5.418-2.169-5.779,7.043c-0.361,9.212,5.418,10.928,5.418,10.928s-5.156,1.257-26.578,8.203
		C19.79,206.345,8.21,221.157,8.21,249.178h237.332C245.542,221.157,235.96,206.345,212.083,198.603z M125.876,179.11
		c-34.918,0-49.736-5.745-49.736-5.745c-10.951-21.167-32.627-111,49.736-111s60.689,89.833,49.736,111
		C175.612,173.366,160.796,179.11,125.876,179.11z"/>
	<path fill="#222222" d="M125.876,71.212c-67.34,0-52.08,76.852-46.109,85.146c5.971,8.293,46.109,8.127,46.109,8.127
		s40.139,0.166,46.109-8.127C177.956,148.064,193.216,71.212,125.876,71.212z"/>
</g>
</svg>
