<?xml version="1.0" encoding="utf-8"?>
<!-- Generator: Adobe Illustrator 16.0.0, SVG Export Plug-In . SVG Version: 6.00 Build 0)  -->
<!DOCTYPE svg PUBLIC "-//W3C//DTD SVG 1.1//EN" "http://www.w3.org/Graphics/SVG/1.1/DTD/svg11.dtd">
<svg version="1.1" xmlns="http://www.w3.org/2000/svg" xmlns:xlink="http://www.w3.org/1999/xlink" x="0px" y="0px" width="512px"
	 height="512px" viewBox="0 0 512 512" enable-background="new 0 0 512 512" xml:space="preserve">
<g id="Layer_1">
	<g>
		<polygon fill="#C4C4C3" points="313.5,119.072 256,119.072 198.5,119.072 191,125.051 191.614,279.115 198.5,284.616 256,284.616 
			313.5,284.616 320.387,279.115 321,125.051 		"/>
		<path fill="#EEEEEE" d="M356.666,175.001c0-19.392-16.757-25.541-33.281-30.899c-14.824-4.807-28.885-5.677-28.885-5.677
			s4-1.188,3.75-7.562s-4-4.875-4-4.875s3.104-5.042,4.438-9.875s2.74-3.625,2.74-3.625s2.572,1.124,5.238-6.044
			c1.848-4.964,1.5-12.5,0.668-17.5c-0.834-5-3.834-4.832-3.834-4.832l-0.5-1.668c0,0,1.166-1.486,1.166-2.5
			c0-13.206-13.5-35.75-48.166-35.75s-48.166,22.544-48.166,35.75c0,1.014,1.166,2.5,1.166,2.5l-0.5,1.668c0,0-3-0.168-3.833,4.832
			s-1.18,12.536,0.667,17.5c2.667,7.168,5.239,6.044,5.239,6.044s1.406-1.208,2.74,3.625s4.438,9.875,4.438,9.875s-3.75-1.5-4,4.875
			s3.75,7.562,3.75,7.562s-14.061,0.87-28.885,5.677c-16.524,5.358-32.949,10.175-32.949,29.566l32.95,13.148l7.884,0.286
			l-0.05,99.764c0,0,5.05,21.477,31.259,22.766c3.953,0.194,11.594,9.403,18.291,12.772s10,3,10,3s3.303,0.369,10-3
			s14.338-12.578,18.291-12.772c26.209-1.289,31.26-22.766,31.26-22.766l-0.051-99.764l7.884-0.286L356.666,175.001z"/>
		<g>
			<path fill="#EEEEEE" d="M251,426.902h-54.55v6.27c0,0-8.873,16.729-9.873,27.459c-1,10.732-0.874,20.361,14.5,20.5
				c21.99,0.197,49.923-39.5,49.923-39.5v-8.459V426.902z"/>
			<path fill="#EEEEEE" d="M251,286.866c0,64.821,0,53.737,0,82.759s0,22.346,0,57.277h-54.55c0-36.404,0-28.299,0-57.277
				s0-13.936,0-82.759H251z"/>
			<rect x="196.45" y="420.631" fill="#454545" width="54.55" height="12.541"/>
			<polygon fill="#E0E0E0" points="251,420.631 196.449,384.811 251,367.749 			"/>
			<polygon fill="#E0E0E0" points="251,367.749 251,324.973 196.449,384.811 			"/>
		</g>
		<g>
			<polygon fill="#C4C4C3" points="256,164.737 221,164.737 221,209.07 256,209.07 291,209.07 291,164.737 			"/>
			<polygon fill="#DEDDDD" points="256,209.07 221,209.07 256,272.07 291,209.07 			"/>
			<polygon fill="#EEEEEE" points="256,168.07 223.966,168.07 223.966,200.737 256,200.737 288.034,200.737 288.034,168.07 			"/>
			<polygon fill="#FFFFFF" points="231.541,194.403 241.346,184.404 241.346,194.403 			"/>
			<polygon fill="#FFFFFF" points="241.346,184.404 231.541,194.403 231.541,184.404 			"/>
			<polygon fill="#FFFFFF" points="241.346,171.779 231.541,181.778 231.541,171.779 			"/>
			<polygon fill="#FFFFFF" points="231.541,181.778 241.346,171.779 241.346,181.778 			"/>
			<polygon fill="#B2B3B3" points="221,209.07 223.966,200.737 256,209.07 			"/>
			<polygon fill="#FFFFFF" points="280.459,194.403 270.654,184.404 270.654,194.403 			"/>
			<polygon fill="#FFFFFF" points="270.654,184.404 280.459,194.403 280.459,184.404 			"/>
			<polygon fill="#B2B3B3" points="291,209.07 288.034,200.737 256,209.07 			"/>
			<polygon fill="#A09F9F" points="256,200.737 223.966,200.737 256,209.07 288.034,200.737 			"/>
			<g>
				<polygon fill="#A09F9F" points="315.551,139.124 306.691,248.904 291,209.07 				"/>
				<polygon fill="#B2B3B3" points="304.5,137.193 291,209.07 315.551,139.124 				"/>
				<polygon fill="#8E8E8E" points="256,272.07 306.691,248.904 291,209.07 				"/>
				<polygon fill="#A09F9F" points="256,272.07 194.449,301.707 194.45,331.343 				"/>
			</g>
		</g>
		<g>
			<path fill="#EEEEEE" d="M261,426.902h54.551v6.27c0,0,8.873,16.729,9.873,27.459c1,10.732,0.873,20.361-14.5,20.5
				c-21.99,0.197-49.924-39.5-49.924-39.5v-8.459V426.902z"/>
			<path fill="#EEEEEE" d="M261,286.866c0,64.821,0,53.737,0,82.759s0,22.346,0,57.277h54.551c0-36.404,0-28.299,0-57.277
				s0-13.936,0-82.759H261z"/>
			<rect x="261" y="420.631" fill="#454545" width="54.551" height="12.541"/>
			<polygon fill="#E0E0E0" points="261,420.631 315.551,384.811 261,367.749 			"/>
			<polygon fill="#E0E0E0" points="261,367.749 261,324.973 315.551,384.811 			"/>
		</g>
		<path fill="#454545" d="M256,137.188c-33.916,0-38.496-2.7-42.246-5.117c0.58,10.25,11.08,10.245,42.246,10.245
			s41.666,0.005,42.246-10.245C294.496,134.487,289.916,137.188,256,137.188z"/>
		<path fill="#FFFFFF" d="M256,49.818c-57,0-42,62.169-34.421,76.818c0,0,10.255,3.975,34.421,3.975s34.421-3.975,34.421-3.975
			C298,111.987,313,49.818,256,49.818z"/>
		<g>
			<defs>
				<path id="SVGID_133_" d="M256,53.068c-50.75,0-39.25,57.919-34.75,64.169s34.75,6.125,34.75,6.125s30.25,0.125,34.75-6.125
					S306.75,53.068,256,53.068z"/>
			</defs>
			<clipPath id="SVGID_1_">
				<use xlink:href="#SVGID_133_"  overflow="visible"/>
			</clipPath>
			<path clip-path="url(#SVGID_1_)" fill="#222222" d="M256,53.068c-50.75,0-39.25,57.919-34.75,64.169s34.75,6.125,34.75,6.125
				s30.25,0.125,34.75-6.125S306.75,53.068,256,53.068z"/>
			<polygon clip-path="url(#SVGID_1_)" fill="#282828" points="196.667,79.57 256,70.728 209,137.193 			"/>
			<polygon clip-path="url(#SVGID_1_)" fill="#222222" points="256,70.728 209,137.193 256,139.57 303,137.193 			"/>
			<polygon clip-path="url(#SVGID_1_)" fill="#303030" points="256,32.237 196.667,79.57 256,70.728 315.333,79.57 			"/>
			<polygon clip-path="url(#SVGID_1_)" fill="#282828" points="315.333,79.57 256,70.728 303,137.193 			"/>
		</g>
		<g>
			<path fill="#EEEEEE" d="M323.226,144.15c18-0.067,18.577-18.327,19.848-36.948c2.26-33.126,12.433-47.047,17.465-54.308
				l35.417,23.791c-10.196,12.887-12.369,15.099-14.693,38.354c-3.145,31.442-8.451,71.594-57.878,71.777L323.226,144.15z"/>
			<path fill="#C4C4C3" d="M413.867,32.033c1.58-2.299,0.904-4.523-0.91-5.859c-1.891-1.395-4.559-1.499-6.238,0.947
				c-3.296,4.791-13.711,19.521-13.711,19.521l-1.097-0.691c0,0,12.933-18.82,14.204-20.671c4.125-6.005-4.812-11.29-8.804-5.481
				c-3.079,4.482-13.864,20.4-13.864,20.4l-1.277-0.887c0,0,4.98-7.691,10.701-16.292c2.861-4.163,1.831-6.822-0.373-8.3
				c-2.203-1.479-5.109-1.455-7.903,2.612c-5.588,8.134-24.317,35.389-24.317,35.389l35.166,24.163c0,0,20.358-29.625,24.185-35.193
				c1.58-2.3,0.715-4.653-1.102-5.991c-1.89-1.393-4.329-1.341-6.01,1.104c-3.294,4.793-11.049,15.651-11.049,15.651l-1.139-0.722
				L413.867,32.033z"/>
			<polygon fill="#454545" points="356.373,57.435 392.459,81.891 399.454,71.479 363.367,47.025 			"/>
		</g>
		<g>
			<path fill="#EEEEEE" d="M192.508,144.335c-18,0.067-18.709-18.188-20.118-36.8c-2.505-33.106-12.781-46.953-17.868-54.176
				L119.281,77.41c10.292,12.812,12.481,15.008,14.978,38.245c3.376,31.417,8.98,71.528,58.407,71.346L192.508,144.335z"/>
			<path fill="#C4C4C3" d="M101.04,32.893c-1.597-2.287-0.938-4.517,0.868-5.865c1.88-1.408,4.546-1.533,6.246,0.9
				c3.33,4.768,13.853,19.42,13.853,19.42l1.093-0.701c0,0-13.072-18.723-14.358-20.564c-4.17-5.973,4.729-11.325,8.764-5.545
				c3.112,4.458,14.015,20.295,14.015,20.295l1.27-0.894c0,0-5.035-7.654-10.821-16.214c-2.892-4.142-1.881-6.809,0.312-8.303
				c2.192-1.494,5.097-1.492,7.922,2.555c5.648,8.092,24.579,35.206,24.579,35.206l-34.986,24.424c0,0-20.577-29.474-24.444-35.014
				c-1.598-2.288-0.75-4.648,1.056-5.999c1.879-1.406,4.32-1.373,6.019,1.061c3.329,4.768,11.165,15.568,11.165,15.568l1.133-0.728
				L101.04,32.893z"/>
			<polygon fill="#454545" points="158.721,57.868 122.816,82.592 115.747,72.232 151.649,47.512 			"/>
		</g>
	</g>
</g>
<g id="Layer_2">
</g>
</svg>
