<?xml version="1.0" encoding="utf-8"?>
<!-- Generator: Adobe Illustrator 16.0.0, SVG Export Plug-In . SVG Version: 6.00 Build 0)  -->
<!DOCTYPE svg PUBLIC "-//W3C//DTD SVG 1.1//EN" "http://www.w3.org/Graphics/SVG/1.1/DTD/svg11.dtd">
<svg version="1.1" xmlns="http://www.w3.org/2000/svg" xmlns:xlink="http://www.w3.org/1999/xlink" x="0px" y="0px" width="1000px"
	 height="1300px" viewBox="0 0 1000 1300" enable-background="new 0 0 1000 1300" xml:space="preserve">
<g id="Layer_1">
	<g>
		<polygon fill="#FADF8D" points="306.182,62.551 289.215,235.367 129.254,227.435 184.744,378.613 88.754,496.128 254.096,537.725 
			254.096,720.413 411.498,644.738 514.602,781 650.309,554.234 854.324,471.022 753.275,365.22 854.324,205.926 640.814,208.849 
			603.729,68.396 457.473,149.793 		"/>
		<linearGradient id="SVGID_1_" gradientUnits="userSpaceOnUse" x1="391.6934" y1="329.1426" x2="295.6934" y2="231.1425">
			<stop  offset="0" style="stop-color:#66C7F1"/>
			<stop  offset="1" style="stop-color:#0C4876"/>
		</linearGradient>
		<path fill="url(#SVGID_1_)" d="M376.602,183.622c-50.076,6.14-73.123,25.958-104.141,25.96c0,31.016-19.795,54.034-25.932,104.113
			c-7.713,62.92,20.359,105.648,20.359,105.648l119.348-95.915l96.016-119.448C482.252,203.98,439.523,175.909,376.602,183.622z"/>
		<path fill="#303030" d="M376.311,202.059c-42.865,5.259-62.594,22.229-89.143,22.229c0,26.549-16.945,46.254-22.199,89.114
			c-6.6,53.861,17.428,90.436,17.428,90.436l103.84-80.408l0.004-0.007l80.506-103.935
			C466.746,219.487,430.168,195.461,376.311,202.059z"/>
		<g>
			<defs>
				<path id="SVGID_104_" d="M376.311,202.059c-42.865,5.259-62.594,22.229-89.143,22.229c0,26.549-16.945,46.254-22.199,89.114
					c-6.6,53.861,17.428,90.436,17.428,90.436l103.84-80.408l0.004-0.007l80.506-103.935
					C466.746,219.487,430.168,195.461,376.311,202.059z"/>
			</defs>
			<clipPath id="SVGID_3_">
				<use xlink:href="#SVGID_104_"  overflow="visible"/>
			</clipPath>
			<polygon clip-path="url(#SVGID_3_)" fill="#222222" points="278.818,221.097 391.678,339.991 449.832,281.837 			"/>
			<polygon clip-path="url(#SVGID_3_)" fill="#222222" points="284.006,215.908 402.898,328.771 344.744,386.925 			"/>
			<g clip-path="url(#SVGID_3_)">
				<path fill="#ED2289" d="M390.809,197.205c-9.107,0.702-18.707,1.806-28.713,3.424l16.369,13.77L390.809,197.205z"/>
				<path fill="#ED2289" d="M414.613,197.87c-9.617-0.602-20.17-0.853-31.498-0.533l16.311,16.084L414.613,197.87z"/>
			</g>
			<g clip-path="url(#SVGID_3_)">
				<path fill="#ED2289" d="M284.469,228.509c0,0-5.793,9.703-12.154,27.096l22.914-11.248L284.469,228.509z"/>
				<path fill="#ED2289" d="M290.725,222.254c0,0,9.705-5.791,27.096-12.155l-11.246,22.916L290.725,222.254z"/>
				<path fill="#ED2289" d="M337.717,204.378c-12.068,3.641-22.332,7.751-30.561,11.538l19.979,15.812L337.717,204.378z"/>
				<path fill="#ED2289" d="M363.811,199.889c-11.23,1.576-26.328,5.46-36.031,8.063l20.137,16.708L363.811,199.889z"/>
				<path fill="#ED2289" d="M266.594,275.502c3.643-12.07,7.75-22.332,11.537-30.562l15.812,19.979L266.594,275.502z"/>
				<path fill="#ED2289" d="M262.104,301.594c1.576-11.229,5.459-26.324,8.062-36.032l16.707,20.136L262.104,301.594z"/>
				<path fill="#ED2289" d="M260.111,327.902c0.705-9.109,1.809-18.709,3.428-28.715l13.77,16.368L260.111,327.902z"/>
				<path fill="#ED2289" d="M260.777,351.706c-0.602-9.615-0.85-20.169-0.531-31.5l16.084,16.311L260.777,351.706z"/>
			</g>
		</g>
		<g>
			<polygon fill="#ED2289" points="191.445,328.363 200.494,305.104 221.602,318.885 			"/>
			<polygon fill="#ED2289" points="217.479,320.823 229.756,295.192 254.096,311.778 			"/>
			<polygon fill="#ED2289" points="241.803,315.863 257.74,289.591 273.678,308.114 			"/>
			<polygon fill="#ED2289" points="269.133,311.333 287.873,289.578 306.182,307.025 			"/>
			<polygon fill="#ED2289" points="293.477,307.677 311.998,286.568 331.385,307.674 			"/>
			<polygon fill="#ED2289" points="318.246,305.312 339.137,287.437 354.428,310.481 			"/>
		</g>
		<g>
			<polygon fill="#ED2289" points="391.57,128.237 368.311,137.283 382.094,158.392 			"/>
			<polygon fill="#ED2289" points="384.031,154.271 358.402,166.547 374.988,190.886 			"/>
			<polygon fill="#ED2289" points="379.074,178.591 352.801,194.528 371.322,210.47 			"/>
			<polygon fill="#ED2289" points="374.545,205.926 352.791,224.665 370.238,242.974 			"/>
			<polygon fill="#ED2289" points="370.887,230.268 349.779,248.786 370.887,268.175 			"/>
			<polygon fill="#ED2289" points="368.523,255.034 350.646,275.928 373.693,291.216 			"/>
		</g>
		<linearGradient id="SVGID_5_" gradientUnits="userSpaceOnUse" x1="852.5674" y1="173.2051" x2="672.5499" y2="323.2198">
			<stop  offset="0" style="stop-color:#66C7F1"/>
			<stop  offset="1" style="stop-color:#0C4876"/>
		</linearGradient>
		<polygon fill="url(#SVGID_5_)" points="699.215,388.695 777.4,391.928 784.293,385.036 709.34,259.252 937.643,289.834 
			903.186,255.373 631.803,169.652 617.152,192.912 753.275,365.22 666.479,347.345 		"/>
		<polygon opacity="0.3" points="617.152,192.912 709.34,259.252 784.293,385.036 		"/>
		<polygon opacity="0.1" points="777.4,391.928 784.293,385.036 617.152,192.912 753.275,365.22 		"/>
		<linearGradient id="SVGID_6_" gradientUnits="userSpaceOnUse" x1="379.5859" y1="1260.5693" x2="493.5976" y2="765.5195">
			<stop  offset="0" style="stop-color:#66C7F1"/>
			<stop  offset="1" style="stop-color:#0C4876"/>
		</linearGradient>
		<path fill="url(#SVGID_6_)" d="M419.432,77.898c0,0-40.061,52.982-55.57,120.185c-14.084,61.034,8.807,107.835,13.084,115.981
			c-8.148-4.274-55.596-26.519-116.631-12.435c-67.199,15.506-120.184,55.569-120.184,55.569s11.629,58.154,45.229,91.754
			s86.586,65.909,86.586,65.909s94.035,76.065,204.6,164.475c79.494,63.566,140.607,207.917,12.371,273.186
			c-279.137,142.071-287.611,239.273-287.598,249.899l0.008,0.48l0.291,0.384c6.537,8.378,73.447,82.043,380.205,18.772
			c131.018-27.022,330.914-140.741,330.914-378.427c0-274.838-137.451-387.252-178.906-438.983
			c-85.148-106.257-156.736-194.936-156.736-194.936s-32.309-52.985-65.908-86.585S419.432,77.898,419.432,77.898z"/>
		<g>
			<defs>
				<path id="SVGID_108_" d="M419.432,77.898c0,0-40.061,52.982-55.57,120.185c-14.084,61.034,8.807,107.835,13.084,115.981
					c-8.148-4.274-55.596-26.519-116.631-12.435c-67.199,15.506-120.184,55.569-120.184,55.569s11.629,58.154,45.229,91.754
					s86.586,65.909,86.586,65.909s94.035,76.065,204.6,164.475c79.494,63.566,140.607,207.917,12.371,273.186
					c-279.137,142.071-287.611,239.273-287.598,249.899l0.008,0.48l0.291,0.384c6.537,8.378,73.447,82.043,380.205,18.772
					c131.018-27.022,330.914-140.741,330.914-378.427c0-274.838-137.451-387.252-178.906-438.983
					c-85.148-106.257-156.736-194.936-156.736-194.936s-32.309-52.985-65.908-86.585S419.432,77.898,419.432,77.898z"/>
			</defs>
			<clipPath id="SVGID_7_">
				<use xlink:href="#SVGID_108_"  overflow="visible"/>
			</clipPath>
			<polygon opacity="0.2" clip-path="url(#SVGID_7_)" points="493.957,431.082 381.359,636.337 859.945,473.942 			"/>
			<polygon opacity="0.1" clip-path="url(#SVGID_7_)" points="169.924,472.106 493.957,431.082 381.359,636.337 			"/>
			<polygon opacity="0.2" clip-path="url(#SVGID_7_)" points="498.846,742.903 722.643,756.183 513.404,820.675 			"/>
			<polygon opacity="0.15" clip-path="url(#SVGID_7_)" points="540.75,835.419 609.238,927.156 508.754,903.123 			"/>
			<polygon opacity="0.3" clip-path="url(#SVGID_7_)" points="332.721,990.129 386.102,1117.063 287.57,1019.14 			"/>
			<polygon opacity="0.1" clip-path="url(#SVGID_7_)" points="534.338,107.692 493.957,431.082 704.914,324.785 			"/>
			<polygon opacity="0.15" clip-path="url(#SVGID_7_)" points="900.742,622.473 835.826,837.06 968.682,663.023 			"/>
			<polygon opacity="0.1" clip-path="url(#SVGID_7_)" points="793.484,1173.104 350.064,969.411 593.744,1278.373 			"/>
			<polygon opacity="0.05" clip-path="url(#SVGID_7_)" points="407.648,1307.121 355.219,1179.79 355.242,1318.709 			"/>
			<polygon opacity="0.05" clip-path="url(#SVGID_7_)" points="402.1,339.222 169.924,472.106 493.957,431.082 534.338,107.692 			
				"/>
		</g>
		<path opacity="0.05" d="M912.736,843.632c0,237.686-199.896,351.404-330.914,378.427
			c-306.758,63.271-373.668-10.395-380.205-18.772l-0.291-0.384l-0.008-0.48c-0.014-10.626,8.461-107.828,287.598-249.899
			c50.438-25.669,71.584-63.573,73.838-103.984c0,0-0.984,61.417,119.035,78.618C859.945,952.688,912.736,843.632,912.736,843.632z"
			/>
		<linearGradient id="SVGID_9_" gradientUnits="userSpaceOnUse" x1="890.4502" y1="501.7959" x2="470.4082" y2="669.8125">
			<stop  offset="0" style="stop-color:#66C7F1"/>
			<stop  offset="1" style="stop-color:#0C4876"/>
		</linearGradient>
		<polygon fill="url(#SVGID_9_)" points="464.496,668.498 540.996,684.96 548.957,679.337 712.84,601.511 938.154,553.654 
			894.125,532.769 609.717,543.149 603.729,569.982 521.758,654.544 425.424,638.351 		"/>
		<polygon fill="#ED2289" points="894.125,532.769 938.154,553.654 712.84,601.511 		"/>
		<polygon opacity="0.3" points="603.729,569.982 712.84,601.511 548.957,679.337 		"/>
		<polygon opacity="0.1" points="540.996,684.96 548.957,679.337 603.729,569.982 521.758,654.544 		"/>
		<polygon fill="#ED2289" points="903.186,255.373 937.643,289.834 709.34,259.252 		"/>
		<g>
			<path opacity="0.3" d="M425.424,506.31c0,0-24.594-68.251,24.508-117.352c49.1-49.102,116.93-21.944,116.93-21.944
				s39.539,76.34-11.705,127.585C503.904,545.85,425.424,506.31,425.424,506.31z"/>
			<path fill="#ED2289" d="M439.254,492.635c0,0-24.25-55.998,16.307-96.556c40.559-40.558,97.418-15.445,97.418-15.445
				s35.84,58.244-8.959,103.043S439.254,492.635,439.254,492.635z"/>
			<g>
				<defs>
					<path id="SVGID_111_" d="M439.254,492.635c0,0-26.512-53.738,16.307-96.556c42.818-42.818,97.418-15.445,97.418-15.445
						s35.84,58.244-8.959,103.043S439.254,492.635,439.254,492.635z"/>
				</defs>
				<clipPath id="SVGID_10_">
					<use xlink:href="#SVGID_111_"  overflow="visible"/>
				</clipPath>
				<path opacity="0.3" clip-path="url(#SVGID_10_)" d="M531.262,409.323c17.367,17.366,17.367,45.522,0,62.89
					c-17.367,17.366-45.525,17.364-62.891,0c-17.363-17.364-17.369-45.523-0.002-62.89
					C485.736,391.956,513.895,391.956,531.262,409.323z"/>
				<path opacity="0.3" clip-path="url(#SVGID_10_)" d="M509.943,430.642c10.582,10.587,14.635,23.7,9.039,29.295
					c-5.59,5.59-18.703,1.538-29.289-9.045c-10.584-10.589-14.639-23.703-9.045-29.295
					C486.24,416.004,499.354,420.059,509.943,430.642z"/>
			</g>
		</g>
	</g>
	<g>
		<g>
			<polygon fill="#C4C4C3" points="736.299,560.269 678.799,560.269 621.299,560.269 613.799,566.247 614.412,720.312 
				621.299,725.812 678.799,725.812 736.299,725.812 743.186,720.312 743.799,566.247 			"/>
			<g>
				<polygon fill="#454545" points="807.809,723.98 760.152,758.205 763,762.174 770.607,772.769 775.316,769.387 767.709,758.793 
					810.658,727.951 853.607,697.107 861.215,707.702 865.924,704.323 858.314,693.727 855.465,689.758 				"/>
				<polygon fill="#E5E5D8" points="816.979,736.753 748.588,785.866 800.277,857.844 868.668,808.734 937.059,759.621 
					885.371,687.642 				"/>
				<polygon fill="#C6C5B5" points="833.008,759.074 809.057,776.272 844.719,825.932 868.668,808.734 892.619,791.534 
					856.957,741.875 				"/>
				<polygon fill="#DDDDCE" points="834.309,760.883 812.146,776.798 846.506,824.646 868.668,808.734 890.83,792.819 
					856.469,744.968 				"/>
				<polygon fill="#454545" points="839.557,768.193 821.76,780.974 837.508,802.904 855.305,790.123 873.104,777.343 
					857.355,755.413 				"/>
				<polygon fill="#222222" points="820.646,741.861 784.883,767.545 792.303,777.877 828.066,752.191 863.83,726.51 
					856.41,716.177 				"/>
				
					<rect x="865.41" y="797.021" transform="matrix(0.8125 -0.583 0.583 0.8125 -304.3198 656.3157)" fill="#454545" width="5.365" height="8.413"/>
				
					<rect x="871.555" y="792.608" transform="matrix(0.8122 -0.5833 0.5833 0.8122 -300.6556 659.5919)" fill="#454545" width="5.367" height="8.413"/>
				
					<rect x="877.79" y="788.129" transform="matrix(0.8122 -0.5834 0.5834 0.8122 -296.8812 662.4637)" fill="#454545" width="5.365" height="8.414"/>
				
					<rect x="830.742" y="739.347" transform="matrix(0.8121 -0.5836 0.5836 0.8121 -276.731 624.6372)" fill="#C6C5B5" width="1.342" height="5.219"/>
				
					<rect x="825.771" y="742.919" transform="matrix(0.8129 -0.5824 0.5824 0.8129 -279.5708 620.8158)" fill="#C6C5B5" width="1.343" height="5.217"/>
				
					<rect x="835.305" y="736.07" transform="matrix(0.8114 -0.5845 0.5845 0.8114 -274.0923 627.9951)" fill="#C6C5B5" width="1.343" height="5.218"/>
				
					<rect x="839.845" y="732.814" transform="matrix(0.8126 -0.5829 0.5829 0.8126 -271.1161 627.7788)" fill="#C6C5B5" width="1.344" height="5.217"/>
				
					<rect x="844.422" y="729.528" transform="matrix(0.8119 -0.5838 0.5838 0.8119 -268.4556 631.0624)" fill="#C6C5B5" width="1.34" height="5.217"/>
				
					<rect x="848.984" y="726.251" transform="matrix(0.8124 -0.5831 0.5831 0.8124 -265.6027 632.1616)" fill="#C6C5B5" width="1.342" height="5.217"/>
				
					<rect x="853.541" y="723.05" transform="matrix(0.8132 -0.582 0.582 0.8132 -262.7806 632.7192)" fill="#C6C5B5" width="1.141" height="5.216"/>
				<path fill="#C6C5B5" d="M911.611,731.361c7.52,10.471,5.127,25.053-5.342,32.57c-10.473,7.519-25.055,5.127-32.572-5.346
					c-7.52-10.47-5.125-25.051,5.346-32.57C889.512,718.498,904.094,720.892,911.611,731.361z"/>
				<circle fill="#454545" cx="892.654" cy="744.973" r="18.797"/>
				<circle fill="#C6C5B5" cx="881.97" cy="705.654" r="8.699"/>
				<path fill="#454545" d="M887.135,701.945c2.049,2.852,1.396,6.824-1.453,8.873c-2.855,2.049-6.828,1.396-8.877-1.456
					c-2.047-2.852-1.398-6.825,1.457-8.875C881.113,698.44,885.086,699.092,887.135,701.945z"/>
				<path fill="#EECC70" d="M897.363,741.595c1.867,2.599,1.271,6.22-1.326,8.087c-2.602,1.868-6.223,1.275-8.092-1.328
					c-1.867-2.599-1.271-6.223,1.328-8.09C891.875,738.397,895.496,738.992,897.363,741.595z"/>
				
					<rect x="859.059" y="801.58" transform="matrix(-0.8125 0.583 -0.583 -0.8125 2031.6593 958.0318)" fill="#454545" width="5.363" height="8.414"/>
				
					<rect x="852.912" y="805.995" transform="matrix(-0.8124 0.5831 -0.5831 -0.8124 2023.1078 969.5173)" fill="#454545" width="5.366" height="8.412"/>
				
					<rect x="846.678" y="810.475" transform="matrix(-0.8122 0.5834 -0.5834 -0.8122 2014.4801 980.8509)" fill="#454545" width="5.365" height="8.411"/>
				
					<rect x="816.627" y="749.484" transform="matrix(-0.8121 0.5836 -0.5836 -0.8121 1919.8956 885.8833)" fill="#C6C5B5" width="1.342" height="5.219"/>
				
					<rect x="821.053" y="746.307" transform="matrix(-0.8121 0.5836 -0.5836 -0.8121 1926.0607 877.5413)" fill="#C6C5B5" width="1.342" height="5.217"/>
				
					<rect x="812.067" y="752.763" transform="matrix(-0.8123 0.5833 -0.5833 -0.8123 1913.4958 894.8497)" fill="#C6C5B5" width="1.339" height="5.216"/>
				
					<rect x="807.525" y="756.021" transform="matrix(-0.8121 0.5836 -0.5836 -0.8121 1907.2172 903.0377)" fill="#C6C5B5" width="1.342" height="5.219"/>
				
					<rect x="802.95" y="759.308" transform="matrix(-0.8127 0.5826 -0.5826 -0.8127 1900.6647 912.9606)" fill="#C6C5B5" width="1.341" height="5.216"/>
				
					<rect x="798.388" y="762.583" transform="matrix(-0.8127 0.5826 -0.5826 -0.8127 1894.3044 921.5565)" fill="#C6C5B5" width="1.341" height="5.217"/>
				
					<rect x="794.03" y="765.785" transform="matrix(-0.8132 0.582 -0.582 -0.8132 1887.9751 930.7201)" fill="#C6C5B5" width="1.141" height="5.217"/>
				<polygon fill="#EECC70" points="841.656,771.117 827.211,781.493 835.873,793.558 850.32,783.183 864.768,772.809 
					856.104,760.744 				"/>
				<circle fill="#C6C5B5" cx="800.588" cy="811.087" r="23.339"/>
				<circle fill="#454545" cx="800.588" cy="811.088" r="18.797"/>
				<circle fill="#C6C5B5" cx="766.744" cy="788.4" r="8.7"/>
				<path fill="#454545" d="M761.58,792.109c2.047,2.853,6.021,3.504,8.871,1.456c2.855-2.048,3.506-6.023,1.457-8.875
					s-6.02-3.506-8.877-1.455C760.182,785.283,759.529,789.255,761.58,792.109z"/>
				<circle fill="#EECC70" cx="800.588" cy="811.088" r="5.796"/>
				<polygon fill="#FADF8D" points="835.873,793.558 841.656,771.117 864.768,772.809 				"/>
			</g>
			<g>
				<path fill="#EEEEEE" d="M738.299,628.299c18-0.076,18.723,18.18,20.141,36.79c2.002,26.299,8.389,41.338,13.693,49.66
					c1.373,2.154,2.232,3.312,3.279,4.798l35.869-24.771c-1.553-1.933-2.062-3.019-3.258-4.769
					c-6.268-9.176-9.33-13.328-11.459-33.059c-3.395-31.416-9.018-71.524-58.445-71.316L738.299,628.299z"/>
				<path fill="#C4C4C3" d="M821.875,728.698c1.566,2.309,0.875,4.53-0.949,5.854c-1.898,1.383-4.566,1.475-6.234-0.984
					c-1.348,0.465-1.873-0.02-0.611,1.839c4.088,6.03-4.881,11.261-8.84,5.428c-0.936-1.38-1.834-2.712-2.633-3.896
					c-1.01-0.061-1.01-0.061-1.785,0.646c2.838,4.182,1.789,6.833-0.424,8.298s-5.117,1.422-7.887-2.661
					c-3.533-5.209-9.729-12.908-13.303-18.119c-2.029-2.961-3.797-5.556-3.797-5.556l35.869-24.771c0,0,1.818,2.69,3.818,5.587
					c4.42,6.4,11.922,17.524,14.531,21.374c1.568,2.309,0.691,4.659-1.133,5.983c-1.9,1.382-4.34,1.316-6.004-1.14
					C820.998,727.302,821.875,728.698,821.875,728.698z"/>
				<polygon fill="#454545" points="772.133,714.749 808.023,690.008 811.281,694.776 815.1,700.363 779.209,725.103 
					775.412,719.547 				"/>
			</g>
			<path fill="#EEEEEE" d="M780.182,620.299c0-19.392-17.473-29.643-33.998-35.001c-14.824-4.807-28.885-5.677-28.885-5.677
				s4-1.188,3.75-7.562s-4-4.875-4-4.875s3.104-5.042,4.438-9.875s2.74-3.625,2.74-3.625s2.572,1.124,5.238-6.044
				c1.848-4.964,1.5-12.5,0.668-17.5c-0.834-5-3.834-4.832-3.834-4.832l-0.5-1.668c0,0,1.166-1.486,1.166-2.5
				c0-13.206-13.5-35.75-48.166-35.75s-48.166,22.544-48.166,35.75c0,1.014,1.166,2.5,1.166,2.5l-0.5,1.668c0,0-3-0.168-3.834,4.832
				c-0.832,5-1.18,12.536,0.668,17.5c2.666,7.168,5.238,6.044,5.238,6.044s1.406-1.208,2.74,3.625s4.438,9.875,4.438,9.875
				s-3.75-1.5-4,4.875s3.75,7.562,3.75,7.562s-14.061,0.87-28.885,5.677c-16.523,5.358-33.91,13.286-33.91,32.678l33.912,10.037
				l7.883,0.286l-0.051,99.764c0,0,5.051,21.477,31.26,22.766c3.953,0.194,10.062,10.748,17.445,9.437
				c12.846-2.283,14.148,6.705,20.846,3.336s14.338-12.578,18.291-12.772c26.209-1.289,31.26-22.766,31.26-22.766l-0.051-99.764
				l7.885-0.286L780.182,620.299z"/>
			<g>
				<path fill="#EEEEEE" d="M683.799,891.709h54.551v6.27v9.559c0,0,2.193,42.334-27.275,42.334
					c-27.275,0-27.275-43.434-27.275-43.434v-8.459V891.709z"/>
				<path fill="#EEEEEE" d="M683.799,728.062c0,64.82,0,53.736,0,82.758s0,45.957,0,80.889h54.551c0-36.404,0-51.91,0-80.889
					s0-13.936,0-82.758H683.799z"/>
				<rect x="683.799" y="885.438" fill="#454545" width="54.551" height="12.541"/>
				<polygon fill="#E0E0E0" points="683.799,885.438 738.35,826.006 683.799,808.945 				"/>
				<polygon fill="#E0E0E0" points="683.799,808.945 683.799,766.168 738.35,826.006 				"/>
			</g>
			<g>
				<path fill="#8E8E8E" d="M580.129,476.351c0-7.754,0-15.61,0-20.413c0-6.092-2.939-8.147-6.213-8.185
					c-3.277-0.035-6.688,1.773-6.688,8.011c0,9.682,0,15.236,0,15.236l-1.918,0.01c0,0,0.156-10.807,0.156-17.52
					c0-8.702-12.789-9.572-12.789-0.58c0,2.774,0,18.036,0,18.036l-1.602-0.064c0,0-0.299-6.787-0.299-13.965
					c0-3.664-2.789-5.422-5.686-5.326c-2.781,0.089-5.023,1.88-5.023,5.326v14.029l-1.662-0.064c0,0,0-3.772,0-10.951
					c0-3.663-2.746-5.188-5.643-5.095c-2.781,0.089-5.309,1.882-5.309,5.326c0,8.34,0,39.784,0,39.784h52.674v-7.742
					c0,0,12.178-5.439,12.178-14.39s0-7.968,0-13.502c0-5.533-10.107-4.727-10.107,0c0,4.728,0.154,12.035,0.154,12.035
					L580.129,476.351z"/>
				<path fill="#EEEEEE" d="M615.477,585.434c-18,0-33.162-16.437-34.412-35.061c-0.936-13.925-0.936-32.59-0.936-50.427h-52.674
					c0,21.15,0,51.361,8.188,80.401c5.602,19.864,35.166,47.753,79.834,47.753V585.434z"/>
				<rect x="527.455" y="492.204" fill="#454545" width="52.674" height="15.481"/>
				<path fill="#C4C4C3" d="M540.068,469.39v-9.349c0-3.445,2.242-5.236,5.023-5.326c2.896-0.095,5.686,1.663,5.686,5.326
					c0,7.179,0.299,9.284,0.299,9.284c0,3.976-2.75,5.847-5.502,5.798C542.82,475.075,540.068,473.103,540.068,469.39z"/>
				<path fill="#C4C4C3" d="M527.455,469.381c0-4.33,0-4.572,0-7.136c0-3.444,2.527-5.237,5.309-5.326
					c2.896-0.094,5.643,1.685,5.643,5.348c0,4.084,0,6.93,0,6.93c0,4.052-2.738,5.963-5.475,5.928
					C530.193,475.09,527.455,473.11,527.455,469.381z"/>
				<path fill="#B2B3B3" d="M580.129,463.229c0-3.903,0-0.923,0-4.218c0-6.092-2.939-8.148-6.213-8.185
					c-3.277-0.036-6.688,1.773-6.688,8.011c0,3.916,0,4.445,0,4.445c0,4.843,3.225,7.341,6.451,7.373
					C576.902,470.688,580.129,468.253,580.129,463.229z"/>
				<path fill="#C4C4C3" d="M565.311,467.97c0,0,0.156-3.91,0.156-10.621c0-8.702-12.789-9.574-12.789-0.581
					c0,2.773,0,11.138,0,11.138c0,4.329,3.156,6.302,6.314,6.214C562.152,474.031,565.311,471.882,565.311,467.97z"/>
				<path fill="#C4C4C3" d="M586.146,471.496c-4.33,0-4.574,0-7.137,0c-3.443,0-5.236-2.526-5.326-5.31
					c-0.092-2.896,1.684-5.642,5.348-5.643c4.084,0.003,6.93,0.001,6.93,0.001c4.053,0.002,5.963,2.739,5.928,5.475
					C591.854,468.757,589.875,471.497,586.146,471.496z"/>
			</g>
			<g>
				<path fill="#EEEEEE" d="M658.572,830.249c-4.721-40.79-1.439-50.646,4.727-61.553c6.406-11.33,8.42-12.833,10.5-40.634h-54.551
					c-2,26.135-12.115,33.801-14.053,46.801s-2.467,23.218,0,43.649v7.494l53.377,10.568V830.249z"/>
				<path fill="#EEEEEE" d="M658.572,836.575l-53.377-10.568v5.047c0,0-4.314,18.964-4.609,29.737
					c-0.314,11.406,4.221,24.647,19.596,24.647c23.617,0,38.391-34.617,38.391-34.617v-8.031V836.575z"/>
				<g>
					<defs>
						<path id="SVGID_113_" d="M658.572,830.249c-4.721-40.79-1.439-50.646,4.727-61.553c6.406-11.33,8.42-12.833,10.5-40.634
							h-54.551c-2,26.135-12.115,33.801-14.053,46.801s-2.467,23.218,0,43.649v7.494l53.377,10.568V830.249z"/>
					</defs>
					<clipPath id="SVGID_12_">
						<use xlink:href="#SVGID_113_"  overflow="visible"/>
					</clipPath>
					<polygon clip-path="url(#SVGID_12_)" fill="#E0E0E0" points="658.572,830.249 605.195,774.863 657.826,782.319 					"/>
					<polygon clip-path="url(#SVGID_12_)" fill="#E0E0E0" points="657.826,782.319 667.955,760.265 605.195,774.863 					"/>
				</g>
				<polygon fill="#454545" points="658.572,842.79 605.195,831.054 605.195,818.513 658.572,830.249 				"/>
			</g>
			<g>
				<polygon fill="#C4C4C3" points="678.799,605.934 643.799,605.934 643.799,650.267 678.799,650.267 713.799,650.267 
					713.799,605.934 				"/>
				<polygon fill="#DEDDDD" points="678.799,650.267 643.799,650.267 678.799,713.267 713.799,650.267 				"/>
				<polygon fill="#EEEEEE" points="678.799,609.267 646.766,609.267 646.766,641.934 678.799,641.934 710.834,641.934 
					710.834,609.267 				"/>
				<polygon fill="#FFFFFF" points="654.34,635.6 664.145,625.601 664.145,635.6 				"/>
				<polygon fill="#FFFFFF" points="664.145,625.601 654.34,635.6 654.34,625.601 				"/>
				<polygon fill="#FFFFFF" points="664.145,612.976 654.34,622.975 654.34,612.976 				"/>
				<polygon fill="#FFFFFF" points="654.34,622.975 664.145,612.976 664.145,622.975 				"/>
				<polygon fill="#B2B3B3" points="643.799,650.267 646.766,641.934 678.799,650.267 				"/>
				<polygon fill="#FFFFFF" points="703.258,635.6 693.453,625.601 693.453,635.6 				"/>
				<polygon fill="#FFFFFF" points="693.453,625.601 703.258,635.6 703.258,625.601 				"/>
				<polygon fill="#B2B3B3" points="713.799,650.267 710.834,641.934 678.799,650.267 				"/>
				<polygon fill="#A09F9F" points="678.799,641.934 646.766,641.934 678.799,650.267 710.834,641.934 				"/>
				<g>
					<polygon fill="#A09F9F" points="738.35,580.32 729.49,690.101 713.799,650.267 					"/>
					<polygon fill="#B2B3B3" points="727.299,578.39 713.799,650.267 738.35,580.32 					"/>
					<polygon fill="#8E8E8E" points="678.799,713.267 729.49,690.101 713.799,650.267 					"/>
					<polygon fill="#A09F9F" points="678.799,713.267 616.799,731.481 613.799,749.696 					"/>
				</g>
			</g>
			<path fill="#454545" d="M678.799,578.384c-33.916,0-38.496-2.7-42.246-5.117c0.58,10.25,11.08,10.245,42.246,10.245
				s41.666,0.005,42.246-10.245C717.295,575.684,712.715,578.384,678.799,578.384z"/>
			<path fill="#FFFFFF" d="M678.799,491.015c-57,0-42,62.169-34.42,76.818c0,0,10.254,3.975,34.42,3.975s34.422-3.975,34.422-3.975
				C720.799,553.184,735.799,491.015,678.799,491.015z"/>
			<g>
				<defs>
					<path id="SVGID_115_" d="M678.799,494.265c-50.75,0-39.25,57.919-34.75,64.169s34.75,6.125,34.75,6.125
						s30.25,0.125,34.75-6.125S729.549,494.265,678.799,494.265z"/>
				</defs>
				<clipPath id="SVGID_14_">
					<use xlink:href="#SVGID_115_"  overflow="visible"/>
				</clipPath>
				<path clip-path="url(#SVGID_14_)" fill="#222222" d="M678.799,494.265c-50.75,0-39.25,57.919-34.75,64.169
					s34.75,6.125,34.75,6.125s30.25,0.125,34.75-6.125S729.549,494.265,678.799,494.265z"/>
				<polygon clip-path="url(#SVGID_14_)" fill="#282828" points="619.467,520.767 678.799,511.924 631.799,578.39 				"/>
				<polygon clip-path="url(#SVGID_14_)" fill="#222222" points="678.799,511.924 631.799,578.39 678.799,580.767 725.799,578.39 
									"/>
				<polygon clip-path="url(#SVGID_14_)" fill="#303030" points="678.799,473.434 619.467,520.767 678.799,511.924 738.133,520.767 
									"/>
				<polygon clip-path="url(#SVGID_14_)" fill="#282828" points="738.133,520.767 678.799,511.924 725.799,578.39 				"/>
			</g>
		</g>
		<g>
			<g>
				<path fill="#E5E5D8" d="M259.592,466.236c0,0,25.666,18.176,28.727,35.285c-9.178,9.297-9.178,9.297-23.621,10.464
					c19.838-10.754-15.102-44.136-15.102-44.136L259.592,466.236z"/>
				<circle fill="#E5E5D8" cx="253.835" cy="462.356" r="12.623"/>
				<circle fill="#454545" cx="253.834" cy="462.356" r="6.945"/>
			</g>
			<path fill="#222222" d="M295.947,631.12c-18.246,1.839-31.338,18.245-29.498,36.492s17.912,31.428,36.158,29.589
				c18.248-1.839,31.367-17.963,29.527-36.21C330.297,642.744,314.195,629.281,295.947,631.12z"/>
			<g>
				<path fill="#C6C5B5" d="M251.99,607.574c1.619,16.068-10.092,30.406-26.16,32.026c-16.072,1.619-30.408-10.093-32.027-26.161
					c-1.621-16.071,10.09-30.408,26.162-32.027C236.033,579.792,250.369,591.503,251.99,607.574z"/>
				<path fill="#454545" d="M220.471,587.837c-12.65,1.275-21.863,12.56-20.594,25.21c1.275,12.645,12.559,21.862,25.211,20.587
					c12.645-1.274,21.859-12.559,20.586-25.203C244.398,595.781,233.115,586.562,220.471,587.837z"/>
			</g>
			<g>
				<path fill="#C6C5B5" d="M334.322,599.275c1.621,16.068,15.957,27.781,32.025,26.161c16.072-1.619,27.783-15.958,26.162-32.026
					c-1.619-16.07-15.955-27.781-32.027-26.162C344.414,568.868,332.703,583.204,334.322,599.275z"/>
				<path fill="#454545" d="M361.27,573.646c12.65-1.275,23.928,7.944,25.209,20.593c1.275,12.645-7.943,23.929-20.594,25.204
					c-12.645,1.274-23.926-7.943-25.201-20.588C339.408,586.205,348.625,574.92,361.27,573.646z"/>
			</g>
			<path fill="#E5E5D8" d="M337.58,520.565c-0.141-0.205-0.283-0.402-0.428-0.604c-16.504-23.502-36.059-36.892-55.926-34.89
				c-19.865,2.002-36.355,19.024-47.838,45.349c-0.1,0.226-0.201,0.448-0.299,0.677c-13.857,32.216-19.682,81.742-14.619,131.977
				l2.256-0.228l77.631-7.824l77.631-7.824l2.256-0.228C373.18,596.735,357.588,549.367,337.58,520.565z"/>
			<path fill="#E5E5D8" d="M281.227,485.071c-19.865,2.002-36.355,19.024-47.838,45.349l57.111,46.652l46.652-57.111
				C320.648,496.459,301.094,483.069,281.227,485.071z"/>
			<path fill="#DDDDCE" d="M233.389,530.42c-0.1,0.226-0.201,0.448-0.299,0.677c-13.857,32.216-19.682,81.742-14.619,131.977
				l2.256-0.228l69.773-85.773L233.389,530.42z"/>
			<path fill="#DDDDCE" d="M337.152,519.961c0.145,0.202,0.287,0.399,0.428,0.604c20.008,28.802,35.6,76.17,40.664,126.404
				l-2.256,0.228L290.5,577.072L337.152,519.961z"/>
			<polygon fill="#E5E5D8" points="290.5,577.072 220.727,662.846 298.357,655.021 375.988,647.197 			"/>
			<path fill="#222222" d="M321.35,548.482l-33.393,3.365l-33.391,3.365c-14.199,1.432-24.438,15.26-22.861,30.887
				c1.574,15.623,14.365,27.13,28.564,25.698l33.391-3.365l33.393-3.365c14.199-1.432,24.438-15.259,22.861-30.882
				C348.34,558.559,335.549,547.051,321.35,548.482z"/>
			<g>
				<defs>
					<path id="SVGID_117_" d="M271.053,598.786c0.271,2.693-1.693,5.096-4.385,5.367l0,0c-2.693,0.271-5.098-1.691-5.369-4.385
						l-2.939-29.159c-0.271-2.693,1.693-5.097,4.387-5.368l0,0c2.691-0.271,5.096,1.692,5.367,4.386L271.053,598.786z"/>
				</defs>
				<clipPath id="SVGID_16_">
					<use xlink:href="#SVGID_117_"  overflow="visible"/>
				</clipPath>
				<path clip-path="url(#SVGID_16_)" fill="#EECC70" d="M271.053,598.786c0.271,2.693-1.693,5.096-4.385,5.367l0,0
					c-2.693,0.271-5.098-1.691-5.369-4.385l-2.939-29.159c-0.271-2.693,1.693-5.097,4.387-5.368l0,0
					c2.691-0.271,5.096,1.692,5.367,4.386L271.053,598.786z"/>
				<polygon clip-path="url(#SVGID_16_)" fill="#FADF8D" points="256.492,564.699 260.686,606.303 267.676,553.892 				"/>
				<polygon clip-path="url(#SVGID_16_)" fill="#EECC70" points="260.686,606.303 272.027,609.418 267.676,553.892 				"/>
			</g>
			<polygon fill="#FADF8D" points="287.957,551.848 273.867,553.268 290.123,573.335 302.049,550.428 			"/>
			<g>
				<defs>
					<path id="SVGID_119_" d="M313.891,594.468c0.271,2.693,2.676,4.656,5.367,4.385l0,0c2.693-0.271,4.658-2.674,4.387-5.367
						l-2.939-29.159c-0.271-2.693-2.676-4.657-5.369-4.386l0,0c-2.691,0.271-4.656,2.675-4.385,5.368L313.891,594.468z"/>
				</defs>
				<clipPath id="SVGID_18_">
					<use xlink:href="#SVGID_119_"  overflow="visible"/>
				</clipPath>
				<path clip-path="url(#SVGID_18_)" fill="#EECC70" d="M313.891,594.468c0.271,2.693,2.676,4.656,5.367,4.385l0,0
					c2.693-0.271,4.658-2.674,4.387-5.367l-2.939-29.159c-0.271-2.693-2.676-4.657-5.369-4.386l0,0
					c-2.691,0.271-4.656,2.675-4.385,5.368L313.891,594.468z"/>
				<polygon clip-path="url(#SVGID_18_)" fill="#FADF8D" points="321.355,558.162 325.549,599.766 308.24,549.804 				"/>
				<polygon clip-path="url(#SVGID_18_)" fill="#EECC70" points="325.549,599.766 315.057,605.08 308.24,549.804 				"/>
			</g>
			<g>
				<g>
					<path fill="#E4E4D8" d="M213.344,688.208l-59.889,70.014c4.68,0.773,8.738,3.352,11.449,7.008l58.051-67.867
						C218.814,695.336,215.496,692.104,213.344,688.208z"/>
				</g>
				<g>
					<path fill="#E4E4D8" d="M151.637,807.696c3.752-1.7,7.77-2.035,11.514-1.251l-2.094-29.585
						c-2.012,0.639-4.164,0.95-6.396,0.828c-2.498-0.137-4.85-0.784-6.961-1.826l2.314,32.673
						C150.535,808.234,151.076,807.952,151.637,807.696z"/>
				</g>
				<g>
					<path fill="#454546" d="M142.424,832.196c-4.252-9.386-0.094-20.441,9.289-24.695c9.385-4.252,20.443-0.096,24.697,9.29
						l-4.494,2.037c-3.127-6.898-11.262-9.958-18.162-6.83c-6.902,3.128-9.961,11.261-6.834,18.16l-1.248,0.564l-2.111,0.958
						L142.424,832.196z"/>
				</g>
				<path fill="#C6C5B5" d="M237.057,700.464c-0.523,9.527-8.664,16.824-18.189,16.305s-16.824-8.661-16.303-18.188
					c0.52-9.522,8.664-16.823,18.188-16.303S237.576,690.942,237.057,700.464z"/>
				<path fill="#454546" d="M230.318,700.258c-0.32,5.852-5.32,10.332-11.17,10.013s-10.334-5.32-10.012-11.171
					c0.318-5.847,5.32-10.328,11.17-10.011C226.154,689.411,230.637,694.41,230.318,700.258z"/>
				<path fill="#C6C5B5" d="M165.855,768.91c-0.318,5.854-5.322,10.338-11.174,10.019c-5.852-0.322-10.334-5.323-10.016-11.177
					c0.32-5.848,5.324-10.332,11.174-10.013C161.691,758.059,166.176,763.062,165.855,768.91z"/>
				<circle fill="#454546" cx="155.341" cy="768.551" r="6.517"/>
			</g>
			<g>
				<path fill="#E4E4D8" d="M385.031,712.121c94.908-0.108,87.371-206.956,87.371-206.956l0.043-6.428l-39.963-0.154l-0.043,6.427
					c0,0,23.664,181.957-47.408,181.957h-9.156v25.154H385.031z"/>
				<g>
					<path fill="#AAA99D" d="M472.477,499.764h-40.061v-7.742c0,0-12.178-5.439-12.178-14.39s0-7.968,0-13.502
						c0-5.533,10.107-4.727,10.107,0c0,4.728-0.154,12.035-0.154,12.035l2.225,0.003c0-7.754,0-15.61,0-20.413
						c0-6.092,2.939-8.147,6.213-8.185c3.277-0.035,6.688,1.773,6.688,8.011c0,9.682,0,15.236,0,15.236l1.918,0.01
						c0,0-0.156-10.807-0.156-17.52c0-8.702,12.789-9.572,12.789-0.58c0,2.774,0,18.036,0,18.036l1.602-0.064
						c0,0,0.299-6.787,0.299-13.965c0-3.664,2.789-5.422,5.686-5.326c2.781,0.089,5.023,1.88,5.023,5.326v14.029V499.764z"/>
					<path fill="#C6C5B5" d="M472.477,469.207v-9.349c0-3.445-2.242-5.236-5.023-5.326c-2.896-0.095-5.686,1.663-5.686,5.326
						c0,7.179-0.299,9.284-0.299,9.284c0,3.976,2.75,5.847,5.502,5.798C469.725,474.893,472.477,472.92,472.477,469.207z"/>
					<path fill="#BAB9AE" d="M432.416,463.046c0-3.903,0-0.923,0-4.218c0-6.092,2.939-8.148,6.213-8.185
						c3.277-0.036,6.688,1.773,6.688,8.011c0,3.916,0,4.445,0,4.445c0,4.843-3.225,7.341-6.451,7.373
						C435.643,470.505,432.416,468.07,432.416,463.046z"/>
					<path fill="#C6C5B5" d="M447.234,467.787c0,0-0.156-3.91-0.156-10.621c0-8.702,12.789-9.574,12.789-0.581
						c0,2.773,0,11.138,0,11.138c0,4.329-3.156,6.302-6.314,6.214C450.393,473.849,447.234,471.699,447.234,467.787z"/>
					<path fill="#C6C5B5" d="M426.398,471.313c4.33,0,4.574,0,7.137,0c3.443,0,5.236-2.526,5.326-5.31
						c0.092-2.896-1.684-5.642-5.348-5.643c-4.084,0.003-6.93,0.001-6.93,0.001c-4.053,0.002-5.963,2.739-5.928,5.475
						C420.691,468.574,422.67,471.314,426.398,471.313z"/>
				</g>
				<polygon fill="#454546" points="472.477,494.493 472.402,505.165 432.439,505.01 432.512,494.34 				"/>
				<path fill="#C6C5B5" d="M359.889,698.377c0.521-9.527,8.664-16.824,18.188-16.305c9.525,0.52,16.826,8.66,16.303,18.188
					c-0.52,9.523-8.664,16.824-18.186,16.303C366.668,716.043,359.367,707.898,359.889,698.377z"/>
				<path fill="#454546" d="M366.625,698.582c0.32-5.852,5.322-10.332,11.17-10.012c5.852,0.318,10.334,5.32,10.014,11.17
					c-0.32,5.848-5.322,10.328-11.172,10.012C370.791,709.43,366.307,704.43,366.625,698.582z"/>
			</g>
			<g>
				<defs>
					<path id="SVGID_121_" d="M214.717,670.409c0,104.656,37.518,189.686,83.99,189.686s83.992-85.029,83.992-189.686H214.717z"/>
				</defs>
				<clipPath id="SVGID_20_">
					<use xlink:href="#SVGID_121_"  overflow="visible"/>
				</clipPath>
				<path clip-path="url(#SVGID_20_)" fill="#DDDDCE" d="M214.717,670.409c0,104.656,37.518,189.686,83.99,189.686
					s83.992-85.029,83.992-189.686H214.717z"/>
				<polygon clip-path="url(#SVGID_20_)" fill="#DDDDCE" points="246.562,727.408 250.178,795.952 298.707,705.88 				"/>
				<polygon clip-path="url(#SVGID_20_)" fill="#D1D1C4" points="214.783,682.251 192.641,759.438 208.918,829.1 250.178,795.952 
					246.562,727.408 				"/>
				<polygon clip-path="url(#SVGID_20_)" fill="#C6C5B5" points="250.178,795.952 208.918,829.1 298.707,874.23 				"/>
				<polygon clip-path="url(#SVGID_20_)" fill="#DDDDCE" points="350.852,727.408 347.236,795.952 298.707,705.88 				"/>
				<polygon clip-path="url(#SVGID_20_)" fill="#D1D1C4" points="382.631,682.251 404.773,759.438 388.496,829.1 347.236,795.952 
					350.852,727.408 				"/>
				<polygon clip-path="url(#SVGID_20_)" fill="#C6C5B5" points="347.236,795.952 388.496,829.1 298.707,874.23 				"/>
				<polygon clip-path="url(#SVGID_20_)" fill="#E5E5D8" points="298.707,682.251 214.783,682.251 246.562,727.408 298.707,705.88 
					350.852,727.408 382.631,682.251 				"/>
			</g>
			<polygon fill="#DDDDCE" points="298.707,795.952 250.178,795.952 298.707,874.23 347.236,795.952 			"/>
			<polygon fill="#E39C27" points="333.215,874.23 323.736,874.23 311.527,874.23 298.707,874.23 285.887,874.23 273.678,874.23 
				264.199,874.23 273.678,915.46 280.777,891.484 298.707,935.062 316.637,891.484 323.736,915.46 			"/>
			<g>
				<polygon fill="#E39C27" points="273.678,874.23 298.707,935.062 298.707,874.23 				"/>
				<polygon fill="#E39C27" points="264.199,874.23 273.678,915.46 273.678,874.23 				"/>
				<polygon fill="#EBB246" points="273.678,874.23 273.678,915.46 285.887,874.23 				"/>
				<polygon fill="#EBB246" points="323.736,874.23 298.707,935.062 298.707,874.23 				"/>
				<polygon fill="#EBB246" points="333.215,874.23 323.736,915.46 323.736,874.23 				"/>
				<polygon fill="#E39C27" points="323.736,874.23 323.736,915.46 311.527,874.23 				"/>
			</g>
			<polygon fill="#454545" points="318.834,841.767 333.215,874.23 298.707,874.23 			"/>
			<polygon fill="#222222" points="318.834,841.767 333.215,874.23 318.834,874.23 			"/>
			<polygon fill="#454545" points="278.58,841.767 264.199,874.23 298.707,874.23 			"/>
			<polygon fill="#222222" points="278.58,841.767 264.199,874.23 278.58,874.23 			"/>
			<g>
				<polygon fill="#454545" points="298.006,651.537 216.543,659.748 217.246,666.718 298.707,658.507 380.17,650.296 
					379.469,643.326 				"/>
			</g>
			<g>
				<polygon fill="#454545" points="298.707,670.341 214.158,670.341 214.158,682.251 298.707,682.251 383.256,682.251 
					383.256,670.341 				"/>
			</g>
			<g>
				<polygon fill="#454545" points="298.707,870.046 263.33,870.046 263.33,878.688 298.707,878.688 334.086,878.688 
					334.086,870.046 				"/>
			</g>
			<polygon fill="#FADF8D" points="298.707,705.88 250.178,795.952 298.707,795.952 347.236,795.952 			"/>
		</g>
	</g>
</g>
<g id="Layer_2">
</g>
</svg>
