<?xml version="1.0" encoding="utf-8"?>
<!-- Generator: Adobe Illustrator 16.0.0, SVG Export Plug-In . SVG Version: 6.00 Build 0)  -->
<!DOCTYPE svg PUBLIC "-//W3C//DTD SVG 1.1//EN" "http://www.w3.org/Graphics/SVG/1.1/DTD/svg11.dtd">
<svg version="1.1" xmlns="http://www.w3.org/2000/svg" xmlns:xlink="http://www.w3.org/1999/xlink" x="0px" y="0px" width="512px"
	 height="512px" viewBox="0 0 512 512" enable-background="new 0 0 512 512" xml:space="preserve">
<g id="Layer_1">
	<rect y="-1061" display="none" fill="#071C2C" width="512" height="2107"/>
	<g>
		<g>
			<path fill="#E5E5D8" d="M256.913,21.18c0,0,21.481,22.972,21.035,40.345c-10.861,7.261-10.861,7.261-25.244,5.496
				c21.596-6.541-5.909-46.271-5.909-46.271L256.913,21.18z"/>
			<circle fill="#E5E5D8" cx="252.053" cy="16.221" r="12.623"/>
			<circle fill="#454545" cx="252.053" cy="16.221" r="6.946"/>
		</g>
		<path fill="#222222" d="M259.335,190.008c-18.244-1.872-34.369,11.563-36.24,29.808s11.219,34.39,29.463,36.262
			c18.244,1.871,34.339-11.282,36.21-29.526S277.58,191.879,259.335,190.008z"/>
		<g>
			<path fill="#C6C5B5" d="M221.017,158.096c-1.648,16.065-16.006,27.752-32.072,26.104c-16.068-1.648-27.753-16.007-26.105-32.072
				c1.648-16.068,16.004-27.754,32.073-26.105C210.979,127.67,222.665,142.027,221.017,158.096z"/>
			<path fill="#454545" d="M194.114,132.419c-12.648-1.297-23.942,7.901-25.245,20.548c-1.297,12.643,7.9,23.942,20.549,25.24
				c12.643,1.297,23.941-7.901,25.238-20.544C215.953,145.016,206.757,133.716,194.114,132.419z"/>
		</g>
		<g>
			<path fill="#C6C5B5" d="M303.334,166.538c-1.648,16.066,10.038,30.424,26.104,32.072c16.069,1.647,30.425-10.039,32.073-26.104
				c1.648-16.068-10.037-30.426-26.106-32.073C319.34,138.784,304.982,150.47,303.334,166.538z"/>
			<path fill="#454545" d="M334.889,146.857c12.648,1.298,21.84,12.598,20.549,25.245c-1.297,12.643-12.597,21.841-25.245,20.543
				c-12.643-1.297-21.839-12.597-20.542-25.239C310.947,154.759,322.246,145.561,334.889,146.857z"/>
		</g>
		<path fill="#E5E5D8" d="M322.369,90.095c-0.097-0.229-0.199-0.451-0.298-0.678c-11.437-26.344-27.895-43.396-47.758-45.433
			c-19.863-2.038-39.44,11.318-55.987,34.792c-0.143,0.201-0.288,0.398-0.429,0.603c-20.058,28.768-35.733,76.107-40.884,126.334
			l2.255,0.231l77.617,7.961l77.617,7.961l2.255,0.23C341.908,171.87,336.169,122.335,322.369,90.095z"/>
		<path fill="#E5E5D8" d="M274.312,43.984c-19.863-2.038-39.44,11.318-55.987,34.792l46.552,57.192l57.193-46.552
			C310.634,63.073,294.176,46.021,274.312,43.984z"/>
		<path fill="#DDDDCE" d="M218.326,78.776c-0.143,0.201-0.288,0.398-0.429,0.603c-20.058,28.768-35.733,76.107-40.884,126.334
			l2.255,0.231l85.61-69.976L218.326,78.776z"/>
		<path fill="#DDDDCE" d="M322.071,89.417c0.099,0.227,0.201,0.448,0.298,0.678c13.8,32.24,19.539,81.775,14.387,132.002
			l-2.255-0.23l-69.623-85.897L322.071,89.417z"/>
		<polygon fill="#E5E5D8" points="264.878,135.969 179.268,205.944 256.884,213.905 334.501,221.866 		"/>
		<path fill="#222222" d="M300.85,114.174l-33.385-3.424l-33.385-3.425c-14.197-1.456-27.008,10.028-28.611,25.652
			c-1.602,15.62,8.611,29.466,22.808,30.922l33.385,3.425l33.385,3.424c14.197,1.456,27.008-10.028,28.61-25.648
			C325.26,129.476,315.047,115.63,300.85,114.174z"/>
		<g>
			<defs>
				<path id="SVGID_161_" d="M241.457,153.323c-0.276,2.693-2.683,4.651-5.375,4.375l0,0c-2.692-0.275-4.652-2.682-4.375-5.375
					l2.99-29.153c0.276-2.693,2.684-4.652,5.376-4.377l0,0c2.691,0.276,4.65,2.684,4.374,5.377L241.457,153.323z"/>
			</defs>
			<clipPath id="SVGID_1_">
				<use xlink:href="#SVGID_161_"  overflow="visible"/>
			</clipPath>
			<path clip-path="url(#SVGID_1_)" fill="#EECC70" d="M241.457,153.323c-0.276,2.693-2.683,4.651-5.375,4.375l0,0
				c-2.692-0.275-4.652-2.682-4.375-5.375l2.99-29.153c0.276-2.693,2.684-4.652,5.376-4.377l0,0c2.691,0.276,4.65,2.684,4.374,5.377
				L241.457,153.323z"/>
			<polygon clip-path="url(#SVGID_1_)" fill="#FADF8D" points="234.056,117.004 229.79,158.601 247.186,108.67 			"/>
			<polygon clip-path="url(#SVGID_1_)" fill="#EECC70" points="229.79,158.601 240.272,163.934 247.186,108.67 			"/>
		</g>
		<polygon fill="#FADF8D" points="267.465,110.75 253.376,109.305 265.261,132.232 281.554,112.194 		"/>
		<g>
			<defs>
				<path id="SVGID_163_" d="M284.289,157.717c-0.276,2.693,1.683,5.099,4.375,5.375l0,0c2.692,0.276,5.099-1.682,5.375-4.375
					l2.99-29.153c0.276-2.693-1.683-5.101-4.375-5.377l0,0c-2.691-0.276-5.099,1.684-5.375,4.377L284.289,157.717z"/>
			</defs>
			<clipPath id="SVGID_3_">
				<use xlink:href="#SVGID_163_"  overflow="visible"/>
			</clipPath>
			<path clip-path="url(#SVGID_3_)" fill="#EECC70" d="M284.289,157.717c-0.276,2.693,1.683,5.099,4.375,5.375l0,0
				c2.692,0.276,5.099-1.682,5.375-4.375l2.99-29.153c0.276-2.693-1.683-5.101-4.375-5.377l0,0
				c-2.691-0.276-5.099,1.684-5.375,4.377L284.289,157.717z"/>
			<polygon clip-path="url(#SVGID_3_)" fill="#FADF8D" points="298.908,123.655 294.642,165.252 287.744,112.83 			"/>
			<polygon clip-path="url(#SVGID_3_)" fill="#EECC70" points="294.642,165.252 283.294,168.347 287.744,112.83 			"/>
		</g>
		<g>
			<path fill="#E4E4D8" d="M124.245,310.48c3.725-11.902,22.255-38.043,43.566-38.043h9.157v-25.154h-9.157
				c-25.682,0-50.378,28.543-59.649,58.164C103.429,320.574,119.274,326.366,124.245,310.48z"/>
			<path fill="#C6C5B5" d="M194.349,259.268c-0.522,9.527-8.664,16.824-18.189,16.305s-16.825-8.661-16.302-18.188
				c0.52-9.522,8.664-16.823,18.187-16.303C187.569,241.602,194.869,249.746,194.349,259.268z"/>
			<path fill="#454546" d="M187.611,259.062c-0.319,5.852-5.321,10.332-11.169,10.013c-5.851-0.319-10.335-5.32-10.013-11.171
				c0.319-5.847,5.321-10.328,11.171-10.011C183.446,248.215,187.93,253.214,187.611,259.062z"/>
		</g>
		<g>
			<path fill="#E4E4D8" d="M377.704,332.844c21.884-44.801-14.792-72.603-30.3-81.616l-7.917-4.602l-12.64,21.75l7.918,4.602
				c9.648,5.606,42.654,18.248,25.12,52.487C351.417,342,367,354.756,377.704,332.844z"/>
			<path fill="#C6C5B5" d="M318.76,250.478c-4.335,8.5-0.964,18.899,7.532,23.235c8.497,4.338,18.897,0.968,23.233-7.532
				c4.338-8.494,0.964-18.9-7.53-23.234C333.499,238.61,323.094,241.982,318.76,250.478z"/>
			<path fill="#454546" d="M324.688,253.685c-2.664,5.221-0.592,11.606,4.627,14.27c5.218,2.663,11.607,0.592,14.269-4.627
				c2.663-5.215,0.59-11.603-4.627-14.27C333.74,246.399,327.351,248.47,324.688,253.685z"/>
		</g>
		<g>
			<defs>
				<path id="SVGID_165_" d="M172.009,229.213c0,104.656,37.519,189.686,83.991,189.686s83.991-85.029,83.991-189.686H172.009z"/>
			</defs>
			<clipPath id="SVGID_5_">
				<use xlink:href="#SVGID_165_"  overflow="visible"/>
			</clipPath>
			<path clip-path="url(#SVGID_5_)" fill="#DDDDCE" d="M172.009,229.213c0,104.656,37.519,189.686,83.991,189.686
				s83.991-85.029,83.991-189.686H172.009z"/>
			<polygon clip-path="url(#SVGID_5_)" fill="#DDDDCE" points="203.855,286.212 207.47,354.756 256,264.684 			"/>
			<polygon clip-path="url(#SVGID_5_)" fill="#D1D1C4" points="172.076,241.055 149.934,318.242 166.211,387.903 207.47,354.756 
				203.855,286.212 			"/>
			<polygon clip-path="url(#SVGID_5_)" fill="#C6C5B5" points="207.47,354.756 166.211,387.903 256,433.034 			"/>
			<polygon clip-path="url(#SVGID_5_)" fill="#DDDDCE" points="308.145,286.212 304.53,354.756 256,264.684 			"/>
			<polygon clip-path="url(#SVGID_5_)" fill="#D1D1C4" points="339.924,241.055 362.066,318.242 345.789,387.903 304.53,354.756 
				308.145,286.212 			"/>
			<polygon clip-path="url(#SVGID_5_)" fill="#C6C5B5" points="304.53,354.756 345.789,387.903 256,433.034 			"/>
			<polygon clip-path="url(#SVGID_5_)" fill="#E5E5D8" points="256,241.055 172.076,241.055 203.855,286.212 256,264.684 
				308.145,286.212 339.924,241.055 			"/>
		</g>
		<polygon fill="#DDDDCE" points="256,354.756 207.47,354.756 256,433.034 304.53,354.756 		"/>
		<polygon fill="#E39C27" points="290.507,433.034 281.029,433.034 268.821,433.034 256,433.034 243.179,433.034 230.971,433.034 
			221.493,433.034 230.971,474.264 238.07,450.288 256,493.865 273.93,450.288 281.029,474.264 		"/>
		<g>
			<polygon fill="#E39C27" points="230.971,433.034 256,493.865 256,433.034 			"/>
			<polygon fill="#E39C27" points="221.493,433.034 230.971,474.264 230.971,433.034 			"/>
			<polygon fill="#EBB246" points="230.971,433.034 230.971,474.264 243.179,433.034 			"/>
			<polygon fill="#EBB246" points="281.029,433.034 256,493.865 256,433.034 			"/>
			<polygon fill="#EBB246" points="290.507,433.034 281.029,474.264 281.029,433.034 			"/>
			<polygon fill="#E39C27" points="281.029,433.034 281.029,474.264 268.821,433.034 			"/>
		</g>
		<polygon fill="#454545" points="276.126,400.57 290.507,433.034 256,433.034 		"/>
		<polygon fill="#222222" points="276.126,400.57 290.507,433.034 276.126,433.034 		"/>
		<polygon fill="#454545" points="235.874,400.57 221.493,433.034 256,433.034 		"/>
		<polygon fill="#222222" points="235.874,400.57 221.493,433.034 235.874,433.034 		"/>
		<g>
			<polygon fill="#454545" points="257.242,210.421 175.794,202.066 175.079,209.035 256.527,217.39 337.975,225.743 
				338.689,218.774 			"/>
		</g>
		<g>
			<polygon fill="#454545" points="256,229.145 171.451,229.145 171.451,241.055 256,241.055 340.549,241.055 340.549,229.145 			
				"/>
		</g>
		<g>
			<polygon fill="#454545" points="256,428.85 220.622,428.85 220.622,437.491 256,437.491 291.378,437.491 291.378,428.85 			"/>
		</g>
		<polygon fill="#FADF8D" points="256,264.684 207.47,354.756 256,354.756 304.53,354.756 		"/>
		<path opacity="0.4" fill="#00AEEF" d="M92.305,232.444l4.083,11.479l128.214,54.542c0,0,6.01-10.949,2.679-18.645
			c-4.11-9.497-12.983-14.579-12.983-14.579s4.266-14.25,28.714-0.047c18.138,10.538,29.347,22.866,68.005,23.218
			c41.767,0.381,58.972,35.721,42.292,74.931c-16.68,39.21-54.072,51.325-83.313,21.498c-27.064-27.607-43.719-27.132-63.891-32.891
			c-27.188-7.762-19.88-20.719-19.88-20.719s9.815,2.868,19.507-0.757c7.854-2.938,12.208-16.352,12.208-16.352L89.727,259.581
			l-5.538,2.187l-45.118-32.98l4.61-10.838L92.305,232.444z"/>
		<path fill="#E4E4D8" d="M377.704,332.844c-21.846,47.656-95.89,19.115-95.89,19.115l-5.791-2.788l9.557-19.867l5.791,2.788
			c0,0,55.734,20.015,68.514-6.627L377.704,332.844z"/>
		<path fill="#AAA99D" d="M277.005,349.645l9.559-19.865c0,0-23.013-11.073-29.72-14.299c-3.351-1.612-4.909-0.676-5.708,0.939
			c-0.803,1.614-0.417,3.004,3.018,4.653c6.973,3.476,13.118,6.622,13.118,6.622l-0.719,1.507c0,0-13.023-6.364-16.72-8.142
			c-4.788-2.303-8.318,3.806-3.371,6.188c1.529,0.733,17.042,8.199,17.042,8.199l-0.694,1.354c0,0-9.134-4.209-13.084-6.112
			c-2.021-0.971-3.429-0.52-4.063,0.939c-0.617,1.404-0.112,2.882,1.784,3.794C252.036,337.631,277.005,349.645,277.005,349.645z"/>
		<polyline fill="#454546" points="272.198,347.332 281.814,351.959 291.371,332.092 281.756,327.465 		"/>
		<g>
			<path fill="#E4E4D8" d="M124.191,317.524c3.422-10.064,6.159-18.116,6.159-18.116l-20.871-7.096c0,0-2.964,8.724-6.159,18.117
				C94.342,336.839,116.083,341.375,124.191,317.524z"/>
			<path fill="#AAA99D" d="M109.128,293.346l20.871,7.096c0,0,8.22-24.18,10.615-31.224c1.197-3.522,0.08-4.956-1.619-5.557
				c-1.7-0.602-3.033-0.051-4.259,3.558c-2.608,7.34-4.992,13.821-4.992,13.821l-1.581-0.532c0,0,4.748-13.696,6.068-17.58
				c1.71-5.03-4.78-7.8-6.549-2.599c-0.545,1.604-6.087,17.906-6.087,17.906l-1.428-0.527c0,0,3.082-9.576,4.493-13.729
				c0.721-2.119,0.104-3.463-1.423-3.92c-1.468-0.439-2.873,0.236-3.55,2.229C118.047,267.112,109.128,293.346,109.128,293.346z"/>
			<polyline fill="#454546" points="110.845,288.295 107.41,298.398 128.281,305.494 131.716,295.39 			"/>
		</g>
	</g>
</g>
<g id="Layer_2">
</g>
</svg>
