<?xml version="1.0" encoding="utf-8"?>
<!-- Generator: Adobe Illustrator 16.0.0, SVG Export Plug-In . SVG Version: 6.00 Build 0)  -->
<!DOCTYPE svg PUBLIC "-//W3C//DTD SVG 1.1//EN" "http://www.w3.org/Graphics/SVG/1.1/DTD/svg11.dtd">
<svg version="1.1" xmlns="http://www.w3.org/2000/svg" xmlns:xlink="http://www.w3.org/1999/xlink" x="0px" y="0px" width="512px"
	 height="900px" viewBox="0 0 512 900" enable-background="new 0 0 512 900" xml:space="preserve">
<g id="Layer_1">
	<g>
		<polygon fill="#C4C4C3" points="300.636,501.234 358.136,501.234 415.636,501.234 423.136,507.213 422.522,661.277 
			415.636,666.779 358.136,666.779 300.636,666.779 293.749,661.277 293.136,507.213 		"/>
		<path fill="#EEEEEE" d="M260.77,558.941c0-19.393,13.457-27.318,29.981-32.678c14.824-4.807,28.885-5.676,28.885-5.676
			s-4-1.188-3.75-7.562s4-4.875,4-4.875s-3.104-5.043-4.438-9.875c-1.334-4.834-2.74-3.625-2.74-3.625s-2.572,1.123-5.238-6.045
			c-1.848-4.963-1.5-12.5-0.668-17.5c0.834-5,3.834-4.832,3.834-4.832l0.5-1.668c0,0-1.166-1.486-1.166-2.5
			c0-13.205,13.5-35.75,48.166-35.75s48.166,22.545,48.166,35.75c0,1.014-1.166,2.5-1.166,2.5l0.5,1.668c0,0,3-0.168,3.834,4.832
			c0.832,5,1.18,12.537-0.668,17.5c-2.666,7.168-5.238,6.045-5.238,6.045s-1.406-1.209-2.74,3.625
			c-1.334,4.832-4.438,9.875-4.438,9.875s3.75-1.5,4,4.875s-3.75,7.562-3.75,7.562s14.061,0.869,28.885,5.676
			c16.524,5.359,33.998,15.609,33.998,35.002l-33.999,7.713l-7.884,0.287l0.051,99.764c0,0-5.051,21.477-31.26,22.766
			c-3.953,0.193-11.594,9.402-18.291,12.771s-11.977-2.572-20.846-3.336c-7.47-0.643-13.492-9.242-17.445-9.436
			c-26.209-1.289-31.26-22.766-31.26-22.766l0.051-99.764l-7.884-0.287L260.77,558.941z"/>
		<g>
			<path fill="#EEEEEE" d="M362.301,832.676h54.551v6.27v9.559c0,0,2.193,42.334-27.275,42.334
				c-27.275,0-27.275-43.434-27.275-43.434v-8.459V832.676z"/>
			<path fill="#EEEEEE" d="M362.301,669.029c0,64.82,0,53.736,0,82.758s0,45.957,0,80.889h54.551c0-36.404,0-51.91,0-80.889
				s0-13.936,0-82.758H362.301z"/>
			<rect x="362.301" y="826.404" fill="#454545" width="54.551" height="12.541"/>
			<polygon fill="#E0E0E0" points="362.301,826.404 416.852,766.973 362.301,749.912 			"/>
			<polygon fill="#E0E0E0" points="362.301,749.912 362.301,707.135 416.852,766.973 			"/>
		</g>
		<path fill="#454545" d="M358.136,519.35c33.916,0,38.496-2.699,42.246-5.117c-0.58,10.25-11.08,10.246-42.246,10.246
			s-41.666,0.004-42.246-10.246C319.64,516.65,324.22,519.35,358.136,519.35z"/>
		<path fill="#FFFFFF" d="M358.136,431.98c57,0,42,62.17,34.421,76.818c0,0-10.255,3.975-34.421,3.975s-34.421-3.975-34.421-3.975
			C316.136,494.15,301.136,431.98,358.136,431.98z"/>
		<g>
			<defs>
				<path id="SVGID_11_" d="M358.136,435.23c50.75,0,39.25,57.92,34.75,64.17s-34.75,6.125-34.75,6.125s-30.25,0.125-34.75-6.125
					S307.386,435.23,358.136,435.23z"/>
			</defs>
			<clipPath id="SVGID_1_">
				<use xlink:href="#SVGID_11_"  overflow="visible"/>
			</clipPath>
			<path clip-path="url(#SVGID_1_)" fill="#222222" d="M358.136,435.23c50.75,0,39.25,57.92,34.75,64.17s-34.75,6.125-34.75,6.125
				s-30.25,0.125-34.75-6.125S307.386,435.23,358.136,435.23z"/>
			<polygon clip-path="url(#SVGID_1_)" fill="#282828" points="417.469,461.732 358.136,452.891 405.136,519.355 			"/>
			<polygon clip-path="url(#SVGID_1_)" fill="#222222" points="358.136,452.891 405.136,519.355 358.136,521.732 311.136,519.355 
							"/>
			<polygon clip-path="url(#SVGID_1_)" fill="#303030" points="358.136,414.4 417.469,461.732 358.136,452.891 298.803,461.732 			
				"/>
			<polygon clip-path="url(#SVGID_1_)" fill="#282828" points="298.803,461.732 358.136,452.891 311.136,519.355 			"/>
		</g>
		<g>
			
				<rect x="456.659" y="652.836" transform="matrix(-0.9571 0.2897 -0.2897 -0.9571 1126.4374 1151.4705)" fill="#454545" width="42.668" height="12.546"/>
			<path fill="#EEEEEE" d="M417.687,570.275c12.885,0,18.834,25.465,24.241,43.33c8.409,27.775,5.525,18.25,15.646,51.684
				l40.838-12.363c-10.547-34.84-7.249-23.945-15.646-51.684c-14.293-47.215-20.411-73.635-65.079-73.635V570.275z"/>
			<path fill="#C4C4C3" d="M502.365,701.25c0.809,2.672-0.51,4.586-2.646,5.309c-2.222,0.754-4.798,0.047-5.657-2.795
				c-1.685-5.564-7.144-22.76-7.144-22.76l-1.256,0.326c0,0,6.616,21.855,7.268,24.008c2.11,6.971-8.01,9.297-10.052,2.551
				c-1.575-5.205-7.024-23.645-7.024-23.645l-1.485,0.459c0,0,2.412,8.838,5.255,18.77c1.464,4.836-0.323,7.055-2.872,7.797
				c-2.547,0.74-5.309-0.164-6.738-4.889c-2.859-9.443-12.439-41.094-12.439-41.094l40.838-12.363c0,0,10.414,34.404,12.371,40.871
				c0.809,2.67-0.729,4.652-2.866,5.375c-2.223,0.754-4.532-0.033-5.393-2.875c-1.685-5.566-5.781-18.266-5.781-18.266l-1.303,0.342
				L502.365,701.25z"/>
			
				<rect x="456.658" y="652.836" transform="matrix(-0.9571 0.2897 -0.2897 -0.9571 1126.4358 1151.4668)" fill="#454545" width="42.668" height="12.542"/>
		</g>
		<g>
			<path fill="#EEEEEE" d="M290.529,526.4c-18,0-18.644-18.258-19.983-36.875c-2.383-33.115-12.607-47-17.666-54.242l-35.329,23.922
				c10.244,12.85,12.425,15.053,14.836,38.299c3.26,31.43,8.716,71.562,58.143,71.562V526.4z"/>
			<path fill="#8E8E8E" d="M210.153,429.4c-1.981-1.967-1.73-4.279-0.195-5.93c1.597-1.719,4.201-2.318,6.308-0.23
				c4.127,4.096,8.2,7.799,8.2,7.799l0.949-0.885c0,0-8.774-8.709-10.369-10.291c-5.17-5.131,2.627-11.988,7.63-7.021
				c3.859,3.828,9.984,10.086,9.984,10.086l1.089-1.109c0,0-3.193-3.17-8.759-8.693c-3.588-3.559-2.682-6.551-0.792-8.416
				c1.891-1.861,4.749-2.377,8.251,1.098c7.005,6.951,20.431,29.477,20.431,29.477l-35.329,23.922c0,0-7.933-15.943-12.728-20.701
				c-1.98-1.967-1.569-4.441-0.033-6.092c1.598-1.719,4.043-2.428,6.148-0.338c4.128,4.098,6.298,6.248,6.298,6.248l0.984-0.918
				L210.153,429.4z"/>
			<polygon fill="#454545" points="257.062,439.809 221.065,464.398 214.034,454.014 250.028,429.426 			"/>
		</g>
		<g>
			<path fill="#EEEEEE" d="M337.909,771.215c-4.722-40.789-1.441-50.645,4.726-61.553c6.406-11.33,8.419-12.832,10.5-40.633h-54.55
				c-2.001,26.135-12.116,33.801-14.054,46.801s-2.467,23.217,0,43.648v7.494l53.378,10.568V771.215z"/>
			<path fill="#EEEEEE" d="M337.909,777.541l-53.378-10.568v5.047c0,0-4.314,18.965-4.61,29.738
				c-0.313,11.406,4.222,24.646,19.597,24.646c23.617,0,38.392-34.617,38.392-34.617v-8.031V777.541z"/>
			<g>
				<defs>
					<path id="SVGID_13_" d="M337.909,771.215c-4.722-40.789-1.441-50.645,4.726-61.553c6.406-11.33,8.419-12.832,10.5-40.633
						h-54.55c-2.001,26.135-12.116,33.801-14.054,46.801s-2.467,23.217,0,43.648v7.494l53.378,10.568V771.215z"/>
				</defs>
				<clipPath id="SVGID_3_">
					<use xlink:href="#SVGID_13_"  overflow="visible"/>
				</clipPath>
				<polygon clip-path="url(#SVGID_3_)" fill="#E0E0E0" points="337.909,771.215 284.531,715.83 337.161,723.285 				"/>
				<polygon clip-path="url(#SVGID_3_)" fill="#E0E0E0" points="337.161,723.285 347.29,701.23 284.531,715.83 				"/>
			</g>
			<polygon fill="#454545" points="337.909,783.756 284.531,772.02 284.531,759.479 337.909,771.215 			"/>
		</g>
		<g>
			<polygon fill="#C4C4C3" points="358.136,546.9 323.136,546.9 323.136,591.232 358.136,591.232 393.136,591.232 393.136,546.9 			
				"/>
			<polygon fill="#DEDDDD" points="358.136,591.232 323.136,591.232 358.136,654.232 393.136,591.232 			"/>
			<polygon fill="#EEEEEE" points="358.136,550.232 326.102,550.232 326.102,582.9 358.136,582.9 390.17,582.9 390.17,550.232 			
				"/>
			<polygon fill="#FFFFFF" points="333.677,576.566 343.481,566.566 343.481,576.566 			"/>
			<polygon fill="#FFFFFF" points="343.481,566.566 333.677,576.566 333.677,566.566 			"/>
			<polygon fill="#FFFFFF" points="343.481,553.941 333.677,563.941 333.677,553.941 			"/>
			<polygon fill="#FFFFFF" points="333.677,563.941 343.481,553.941 343.481,563.941 			"/>
			<polygon fill="#B2B3B3" points="323.136,591.232 326.102,582.9 358.136,591.232 			"/>
			<polygon fill="#FFFFFF" points="382.595,576.566 372.79,566.566 372.79,576.566 			"/>
			<polygon fill="#FFFFFF" points="372.79,566.566 382.595,576.566 382.595,566.566 			"/>
			<polygon fill="#B2B3B3" points="393.136,591.232 390.17,582.9 358.136,591.232 			"/>
			<polygon fill="#A09F9F" points="358.136,582.9 326.102,582.9 358.136,591.232 390.17,582.9 			"/>
			<g>
				<polygon fill="#A09F9F" points="417.687,521.287 408.827,631.066 393.136,591.232 				"/>
				<polygon fill="#B2B3B3" points="406.636,519.355 393.136,591.232 417.687,521.287 				"/>
				<polygon fill="#8E8E8E" points="358.136,654.232 408.827,631.066 393.136,591.232 				"/>
				<polygon fill="#A09F9F" points="358.136,654.232 295.585,670.127 290.529,690.779 				"/>
			</g>
		</g>
	</g>
	<g>
		<g>
			<path fill="#E4E4D8" d="M41.14,248.777c-17.582,3.547-42.234,26.607-36.097,57.033c4.981,24.697,23.103,26.539,25.996,40.883
				c3.335,16.533-34.885,26.537-27.235,64.461c1.962,9.725,3.784,18.756,3.784,18.756l21.608-4.357c0,0-1.682-8.336-3.783-18.758
				c-4.981-24.693,22.644-33.02,16.772-62.125c-5.321-26.377-17.333-25.875-20.624-42.191
				c-2.466-12.227,13.612-26.836,24.552-29.043l8.978-1.811l-4.975-24.658L41.14,248.777z"/>
			<path fill="#DEDCCE" d="M7.372,428.84l21.608-4.357c0,0,5.05,25.033,6.521,32.328c0.735,3.646-0.559,4.924-2.319,5.301
				c-1.764,0.379-3.014-0.34-3.768-4.074c-1.645-7.613-3.178-14.348-3.178-14.348l-1.635,0.326c0,0,2.951,14.191,3.762,18.213
				c1.051,5.207-5.742,7.121-6.828,1.736c-0.335-1.662-3.739-18.537-3.739-18.537l-1.483,0.338c0,0,1.825,9.893,2.692,14.191
				c0.443,2.195-0.34,3.447-1.912,3.705c-1.512,0.248-2.819-0.604-3.235-2.666C12.851,456.002,7.372,428.84,7.372,428.84z"/>
			<polyline fill="#454546" points="8.427,434.07 6.316,423.609 27.926,419.252 30.035,429.713 			"/>
			<path fill="#C6C5B5" d="M33.58,263.676c2.396,9.236,11.819,14.779,21.054,12.387c9.234-2.395,14.78-11.818,12.384-21.055
				c-2.392-9.23-11.819-14.777-21.051-12.385C36.733,245.018,31.188,254.445,33.58,263.676z"/>
			<path fill="#454546" d="M40.144,262.141c1.472,5.674,7.26,9.076,12.93,7.607c5.672-1.471,9.078-7.26,7.605-12.932
				c-1.469-5.668-7.258-9.07-12.93-7.604C42.082,250.686,38.676,256.473,40.144,262.141z"/>
		</g>
		<path fill="#222222" d="M130.956,187.752c18.34,0,33.01,15.01,33.01,33.35s-14.67,33.066-33.01,33.066s-33.01-14.727-33.01-33.066
			S112.616,187.752,130.956,187.752z"/>
		<g>
			<path fill="#C6C5B5" d="M230.957,159.916c0,16.15-13.09,29.24-29.24,29.24c-16.153,0-29.242-13.09-29.242-29.24
				c0-16.152,13.089-29.242,29.242-29.242C217.867,130.674,230.957,143.764,230.957,159.916z"/>
			<path fill="#454545" d="M201.576,137.117c-12.715,0-23.012,10.305-23.018,23.018c0,12.709,10.303,23.012,23.018,23.012
				c12.709,0,23.01-10.303,23.01-23.012C224.586,147.422,214.285,137.117,201.576,137.117z"/>
		</g>
		<g>
			<path fill="#C6C5B5" d="M89.581,159.916c0,16.15-13.09,29.24-29.24,29.24c-16.153,0-29.242-13.09-29.242-29.24
				c0-16.152,13.089-29.242,29.242-29.242C76.491,130.674,89.581,143.764,89.581,159.916z"/>
			<path fill="#454545" d="M60.2,137.117c-12.715,0-23.012,10.305-23.018,23.018c0,12.709,10.303,23.012,23.018,23.012
				c12.709,0,23.01-10.303,23.01-23.012C83.21,147.422,72.909,137.117,60.2,137.117z"/>
		</g>
		<path fill="#E5E5D8" d="M78.446,81.93c0.119-0.219,0.243-0.43,0.365-0.645c14.064-25.039,32.178-40.322,52.145-40.322
			s38.08,15.283,52.145,40.322c0.122,0.215,0.246,0.426,0.365,0.645c17.019,30.662,27.781,79.355,27.781,129.844h-2.268h-78.023
			H52.933h-2.268C50.665,161.285,61.428,112.592,78.446,81.93z"/>
		<path fill="#E5E5D8" d="M130.956,40.963c19.967,0,38.08,15.283,52.145,40.322l-52.145,52.145L78.812,81.285
			C92.876,56.246,110.989,40.963,130.956,40.963z"/>
		<path fill="#DDDDCE" d="M183.101,81.285c0.122,0.215,0.246,0.426,0.365,0.645c17.019,30.662,27.781,79.355,27.781,129.844h-2.268
			l-78.023-78.344L183.101,81.285z"/>
		<path fill="#DDDDCE" d="M78.812,81.285c-0.122,0.215-0.246,0.426-0.365,0.645c-17.019,30.662-27.781,79.355-27.781,129.844h2.268
			l78.023-78.344L78.812,81.285z"/>
		<polygon fill="#E5E5D8" points="130.956,133.43 208.979,211.773 130.956,211.773 52.933,211.773 		"/>
		<path fill="#222222" d="M97.396,108.078h33.561h33.561c14.271,0,25.844,12.73,25.844,28.438c0,15.701-11.572,28.434-25.844,28.434
			h-33.561H97.396c-14.271,0-25.844-12.732-25.844-28.434C71.552,120.809,83.124,108.078,97.396,108.078z"/>
		<g>
			<defs>
				<path id="SVGID_77_" d="M152.484,153.084c0,2.707,2.194,4.9,4.9,4.9l0,0c2.706,0,4.901-2.193,4.901-4.9v-29.307
					c0-2.707-2.195-4.902-4.901-4.902l0,0c-2.706,0-4.9,2.195-4.9,4.902V153.084z"/>
			</defs>
			<clipPath id="SVGID_5_">
				<use xlink:href="#SVGID_77_"  overflow="visible"/>
			</clipPath>
			<path clip-path="url(#SVGID_5_)" fill="#EECC70" d="M152.484,153.084c0,2.707,2.194,4.9,4.9,4.9l0,0
				c2.706,0,4.901-2.193,4.901-4.9v-29.307c0-2.707-2.195-4.902-4.901-4.902l0,0c-2.706,0-4.9,2.195-4.9,4.902V153.084z"/>
			<polygon clip-path="url(#SVGID_5_)" fill="#FADF8D" points="163.552,117.709 163.552,159.523 151.342,108.078 			"/>
			<polygon clip-path="url(#SVGID_5_)" fill="#EECC70" points="163.552,159.523 152.579,163.76 151.342,108.078 			"/>
		</g>
		<polygon fill="#FADF8D" points="130.956,108.078 145.119,108.078 130.956,129.674 116.793,108.078 		"/>
		<g>
			<defs>
				<path id="SVGID_79_" d="M109.428,153.084c0,2.707-2.194,4.9-4.9,4.9l0,0c-2.706,0-4.901-2.193-4.901-4.9v-29.307
					c0-2.707,2.195-4.902,4.901-4.902l0,0c2.706,0,4.9,2.195,4.9,4.902V153.084z"/>
			</defs>
			<clipPath id="SVGID_6_">
				<use xlink:href="#SVGID_79_"  overflow="visible"/>
			</clipPath>
			<path clip-path="url(#SVGID_6_)" fill="#EECC70" d="M109.428,153.084c0,2.707-2.194,4.9-4.9,4.9l0,0
				c-2.706,0-4.901-2.193-4.901-4.9v-29.307c0-2.707,2.195-4.902,4.901-4.902l0,0c2.706,0,4.9,2.195,4.9,4.902V153.084z"/>
			<polygon clip-path="url(#SVGID_6_)" fill="#FADF8D" points="98.36,117.709 98.36,159.523 110.57,108.078 			"/>
			<polygon clip-path="url(#SVGID_6_)" fill="#EECC70" points="98.36,159.523 109.333,163.76 110.57,108.078 			"/>
		</g>
		<g>
			<path fill="#E4E4D8" d="M219.145,246.613c17.936,0,56.621,19.549,58.503,72.164c1.881,52.613-26.426,98.469-26.426,98.469
				l-2.828,5.771l-19.798-9.697l2.828-5.771c0,0,27.319-44.438,29.207-82.281c1.889-37.842-30.327-53.5-41.486-53.5h-9.157v-25.154
				H219.145z"/>
			<path fill="#DEDCCE" d="M248.874,422.039l-19.798-9.699c0,0-11.235,22.934-14.508,29.617c-1.636,3.34-0.71,4.904,0.898,5.715
				c1.609,0.814,3.001,0.438,4.676-2.984c3.524-6.947,6.714-13.07,6.714-13.07l1.5,0.729c0,0-6.454,12.979-8.258,16.662
				c-2.338,4.771,3.747,8.346,6.163,3.414c0.745-1.523,8.32-16.984,8.32-16.984l1.35,0.705c0,0-4.276,9.104-6.206,13.041
				c-0.985,2.012-0.544,3.424,0.911,4.07c1.399,0.625,2.88,0.131,3.807-1.758C236.683,446.922,248.874,422.039,248.874,422.039z"/>
			<polyline fill="#454546" points="246.526,426.83 251.222,417.246 231.424,407.549 226.729,417.131 			"/>
			<path fill="#C6C5B5" d="M194.001,260.357c0.522,9.527,8.664,16.824,18.188,16.305c9.525-0.52,16.825-8.66,16.303-18.188
				c-0.52-9.523-8.664-16.824-18.187-16.303C200.781,242.691,193.48,250.836,194.001,260.357z"/>
			<path fill="#454546" d="M200.738,260.152c0.32,5.852,5.321,10.332,11.17,10.012c5.851-0.318,10.334-5.32,10.013-11.17
				c-0.319-5.848-5.321-10.328-11.171-10.012C204.903,249.305,200.42,254.305,200.738,260.152z"/>
		</g>
		<g>
			<defs>
				<path id="SVGID_81_" d="M214.947,227.18c0,104.656-37.519,189.686-83.991,189.686S46.965,331.836,46.965,227.18H214.947z"/>
			</defs>
			<clipPath id="SVGID_7_">
				<use xlink:href="#SVGID_81_"  overflow="visible"/>
			</clipPath>
			<path clip-path="url(#SVGID_7_)" fill="#DDDDCE" d="M214.947,227.18c0,104.656-37.519,189.686-83.991,189.686
				S46.965,331.836,46.965,227.18H214.947z"/>
			<polygon clip-path="url(#SVGID_7_)" fill="#DDDDCE" points="183.101,284.178 179.485,352.723 130.956,262.65 			"/>
			<polygon clip-path="url(#SVGID_7_)" fill="#D1D1C4" points="214.88,239.021 204.467,316.209 220.745,385.869 179.485,352.723 
				183.101,284.178 			"/>
			<polygon clip-path="url(#SVGID_7_)" fill="#C6C5B5" points="179.485,352.723 220.745,385.869 130.956,431 			"/>
			<polygon clip-path="url(#SVGID_7_)" fill="#DDDDCE" points="78.812,284.178 82.427,352.723 130.956,262.65 			"/>
			<polygon clip-path="url(#SVGID_7_)" fill="#D1D1C4" points="47.032,239.021 24.89,316.209 41.167,385.869 82.427,352.723 
				78.812,284.178 			"/>
			<polygon clip-path="url(#SVGID_7_)" fill="#C6C5B5" points="82.427,352.723 41.167,385.869 130.956,431 			"/>
			<polygon clip-path="url(#SVGID_7_)" fill="#E5E5D8" points="130.956,239.021 214.88,239.021 183.101,284.178 130.956,262.65 
				78.812,284.178 47.032,239.021 			"/>
			<polygon clip-path="url(#SVGID_7_)" fill="#FADF8D" points="130.956,262.65 179.485,352.723 130.956,352.723 82.427,352.723 			
				"/>
		</g>
		<polygon fill="#DDDDCE" points="130.956,352.723 179.485,352.723 130.956,431 82.427,352.723 		"/>
		<polygon fill="#E39C27" points="96.448,431 105.927,431 118.136,431 130.956,431 143.776,431 155.985,431 165.464,431 
			155.985,472.23 148.886,448.254 130.956,491.832 113.026,448.254 105.927,472.23 		"/>
		<g>
			<polygon fill="#E39C27" points="155.985,431 130.956,491.832 130.956,431 			"/>
			<polygon fill="#E39C27" points="165.464,431 155.985,472.23 155.985,431 			"/>
			<polygon fill="#EBB246" points="155.985,431 155.985,472.23 143.776,431 			"/>
			<polygon fill="#EBB246" points="105.927,431 130.956,491.832 130.956,431 			"/>
			<polygon fill="#EBB246" points="96.448,431 105.927,472.23 105.927,431 			"/>
			<polygon fill="#E39C27" points="105.927,431 105.927,472.23 118.136,431 			"/>
		</g>
		<polygon fill="#454545" points="110.829,398.537 96.448,431 130.956,431 		"/>
		<polygon fill="#222222" points="110.829,398.537 96.448,431 110.829,431 		"/>
		<polygon fill="#454545" points="151.083,398.537 165.464,431 130.956,431 		"/>
		<polygon fill="#222222" points="151.083,398.537 165.464,431 151.083,431 		"/>
		<g>
			<polygon fill="#454545" points="130.956,208.271 212.831,208.271 212.831,215.277 130.956,215.277 49.081,215.277 
				49.081,208.271 			"/>
		</g>
		<g>
			<polygon fill="#454545" points="130.956,227.111 215.505,227.111 215.505,239.021 130.956,239.021 46.407,239.021 
				46.407,227.111 			"/>
		</g>
		<g>
			<polygon fill="#454545" points="130.956,426.816 166.334,426.816 166.334,435.457 130.956,435.457 95.578,435.457 
				95.578,426.816 			"/>
		</g>
		<g>
			<path fill="#E5E5D8" d="M110.162,20.281c0,0,23.713,20.66,25.043,37.988c-10.064,8.33-10.064,8.33-24.552,8.043
				c20.815-8.711-10.599-45.428-10.599-45.428L110.162,20.281z"/>
			<circle fill="#E5E5D8" cx="104.822" cy="15.844" r="12.623"/>
			<circle fill="#454545" cx="104.822" cy="15.844" r="6.945"/>
		</g>
	</g>
	<g>
		<path fill="#C4C4C3" d="M217.562,436.516l-5.375-5.334c-1.98-1.965-1.731-4.275-0.194-5.928c1.597-1.719,4.199-2.32,6.307-0.23
			c4.126,4.096,5.508,5.127,5.508,5.127c2.286,2.268,1.791,4.916,0.194,6.473C222.402,438.178,219.697,438.635,217.562,436.516z"/>
		<path fill="#C4C4C3" d="M210.36,443.764c-2.489-2.471-2.629-2.609-4.102-4.072c-1.98-1.965-1.569-4.439-0.034-6.092
			c1.6-1.719,4.188-2.283,6.296-0.191c2.347,2.33,3.983,3.953,3.983,3.953c2.33,2.312,1.865,4.977,0.284,6.531
			C215.206,445.445,212.504,445.891,210.36,443.764z"/>
		<path fill="#C4C4C3" d="M236.879,409.969c-2.244-2.229-0.53-0.529-2.426-2.408c-3.502-3.477-6.361-2.959-8.251-1.098
			c-1.89,1.863-2.795,4.857,0.792,8.416c2.251,2.234,2.556,2.535,2.556,2.535c2.784,2.764,6.06,2.336,7.919,0.5
			C239.327,416.078,239.767,412.834,236.879,409.969z"/>
		<path fill="#C4C4C3" d="M231.149,421.193c0,0-2.159-2.32-6.018-6.15c-5.003-4.967-12.802,1.889-7.631,7.02
			c1.595,1.584,6.403,6.357,6.403,6.357c2.49,2.469,5.425,1.781,7.176-0.086C232.832,426.467,233.398,423.424,231.149,421.193z"/>
	</g>
</g>
<g id="Layer_2">
</g>
</svg>
