<?xml version="1.0" encoding="utf-8"?>
<!-- Generator: Adobe Illustrator 16.0.0, SVG Export Plug-In . SVG Version: 6.00 Build 0)  -->
<!DOCTYPE svg PUBLIC "-//W3C//DTD SVG 1.1//EN" "http://www.w3.org/Graphics/SVG/1.1/DTD/svg11.dtd">
<svg version="1.1" xmlns="http://www.w3.org/2000/svg" xmlns:xlink="http://www.w3.org/1999/xlink" x="0px" y="0px" width="256px"
	 height="256px" viewBox="0 0 256 256" enable-background="new 0 0 256 256" xml:space="preserve">
<g id="Layer_1">
	<g>
		<path fill="#EEEEEE" d="M242.22,185.829c0-18.42-14.886-33.356-33.287-33.44c-5.33-21.451-12.422-40.542-20.863-55.75
			c-0.137-0.25-0.278-0.491-0.418-0.738c-16.086-28.637-36.8-46.115-59.637-46.115c-0.518,0-1.033,0.019-1.549,0.037
			c-5.181-8.004-11.801-15.139-16.192-19.498c2.242-2.543,3.613-5.873,3.613-9.529c0-7.973-6.464-14.439-14.437-14.439
			c-7.973,0-14.437,6.466-14.437,14.439c0,7.971,6.464,14.434,14.437,14.434c0.389,0,0.77-0.028,1.151-0.058
			c3.486,4.925,7.607,11.403,10.407,17.922C94.921,59.427,80.365,74.563,68.379,95.9c-0.14,0.247-0.281,0.488-0.418,0.738
			c-8.441,15.208-15.534,34.3-20.863,55.75c-18.401,0.084-33.287,15.02-33.287,33.44c0,14.935,9.789,27.578,23.302,31.873
			c-0.519,7.732-0.82,15.559-0.897,23.431h-1.838v8.011h93.638h93.639v-8.011h-1.839c-0.077-7.873-0.378-15.699-0.897-23.431
			C232.431,213.407,242.22,200.764,242.22,185.829z M166.398,191.584h-38.382H89.633c-16.322,0-29.557-14.56-29.557-32.518
			c0-17.963,13.235-32.523,29.557-32.523h22.185l16.198,24.697l16.198-24.697h22.184c16.322,0,29.557,14.56,29.557,32.523
			C195.955,177.024,182.72,191.584,166.398,191.584z"/>
		<path fill="#EEEEEE" d="M97.79,138.892c-3.096,0-5.605,2.509-5.605,5.605v33.518c0,3.096,2.509,5.604,5.605,5.604
			c3.095,0,5.604-2.509,5.604-5.604v-33.518C103.395,141.401,100.885,138.892,97.79,138.892z"/>
		<path fill="#EEEEEE" d="M158.242,138.892c-3.096,0-5.605,2.509-5.605,5.605v33.518c0,3.096,2.509,5.604,5.605,5.604
			c3.095,0,5.604-2.509,5.604-5.604v-33.518C163.847,141.401,161.337,138.892,158.242,138.892z"/>
	</g>
</g>
<g id="Layer_2">
</g>
</svg>
