<?xml version="1.0" encoding="utf-8"?>
<!-- Generator: Adobe Illustrator 16.0.0, SVG Export Plug-In . SVG Version: 6.00 Build 0)  -->
<!DOCTYPE svg PUBLIC "-//W3C//DTD SVG 1.1//EN" "http://www.w3.org/Graphics/SVG/1.1/DTD/svg11.dtd">
<svg version="1.1" id="Layer_1" xmlns="http://www.w3.org/2000/svg" xmlns:xlink="http://www.w3.org/1999/xlink" x="0px" y="0px"
	 width="256px" height="256px" viewBox="0 0 256 256" enable-background="new 0 0 256 256" xml:space="preserve">
<g>
	<path fill="#EEEEEE" d="M213.16,151.442c-0.736,0-1.464,0.031-2.188,0.078c-0.112,0.009-0.223,0.019-0.335,0.027
		c-0.703,0.051-1.4,0.125-2.091,0.22c-0.001,0-0.003,0.001-0.004,0.001c-5.294-21.072-12.296-39.835-20.611-54.817
		c-0.136-0.249-0.278-0.49-0.417-0.735C171.461,67.639,150.789,50.195,128,50.195c-0.517,0-1.031,0.019-1.546,0.037
		c-5.17-7.988-11.776-15.108-16.159-19.457c2.238-2.539,3.606-5.86,3.606-9.51c0-7.957-6.451-14.409-14.407-14.409
		s-14.407,6.452-14.407,14.409c0,7.953,6.451,14.404,14.407,14.404c0.388,0,0.769-0.028,1.149-0.058
		c3.479,4.914,7.591,11.379,10.385,17.885c-16.054,6.32-30.581,21.426-42.542,42.719c-0.139,0.245-0.281,0.486-0.417,0.735
		c-8.315,14.982-15.316,33.745-20.611,54.817c-0.001,0-0.003-0.001-0.004-0.001c-0.69-0.095-1.388-0.169-2.091-0.22
		c-0.112-0.009-0.223-0.019-0.335-0.027c-0.724-0.047-1.453-0.078-2.188-0.078c-18.436,0-33.374,14.94-33.374,33.375
		c0,0.549,0.015,1.094,0.041,1.635c0.009,0.18,0.025,0.357,0.037,0.535c0.023,0.362,0.047,0.723,0.082,1.08
		c0.021,0.212,0.047,0.422,0.072,0.631c0.038,0.322,0.076,0.645,0.123,0.963c0.032,0.224,0.069,0.442,0.105,0.663
		c0.05,0.305,0.104,0.607,0.162,0.908c0.044,0.226,0.09,0.448,0.139,0.673c0.063,0.293,0.131,0.585,0.202,0.875
		c0.055,0.224,0.111,0.447,0.17,0.67c0.076,0.285,0.158,0.568,0.241,0.85c0.065,0.221,0.13,0.442,0.2,0.661
		c0.09,0.283,0.187,0.563,0.285,0.842c0.074,0.212,0.145,0.426,0.223,0.635c0.108,0.29,0.225,0.576,0.34,0.863
		c0.079,0.193,0.152,0.39,0.234,0.582c0.166,0.39,0.342,0.773,0.521,1.154c0.131,0.277,0.27,0.551,0.408,0.825
		c0.125,0.246,0.247,0.494,0.378,0.737c0.127,0.236,0.262,0.467,0.395,0.7c0.118,0.207,0.234,0.416,0.356,0.621
		c0.144,0.239,0.294,0.476,0.444,0.712c0.12,0.189,0.239,0.379,0.363,0.566c0.159,0.24,0.324,0.479,0.489,0.715
		c0.121,0.174,0.243,0.347,0.368,0.519c0.176,0.242,0.355,0.48,0.537,0.717c0.121,0.156,0.243,0.313,0.366,0.466
		c0.194,0.243,0.391,0.486,0.592,0.725c0.114,0.134,0.231,0.267,0.347,0.398c0.218,0.25,0.437,0.5,0.663,0.743
		c0.094,0.101,0.19,0.199,0.285,0.298c0.255,0.271,0.511,0.538,0.775,0.797c0.018,0.019,0.037,0.035,0.056,0.053
		c1.323,1.3,2.756,2.488,4.28,3.554c0.042,0.028,0.082,0.058,0.123,0.087c0.344,0.238,0.694,0.468,1.047,0.693
		c0.065,0.041,0.13,0.083,0.195,0.124c0.349,0.219,0.701,0.431,1.057,0.636c0.07,0.041,0.141,0.082,0.211,0.121
		c0.362,0.207,0.729,0.405,1.099,0.599c0.061,0.031,0.121,0.062,0.181,0.092c0.387,0.198,0.777,0.39,1.171,0.573
		c0.032,0.016,0.064,0.028,0.096,0.043c2.623,1.205,5.427,2.08,8.363,2.571c0.001,0.001,0.002,0.001,0.002,0.001
		c-0.52,7.729-0.821,15.555-0.899,23.426H32.7v7.995H128h94.729v-7.995h-3.118c-0.078-7.871-0.379-15.696-0.899-23.426
		c0,0,0.002,0,0.002-0.001c2.936-0.491,5.74-1.366,8.363-2.571c0.032-0.015,0.064-0.027,0.096-0.043
		c0.395-0.184,0.785-0.375,1.171-0.573c0.06-0.03,0.12-0.061,0.181-0.092c0.37-0.193,0.736-0.392,1.099-0.599
		c0.07-0.039,0.141-0.08,0.211-0.121c0.356-0.205,0.708-0.417,1.057-0.636c0.065-0.041,0.13-0.083,0.195-0.124
		c0.353-0.226,0.703-0.455,1.047-0.693c0.041-0.029,0.081-0.059,0.123-0.087c1.524-1.065,2.958-2.254,4.28-3.554
		c0.019-0.018,0.038-0.034,0.056-0.053c0.264-0.259,0.52-0.526,0.775-0.797c0.095-0.099,0.191-0.197,0.285-0.298
		c0.226-0.243,0.445-0.493,0.663-0.743c0.116-0.132,0.232-0.265,0.347-0.398c0.201-0.238,0.398-0.481,0.592-0.725
		c0.123-0.153,0.245-0.31,0.366-0.466c0.182-0.236,0.361-0.475,0.537-0.717c0.125-0.172,0.247-0.345,0.368-0.519
		c0.166-0.236,0.33-0.475,0.489-0.715c0.124-0.188,0.243-0.377,0.363-0.566c0.15-0.236,0.3-0.473,0.444-0.712
		c0.122-0.205,0.238-0.414,0.356-0.621c0.133-0.233,0.268-0.464,0.395-0.7c0.131-0.243,0.253-0.491,0.378-0.737
		c0.138-0.274,0.276-0.548,0.408-0.825c0.18-0.381,0.355-0.765,0.521-1.154c0.082-0.192,0.155-0.389,0.234-0.582
		c0.115-0.287,0.232-0.573,0.34-0.863c0.078-0.209,0.149-0.423,0.223-0.635c0.098-0.278,0.194-0.559,0.285-0.842
		c0.07-0.219,0.134-0.44,0.2-0.661c0.083-0.281,0.166-0.564,0.241-0.85c0.06-0.223,0.115-0.446,0.17-0.67
		c0.071-0.29,0.138-0.582,0.202-0.875c0.049-0.225,0.095-0.447,0.139-0.673c0.058-0.301,0.112-0.604,0.162-0.908
		c0.037-0.221,0.073-0.439,0.105-0.663c0.047-0.318,0.085-0.641,0.123-0.963c0.024-0.209,0.051-0.419,0.072-0.631
		c0.035-0.357,0.059-0.718,0.082-1.08c0.012-0.178,0.028-0.355,0.037-0.535c0.026-0.541,0.041-1.086,0.041-1.635
		C246.534,166.383,231.596,151.442,213.16,151.442z M166.303,191.703H128H89.697c-16.289,0-29.496-14.53-29.496-32.451
		c0-17.926,13.208-32.457,29.496-32.457h22.139L128,151.442l16.165-24.647h22.139c16.289,0,29.496,14.531,29.496,32.457
		C195.799,177.173,182.592,191.703,166.303,191.703z"/>
	<path fill="#EEEEEE" d="M97.836,139.118c-3.089,0-5.593,2.505-5.593,5.595v33.448c0,3.09,2.504,5.593,5.593,5.593
		c3.088,0,5.593-2.503,5.593-5.593v-33.448C103.429,141.623,100.925,139.118,97.836,139.118z"/>
	<path fill="#EEEEEE" d="M158.164,139.118c-3.088,0-5.593,2.505-5.593,5.595v33.448c0,3.09,2.504,5.593,5.593,5.593
		c3.089,0,5.593-2.503,5.593-5.593v-33.448C163.757,141.623,161.252,139.118,158.164,139.118z"/>
</g>
</svg>
