<?xml version="1.0" encoding="utf-8"?>
<!-- Generator: Adobe Illustrator 16.0.0, SVG Export Plug-In . SVG Version: 6.00 Build 0)  -->
<!DOCTYPE svg PUBLIC "-//W3C//DTD SVG 1.1//EN" "http://www.w3.org/Graphics/SVG/1.1/DTD/svg11.dtd">
<svg version="1.1" xmlns="http://www.w3.org/2000/svg" xmlns:xlink="http://www.w3.org/1999/xlink" x="0px" y="0px" width="512px"
	 height="512px" viewBox="0 0 512 512" enable-background="new 0 0 512 512" xml:space="preserve">
<g id="Layer_1">
	<g>
		<polygon fill="#C4C4C3" points="313.5,119.072 256,119.072 198.5,119.072 191,125.051 191.613,279.115 198.5,284.616 256,284.616 
			313.5,284.616 320.387,279.115 321,125.051 		"/>
		<path fill="#8E8E8E" d="M203.823,111.625c8.308-7.626,17.143-15.737,20.591-18.927c3.623-3.351,3.229-6.229,1.45-8.197
			s-4.73-3.001-8.441,0.431c-5.756,5.323-16.377,15.151-16.377,15.151l-1.061-1.136c0,0,1.758-1.711,5.75-5.403
			c5.174-4.785-1.342-12.87-6.689-7.924c-1.65,1.524-7.432,6.944-7.432,6.944l-0.844-0.986c0,0,0.578-0.937,4.847-4.885
			c2.179-2.016,1.69-4.641,0.042-6.311c-1.584-1.605-3.883-1.954-5.932-0.059l-6.976,6.557l-0.876-1.023
			c0,0,0.875-0.915,5.146-4.863c2.178-2.016,1.574-4.487-0.074-6.158c-1.584-1.605-4.04-2.122-6.087-0.229
			c-3.3,3.051-13.146,12.156-19.056,17.623c-2.978,2.753-4.605,4.258-4.605,4.258l28.971,31.326c0,0,1.543-1.451,4.604-4.259
			c1.108-1.016,4.851,0.208,8.817,0.874c3.965,0.666,6.885,3.549,8.133,6.229c1.247,2.68,5.189,0.312,4.117-4.566
			c-1.072-4.879-3.647-7.754-7.444-8.719C201.155,116.549,198.044,116.93,203.823,111.625z"/>
		<path fill="#EEEEEE" d="M357.383,179.103c0-19.392-17.474-29.643-33.998-35.001c-14.824-4.807-28.885-5.677-28.885-5.677
			s4-1.188,3.75-7.562s-4-4.875-4-4.875s3.104-5.042,4.438-9.875s2.74-3.625,2.74-3.625s2.572,1.124,5.238-6.044
			c1.848-4.964,1.5-12.5,0.668-17.5c-0.834-5-3.834-4.832-3.834-4.832l-0.5-1.668c0,0,1.166-1.486,1.166-2.5
			c0-13.206-13.5-35.75-48.166-35.75s-48.166,22.544-48.166,35.75c0,1.014,1.166,2.5,1.166,2.5l-0.5,1.668c0,0-3-0.168-3.834,4.832
			c-0.832,5-1.18,12.536,0.668,17.5c2.666,7.168,5.238,6.044,5.238,6.044s1.406-1.208,2.74,3.625s4.438,9.875,4.438,9.875
			s-3.75-1.5-4,4.875s3.75,7.562,3.75,7.562s-14.061,0.87-28.885,5.677c-16.524,5.358-33.998,15.609-33.998,35.001l33.999,7.714
			l7.884,0.286l-0.051,99.764c0,0,5.051,21.477,31.26,22.766c3.953,0.194,11.594,9.403,18.291,12.772s10,3,10,3s3.303,0.369,10-3
			s14.338-12.578,18.291-12.772c26.209-1.289,31.26-22.766,31.26-22.766l-0.051-99.764l7.884-0.286L357.383,179.103z"/>
		<g>
			<path fill="#EEEEEE" d="M251,426.902h-54.551v6.27c0,0-8.873,16.729-9.873,27.459c-1,10.732-0.873,20.361,14.5,20.5
				c21.99,0.197,49.924-39.5,49.924-39.5v-8.459V426.902z"/>
			<path fill="#EEEEEE" d="M251,286.866c0,64.821,0,53.737,0,82.759s0,22.346,0,57.277h-54.551c0-36.404,0-28.299,0-57.277
				s0-13.936,0-82.759H251z"/>
			<rect x="196.449" y="420.631" fill="#454545" width="54.551" height="12.541"/>
			<polygon fill="#E0E0E0" points="251,420.631 196.449,384.811 251,367.749 			"/>
			<polygon fill="#E0E0E0" points="251,367.749 251,324.973 196.449,384.811 			"/>
		</g>
		<g>
			<path fill="#EEEEEE" d="M261,426.902h54.551v6.27c0,0,8.873,16.729,9.873,27.459c1,10.732,0.873,20.361-14.5,20.5
				c-21.99,0.197-49.924-39.5-49.924-39.5v-8.459V426.902z"/>
			<path fill="#EEEEEE" d="M261,286.866c0,64.821,0,53.737,0,82.759s0,22.346,0,57.277h54.551c0-36.404,0-28.299,0-57.277
				s0-13.936,0-82.759H261z"/>
			<rect x="261" y="420.631" fill="#454545" width="54.551" height="12.541"/>
			<polygon fill="#E0E0E0" points="261,420.631 315.551,384.811 261,367.749 			"/>
			<polygon fill="#E0E0E0" points="261,367.749 261,324.973 315.551,384.811 			"/>
		</g>
		<g>
			<path fill="#EEEEEE" d="M316.328,187.104c10.166,0,10.908,13.887,10.908,26.393c0,12.504-2.941,20.941-27.641,45.642l30.17,30.17
				c25.74-25.741,40.332-48.913,40.332-77.892c0-34.637-14.77-66.98-58.77-66.98L316.328,187.104z"/>
			<path fill="#C4C4C3" d="M289.027,315.6c-1.973,1.973-4.283,1.714-5.928,0.172c-1.715-1.604-2.307-4.21-0.207-6.309
				c4.111-4.111,16.695-17.038,16.695-17.038l-0.881-0.953c0,0-16.146,16.147-17.734,17.735c-5.152,5.151-11.979-2.674-6.994-7.658
				c3.846-3.844,17.531-17.35,17.531-17.35l-1.105-1.094c0,0-6.652,6.297-14.068,13.491c-3.572,3.573-6.373,3.044-8.229,1.146
				s-2.359-4.757,1.129-8.247c6.979-6.978,30.359-30.358,30.359-30.358l30.17,30.17c0,0-25.416,25.416-30.193,30.192
				c-1.973,1.974-4.445,1.553-6.09,0.012c-1.715-1.605-2.109-4.014-0.01-6.111c4.111-4.112,13.375-13.717,13.375-13.717
				l-0.916-0.988L289.027,315.6z"/>
			
				<rect x="293.347" y="267.951" transform="matrix(-0.7071 -0.7071 0.7071 -0.7071 343.2982 690.6379)" fill="#454545" width="42.669" height="12.54"/>
		</g>
		<g>
			<polygon fill="#C4C4C3" points="256,164.737 221,164.737 221,209.07 256,209.07 291,209.07 291,164.737 			"/>
			<polygon fill="#DEDDDD" points="256,209.07 221,209.07 256,272.07 291,209.07 			"/>
			<polygon fill="#EEEEEE" points="256,168.07 223.966,168.07 223.966,200.737 256,200.737 288.034,200.737 288.034,168.07 			"/>
			<polygon fill="#FFFFFF" points="231.541,194.403 241.346,184.404 241.346,194.403 			"/>
			<polygon fill="#FFFFFF" points="241.346,184.404 231.541,194.403 231.541,184.404 			"/>
			<polygon fill="#FFFFFF" points="241.346,171.779 231.541,181.778 231.541,171.779 			"/>
			<polygon fill="#FFFFFF" points="231.541,181.778 241.346,171.779 241.346,181.778 			"/>
			<polygon fill="#B2B3B3" points="221,209.07 223.966,200.737 256,209.07 			"/>
			<polygon fill="#FFFFFF" points="280.459,194.403 270.654,184.404 270.654,194.403 			"/>
			<polygon fill="#FFFFFF" points="270.654,184.404 280.459,194.403 280.459,184.404 			"/>
			<polygon fill="#B2B3B3" points="291,209.07 288.034,200.737 256,209.07 			"/>
			<polygon fill="#A09F9F" points="256,200.737 223.966,200.737 256,209.07 288.034,200.737 			"/>
			<g>
				<polygon fill="#A09F9F" points="315.551,139.124 306.691,248.904 291,209.07 				"/>
				<polygon fill="#B2B3B3" points="304.5,137.193 291,209.07 315.551,139.124 				"/>
				<polygon fill="#8E8E8E" points="256,272.07 306.691,248.904 291,209.07 				"/>
				<polygon fill="#A09F9F" points="256,272.07 194.449,301.707 194.449,331.343 				"/>
			</g>
		</g>
		<path fill="#454545" d="M256,137.188c-33.916,0-38.496-2.7-42.246-5.117c0.58,10.25,11.08,10.245,42.246,10.245
			s41.666,0.005,42.246-10.245C294.496,134.487,289.916,137.188,256,137.188z"/>
		<path fill="#FFFFFF" d="M256,49.818c-57,0-42,62.169-34.421,76.818c0,0,10.255,3.975,34.421,3.975s34.421-3.975,34.421-3.975
			C298,111.987,313,49.818,256,49.818z"/>
		<g>
			<defs>
				<path id="SVGID_75_" d="M256,53.068c-50.75,0-39.25,57.919-34.75,64.169s34.75,6.125,34.75,6.125s30.25,0.125,34.75-6.125
					S306.75,53.068,256,53.068z"/>
			</defs>
			<clipPath id="SVGID_1_">
				<use xlink:href="#SVGID_75_"  overflow="visible"/>
			</clipPath>
			<path clip-path="url(#SVGID_1_)" fill="#222222" d="M256,53.068c-50.75,0-39.25,57.919-34.75,64.169s34.75,6.125,34.75,6.125
				s30.25,0.125,34.75-6.125S306.75,53.068,256,53.068z"/>
			<polygon clip-path="url(#SVGID_1_)" fill="#282828" points="196.667,79.57 256,70.728 209,137.193 			"/>
			<polygon clip-path="url(#SVGID_1_)" fill="#222222" points="256,70.728 209,137.193 256,139.57 303,137.193 			"/>
			<polygon clip-path="url(#SVGID_1_)" fill="#303030" points="256,32.237 196.667,79.57 256,70.728 315.333,79.57 			"/>
			<polygon clip-path="url(#SVGID_1_)" fill="#282828" points="315.333,79.57 256,70.728 303,137.193 			"/>
		</g>
		<g>
			<path fill="#EEEEEE" d="M188.616,144.149c-9.614,0-33.382-0.257-24.847-5.025c5.916-3.306,14.826-5.139,17.799-7.054
				s2.181-1.964,4.603-4.256L157.2,96.488c-1.912,1.879-2.894,2.833-4.602,4.258c-9.238,7.705-14.629,10.286-23.246,19.906
				c-33.319,37.197,14.596,66.164,59.264,66.164V144.149z"/>
			
				<rect x="150.354" y="105.88" transform="matrix(0.679 0.7342 -0.7342 0.679 137.4519 -90.0428)" fill="#454545" width="42.667" height="12.541"/>
			<path fill="#C4C4C3" d="M182.31,87.184l5.56-5.141c2.049-1.896,4.348-1.547,5.931,0.058c1.649,1.671,2.139,4.297-0.041,6.312
				c-4.268,3.947-5.355,5.284-5.355,5.284c-2.365,2.186-4.99,1.579-6.475-0.084C180.442,91.948,180.102,89.226,182.31,87.184z"/>
			<path fill="#C4C4C3" d="M175.379,79.679c2.573-2.382,2.718-2.516,4.243-3.925c2.048-1.895,4.503-1.378,6.087,0.228
				c1.65,1.671,2.103,4.282-0.077,6.297c-2.429,2.246-4.121,3.811-4.121,3.811c-2.409,2.229-5.053,1.651-6.537,0.005
				S173.161,81.729,175.379,79.679z"/>
			<path fill="#C4C4C3" d="M197.038,101.414c0,0,2.411-2.057,6.403-5.749c5.174-4.785-1.341-12.87-6.689-7.924
				c-1.649,1.525-6.623,6.126-6.623,6.126c-2.576,2.381-2.012,5.343-0.224,7.173C191.695,102.87,194.71,103.566,197.038,101.414z"/>
		</g>
	</g>
</g>
<g id="Layer_2">
</g>
</svg>
