<?xml version="1.0" encoding="utf-8"?>
<!-- Generator: Adobe Illustrator 16.0.0, SVG Export Plug-In . SVG Version: 6.00 Build 0)  -->
<!DOCTYPE svg PUBLIC "-//W3C//DTD SVG 1.1//EN" "http://www.w3.org/Graphics/SVG/1.1/DTD/svg11.dtd">
<svg version="1.1" xmlns="http://www.w3.org/2000/svg" xmlns:xlink="http://www.w3.org/1999/xlink" x="0px" y="0px" width="512px"
	 height="512px" viewBox="0 0 512 512" enable-background="new 0 0 512 512" xml:space="preserve">
<g id="Layer_1">
	<rect x="0" y="-1595" display="none" fill="#071C2C" width="512" height="2661"/>
	<g>
		<polygon fill="#C4C4C3" points="313.5,119.072 256,119.072 198.5,119.072 191,125.051 191.614,279.115 198.5,284.616 256,284.616 
			313.5,284.616 320.387,279.115 321,125.051 		"/>
		<g>
			<path fill="#EEEEEE" d="M324.751,145.451c17.572,3.902,28.321-12.742,32.368-30.965c3.619-16.292-0.554,2.496,7.02-31.604
				l41.653,9.251c-7.894,35.538-2.968,13.36-7.02,31.604c-10.696,48.161-39.667,73.05-83.272,63.365L324.751,145.451z"/>
			<path fill="#8E8E8E" d="M403.375,55.892c0.605-2.724-0.854-4.535-3.038-5.095c-2.273-0.583-4.788,0.317-5.431,3.213
				c-1.262,5.678-2.689,10.992-2.689,10.992l-1.277-0.23c0,0,2.681-12.069,3.167-14.262c1.58-7.112-8.687-8.669-10.215-1.788
				c-1.179,5.308-2.952,13.881-2.952,13.881l-1.517-0.344c0,0,0.976-4.394,2.676-12.05c1.096-4.932-1.282-6.961-3.88-7.508
				c-2.596-0.547-5.281,0.563-6.351,5.38c-2.14,9.635-7.729,34.801-7.729,34.801l41.653,9.251c0,0,5.522-24.865,6.987-31.46
				c0.604-2.723-1.079-4.584-3.264-5.144c-2.273-0.584-4.713,0.141-5.356,3.037c-1.261,5.678-1.923,8.661-1.923,8.661l-1.325-0.241
				L403.375,55.892z"/>
			
				<rect x="363.631" y="81.237" transform="matrix(-0.9762 -0.2168 0.2168 -0.9762 741.8011 256.3981)" fill="#454545" width="42.668" height="12.54"/>
			<path fill="#C4C4C3" d="M401.185,65.754l1.642-7.392c0.605-2.724-0.854-4.535-3.038-5.095c-2.273-0.583-4.788,0.317-5.431,3.214
				c-1.262,5.677-1.867,7.29-1.867,7.29c-0.698,3.142,1.148,5.105,3.332,5.551C398.009,69.768,400.532,68.691,401.185,65.754z"/>
			<path fill="#C4C4C3" d="M411.159,67.964c0.761-3.425,0.804-3.617,1.254-5.644c0.604-2.723-1.078-4.584-3.264-5.144
				c-2.272-0.584-4.757,0.341-5.4,3.237c-0.717,3.229-1.217,5.479-1.217,5.479c-0.712,3.205,1.119,5.196,3.289,5.65
				C407.991,71.997,410.505,70.912,411.159,67.964z"/>
			<path fill="#C4C4C3" d="M370.587,53.847c0.686-3.087,0.163-0.729,0.741-3.335c1.07-4.817,3.755-5.927,6.351-5.382
				c2.598,0.548,4.976,2.578,3.881,7.511c-0.688,3.096-0.781,3.515-0.781,3.515c-0.851,3.829-3.838,5.239-6.395,4.697
				C371.828,60.312,369.705,57.82,370.587,53.847z"/>
			<path fill="#C4C4C3" d="M381.474,60.198c0,0,0.562-3.118,1.741-8.427c1.528-6.881,11.794-5.323,10.215,1.787
				c-0.487,2.194-1.956,8.809-1.956,8.809c-0.761,3.422-3.603,4.428-6.085,3.805C382.906,65.546,380.786,63.293,381.474,60.198z"/>
		</g>
		<g>
			<polygon fill="#454545" points="382.602,48.943 324.619,39.966 323.87,44.794 321.875,57.684 327.604,58.57 329.6,45.681 
				381.853,53.772 434.106,61.863 432.11,74.754 437.838,75.642 439.834,62.751 440.582,57.923 			"/>
			<polygon fill="#E5E5D8" points="380.194,64.482 296.988,51.598 283.428,139.17 366.633,152.056 449.839,164.939 463.4,77.367 			
				"/>
			<polygon fill="#C6C5B5" points="375.989,91.639 346.852,87.127 337.495,147.543 366.633,152.056 395.771,156.567 405.127,96.15 
							"/>
			<polygon fill="#DDDDCE" points="375.648,93.84 348.687,89.664 339.672,147.88 366.633,152.056 393.595,156.23 402.61,98.014 			
				"/>
			<polygon fill="#454545" points="374.271,102.732 352.617,99.38 348.485,126.062 370.14,129.415 391.794,132.769 395.925,106.087 
							"/>
			<polygon fill="#222222" points="379.232,70.696 335.72,63.959 333.773,76.528 377.286,83.266 420.798,90.004 422.744,77.435 			
				"/>
			
				<rect x="368.799" y="142.09" transform="matrix(0.9882 0.1529 -0.1529 0.9882 26.7434 -55.0907)" fill="#454545" width="5.364" height="8.413"/>
			
				<rect x="376.276" y="143.249" transform="matrix(0.9882 0.1531 -0.1531 0.9882 27.0394 -56.274)" fill="#454545" width="5.365" height="8.412"/>
			
				<rect x="383.862" y="144.422" transform="matrix(0.9882 0.1529 -0.1529 0.9882 27.2773 -57.3668)" fill="#454545" width="5.364" height="8.413"/>
			
				<rect x="386.175" y="75.701" transform="matrix(0.9883 0.1528 -0.1528 0.9883 16.5115 -58.199)" fill="#C6C5B5" width="1.342" height="5.218"/>
			
				<rect x="380.126" y="74.765" transform="matrix(0.9881 0.1535 -0.1535 0.9881 16.3943 -57.5477)" fill="#C6C5B5" width="1.342" height="5.217"/>
			
				<rect x="391.727" y="76.561" transform="matrix(0.9883 0.1528 -0.1528 0.9883 16.7081 -59.0373)" fill="#C6C5B5" width="1.342" height="5.217"/>
			
				<rect x="397.248" y="77.417" transform="matrix(0.9882 0.1534 -0.1534 0.9882 16.9889 -60.1026)" fill="#C6C5B5" width="1.343" height="5.217"/>
			
				<rect x="402.815" y="78.278" transform="matrix(0.9885 0.1515 -0.1515 0.9885 16.9131 -60.1983)" fill="#C6C5B5" width="1.341" height="5.217"/>
			
				<rect x="408.367" y="79.138" transform="matrix(0.9883 0.1528 -0.1528 0.9883 17.2974 -61.55)" fill="#C6C5B5" width="1.342" height="5.217"/>
			
				<rect x="413.89" y="79.978" transform="matrix(0.9881 0.1541 -0.1541 0.9881 17.6795 -62.8882)" fill="#C6C5B5" width="1.141" height="5.217"/>
			<circle fill="#C6C5B5" cx="428.423" cy="123.375" r="23.338"/>
			<circle fill="#454545" cx="428.423" cy="123.374" r="18.797"/>
			<circle fill="#C6C5B5" cx="448.353" cy="87.835" r="8.699"/>
			<circle fill="#454545" cx="448.354" cy="87.836" r="6.358"/>
			<circle fill="#EECC70" cx="428.423" cy="123.375" r="5.796"/>
			
				<rect x="361.072" y="140.894" transform="matrix(-0.9882 -0.1531 0.1531 -0.9882 701.0025 344.1838)" fill="#454545" width="5.364" height="8.412"/>
			
				<rect x="353.595" y="139.736" transform="matrix(-0.9882 -0.1531 0.1531 -0.9882 686.3203 340.7281)" fill="#454545" width="5.365" height="8.412"/>
			
				<rect x="346.009" y="138.562" transform="matrix(-0.9883 -0.1527 0.1527 -0.9883 671.4866 337.1159)" fill="#454545" width="5.365" height="8.412"/>
			
				<rect x="369.002" y="73.042" transform="matrix(-0.9882 -0.1529 0.1529 -0.9882 723.4267 206.9459)" fill="#C6C5B5" width="1.341" height="5.218"/>
			
				<rect x="374.386" y="73.877" transform="matrix(-0.9883 -0.1527 0.1527 -0.9883 734.0348 209.3487)" fill="#C6C5B5" width="1.343" height="5.216"/>
			
				<rect x="363.451" y="72.183" transform="matrix(-0.9881 -0.1536 0.1536 -0.9881 712.4276 204.6389)" fill="#C6C5B5" width="1.341" height="5.217"/>
			
				<rect x="357.927" y="71.328" transform="matrix(-0.9883 -0.1527 0.1527 -0.9883 701.6992 201.7674)" fill="#C6C5B5" width="1.343" height="5.216"/>
			
				<rect x="352.361" y="70.465" transform="matrix(-0.9881 -0.1536 0.1536 -0.9881 690.6434 199.5199)" fill="#C6C5B5" width="1.341" height="5.217"/>
			
				<rect x="346.81" y="69.606" transform="matrix(-0.9882 -0.1529 0.1529 -0.9882 679.8295 196.7204)" fill="#C6C5B5" width="1.341" height="5.217"/>
			
				<rect x="341.488" y="68.766" transform="matrix(-0.9883 -0.1526 0.1526 -0.9883 669.2217 194.1021)" fill="#C6C5B5" width="1.139" height="5.217"/>
			<polygon fill="#EECC70" points="373.72,106.292 356.144,103.57 353.87,118.248 371.447,120.971 389.022,123.693 391.296,109.015 
							"/>
			<circle fill="#C6C5B5" cx="316.412" cy="106.029" r="23.339"/>
			<circle fill="#454545" cx="316.413" cy="106.029" r="18.797"/>
			<circle fill="#C6C5B5" cx="308.165" cy="66.127" r="8.699"/>
			<circle fill="#454545" cx="308.164" cy="66.127" r="6.358"/>
			<circle fill="#EECC70" cx="316.412" cy="106.029" r="5.797"/>
			<polygon fill="#FADF8D" points="353.87,118.248 373.72,106.292 389.022,123.693 			"/>
		</g>
		<path fill="#EEEEEE" d="M357.383,179.103c0-19.392-17.474-29.643-33.998-35.001c-14.824-4.807-28.885-5.677-28.885-5.677
			s4-1.188,3.75-7.562s-4-4.875-4-4.875s3.104-5.042,4.438-9.875s2.74-3.625,2.74-3.625s2.572,1.124,5.238-6.044
			c1.848-4.964,1.5-12.5,0.668-17.5c-0.834-5-3.834-4.832-3.834-4.832l-0.5-1.668c0,0,1.166-1.486,1.166-2.5
			c0-13.206-13.5-35.75-48.166-35.75c-34.667,0-48.167,22.544-48.167,35.75c0,1.014,1.167,2.5,1.167,2.5l-0.5,1.668
			c0,0-3-0.168-3.833,4.832s-1.18,12.536,0.667,17.5c2.667,7.168,5.239,6.044,5.239,6.044s1.406-1.208,2.74,3.625
			s4.438,9.875,4.438,9.875s-3.75-1.5-4,4.875s3.75,7.562,3.75,7.562s-14.061,0.87-28.885,5.677
			c-16.524,5.358-33.998,15.609-33.998,35.001l33.999,7.714l7.884,0.286l-0.05,99.764c0,0,5.05,21.477,31.259,22.766
			c3.954,0.194,10.063,10.748,17.445,9.437c12.847-2.283,14.149,6.705,20.847,3.336s14.338-12.578,18.291-12.772
			c26.209-1.289,31.26-22.766,31.26-22.766l-0.051-99.764l7.884-0.286L357.383,179.103z"/>
		<g>
			<path fill="#EEEEEE" d="M196.5,187.103c-12.884,0-19.156,4.592-17.395,23.177c1.232,13.014,1.6,14.436,2.626,23.61
				c0.161,1.441,0.517,4.415,0.699,6.234l-42.402,4.756c-0.288-3.161-0.417-3.7-0.698-6.232
				c-1.123-10.111-2.287-18.052-2.653-23.847c-3.112-49.234,20.155-70.365,64.823-70.365L196.5,187.103z"/>
			<path fill="#8E8E8E" d="M140.028,244.88l0.699,6.234c0,0,1.171,20.464,5.055,30.179c1.27,3.175,4.207,9.483,13.339,7.348
				c0.376-0.089-4.2-0.8-4.2-0.8l0.361-0.599c0,0,4.718,0.839,6.275,1.057c3.623,0.509,7.729-0.763,8.262-2.546
				c-2.987,0.518-12.606-0.74-12.606-0.74l0.371-0.724c0,0,11.183,0.869,12.342,0.653c3.49-0.649,5.535-3.124,5.949-10.408
				c0.248-4.354-3.009-9.013-9.24-10.284s-8.342,7.293-2.605,8.563c2.449,0.542,2.058,2.515,0.322,2.206
				c-3.427-0.612-7.665-1.768-6.499-8.504c1.166-6.735,8.581-6.763,13.283-4.933c8.483,3.3,6.708,14.183,6.904,17.965
				c0.174,3.348,9.408,2.778,9.523,0.145c0.153-3.5,0.889-12.515,0.137-20.105c-0.672-6.783-4.571-13.229-4.571-13.229l-0.698-6.233
				L140.028,244.88z"/>
			<path fill="#B2B3B3" d="M179.504,197.668c-0.753,3.229-0.896,7.361-0.399,12.611c1.187,12.533,1.324,11.405,2.626,23.61
				c0.192,1.795,0.453,3.772,0.699,6.234l-42.402,4.756c-0.288-3.161-0.417-3.7-0.698-6.232
				c-1.123-10.111-2.287-18.052-2.653-23.847c-0.463-7.329-0.342-14.036,0.348-20.143c0,0,3.975,7.186,20.142,7.186
				S179.504,197.668,179.504,197.668z"/>
			
				<rect x="139.633" y="236.23" transform="matrix(0.9938 -0.1115 0.1115 0.9938 -26.0311 19.4871)" fill="#454545" width="43.192" height="12.545"/>
		</g>
		<g>
			<path fill="#EEEEEE" d="M235.774,389.053c-4.721-40.79-1.44-50.646,4.726-61.553c6.406-11.33,8.419-12.833,10.5-40.634h-54.55
				c-2,26.135-12.116,33.801-14.054,46.801s-2.467,23.218,0,43.649v7.494l53.378,10.568V389.053z"/>
			<path fill="#EEEEEE" d="M235.774,395.379l-53.378-10.568v5.047c0,0-4.313,18.964-4.61,29.737
				c-0.314,11.406,4.222,24.647,19.597,24.647c23.617,0,38.391-34.617,38.391-34.617v-8.031V395.379z"/>
			<g>
				<defs>
					<path id="SVGID_65_" d="M235.774,389.053c-4.721-40.79-1.44-50.646,4.726-61.553c6.406-11.33,8.419-12.833,10.5-40.634h-54.55
						c-2,26.135-12.116,33.801-14.054,46.801s-2.467,23.218,0,43.649v7.494l53.378,10.568V389.053z"/>
				</defs>
				<clipPath id="SVGID_1_">
					<use xlink:href="#SVGID_65_"  overflow="visible"/>
				</clipPath>
				<polygon clip-path="url(#SVGID_1_)" fill="#E0E0E0" points="235.774,389.053 182.396,333.667 235.027,341.123 				"/>
				<polygon clip-path="url(#SVGID_1_)" fill="#E0E0E0" points="235.027,341.123 245.155,319.068 182.396,333.667 				"/>
			</g>
			<polygon fill="#454545" points="235.774,401.594 182.396,389.857 182.396,377.316 235.774,389.053 			"/>
		</g>
		<g>
			<polygon fill="#C4C4C3" points="256,164.737 221,164.737 221,209.07 256,209.07 291,209.07 291,164.737 			"/>
			<polygon fill="#DEDDDD" points="256,209.07 221,209.07 256,272.07 291,209.07 			"/>
			<polygon fill="#EEEEEE" points="256,168.07 223.966,168.07 223.966,200.737 256,200.737 288.034,200.737 288.034,168.07 			"/>
			<polygon fill="#FFFFFF" points="231.541,194.403 241.346,184.404 241.346,194.403 			"/>
			<polygon fill="#FFFFFF" points="241.346,184.404 231.541,194.403 231.541,184.404 			"/>
			<polygon fill="#FFFFFF" points="241.346,171.779 231.541,181.778 231.541,171.779 			"/>
			<polygon fill="#FFFFFF" points="231.541,181.778 241.346,171.779 241.346,181.778 			"/>
			<polygon fill="#B2B3B3" points="221,209.07 223.966,200.737 256,209.07 			"/>
			<polygon fill="#FFFFFF" points="280.459,194.403 270.654,184.404 270.654,194.403 			"/>
			<polygon fill="#FFFFFF" points="270.654,184.404 280.459,194.403 280.459,184.404 			"/>
			<polygon fill="#B2B3B3" points="291,209.07 288.034,200.737 256,209.07 			"/>
			<polygon fill="#A09F9F" points="256,200.737 223.966,200.737 256,209.07 288.034,200.737 			"/>
			<g>
				<polygon fill="#A09F9F" points="315.551,139.124 306.691,248.904 291,209.07 				"/>
				<polygon fill="#B2B3B3" points="304.5,137.193 291,209.07 315.551,139.124 				"/>
				<polygon fill="#8E8E8E" points="256,272.07 306.691,248.904 291,209.07 				"/>
				<polygon fill="#A09F9F" points="256,272.07 194,290.285 191,308.5 				"/>
			</g>
		</g>
		<g>
			<path fill="#EEEEEE" d="M261,426.902h54.551v6.27c0,0,8.873,16.729,9.873,27.459c1,10.732,0.873,20.361-14.5,20.5
				c-21.99,0.197-49.924-39.5-49.924-39.5v-8.459V426.902z"/>
			<path fill="#EEEEEE" d="M261,286.866c0,64.821,0,53.737,0,82.759s0,22.346,0,57.277h54.551c0-36.404,0-28.299,0-57.277
				s0-13.936,0-82.759H261z"/>
			<rect x="261" y="420.631" fill="#454545" width="54.551" height="12.541"/>
			<polygon fill="#E0E0E0" points="261,420.631 315.551,383.007 261,365.945 			"/>
			<polygon fill="#E0E0E0" points="261,365.945 261,323.169 315.551,383.007 			"/>
		</g>
		<path fill="#454545" d="M256,137.188c-33.917,0-38.496-2.7-42.246-5.117c0.579,10.25,11.079,10.245,42.246,10.245
			c31.166,0,41.666,0.005,42.246-10.245C294.496,134.487,289.916,137.188,256,137.188z"/>
		<path fill="#FFFFFF" d="M256,49.818c-57,0-42,62.169-34.421,76.818c0,0,10.254,3.975,34.421,3.975
			c24.166,0,34.421-3.975,34.421-3.975C298,111.987,313,49.818,256,49.818z"/>
		<g>
			<defs>
				<path id="SVGID_67_" d="M256,53.068c-50.75,0-39.25,57.919-34.75,64.169s34.75,6.125,34.75,6.125s30.25,0.125,34.75-6.125
					S306.75,53.068,256,53.068z"/>
			</defs>
			<clipPath id="SVGID_3_">
				<use xlink:href="#SVGID_67_"  overflow="visible"/>
			</clipPath>
			<path clip-path="url(#SVGID_3_)" fill="#222222" d="M256,53.068c-50.75,0-39.25,57.919-34.75,64.169s34.75,6.125,34.75,6.125
				s30.25,0.125,34.75-6.125S306.75,53.068,256,53.068z"/>
			<polygon clip-path="url(#SVGID_3_)" fill="#282828" points="196.667,79.57 256,70.728 209,137.193 			"/>
			<polygon clip-path="url(#SVGID_3_)" fill="#222222" points="256,70.728 209,137.193 256,139.57 303,137.193 			"/>
			<polygon clip-path="url(#SVGID_3_)" fill="#303030" points="256,32.237 196.667,79.57 256,70.728 315.333,79.57 			"/>
			<polygon clip-path="url(#SVGID_3_)" fill="#282828" points="315.333,79.57 256,70.728 303,137.193 			"/>
		</g>
	</g>
</g>
<g id="Layer_2">
</g>
</svg>
