<?xml version="1.0" encoding="utf-8"?>
<!-- Generator: Adobe Illustrator 16.0.0, SVG Export Plug-In . SVG Version: 6.00 Build 0)  -->
<!DOCTYPE svg PUBLIC "-//W3C//DTD SVG 1.1//EN" "http://www.w3.org/Graphics/SVG/1.1/DTD/svg11.dtd">
<svg version="1.1" id="Layer_1" xmlns="http://www.w3.org/2000/svg" xmlns:xlink="http://www.w3.org/1999/xlink" x="0px" y="0px"
	 width="512px" height="512px" viewBox="0 0 512 512" enable-background="new 0 0 512 512" xml:space="preserve">
<rect display="none" fill="#071C2C" width="512" height="512.5"/>
<g display="none">
	<path display="inline" fill="#A9A8A9" d="M187.694,153.555c-8.385,0-15.182,6.795-15.182,15.18c0,8.382,6.797,15.18,15.182,15.18
		V153.555z"/>
	<path display="inline" fill="#052D44" d="M187.737,156.518c-6.894,0-12.478,5.584-12.478,12.478c0,6.891,5.584,12.48,12.478,12.48
		V156.518z"/>
</g>
<g display="none">
	<path display="inline" fill="#00263D" d="M190.112,249.151c0,2.215,0.021,2.616,0.054,4.811c0.004,0.375,0.009,0.752,0.016,1.128
		c0.038,2.124,0.089,4.236,0.156,6.339c0.011,0.349,0.022,0.694,0.036,1.043c0.151,4.473,0.371,8.898,0.654,13.267
		c0.011,0.165,0.021,0.33,0.031,0.495c0.146,2.199,0.309,4.381,0.485,6.55c0.013,0.165,0.029,0.328,0.042,0.493
		c0.565,6.802,1.286,13.456,2.157,19.932c0,0.004,0,0.009,0,0.011l55.871-54.068H190.112z"/>
	<path display="inline" fill="#00263D" d="M256,416.152c-25.044,0-53.316-46.343-62.257-112.933l43.027,78.051L256,416.152z"/>
</g>
<g>
	<path fill="#AEADAE" d="M236.364,22.086c0,0,23.713,20.659,25.042,37.987c-10.064,8.33-10.064,8.33-24.551,8.043
		c20.816-8.71-10.599-45.428-10.599-45.428L236.364,22.086z"/>
	<circle fill="#AEADAE" cx="231.024" cy="17.648" r="12.623"/>
	<circle fill="#222222" cx="231.023" cy="17.648" r="6.946"/>
</g>
<g display="none">
	<path display="inline" fill="#FADF8D" d="M234.856,276.822c0,11.546,9.613,20.771,21.144,20.82v-41.914
		C244.469,255.78,234.856,265.277,234.856,276.822z"/>
	<path display="inline" fill="#092F46" d="M238.307,276.822c0,9.64,8.067,17.321,17.693,17.37v-35.013
		C246.374,259.23,238.307,267.181,238.307,276.822z"/>
	<polygon display="inline" fill="#FADF8D" points="256,263.668 247.957,288.532 256,288.532 	"/>
</g>
<polygon fill="#CF854B" points="290.507,433.034 221.493,433.034 230.971,474.263 238.07,450.288 256,493.865 273.93,450.288 
	281.029,474.263 "/>
<path fill="#BDBCBD" d="M359.857,160.949c0-16.152-13.089-29.243-29.242-29.243c-1.374,0-2.723,0.102-4.047,0.285
	c-4.639-18.463-10.773-34.901-18.059-48.029c-0.12-0.218-0.244-0.429-0.366-0.645C294.08,58.279,275.967,42.996,256,42.996
	s-38.08,15.283-52.145,40.322c-0.122,0.216-0.246,0.427-0.366,0.645c-7.285,13.127-13.419,29.566-18.059,48.029
	c-1.324-0.183-2.673-0.285-4.047-0.285c-16.153,0-29.242,13.091-29.242,29.243c0,14.492,10.542,26.514,24.377,28.831
	c-0.456,6.773-0.72,13.629-0.788,20.525h-0.854v7.004h48.625c-0.33,1.894-0.512,3.838-0.512,5.825c0,2.055,0.194,4.062,0.546,6.01
	h-51.461v0.068h-0.067c0,2.443,0.027,4.871,0.067,7.291v4.551h0.1c2.187,80.166,26.408,146.951,59.235,169.588l-8.065,18.206h-2.725
	v8.642H256h35.378v-8.642h-2.725l-8.065-18.206c32.827-22.638,57.049-89.422,59.235-169.588h0.1v-4.551
	c0.041-2.42,0.067-4.848,0.067-7.291h-0.067v-0.068h-51.461c0.353-1.948,0.546-3.955,0.546-6.01c0-1.987-0.182-3.931-0.512-5.825
	h48.625v-7.004h-0.854c-0.068-6.896-0.333-13.752-0.788-20.525C349.315,187.463,359.857,175.441,359.857,160.949z"/>
<g>
	<g>
		<path fill="#A9A8A9" d="M301.375,160.949c0,16.15,13.09,29.241,29.241,29.241c16.153,0,29.242-13.091,29.242-29.241
			c0-16.152-13.089-29.243-29.242-29.243C314.465,131.707,301.375,144.797,301.375,160.949z"/>
		<path fill="#00263D" d="M330.756,138.151c-12.709,0-23.01,10.304-23.01,23.016c0,12.709,10.301,23.012,23.01,23.012
			c12.715,0,23.017-10.303,23.017-23.012C353.768,148.456,343.471,138.151,330.756,138.151z"/>
		<path fill="#A09F9F" d="M320.698,160.949c0,5.477,4.44,9.916,9.917,9.916c5.478,0,9.917-4.438,9.917-9.916
			c0-5.479-4.439-9.917-9.917-9.917C325.139,151.032,320.698,155.47,320.698,160.949z"/>
	</g>
	<g>
		<path fill="#BDBCBD" d="M342.101,241.055c26.489,0,50.989,19.499,50.989,59.028c0,48.088-51.742,51.427-51.742,86.753
			c0,35.327,43.575,34.333,43.575,76.808c0,7.351,0,14.177,0,14.177H368.59c0,0,0-6.301,0-14.177
			c0-27.885-44.026-32.298-44.026-76.645c0-44.346,50.673-48.279,50.673-86.917c0-24.889-9.584-40.388-33.136-40.388h-9.371v-18.64
			H342.101z"/>
		<path fill="#BDBCBD" d="M384.923,480.966H368.59c0,0,0,14.971,0,20.484c0,2.757,1.335,4.168,2.67,4.185
			c1.336,0.016,2.671-1.362,2.671-4.185c0.079-5.771,0.206-10.887,0.206-10.887l0.494-0.004c0,0-0.064,10.742-0.064,13.779
			c0,3.938,5.214,4.332,5.214,0.263c0-1.255,0-14.013,0-14.013l0.387,0.029c0,0,0.122,7.454,0.122,10.703
			c0,1.658,1.207,2.453,2.387,2.41c1.134-0.041,2.246-0.852,2.246-2.41C384.923,497.544,384.923,480.966,384.923,480.966z"/>
		<polyline fill="#454545" points="384.923,480.966 384.923,477.821 368.59,477.821 368.59,480.966 		"/>
	</g>
	<circle fill="#BDBCBD" cx="339.924" cy="250.506" r="14.177"/>
	<circle fill="#052D44" cx="339.924" cy="250.506" r="9.451"/>
	<path fill="#222222" d="M256,189.785c18.34,0,33.009,15.009,33.009,33.35S274.34,256.201,256,256.201V189.785z"/>
	<path fill="#A9A8A9" d="M256,229.213h83.991c0,104.656-37.519,189.686-83.991,189.686L256,229.213z"/>
	<g>
		<defs>
			<path id="SVGID_1_" d="M256,229.213h83.991c0,104.656-37.519,189.686-83.991,189.686L256,229.213z"/>
		</defs>
		<clipPath id="SVGID_2_">
			<use xlink:href="#SVGID_1_"  overflow="visible"/>
		</clipPath>
		<g clip-path="url(#SVGID_2_)">
			<polygon fill="#A9A8A9" points="308.145,286.212 304.53,354.756 256,264.684 			"/>
			<polygon fill="#A09F9F" points="339.924,241.055 362.066,318.242 345.789,387.903 304.53,354.756 308.145,286.212 			"/>
			<polygon fill="#939393" points="304.53,354.756 345.789,387.903 256,433.034 			"/>
			<polygon fill="#AEADAE" points="339.924,241.055 308.145,286.212 256,264.684 256,241.055 			"/>
		</g>
	</g>
	<polygon fill="#00263D" points="276.126,400.57 290.507,433.034 256,433.034 	"/>
	<polygon fill="#052D44" points="276.126,400.57 290.507,433.034 276.126,433.034 	"/>
	<polygon fill="#A09F9F" points="304.53,354.756 256,433.034 256,354.756 	"/>
	<path fill="#A9A8A9" d="M308.145,83.318c0.122,0.216,0.246,0.427,0.366,0.645c17.018,30.663,27.781,79.355,27.781,129.845h-2.267
		L256,135.462L308.145,83.318z"/>
	<path fill="#AEADAE" d="M256,42.996c19.967,0,38.08,15.283,52.145,40.322L256,135.462V42.996z"/>
	<path fill="#AEADAE" d="M256,135.462v78.345h78.024L256,135.462z"/>
	<path fill="#222222" d="M256,110.112h33.561c14.271,0,25.844,12.731,25.844,28.438c0,15.702-11.572,28.433-25.844,28.433H256
		V110.112z"/>
	<g>
		<rect x="256" y="210.306" fill="#00263D" width="81.122" height="7.004"/>
	</g>
	<g>
		<rect x="256" y="229.145" fill="#00263D" width="83.924" height="11.911"/>
	</g>
	<polygon fill="#CE6C29" points="281.029,433.034 256,493.865 256,433.034 	"/>
	<polygon fill="#D28C57" points="290.507,433.034 281.029,474.263 281.029,433.034 	"/>
	<polygon fill="#CF854B" points="281.029,433.034 281.029,474.263 268.821,433.034 	"/>
	<polygon fill="#FADF8D" points="270.163,110.112 256,131.707 256,110.112 	"/>
	<g>
		<defs>
			<path id="SVGID_3_" d="M277.528,155.117c0,2.707,2.194,4.9,4.9,4.9l0,0c2.707,0,4.901-2.194,4.901-4.9V125.81
				c0-2.707-2.194-4.901-4.901-4.901l0,0c-2.706,0-4.9,2.194-4.9,4.901V155.117z"/>
		</defs>
		<clipPath id="SVGID_4_">
			<use xlink:href="#SVGID_3_"  overflow="visible"/>
		</clipPath>
		<path clip-path="url(#SVGID_4_)" fill="#DBF0F0" d="M277.528,155.117c0,2.707,2.194,4.9,4.9,4.9l0,0
			c2.707,0,4.901-2.194,4.901-4.9V125.81c0-2.707-2.194-4.901-4.901-4.901l0,0c-2.706,0-4.9,2.194-4.9,4.901V155.117z"/>
		<polygon clip-path="url(#SVGID_4_)" fill="#EDF8F7" points="288.596,119.743 288.596,161.557 276.386,110.112 		"/>
		<polygon clip-path="url(#SVGID_4_)" fill="#DBF0F0" points="288.596,161.557 277.624,165.793 276.386,110.112 		"/>
	</g>
	<g>
		<rect x="256" y="428.85" fill="#222222" width="35.378" height="8.642"/>
	</g>
	<polygon fill="#00263D" points="256,354.756 304.53,354.756 256,264.684 	"/>
</g>
<g>
	<g>
		<path fill="#A9A8A9" d="M210.625,160.949c0,16.15-13.09,29.241-29.241,29.241c-16.153,0-29.242-13.091-29.242-29.241
			c0-16.152,13.089-29.243,29.242-29.243C197.535,131.707,210.625,144.797,210.625,160.949z"/>
		<path fill="#00263D" d="M181.244,138.151c-12.715,0-23.011,10.304-23.017,23.016c0,12.709,10.302,23.012,23.017,23.012
			c12.709,0,23.01-10.303,23.01-23.012C204.254,148.456,193.953,138.151,181.244,138.151z"/>
		<path fill="#A09F9F" d="M191.302,160.949c0,5.477-4.44,9.916-9.917,9.916c-5.478,0-9.917-4.438-9.917-9.916
			c0-5.479,4.439-9.917,9.917-9.917C186.861,151.032,191.302,155.47,191.302,160.949z"/>
	</g>
	<g>
		<path fill="#BDBCBD" d="M169.899,241.055c-26.489,0-50.989,19.499-50.989,59.028c0,48.088,51.742,51.427,51.742,86.753
			c0,35.327-43.575,34.333-43.575,76.808c0,7.351,0,14.177,0,14.177h16.333c0,0,0-6.301,0-14.177
			c0-27.885,44.026-32.298,44.026-76.645c0-44.346-50.673-48.279-50.673-86.917c0-24.889,9.584-40.388,33.136-40.388h9.371v-18.64
			H169.899z"/>
		<path fill="#BDBCBD" d="M127.077,480.966h16.333c0,0,0,14.971,0,20.484c0,2.757-1.335,4.168-2.67,4.185
			c-1.336,0.016-2.671-1.362-2.671-4.185c-0.079-5.771-0.206-10.887-0.206-10.887l-0.494-0.004c0,0,0.064,10.742,0.064,13.779
			c0,3.938-5.214,4.332-5.214,0.263c0-1.255,0-14.013,0-14.013l-0.387,0.029c0,0-0.122,7.454-0.122,10.703
			c0,1.658-1.207,2.453-2.387,2.41c-1.134-0.041-2.246-0.852-2.246-2.41C127.077,497.544,127.077,480.966,127.077,480.966z"/>
		<polyline fill="#454545" points="127.077,480.966 127.077,477.821 143.41,477.821 143.41,480.966 		"/>
	</g>
	<circle fill="#BDBCBD" cx="172.076" cy="250.506" r="14.177"/>
	<circle fill="#052D44" cx="172.076" cy="250.506" r="9.451"/>
	<path fill="#222222" d="M256,189.785c-18.34,0-33.009,15.009-33.009,33.35S237.66,256.201,256,256.201V189.785z"/>
	<path fill="#A9A8A9" d="M256,229.213h-83.991c0,104.656,37.519,189.686,83.991,189.686L256,229.213z"/>
	<g>
		<defs>
			<path id="SVGID_5_" d="M256,229.213h-83.991c0,104.656,37.519,189.686,83.991,189.686L256,229.213z"/>
		</defs>
		<clipPath id="SVGID_6_">
			<use xlink:href="#SVGID_5_"  overflow="visible"/>
		</clipPath>
		<g clip-path="url(#SVGID_6_)">
			<polygon fill="#A9A8A9" points="203.855,286.212 207.47,354.756 256,264.684 			"/>
			<polygon fill="#A09F9F" points="172.076,241.055 149.934,318.242 166.211,387.903 207.47,354.756 203.855,286.212 			"/>
			<polygon fill="#939393" points="207.47,354.756 166.211,387.903 256,433.034 			"/>
			<polygon fill="#AEADAE" points="172.076,241.055 203.855,286.212 256,264.684 256,241.055 			"/>
		</g>
	</g>
	<polygon fill="#A09F9F" points="207.47,354.756 256,433.034 256,354.756 	"/>
	<path fill="#A9A8A9" d="M203.855,83.318c-0.122,0.216-0.246,0.427-0.366,0.645c-17.018,30.663-27.781,79.355-27.781,129.845h2.267
		L256,135.462L203.855,83.318z"/>
	<path fill="#AEADAE" d="M256,42.996c-19.967,0-38.08,15.283-52.145,40.322L256,135.462V42.996z"/>
	<path fill="#AEADAE" d="M177.976,213.808H256v-78.345L177.976,213.808z"/>
	<path fill="#222222" d="M256,110.112h-33.561c-14.271,0-25.844,12.731-25.844,28.438c0,15.702,11.572,28.433,25.844,28.433H256
		V110.112z"/>
	<g>
		<rect x="174.878" y="210.306" fill="#00263D" width="81.122" height="7.004"/>
	</g>
	<g>
		<rect x="172.076" y="229.145" fill="#00263D" width="83.924" height="11.911"/>
	</g>
	<polygon fill="#C7702E" points="230.971,433.034 256,493.865 256,433.034 	"/>
	<polygon fill="#D28C57" points="221.493,433.034 230.971,474.263 230.971,433.034 	"/>
	<polygon fill="#CF854B" points="230.971,433.034 230.971,474.263 243.179,433.034 	"/>
	<polygon fill="#00263D" points="235.874,400.57 221.493,433.034 256,433.034 	"/>
	<polygon fill="#052D44" points="235.874,400.57 221.493,433.034 235.874,433.034 	"/>
	<polygon fill="#FADF8D" points="241.837,110.112 256,131.707 256,110.112 	"/>
	<g>
		<defs>
			<path id="SVGID_7_" d="M234.472,155.117c0,2.707-2.194,4.9-4.9,4.9l0,0c-2.707,0-4.901-2.194-4.901-4.9V125.81
				c0-2.707,2.194-4.901,4.901-4.901l0,0c2.706,0,4.9,2.194,4.9,4.901V155.117z"/>
		</defs>
		<clipPath id="SVGID_8_">
			<use xlink:href="#SVGID_7_"  overflow="visible"/>
		</clipPath>
		<path clip-path="url(#SVGID_8_)" fill="#DBF0F0" d="M234.472,155.117c0,2.707-2.194,4.9-4.9,4.9l0,0
			c-2.707,0-4.901-2.194-4.901-4.9V125.81c0-2.707,2.194-4.901,4.901-4.901l0,0c2.706,0,4.9,2.194,4.9,4.901V155.117z"/>
		<polygon clip-path="url(#SVGID_8_)" fill="#EDF8F7" points="223.404,119.743 223.404,161.557 235.614,110.112 		"/>
		<polygon clip-path="url(#SVGID_8_)" fill="#DBF0F0" points="223.404,161.557 234.376,165.793 235.614,110.112 		"/>
	</g>
	<g>
		<rect x="220.622" y="428.85" fill="#222222" width="35.378" height="8.642"/>
	</g>
	<polygon fill="#00263D" points="256,354.756 207.47,354.756 256,264.684 	"/>
</g>
</svg>
