<?xml version="1.0" encoding="utf-8"?>
<!-- Generator: Adobe Illustrator 16.0.0, SVG Export Plug-In . SVG Version: 6.00 Build 0)  -->
<!DOCTYPE svg PUBLIC "-//W3C//DTD SVG 1.1//EN" "http://www.w3.org/Graphics/SVG/1.1/DTD/svg11.dtd">
<svg version="1.1" xmlns="http://www.w3.org/2000/svg" xmlns:xlink="http://www.w3.org/1999/xlink" x="0px" y="0px" width="1000px"
	 height="1300px" viewBox="0 0 1000 1300" enable-background="new 0 0 1000 1300" xml:space="preserve">
<g id="Layer_1">
	<path fill="#EEEEEE" d="M481.905,101.425"/>
	<path fill="#EEEEEE" d="M488.183,101.425"/>
	<g>
		<linearGradient id="SVGID_1_" gradientUnits="userSpaceOnUse" x1="498.5635" y1="213.7197" x2="498.5635" y2="63.5851">
			<stop  offset="0" style="stop-color:#66C7F1"/>
			<stop  offset="1" style="stop-color:#0C4876"/>
		</linearGradient>
		<path fill="url(#SVGID_1_)" d="M588.397,109.378c-38.824-30.346-68.432-32.574-89.854-53.994
			c-21.422,21.42-50.988,23.648-89.814,53.994c-48.783,38.131-58.906,87.029-58.906,87.029l148.672,16.183l148.809-16.183
			C647.304,196.407,637.183,147.509,588.397,109.378z"/>
		<path fill="#303030" d="M575.462,121.911c-33.232-25.973-58.582-27.88-76.918-46.216c-18.336,18.336-43.645,20.243-76.875,46.216
			c-41.758,32.64-50.424,74.496-50.424,74.496l127.25,16.183h0.008l127.381-16.183C625.884,196.407,617.218,154.551,575.462,121.911
			z"/>
		<g>
			<defs>
				<path id="SVGID_136_" d="M575.462,121.911c-33.232-25.973-58.582-27.88-76.918-46.216
					c-18.336,18.336-43.645,20.243-76.875,46.216c-41.758,32.64-50.424,74.496-50.424,74.496l127.25,16.183h0.008l127.381-16.183
					C625.884,196.407,617.218,154.551,575.462,121.911z"/>
			</defs>
			<clipPath id="SVGID_3_">
				<use xlink:href="#SVGID_136_"  overflow="visible"/>
			</clipPath>
			<polygon clip-path="url(#SVGID_3_)" fill="#222222" points="494.981,67.728 490.815,227.785 571.144,227.785 			"/>
			<polygon clip-path="url(#SVGID_3_)" fill="#222222" points="502.147,67.728 506.313,227.785 425.985,227.785 			"/>
			<g clip-path="url(#SVGID_3_)">
				<path fill="#ED2289" d="M588.829,128.57c-6.775-5.804-14.166-11.671-22.197-17.464l1.797,20.812L588.829,128.57z"/>
				<path fill="#ED2289" d="M604.81,145.471c-6.225-7.058-13.34-14.517-21.387-22.122l0.158,22.374L604.81,145.471z"/>
			</g>
			<g clip-path="url(#SVGID_3_)">
				<path fill="#ED2289" d="M493.767,76.748c0,0-10.703,2.701-27.109,10.318l23.596,8.058L493.767,76.748z"/>
				<path fill="#ED2289" d="M502.407,76.748c0,0,10.701,2.701,27.109,10.318l-23.596,8.058L502.407,76.748z"/>
				<path fill="#ED2289" d="M547.208,96.858c-10.85-5.819-20.777-10.072-29.074-13.141l2.877,24.721L547.208,96.858z"/>
				<path fill="#ED2289" d="M568.329,111.777c-8.844-6.667-21.951-14.411-30.453-19.315l2.367,25.445L568.329,111.777z"/>
				<path fill="#ED2289" d="M448.966,96.858c10.85-5.819,20.775-10.072,29.074-13.141l-2.877,24.721L448.966,96.858z"/>
				<path fill="#ED2289" d="M427.845,111.777c8.844-6.667,21.951-14.411,30.453-19.315l-2.367,25.445L427.845,111.777z"/>
				<path fill="#ED2289" d="M408.298,128.57c6.779-5.804,14.17-11.671,22.197-17.464l-1.793,20.812L408.298,128.57z"/>
				<path fill="#ED2289" d="M392.319,145.471c6.225-7.058,13.342-14.517,21.389-22.122l-0.158,22.374L392.319,145.471z"/>
			</g>
		</g>
		<linearGradient id="SVGID_5_" gradientUnits="userSpaceOnUse" x1="93.6709" y1="423.1006" x2="326.6182" y2="423.1006">
			<stop  offset="0" style="stop-color:#66C7F1"/>
			<stop  offset="1" style="stop-color:#0C4876"/>
		</linearGradient>
		<polygon fill="url(#SVGID_5_)" points="326.618,473.822 274.851,530.054 265.333,530.054 230.228,391.415 93.671,570.217 
			93.671,522.614 221.896,275.983 248.079,281.932 273.069,494.945 320.669,422.654 		"/>
		<polygon fill="#ED2289" points="93.671,522.614 93.671,570.217 230.228,391.415 		"/>
		<polygon opacity="0.3" points="248.079,281.932 230.228,391.415 265.333,530.054 		"/>
		<polygon opacity="0.1" points="274.851,530.054 265.333,530.054 248.079,281.932 273.069,494.945 		"/>
		<g>
			<polygon fill="#ED2289" points="360.556,81.466 382.87,71.65 387.927,95.746 			"/>
			<polygon fill="#ED2289" points="383.743,94.237 409.925,85.017 415.278,113.279 			"/>
			<polygon fill="#ED2289" points="403.966,107.612 433.118,100.474 431.335,124.274 			"/>
			<polygon fill="#ED2289" points="425.972,123.36 453.938,121.278 454.534,145.974 			"/>
			<polygon fill="#ED2289" points="445.312,137.646 472.681,135.858 471.491,163.824 			"/>
			<polygon fill="#ED2289" points="464.048,153.12 490.825,155.202 485.468,181.68 			"/>
		</g>
		<g>
			<polygon fill="#ED2289" points="636.989,81.466 614.677,71.65 609.618,95.746 			"/>
			<polygon fill="#ED2289" points="613.802,94.237 587.622,85.017 582.269,113.279 			"/>
			<polygon fill="#ED2289" points="593.581,107.612 564.427,100.474 566.212,124.274 			"/>
			<polygon fill="#ED2289" points="571.575,123.36 543.606,121.278 543.011,145.974 			"/>
			<polygon fill="#ED2289" points="552.235,137.646 524.866,135.858 526.054,163.824 			"/>
			<polygon fill="#ED2289" points="533.499,153.12 506.724,155.202 512.079,181.68 			"/>
		</g>
		<linearGradient id="SVGID_6_" gradientUnits="userSpaceOnUse" x1="911.5156" y1="423.0996" x2="707.4951" y2="423.0996">
			<stop  offset="0" style="stop-color:#66C7F1"/>
			<stop  offset="1" style="stop-color:#0C4876"/>
		</linearGradient>
		<polygon fill="url(#SVGID_6_)" points="669.579,473.822 721.345,530.054 730.862,530.054 765.97,391.415 902.526,570.217 
			902.526,522.614 774.302,275.983 748.118,281.932 723.126,494.945 675.526,422.654 		"/>
		<polygon opacity="0.3" points="748.118,281.932 765.97,391.415 730.862,530.054 		"/>
		<polygon opacity="0.1" points="721.345,530.054 730.862,530.054 748.118,281.932 723.126,494.945 		"/>
		<linearGradient id="SVGID_7_" gradientUnits="userSpaceOnUse" x1="514.0703" y1="1251.1836" x2="503.8745" y2="555.3629">
			<stop  offset="0" style="stop-color:#66C7F1"/>
			<stop  offset="1" style="stop-color:#0C4876"/>
		</linearGradient>
		<path fill="url(#SVGID_7_)" d="M690.999,65.94c0,0-64.264,8.926-121.385,44.626c-51.881,32.427-68.395,80.559-71.07,89.14
			c-2.674-8.581-20.08-56.713-71.961-89.14C369.46,74.866,305.2,65.94,305.2,65.94s-32.133,48.197-32.133,94.606
			c0,46.412,14.281,105.32,14.281,105.32s50.391,472.483,71.521,630.949c40.43,303.243,129.406,341.743,139.223,345.114l0.449,0.146
			l0.447-0.146c9.818-3.371,97.906-41.871,138.34-345.114c21.127-158.466,71.518-630.949,71.518-630.949
			s14.281-58.908,14.281-105.32C723.128,114.138,690.999,65.94,690.999,65.94z"/>
		<g>
			<defs>
				<path id="SVGID_141_" d="M690.999,65.94c0,0-64.264,8.926-121.385,44.626c-51.881,32.427-68.395,80.559-71.07,89.14
					c-2.674-8.581-20.08-56.713-71.961-89.14C369.46,74.866,305.2,65.94,305.2,65.94s-32.133,48.197-32.133,94.606
					c0,46.412,14.281,105.32,14.281,105.32s50.391,472.483,71.521,630.949c40.43,303.243,129.406,341.743,139.223,345.114
					l0.449,0.146l0.447-0.146c9.818-3.371,97.906-41.871,138.34-345.114c21.127-158.466,71.518-630.949,71.518-630.949
					s14.281-58.908,14.281-105.32C723.128,114.138,690.999,65.94,690.999,65.94z"/>
			</defs>
			<clipPath id="SVGID_9_">
				<use xlink:href="#SVGID_141_"  overflow="visible"/>
			</clipPath>
			<polygon opacity="0.2" clip-path="url(#SVGID_9_)" points="498.542,361.338 279.017,425.33 721.71,643.706 			"/>
			<polygon opacity="0.1" clip-path="url(#SVGID_9_)" points="246.417,165.878 498.542,361.338 279.017,425.33 			"/>
			<polygon opacity="0.2" clip-path="url(#SVGID_9_)" points="249.271,637.75 467.638,653.968 262.358,713.913 			"/>
			<polygon opacity="0.15" clip-path="url(#SVGID_9_)" points="301.628,756.755 408.729,788.885 315.907,828.483 			"/>
			<polygon opacity="0.3" clip-path="url(#SVGID_9_)" points="345.481,1056.643 478.944,1073.302 348.042,1109.002 			"/>
			<polygon opacity="0.1" clip-path="url(#SVGID_9_)" points="749.778,165.878 498.542,361.338 717.651,433.62 			"/>
			<polygon opacity="0.15" clip-path="url(#SVGID_9_)" points="746.927,657.386 528.56,673.604 733.839,733.548 			"/>
			<polygon opacity="0.1" clip-path="url(#SVGID_9_)" points="690.771,772.819 302.642,1049.434 682.839,993.204 			"/>
			<polygon opacity="0.05" clip-path="url(#SVGID_9_)" points="645.358,1104.839 511.897,1121.5 642.802,1157.198 			"/>
			<polygon opacity="0.05" clip-path="url(#SVGID_9_)" points="498.544,234.454 246.417,165.878 498.542,361.338 749.778,165.878 
							"/>
		</g>
		<polygon fill="#ED2289" points="902.526,522.614 902.526,570.217 765.97,391.415 		"/>
		<g>
			<path opacity="0.3" d="M399.255,365.959c0,0,49.135-44.402,97.973-44.402c48.842,0,95.914,45.882,95.914,45.882
				s-25.414,51.941-96.201,51.941C426.147,419.38,399.255,365.959,399.255,365.959z"/>
			<path fill="#ED2289" d="M418.251,366.068c0,0,38.676-35.702,77.945-35.702c39.273,0,77.949,36.892,77.949,36.892
				s-15.473,36.89-77.354,36.89C434.915,404.147,418.251,366.068,418.251,366.068z"/>
			<g>
				<defs>
					<path id="SVGID_143_" d="M418.251,366.068c0,0,38.676-35.702,77.945-35.702c39.273,0,77.949,36.892,77.949,36.892
						s-15.473,36.89-77.354,36.89C434.915,404.147,418.251,366.068,418.251,366.068z"/>
				</defs>
				<clipPath id="SVGID_10_">
					<use xlink:href="#SVGID_143_"  overflow="visible"/>
				</clipPath>
				<circle opacity="0.3" clip-path="url(#SVGID_10_)" cx="495.9" cy="372.073" r="43.435"/>
				<path opacity="0.3" clip-path="url(#SVGID_10_)" d="M509.884,372.073c0,14.621-6.258,26.478-13.984,26.478
					c-7.723,0-13.982-11.856-13.982-26.478c0-14.624,6.26-26.479,13.982-26.479C503.626,345.595,509.884,357.449,509.884,372.073z"
					/>
			</g>
		</g>
	</g>
	<g>
		<g>
			<path fill="#E5E5D8" d="M90.833,526.492c0,0,31.018,5.198,41.219,19.271c-4.219,12.363-4.219,12.363-16.715,19.698
				c13.182-18.314-32.803-33.167-32.803-33.167L90.833,526.492z"/>
			<circle fill="#E5E5D8" cx="83.961" cy="525.505" r="12.623"/>
			<circle fill="#454545" cx="83.961" cy="525.504" r="6.946"/>
		</g>
		<path fill="#222222" d="M195.313,659.13c-15.629,9.596-20.277,30.062-10.682,45.691c9.598,15.629,29.803,20.503,45.432,10.908
			c15.629-9.597,20.426-29.821,10.828-45.451C231.296,654.648,210.942,649.533,195.313,659.13z"/>
		<g>
			<path fill="#C6C5B5" d="M145.489,657.056c8.451,13.765,4.145,31.77-9.619,40.22c-13.766,8.452-31.77,4.145-40.219-9.618
				c-8.451-13.766-4.146-31.77,9.619-40.221C119.034,638.986,137.038,643.292,145.489,657.056z"/>
			<path fill="#454545" d="M108.522,653.002c-10.836,6.653-14.219,20.821-7.572,31.659c6.65,10.83,20.82,14.219,31.656,7.566
				c10.83-6.65,14.217-20.82,7.566-31.65C133.522,649.743,119.353,646.352,108.522,653.002z"/>
		</g>
		<g>
			<path fill="#C6C5B5" d="M216.007,613.76c8.451,13.763,26.455,18.07,40.219,9.619c13.766-8.452,18.07-26.456,9.619-40.22
				c-8.451-13.765-26.453-18.071-40.219-9.619C211.862,581.99,207.556,599.994,216.007,613.76z"/>
			<path fill="#454545" d="M229.118,578.958c10.834-6.653,25-3.259,31.658,7.571c6.648,10.83,3.26,25.001-7.576,31.653
				c-10.83,6.65-24.998,3.261-31.648-7.57C214.899,599.778,218.286,585.607,229.118,578.958z"/>
		</g>
		<path fill="#E5E5D8" d="M184.692,541.474c-0.217-0.123-0.434-0.238-0.65-0.358c-25.086-13.978-48.518-17.525-65.533-7.078
			c-17.018,10.448-24.455,32.949-23.34,61.646c0.008,0.246,0.014,0.491,0.025,0.74c1.541,35.036,17.848,82.162,44.264,125.188
			l1.934-1.187l66.49-40.825l66.492-40.824l1.932-1.186C249.888,594.563,215.237,558.7,184.692,541.474z"/>
		<path fill="#E5E5D8" d="M118.509,534.037c-17.018,10.448-24.455,32.949-23.34,61.646l71.721,17.153l17.152-71.722
			C158.956,527.138,135.524,523.59,118.509,534.037z"/>
		<path fill="#DDDDCE" d="M95.169,595.684c0.008,0.246,0.014,0.491,0.025,0.74c1.541,35.036,17.848,82.162,44.264,125.188
			l1.934-1.187l25.498-107.589L95.169,595.684z"/>
		<path fill="#DDDDCE" d="M184.042,541.115c0.217,0.12,0.434,0.235,0.65,0.358c30.545,17.227,65.195,53.09,91.613,96.117
			l-1.932,1.186L166.89,612.837L184.042,541.115z"/>
		<polygon fill="#E5E5D8" points="166.89,612.837 141.392,720.426 207.882,679.601 274.374,638.776 		"/>
		<path fill="#222222" d="M182.226,573.673l-28.602,17.56l-28.6,17.56c-12.162,7.467-15.361,24.373-7.145,37.757
			c8.217,13.382,24.74,18.176,36.902,10.709l28.6-17.562l28.6-17.56c12.162-7.467,15.363-24.372,7.146-37.753
			C210.909,571,194.388,566.205,182.226,573.673z"/>
		<g>
			<defs>
				<path id="SVGID_145_" d="M158.827,640.851c1.416,2.307,0.693,5.323-1.611,6.739l0,0c-2.307,1.417-5.324,0.695-6.742-1.61
					l-15.334-24.976c-1.416-2.308-0.693-5.327,1.611-6.742l0,0c2.307-1.416,5.326-0.692,6.742,1.614L158.827,640.851z"/>
			</defs>
			<clipPath id="SVGID_12_">
				<use xlink:href="#SVGID_145_"  overflow="visible"/>
			</clipPath>
			<path clip-path="url(#SVGID_12_)" fill="#EECC70" d="M158.827,640.851c1.416,2.307,0.693,5.323-1.611,6.739l0,0
				c-2.307,1.417-5.324,0.695-6.742-1.61l-15.334-24.976c-1.416-2.308-0.693-5.327,1.611-6.742l0,0
				c2.307-1.416,5.326-0.692,6.742,1.614L158.827,640.851z"/>
			<polygon clip-path="url(#SVGID_12_)" fill="#FADF8D" points="130.886,616.495 152.765,652.129 136.253,601.899 			"/>
			<polygon clip-path="url(#SVGID_12_)" fill="#EECC70" points="152.765,652.129 164.331,649.998 136.253,601.899 			"/>
		</g>
		<polygon fill="#FADF8D" points="153.624,591.232 141.556,598.643 164.925,609.637 165.694,583.822 		"/>
		<g>
			<defs>
				<path id="SVGID_147_" d="M195.521,618.321c1.416,2.308,4.434,3.028,6.738,1.612l0,0c2.307-1.416,3.029-4.434,1.613-6.74
					l-15.334-24.974c-1.416-2.309-4.436-3.031-6.742-1.615l0,0c-2.307,1.416-3.027,4.436-1.611,6.742L195.521,618.321z"/>
			</defs>
			<clipPath id="SVGID_14_">
				<use xlink:href="#SVGID_147_"  overflow="visible"/>
			</clipPath>
			<path clip-path="url(#SVGID_14_)" fill="#EECC70" d="M195.521,618.321c1.416,2.308,4.434,3.028,6.738,1.612l0,0
				c2.307-1.416,3.029-4.434,1.613-6.74l-15.334-24.974c-1.416-2.309-4.436-3.031-6.742-1.615l0,0
				c-2.307,1.416-3.027,4.436-1.611,6.742L195.521,618.321z"/>
			<polygon clip-path="url(#SVGID_14_)" fill="#FADF8D" points="186.442,582.385 208.321,618.019 170.997,580.565 			"/>
			<polygon clip-path="url(#SVGID_14_)" fill="#EECC70" points="208.321,618.019 201.187,627.37 170.997,580.565 			"/>
		</g>
		<g>
			<path fill="#E4E4D8" d="M310.302,692.714c16.172-7.754,42.605-42.105,21.559-90.363c-21.049-48.257-66.396-77.369-66.396-77.369
				l-5.045-3.982l-13.66,17.303l5.045,3.982c0,0,43.844,28.261,61.906,61.57c18.061,33.307-4.221,61.353-14.283,66.176l-8.258,3.959
				l10.875,22.683L310.302,692.714z"/>
			<path fill="#DEDCCE" d="M261.274,521.674l-13.658,17.305c0,0-20.047-15.823-25.887-20.436c-2.918-2.305-2.76-4.115-1.66-5.542
				c1.1-1.43,2.518-1.691,5.506,0.67c6.182,4.741,11.705,8.884,11.705,8.884l1.037-1.306c0,0-11.43-8.912-14.648-11.455
				c-4.17-3.291-0.229-9.145,4.082-5.742c1.33,1.052,14.844,11.719,14.844,11.719l0.912-1.22c0,0-7.791-6.36-11.232-9.076
				c-1.758-1.389-1.971-2.853-0.938-4.064c0.99-1.169,2.539-1.363,4.191-0.061C239.524,504.507,261.274,521.674,261.274,521.674z"/>
			<polyline fill="#454546" points="257.087,518.368 265.464,524.981 251.804,542.284 243.427,535.673 			"/>
			<path fill="#C6C5B5" d="M281.687,691.188c-3.646-8.816,0.541-18.916,9.354-22.564c8.814-3.649,18.916,0.535,22.562,9.353
				c3.648,8.812-0.539,18.917-9.352,22.562C295.438,704.188,285.333,700,281.687,691.188z"/>
			<path fill="#454546" d="M287.851,688.462c-2.24-5.416,0.332-11.617,5.744-13.857c5.414-2.242,11.619,0.33,13.857,5.744
				c2.24,5.411-0.334,11.613-5.744,13.857C296.296,696.442,290.091,693.872,287.851,688.462z"/>
		</g>
		<g>
			<path fill="#E4E4D8" d="M152.849,768.195c-16.174,7.753-59.508,6.849-83.951-39.782
				c-24.439-46.631-18.736-100.217-18.736-100.217l0.055-6.427l22.045,0.186l-0.055,6.427c0,0-5.426,51.881,9.23,86.822
				c14.656,34.939,50.475,35.133,60.537,30.309l8.258-3.959l10.875,22.684L152.849,768.195z"/>
			<path fill="#DEDCCE" d="M50.206,622.859l22.045,0.188c0,0,0.217-25.537,0.279-32.979c0.031-3.719-1.48-4.729-3.281-4.765
				c-1.803-0.039-2.895,0.902-2.926,4.713c-0.174,7.788-0.404,14.688-0.404,14.688l-1.668-0.008c0,0,0.211-14.493,0.244-18.595
				c0.045-5.313-6.986-5.906-7.033-0.415c-0.014,1.696-0.16,18.912-0.16,18.912l-1.521-0.052c0,0-0.08-10.058-0.041-14.442
				c0.018-2.24-0.99-3.322-2.582-3.276c-1.531,0.041-2.654,1.127-2.672,3.23C50.442,595.151,50.206,622.859,50.206,622.859z"/>
			<polyline fill="#454546" points="50.251,617.524 50.161,628.196 72.206,628.382 72.296,617.712 			"/>
			<path fill="#C6C5B5" d="M169.579,744.933c-4.59-8.365-15.086-11.426-23.449-6.84c-8.365,4.586-11.428,15.082-6.838,23.447
				c4.584,8.363,15.086,11.426,23.447,6.84C171.103,763.794,174.165,753.294,169.579,744.933z"/>
			<path fill="#454546" d="M163.593,748.03c-2.818-5.139-9.264-7.017-14.4-4.199c-5.137,2.816-7.018,9.264-4.199,14.4
				c2.814,5.135,9.262,7.013,14.4,4.199C164.526,759.612,166.407,753.165,163.593,748.03z"/>
		</g>
		<g>
			<defs>
				<path id="SVGID_149_" d="M139.122,729.627c45.242,94.372,115.832,154.827,157.736,134.738
					c41.906-20.089,38.98-112.982-6.26-207.354L139.122,729.627z"/>
			</defs>
			<clipPath id="SVGID_16_">
				<use xlink:href="#SVGID_149_"  overflow="visible"/>
			</clipPath>
			<path clip-path="url(#SVGID_16_)" fill="#DDDDCE" d="M139.122,729.627c45.242,94.372,115.832,154.827,157.736,134.738
				c41.906-20.089,38.98-112.982-6.26-207.354L139.122,729.627z"/>
			<polygon clip-path="url(#SVGID_16_)" fill="#DDDDCE" points="192.479,767.259 225.37,827.505 230.194,725.304 			"/>
			<polygon clip-path="url(#SVGID_16_)" fill="#D1D1C4" points="144.302,740.276 157.702,819.45 202.493,875.23 225.37,827.505 
				192.479,767.259 			"/>
			<polygon clip-path="url(#SVGID_16_)" fill="#C6C5B5" points="225.37,827.505 202.493,875.23 302.97,877.112 			"/>
			<polygon clip-path="url(#SVGID_16_)" fill="#DDDDCE" points="286.521,722.175 312.892,785.547 230.194,725.304 			"/>
			<polygon clip-path="url(#SVGID_16_)" fill="#D1D1C4" points="295.657,667.718 348.991,727.749 364.427,797.601 312.892,785.547 
				286.521,722.175 			"/>
			<polygon clip-path="url(#SVGID_16_)" fill="#C6C5B5" points="312.892,785.547 364.427,797.601 302.97,877.112 			"/>
			<polygon clip-path="url(#SVGID_16_)" fill="#E5E5D8" points="219.979,703.997 144.302,740.276 192.479,767.259 230.194,725.304 
				286.521,722.175 295.657,667.718 			"/>
		</g>
		<polygon fill="#DDDDCE" points="269.13,806.525 225.37,827.505 270.786,856.538 302.97,877.112 307.085,839.138 312.892,785.547 
					"/>
		<polygon fill="#E39C27" points="334.087,862.194 325.538,866.292 314.53,871.569 302.97,877.112 291.409,882.654 280.399,887.932 
			271.853,892.028 298.224,925.109 294.261,900.421 329.267,931.966 326.597,884.919 343.362,903.47 		"/>
		<g>
			<polygon fill="#E39C27" points="280.399,887.932 329.267,931.966 302.97,877.112 			"/>
			<polygon fill="#E39C27" points="271.853,892.028 298.224,925.109 280.399,887.932 			"/>
			<polygon fill="#EBB246" points="280.399,887.932 298.224,925.109 291.409,882.654 			"/>
			<polygon fill="#EBB246" points="325.538,866.292 329.267,931.966 302.97,877.112 			"/>
			<polygon fill="#EBB246" points="334.087,862.194 343.362,903.47 325.538,866.292 			"/>
			<polygon fill="#E39C27" points="325.538,866.292 343.362,903.47 314.53,871.569 			"/>
		</g>
		<polygon fill="#454545" points="307.085,839.138 334.087,862.194 302.97,877.112 		"/>
		<polygon fill="#222222" points="307.085,839.138 334.087,862.194 321.118,868.411 		"/>
		<polygon fill="#454545" points="270.786,856.538 271.853,892.028 302.97,877.112 		"/>
		<polygon fill="#222222" points="270.786,856.538 271.853,892.028 284.821,885.812 		"/>
		<g>
			<polygon fill="#454545" points="206.05,676.617 136.276,719.456 139.942,725.427 209.716,682.586 279.489,639.746 
				275.823,633.777 			"/>
		</g>
		<g>
			<polygon fill="#454545" points="214.831,693.257 138.591,729.807 143.739,740.546 219.979,703.997 296.22,667.448 
				291.071,656.708 			"/>
		</g>
		<g>
			<polygon fill="#454545" points="301.161,873.339 269.259,888.632 272.995,896.425 304.896,881.131 336.798,865.837 
				333.062,858.045 			"/>
		</g>
		<polygon fill="#FADF8D" points="230.194,725.304 225.37,827.505 269.13,806.525 312.892,785.547 		"/>
	</g>
	<g>
		<polygon fill="#C4C4C3" points="839.433,629.751 787.54,604.981 735.649,580.212 726.306,582.377 660.491,721.678 
			664.337,729.608 716.229,754.378 768.12,779.148 776.704,777.15 843.626,638.377 		"/>
		<g>
			<path fill="#EEEEEE" d="M838.222,658.403c14.178,11.092,31.049,0.701,42.551-14.001c10.283-13.145-1.574,2.014,19.949-25.498
				l33.605,26.292c-22.434,28.671-8.434,10.778-19.949,25.498c-30.4,38.855-67.266,48.837-102.447,21.312L838.222,658.403z"/>
			<path fill="#8E8E8E" d="M947.757,611.448c1.721-2.197,1.184-4.46-0.547-5.906c-1.801-1.506-4.457-1.776-6.285,0.561
				c-3.584,4.58-7.162,8.761-7.162,8.761l-1.053-0.758c0,0,7.617-9.737,9.002-11.507c4.488-5.737-4.105-11.564-8.449-6.014
				c-3.35,4.282-8.643,11.255-8.643,11.255l-1.221-0.963c0,0,2.771-3.545,7.605-9.722c3.113-3.979,1.84-6.835-0.268-8.447
				c-2.107-1.611-5.01-1.767-8.049,2.119c-6.082,7.773-21.967,28.077-21.967,28.077l33.605,26.292c0,0,15.695-20.062,19.857-25.382
				c1.719-2.196,1-4.602-0.729-6.048c-1.801-1.506-4.314-1.903-6.143,0.434c-3.584,4.581-5.467,6.988-5.467,6.988l-1.092-0.789
				L947.757,611.448z"/>
			
				<rect x="896.19" y="625.78" transform="matrix(-0.7876 -0.6162 0.6162 -0.7876 1250.6975 1695.2222)" fill="#454545" width="42.668" height="12.54"/>
			<path fill="#C4C4C3" d="M941.532,619.405l4.666-5.964c1.719-2.196,1.184-4.46-0.547-5.906c-1.801-1.505-4.459-1.776-6.285,0.562
				c-3.586,4.579-4.826,5.774-4.826,5.774c-1.984,2.534-1.164,5.102,0.615,6.444C936.937,621.659,939.679,621.775,941.532,619.405z"
				/>
			<path fill="#C4C4C3" d="M949.581,625.696c2.162-2.763,2.285-2.918,3.564-4.553c1.717-2.196,1-4.602-0.73-6.048
				c-1.799-1.506-4.439-1.741-6.268,0.596c-2.039,2.605-3.459,4.421-3.459,4.421c-2.023,2.585-1.229,5.171,0.533,6.516
				C944.985,627.972,947.722,628.075,949.581,625.696z"/>
			<path fill="#C4C4C3" d="M919.048,595.479c1.949-2.49,0.463-0.588,2.105-2.69c3.041-3.886,5.941-3.73,8.051-2.121
				c2.107,1.613,3.379,4.471,0.266,8.45c-1.955,2.497-2.219,2.835-2.219,2.835c-2.416,3.09-5.721,3.075-7.795,1.484
				C917.384,601.849,916.54,598.685,919.048,595.479z"/>
			<path fill="#C4C4C3" d="M926.138,605.9c0,0,1.85-2.571,5.201-6.854c4.344-5.552,12.936,0.276,8.447,6.013
				c-1.385,1.771-5.559,7.107-5.559,7.107c-2.16,2.76-5.158,2.443-7.131,0.812C925.126,611.344,924.183,608.397,926.138,605.9z"/>
		</g>
		<g>
			<polygon fill="#454545" points="932.003,596.229 883.544,563.15 880.788,567.185 873.435,577.958 878.224,581.226 
				885.577,570.453 929.247,600.265 972.919,630.076 965.565,640.85 970.351,644.118 977.706,633.345 980.46,629.31 			"/>
			<polygon fill="#E5E5D8" points="923.138,609.216 853.597,561.745 803.636,634.934 873.175,682.405 942.714,729.875 
				992.677,656.687 			"/>
			<polygon fill="#C6C5B5" points="907.644,631.912 883.292,615.288 848.823,665.781 873.175,682.405 897.526,699.029 
				931.995,648.535 			"/>
			<polygon fill="#DDDDCE" points="906.388,633.752 883.854,618.368 850.642,667.022 873.175,682.405 895.708,697.787 
				928.923,649.133 			"/>
			<polygon fill="#454545" points="901.313,641.183 883.218,628.83 867.995,651.129 886.093,663.483 904.188,675.838 
				919.411,653.538 			"/>
			<polygon fill="#222222" points="919.593,614.409 883.226,589.585 876.056,600.09 912.421,624.914 948.786,649.739 
				955.958,639.233 			"/>
			
				<rect x="877.349" y="675.09" transform="matrix(0.8259 0.5637 -0.5637 0.8259 536.1184 -377.8798)" fill="#454545" width="5.363" height="8.412"/>
			
				<rect x="883.596" y="679.356" transform="matrix(0.8259 0.5639 -0.5639 0.8259 539.7706 -380.7118)" fill="#454545" width="5.364" height="8.411"/>
			
				<rect x="889.938" y="683.683" transform="matrix(0.8261 0.5636 -0.5636 0.8261 542.9341 -383.4098)" fill="#454545" width="5.365" height="8.414"/>
			
				<rect x="922.512" y="621.951" transform="matrix(0.8264 0.5631 -0.5631 0.8264 511.9218 -411.3972)" fill="#C6C5B5" width="1.342" height="5.218"/>
			
				<rect x="917.457" y="618.5" transform="matrix(0.8257 0.5641 -0.5641 0.8257 510.3395 -409.6406)" fill="#C6C5B5" width="1.344" height="5.217"/>
			
				<rect x="927.152" y="625.119" transform="matrix(0.8261 0.5636 -0.5636 0.8261 515.1365 -413.708)" fill="#C6C5B5" width="1.343" height="5.217"/>
			
				<rect x="931.767" y="628.269" transform="matrix(0.8253 0.5647 -0.5647 0.8253 519.2029 -416.3489)" fill="#C6C5B5" width="1.342" height="5.217"/>
			
				<rect x="936.42" y="631.445" transform="matrix(0.8268 0.5626 -0.5626 0.8268 519.0494 -417.3286)" fill="#C6C5B5" width="1.342" height="5.218"/>
			
				<rect x="941.059" y="634.612" transform="matrix(0.8264 0.5631 -0.5631 0.8264 522.2704 -419.6425)" fill="#C6C5B5" width="1.342" height="5.218"/>
			
				<rect x="945.691" y="637.706" transform="matrix(0.8251 0.5649 -0.5649 0.8251 527.1967 -422.6051)" fill="#C6C5B5" width="1.141" height="5.217"/>
			<circle fill="#C6C5B5" cx="941.292" cy="683.139" r="23.339"/>
			<circle fill="#454545" cx="941.293" cy="683.139" r="18.796"/>
			<circle fill="#C6C5B5" cx="974.588" cy="659.652" r="8.699"/>
			<circle fill="#454545" cx="974.588" cy="659.653" r="6.358"/>
			<circle fill="#EECC70" cx="941.292" cy="683.139" r="5.796"/>
			
				<rect x="870.89" y="670.682" transform="matrix(-0.826 -0.5637 0.5637 -0.826 1214.6929 1724.7639)" fill="#454545" width="5.365" height="8.411"/>
			
				<rect x="864.64" y="666.417" transform="matrix(-0.8259 -0.5638 0.5638 -0.8259 1205.5299 1713.5034)" fill="#454545" width="5.366" height="8.411"/>
			
				<rect x="858.3" y="662.089" transform="matrix(-0.8261 -0.5636 0.5636 -0.8261 1196.7039 1701.9255)" fill="#454545" width="5.365" height="8.411"/>
			
				<rect x="908.16" y="612.153" transform="matrix(-0.8259 -0.5637 0.5637 -0.8259 1312.9103 1634.8712)" fill="#C6C5B5" width="1.341" height="5.217"/>
			
				<rect x="912.659" y="615.227" transform="matrix(-0.8261 -0.5636 0.5636 -0.8261 1319.6194 1642.9297)" fill="#C6C5B5" width="1.343" height="5.216"/>
			
				<rect x="903.521" y="608.987" transform="matrix(-0.8256 -0.5642 0.5642 -0.8256 1305.615 1626.7158)" fill="#C6C5B5" width="1.341" height="5.217"/>
			
				<rect x="898.904" y="605.836" transform="matrix(-0.8261 -0.5636 0.5636 -0.8261 1299.7939 1618.0309)" fill="#C6C5B5" width="1.343" height="5.218"/>
			
				<rect x="894.252" y="602.659" transform="matrix(-0.8256 -0.5642 0.5642 -0.8256 1292.2645 1609.9343)" fill="#C6C5B5" width="1.341" height="5.217"/>
			
				<rect x="889.613" y="599.493" transform="matrix(-0.8259 -0.5637 0.5637 -0.8259 1286.1816 1601.2987)" fill="#C6C5B5" width="1.341" height="5.217"/>
			
				<rect x="885.181" y="596.4" transform="matrix(-0.8263 -0.5632 0.5632 -0.8263 1280.3314 1592.8245)" fill="#C6C5B5" width="1.139" height="5.216"/>
			<polygon fill="#EECC70" points="899.284,644.158 884.595,634.131 876.22,646.397 890.909,656.426 905.597,666.454 
				913.972,654.187 			"/>
			<path fill="#C6C5B5" d="M828.403,606.075c-7.268,10.646-4.529,25.169,6.115,32.436c10.648,7.268,25.168,4.529,32.438-6.118
				c7.266-10.644,4.527-25.166-6.119-32.434C850.19,592.692,835.669,595.431,828.403,606.075z"/>
			<path fill="#454545" d="M832.155,608.638c-5.854,8.574-3.648,20.268,4.924,26.12c8.576,5.854,20.271,3.649,26.125-4.926
				c5.852-8.574,3.646-20.269-4.928-26.123C849.702,597.856,838.009,600.062,832.155,608.638z"/>
			<path fill="#C6C5B5" d="M850.241,574.768c-2.709,3.968-1.689,9.38,2.277,12.088c3.971,2.709,9.383,1.689,12.09-2.279
				c2.711-3.968,1.689-9.381-2.279-12.091C858.362,569.778,852.948,570.799,850.241,574.768z"/>
			<path fill="#454545" d="M852.173,576.087c-1.979,2.899-1.234,6.856,1.666,8.835c2.902,1.982,6.857,1.235,8.836-1.666
				c1.98-2.899,1.236-6.856-1.666-8.838C858.11,572.438,854.153,573.186,852.173,576.087z"/>
			<circle fill="#EECC70" cx="847.679" cy="619.234" r="5.796"/>
			<polygon fill="#FADF8D" points="876.22,646.397 899.284,644.158 905.597,666.454 			"/>
		</g>
		<path fill="#EEEEEE" d="M853.175,702.829c8.354-17.5-3-34.278-15.604-46.232c-11.309-10.724-23.623-17.565-23.623-17.565
			s4.123,0.651,6.643-5.21c2.521-5.86-1.51-6.122-1.51-6.122s4.973-3.214,8.258-7c3.287-3.787,4.035-2.092,4.035-2.092
			s1.838,2.123,7.332-3.197c3.805-3.685,6.738-10.635,8.141-15.506c1.4-4.871-1.379-6.012-1.379-6.012l0.268-1.721
			c0,0,1.691-0.839,2.129-1.754c5.689-11.918,3.217-38.078-28.068-53.012c-31.283-14.934-53.178-0.403-58.867,11.515
			c-0.438,0.914-0.025,2.758-0.025,2.758l-1.17,1.29c0,0-2.635-1.443-5.541,2.709c-2.904,4.154-6.465,10.806-6.936,16.081
			c-0.682,7.617,2.123,7.711,2.123,7.711s1.791-0.484,0.912,4.452c-0.879,4.936-0.25,10.823-0.25,10.823s-2.736-2.97-5.709,2.676
			s0.127,8.44,0.127,8.44s-13.064-5.271-28.514-7.319c-17.221-2.282-32.582-7.753-40.936,9.747l22.537,28.802l6.99,3.654
			l-43.021,90.011c0,0-4.693,21.558,18.404,34.011c3.484,1.879,7.646,20.649,14.412,23.878c2.445,1.168,8.684-1.364,16.842,1.498
			c7.074,2.48,16.158-2.529,19.809-1.002c24.209,10.127,38.018-7.079,38.018-7.079l42.93-90.055l7.238,3.138L853.175,702.829z"/>
		<g>
			<path fill="#EEEEEE" d="M640.269,901.948l-49.229-23.499l-2.701,5.658l-4.117,8.625c0,0-20.217,37.26,6.379,49.955
				c24.615,11.749,43.324-27.447,43.324-27.447l3.645-7.634L640.269,901.948z"/>
			<path fill="#EEEEEE" d="M710.765,754.263c-27.924,58.499-23.148,48.496-35.65,74.687c-12.502,26.191-19.797,41.475-34.846,72.999
				l-49.229-23.499c15.682-32.854,22.361-46.847,34.844-72.998c12.482-26.152,6.004-12.577,35.65-74.688L710.765,754.263z"/>
			
				<rect x="588.38" y="883.927" transform="matrix(0.9025 0.4308 -0.4308 0.9025 443.5197 -178.3773)" fill="#454545" width="54.551" height="12.542"/>
			<polygon fill="#E0E0E0" points="642.972,896.289 619.343,819.154 675.923,827.256 			"/>
			<polygon fill="#E0E0E0" points="675.923,827.256 694.349,788.652 619.343,819.154 			"/>
		</g>
		<g>
			<polygon fill="#C4C4C3" points="767.87,646.192 736.284,631.115 717.187,671.124 748.772,686.201 780.358,701.278 
				799.456,661.27 			"/>
			<polygon fill="#DEDDDD" points="748.772,686.201 717.187,671.124 721.634,743.056 780.358,701.278 			"/>
			<polygon fill="#EEEEEE" points="766.435,649.2 737.524,635.4 723.452,664.882 752.362,678.681 781.271,692.48 795.343,663 			"/>
			<polygon fill="#FFFFFF" points="733.017,662.429 746.173,657.628 741.864,666.652 			"/>
			<polygon fill="#FFFFFF" points="746.173,657.628 733.017,662.429 737.325,653.404 			"/>
			<polygon fill="#FFFFFF" points="751.61,646.234 738.456,651.035 742.763,642.011 			"/>
			<polygon fill="#FFFFFF" points="738.456,651.035 751.61,646.234 747.304,655.259 			"/>
			<polygon fill="#B2B3B3" points="717.187,671.124 723.452,664.882 748.772,686.201 			"/>
			<polygon fill="#FFFFFF" points="777.163,683.501 772.622,670.254 768.315,679.277 			"/>
			<polygon fill="#FFFFFF" points="772.622,670.254 777.163,683.501 781.472,674.478 			"/>
			<polygon fill="#B2B3B3" points="780.358,701.278 781.271,692.48 748.772,686.201 			"/>
			<polygon fill="#A09F9F" points="752.362,678.681 723.452,664.882 748.772,686.201 781.271,692.48 			"/>
			<g>
				<polygon fill="#A09F9F" points="832.646,648.73 777.36,743.986 780.358,701.278 				"/>
				<polygon fill="#B2B3B3" points="823.505,642.228 780.358,701.278 832.646,648.73 				"/>
				<polygon fill="#8E8E8E" points="721.634,743.056 777.36,743.986 780.358,701.278 				"/>
				<polygon fill="#A09F9F" points="721.634,743.056 653.319,743.288 640.554,770.032 				"/>
			</g>
		</g>
		<g>
			<path fill="#EEEEEE" d="M689.495,857.342c21.832-34.777,23.117-45.086,22.25-57.585c-0.9-12.985-2.07-15.208,8.027-41.193
				l49.229,23.498c-9.451,24.448-3.625,35.724-7.477,48.29s-7.775,22.016-18.803,39.392l-3.229,6.763l-52.725-13.455
				L689.495,857.342z"/>
			<path fill="#EEEEEE" d="M686.769,863.051l52.725,13.455l-2.174,4.555c0,0-4.275,18.973-8.65,28.823
				c-4.631,10.429-14.426,20.425-28.303,13.802c-21.312-10.174-19.734-47.779-19.734-47.779l3.461-7.247L686.769,863.051z"/>
			<g>
				<defs>
					<path id="SVGID_151_" d="M689.495,857.342c21.832-34.777,23.117-45.086,22.25-57.585c-0.9-12.985-2.07-15.208,8.027-41.193
						l49.229,23.498c-9.451,24.448-3.625,35.724-7.477,48.29s-7.775,22.016-18.803,39.392l-3.229,6.763l-52.725-13.455
						L689.495,857.342z"/>
				</defs>
				<clipPath id="SVGID_18_">
					<use xlink:href="#SVGID_151_"  overflow="visible"/>
				</clipPath>
				<polygon clip-path="url(#SVGID_18_)" fill="#E0E0E0" points="689.495,857.342 761.524,830.352 710.815,814.408 				"/>
				<polygon clip-path="url(#SVGID_18_)" fill="#E0E0E0" points="710.815,814.408 711.175,790.143 761.524,830.352 				"/>
			</g>
			<polygon fill="#454545" points="684.093,868.659 737.319,881.061 742.722,869.743 689.495,857.342 			"/>
		</g>
		<path fill="#454545" d="M779.737,621.33c-30.607-14.61-33.578-19.021-35.922-22.817c-3.891,9.501,5.586,14.02,33.713,27.444
			c28.127,13.426,37.6,17.953,42.539,8.953C815.642,635.476,810.345,635.939,779.737,621.33z"/>
		<path fill="#FFFFFF" d="M817.374,542.482c-51.441-24.554-64.684,38.013-64.156,54.498c0,0,7.543,8.005,29.352,18.414
			c21.811,10.41,32.775,11.241,32.775,11.241C828.497,616.68,868.813,567.036,817.374,542.482z"/>
		<g>
			<defs>
				<path id="SVGID_153_" d="M815.974,545.415c-45.801-21.861-60.371,35.362-59.002,42.941c1.367,7.578,28.721,20.496,28.721,20.496
					s27.246,13.145,34,9.442C826.444,614.593,861.772,567.277,815.974,545.415z"/>
			</defs>
			<clipPath id="SVGID_20_">
				<use xlink:href="#SVGID_153_"  overflow="visible"/>
			</clipPath>
			<path clip-path="url(#SVGID_20_)" fill="#222222" d="M815.974,545.415c-45.801-21.861-60.371,35.362-59.002,42.941
				c1.367,7.578,28.721,20.496,28.721,20.496s27.246,13.145,34,9.442C826.444,614.593,861.772,567.277,815.974,545.415z"/>
			<polygon clip-path="url(#SVGID_20_)" fill="#282828" points="751.011,543.773 808.366,561.353 737.319,601.089 			"/>
			<polygon clip-path="url(#SVGID_20_)" fill="#222222" points="808.366,561.353 737.319,601.089 778.71,623.48 822.149,641.581 			
				"/>
			<polygon clip-path="url(#SVGID_20_)" fill="#303030" points="824.946,526.616 751.011,543.773 808.366,561.353 858.103,594.892 
							"/>
			<polygon clip-path="url(#SVGID_20_)" fill="#282828" points="858.103,594.892 808.366,561.353 822.149,641.581 			"/>
		</g>
		<g>
			<path fill="#EEEEEE" d="M718.407,600.085c-9.176-4.379-3.863-17.231,1.525-28.518c5.385-11.284,11.674-17.631,44.605-29.282
				l-14.23-40.224c-34.318,12.143-57.469,26.768-69.953,52.92c-14.92,31.259-15.523,66.81,24.184,85.764L718.407,600.085z"/>
			<path fill="#C4C4C3" d="M798.397,495.883c2.629-0.931,4.604,0.299,5.424,2.398c0.855,2.187,0.268,4.793-2.531,5.782
				c-5.48,1.939-22.406,8.185-22.406,8.185l0.385,1.239c0,0,21.527-7.616,23.645-8.365c6.869-2.43,9.658,7.572,3.012,9.924
				c-5.125,1.812-23.295,8.105-23.295,8.105l0.527,1.463c0,0,8.715-2.817,18.508-6.115c4.764-1.686,7.062-0.001,7.92,2.511
				c0.857,2.511,0.08,5.309-4.572,6.956c-9.303,3.291-40.475,14.319-40.475,14.319l-14.23-40.224c0,0,33.885-11.988,40.254-14.241
				c2.629-0.932,4.68,0.514,5.5,2.613c0.855,2.188,0.176,4.53-2.623,5.519c-5.482,1.94-17.98,6.618-17.98,6.618l0.402,1.286
				L798.397,495.883z"/>
			
				<rect x="736.086" y="515.904" transform="matrix(0.3336 0.9427 -0.9427 0.3336 997.0508 -366.0432)" fill="#454545" width="42.669" height="12.54"/>
		</g>
	</g>
</g>
<g id="Layer_2">
</g>
</svg>
