<?xml version="1.0" encoding="utf-8"?>
<!-- Generator: Adobe Illustrator 16.0.0, SVG Export Plug-In . SVG Version: 6.00 Build 0)  -->
<!DOCTYPE svg PUBLIC "-//W3C//DTD SVG 1.1//EN" "http://www.w3.org/Graphics/SVG/1.1/DTD/svg11.dtd">
<svg version="1.1" id="Layer_1" xmlns="http://www.w3.org/2000/svg" xmlns:xlink="http://www.w3.org/1999/xlink" x="0px" y="0px"
	 width="61.639px" height="125.309px" viewBox="0 0 61.639 125.309" enable-background="new 0 0 61.639 125.309"
	 xml:space="preserve">
<g>
	<g>
		<polygon fill="#6B3833" points="37.273,94.41 44.92,89.037 43.416,86.876 37.135,91.289 36.777,83.284 34.944,76.233 
			34.944,46.769 25.916,46.769 26.752,58.477 27.744,72.285 28.142,77.835 28.464,79.413 19.96,77.835 19.5,80.43 29.029,82.2 
			30.211,87.999 30.211,103.943 30.213,103.946 28.952,114.688 27.71,123.167 37.739,124.167 37.681,121.843 38.332,118.304 
			34.272,111.124 38.334,118.306 		"/>
		<polygon fill="#76710E" points="30.819,-0.142 0,15.706 0,51.367 5.484,54.693 30.819,70.049 55.725,54.952 61.639,51.367 
			61.639,15.706 		"/>
	</g>
	<g>
		<polygon fill="#703E39" points="38.334,118.447 30.211,104.085 30.211,88.141 32.304,82.947 32.972,81.281 34.944,76.375 
			36.777,83.426 37.135,91.433 37.273,94.551 		"/>
		<polygon fill="#703E39" points="34.944,46.91 34.944,76.375 32.972,81.281 32.304,82.947 30.211,88.141 29.029,82.342 
			28.464,79.555 28.142,77.977 27.744,72.427 26.752,58.618 25.916,46.91 		"/>
		<polygon fill="#73413C" points="38.332,118.445 37.681,121.984 27.71,123.309 28.952,114.83 30.213,104.087 		"/>
		<polygon fill="#6B3833" points="37.739,124.309 33.021,125.309 27.71,123.309 37.681,121.984 		"/>
		<polygon fill="#6B3833" points="44.92,89.179 37.272,94.553 37.133,91.432 43.416,87.018 		"/>
		<polygon fill="#6B3833" points="29.029,82.342 19.5,80.571 19.96,77.977 28.464,79.555 		"/>
		<g>
			<polygon fill="#676300" points="55.725,55.094 30.819,70.19 5.484,54.835 			"/>
			<polygon fill="#7D781B" points="30.819,0 30.819,21.623 0,15.848 			"/>
			<polygon fill="#6F6A00" points="61.639,15.848 30.819,21.623 30.819,0 			"/>
			<polygon fill="#6F6A00" points="5.484,54.835 0,51.509 0,15.848 			"/>
			<polygon fill="#676300" points="61.639,15.848 61.639,51.509 55.725,55.094 			"/>
			<polygon fill="#6F6A00" points="55.725,55.094 5.484,54.835 30.819,21.623 			"/>
			<polygon fill="#76710E" points="30.819,21.623 5.484,54.835 0,15.848 			"/>
			<polygon fill="#76710E" points="61.639,15.848 55.725,55.094 30.819,21.623 			"/>
		</g>
	</g>
</g>
</svg>
