<?xml version="1.0" encoding="utf-8"?>
<!-- Generator: Adobe Illustrator 16.0.0, SVG Export Plug-In . SVG Version: 6.00 Build 0)  -->
<!DOCTYPE svg PUBLIC "-//W3C//DTD SVG 1.1//EN" "http://www.w3.org/Graphics/SVG/1.1/DTD/svg11.dtd">
<svg version="1.1" id="Layer_1" xmlns="http://www.w3.org/2000/svg" xmlns:xlink="http://www.w3.org/1999/xlink" x="0px" y="0px"
	 width="129.683px" height="49.146px" viewBox="0 0 129.683 49.146" enable-background="new 0 0 129.683 49.146"
	 xml:space="preserve">
<polygon fill="#DBE3E5" points="123.191,29.363 106.294,22.965 94.812,14.436 79.591,12.238 78.902,12.139 70.738,2.461 49.773,0 
	43.795,7.218 33.368,13.451 18.664,14.938 18.769,14.947 18.765,14.947 18.656,14.959 13.427,29.916 0,42.533 28.138,49.146 
	70.738,45.646 105.285,45.646 129.683,42.533 "/>
<g>
	<polygon fill="#DDE5E5" points="0,42.533 28.138,49.146 13.427,29.916 	"/>
	<polygon fill="#D7E0E3" points="79.591,12.238 91.861,27.23 94.812,14.436 	"/>
	<polygon fill="#CFDEE3" points="70.738,45.646 91.861,27.23 79.591,12.238 78.902,12.139 	"/>
	<polygon fill="#DCE1E6" points="70.738,45.646 105.285,45.646 91.861,27.23 	"/>
	<polygon fill="#DCE1E6" points="105.285,45.646 129.683,42.533 123.191,29.363 	"/>
	<polygon fill="#E8E7E7" points="91.861,27.23 123.191,29.363 106.294,22.965 	"/>
	<polygon fill="#E8E7E7" points="91.861,27.23 105.285,45.646 123.191,29.363 	"/>
	<polygon fill="#E8E7E7" points="13.427,29.916 28.138,49.146 70.738,45.646 78.902,12.139 70.738,2.461 49.773,0 43.795,7.218 
		33.368,13.451 18.765,14.947 18.656,14.959 	"/>
	<polygon fill="#D3DFE4" points="49.773,0 58.997,18.547 70.738,2.461 	"/>
	<polygon fill="#DCE1E6" points="58.997,18.547 33.368,13.451 43.795,7.218 	"/>
	<polygon fill="#D8DDDE" points="18.664,14.938 30.304,15.979 33.368,13.451 	"/>
	<polygon fill="#DDE5E5" points="58.997,18.547 30.304,15.979 13.427,29.916 	"/>
	<polygon fill="#E3E7E7" points="13.427,29.916 28.138,49.146 58.997,18.547 	"/>
	<polygon fill="#D8DDDE" points="28.138,49.146 70.738,45.646 58.997,18.547 	"/>
	<polygon fill="#DBE3E5" points="58.997,18.547 70.738,45.646 78.902,12.139 70.738,2.461 	"/>
	<polygon fill="#D8DDDE" points="91.861,27.23 106.294,22.965 94.812,14.436 	"/>
	<polygon fill="#DCE1E6" points="91.861,27.23 105.285,45.646 123.191,29.363 	"/>
</g>
</svg>
