<?xml version="1.0" encoding="utf-8"?>
<!-- Generator: Adobe Illustrator 16.0.0, SVG Export Plug-In . SVG Version: 6.00 Build 0)  -->
<!DOCTYPE svg PUBLIC "-//W3C//DTD SVG 1.1//EN" "http://www.w3.org/Graphics/SVG/1.1/DTD/svg11.dtd">
<svg version="1.1" id="Layer_1" xmlns="http://www.w3.org/2000/svg" xmlns:xlink="http://www.w3.org/1999/xlink" x="0px" y="0px"
	 width="178.047px" height="67.476px" viewBox="0 0 178.047 67.476" enable-background="new 0 0 178.047 67.476"
	 xml:space="preserve">
<polygon fill="#E3E7E7" points="159.615,41.074 152.437,20.537 152.29,20.522 152.426,20.51 132.236,18.469 117.92,9.91 109.715,0 
	80.93,3.379 69.722,16.666 68.775,16.805 47.876,19.82 32.111,31.531 8.914,40.314 0.002,58.396 33.499,62.67 80.93,62.67 
	139.417,67.477 178.049,58.396 "/>
<g>
	<polygon fill="#DDE5E5" points="178.049,58.396 139.417,67.477 159.615,41.074 	"/>
	<polygon fill="#D7E0E3" points="68.775,16.805 51.93,37.387 47.876,19.82 	"/>
	<polygon fill="#CFDEE3" points="80.93,62.67 51.93,37.387 68.775,16.805 69.722,16.666 	"/>
	<polygon fill="#DCE1E6" points="80.93,62.67 33.499,62.67 51.93,37.387 	"/>
	<polygon fill="#DCE1E6" points="33.499,62.67 0.002,58.396 8.914,40.314 	"/>
	<polygon fill="#E8E7E7" points="51.93,37.387 8.914,40.314 32.111,31.531 	"/>
	<polygon fill="#E8E7E7" points="51.93,37.387 33.499,62.67 8.914,40.314 	"/>
	<polygon fill="#E8E7E7" points="159.615,41.074 139.417,67.477 80.93,62.67 69.722,16.666 80.93,3.379 109.715,0 117.92,9.91 
		132.236,18.469 152.285,20.521 152.437,20.537 	"/>
	<polygon fill="#D3DFE4" points="109.715,0 97.05,25.465 80.93,3.379 	"/>
	<polygon fill="#DCE1E6" points="97.05,25.465 132.236,18.469 117.92,9.91 	"/>
	<polygon fill="#D8DDDE" points="152.426,20.51 136.441,21.939 132.236,18.469 	"/>
	<polygon fill="#DDE5E5" points="97.05,25.465 136.441,21.939 159.615,41.074 	"/>
	<polygon fill="#E3E7E7" points="159.615,41.074 139.417,67.477 97.05,25.465 	"/>
	<polygon fill="#D8DDDE" points="139.417,67.477 80.93,62.67 97.05,25.465 	"/>
	<polygon fill="#DBE3E5" points="97.05,25.465 80.93,62.67 69.722,16.666 80.93,3.379 	"/>
	<polygon fill="#D8DDDE" points="51.93,37.387 32.111,31.531 47.876,19.82 	"/>
	<polygon fill="#DCE1E6" points="51.93,37.387 33.499,62.67 8.914,40.314 	"/>
</g>
</svg>
