<?xml version="1.0" encoding="utf-8"?>
<!-- Generator: Adobe Illustrator 16.0.0, SVG Export Plug-In . SVG Version: 6.00 Build 0)  -->
<!DOCTYPE svg PUBLIC "-//W3C//DTD SVG 1.1//EN" "http://www.w3.org/Graphics/SVG/1.1/DTD/svg11.dtd">
<svg version="1.1" id="Layer_1" xmlns="http://www.w3.org/2000/svg" xmlns:xlink="http://www.w3.org/1999/xlink" x="0px" y="0px"
	 width="558.668px" height="487.673px" viewBox="0 0 558.668 487.673" enable-background="new 0 0 558.668 487.673"
	 xml:space="preserve">
<path fill="#737477" d="M542.589,448.78l-0.268-0.03l-11.502-14.274l-0.055-0.064v-0.012l-61.146-75.886v-55.059l-77.855-177.036
	l-35.889,91.066l-19.751,50.113L277.931,119.95L230.657,0l-102.55,233.187v-0.001L31.985,424.598l-0.001,0.006L0,473.755h18.458
	l91.877,13.92h16.057l41.867-7.253l31.931,7.253l45.272-11.253h44.712h30.353l58.248,11.253h39.445h19.69l23.237-11.253h15.268
	h70.25l12.003-4.667L542.589,448.78z"/>
<g>
	<g>
		<polygon fill="#7D7F82" points="290.174,476.422 245.462,476.422 263.401,396.012 279.782,417.422 320.526,476.422 		"/>
		<polygon fill="#737477" points="379.132,376.711 372.72,420.071 371.465,428.583 369.626,440.995 362.728,476.422 
			333.556,476.422 320.526,476.422 279.782,417.422 263.401,396.012 287.071,392.066 364.383,379.178 		"/>
		<polygon fill="#5F6062" points="263.407,396.018 379.128,376.713 277.931,119.95 		"/>
		<polygon fill="#5F6062" points="128.107,233.188 277.931,119.95 230.657,0 		"/>
		<polygon fill="#737477" points="128.107,233.188 263.407,396.018 277.931,119.95 		"/>
		<polygon fill="#808285" points="263.401,396.012 245.462,476.422 200.189,487.675 176.833,424.604 		"/>
		<polygon fill="#5F6062" points="200.189,487.675 168.259,480.422 176.833,424.604 		"/>
		<polygon fill="#929497" points="176.833,424.604 126.392,487.675 110.335,487.675 127.786,413.801 176.822,424.604 		"/>
		<polygon fill="#858789" points="176.833,424.604 168.259,480.422 126.392,487.675 		"/>
		<polygon fill="#858789" points="128.107,233.188 176.829,424.602 263.407,396.018 		"/>
		<polygon fill="#858789" points="176.827,424.598 127.781,413.805 128.107,411.51 128.107,233.186 		"/>
		<polygon fill="#999B9E" points="127.786,413.801 110.335,487.675 18.458,473.755 31.984,424.604 		"/>
		<polygon fill="#929497" points="127.781,305.715 127.781,413.805 31.985,424.598 		"/>
		<polygon fill="#7D7F82" points="378.774,487.675 320.526,476.422 328.213,464.505 366.901,427.079 369.626,440.995 
			369.93,442.554 369.94,442.606 369.951,442.649 		"/>
		<polygon fill="#757679" points="366.901,427.079 333.556,468.228 320.526,476.422 290.174,476.422 279.782,417.422 
			279.048,412.417 		"/>
		<polygon fill="#808285" points="366.899,427.077 279.044,412.42 355.874,217.485 		"/>
		<polygon fill="#8D8F92" points="469.618,303.455 355.874,217.485 391.763,126.419 		"/>
		<polygon fill="#929497" points="469.618,303.455 366.899,427.077 355.874,217.485 		"/>
		<polygon fill="#808285" points="432.622,448.78 418.22,487.675 378.774,487.675 369.951,442.649 369.94,442.606 369.93,442.554 
			369.626,440.995 366.901,427.079 371.465,428.583 399.255,437.763 399.329,437.794 399.341,437.794 		"/>
		<polygon fill="#757679" points="437.91,487.675 418.22,487.675 432.622,448.78 		"/>
		<polygon fill="#5F6062" points="476.415,476.422 461.147,476.422 432.634,448.78 469.862,440.585 		"/>
		<polygon fill="#5F6062" points="461.147,476.422 437.91,487.675 432.622,448.78 		"/>
		<polygon fill="#858789" points="469.618,303.455 432.629,448.776 366.899,427.077 		"/>
		<polygon fill="#5F6062" points="469.864,440.581 432.629,448.776 469.618,303.455 469.618,438.839 		"/>
		<polygon fill="#5F6062" points="558.668,471.755 546.665,476.422 542.589,448.78 		"/>
		<polygon fill="#76777A" points="546.665,476.422 476.415,476.422 469.862,440.585 542.589,448.78 		"/>
		<polygon fill="#737477" points="542.346,448.78 469.618,440.585 469.618,358.514 530.765,434.399 530.765,434.411 
			530.819,434.476 		"/>
		<polygon fill="#858789" points="128.107,233.186 128.107,411.51 127.781,413.805 127.781,305.715 31.985,424.598 		"/>
		<polygon fill="#5F6062" points="31.984,424.604 18.458,473.755 0,473.755 		"/>
	</g>
</g>
</svg>
