<?xml version="1.0" encoding="utf-8"?>
<!-- Generator: Adobe Illustrator 16.0.0, SVG Export Plug-In . SVG Version: 6.00 Build 0)  -->
<!DOCTYPE svg PUBLIC "-//W3C//DTD SVG 1.1//EN" "http://www.w3.org/Graphics/SVG/1.1/DTD/svg11.dtd">
<svg version="1.1" id="Layer_1" xmlns="http://www.w3.org/2000/svg" xmlns:xlink="http://www.w3.org/1999/xlink" x="0px" y="0px"
	 width="143.921px" height="314.144px" viewBox="0 0 143.921 314.144" enable-background="new 0 0 143.921 314.144"
	 xml:space="preserve">
<g>
	<g>
		<polygon fill="#6B3833" points="87.028,242.331 104.884,229.778 101.37,224.735 86.705,235.038 85.87,216.349 81.59,199.886 
			81.59,131.089 60.511,131.089 62.463,158.427 64.777,190.665 65.707,203.628 66.461,207.315 49.301,192.849 48.225,198.905 
			67.779,213.817 70.539,227.358 70.539,264.591 70.543,264.597 67.598,289.675 64.699,310.144 88.117,311.144 87.979,305.718 
			89.5,298.116 77.903,277.61 89.505,298.12 		"/>
		<polygon fill="#76710E" points="71.959,0 -0.001,37.006 -0.001,120.271 12.805,128.036 71.959,163.884 130.111,128.64 
			143.92,120.271 143.92,37.006 		"/>
		<polygon fill="#76710E" points="117.488,193.823 95.74,198.192 89.505,220.153 92.301,223.161 105.217,237.044 123.191,232.103 
			127.461,230.929 133.695,208.972 		"/>
	</g>
	<g>
		<polygon fill="#703E39" points="89.505,298.12 70.539,264.591 70.539,227.358 75.426,215.229 76.986,211.341 81.59,199.886 
			85.87,216.349 86.705,235.046 87.028,242.327 		"/>
		<polygon fill="#703E39" points="81.59,131.089 81.59,199.886 76.986,211.341 75.426,215.229 70.539,227.358 67.779,213.817 
			66.461,207.315 65.707,203.628 64.777,190.665 62.463,158.427 60.511,131.089 		"/>
		<polygon fill="#73413C" points="89.5,298.116 87.979,305.718 64.699,310.144 67.598,289.675 70.543,264.595 		"/>
		<polygon fill="#6B3833" points="88.117,311.144 78.09,314.144 64.699,310.144 87.979,305.718 		"/>
		<polygon fill="#6B3833" points="104.884,229.778 87.026,242.331 86.701,235.042 101.37,224.735 		"/>
		<polygon fill="#6B3833" points="67.779,213.817 48.225,198.905 49.301,192.849 66.461,207.315 		"/>
		<g>
			<polygon fill="#676300" points="130.111,128.64 71.959,163.884 12.805,128.036 			"/>
			<polygon fill="#7D781B" points="71.959,0 71.959,50.488 -0.001,37.006 			"/>
			<polygon fill="#6F6A00" points="143.92,37.006 71.959,50.488 71.959,0 			"/>
			<polygon fill="#6F6A00" points="12.805,128.036 -0.001,120.271 -0.001,37.006 			"/>
			<polygon fill="#676300" points="143.92,37.006 143.92,120.271 130.111,128.64 			"/>
			<polygon fill="#6F6A00" points="130.111,128.64 12.805,128.036 71.959,50.488 			"/>
			<polygon fill="#76710E" points="71.959,50.488 12.805,128.036 -0.001,37.006 			"/>
			<polygon fill="#76710E" points="143.92,37.006 130.111,128.64 71.959,50.488 			"/>
		</g>
		<g>
			<polygon fill="#676300" points="123.191,232.103 105.217,237.044 92.301,223.161 			"/>
			<polygon fill="#7D781B" points="117.488,193.823 113.708,207.138 95.74,198.192 			"/>
			<polygon fill="#6F6A00" points="133.695,208.972 113.708,207.138 117.488,193.823 			"/>
			<polygon fill="#6F6A00" points="92.301,223.161 89.505,220.153 95.74,198.192 			"/>
			<polygon fill="#676300" points="133.695,208.972 127.461,230.929 123.191,232.103 			"/>
			<polygon fill="#6F6A00" points="123.191,232.103 92.301,223.161 113.708,207.138 			"/>
			<polygon fill="#76710E" points="113.708,207.138 92.301,223.161 95.74,198.192 			"/>
			<polygon fill="#76710E" points="133.695,208.972 123.191,232.103 113.708,207.138 			"/>
		</g>
	</g>
</g>
</svg>
