<?xml version="1.0" encoding="utf-8"?>
<!-- Generator: Adobe Illustrator 16.0.0, SVG Export Plug-In . SVG Version: 6.00 Build 0)  -->
<!DOCTYPE svg PUBLIC "-//W3C//DTD SVG 1.1//EN" "http://www.w3.org/Graphics/SVG/1.1/DTD/svg11.dtd">
<svg version="1.1" id="Layer_1" xmlns="http://www.w3.org/2000/svg" xmlns:xlink="http://www.w3.org/1999/xlink" x="0px" y="0px"
	 width="340.609px" height="227.06px" viewBox="0 0 340.609 227.06" enable-background="new 0 0 340.609 227.06"
	 xml:space="preserve">
<g opacity="0.9">
	<polygon opacity="0.79" fill="#DDDEDE" points="334.833,200.049 292.96,186.833 271.669,175.374 256.187,156.93 235.185,145.991 
		215.375,142.083 176.339,124.768 165.066,103.153 149.882,89.842 100.585,74.396 69.569,53.161 69.567,53.162 69.568,53.161 
		55.029,21.676 31.664,6.568 1.975,0 1.919,0.035 1.75,0 0,1.256 0,1.411 0,19.04 0,19.124 0,32.844 0,32.902 0,53.525 0,53.814 
		0,103.428 0,103.756 0,118.713 0,139.614 0,139.795 0,188.311 0,188.928 0,206.967 0,207.135 0,213.741 0,214.526 0,214.536 
		8.844,213.741 67.515,227.059 67.606,227.03 67.736,227.059 109.396,213.735 221.132,213.735 271.449,219.829 271.515,219.81 
		271.669,219.829 292.96,213.735 340.83,208.762 	"/>
</g>
<g>
	<polygon fill="#D4D5D6" points="271.669,175.374 292.96,213.735 292.96,186.833 	"/>
	<polygon fill="#D4D5D6" points="215.375,142.083 221.353,213.735 256.187,156.93 235.185,145.991 	"/>
	<polygon fill="#D4D5D6" points="100.585,74.396 117.384,196.651 133.313,118.709 	"/>
	<polygon fill="#D4D5D6" points="117.384,196.651 109.396,213.735 221.353,213.735 	"/>
	<polygon fill="#D4D5D6" points="69.568,53.161 69.496,53.259 46.248,84.629 46.085,84.555 10.46,67.445 10.425,67.399 0,53.525 
		0,32.844 69.308,53.091 	"/>
	<polygon fill="#D4D5D6" points="9.033,213.727 9.041,213.741 0,213.741 0,188.311 8.98,213.573 	"/>
	<polygon fill="#D4D5D6" points="17.564,154.456 17.304,154.239 0,139.614 0,103.428 10.236,118.387 10.46,118.713 10.46,118.739 	
		"/>
	<polygon fill="#DADBDC" points="176.339,124.768 176.339,176.956 221.353,213.735 215.375,142.083 	"/>
	<polygon fill="#D8D9DA" points="109.396,213.735 221.353,213.735 117.384,196.651 	"/>
	<polygon fill="#DDDEDE" points="215.375,142.083 221.353,213.735 256.187,156.93 235.185,145.991 	"/>
	<polygon fill="#DDDEDE" points="221.353,213.735 252.474,190.006 271.669,175.374 256.187,156.93 	"/>
	<polygon fill="#DADBDC" points="221.353,213.735 271.669,219.829 292.96,213.735 271.669,175.374 252.474,190.006 	"/>
	<polygon fill="#DFE0E0" points="292.96,186.833 292.96,213.735 340.83,208.762 334.833,200.049 	"/>
	<polygon fill="#D8D9DA" points="9.024,213.727 9.015,213.727 8.898,213.741 8.845,213.741 0,214.536 0,206.967 8.736,213.499 
		8.916,213.643 	"/>
	<polygon fill="#D8D9DA" points="10.46,67.445 10.46,118.713 10.236,118.387 0,103.428 0,53.525 10.425,67.399 	"/>
	<polygon fill="#DDDEDE" points="31.664,6.568 31.528,6.629 0,19.124 0,1.411 1.919,0.035 1.975,0 	"/>
	<polygon fill="#DFE0E0" points="69.568,53.161 69.308,53.091 0,32.844 0,19.124 31.528,6.629 31.664,6.568 55.029,21.676 	"/>
	<polygon fill="#D8D9DA" points="10.458,67.445 46.248,84.635 69.569,53.161 	"/>
	<polygon fill="#DDDEDE" points="69.568,53.161 69.407,53.199 69.298,53.224 10.46,67.445 10.425,67.399 0,53.525 0,32.844 
		69.308,53.091 	"/>
	<polygon fill="#DADBDC" points="10.46,118.713 0,118.713 0,103.428 10.236,118.387 	"/>
	<polygon fill="#DFE0E0" points="100.585,74.396 133.313,118.709 165.066,103.153 149.882,89.842 	"/>
	<polygon fill="#DFE0E0" points="10.458,67.445 10.458,118.709 74.742,123.917 46.248,84.635 	"/>
	<polygon fill="#DFE0E0" points="117.384,196.651 221.353,213.735 176.339,176.956 133.313,118.709 	"/>
	<polygon fill="#DDDEDE" points="271.669,175.374 292.96,213.735 292.96,186.833 	"/>
	<polygon fill="#DDDEDE" points="133.313,118.709 176.339,176.956 176.339,124.768 165.066,103.153 	"/>
	<polygon fill="#DADBDC" points="100.585,74.396 117.384,196.651 133.313,118.709 	"/>
	<polygon fill="#D6D7D8" points="9.039,213.735 67.736,227.059 109.396,213.735 117.386,196.649 80.664,173.516 31.664,191.018 	"/>
	<polygon fill="#E0E1E1" points="46.248,84.635 74.742,123.917 100.585,74.396 69.569,53.161 	"/>
	<polygon fill="#DDDEDE" points="74.742,123.917 77.736,149.008 80.664,173.516 117.386,196.649 100.585,74.396 	"/>
	<polygon fill="#D8D9DA" points="10.458,118.709 17.566,154.454 31.664,191.018 80.664,173.516 77.736,149.008 74.742,123.917 	"/>
	<polygon fill="#D8D9DA" points="17.564,154.456 17.304,154.239 0,139.614 0,118.713 10.46,118.713 10.46,118.739 	"/>
	<polygon fill="#D6D7D8" points="31.664,191.018 9.041,213.741 9.033,213.727 8.98,213.573 0,188.311 0,139.614 17.304,154.239 
		17.564,154.456 31.636,190.946 	"/>
	<polygon fill="#DADBDC" points="8.98,213.583 9.024,213.727 9.015,213.727 8.916,213.643 8.908,213.643 8.736,213.522 0,206.967 
		0,188.311 8.98,213.573 	"/>
	<polygon fill="#DADBDC" points="9.033,213.727 9.033,213.741 9.024,213.727 	"/>
	<polygon fill="#D4D5D6" points="271.449,175.374 292.74,213.735 292.74,186.833 	"/>
	<polygon fill="#D4D5D6" points="215.154,142.083 221.132,213.735 255.966,156.93 234.964,145.991 	"/>
	<polygon fill="#DADBDC" points="176.121,124.768 176.121,176.956 221.132,213.735 215.154,142.083 	"/>
	<polygon opacity="0.83" fill="#D8D9DA" points="109.173,213.735 221.132,213.735 117.164,196.651 	"/>
	<polygon fill="#DDDEDE" points="215.154,142.083 221.132,213.735 255.966,156.93 234.964,145.991 	"/>
	<polygon fill="#DDDEDE" points="221.132,213.735 252.253,190.006 271.449,175.374 255.966,156.93 	"/>
	<polygon fill="#DADBDC" points="221.132,213.735 271.449,219.829 292.74,213.735 271.449,175.374 252.253,190.006 	"/>
	<polygon fill="#DFE0E0" points="292.74,186.833 292.74,213.735 340.609,208.762 334.613,200.049 	"/>
	<polygon opacity="0.79" fill="#D8D9DA" points="8.8,213.727 8.673,213.741 0,214.526 0,207.135 	"/>
	<polygon opacity="0.9" fill="#D8D9DA" points="10.236,67.445 10.236,118.713 0,103.756 0,53.814 	"/>
	<polygon fill="#DDDEDE" points="31.439,6.568 0,19.04 0,1.256 1.75,0 1.919,0.035 	"/>
	<polygon fill="#DFE0E0" points="69.343,53.161 0,32.902 0,19.04 31.439,6.568 31.528,6.629 54.814,21.676 69.308,53.091 	"/>
	<polygon opacity="0.86" fill="#D8D9DA" points="10.238,67.445 46.027,84.635 69.347,53.161 	"/>
	<polygon opacity="0.94" fill="#DDDEDE" points="69.343,53.161 10.425,67.399 10.236,67.445 0,53.814 0,32.902 	"/>
	<polygon opacity="0.86" fill="#DADBDC" points="10.236,118.713 0,118.713 0,103.756 	"/>
	<polygon fill="#DFE0E0" points="100.364,74.396 133.091,118.709 164.847,103.153 149.662,89.842 	"/>
	<polygon opacity="0.9" fill="#DFE0E0" points="10.238,67.445 10.238,118.709 74.523,123.917 46.027,84.635 	"/>
	<polygon opacity="0.9" fill="#DFE0E0" points="117.164,196.651 221.132,213.735 176.121,176.956 133.091,118.709 	"/>
	<polygon fill="#DDDEDE" points="271.449,175.374 292.74,213.735 292.74,186.833 	"/>
	<polygon fill="#DDDEDE" points="133.091,118.709 176.121,176.956 176.121,124.768 164.847,103.153 	"/>
	<polygon opacity="0.9" fill="#DADBDC" points="100.364,74.394 117.164,196.649 133.091,118.708 	"/>
	<polygon opacity="0.82" fill="#D6D7D8" points="8.818,213.735 67.515,227.059 109.175,213.735 117.166,196.649 80.443,173.516 
		31.443,191.018 	"/>
	<polygon fill="#E0E1E1" points="46.027,84.635 74.523,123.917 100.365,74.396 69.347,53.161 	"/>
	<polygon opacity="0.9" fill="#DDDEDE" points="74.523,123.917 77.517,149.008 80.443,173.516 117.166,196.649 100.365,74.396 	"/>
	<polygon opacity="0.84" fill="#DBDCDC" points="10.238,118.709 17.346,154.454 31.443,191.018 80.443,173.516 77.517,149.008 
		74.523,123.917 	"/>
	<polygon opacity="0.87" fill="#D8D9DA" points="17.349,154.456 0,139.795 0,118.713 10.236,118.713 17.304,154.239 	"/>
	<polygon opacity="0.79" fill="#D6D7D8" points="31.439,191.018 8.98,213.573 8.98,213.583 8.916,213.643 8.908,213.643 
		8.818,213.741 8.808,213.727 8.736,213.522 8.736,213.499 0,188.928 0,139.795 17.349,154.456 	"/>
	<polygon opacity="0.79" fill="#DADBDC" points="8.808,213.727 8.8,213.727 0,207.135 0,188.928 8.736,213.499 8.736,213.522 	"/>
</g>
</svg>
