<?xml version="1.0" encoding="utf-8"?>
<!-- Generator: Adobe Illustrator 16.0.0, SVG Export Plug-In . SVG Version: 6.00 Build 0)  -->
<!DOCTYPE svg PUBLIC "-//W3C//DTD SVG 1.1//EN" "http://www.w3.org/Graphics/SVG/1.1/DTD/svg11.dtd">
<svg version="1.1" id="Layer_1" xmlns="http://www.w3.org/2000/svg" xmlns:xlink="http://www.w3.org/1999/xlink" x="0px" y="0px"
	 width="400.816px" height="129.188px" viewBox="0 0 400.816 129.188" enable-background="new 0 0 400.816 129.188"
	 xml:space="preserve">
<g>
	<polygon opacity="0.9" fill="#D8E1EB" points="396.154,112.297 363.598,104.903 347.045,98.491 335.006,88.174 318.68,82.055 
		303.275,79.87 272.928,70.184 264.162,58.09 252.357,50.647 214.029,42.004 189.914,30.125 189.914,30.125 178.613,12.512 
		160.443,4.059 137.358,0.388 125.254,6.643 120.346,15.5 120.346,15.5 107.736,28.715 107.736,28.715 107.736,28.715 
		107.736,28.715 107.734,28.715 107.734,28.715 97.967,33.258 89.566,37.167 88.006,39.6 78.27,54.778 61.63,69.708 61.635,69.708 
		61.635,69.708 61.633,69.708 39.553,79.87 23.459,88.477 12.877,98.491 0,107.245 1.437,116.405 57.949,119.952 57.949,119.952 
		57.949,119.952 57.961,119.952 74.429,124.372 142.805,119.952 142.854,119.952 188.49,127.407 220.879,119.952 307.924,119.952 
		347.045,123.36 363.598,119.952 400.816,117.17 	"/>
	<g>
		<polygon fill="#D3DDE8" points="272.928,69.796 272.928,98.99 307.926,119.564 303.275,79.482 		"/>
		<polygon opacity="0.83" fill="#D0DAE6" points="220.879,119.564 307.926,119.564 227.09,110.007 		"/>
		<polygon fill="#D5DFE9" points="303.275,79.482 307.926,119.564 335.006,87.787 318.68,81.667 		"/>
		<polygon fill="#D5DFE9" points="307.926,119.564 332.121,106.291 347.045,98.103 335.006,87.787 		"/>
		<polygon fill="#D3DDE8" points="307.926,119.564 347.045,122.972 363.598,119.564 347.045,98.103 332.121,106.291 		"/>
		<polygon fill="#D8E1EB" points="363.598,104.515 363.598,119.564 400.816,116.783 396.154,111.91 		"/>
		<polygon opacity="0.79" fill="#D5DFE9" points="61.63,69.32 116.592,66.408 78.271,54.39 		"/>
		<polygon opacity="0.79" fill="#D5DFE9" points="61.633,69.32 97.434,95.083 116.596,66.408 		"/>
		<polygon opacity="0.79" fill="#D0DAE6" points="57.949,119.562 74.427,123.984 142.848,119.562 97.43,95.083 		"/>
		<polygon opacity="0.79" fill="#D5DFE9" points="1.438,116.017 57.949,119.564 23.458,88.089 12.877,98.103 0,106.857 		"/>
		<polygon opacity="0.79" fill="#D1DBE7" points="78.271,54.39 116.592,66.408 89.566,36.779 		"/>
		<polygon opacity="0.84" fill="#D0DAE6" points="89.566,36.779 116.592,66.408 107.734,28.328 		"/>
		<polygon opacity="0.9" fill="#D0DAE6" points="107.736,28.328 143.957,66.408 143.957,37.728 120.348,15.113 		"/>
		<polygon fill="#D5DFE9" points="120.346,15.113 160.443,3.671 137.359,0 125.254,6.255 		"/>
		<polygon fill="#D8E1EB" points="120.346,15.113 189.914,29.738 178.613,12.125 160.443,3.671 		"/>
		<polygon opacity="0.86" fill="#D0DAE6" points="143.957,37.728 171.784,47.345 189.914,29.738 		"/>
		<polygon opacity="0.94" fill="#D5DFE9" points="120.346,15.113 143.957,37.728 189.914,29.738 		"/>
		<polygon opacity="0.86" fill="#D3DDE8" points="107.736,28.328 116.596,66.408 143.957,66.408 		"/>
		<polygon fill="#D8E1EB" points="214.029,41.617 239.475,66.408 264.164,57.703 252.357,50.259 		"/>
		<polygon opacity="0.9" fill="#D8E1EB" points="143.957,37.728 143.957,66.408 193.938,69.32 171.784,47.345 		"/>
		<polygon opacity="0.9" fill="#D8E1EB" points="227.09,110.007 307.926,119.564 272.928,98.99 239.475,66.408 		"/>
		<polygon fill="#D5DFE9" points="347.045,98.103 363.598,119.564 363.598,104.515 		"/>
		<polygon fill="#D5DFE9" points="239.475,66.408 272.928,98.99 272.928,69.796 264.164,57.703 		"/>
		<polygon opacity="0.9" fill="#D3DDE8" points="214.029,41.615 227.09,110.005 239.475,66.406 		"/>
		<polygon opacity="0.82" fill="#CDD8E5" points="142.854,119.564 188.49,127.019 220.879,119.564 227.092,110.005 198.539,97.066 
			160.443,106.857 		"/>
		<polygon fill="#D9E2EB" points="171.784,47.345 193.938,69.32 214.029,41.617 189.914,29.738 		"/>
		<polygon opacity="0.9" fill="#D5DFE9" points="193.938,69.32 196.266,83.357 198.539,97.066 227.092,110.005 214.029,41.617 		"/>
		<polygon opacity="0.84" fill="#D3DDE8" points="143.957,66.408 149.484,86.402 160.443,106.857 198.539,97.066 196.266,83.357 
			193.938,69.32 		"/>
		<polygon opacity="0.87" fill="#D0DAE6" points="116.596,66.408 149.484,86.402 143.957,66.408 		"/>
		<polygon opacity="0.79" fill="#CDD8E5" points="116.596,66.408 142.854,119.564 160.443,106.857 149.484,86.402 		"/>
		<polygon opacity="0.79" fill="#D3DDE8" points="97.434,95.083 142.852,119.564 116.596,66.408 		"/>
		<polygon opacity="0.79" fill="#D4DDE8" points="23.458,88.089 97.434,95.083 61.633,69.32 39.553,79.482 		"/>
		<polygon opacity="0.79" fill="#D3DDE8" points="23.458,88.089 57.949,119.564 97.434,95.083 		"/>
	</g>
</g>
</svg>
