<?xml version="1.0" encoding="utf-8"?>
<!-- Generator: Adobe Illustrator 16.0.0, SVG Export Plug-In . SVG Version: 6.00 Build 0)  -->
<!DOCTYPE svg PUBLIC "-//W3C//DTD SVG 1.1//EN" "http://www.w3.org/Graphics/SVG/1.1/DTD/svg11.dtd">
<svg version="1.1" id="Layer_1" xmlns="http://www.w3.org/2000/svg" xmlns:xlink="http://www.w3.org/1999/xlink" x="0px" y="0px"
	 width="267.59px" height="196.432px" viewBox="0 0 267.59 196.432" enable-background="new 0 0 267.59 196.432"
	 xml:space="preserve">
<g>
	<polygon fill="#9C9EA0" points="267.591,176.514 258.821,182.514 215.44,196.432 192.121,196.432 169.161,189.847 155.661,189.847 
		128.331,189.847 84.98,196.432 74.73,196.432 57.291,196.432 39.591,196.432 6.65,189.847 0.001,187.847 5.881,166.871 
		7.711,162.451 9.48,158.169 38.69,121.92 44.461,114.75 44.468,154.826 36.571,155.715 44.581,88.271 99.301,46.91 108.801,71.021 
		136.791,0 208.86,54.471 255.101,146.54 	"/>
	<g>
		<polygon fill="#96989A" points="155.66,189.847 84.98,196.432 143.78,133.39 		"/>
		<polygon fill="#8D8F92" points="143.78,133.39 84.98,196.432 88.115,124.104 		"/>
		<polygon fill="#7E8083" points="143.78,133.39 88.115,124.104 136.794,0.593 		"/>
		<polygon fill="#8D8F92" points="208.863,55.063 143.78,133.39 136.794,0.593 		"/>
		<polygon fill="#989A9D" points="185.427,147.138 169.158,189.847 155.66,189.847 143.78,133.39 		"/>
		<polygon fill="#7E8083" points="192.126,196.432 169.158,189.847 185.427,147.138 		"/>
		<polygon fill="#A7A9AB" points="215.439,196.432 185.427,147.138 209.019,141.945 		"/>
		<polygon fill="#9C9EA0" points="215.439,196.432 192.126,196.432 185.427,147.138 		"/>
		<polygon fill="#9C9EA0" points="208.863,55.063 185.427,147.138 143.78,133.39 		"/>
		<polygon fill="#9C9EA0" points="185.428,147.138 209.021,141.945 208.863,140.841 208.863,55.062 		"/>
		<polygon fill="#7E8083" points="267.591,176.514 258.823,182.514 255.101,147.138 		"/>
		<polygon fill="#ADAFB1" points="258.823,182.514 215.439,196.432 209.019,141.945 255.101,147.138 		"/>
		<polygon fill="#A7A9AB" points="209.021,89.95 209.021,141.945 255.101,147.138 		"/>
		<polygon fill="#96989A" points="84.979,196.432 128.544,192.373 93.997,148.33 		"/>
		<polygon fill="#8F9193" points="93.997,148.33 128.544,192.373 136.259,141.28 		"/>
		<polygon fill="#96989A" points="128.544,192.373 155.661,189.847 136.259,141.279 		"/>
		<polygon fill="#989A9D" points="93.997,148.33 136.259,141.279 99.301,47.51 		"/>
		<polygon fill="#A7A9AB" points="44.581,88.271 93.997,148.33 99.301,46.91 		"/>
		<polygon fill="#989A9D" points="62.38,158.769 74.729,196.432 84.979,196.432 93.997,148.33 		"/>
		<polygon fill="#8F9193" points="57.294,196.432 74.729,196.432 62.38,158.767 		"/>
		<polygon fill="#7E8083" points="39.595,196.432 62.38,158.767 44.468,154.826 		"/>
		<polygon fill="#7E8083" points="39.595,196.432 57.294,196.432 62.38,158.767 		"/>
		<polygon fill="#9C9EA0" points="44.587,88.863 62.38,158.767 93.997,148.33 		"/>
		<polygon fill="#7E8083" points="44.468,154.826 62.38,158.767 53.112,122.364 44.586,88.863 44.586,153.988 		"/>
		<polygon fill="#7E8083" points="0.001,187.847 6.657,189.847 9.483,158.769 7.714,163.05 5.887,167.469 		"/>
		<polygon fill="#909294" points="6.657,189.847 39.595,196.432 44.468,154.826 9.483,158.767 9.483,158.769 		"/>
		<polygon fill="#9C9EA0" points="208.863,55.062 208.863,140.841 209.021,141.945 209.021,89.95 255.101,147.138 		"/>
	</g>
</g>
</svg>
