<?xml version="1.0" encoding="utf-8"?>
<!-- Generator: Adobe Illustrator 16.0.0, SVG Export Plug-In . SVG Version: 6.00 Build 0)  -->
<!DOCTYPE svg PUBLIC "-//W3C//DTD SVG 1.1//EN" "http://www.w3.org/Graphics/SVG/1.1/DTD/svg11.dtd">
<svg version="1.1" id="Layer_1" xmlns="http://www.w3.org/2000/svg" xmlns:xlink="http://www.w3.org/1999/xlink" x="0px" y="0px"
	 width="177.483px" height="272.318px" viewBox="0 0 177.483 272.318" enable-background="new 0 0 177.483 272.318"
	 xml:space="preserve">
<g>
	<g>
		<polygon fill="#6B3833" points="75.713,181.211 87.742,172.755 85.375,169.358 75.495,176.299 74.933,163.708 72.049,152.618 
			72.049,106.271 57.849,106.271 59.164,124.688 60.723,146.406 61.35,155.139 61.857,157.623 50.297,147.877 49.572,151.957 
			62.746,162.003 64.604,171.125 64.604,196.208 64.607,196.211 62.623,213.106 60.67,229.59 76.447,229.59 76.353,225.934 
			77.378,218.792 69.565,204.979 77.381,218.795 		"/>
		<polygon fill="#76710E" points="65.561,17.961 17.084,42.891 17.084,98.983 25.71,104.215 65.561,128.364 104.736,104.622 
			114.039,98.983 114.039,42.891 		"/>
		<polygon fill="#76710E" points="96.233,148.534 81.582,151.477 77.381,166.271 79.265,168.297 87.966,177.65 100.075,174.321 
			102.951,173.53 107.151,158.739 		"/>
	</g>
	<g>
		<polygon fill="#703E39" points="77.381,218.795 64.604,196.208 64.604,171.125 67.897,162.955 68.948,160.334 72.049,152.618 
			74.933,163.708 75.495,176.304 75.713,181.209 		"/>
		<polygon fill="#703E39" points="72.049,106.271 72.049,152.618 68.948,160.334 67.897,162.955 64.604,171.125 62.746,162.003 
			61.857,157.623 61.35,155.139 60.723,146.406 59.164,124.688 57.849,106.271 		"/>
		<polygon fill="#73413C" points="77.378,218.792 76.353,225.934 60.67,229.59 62.623,213.106 64.607,196.21 		"/>
		<polygon fill="#6B3833" points="76.447,229.59 60.67,229.59 76.353,225.934 		"/>
		<polygon fill="#6B3833" points="87.742,172.755 75.711,181.211 75.493,176.302 85.375,169.358 		"/>
		<polygon fill="#6B3833" points="62.746,162.003 49.572,151.957 50.297,147.877 61.857,157.623 		"/>
		<g>
			<polygon fill="#676300" points="104.736,104.622 65.561,128.364 25.71,104.215 			"/>
			<polygon fill="#7D781B" points="65.561,17.961 65.561,51.974 17.084,42.891 			"/>
			<polygon fill="#6F6A00" points="114.039,42.891 65.561,51.974 65.561,17.961 			"/>
			<polygon fill="#6F6A00" points="25.71,104.215 17.084,98.983 17.084,42.891 			"/>
			<polygon fill="#676300" points="114.039,42.891 114.039,98.983 104.736,104.622 			"/>
			<polygon fill="#6F6A00" points="104.736,104.622 25.71,104.215 65.561,51.974 			"/>
			<polygon fill="#76710E" points="65.561,51.974 25.71,104.215 17.084,42.891 			"/>
			<polygon fill="#76710E" points="114.039,42.891 104.736,104.622 65.561,51.974 			"/>
		</g>
		<g>
			<polygon fill="#676300" points="100.075,174.321 87.966,177.65 79.265,168.297 			"/>
			<polygon fill="#7D781B" points="96.233,148.534 93.686,157.503 81.582,151.477 			"/>
			<polygon fill="#6F6A00" points="107.151,158.739 93.686,157.503 96.233,148.534 			"/>
			<polygon fill="#6F6A00" points="79.265,168.297 77.381,166.271 81.582,151.477 			"/>
			<polygon fill="#676300" points="107.151,158.739 102.951,173.53 100.075,174.321 			"/>
			<polygon fill="#6F6A00" points="100.075,174.321 79.265,168.297 93.686,157.503 			"/>
			<polygon fill="#76710E" points="93.686,157.503 79.265,168.297 81.582,151.477 			"/>
			<polygon fill="#76710E" points="107.151,158.739 100.075,174.321 93.686,157.503 			"/>
		</g>
	</g>
</g>
<radialGradient id="SVGID_1_" cx="88.2759" cy="221.9028" r="90.3039" gradientUnits="userSpaceOnUse">
	<stop  offset="0.1656" style="stop-color:#8E8867"/>
	<stop  offset="0.8896" style="stop-color:#726E45"/>
</radialGradient>
<polygon fill="url(#SVGID_1_)" points="150.95,230.372 118.228,217.147 60.497,217.147 27.974,230.372 10.333,243.013 
	2.915,254.333 0,261.318 17.084,266.013 68.559,272.318 152.505,272.318 177.483,268.318 176.011,261.333 168.593,249.013 "/>
<g>
	<g>
		<polygon fill="#6B3833" points="145.535,211.634 152.505,206.736 151.135,204.767 145.409,208.789 145.083,201.492 
			143.412,195.065 143.412,168.206 135.182,168.206 135.944,178.878 136.849,191.466 137.211,196.525 137.505,197.963 
			129.753,196.525 129.333,198.89 138.02,200.504 139.097,205.791 139.097,220.324 139.099,220.327 137.95,230.12 136.817,238.671 
			145.96,238.671 145.906,236.553 146.5,233.415 142.8,226.87 146.502,233.417 		"/>
		<polygon fill="#76710E" points="139.652,125.444 111.558,139.89 111.558,172.397 116.558,175.43 139.652,189.427 162.354,175.666 
			167.746,172.397 167.746,139.89 		"/>
	</g>
	<g>
		<polygon fill="#703E39" points="146.502,233.545 139.097,220.454 139.097,205.918 141.005,201.185 141.614,199.667 
			143.412,195.194 145.083,201.621 145.409,208.92 145.535,211.762 		"/>
		<polygon fill="#703E39" points="143.412,168.335 143.412,195.194 141.614,199.667 141.005,201.185 139.097,205.918 
			138.02,200.633 137.505,198.092 137.211,196.654 136.849,191.595 135.944,179.007 135.182,168.335 		"/>
		<polygon fill="#73413C" points="146.5,233.543 145.906,236.681 136.817,238.8 137.95,230.248 139.099,220.456 		"/>
		<polygon fill="#6B3833" points="145.96,238.8 141.389,239.8 136.817,238.8 145.906,236.681 		"/>
		<polygon fill="#6B3833" points="152.505,206.866 145.534,211.764 145.407,208.918 151.135,204.895 		"/>
		<polygon fill="#6B3833" points="138.02,200.633 129.333,199.019 129.753,196.654 137.505,198.092 		"/>
		<g>
			<polygon fill="#676300" points="162.354,175.795 139.652,189.556 116.558,175.559 			"/>
			<polygon fill="#7D781B" points="139.652,125.573 139.652,145.284 111.558,140.02 			"/>
			<polygon fill="#6F6A00" points="167.746,140.02 139.652,145.284 139.652,125.573 			"/>
			<polygon fill="#6F6A00" points="116.558,175.559 111.558,172.527 111.558,140.02 			"/>
			<polygon fill="#676300" points="167.746,140.02 167.746,172.527 162.354,175.795 			"/>
			<polygon fill="#6F6A00" points="162.354,175.795 116.558,175.559 139.652,145.284 			"/>
			<polygon fill="#76710E" points="139.652,145.284 116.558,175.559 111.558,140.02 			"/>
			<polygon fill="#76710E" points="167.746,140.02 162.354,175.795 139.652,145.284 			"/>
		</g>
	</g>
</g>
</svg>
