<?xml version="1.0" encoding="utf-8"?>
<!-- Generator: Adobe Illustrator 16.0.0, SVG Export Plug-In . SVG Version: 6.00 Build 0)  -->
<!DOCTYPE svg PUBLIC "-//W3C//DTD SVG 1.1//EN" "http://www.w3.org/Graphics/SVG/1.1/DTD/svg11.dtd">
<svg version="1.1" id="Layer_1" xmlns="http://www.w3.org/2000/svg" xmlns:xlink="http://www.w3.org/1999/xlink" x="0px" y="0px"
	 width="335.529px" height="151.754px" viewBox="0 0 335.529 151.754" enable-background="new 0 0 335.529 151.754"
	 xml:space="preserve">
<g>
	<polygon opacity="0.9" fill="#D3E0F1" points="3.902,133.702 31.156,124.868 45.014,117.207 55.092,104.882 68.758,97.571 
		81.653,94.96 107.058,83.389 114.396,68.939 124.277,60.046 156.363,49.721 176.549,35.529 176.551,35.529 186.01,14.486 
		201.221,4.387 220.545,0 230.677,7.474 234.787,18.056 234.786,18.056 245.342,33.845 245.343,33.845 245.343,33.845 
		245.343,33.845 245.345,33.845 245.345,33.845 253.521,39.272 260.552,43.942 261.859,46.849 270.009,64.981 283.938,82.818 
		283.935,82.818 283.936,82.818 283.937,82.818 302.419,94.96 315.893,105.243 324.751,117.207 335.529,127.665 334.327,138.609 
		287.021,142.847 287.02,142.847 287.019,142.847 287.009,142.847 273.225,148.128 215.986,142.847 215.945,142.847 
		177.742,151.754 150.629,142.847 77.762,142.847 45.014,146.92 31.156,142.847 0,139.524 	"/>
	<g>
		<polygon fill="#D0DEF0" points="107.058,83.389 107.058,118.267 77.76,142.847 81.653,94.96 		"/>
		<polygon opacity="0.83" fill="#CDDCEF" points="150.629,142.847 77.76,142.847 145.43,131.43 		"/>
		<polygon fill="#D3E0F1" points="81.653,94.96 77.76,142.847 55.092,104.882 68.758,97.571 		"/>
		<polygon fill="#D3E0F1" points="77.76,142.847 57.506,126.989 45.014,117.207 55.092,104.882 		"/>
		<polygon fill="#D0DEF0" points="77.76,142.847 45.014,146.92 31.156,142.847 45.014,117.207 57.506,126.989 		"/>
		<polygon fill="#D6E2F2" points="31.156,124.868 31.156,142.847 0,139.524 3.902,133.702 		"/>
		<polygon opacity="0.79" fill="#D3E0F1" points="283.938,82.818 237.929,79.34 270.009,64.981 		"/>
		<polygon opacity="0.79" fill="#D3E0F1" points="283.937,82.818 253.966,113.6 237.927,79.34 		"/>
		<polygon opacity="0.79" fill="#CDDCEF" points="287.021,142.845 273.227,148.128 215.951,142.845 253.971,113.6 		"/>
		<polygon opacity="0.9" fill="#D3E0F1" points="334.327,138.609 287.021,142.847 315.893,105.243 324.751,117.207 335.529,127.665 
					"/>
		<polygon opacity="0.79" fill="#CEDCF0" points="270.009,64.981 237.929,79.34 260.552,43.942 		"/>
		<polygon opacity="0.84" fill="#CDDCEF" points="260.552,43.942 237.929,79.34 245.343,33.845 		"/>
		<polygon opacity="0.9" fill="#CDDCEF" points="245.342,33.845 215.021,79.34 215.021,45.075 234.786,18.056 		"/>
		<polygon fill="#D3E0F1" points="234.786,18.056 201.22,4.387 220.545,0 230.677,7.474 		"/>
		<polygon fill="#D6E2F2" points="234.786,18.056 176.551,35.529 186.01,14.486 201.22,4.387 		"/>
		<polygon opacity="0.86" fill="#CDDCEF" points="215.021,45.075 191.727,56.565 176.549,35.529 		"/>
		<polygon opacity="0.94" fill="#D3E0F1" points="234.786,18.056 215.021,45.075 176.551,35.529 		"/>
		<polygon opacity="0.86" fill="#D0DEF0" points="245.342,33.845 237.927,79.34 215.021,79.34 		"/>
		<polygon fill="#D6E2F2" points="156.363,49.721 135.062,79.34 114.395,68.939 124.277,60.046 		"/>
		<polygon opacity="0.9" fill="#D6E2F2" points="215.021,45.075 215.021,79.34 173.182,82.818 191.727,56.565 		"/>
		<polygon opacity="0.9" fill="#D6E2F2" points="145.43,131.43 77.76,142.847 107.058,118.267 135.062,79.34 		"/>
		<polygon fill="#D3E0F1" points="45.014,117.207 31.156,142.847 31.156,124.868 		"/>
		<polygon fill="#D3E0F1" points="135.062,79.34 107.058,118.267 107.058,83.389 114.395,68.939 		"/>
		<polygon opacity="0.9" fill="#D0DEF0" points="156.363,49.718 145.43,131.427 135.062,79.338 		"/>
		<polygon opacity="0.82" fill="#CADAEF" points="215.945,142.847 177.742,151.754 150.629,142.847 145.428,131.427 
			169.329,115.968 201.22,127.665 		"/>
		<polygon fill="#D8E3F2" points="191.727,56.565 173.182,82.818 156.363,49.721 176.549,35.529 		"/>
		<polygon opacity="0.9" fill="#D3E0F1" points="173.182,82.818 171.232,99.589 169.329,115.968 145.428,131.427 156.363,49.721 		
			"/>
		<polygon opacity="0.84" fill="#D1DEF1" points="215.021,79.34 210.394,103.228 201.22,127.665 169.329,115.968 171.232,99.589 
			173.182,82.818 		"/>
		<polygon opacity="0.87" fill="#CDDCEF" points="237.926,79.34 210.394,103.228 215.021,79.34 		"/>
		<polygon opacity="0.79" fill="#CADAEF" points="237.926,79.34 215.945,142.847 201.22,127.665 210.394,103.228 		"/>
		<polygon opacity="0.79" fill="#D0DEF0" points="253.966,113.6 215.945,142.847 237.927,79.34 		"/>
		<polygon opacity="0.79" fill="#D1DEF1" points="315.893,105.243 253.966,113.6 283.937,82.818 302.42,94.96 		"/>
		<polygon opacity="0.79" fill="#D0DEF0" points="315.893,105.243 287.021,142.847 253.966,113.6 		"/>
	</g>
</g>
</svg>
