<?xml version="1.0" encoding="utf-8"?>
<!-- Generator: Adobe Illustrator 16.0.1, SVG Export Plug-In . SVG Version: 6.00 Build 0)  -->
<!DOCTYPE svg PUBLIC "-//W3C//DTD SVG 1.1//EN" "http://www.w3.org/Graphics/SVG/1.1/DTD/svg11.dtd">
<svg version="1.1" id="Layer_1" xmlns="http://www.w3.org/2000/svg" xmlns:xlink="http://www.w3.org/1999/xlink" x="0px" y="0px"
	 width="1500px" height="1500px" viewBox="0 0 1500 1500" enable-background="new 0 0 1500 1500" xml:space="preserve">
<g id="Earth">
	<g id="FG_5_">
		<defs>
			<circle id="SVGID_1_" cx="1174.759" cy="561.101" r="84.526"/>
		</defs>
		<clipPath id="SVGID_2_">
			<use xlink:href="#SVGID_1_"  overflow="visible"/>
		</clipPath>
		<polygon clip-path="url(#SVGID_2_)" fill="#B4B0A6" points="1164.363,608.79 1049.175,597.167 1095.365,479.126 		"/>
		<polygon clip-path="url(#SVGID_2_)" fill="#50514B" points="1160.854,666.896 1164.363,608.79 1049.175,597.167 		"/>
		<polygon clip-path="url(#SVGID_2_)" fill="#B9B1A4" points="1164.363,608.79 1239.367,479.257 1279.576,600.255 		"/>
		<polygon clip-path="url(#SVGID_2_)" fill="#6E6C67" points="1239.367,479.257 1164.691,608.914 1095.365,479.126 		"/>
		<polygon clip-path="url(#SVGID_2_)" fill="#6E6C67" points="1284,599 1160.854,666.896 1164.363,608.79 		"/>
		<polygon clip-path="url(#SVGID_2_)" fill="#A9A198" points="1239.293,479.279 1174.634,494.101 1186.863,470.183 		"/>
		<polygon clip-path="url(#SVGID_2_)" fill="#787975" points="1280.459,600.866 1241.941,603.026 1224.148,573.115 		"/>
		<polygon clip-path="url(#SVGID_2_)" fill="#777964" points="1245.507,602.837 1224.148,573.115 1212.743,563.421 
			1170.271,590.148 1164.691,608.914 		"/>
		<polygon clip-path="url(#SVGID_2_)" fill="#4A4944" points="1245.507,602.837 1217.057,618.77 1164.691,608.914 		"/>
		<polygon clip-path="url(#SVGID_2_)" fill="#CFCBC3" points="1280.459,600.866 1220.25,644.812 1217.057,618.77 		"/>
		<polygon clip-path="url(#SVGID_2_)" fill="#D0C9BC" points="1095.681,479.755 1114.078,514.37 1113.318,485.716 		"/>
		<polygon clip-path="url(#SVGID_2_)" fill="#939387" points="1114.078,514.37 1069.182,545.919 1095.681,479.755 		"/>
		<polygon clip-path="url(#SVGID_2_)" fill="#D8D7DB" points="1049.175,597.167 1065.525,539.633 1095.681,479.755 		"/>
		<polygon clip-path="url(#SVGID_2_)" fill="#363636" points="1162.292,646.462 1126.625,604.742 1164.691,608.914 		"/>
		<polygon clip-path="url(#SVGID_2_)" fill="#777964" points="1164.691,608.914 1117.892,630.992 1048.635,596.922 		"/>
		<polygon clip-path="url(#SVGID_2_)" fill="#5B5E47" points="1142.264,560.055 1048.635,596.922 1164.691,608.914 		"/>
		<polygon clip-path="url(#SVGID_2_)" fill="#F4EFE0" points="1163.833,452.833 1139.167,472.667 1149.488,493.068 		"/>
		<polygon clip-path="url(#SVGID_2_)" fill="#E4E4EC" points="1141.613,470.78 1128.187,470.682 1149.488,493.068 		"/>
		<polygon clip-path="url(#SVGID_2_)" fill="#EAE2CB" points="1186.863,470.183 1174.634,494.101 1149.488,493.068 
			1157.225,459.244 1182.094,454.269 		"/>
		<path clip-path="url(#SVGID_2_)" fill="#26322C" d="M1103.579,484.156"/>
		<polygon clip-path="url(#SVGID_2_)" fill="#B3AE9D" points="1104.072,521.403 1113.249,485.228 1136.186,506.475 		"/>
		<polygon clip-path="url(#SVGID_2_)" fill="#8B8377" points="1136.186,506.475 1113.168,485.398 1128.743,470.689 
			1149.488,493.068 1154.684,501.305 		"/>
		<polygon clip-path="url(#SVGID_2_)" fill="#ABAE9F" points="1154.684,501.305 1174.634,494.101 1180.564,513.421 		"/>
		<polygon clip-path="url(#SVGID_2_)" fill="#F4EFE0" points="1184.812,542.75 1153.875,564.375 1170.271,590.148 		"/>
		<polygon clip-path="url(#SVGID_2_)" fill="#777964" points="1195.933,525.014 1189.312,543.505 1181.213,545.202 
			1180.564,513.421 		"/>
		<polygon clip-path="url(#SVGID_2_)" fill="#E4E4EC" points="1159.849,560.186 1134.938,560 1170.271,590.148 		"/>
		<polygon clip-path="url(#SVGID_2_)" fill="#D8D7DB" points="1142.264,560.055 1108.52,573.521 1149.038,587.933 1170.271,590.148 
					"/>
		<polygon clip-path="url(#SVGID_2_)" fill="#B3AE9D" points="1142.264,560.055 1130.829,545.767 1108.52,573.521 1108.52,573.521 
					"/>
		<polygon clip-path="url(#SVGID_2_)" fill="#EFE4D1" points="1130.829,545.767 1124.812,528.922 1104.072,521.403 1108.52,573.521 
					"/>
		<polygon clip-path="url(#SVGID_2_)" fill="#777964" points="1136.186,506.475 1104.072,521.403 1124.812,528.922 		"/>
		<polyline clip-path="url(#SVGID_2_)" fill="#EAE2CB" points="1224.148,573.115 1170.271,590.148 1181.213,545.202 
			1212.867,538.563 1219.644,560.447 		"/>
		<polygon clip-path="url(#SVGID_2_)" fill="#EAEAEA" points="1180.564,513.421 1136.186,506.475 1154.684,501.305 		"/>
		<polygon clip-path="url(#SVGID_2_)" fill="#ABAE9F" points="1182.094,454.269 1239.339,479.279 1186.863,470.183 		"/>
		<polygon clip-path="url(#SVGID_2_)" fill="#6E6C67" points="1189.312,543.505 1224.148,573.115 1249.993,512.031 		"/>
		<polygon clip-path="url(#SVGID_2_)" fill="#E4E4EC" points="1189.312,543.505 1197,521.875 1249.993,512.031 		"/>
		<polygon clip-path="url(#SVGID_2_)" fill="#D8D7DB" points="1249.993,512.031 1174.634,494.101 1180.564,513.421 
			1195.933,525.014 		"/>
		<polygon clip-path="url(#SVGID_2_)" fill="#4A4944" points="1224.148,573.115 1258.705,537.617 1269.479,567.093 		"/>
	</g>
</g>
</svg>
