<?xml version="1.0" encoding="utf-8"?>
<!-- Generator: Adobe Illustrator 16.0.0, SVG Export Plug-In . SVG Version: 6.00 Build 0)  -->
<!DOCTYPE svg PUBLIC "-//W3C//DTD SVG 1.1//EN" "http://www.w3.org/Graphics/SVG/1.1/DTD/svg11.dtd">
<svg version="1.1" id="Layer_1" xmlns="http://www.w3.org/2000/svg" xmlns:xlink="http://www.w3.org/1999/xlink" x="0px" y="0px"
	 width="430.959px" height="153.06px" viewBox="0 0 430.959 153.06" enable-background="new 0 0 430.959 153.06"
	 xml:space="preserve">
<g>
	<polygon opacity="0.79" fill="#DADBDC" points="428.53,0.024 428.46,0.001 390.923,4.429 361.376,14.612 342.995,35.837 
		342.996,35.837 342.993,35.837 303.773,50.151 241.44,60.563 222.241,69.534 207.987,84.106 158.631,95.776 133.581,98.413 
		107.026,105.786 87.45,118.218 60.528,125.944 7.582,134.853 0,140.726 60.528,144.077 87.45,148.187 87.645,148.174 
		87.728,148.187 151.35,144.077 292.633,144.077 345.311,153.06 345.474,153.04 345.589,153.06 419.776,144.081 430.959,144.618 
		430.959,144.612 430.959,144.081 430.959,139.63 430.959,139.517 430.959,127.356 430.959,126.94 430.959,94.235 430.959,94.114 
		430.959,80.024 430.959,69.942 430.959,69.722 430.959,36.276 430.959,36.081 430.959,22.181 430.959,22.14 430.959,12.892 
		430.959,12.835 430.959,0.952 430.959,0.847 428.745,0.001 	"/>
</g>
<g>
	<polygon fill="#D4D5D6" points="87.45,118.218 60.528,144.077 60.528,125.944 	"/>
	<polygon fill="#D4D5D6" points="158.631,95.776 151.071,144.077 107.026,105.786 133.581,98.413 	"/>
	<polygon fill="#D4D5D6" points="303.773,50.151 282.534,132.562 262.392,80.022 	"/>
	<polygon fill="#D4D5D6" points="282.534,132.562 292.634,144.077 151.071,144.077 	"/>
	<polygon fill="#D4D5D6" points="342.995,35.837 343.085,35.901 372.481,57.048 372.687,56.999 417.731,45.466 417.776,45.435 
		430.959,36.081 430.959,22.14 343.323,35.788 	"/>
	<polygon fill="#D4D5D6" points="419.536,144.073 419.526,144.081 430.959,144.081 430.959,126.94 419.604,143.968 	"/>
	<polygon fill="#D4D5D6" points="408.751,104.118 409.079,103.972 430.959,94.114 430.959,69.722 418.015,79.806 417.731,80.024 
		417.731,80.042 	"/>
	<polygon fill="#DADBDC" points="207.987,84.106 207.987,119.284 151.071,144.077 158.631,95.776 	"/>
	<polygon fill="#D8D9DA" points="292.634,144.077 151.071,144.077 282.534,132.562 	"/>
	<polygon fill="#DDDEDE" points="158.631,95.776 151.071,144.077 107.026,105.786 133.581,98.413 	"/>
	<polygon fill="#DDDEDE" points="151.071,144.077 111.72,128.083 87.45,118.218 107.026,105.786 	"/>
	<polygon fill="#DADBDC" points="151.071,144.077 87.45,148.187 60.528,144.077 87.45,118.218 111.72,128.083 	"/>
	<polygon fill="#DFE0E0" points="60.528,125.944 60.528,144.077 0,140.726 7.582,134.853 	"/>
	<polygon fill="#D8D9DA" points="419.548,144.073 419.559,144.073 419.707,144.081 419.774,144.081 430.959,144.618 
		430.959,139.517 419.911,143.919 419.685,144.017 	"/>
	<polygon fill="#D8D9DA" points="417.731,45.466 417.731,80.024 418.015,79.806 430.959,69.722 430.959,36.081 417.776,45.435 	"/>
	<polygon fill="#DDDEDE" points="390.923,4.429 391.093,4.47 430.959,12.892 430.959,0.952 428.53,0.024 428.46,0.001 	"/>
	<polygon fill="#DFE0E0" points="342.995,35.837 343.323,35.788 430.959,22.14 430.959,12.892 391.093,4.47 390.923,4.429 
		361.376,14.612 	"/>
	<polygon fill="#D8D9DA" points="417.733,45.466 372.48,57.052 342.993,35.837 	"/>
	<polygon fill="#DDDEDE" points="342.995,35.837 343.197,35.862 343.333,35.878 417.731,45.466 417.776,45.435 430.959,36.081 
		430.959,22.14 343.323,35.788 	"/>
	<polygon fill="#DADBDC" points="417.731,80.024 430.959,80.024 430.959,69.722 418.015,79.806 	"/>
	<polygon fill="#DFE0E0" points="303.773,50.151 262.392,80.022 222.241,69.534 241.44,60.563 	"/>
	<polygon fill="#DFE0E0" points="417.733,45.466 417.733,80.022 336.45,83.532 372.48,57.052 	"/>
	<polygon fill="#DFE0E0" points="282.534,132.562 151.071,144.077 207.987,119.284 262.392,80.022 	"/>
	<polygon fill="#DDDEDE" points="87.45,118.218 60.528,144.077 60.528,125.944 	"/>
	<polygon fill="#DDDEDE" points="262.392,80.022 207.987,119.284 207.987,84.106 222.241,69.534 	"/>
	<polygon fill="#DADBDC" points="303.773,50.151 282.534,132.562 262.392,80.022 	"/>
	<polygon fill="#D6D7D8" points="419.53,144.077 345.311,153.06 292.633,144.077 282.529,132.562 328.964,116.966 390.923,128.765 	
		"/>
	<polygon fill="#E0E1E1" points="372.48,57.052 336.45,83.532 303.773,50.151 342.993,35.837 	"/>
	<polygon fill="#DDDEDE" points="336.45,83.532 332.667,100.446 328.964,116.966 282.529,132.562 303.773,50.151 	"/>
	<polygon fill="#D8D9DA" points="417.733,80.022 408.747,104.116 390.923,128.765 328.964,116.966 332.667,100.446 336.45,83.532 	
		"/>
	<polygon fill="#D8D9DA" points="408.751,104.118 409.079,103.972 430.959,94.114 430.959,80.024 417.731,80.024 417.731,80.042 	
		"/>
	<polygon fill="#D6D7D8" points="390.923,128.765 419.526,144.081 419.536,144.073 419.604,143.968 430.959,126.94 430.959,94.114 
		409.079,103.972 408.751,104.118 390.956,128.716 	"/>
	<polygon fill="#DADBDC" points="419.604,143.976 419.548,144.073 419.559,144.073 419.685,144.017 419.696,144.017 
		419.911,143.935 430.959,139.517 430.959,126.94 419.604,143.968 	"/>
	<polygon fill="#DADBDC" points="419.536,144.073 419.536,144.081 419.548,144.073 	"/>
	<polygon fill="#D4D5D6" points="87.728,118.218 60.806,144.077 60.806,125.944 	"/>
	<polygon fill="#DADBDC" points="208.265,84.106 208.265,119.284 151.35,144.077 158.91,95.776 	"/>
	<polygon opacity="0.83" fill="#D8D9DA" points="292.915,144.077 151.35,144.077 282.812,132.562 	"/>
	<polygon fill="#DDDEDE" points="151.35,144.077 111.999,128.083 87.728,118.218 107.304,105.786 	"/>
	<polygon fill="#DADBDC" points="151.35,144.077 87.728,148.187 60.806,144.077 87.728,118.218 111.999,128.083 	"/>
	<polygon fill="#DFE0E0" points="60.806,125.944 60.806,144.077 0.278,140.726 7.862,134.853 	"/>
	<polygon opacity="0.79" fill="#D8D9DA" points="419.831,144.073 419.991,144.081 430.959,144.612 430.959,139.63 	"/>
	<polygon opacity="0.9" fill="#D8D9DA" points="418.015,45.466 418.015,80.024 430.959,69.942 430.959,36.276 	"/>
	<polygon fill="#DDDEDE" points="391.206,4.429 430.959,12.835 430.959,0.847 428.745,0.001 428.53,0.024 	"/>
	<polygon fill="#DFE0E0" points="343.277,35.837 430.959,22.181 430.959,12.835 391.206,4.429 391.093,4.47 361.648,14.612 
		343.323,35.788 	"/>
	<polygon opacity="0.86" fill="#D8D9DA" points="418.013,45.466 372.759,57.052 343.273,35.837 	"/>
	<polygon opacity="0.94" fill="#DDDEDE" points="343.277,35.837 417.776,45.435 418.015,45.466 430.959,36.276 430.959,22.181 	"/>
	<polygon opacity="0.86" fill="#DADBDC" points="418.015,80.024 430.959,80.024 430.959,69.942 	"/>
	<polygon fill="#DFE0E0" points="304.054,50.151 262.671,80.022 222.521,69.534 241.72,60.563 	"/>
	<polygon opacity="0.9" fill="#DFE0E0" points="418.013,45.466 418.013,80.022 336.729,83.532 372.759,57.052 	"/>
	<polygon opacity="0.9" fill="#DFE0E0" points="282.812,132.562 151.35,144.077 208.265,119.284 262.671,80.022 	"/>
	<polygon fill="#DDDEDE" points="87.728,118.218 60.806,144.077 60.806,125.944 	"/>
	<polygon fill="#DDDEDE" points="262.671,80.022 208.265,119.284 208.265,84.106 222.521,69.534 	"/>
	<polygon opacity="0.9" fill="#DADBDC" points="304.054,50.149 282.812,132.562 262.671,80.021 	"/>
	<polygon opacity="0.82" fill="#D6D7D8" points="419.81,144.077 345.589,153.06 292.912,144.077 282.81,132.562 329.243,116.966 
		391.2,128.765 	"/>
	<polygon fill="#E0E1E1" points="372.759,57.052 336.729,83.532 304.054,50.151 343.273,35.837 	"/>
	<polygon opacity="0.9" fill="#DDDEDE" points="336.729,83.532 332.942,100.446 329.243,116.966 282.81,132.562 304.054,50.151 	"/>
	<polygon opacity="0.84" fill="#DBDCDC" points="418.013,80.022 409.024,104.116 391.2,128.765 329.243,116.966 332.942,100.446 
		336.729,83.532 	"/>
	<polygon opacity="0.87" fill="#D8D9DA" points="409.022,104.118 430.959,94.235 430.959,80.024 418.015,80.024 409.079,103.972 	
		"/>
	<polygon opacity="0.79" fill="#D6D7D8" points="391.206,128.765 419.604,143.968 419.604,143.976 419.685,144.017 419.696,144.017 
		419.81,144.081 419.821,144.073 419.911,143.935 419.911,143.919 430.959,127.356 430.959,94.235 409.022,104.118 	"/>
	<polygon opacity="0.79" fill="#DADBDC" points="419.821,144.073 419.831,144.073 430.959,139.63 430.959,127.356 419.911,143.919 
		419.911,143.935 	"/>
</g>
</svg>
