<?xml version="1.0" encoding="utf-8"?>
<!-- Generator: Adobe Illustrator 16.0.0, SVG Export Plug-In . SVG Version: 6.00 Build 0)  -->
<!DOCTYPE svg PUBLIC "-//W3C//DTD SVG 1.1//EN" "http://www.w3.org/Graphics/SVG/1.1/DTD/svg11.dtd">
<svg version="1.1" id="Layer_1" xmlns="http://www.w3.org/2000/svg" xmlns:xlink="http://www.w3.org/1999/xlink" x="0px" y="0px"
	 width="150.901px" height="272.701px" viewBox="0 0 150.901 272.701" enable-background="new 0 0 150.901 272.701"
	 xml:space="preserve">
<radialGradient id="SVGID_1_" cx="79.2544" cy="198.459" r="75.7318" gradientUnits="userSpaceOnUse">
	<stop  offset="0.1656" style="stop-color:#8E8867"/>
	<stop  offset="0.8896" style="stop-color:#726E45"/>
</radialGradient>
<polygon fill="url(#SVGID_1_)" points="128.161,210.412 100.108,190.886 50.622,190.886 22.744,210.412 7.624,237.94 1.264,249.038 
	0,259.701 24.588,268.701 58.588,267.919 132.018,272.701 150.901,263.701 149.64,253.038 143.28,237.94 "/>
<g>
	<g>
		<polygon fill="#6B3833" points="90.561,160.877 103.571,151.736 101.012,148.058 90.325,155.567 89.716,141.947 86.598,129.951 
			86.598,79.817 71.236,79.817 72.659,99.738 74.347,123.233 75.023,132.675 75.571,135.361 61.102,132.675 60.319,137.09 
			76.533,140.103 78.544,149.969 78.544,177.098 78.547,177.103 76.402,195.38 74.289,211.209 91.353,212.209 91.253,208.255 
			92.362,201.532 85.455,189.316 92.365,201.535 		"/>
		<polygon fill="#76710E" points="79.579,0 27.141,26.964 27.141,87.641 36.472,93.3 79.579,119.427 121.955,93.741 132.018,87.641 
			132.018,26.964 		"/>
	</g>
	<g>
		<polygon fill="#703E39" points="92.365,201.776 78.544,177.339 78.544,150.21 82.104,141.374 83.241,138.54 86.598,130.191 
			89.716,142.188 90.325,155.811 90.561,161.117 		"/>
		<polygon fill="#703E39" points="86.598,80.057 86.598,130.191 83.241,138.54 82.104,141.374 78.544,150.21 76.533,140.343 
			75.571,135.601 75.023,132.917 74.347,123.473 72.659,99.978 71.236,80.057 		"/>
		<polygon fill="#73413C" points="92.362,201.773 91.253,208.496 74.289,211.451 76.402,195.622 78.547,177.342 		"/>
		<polygon fill="#6B3833" points="91.353,212.451 82.821,213.451 74.289,211.451 91.253,208.496 		"/>
		<polygon fill="#6B3833" points="103.571,151.976 90.559,161.121 90.321,155.81 101.012,148.299 		"/>
		<polygon fill="#6B3833" points="76.533,140.343 60.319,137.332 61.102,132.917 75.571,135.601 		"/>
		<g>
			<polygon fill="#676300" points="121.955,93.982 79.579,119.668 36.472,93.542 			"/>
			<polygon fill="#7D781B" points="79.579,0.241 79.579,37.032 27.141,27.206 			"/>
			<polygon fill="#6F6A00" points="132.018,27.206 79.579,37.032 79.579,0.241 			"/>
			<polygon fill="#6F6A00" points="36.472,93.542 27.141,87.882 27.141,27.206 			"/>
			<polygon fill="#676300" points="132.018,27.206 132.018,87.882 121.955,93.982 			"/>
			<polygon fill="#6F6A00" points="121.955,93.982 36.472,93.542 79.579,37.032 			"/>
			<polygon fill="#76710E" points="79.579,37.032 36.472,93.542 27.141,27.206 			"/>
			<polygon fill="#76710E" points="132.018,27.206 121.955,93.982 79.579,37.032 			"/>
		</g>
	</g>
</g>
</svg>
