<?xml version="1.0" encoding="utf-8"?>
<!-- Generator: Adobe Illustrator 16.0.1, SVG Export Plug-In . SVG Version: 6.00 Build 0)  -->
<!DOCTYPE svg PUBLIC "-//W3C//DTD SVG 1.1//EN" "http://www.w3.org/Graphics/SVG/1.1/DTD/svg11.dtd">
<svg version="1.1" id="Layer_1" xmlns="http://www.w3.org/2000/svg" xmlns:xlink="http://www.w3.org/1999/xlink" x="0px" y="0px"
	 width="1500px" height="1500px" viewBox="0 0 1500 1500" enable-background="new 0 0 1500 1500" xml:space="preserve">
<g id="Jupiter">
	<g id="Planet__x2B__Orbits">
		<g opacity="0.74">
			<g>
				<path fill="none" stroke="#E6E7E8" stroke-width="4" stroke-miterlimit="10" d="M92.323,1021.244
					c-0.064-0.152-0.128-0.305-0.19-0.458"/>
				<path fill="none" stroke="#E6E7E8" stroke-width="4" stroke-miterlimit="10" stroke-dasharray="0.9974,11.9691" d="
					M89.234,1009.216c-9.801-89.995,238.078-271.348,573.127-416.014c342.503-147.887,649.439-202.753,697.106-126.135"/>
				<path fill="none" stroke="#E6E7E8" stroke-width="4" stroke-miterlimit="10" d="M1362.257,472.369
					c0.066,0.151,0.131,0.303,0.196,0.455"/>
			</g>
		</g>
		<g opacity="0.74">
			<g>
				<path fill="none" stroke="#E6E7E8" stroke-width="4" stroke-miterlimit="10" d="M137.828,1111.804
					c-0.085-0.141-0.17-0.283-0.254-0.425"/>
				<path fill="none" stroke="#E6E7E8" stroke-width="4" stroke-miterlimit="10" stroke-dasharray="0.9984,11.9811" d="
					M133.041,1100.333c-22.556-87.623,196.694-303.344,507.438-495.535c317.666-196.476,613.482-295.714,671.653-226.909"/>
				<path fill="none" stroke="#E6E7E8" stroke-width="4" stroke-miterlimit="10" d="M1315.663,382.735
					c0.087,0.14,0.174,0.281,0.259,0.422"/>
			</g>
		</g>
		<g opacity="0.74">
			<g>
				<path fill="none" stroke="#E6E7E8" stroke-width="4" stroke-miterlimit="10" d="M65.403,758.988
					c0.007-0.165,0.015-0.33,0.024-0.495"/>
				<path fill="none" stroke="#E6E7E8" stroke-width="4" stroke-miterlimit="10" stroke-dasharray="0.9961,11.9536" d="
					M67.758,746.811c29.634-85.44,330.75-140.628,694.776-124.632c372.132,16.35,672.382,101.042,682.526,190.967"/>
				<path fill="none" stroke="#E6E7E8" stroke-width="4" stroke-miterlimit="10" d="M1445.306,819.122
					c-0.005,0.165-0.011,0.33-0.019,0.495"/>
			</g>
		</g>
		<g opacity="0.74">
			<g>
				<path fill="none" stroke="#E6E7E8" stroke-width="4" stroke-miterlimit="10" d="M207.408,377.266
					c0.093-0.137,0.186-0.273,0.28-0.409"/>
				<path fill="none" stroke="#E6E7E8" stroke-width="4" stroke-miterlimit="10" stroke-dasharray="0.9988,11.9859" d="
					M215.839,368.127c69.929-56.604,354.374,57.261,655.029,265.091c307.412,212.5,518.094,444.657,479.781,526.459"/>
				<path fill="none" stroke="#E6E7E8" stroke-width="4" stroke-miterlimit="10" d="M1347.721,1164.913
					c-0.091,0.138-0.182,0.275-0.275,0.412"/>
			</g>
		</g>
		<g>
			<defs>
				<path id="SVGID_1_" d="M234.746,751.33c0-291.321,233.669-527.479,521.908-527.479c288.245,0,521.911,236.158,521.911,527.479
					c0,291.314-233.666,527.475-521.911,527.475C468.415,1278.805,234.746,1042.645,234.746,751.33z"/>
			</defs>
			<clipPath id="SVGID_2_">
				<use xlink:href="#SVGID_1_"  overflow="visible"/>
			</clipPath>
			<path clip-path="url(#SVGID_2_)" fill="#C8CFC9" d="M234.746,751.33c0-291.321,233.669-527.479,521.908-527.479
				c288.245,0,521.911,236.158,521.911,527.479c0,291.314-233.666,527.475-521.911,527.475
				C468.415,1278.805,234.746,1042.645,234.746,751.33z"/>
			<g clip-path="url(#SVGID_2_)">
				<g>
					<path fill="#6A6230" d="M458.745,829.988c1.128,0,1.462-1.48,0.154-1.48C457.771,828.507,457.438,829.988,458.745,829.988
						L458.745,829.988z"/>
				</g>
			</g>
			<path clip-path="url(#SVGID_2_)" fill="#47452B" d="M246.38,453.156"/>
			<path clip-path="url(#SVGID_2_)" fill="#26322C" d="M1044.443,983.522"/>
			<polygon clip-path="url(#SVGID_2_)" fill="#26322C" points="246.38,453.156 233.41,1007.992 420.574,982.953 			"/>
			<path clip-path="url(#SVGID_2_)" fill="#0B132D" d="M457.925,1064.955"/>
			<g clip-path="url(#SVGID_2_)">
				<g>
					<path fill="#0B132D" d="M813.08,1166.821c0.858,0,2.002-1.303,0.696-1.303C812.918,1165.518,811.773,1166.821,813.08,1166.821
						L813.08,1166.821z"/>
				</g>
			</g>
			<line clip-path="url(#SVGID_2_)" fill="#8E8239" x1="507.889" y1="434.024" x2="245.964" y2="453.926"/>
			<polygon clip-path="url(#SVGID_2_)" fill="#929588" points="757.146,168.328 746.866,274.66 741.917,422.75 1240.952,473.66 			
				"/>
			<path clip-path="url(#SVGID_2_)" fill="#47452B" d="M247.738,455.905"/>
			<polygon clip-path="url(#SVGID_2_)" fill="#71461F" points="746.863,418.527 1245.899,469.437 1045.417,988.333 			"/>
			<polygon clip-path="url(#SVGID_2_)" fill="#956938" points="746.863,418.527 421.925,985.703 247.738,455.905 			"/>
			<polygon clip-path="url(#SVGID_2_)" fill="#A4764A" points="421.925,985.703 505.75,833.75 746.863,418.527 966.656,834.469 
				1045.417,988.333 			"/>
			<polygon clip-path="url(#SVGID_2_)" fill="#C3D3D7" points="966.656,834.469 1171,688.75 1045.833,1018.5 			"/>
			<polygon clip-path="url(#SVGID_2_)" fill="#AFC0C6" points="247.738,455.905 234.76,1010.743 421.925,985.703 			"/>
			<polygon clip-path="url(#SVGID_2_)" fill="#9A988C" points="247.738,455.905 762.093,164.105 753.812,270.875 746.863,418.527 
				412.917,445.167 			"/>
			<polygon clip-path="url(#SVGID_2_)" fill="#D3BCA0" points="1245.899,469.437 1312.086,786.709 1200.362,1135.229 
				1045.417,988.333 			"/>
			<path clip-path="url(#SVGID_2_)" fill="#0B132D" d="M459.278,1067.696"/>
			<polygon clip-path="url(#SVGID_2_)" fill="#808077" points="228.876,1008.771 421.925,985.703 642.875,1222.5 741.029,1335.303 
							"/>
			<g clip-path="url(#SVGID_2_)">
				<g>
					<path fill="#0B132D" d="M814.438,1169.566c0.857,0,2.002-1.303,0.696-1.303
						C814.277,1168.264,813.132,1169.566,814.438,1169.566L814.438,1169.566z"/>
				</g>
			</g>
			<polygon clip-path="url(#SVGID_2_)" fill="#6F6B5F" points="421.925,985.703 744.833,974.333 1045.417,988.333 741.029,1335.303 
				639.25,1225.438 			"/>
			<polygon clip-path="url(#SVGID_2_)" fill="#7A7367" points="1045.417,988.333 1200.362,1135.229 741.029,1335.303 
				872.583,1180.083 			"/>
			<polygon clip-path="url(#SVGID_2_)" fill="#7B5338" points="188.621,723.152 246.986,452.55 338.148,730.162 			"/>
			<polygon clip-path="url(#SVGID_2_)" fill="#BCC3C6" points="1310.565,788.568 1045.417,988.333 1199.108,1137.432 			"/>
			<polygon clip-path="url(#SVGID_2_)" fill="#B1B8AD" points="421.925,985.703 702.283,924.216 967.75,964.75 1045.417,988.333 
				745,980.5 			"/>
			<polygon clip-path="url(#SVGID_2_)" fill="#959289" points="412.917,445.167 574.088,721.881 746.863,418.527 			"/>
			<polygon clip-path="url(#SVGID_2_)" fill="#95877F" points="246.986,452.55 412.917,445.167 488.839,574.367 			"/>
			<polygon clip-path="url(#SVGID_2_)" fill="#9A988C" points="488.839,574.367 323.911,687.561 246.986,452.55 			"/>
			<polygon clip-path="url(#SVGID_2_)" fill="#9A988C" points="488.839,574.367 515.714,546.229 412.917,445.167 			"/>
			<polygon clip-path="url(#SVGID_2_)" fill="#BCC3C6" points="515.714,546.229 746.863,418.527 412.917,445.167 			"/>
			<polygon clip-path="url(#SVGID_2_)" fill="#808077" points="515.714,546.229 633.749,615.891 488.839,574.367 			"/>
			<polygon clip-path="url(#SVGID_2_)" fill="#959289" points="515.714,546.229 633.749,615.891 665.317,463.077 			"/>
			<polygon clip-path="url(#SVGID_2_)" fill="#A4764A" points="412.917,445.167 518.592,374.843 746.863,418.527 			"/>
			<path clip-path="url(#SVGID_2_)" fill="#32311A" d="M243.923,453.242"/>
			<path clip-path="url(#SVGID_2_)" fill="#38371F" d="M246.986,452.55"/>
			<polygon clip-path="url(#SVGID_2_)" fill="#BC8044" points="412.917,445.167 246.986,452.55 518.592,374.843 			"/>
			<polygon clip-path="url(#SVGID_2_)" fill="#ACB1AD" points="243.923,453.242 504.76,260.798 518.592,374.843 			"/>
			<polygon clip-path="url(#SVGID_2_)" fill="#8C7761" points="762.141,160.724 504.76,260.798 500.307,298.232 			"/>
			<polygon clip-path="url(#SVGID_2_)" fill="#D3BCA0" points="518.592,374.843 500.307,298.232 753.812,270.875 			"/>
			<polygon clip-path="url(#SVGID_2_)" fill="#B5AB9C" points="753.812,270.875 759.363,161.714 500.307,298.232 			"/>
			<polygon clip-path="url(#SVGID_2_)" fill="#877865" points="762.141,160.724 1033.193,273.312 948.193,321.316 			"/>
			<polygon clip-path="url(#SVGID_2_)" fill="#C3D1D7" points="1242.369,466.534 1031.504,271.593 948.193,321.316 			"/>
			<polygon clip-path="url(#SVGID_2_)" fill="#686557" points="738.61,1338.475 639.25,1225.438 783.521,1281.496 			"/>
			<polygon clip-path="url(#SVGID_2_)" fill="#555A54" points="738.61,1338.475 481.25,1240 494,1164.25 			"/>
			<polygon clip-path="url(#SVGID_2_)" fill="#5F6662" points="494,1164.25 639.25,1225.438 738.61,1338.475 			"/>
			<polygon clip-path="url(#SVGID_2_)" fill="#645D52" points="487.5,1240.75 413.911,1125.681 494,1164.25 			"/>
			<polygon clip-path="url(#SVGID_2_)" fill="#84847A" points="494,1164.25 549.172,1123.283 639.25,1225.438 			"/>
			<polygon clip-path="url(#SVGID_2_)" fill="#5D6867" points="738.61,1338.475 816.77,1338.541 822.919,1297.676 			"/>
			<polygon clip-path="url(#SVGID_2_)" fill="#555A54" points="783.521,1281.496 822.919,1297.676 738.61,1338.475 			"/>
			<polygon clip-path="url(#SVGID_2_)" fill="#554C3F" points="233.221,1009.65 433.134,1134.938 487.5,1240.75 			"/>
			<polygon clip-path="url(#SVGID_2_)" fill="#686557" points="822.919,1297.676 936.11,1286.109 816.77,1338.541 			"/>
			<polygon clip-path="url(#SVGID_2_)" fill="#6C675B" points="1200.632,1135.575 936.11,1286.109 943.959,1245.24 			"/>
			<polygon clip-path="url(#SVGID_2_)" fill="#6C553B" points="822.919,1297.676 872.583,1180.083 936.11,1286.109 			"/>
			<polygon clip-path="url(#SVGID_2_)" fill="#6B5E51" points="943.959,1245.24 872.583,1180.083 936.11,1286.109 			"/>
			<polygon clip-path="url(#SVGID_2_)" fill="#7C7364" points="639.25,1225.438 872.583,1180.083 783.521,1281.496 			"/>
			<polygon clip-path="url(#SVGID_2_)" fill="#655748" points="783.521,1281.496 822.919,1297.676 872.583,1180.083 			"/>
			<polygon clip-path="url(#SVGID_2_)" fill="#C0CCCF" points="1045.417,988.333 966.656,834.469 968.75,968.425 			"/>
			<polygon clip-path="url(#SVGID_2_)" fill="#6F6B5F" points="753.812,270.875 909.062,435.467 746.863,418.527 			"/>
			<polygon clip-path="url(#SVGID_2_)" fill="#968B79" points="948.193,321.316 753.812,270.875 760.733,161.358 			"/>
			<polygon clip-path="url(#SVGID_2_)" fill="#BC8044" points="746.863,418.527 963.562,399.938 1248.247,470.504 			"/>
			<polygon clip-path="url(#SVGID_2_)" fill="#8B7258" points="948.193,321.316 882.055,406.819 963.562,399.938 			"/>
			<polygon clip-path="url(#SVGID_2_)" fill="#B3BBB8" points="1314.138,789.386 1177.118,723.998 1045.417,988.333 			"/>
			<polygon clip-path="url(#SVGID_2_)" fill="#8B7258" points="702.387,924.779 746.863,418.527 634.25,616.833 574.114,721.671 			
				"/>
			<polygon clip-path="url(#SVGID_2_)" fill="#C8CFC9" points="704.155,925.842 977.157,970.608 966.656,834.469 704.177,925.786 
				745,980.5 423.804,987.33 			"/>
			<polygon clip-path="url(#SVGID_2_)" fill="#6F6B5F" points="860.444,634.325 1248.247,470.504 746.863,418.527 			"/>
			<polygon clip-path="url(#SVGID_2_)" fill="#959289" points="639.25,1225.438 745,980.5 421.925,985.703 			"/>
			<polygon clip-path="url(#SVGID_2_)" fill="#624D36" points="323.911,687.561 574.008,721.11 488.839,574.367 			"/>
			<polygon clip-path="url(#SVGID_2_)" fill="#95877F" points="323.911,687.561 210.124,618.094 246.38,453.156 			"/>
			<polygon clip-path="url(#SVGID_2_)" fill="#C3D3D7" points="860.444,634.325 1159.241,693.831 1248.247,470.504 1049.938,552 			
				"/>
			<polygon clip-path="url(#SVGID_2_)" fill="#7B6851" points="1159.241,693.831 1273.249,603.153 1245.899,469.437 			"/>
			<polygon clip-path="url(#SVGID_2_)" fill="#BCC3C6" points="574.008,721.11 860.444,634.325 746.863,418.527 633.749,615.891 			
				"/>
			<polygon clip-path="url(#SVGID_2_)" fill="#B1B8AD" points="702.091,924.561 505.75,833.75 417.702,986.846 			"/>
			<polygon clip-path="url(#SVGID_2_)" fill="#9A988C" points="639.25,1225.438 591.695,983.385 421.691,985.98 			"/>
			<polygon clip-path="url(#SVGID_2_)" fill="#B4BEC0" points="591.695,983.385 702.283,924.216 421.691,985.98 			"/>
			<polygon clip-path="url(#SVGID_2_)" fill="#B3C2C8" points="284.523,868.619 421.691,985.98 233.41,1007.992 			"/>
			<polygon clip-path="url(#SVGID_2_)" fill="#87989E" points="188.621,723.152 284.523,868.619 233.41,1007.992 			"/>
			<polygon clip-path="url(#SVGID_2_)" fill="#CBC9BC" points="505.75,833.75 338.148,730.162 420.574,982.953 			"/>
			<polygon clip-path="url(#SVGID_2_)" fill="#68473A" points="338.148,730.162 462.309,705.625 323.911,687.561 			"/>
			<polygon clip-path="url(#SVGID_2_)" fill="#95877F" points="459.559,706.553 488.839,574.367 323.911,687.561 			"/>
			<polygon clip-path="url(#SVGID_2_)" fill="#F8D9B5" points="488.839,574.367 280.618,560.02 323.911,687.561 			"/>
			<polygon clip-path="url(#SVGID_2_)" fill="#7D5E44" points="210.124,618.094 280.618,560.02 323.911,687.561 			"/>
			<polygon clip-path="url(#SVGID_2_)" fill="#5A4431" points="633.749,615.891 723.603,676.295 574.008,721.11 			"/>
			<polygon clip-path="url(#SVGID_2_)" fill="#959289" points="633.749,615.891 723.603,676.295 860.444,634.325 			"/>
			<polygon clip-path="url(#SVGID_2_)" fill="#9F7C5E" points="702.283,924.216 860.444,634.325 723.603,676.295 			"/>
			<polygon clip-path="url(#SVGID_2_)" fill="#8D725C" points="1159.241,693.831 1049.938,552 1245.899,469.437 			"/>
			<polygon clip-path="url(#SVGID_2_)" fill="#7A7367" points="1049.938,552 746.863,418.527 993.938,439.812 1245.899,469.437 			
				"/>
			<polygon clip-path="url(#SVGID_2_)" fill="#5B4D3E" points="746.863,418.527 993.938,439.812 1049.938,552 			"/>
			<polygon clip-path="url(#SVGID_2_)" fill="#947F68" points="233.221,1009.65 188.621,723.152 337.814,727.761 			"/>
			<polygon clip-path="url(#SVGID_2_)" fill="#7B6851" points="505.75,833.75 188.621,723.152 337.814,727.761 			"/>
			<polygon clip-path="url(#SVGID_2_)" fill="#8B7258" points="966.656,834.469 1282.177,772.983 1177.118,723.756 			"/>
			<polygon clip-path="url(#SVGID_2_)" fill="#BC8044" points="966.656,834.469 1177.118,723.756 1159.402,693.91 			"/>
			<path opacity="0.3" clip-path="url(#SVGID_2_)" fill="#BC8044" d="M482.817,920.875c0-31.889,54.814-57.742,122.428-57.742
				c67.62,0,122.432,25.854,122.432,57.742c0,31.89-54.812,57.743-122.432,57.743C537.631,978.618,482.817,952.765,482.817,920.875z
				"/>
			<path opacity="0.4" clip-path="url(#SVGID_2_)" fill="#FFFFE3" d="M627.787,864.271c0,0,154.882,14.684,44.635,95.918
				c-112.458,82.865-430.675,39.869-430.675,39.869l26.469,147.569C268.216,1147.628,1052.376,900.483,627.787,864.271z"/>
			<path opacity="0.4" clip-path="url(#SVGID_2_)" fill="#FFFFE3" d="M586.303,978.477c0,0-153.127-25.973-55.547-96.044
				c129.078-92.693,790.726-120.514,790.726-120.514l-69.33-243.302C1252.151,518.616,103.231,937.274,586.303,978.477z"/>
		</g>
		<g opacity="0.74">
			<g>
				<path fill="none" stroke="#E6E7E8" stroke-width="4" stroke-miterlimit="10" d="M1322.51,389.825
					c0.085,0.141,0.17,0.283,0.254,0.425"/>
				<path fill="none" stroke="#E6E7E8" stroke-width="4" stroke-miterlimit="10" stroke-dasharray="0.9984,11.9811" d="
					M1327.297,401.295c22.556,87.621-196.7,303.341-507.442,495.533c-317.664,196.476-613.479,295.714-671.652,226.91"/>
				<path fill="none" stroke="#E6E7E8" stroke-width="4" stroke-miterlimit="10" d="M144.672,1118.891
					c-0.087-0.141-0.174-0.281-0.259-0.422"/>
			</g>
		</g>
		<g opacity="0.74">
			<g>
				<path fill="none" stroke="#E6E7E8" stroke-width="4" stroke-miterlimit="10" d="M1368.015,480.384
					c0.064,0.152,0.128,0.305,0.19,0.458"/>
				<path fill="none" stroke="#E6E7E8" stroke-width="4" stroke-miterlimit="10" stroke-dasharray="0.9974,11.9691" d="
					M1371.104,492.412c9.802,89.993-238.084,271.342-573.131,416.009c-342.5,147.888-649.436,202.753-697.103,126.137"/>
				<path fill="none" stroke="#E6E7E8" stroke-width="4" stroke-miterlimit="10" d="M98.08,1029.257
					c-0.066-0.151-0.131-0.303-0.196-0.455"/>
			</g>
		</g>
		<g opacity="0.74">
			<g>
				<path fill="none" stroke="#E6E7E8" stroke-width="4" stroke-miterlimit="10" d="M1447.069,828.865
					c-0.007,0.165-0.015,0.33-0.024,0.495"/>
				<path fill="none" stroke="#E6E7E8" stroke-width="4" stroke-miterlimit="10" stroke-dasharray="0.9961,11.9536" d="
					M1444.714,841.042c-29.636,85.435-330.755,140.621-694.78,124.626C377.804,949.318,77.556,864.627,67.408,774.702"/>
				<path fill="none" stroke="#E6E7E8" stroke-width="4" stroke-miterlimit="10" d="M67.163,768.726
					c0.005-0.165,0.012-0.33,0.019-0.495"/>
			</g>
		</g>
		<g opacity="0.74">
			<g>
				<path fill="none" stroke="#E6E7E8" stroke-width="4" stroke-miterlimit="10" d="M1344.125,1174.126
					c-0.093,0.137-0.186,0.273-0.28,0.409"/>
				<path fill="none" stroke="#E6E7E8" stroke-width="4" stroke-miterlimit="10" stroke-dasharray="0.9988,11.9858" d="
					M1335.694,1183.265c-69.927,56.603-354.374-57.269-655.027-265.1C373.255,705.668,162.573,473.513,200.883,391.711"/>
				<path fill="none" stroke="#E6E7E8" stroke-width="4" stroke-miterlimit="10" d="M203.812,386.477
					c0.091-0.138,0.183-0.275,0.275-0.412"/>
			</g>
		</g>
	</g>
</g>
</svg>
