<?xml version="1.0" encoding="utf-8"?>
<!-- Generator: Adobe Illustrator 16.0.0, SVG Export Plug-In . SVG Version: 6.00 Build 0)  -->
<!DOCTYPE svg PUBLIC "-//W3C//DTD SVG 1.1//EN" "http://www.w3.org/Graphics/SVG/1.1/DTD/svg11.dtd">
<svg version="1.1" id="Layer_1" xmlns="http://www.w3.org/2000/svg" xmlns:xlink="http://www.w3.org/1999/xlink" x="0px" y="0px"
	 width="1500px" height="1500px" viewBox="0 0 1500 1500" enable-background="new 0 0 1500 1500" xml:space="preserve">
<g id="Jupiter">
	<g id="BG_1_">
		<g>
			<defs>
				<ellipse id="SVGID_1_" cx="1203.865" cy="451.872" rx="85.673" ry="86.588"/>
			</defs>
			<clipPath id="SVGID_2_">
				<use xlink:href="#SVGID_1_"  overflow="visible"/>
			</clipPath>
			<polygon clip-path="url(#SVGID_2_)" fill="#E0B553" points="1296.539,385.027 1318.405,384.791 1317.283,371.49 
				1300.354,367.579 			"/>
			<polygon clip-path="url(#SVGID_2_)" fill="#46442D" points="1142.531,472.725 1099.944,362.22 1227.786,349.384 			"/>
			<polygon clip-path="url(#SVGID_2_)" fill="#6B6331" points="1088.458,496.586 1142.531,472.725 1099.944,362.22 			"/>
			<path clip-path="url(#SVGID_2_)" fill="#47452B" d="M1203.331,573.86"/>
			<polygon clip-path="url(#SVGID_2_)" fill="#47452B" points="1142.531,472.725 1294.03,480.823 1203.331,573.86 			"/>
			<polygon clip-path="url(#SVGID_2_)" fill="#26322C" points="1294.03,480.823 1142.531,472.725 1227.786,349.384 			"/>
			<polygon clip-path="url(#SVGID_2_)" fill="#26322C" points="1203.331,573.86 1319.101,517.577 1294.03,480.823 			"/>
			<line clip-path="url(#SVGID_2_)" fill="#736D2E" x1="1088.458" y1="496.586" x2="1142.531" y2="472.725"/>
			<polygon clip-path="url(#SVGID_2_)" fill="#292F32" points="1099.944,362.22 1242.053,300.986 1227.786,349.384 			"/>
			<path clip-path="url(#SVGID_2_)" fill="#0B132D" d="M1306.961,464.238"/>
			<polygon clip-path="url(#SVGID_2_)" fill="#0B132D" points="1319.101,517.577 1294.03,480.823 1332.165,376.437 			"/>
			<g clip-path="url(#SVGID_2_)">
				<g>
					<path fill="#0B132D" d="M1289.667,379.255c0.858,0,2.002-1.303,0.696-1.303
						C1289.505,377.952,1288.361,379.255,1289.667,379.255L1289.667,379.255z"/>
				</g>
			</g>
			<polygon clip-path="url(#SVGID_2_)" fill="#0D1225" points="1294.03,480.823 1227.786,349.384 1332.165,376.437 			"/>
			<polygon clip-path="url(#SVGID_2_)" fill="#0D1321" points="1227.786,349.384 1242.053,300.986 1332.165,376.437 			"/>
			<line clip-path="url(#SVGID_2_)" fill="#8E8239" x1="1171.57" y1="520.831" x2="1203.534" y2="573.867"/>
			<polygon clip-path="url(#SVGID_2_)" fill="#453D4D" points="1142.956,472.149 1100.365,361.643 1228.206,348.807 			"/>
			<polygon clip-path="url(#SVGID_2_)" fill="#221519" points="1088.885,496.008 1142.956,472.149 1100.365,361.643 			"/>
			<path clip-path="url(#SVGID_2_)" fill="#47452B" d="M1203.756,573.284"/>
			<polygon clip-path="url(#SVGID_2_)" fill="#554746" points="1142.956,472.149 1294.454,480.246 1203.756,573.284 			"/>
			<path clip-path="url(#SVGID_2_)" fill="#26322C" d="M1228.206,348.807"/>
			<polygon clip-path="url(#SVGID_2_)" fill="#795F5F" points="1294.454,480.246 1142.956,472.149 1228.206,348.807 			"/>
			<polygon clip-path="url(#SVGID_2_)" fill="#573F38" points="1203.756,573.284 1319.523,516.997 1294.454,480.246 			"/>
			<polygon clip-path="url(#SVGID_2_)" fill="#3F323B" points="1203.756,573.284 1147.63,540.617 1088.885,496.008 
				1142.956,472.149 			"/>
			<polygon clip-path="url(#SVGID_2_)" fill="#38364F" points="1100.365,361.643 1158.74,313.953 1242.478,300.409 
				1228.206,348.807 			"/>
			<path clip-path="url(#SVGID_2_)" fill="#0B132D" d="M1307.384,463.66"/>
			<polygon clip-path="url(#SVGID_2_)" fill="#3F2E29" points="1319.101,517.577 1294.03,480.823 1332.165,376.437 			"/>
			<g clip-path="url(#SVGID_2_)">
				<g>
					<path fill="#0B132D" d="M1290.089,378.677c0.858,0,2.002-1.303,0.696-1.303
						C1289.928,377.374,1288.783,378.677,1290.089,378.677L1290.089,378.677z"/>
				</g>
			</g>
			<polygon clip-path="url(#SVGID_2_)" fill="#47382D" points="1294.454,480.246 1228.206,348.807 1265.868,350.663 
				1285.876,351.199 1332.585,375.858 			"/>
			<polygon clip-path="url(#SVGID_2_)" fill="#4E4A5C" points="1227.353,348.9 1242.478,300.409 1334.158,376.723 1285.514,351.488 
				1266.025,351.367 			"/>
			<line clip-path="url(#SVGID_2_)" fill="#8E8239" x1="1171.992" y1="520.252" x2="1203.954" y2="573.291"/>
			<polygon clip-path="url(#SVGID_2_)" fill="#C09A8C" points="1319.458,517.438 1265.14,557.307 1250.219,525.396 			"/>
			<polygon clip-path="url(#SVGID_2_)" fill="#4B3838" points="1265.14,557.307 1203.145,573.802 1250.683,525.069 			"/>
			<polygon clip-path="url(#SVGID_2_)" fill="#6A6470" points="1158.74,313.953 1227.303,349.192 1242.522,300.314 			"/>
			<polygon clip-path="url(#SVGID_2_)" fill="#43383E" points="1294.399,480.188 1251.22,428.099 1278.448,428.119 			"/>
			<polygon clip-path="url(#SVGID_2_)" fill="#483535" points="1183.911,540.239 1223.723,476.367 1142.767,472.232 			"/>
			<polygon clip-path="url(#SVGID_2_)" fill="#4B2E2D" points="1203.145,573.802 1183.911,540.239 1202.528,509.911 			"/>
			<g clip-path="url(#SVGID_2_)">
				<g>
					<path fill="#5B622B" d="M1205.987,493.586c0.596,0,2.098-0.902,0.804-0.902
						C1206.195,492.684,1204.693,493.586,1205.987,493.586L1205.987,493.586z"/>
				</g>
			</g>
			<polygon clip-path="url(#SVGID_2_)" fill="#4B3C46" points="1183.911,540.239 1158.23,524.87 1142.767,472.232 			"/>
			<path clip-path="url(#SVGID_2_)" fill="#32311A" d="M1203.612,574.372"/>
			<path clip-path="url(#SVGID_2_)" fill="#38371F" d="M1203.145,573.802"/>
			<polygon clip-path="url(#SVGID_2_)" fill="#6C5965" points="1203.612,574.372 1136.193,539.912 1158.23,524.87 			"/>
			<polygon clip-path="url(#SVGID_2_)" fill="#584143" points="1088.179,496.354 1136.193,539.912 1142.712,535.337 			"/>
			<polygon clip-path="url(#SVGID_2_)" fill="#3A3A4C" points="1111.262,486.37 1087.714,496.058 1143.05,535.448 			"/>
			<polygon clip-path="url(#SVGID_2_)" fill="#0F1530" points="1088.179,496.354 1082.557,427.295 1101.499,440.09 			"/>
			<polygon clip-path="url(#SVGID_2_)" fill="#39384B" points="1100.144,362.696 1082.381,427.837 1101.499,440.09 			"/>
			<polygon clip-path="url(#SVGID_2_)" fill="#472F29" points="1333.499,376.029 1342.267,440.053 1326.095,446.452 			"/>
			<polygon clip-path="url(#SVGID_2_)" fill="#664C43" points="1326.095,446.452 1320.733,409.833 1333.499,376.029 			"/>
			<polygon clip-path="url(#SVGID_2_)" fill="#030202" points="1342.267,440.053 1324.165,467.043 1326.095,446.452 			"/>
			<polygon clip-path="url(#SVGID_2_)" fill="#645A5A" points="1333.499,376.029 1325.196,359.564 1316.114,362.614 			"/>
			<polygon clip-path="url(#SVGID_2_)" fill="#251715" points="1318.64,518.902 1322.929,468.366 1341.492,441.304 			"/>
			<polygon clip-path="url(#SVGID_2_)" fill="#5F4438" points="1319.228,373.339 1301.691,340.01 1325.196,359.564 			"/>
			<polygon clip-path="url(#SVGID_2_)" fill="#4C3E3E" points="1242.522,300.314 1301.691,340.01 1292.434,342.7 			"/>
			<polygon clip-path="url(#SVGID_2_)" fill="#3E2F34" points="1319.264,370.982 1297.424,371.044 1301.691,340.01 			"/>
			<polygon clip-path="url(#SVGID_2_)" fill="#2C2836" points="1227.786,349.384 1205.017,382.293 1230.53,368.253 			"/>
			<polygon clip-path="url(#SVGID_2_)" fill="#262334" points="1205.017,382.293 1155.847,356.024 1227.786,349.384 			"/>
			<polygon clip-path="url(#SVGID_2_)" fill="#101821" points="1100.365,361.643 1159.834,349.762 1227.786,349.384 			"/>
			<polygon clip-path="url(#SVGID_2_)" fill="#725D5F" points="1111.262,486.37 1129.193,436.189 1143.077,472.465 			"/>
			<polygon clip-path="url(#SVGID_2_)" fill="#1E1D28" points="1143.234,472.688 1101.499,440.09 1100.337,361.034 			"/>
			<polygon clip-path="url(#SVGID_2_)" fill="#07070D" points="1158.74,313.953 1159.834,349.762 1227.786,349.384 			"/>
			<polygon clip-path="url(#SVGID_2_)" fill="#2E3248" points="1175.364,425.276 1100.337,361.034 1142.956,472.149 			"/>
			<path clip-path="url(#SVGID_2_)" fill="#26322C" d="M1289.66,320.875"/>
			<polygon clip-path="url(#SVGID_2_)" fill="#25181C" points="1285.75,351.523 1295.387,335.325 1302.04,340.42 1303.879,356.278 
				1295.819,362.57 			"/>
			<polygon clip-path="url(#SVGID_2_)" fill="#3D2E30" points="1295.819,362.57 1304.187,356.367 1296.508,384.933 			"/>
			<polygon clip-path="url(#SVGID_2_)" fill="#5F4C4C" points="1293.353,412.436 1293.992,399.74 1278.433,401.054 
				1290.615,416.353 			"/>
			<polygon clip-path="url(#SVGID_2_)" fill="#473D4A" points="1274.897,396.667 1257.056,387.111 1240.068,405.02 			"/>
			<polygon clip-path="url(#SVGID_2_)" fill="#5A4C5F" points="1257.056,387.111 1250.956,374.814 1240.127,404.963 			"/>
			<polygon clip-path="url(#SVGID_2_)" fill="#776C80" points="1278.448,428.119 1251.22,428.099 1240.068,405.02 1274.665,395.981 
				1290.615,416.353 			"/>
			<polygon clip-path="url(#SVGID_2_)" fill="#49322A" points="1296.578,384.905 1285.66,351.42 1295.819,362.57 			"/>
			<path clip-path="url(#SVGID_2_)" fill="#26322C" d="M1227.453,358.642"/>
			<polygon clip-path="url(#SVGID_2_)" fill="#463645" points="1205.406,381.696 1230.75,367.966 1251.205,375.325 
				1240.563,404.678 1235.522,413.252 			"/>
			<polygon clip-path="url(#SVGID_2_)" fill="#38252A" points="1235.522,413.252 1251.22,428.099 1236.511,442.507 			"/>
			<polygon clip-path="url(#SVGID_2_)" fill="#826461" points="1233.129,461.93 1212.99,463.733 1207.816,457.013 1236.511,442.507 
							"/>
			<polygon clip-path="url(#SVGID_2_)" fill="#A9A198" points="1230.536,484.091 1233.129,461.93 1212.753,463.651 
				1228.705,483.689 			"/>
			<polyline clip-path="url(#SVGID_2_)" fill="#635157" points="1212.772,499.102 1143.433,472.393 1207.816,457.013 
				1228.705,483.689 1212.071,500.063 			"/>
			<polygon clip-path="url(#SVGID_2_)" fill="#3E2B36" points="1236.511,442.507 1222.212,398.645 1235.522,413.252 			"/>
			<polygon clip-path="url(#SVGID_2_)" fill="#18141E" points="1290.615,416.353 1294.421,480.23 1278.448,428.119 			"/>
			<polygon clip-path="url(#SVGID_2_)" fill="#271814" points="1293.353,412.436 1320.521,408.782 1294.421,480.23 1290.17,416.353 
							"/>
			<polygon clip-path="url(#SVGID_2_)" fill="#271819" points="1213.586,463.665 1202.528,509.911 1269.762,505.203 			"/>
			<polygon clip-path="url(#SVGID_2_)" fill="#503E42" points="1212.99,463.733 1233.129,461.93 1269.762,505.203 			"/>
			<polygon clip-path="url(#SVGID_2_)" fill="#39323E" points="1269.762,505.203 1251.22,428.099 1236.511,442.507 1233.129,461.93 
							"/>
			<polygon clip-path="url(#SVGID_2_)" fill="#392121" points="1202.528,509.911 1250.683,525.069 1229.038,548.627 			"/>
			<polygon clip-path="url(#SVGID_2_)" fill="#231F2D" points="1207.816,457.013 1175.364,425.276 1236.511,442.507 			"/>
			<polygon clip-path="url(#SVGID_2_)" fill="#A08884" points="1222.212,398.645 1205.406,381.696 1175.364,425.276 			"/>
			<polygon clip-path="url(#SVGID_2_)" fill="#2F2226" points="1250.956,374.814 1227.786,349.384 1230.246,368.443 			"/>
			<polygon clip-path="url(#SVGID_2_)" fill="#7B655F" points="1257.056,387.111 1285.66,351.42 1250.956,374.814 			"/>
			<polygon clip-path="url(#SVGID_2_)" fill="#3A2A2C" points="1285.876,351.199 1274.665,395.981 1278.614,401.11 1293.992,399.74 
				1296.578,384.905 1296.511,384.938 			"/>
			<polygon clip-path="url(#SVGID_2_)" fill="#11163A" points="1157.83,356.142 1175.364,425.276 1097.723,360.303 			"/>
			<polygon clip-path="url(#SVGID_2_)" fill="#1B0E0B" points="1340.662,362.236 1320.733,409.833 1317.932,368.407 			"/>
		</g>
		<g id="Flat_Moons">
			<ellipse fill="#7E7165" cx="1393.392" cy="671.923" rx="17.703" ry="17.893"/>
			<ellipse fill="#7E7165" cx="780.226" cy="1226.57" rx="11.265" ry="11.387"/>
			<ellipse fill="#7E7165" cx="279.716" cy="838.644" rx="5.632" ry="5.694"/>
			<ellipse fill="#7E7165" cx="1160.036" cy="266.104" rx="5.633" ry="5.692"/>
			<ellipse fill="#7E7165" cx="497.076" cy="365.284" rx="11.266" ry="11.386"/>
			<ellipse fill="#7E7165" cx="1106.927" cy="297.822" rx="11.265" ry="11.386"/>
			<ellipse fill="#7E7165" cx="150.969" cy="562.946" rx="11.265" ry="11.386"/>
			<ellipse fill="#7E7165" cx="1375.688" cy="1226.568" rx="11.267" ry="11.386"/>
			<ellipse fill="#7E7165" cx="33.5" cy="886.625" rx="21.255" ry="21.482"/>
			<path fill="#7E7165" d="M610.617,1273.293c0-11.864,9.516-21.483,21.255-21.483c11.738,0,21.254,9.619,21.254,21.483
				c0,11.861-9.517,21.482-21.254,21.482C620.133,1294.775,610.617,1285.154,610.617,1273.293z"/>
			<ellipse fill="#7E7165" cx="240.127" cy="1273.293" rx="11.266" ry="11.387"/>
			<ellipse fill="#7E7165" cx="953.5" cy="1411.412" rx="11.266" ry="11.387"/>
		</g>
	</g>
</g>
</svg>
