<?xml version="1.0" encoding="utf-8"?>
<!-- Generator: Adobe Illustrator 16.0.0, SVG Export Plug-In . SVG Version: 6.00 Build 0)  -->
<!DOCTYPE svg PUBLIC "-//W3C//DTD SVG 1.1//EN" "http://www.w3.org/Graphics/SVG/1.1/DTD/svg11.dtd">
<svg version="1.1" id="Layer_1" xmlns="http://www.w3.org/2000/svg" xmlns:xlink="http://www.w3.org/1999/xlink" x="0px" y="0px"
	 width="777.709px" height="340px" viewBox="0 0 777.709 340" enable-background="new 0 0 777.709 340" xml:space="preserve">
<g>
	<path fill="#FFFFFF" d="M180.981,112.544l-26.023-25.722H63.467v14.862L50.532,91.137V73.402h59.611v7.649h29.084V70.076
		l-26.012-25.75h-66.03L21.463,70.064v34.935l42.004,34.185v49.089h29.074v-25.438l17.602,14.325v16.909H50.532v-17.035H21.463
		v20.136l25.722,25.979h16.282v37.716h18.138v0.051h73.354c0,0,23.419-23.375,26.023-25.999
		C180.955,232.642,180.981,112.544,180.981,112.544z M151.909,231.847H92.541v-8.699h20.674l26.012-25.979v-33.73l-46.686-38.052
		v-9.493h59.368V231.847z"/>
	<path fill="#FFFFFF" d="M220.433,142.245c0,4.484,0.156,5.649,1.015,6.938c1.012,1.64,3.275,2.615,5.922,2.615
		c2.263,0,4.171-0.703,5.302-1.986c1.015-1.174,1.363-2.696,1.363-6.041v-10.84c0-2.919-0.04-3.425-0.312-3.821
		c-0.313-0.426-0.699-0.505-2.572-0.505v-0.936h7.482v0.936c-1.868,0-2.259,0.079-2.572,0.505c-0.272,0.396-0.31,0.901-0.31,3.821
		v10.84c0,4.164-0.468,6.115-1.831,7.676c-1.521,1.754-4.212,2.65-7.914,2.65c-3.626,0-6.235-0.896-7.798-2.69
		c-1.284-1.485-1.673-3.274-1.673-7.636v-10.84c0-2.919-0.038-3.425-0.312-3.821c-0.311-0.426-0.702-0.505-2.575-0.505v-0.936h9.668
		v0.936c-1.869,0-2.259,0.079-2.573,0.505c-0.274,0.396-0.312,0.901-0.312,3.821V142.245z"/>
	<path fill="#FFFFFF" d="M273.57,154.096l-14.77-18.282l-1.169-1.442c-0.273-0.391-0.507-0.703-1.442-1.947v0.936v1.479v1.48v12.084
		c0,2.924,0.04,3.433,0.312,3.821c0.313,0.43,0.702,0.505,2.574,0.505v0.937h-7.484v-0.937c1.872,0,2.26-0.076,2.573-0.505
		c0.271-0.388,0.31-0.897,0.31-3.821V130.71l-1.093-1.288c-0.622-0.667-0.894-0.739-2.256-0.818v-0.936h6.04l12.354,15.399
		c0.821,0.971,1.443,1.75,1.872,2.294c0.349,0.427,0.466,0.55,1.013,1.249c-0.04-2.374-0.04-3.74-0.04-4.132v-9.548
		c0-2.919-0.037-3.425-0.311-3.821c-0.313-0.426-0.701-0.505-2.574-0.505v-0.936h7.484v0.936c-1.869,0-2.258,0.079-2.571,0.505
		c-0.271,0.396-0.313,0.901-0.313,3.821v21.167H273.57z"/>
	<path fill="#FFFFFF" d="M297.634,148.404c0,2.924,0.041,3.433,0.312,3.821c0.311,0.43,0.7,0.505,2.573,0.505v0.937h-9.668v-0.937
		c1.871,0,2.261-0.076,2.574-0.505c0.271-0.388,0.31-0.897,0.31-3.821V132.93c0-2.919-0.038-3.425-0.31-3.821
		c-0.313-0.426-0.703-0.505-2.574-0.505v-0.936h9.668v0.936c-1.873,0-2.263,0.079-2.573,0.505c-0.271,0.396-0.312,0.901-0.312,3.821
		V148.404z"/>
	<path fill="#FFFFFF" d="M325.554,154.405l-9.003-21.436c-1.287-3.042-1.368-3.235-1.834-3.702c-0.431-0.391-0.86-0.549-1.912-0.664
		v-0.936h9.431v0.936c-1.906,0.079-2.646,0.389-2.646,1.09c0,0.352,0.349,1.363,1.048,3.078l5.146,12.551
		c0.276,0.663,0.469,1.248,0.664,1.714c0.192,0.426,0.192,0.505,0.43,1.094c0.192-0.431,0.47-1.17,1.128-2.808l4.951-12.551
		c0.197-0.503,0.386-0.973,0.583-1.442c0.351-0.813,0.469-1.205,0.469-1.556c0-0.862-0.428-1.055-2.495-1.17v-0.936h7.133v0.936
		c-1.404,0.115-1.754,0.237-2.182,0.858c-0.351,0.506-0.43,0.736-1.639,3.508l-8.691,21.436H325.554z"/>
	<path fill="#FFFFFF" d="M369.373,133.323l-0.937,0.115c-0.97-3.548-1.987-4.17-6.86-4.17h-4.051v10.018h3.739
		c3.471,0,4.016-0.433,4.329-3.472h0.855v8.497h-0.855c-0.471-3.273-0.626-3.431-4.601-3.431h-3.468v11.186h5.493
		c4.485,0,5.844-0.893,7.251-4.796l0.855,0.123l-1.634,6.274h-18.749v-0.937c1.869,0,2.259-0.076,2.572-0.505
		c0.273-0.388,0.313-0.897,0.313-3.821V132.93c0-2.919-0.039-3.425-0.313-3.821c-0.313-0.426-0.703-0.505-2.572-0.505v-0.936h18.241
		L369.373,133.323z"/>
	<path fill="#FFFFFF" d="M391.738,148.376c0,2.924,0.04,3.433,0.313,3.816c0.31,0.431,0.697,0.51,2.57,0.51v0.937h-9.666v-0.937
		c1.869,0,2.259-0.079,2.572-0.51c0.271-0.383,0.313-0.892,0.313-3.816v-15.474c0-2.921-0.041-3.425-0.313-3.821
		c-0.313-0.426-0.703-0.505-2.572-0.505v-0.936h10.213c3.272,0,5.377,0.584,6.973,1.872c1.406,1.17,2.185,2.924,2.185,5.025
		c0,2.186-0.778,4.018-2.297,5.341c-1.015,0.935-1.953,1.364-3.858,1.869c0.656,0.549,0.934,0.857,2.375,2.729l4.404,5.883
		c1.52,1.955,1.947,2.185,3.86,2.342v0.937h-5.845l-6.043-7.914c-1.911-2.534-1.911-2.534-2.301-2.729
		c-0.232-0.156-0.856-0.235-1.481-0.235h-1.402V148.376z M391.738,141.401c0.74,0.075,1.131,0.115,1.754,0.115
		c4.13,0,6.666-2.299,6.666-6.078c0-3.979-2.418-6.199-6.745-6.199h-1.675V141.401z"/>
	<path fill="#FFFFFF" d="M435.381,134.449c-0.505-1.789-0.935-2.649-1.712-3.548c-1.135-1.245-2.891-1.989-4.756-1.989
		c-2.571,0-4.247,1.444-4.247,3.706c0,1.637,0.936,2.726,3.581,4.171l4.21,2.299c3.823,2.066,5.301,4.093,5.301,7.21
		c0,4.48-3.506,7.798-8.336,7.798c-1.562,0-2.108-0.118-5.106-1.094c-0.429-0.115-0.821-0.194-1.136-0.194
		c-0.581,0-0.893,0.194-2.104,1.288v-9.279h0.938c1.087,4.598,3.623,6.98,7.479,6.98c2.892,0,4.953-1.833,4.953-4.369
		c0-2.031-0.975-3.079-4.677-5.104l-3.508-1.869c-3.78-2.068-5.107-3.746-5.107-6.627c0-3.861,3.118-6.592,7.447-6.592
		c0.971,0,1.947,0.158,3.233,0.47c1.794,0.471,1.875,0.471,2.417,0.471c0.545,0,1.092-0.123,2.065-0.471v6.742H435.381z"/>
	<path fill="#FFFFFF" d="M458.741,148.404c0,2.924,0.04,3.433,0.313,3.821c0.306,0.43,0.703,0.505,2.57,0.505v0.937h-9.662v-0.937
		c1.867,0,2.258-0.076,2.57-0.505c0.271-0.388,0.309-0.897,0.309-3.821V132.93c0-2.919-0.037-3.425-0.309-3.821
		c-0.313-0.426-0.703-0.505-2.57-0.505v-0.936h9.662v0.936c-1.867,0-2.265,0.079-2.57,0.505c-0.272,0.396-0.313,0.901-0.313,3.821
		V148.404z"/>
	<path fill="#FFFFFF" d="M487.235,148.404c0,2.844,0.041,3.433,0.312,3.821c0.315,0.43,0.701,0.505,2.572,0.505v0.937h-9.664v-0.937
		c1.871,0,2.261-0.076,2.571-0.505c0.272-0.388,0.31-0.897,0.31-3.821v-19.1c-6.154-0.118-7.6,0.741-8.219,5.03h-0.938l0.314-6.666
		c0.697,0.039,3.236,0.078,7.636,0.118h8.147c0.546,0,4.558-0.079,5.809-0.118l-0.354,6.666h-0.93
		c-0.315-4.6-1.095-5.186-6.629-5.03h-0.937V148.404z"/>
	<path fill="#FFFFFF" d="M507.734,132.227c-2.143-3.192-2.533-3.508-4.558-3.623v-0.936h10.054v0.936
		c-2.104,0.115-2.377,0.197-2.377,0.818c0,0.468,0,0.468,1.131,2.263l3.586,5.653c0.857,1.399,1.365,2.296,1.56,2.605
		c0.586-0.934,0.666-1.048,1.793-2.842l3.39-5.416c0.856-1.33,1.054-1.795,1.054-2.18c0-0.75-0.275-0.822-2.531-0.901v-0.936h7.56
		v0.936c-1.794,0.079-1.873,0.152-4.209,3.623l-6.043,9.122v7.056c0,2.924,0.04,3.433,0.31,3.821
		c0.313,0.43,0.666,0.505,3.003,0.505v0.937h-10.522v-0.937c2.298,0,2.652-0.076,3.002-0.505c0.271-0.388,0.311-0.897,0.311-3.821
		v-6.396L507.734,132.227z"/>
	<path fill="#FFFFFF" d="M582.505,129.734c3.352,2.453,5.146,6.238,5.146,10.951c0,7.841-5.376,13.411-12.976,13.411
		c-7.563,0-12.981-5.57-12.981-13.372c0-7.992,5.339-13.487,13.097-13.487C577.597,127.237,580.324,128.135,582.505,129.734z
		 M565.864,139.755c0,6.895,4.055,12.351,9.159,12.351c4.989,0,8.46-4.44,8.46-10.872c0-3.314-0.819-6.234-2.379-8.501
		c-1.641-2.377-3.784-3.508-6.626-3.508C569.411,129.225,565.864,133.556,565.864,139.755z"/>
	<path fill="#FFFFFF" d="M616.633,133.515l-0.938,0.079c-1.05-3.704-1.985-4.326-6.392-4.326h-4.48v10.018h3.743
		c3.506,0,4.013-0.433,4.323-3.472h0.938v8.497h-0.938c-0.427-3.273-0.618-3.431-4.599-3.431h-3.468v7.523
		c0,2.924,0.04,3.433,0.313,3.821c0.31,0.43,0.703,0.505,2.568,0.505v0.937h-9.66v-0.937c1.867,0,2.26-0.076,2.572-0.505
		c0.27-0.388,0.309-0.819,0.309-3.821V132.93c0-3.002-0.039-3.425-0.309-3.821c-0.313-0.426-0.705-0.505-2.572-0.505v-0.936h18.355
		L616.633,133.515z"/>
	<path fill="#FFFFFF" d="M241.952,185.412c-0.932-3.29-1.718-4.871-3.15-6.51c-2.081-2.299-5.3-3.658-8.736-3.658
		c-4.725,0-7.807,2.651-7.807,6.803c0,2.999,1.719,5.009,6.59,7.665l7.733,4.219c7.017,3.796,9.737,7.522,9.737,13.25
		c0,8.229-6.444,14.317-15.322,14.317c-2.862,0-3.866-0.213-9.381-2.007c-0.787-0.213-1.505-0.355-2.074-0.355
		c-1.074,0-1.645,0.355-3.867,2.362v-17.034h1.718c2.007,8.446,6.661,12.816,13.748,12.816c5.298,0,9.095-3.375,9.095-8.025
		c0-3.721-1.794-5.657-8.595-9.374l-6.446-3.441c-6.941-3.792-9.377-6.875-9.377-12.171c0-7.088,5.728-12.097,13.677-12.097
		c1.789,0,3.581,0.289,5.941,0.854c3.295,0.861,3.437,0.861,4.44,0.861c1.003,0,2.007-0.213,3.795-0.861v12.388H241.952z"/>
	<path fill="#FFFFFF" d="M291.429,176.75c6.159,4.507,9.451,11.456,9.451,20.125c0,14.379-9.88,24.623-23.842,24.623
		c-13.888,0-23.847-10.244-23.847-24.557c0-14.68,9.814-24.77,24.064-24.77C282.406,172.17,287.42,173.814,291.429,176.75z
		 M260.854,195.151c0,12.673,7.452,22.699,16.829,22.699c9.165,0,15.536-8.166,15.536-19.981c0-6.089-1.504-11.457-4.371-15.61
		c-3.004-4.365-6.94-6.439-12.172-6.439C267.371,175.82,260.854,183.762,260.854,195.151z"/>
	<path fill="#FFFFFF" d="M319.717,199.733c0,8.237,0.286,10.377,1.862,12.744c1.86,3.007,6.012,4.801,10.883,4.801
		c4.152,0,7.66-1.293,9.738-3.659c1.862-2.15,2.504-4.935,2.504-11.102v-19.899c0-5.372-0.072-6.3-0.576-7.023
		c-0.568-0.787-1.283-0.92-4.72-0.92v-1.723h13.744v1.723c-3.438,0-4.148,0.134-4.726,0.92c-0.498,0.723-0.572,1.651-0.572,7.023
		v19.899c0,7.668-0.86,11.251-3.364,14.111c-2.792,3.22-7.729,4.867-14.536,4.867c-6.657,0-11.457-1.647-14.319-4.938
		c-2.36-2.722-3.08-6.017-3.08-14.04v-19.899c0-5.372-0.069-6.3-0.571-7.023c-0.574-0.787-1.289-0.92-4.726-0.92v-1.723h17.757
		v1.723c-3.436,0-4.154,0.134-4.729,0.92c-0.5,0.723-0.569,1.651-0.569,7.023V199.733z"/>
	<path fill="#FFFFFF" d="M380.509,211.044c0,5.227,0.068,6.305,0.57,7.02c0.58,0.782,1.29,0.923,4.728,0.923v1.723h-17.754v-1.723
		c3.433,0,4.152-0.142,4.721-0.923c0.502-0.715,0.578-1.648,0.578-7.02v-35.082c-11.316-0.217-13.966,1.355-15.111,9.233h-1.718
		l0.571-12.243c1.292,0.071,5.945,0.146,14.031,0.213h14.968c1.002,0,8.382-0.142,10.664-0.213l-0.644,12.243h-1.719
		c-0.571-8.446-1.998-9.525-12.168-9.233h-1.718V211.044z"/>
	<path fill="#FFFFFF" d="M413.448,197.66v13.385c0,5.372,0.072,6.305,0.574,7.02c0.567,0.782,1.287,0.923,4.72,0.923v1.723h-17.754
		v-1.723c3.438,0,4.147-0.142,4.729-0.923c0.498-0.715,0.568-1.648,0.568-7.02v-28.425c0-5.372-0.07-6.3-0.568-7.023
		c-0.582-0.787-1.291-0.92-4.729-0.92v-1.723h17.754v1.723c-3.433,0-4.152,0.134-4.72,0.92c-0.502,0.723-0.574,1.651-0.574,7.023
		v12.105h23.554v-12.105c0-5.372-0.066-6.3-0.572-7.023c-0.574-0.787-1.284-0.92-4.723-0.92v-1.723h17.755v1.723
		c-3.433,0-4.156,0.134-4.725,0.92c-0.502,0.723-0.578,1.651-0.578,7.023v28.425c0,5.372,0.076,6.305,0.578,7.02
		c0.568,0.782,1.292,0.923,4.725,0.923v1.723h-17.755v-1.723c3.438,0,4.148-0.142,4.723-0.923c0.506-0.715,0.572-1.648,0.572-7.02
		V197.66H413.448z"/>
	<path fill="#FFFFFF" d="M478.822,182.619c0-5.372-0.07-6.3-0.572-7.023c-0.568-0.787-1.288-0.92-4.726-0.92v-1.723h19.188
		c10.312,0,16.545,1.928,21.195,6.661c4.081,4.082,6.156,9.596,6.156,16.328c0,7.296-2.431,13.384-7.163,17.896
		c-5.081,4.8-11.377,6.874-21.12,6.874h-18.256v-1.723c3.438,0,4.157-0.142,4.726-0.923c0.502-0.715,0.572-1.648,0.572-7.02V182.619
		z M485.985,207.327c0.142,8.083,0.142,8.229,0.496,9.232c0.291,0.928,1.937,1.292,5.797,1.292c7.667,0,12.819-2.22,16.257-6.949
		c2.574-3.504,3.872-8.237,3.872-13.673c0-7.589-2.722-13.961-7.519-17.762c-3.584-2.864-8.162-4.156-14.394-4.156
		c-1.504,0-2.512,0.08-4.51,0.221V207.327z"/>
	<path fill="#FFFFFF" d="M534.746,204.463l-3.006,7.869c-1.146,2.86-1.431,3.868-1.431,4.725c0,1.225,0.858,1.647,4.077,1.931v1.723
		H522.29v-1.723c3.148-0.284,3.65-0.923,6.299-7.734l16.042-40.162h1.146l15.821,38.735c2.506,5.803,3.078,7.02,3.797,7.806
		c0.711,0.783,1.362,1.07,3.291,1.354v1.723h-15.897v-1.723c2.798,0,3.651-0.43,3.651-1.86c0-0.786-0.071-1.066-1.071-3.65
		l-3.508-9.015H534.746z M543.269,182.758l-7.377,18.761h14.827L543.269,182.758z"/>
	<path fill="#FFFFFF" d="M586.089,211.044c0,5.372,0.069,6.305,0.567,7.02c0.576,0.782,1.293,0.923,4.73,0.923v1.723h-17.754v-1.723
		c3.432,0,4.146-0.142,4.721-0.923c0.502-0.715,0.571-1.648,0.571-7.02v-28.425c0-5.372-0.069-6.3-0.571-7.023
		c-0.574-0.787-1.289-0.92-4.721-0.92v-1.723h17.754v1.723c-3.438,0-4.154,0.134-4.73,0.92c-0.498,0.723-0.567,1.651-0.567,7.023
		V211.044z M611.004,213.193c4.44,4.796,6.012,5.795,8.882,5.795v1.723h-19.117v-1.723c3.938-0.071,4.938-0.284,4.938-1.212
		c0-0.648-0.143-0.783-2.864-3.797l-16.469-18.401l13.89-13.961c3.151-3.229,4.225-4.58,4.225-5.374
		c0-1.213-0.717-1.501-4.225-1.568v-1.723h15.755v1.723c-3.936,0.355-5.231,1.07-10.737,6.076l-12.749,12.108L611.004,213.193z"/>
	<path fill="#FFFFFF" d="M657.89,176.75c6.158,4.507,9.45,11.456,9.45,20.125c0,14.379-9.881,24.623-23.848,24.623
		c-13.889,0-23.837-10.244-23.837-24.557c0-14.68,9.807-24.77,24.056-24.77C648.863,172.17,653.877,173.814,657.89,176.75z
		 M627.316,195.151c0,12.673,7.446,22.699,16.824,22.699c9.162,0,15.537-8.166,15.537-19.981c0-6.089-1.504-11.457-4.364-15.61
		c-3.011-4.365-6.952-6.439-12.172-6.439C633.831,175.82,627.316,183.762,627.316,195.151z"/>
	<path fill="#FFFFFF" d="M695.757,211.044c0,5.227,0.069,6.305,0.567,7.02c0.572,0.782,1.289,0.923,4.721,0.923v1.723h-17.751
		v-1.723c3.438,0,4.149-0.142,4.723-0.923c0.503-0.715,0.576-1.648,0.576-7.02v-35.082c-11.307-0.217-13.96,1.355-15.102,9.233
		h-1.719l0.568-12.243c1.288,0.071,5.938,0.146,14.031,0.213h14.971c0.998,0,8.373-0.142,10.657-0.213l-0.64,12.243h-1.715
		c-0.577-8.446-2.008-9.525-12.18-9.233h-1.709V211.044z"/>
	<path fill="#FFFFFF" d="M722.303,204.463l-3.002,7.869c-1.153,2.86-1.434,3.868-1.434,4.725c0,1.225,0.852,1.647,4.075,1.931v1.723
		h-12.092v-1.723c3.145-0.284,3.643-0.923,6.302-7.734l16.03-40.162h1.149l15.824,38.735c2.507,5.803,3.072,7.02,3.796,7.806
		c0.714,0.783,1.358,1.07,3.294,1.354v1.723h-15.901v-1.723c2.794,0,3.655-0.43,3.655-1.86c0-0.786-0.068-1.066-1.076-3.65
		l-3.511-9.015H722.303z M730.825,182.758l-7.377,18.761h14.824L730.825,182.758z"/>
</g>
</svg>
