<?xml version="1.0" encoding="utf-8"?>
<!-- Generator: Adobe Illustrator 16.0.0, SVG Export Plug-In . SVG Version: 6.00 Build 0)  -->
<!DOCTYPE svg PUBLIC "-//W3C//DTD SVG 1.1//EN" "http://www.w3.org/Graphics/SVG/1.1/DTD/svg11.dtd">
<svg version="1.1" id="Layer_1" xmlns="http://www.w3.org/2000/svg" xmlns:xlink="http://www.w3.org/1999/xlink" x="0px" y="0px"
	 width="512px" height="512px" viewBox="0 0 512 512" enable-background="new 0 0 512 512" xml:space="preserve">
<g>
	<path fill-rule="evenodd" clip-rule="evenodd" fill="#071C2C" d="M233.273,336.425c-4.454-0.987-17.081-12.373-17.081-12.373
		l-3.942,3.716c0,0,9.137,10.637,14.578,18.058L233.273,336.425L233.273,336.425z"/>
	<path fill-rule="evenodd" clip-rule="evenodd" fill="#071C2C" d="M174.369,380.227c1.397,0,2.545-1.14,2.545-2.549
		c0-1.392-1.147-2.531-2.545-2.531c-1.395,0-2.523,1.14-2.523,2.531C171.846,379.087,172.975,380.227,174.369,380.227
		L174.369,380.227z"/>
	<path fill-rule="evenodd" clip-rule="evenodd" fill="#071C2C" d="M176.732,400.083c1.066,0,1.93-0.863,1.93-1.92
		c0-1.061-0.863-1.92-1.93-1.92c-1.069,0-1.932,0.859-1.932,1.92C174.801,399.22,175.663,400.083,176.732,400.083L176.732,400.083z"
		/>
	<path fill-rule="evenodd" clip-rule="evenodd" fill="#071C2C" d="M266.003,381.235c0.963,0,1.743-0.78,1.743-1.758
		c0-0.964-0.78-1.758-1.743-1.758c-0.964,0-1.765,0.794-1.765,1.758C264.238,380.455,265.039,381.235,266.003,381.235
		L266.003,381.235z"/>
	<path fill-rule="evenodd" clip-rule="evenodd" fill="#071C2C" d="M326.425,344.337c0.677,0,1.212-0.553,1.212-1.229
		c0-0.67-0.535-1.223-1.212-1.223s-1.229,0.553-1.229,1.223C325.195,343.784,325.748,344.337,326.425,344.337L326.425,344.337z"/>
	<path fill-rule="evenodd" clip-rule="evenodd" fill="#071C2C" d="M328.151,368.326c0.677,0,1.229-0.542,1.229-1.219
		c0-0.68-0.553-1.219-1.229-1.219s-1.212,0.539-1.212,1.219C326.939,367.784,327.475,368.326,328.151,368.326L328.151,368.326z"/>
	<path fill-rule="evenodd" clip-rule="evenodd" fill="#071C2C" d="M339.485,413.744c1.395,0,2.524-1.129,2.524-2.534
		c0-1.409-1.13-2.535-2.524-2.535c-1.416,0-2.549,1.126-2.549,2.535C336.937,412.615,338.069,413.744,339.485,413.744
		L339.485,413.744z"/>
	<path fill-rule="evenodd" clip-rule="evenodd" fill="#071C2C" d="M341.947,334.229c1.461,0,2.628-1.17,2.628-2.617
		c0-1.461-1.167-2.631-2.628-2.631c-1.437,0-2.628,1.17-2.628,2.631C339.319,333.059,340.511,334.229,341.947,334.229
		L341.947,334.229z"/>
	<path fill-rule="evenodd" clip-rule="evenodd" fill="#071C2C" d="M342.687,348.937c0.742,0,1.315-0.594,1.315-1.322
		c0-0.712-0.573-1.306-1.315-1.306c-0.715,0-1.313,0.594-1.313,1.306C341.374,348.343,341.972,348.937,342.687,348.937
		L342.687,348.937z"/>
	<path fill-rule="evenodd" clip-rule="evenodd" fill="#071C2C" d="M367.242,320.982c0.739,0,1.316-0.604,1.316-1.323
		c0-0.722-0.577-1.315-1.316-1.315c-0.718,0-1.291,0.594-1.291,1.315C365.951,320.378,366.524,320.982,367.242,320.982
		L367.242,320.982z"/>
	<path fill-rule="evenodd" clip-rule="evenodd" fill="#071C2C" d="M391.243,348.484c0.925,0,1.664-0.739,1.664-1.672
		c0-0.904-0.739-1.65-1.664-1.65c-0.901,0-1.661,0.746-1.661,1.65C389.582,347.745,390.342,348.484,391.243,348.484L391.243,348.484
		z"/>
	<path fill-rule="evenodd" clip-rule="evenodd" fill="#071C2C" d="M402.045,343.373c1.188,0,2.176-0.967,2.176-2.176
		c0-1.212-0.988-2.196-2.176-2.196c-1.212,0-2.196,0.984-2.196,2.196C399.849,342.406,400.833,343.373,402.045,343.373
		L402.045,343.373z"/>
	<path fill-rule="evenodd" clip-rule="evenodd" fill="#071C2C" d="M371.207,366.421c1.167,0,2.093-0.933,2.093-2.097
		c0-1.16-0.926-2.103-2.093-2.103c-1.153,0-2.097,0.942-2.097,2.103C369.11,365.488,370.054,366.421,371.207,366.421
		L371.207,366.421z"/>
	<path fill-rule="evenodd" clip-rule="evenodd" fill="#071C2C" d="M393.298,376.47c0.618,0,1.149-0.505,1.149-1.14
		c0-0.615-0.531-1.14-1.149-1.14c-0.64,0-1.15,0.524-1.15,1.14C392.147,375.965,392.658,376.47,393.298,376.47L393.298,376.47z"/>
	<path fill-rule="evenodd" clip-rule="evenodd" fill="#071C2C" d="M253.006,95.158c1.438,0,2.627-1.181,2.627-2.631
		c0-1.458-1.189-2.635-2.627-2.635c-1.457,0-2.628,1.178-2.628,2.635C250.378,93.977,251.549,95.158,253.006,95.158L253.006,95.158z
		"/>
	<path fill-rule="evenodd" clip-rule="evenodd" fill="#071C2C" d="M242.596,67.739c0.842,0,1.499-0.691,1.499-1.492
		c0-0.832-0.657-1.505-1.499-1.505c-0.801,0-1.478,0.673-1.478,1.505C241.118,67.048,241.795,67.739,242.596,67.739L242.596,67.739z
		"/>
	<path fill-rule="evenodd" clip-rule="evenodd" fill="#071C2C" d="M240.07,101.637c0.494,0,0.883-0.411,0.883-0.884
		s-0.389-0.874-0.883-0.874c-0.492,0-0.861,0.4-0.861,0.874S239.578,101.637,240.07,101.637L240.07,101.637z"/>
	<path fill-rule="evenodd" clip-rule="evenodd" fill="#071C2C" d="M199.069,105.639c1.046,0,1.909-0.863,1.909-1.92
		c0-1.06-0.863-1.92-1.909-1.92c-1.069,0-1.931,0.86-1.931,1.92C197.139,104.775,198,105.639,199.069,105.639L199.069,105.639z"/>
	<path fill-rule="evenodd" clip-rule="evenodd" fill="#071C2C" d="M195.538,101.194c0.472,0,0.862-0.4,0.862-0.874
		s-0.391-0.884-0.862-0.884c-0.473,0-0.884,0.411-0.884,0.884S195.065,101.194,195.538,101.194L195.538,101.194z"/>
	<path fill-rule="evenodd" clip-rule="evenodd" fill="#071C2C" d="M280.641,140.5c1.026,0,1.848-0.818,1.848-1.823
		c0-1.022-0.821-1.84-1.848-1.84c-1.008,0-1.826,0.818-1.826,1.84C278.814,139.681,279.633,140.5,280.641,140.5L280.641,140.5z"/>
	<path fill-rule="evenodd" clip-rule="evenodd" fill="#071C2C" d="M303.039,247.966c0,0,32.44,9.966,21.521,37.869
		c0,0-14.086,28.448-55.908,14.586l-8.521,7.677l-0.329-27.035l12.196,9.213c0,0,27.965,7.618,28.459-8.412
		c0,0-1.437-5.926-22.896-12.494c0,0-24.988-7.673-19.299-29.691c0,0,3.963-34.257,53.566-20.409l8.644-4.703l-0.104,26.231
		l-10.694-10.522c0,0-22.401-7.238-25.748,3.657C280.292,245.787,294.868,245.006,303.039,247.966L303.039,247.966z"/>
	<path fill-rule="evenodd" clip-rule="evenodd" fill="#071C2C" d="M429.104,299.938l-9.896-9.662l-30.183-72.678h-37.364
		l9.524,10.205l-20.036,63.851l-8.295,8.284h24.267l-5.708-7.677l3.225-11.385h27.472l4.188,10.892l-8.153,8.17H429.104z
		 M357.839,269.501l8.913-28.21l11.638,28.21H357.839z"/>
	<path fill-rule="evenodd" clip-rule="evenodd" fill="#071C2C" d="M228.655,89.429c1.458,0,2.628-1.171,2.628-2.618
		c0-1.461-1.17-2.628-2.628-2.628c-1.438,0-2.608,1.167-2.608,2.628C226.047,88.258,227.217,89.429,228.655,89.429L228.655,89.429z"
		/>
	<path fill-rule="evenodd" clip-rule="evenodd" fill="#071C2C" d="M161.537,147.71c1.027,0,1.848-0.825,1.848-1.83
		c0-1.025-0.82-1.837-1.848-1.837c-1.006,0-1.826,0.812-1.826,1.837C159.711,146.885,160.531,147.71,161.537,147.71L161.537,147.71z
		"/>
	<path fill-rule="evenodd" clip-rule="evenodd" fill="#071C2C" d="M167.101,156.986c1.027,0,1.849-0.819,1.849-1.824
		c0-1.019-0.821-1.851-1.849-1.851c-1.005,0-1.825,0.832-1.825,1.851C165.275,156.167,166.096,156.986,167.101,156.986
		L167.101,156.986z"/>
	<path fill-rule="evenodd" clip-rule="evenodd" fill="#071C2C" d="M183.198,177.992c0.491,0,0.863-0.391,0.863-0.874
		s-0.372-0.884-0.863-0.884c-0.472,0-0.883,0.4-0.883,0.884S182.727,177.992,183.198,177.992L183.198,177.992z"/>
	<path fill-rule="evenodd" clip-rule="evenodd" fill="#071C2C" d="M203.607,107.158c0.492,0,0.882-0.383,0.882-0.863
		c0-0.494-0.39-0.88-0.882-0.88c-0.472,0-0.883,0.387-0.883,0.88C202.725,106.775,203.136,107.158,203.607,107.158L203.607,107.158z
		"/>
	<path fill-rule="evenodd" clip-rule="evenodd" fill="#071C2C" d="M201.143,117.681c0.822,0,1.479-0.677,1.479-1.489
		c0-0.822-0.656-1.499-1.479-1.499c-0.821,0-1.498,0.677-1.498,1.499C199.645,117.003,200.321,117.681,201.143,117.681
		L201.143,117.681z"/>
	<path fill-rule="evenodd" clip-rule="evenodd" fill="#071C2C" d="M232.063,107.158c0.822,0,1.499-0.667,1.499-1.488
		c0-0.812-0.677-1.492-1.499-1.492c-0.821,0-1.478,0.68-1.478,1.492C230.586,106.492,231.242,107.158,232.063,107.158
		L232.063,107.158z"/>
	<path fill-rule="evenodd" clip-rule="evenodd" fill="#071C2C" d="M250.933,118.288c0.821,0,1.478-0.66,1.478-1.481
		c0-0.818-0.656-1.488-1.478-1.488c-0.822,0-1.478,0.67-1.478,1.488C249.455,117.628,250.11,118.288,250.933,118.288
		L250.933,118.288z"/>
	<path fill-rule="evenodd" clip-rule="evenodd" fill="#071C2C" d="M377.468,378.945c1.806,0,3.264-1.457,3.264-3.277
		c0-1.795-1.458-3.263-3.264-3.263s-3.284,1.468-3.284,3.263C374.184,377.488,375.662,378.945,377.468,378.945L377.468,378.945z"/>
	<polygon fill-rule="evenodd" clip-rule="evenodd" fill="#071C2C" points="375.496,372.981 377.488,367.426 379.295,372.93 
		375.496,372.981 	"/>
	<polygon fill-rule="evenodd" clip-rule="evenodd" fill="#071C2C" points="375.496,378.154 377.488,383.718 379.295,378.217 
		375.496,378.154 	"/>
	<polygon fill-rule="evenodd" clip-rule="evenodd" fill="#071C2C" points="374.798,377.678 369.235,375.699 374.736,373.914 
		374.798,377.678 	"/>
	<polygon fill-rule="evenodd" clip-rule="evenodd" fill="#071C2C" points="380.054,377.678 385.621,375.699 380.116,373.914 
		380.054,377.678 	"/>
	<path fill-rule="evenodd" clip-rule="evenodd" fill="#071C2C" d="M371.556,333.549c1.15,0,2.093-0.943,2.093-2.104
		c0-1.153-0.942-2.093-2.093-2.093c-1.171,0-2.096,0.939-2.096,2.093C369.46,332.605,370.385,333.549,371.556,333.549
		L371.556,333.549z"/>
	<path fill-rule="evenodd" clip-rule="evenodd" fill="#071C2C" d="M303.819,419.218c1.153,0,2.097-0.946,2.097-2.097
		c0-1.167-0.943-2.092-2.097-2.092c-1.167,0-2.093,0.925-2.093,2.092C301.727,418.271,302.652,419.218,303.819,419.218
		L303.819,419.218z"/>
	<path fill-rule="evenodd" clip-rule="evenodd" fill="#071C2C" d="M225.883,396.333c1.151,0,2.094-0.943,2.094-2.104
		c0-1.149-0.942-2.096-2.094-2.096c-1.15,0-2.113,0.946-2.113,2.096C223.77,395.39,224.732,396.333,225.883,396.333L225.883,396.333
		z"/>
	<path fill-rule="evenodd" clip-rule="evenodd" fill="#071C2C" d="M152.586,396.94c1.15,0,2.094-0.926,2.094-2.096
		c0-1.15-0.943-2.093-2.094-2.093c-1.17,0-2.094,0.942-2.094,2.093C150.492,396.015,151.416,396.94,152.586,396.94L152.586,396.94z"
		/>
	<path fill-rule="evenodd" clip-rule="evenodd" fill="#071C2C" d="M160.923,348.937c0.778,0,1.396-0.636,1.396-1.396
		c0-0.783-0.617-1.416-1.396-1.416c-0.76,0-1.397,0.633-1.397,1.416C159.525,348.301,160.163,348.937,160.923,348.937
		L160.923,348.937z"/>
	<path fill-rule="evenodd" clip-rule="evenodd" fill="#071C2C" d="M135.873,366.248c0.779,0,1.396-0.618,1.396-1.398
		c0-0.771-0.617-1.396-1.396-1.396c-0.781,0-1.396,0.625-1.396,1.396C134.478,365.63,135.092,366.248,135.873,366.248
		L135.873,366.248z"/>
	<path fill-rule="evenodd" clip-rule="evenodd" fill="#071C2C" d="M166.197,309.034c0.76,0,1.396-0.625,1.396-1.396
		s-0.637-1.409-1.396-1.409c-0.78,0-1.416,0.639-1.416,1.409S165.417,309.034,166.197,309.034L166.197,309.034z"/>
	<path fill-rule="evenodd" clip-rule="evenodd" fill="#071C2C" d="M79.596,349.555c0.76,0,1.396-0.629,1.396-1.409
		c0-0.76-0.637-1.405-1.396-1.405c-0.78,0-1.417,0.646-1.417,1.405C78.179,348.926,78.815,349.555,79.596,349.555L79.596,349.555z"
		/>
	<path fill-rule="evenodd" clip-rule="evenodd" fill="#071C2C" d="M102.776,351.717c0.78,0,1.415-0.622,1.415-1.396
		c0-0.78-0.635-1.402-1.415-1.402c-0.76,0-1.396,0.622-1.396,1.402C101.381,351.095,102.017,351.717,102.776,351.717
		L102.776,351.717z"/>
	<path fill-rule="evenodd" clip-rule="evenodd" fill="#071C2C" d="M98.443,363.054c1.397,0,2.546-1.119,2.546-2.535
		c0-1.398-1.148-2.527-2.546-2.527c-1.395,0-2.525,1.129-2.525,2.527C95.918,361.935,97.049,363.054,98.443,363.054L98.443,363.054z
		"/>
	<path fill-rule="evenodd" clip-rule="evenodd" fill="#071C2C" d="M106.492,372.65c1.418,0,2.547-1.14,2.547-2.535
		c0-1.395-1.129-2.534-2.547-2.534c-1.396,0-2.524,1.14-2.524,2.534C103.968,371.511,105.097,372.65,106.492,372.65L106.492,372.65z
		"/>
	<path fill-rule="evenodd" clip-rule="evenodd" fill="#071C2C" d="M428.797,134.712c38.784-31.978,70.73-59.503,81.964-80.361
		c0,0-24.622,82.402-139.678,168.503c0,0-175.669,119.895-223.671,153.533c0,0-44.287,31.294-81.9,79.788l-0.863-7.918
		c0,0,28.149-41.439,92.289-86.723c56.422-39.834,77.447-53.188,77.447-53.188s133.99-83.87,161.686-120.375
		c0,0-96.108,55.176-261.902,87.216c0,0-76.704,19.3-126.803,50.59H0.447c0,0,43.732-37.164,145.18-65.988
		C145.627,259.79,317.27,208.819,428.797,134.712L428.797,134.712z"/>
	<polygon fill-rule="evenodd" clip-rule="evenodd" fill="#071C2C" points="58.222,217.905 92.86,217.905 122.548,267.888 
		122.548,224.097 117.107,217.905 138.871,217.905 133.432,226.321 133.432,291.397 141.354,300.052 106.719,300.052 
		77.091,248.784 77.091,291.705 83.455,300.176 57.215,300.176 64.648,291.143 64.648,227.802 58.222,217.905 	"/>
	<path fill-rule="evenodd" clip-rule="evenodd" fill="#071C2C" d="M249.227,300.11l-9.894-9.648l-27.39-72.681h-38.292l9.507,10.205
		l-19.117,63.834l-9.196,8.291h25.788l-5.709-7.655l1.684-11.393h27.471l4.189,10.881l-8.152,8.167H249.227z M179.831,269.688
		l8.891-28.214l11.641,28.214H179.831z"/>
	<polygon fill-rule="evenodd" clip-rule="evenodd" fill="#071C2C" points="187.366,246.239 190.301,245.162 196.811,261.081 
		181.351,264.953 187.366,246.239 	"/>
	<path fill-rule="evenodd" clip-rule="evenodd" fill="#071C2C" d="M259.124,251.803c0,0-8.665-23.5,17.328-32.164
		c0,0,12.359-9.894,38.355,0l5.664-5.073v26.231c0,0-11.866-12.494-20.51-13.737c-8.685-1.229-17.328,1.243-16.096,13.606
		L259.124,251.803L259.124,251.803z"/>
	<path fill="#071C2C" d="M278.689,375.454c12.732,7.524,25.009,12.238,35.767,13.686c10.245,1.385,19.097-0.187,25.644-5.104
		c0.843-0.646,1.664-1.344,2.445-2.083c30.775-29.359-5.912-126.29-63.195-186.315l-0.021-0.052
		c-0.021-0.021-5.298-6.147-8.913-9.752l1.931-1.92c3.408,3.408,8.48,9.262,8.972,9.845l0,0l0,0l0,0
		c58.146,60.947,94.875,159.839,63.095,190.162c-0.843,0.801-1.744,1.561-2.69,2.279c-7.145,5.369-16.672,7.106-27.616,5.625
		c-11.15-1.499-23.775-6.323-36.791-14.03L278.689,375.454L278.689,375.454z M281.359,193.78c0,0.011,0.021,0.021,0.021,0.031
		L281.359,193.78L281.359,193.78z"/>
	<path fill="#071C2C" d="M276.535,192.755c-0.473-0.577-0.905-1.081-1.274-1.499h0.021c-0.49-0.573-0.925-1.077-1.312-1.519
		c-27.616-32.029-51.577-51.496-71.802-61.655c-23.547-11.848-41.903-11.009-54.941-2.776c-11.292,7.127-15.563,27.74-7.967,59.338
		c6.406,26.684,21.313,61.023,47.594,101.499l-0.041-0.052c0.082,0.094,24.145,33.331,26.793,35.303l-1.869,2.477
		c-3.059-2.3-27.347-35.88-27.409-35.973l-0.04-0.069c-26.527-40.818-41.557-75.485-48.045-102.462
		c-7.926-33.038-3.039-54.852,9.341-62.667c13.922-8.789,33.324-9.77,57.962,2.621c20.553,10.339,44.861,30.016,72.766,62.404
		c0.49,0.563,0.922,1.067,1.292,1.509l0,0c0.493,0.566,0.925,1.088,1.291,1.53L276.535,192.755L276.535,192.755z"/>
	<path fill-rule="evenodd" clip-rule="evenodd" fill="#071C2C" d="M228.205,347.421c6.014,5.152,12.625,7.307,14.761,4.82
		c2.136-2.504-1.007-8.702-7.021-13.848c-6.018-5.163-12.629-7.328-14.763-4.835C219.025,336.063,222.188,342.265,228.205,347.421
		L228.205,347.421z"/>
	<path fill-rule="evenodd" clip-rule="evenodd" fill="#071C2C" d="M284.688,95.98c2.259,0,4.061-1.83,4.061-4.089
		c0-2.258-1.802-4.095-4.061-4.095s-4.089,1.837-4.089,4.095C280.6,94.15,282.43,95.98,284.688,95.98L284.688,95.98z"/>
	<polygon fill-rule="evenodd" clip-rule="evenodd" fill="#071C2C" points="282.243,88.528 284.727,74.142 286.964,88.445 
		282.243,88.528 	"/>
	<polygon fill-rule="evenodd" clip-rule="evenodd" fill="#071C2C" points="282.243,94.982 284.727,109.365 286.964,95.055 
		282.243,94.982 	"/>
	<polygon fill-rule="evenodd" clip-rule="evenodd" fill="#071C2C" points="281.359,94.409 266.352,91.933 281.276,89.685 
		281.359,94.409 	"/>
	<polygon fill-rule="evenodd" clip-rule="evenodd" fill="#071C2C" points="287.931,94.409 303.554,91.933 288.011,89.685 
		287.931,94.409 	"/>
	<path fill-rule="evenodd" clip-rule="evenodd" fill="#071C2C" d="M184.287,153.795c2.259,0,4.086-1.837,4.086-4.089
		c0-2.265-1.827-4.092-4.086-4.092c-2.258,0-4.086,1.827-4.086,4.092C180.201,151.958,182.029,153.795,184.287,153.795
		L184.287,153.795z"/>
	<polygon fill-rule="evenodd" clip-rule="evenodd" fill="#071C2C" points="181.844,146.343 184.327,131.96 186.566,146.27 
		181.844,146.343 	"/>
	<polygon fill-rule="evenodd" clip-rule="evenodd" fill="#071C2C" points="181.844,152.8 184.327,167.173 186.566,152.869 
		181.844,152.8 	"/>
	<polygon fill-rule="evenodd" clip-rule="evenodd" fill="#071C2C" points="180.961,152.227 165.952,149.748 180.879,147.503 
		180.961,152.227 	"/>
	<polygon fill-rule="evenodd" clip-rule="evenodd" fill="#071C2C" points="187.53,152.227 203.136,149.748 187.592,147.503 
		187.53,152.227 	"/>
	<path fill-rule="evenodd" clip-rule="evenodd" fill="#071C2C" d="M161.6,425.686c2.237,0,4.085-1.837,4.085-4.109
		c0-2.259-1.848-4.085-4.085-4.085c-2.279,0-4.105,1.826-4.105,4.085C157.494,423.849,159.32,425.686,161.6,425.686L161.6,425.686z"
		/>
	<polygon fill-rule="evenodd" clip-rule="evenodd" fill="#071C2C" points="159.156,418.22 161.62,403.837 163.857,418.137 
		159.156,418.22 	"/>
	<polygon fill-rule="evenodd" clip-rule="evenodd" fill="#071C2C" points="159.156,424.678 161.62,439.05 163.857,424.76 
		159.156,424.678 	"/>
	<polygon fill-rule="evenodd" clip-rule="evenodd" fill="#071C2C" points="158.254,424.104 143.266,421.632 158.191,419.38 
		158.254,424.104 	"/>
	<polygon fill-rule="evenodd" clip-rule="evenodd" fill="#071C2C" points="164.823,424.104 180.447,421.632 164.904,419.38 
		164.823,424.104 	"/>
	<path fill-rule="evenodd" clip-rule="evenodd" fill="#071C2C" d="M397.259,332.882c2.258,0,4.088-1.826,4.088-4.085
		s-1.83-4.089-4.088-4.089c-2.259,0-4.082,1.83-4.082,4.089S395,332.882,397.259,332.882L397.259,332.882z"/>
	<polygon fill-rule="evenodd" clip-rule="evenodd" fill="#071C2C" points="394.838,325.44 397.3,311.058 399.538,325.368 
		394.838,325.44 	"/>
	<polygon fill-rule="evenodd" clip-rule="evenodd" fill="#071C2C" points="394.838,331.895 397.3,346.268 399.538,331.971 
		394.838,331.895 	"/>
	<polygon fill-rule="evenodd" clip-rule="evenodd" fill="#071C2C" points="393.937,331.321 378.945,328.835 393.854,326.598 
		393.937,331.321 	"/>
	<polygon fill-rule="evenodd" clip-rule="evenodd" fill="#071C2C" points="400.505,331.321 416.127,328.835 400.588,326.598 
		400.505,331.321 	"/>
</g>
</svg>
