<?xml version="1.0" encoding="utf-8"?>
<!-- Generator: Adobe Illustrator 16.0.0, SVG Export Plug-In . SVG Version: 6.00 Build 0)  -->
<!DOCTYPE svg PUBLIC "-//W3C//DTD SVG 1.1//EN" "http://www.w3.org/Graphics/SVG/1.1/DTD/svg11.dtd">
<svg version="1.1" id="Layer_1" xmlns="http://www.w3.org/2000/svg" xmlns:xlink="http://www.w3.org/1999/xlink" x="0px" y="0px"
	 width="512px" height="512px" viewBox="0 0 512 512" enable-background="new 0 0 512 512" xml:space="preserve">
<g>
	<g>
		<g>
			<path d="M381.703,39.832C261.251-29.232,107.616,12.431,38.554,132.883c-69.063,120.457-27.402,274.089,93.049,343.153
				c120.457,69.065,274.09,27.406,343.154-93.05C543.819,262.529,502.159,108.896,381.703,39.832z M466.269,366.908
				c-11.698,20.401-60.155,18.963-68.644,7.226c-11.461-15.853-10.548-11.506-21.417-12.303c-16.995-1.25-25.589,5.459-34.858,5.908
				c-9.621,0.464-28.84-18.245-40.124-20.664c-15.724-3.374-36.664,4.382-42.352,4.449c-5.684,0.065-18.15-3.952-29.529-15.077
				c-0.934-0.913-1.851-1.601-2.757-2.127c-0.856-6.414-1.097-12.425,0.161-15.069c5.412-11.387,25.967-12.259,27.515-23.832
				c1.067-7.993-6.538-20.309-8.585-28.156c-1.618-6.228-2.238-15.507-1.286-24.303c1.999-10.199,15.86-26.31,15.86-26.31
				c1.396-2.433,1.295-5.401,0.021-8.208c10.26-2.07,23.089-12.397,34.132-27.79c0.109,0.069,0.229,0.141,0.348,0.197
				c0.875,0.439,1.82,0.579,2.723,0.464l3.434,18.154c-0.28,0.238-0.516,0.537-0.696,0.891c-0.423,0.85-0.388,1.812,0.012,2.598
				l-4.454,6.637c0.059,0.021,0.116,0.053,0.174,0.075c-1.951-0.707-4.224-0.268-5.764,1.313c-0.104,0.107-0.131,0.259-0.079,0.391
				c0.017,0.05,0.046,0.089,0.083,0.13l0.245,0.235l0.451,0.443l0.268,0.263c0.067,0.066,0.165,0.103,0.262,0.103
				c0.095-0.004,0.193-0.042,0.262-0.111c1.293-1.331,3.432-1.36,4.763-0.065c0.347,0.341,0.61,0.739,0.785,1.187
				c0.482,1.229,0.198,2.633-0.722,3.579c-0.105,0.111-0.133,0.263-0.08,0.393c0.018,0.045,0.05,0.091,0.086,0.128l0.965,0.941
				c0.066,0.065,0.164,0.102,0.26,0.102c0.098,0,0.197-0.041,0.261-0.111c1.491-1.528,1.947-3.804,1.171-5.792
				c-0.141-0.354-0.31-0.69-0.518-1.001l4.921-7.333c-0.025-0.005-0.055-0.01-0.084-0.01c0.797-0.197,1.506-0.71,1.898-1.497
				c0.634-1.259,0.26-2.75-0.809-3.584l-3.8-20.096c0.103-0.169,0.211-0.337,0.3-0.518c1.06-2.104,0.389-4.617-1.476-5.944
				c0.009-0.017,0.023-0.033,0.033-0.054l0.099,0.058l1.818-3.167l-18.029-10.339c1.363-0.351,2.629-1.061,3.657-2.08l11.34,6.494
				c1.885,1.086,3.31,0.753,4.325,0.034h0.006c0,0,0.004-0.005,0.009-0.009l0.01-0.008c0.385-0.275,0.707-0.608,0.979-0.94
				c1.276-2.293,2.449-4.589,3.51-6.876c1.624,0.977,3.76,0.647,4.994-0.864c1.351-1.655,1.108-4.091-0.549-5.448
				c-0.45-0.369-0.96-0.612-1.493-0.748c6.901-18.485,6.414-35.107-2.082-41.067c0.853-3.899,0.166-12.214-0.033-14.395
				c0.606-0.329,1.138-0.826,1.509-1.471c1.062-1.856,0.421-4.219-1.432-5.279c-1.856-1.067-4.223-0.426-5.283,1.43
				c-1.064,1.849-0.424,4.215,1.433,5.279c0.259,0.147,0.523,0.259,0.795,0.341c0.263,3.626,0.311,9.699-1.926,12.064
				c-9.351-1.688-22.26,6.138-33.462,19.875c-0.088-0.091-0.185-0.176-0.283-0.259c-1.655-1.351-4.092-1.108-5.447,0.546
				c-1.352,1.656-1.109,4.092,0.547,5.443c0.18,0.152,0.378,0.28,0.581,0.395c-1.412,2.035-2.78,4.166-4.089,6.38
				c-0.178,0.431-0.321,0.929-0.373,1.459c0,0,0,0.007-0.003,0.012c0.003,0.004,0,0.012,0,0.012h0.003
				c-0.111,1.232,0.323,2.639,2.214,3.718l10.793,6.191c-0.365,1.4-0.336,2.854,0.051,4.21l-17.072-9.789l-0.011,0.014l-0.02-0.011
				c-0.365,0.637-0.721,1.273-1.07,1.911l-0.719,1.256l0.03,0.009c-0.017,0.028-0.027,0.054-0.042,0.077
				c-2.121-1.075-4.759-0.406-6.081,1.636c-0.112,0.168-0.201,0.344-0.288,0.525l-19.27,6.869c-1.258-0.506-2.737-0.07-3.501,1.109
				c-0.477,0.735-0.565,1.61-0.333,2.391c-0.016-0.021-0.033-0.037-0.047-0.062l-3.691,7.642c-2.83-0.074-5.283,2.061-5.553,4.92
				c-0.016,0.153,0.063,0.284,0.18,0.357c0.041,0.022,0.09,0.038,0.145,0.045l0.341,0.035l0.63,0.057l0.367,0.037
				c0.1,0.008,0.197-0.021,0.272-0.082c0.075-0.062,0.124-0.152,0.133-0.25c0.176-1.849,1.822-3.209,3.673-3.032
				c0.484,0.045,0.942,0.189,1.355,0.428c1.149,0.662,1.809,1.931,1.68,3.245c-0.01,0.147,0.064,0.287,0.188,0.358
				c0.043,0.02,0.09,0.04,0.146,0.044l1.338,0.132c0.098,0.003,0.195-0.025,0.271-0.091c0.073-0.061,0.123-0.148,0.132-0.247
				c0.172-1.791-0.568-3.529-1.911-4.668l3.29-6.81c0.881-0.054,1.73-0.505,2.248-1.306c0.215-0.33,0.35-0.684,0.418-1.049
				l17.402-6.207c0.354,0.843,0.953,1.586,1.775,2.116c0.178,0.118,0.361,0.213,0.549,0.299
				c-7.762,17.443-10.162,33.85-6.645,43.722c-2.938,0.378-5.426,1.778-6.776,4.133c0,0-18.374,19-50.426,24.07
				c-3.833,0.607-9.967,1.578-13.27,3.48c-6.245,3.611-14.901,18.383-19.567,19.826c-5.244,1.614-7.375,2.355-10.048,3.8
				c3.902-22.136-14.829-45.228-38.372-52.426c-16.457-5.031-36.664-10.476-44.1,3.221c-3.955,7.276-23.843-32.629-1.553-71.507
				C122.589,24.839,264.258-11.492,376.44,52.831C488.632,117.151,528.844,257.77,466.269,366.908z"/>
		</g>
	</g>
</g>
</svg>
