<?xml version="1.0" encoding="utf-8"?>
<!-- Generator: Adobe Illustrator 16.0.0, SVG Export Plug-In . SVG Version: 6.00 Build 0)  -->
<!DOCTYPE svg PUBLIC "-//W3C//DTD SVG 1.1//EN" "http://www.w3.org/Graphics/SVG/1.1/DTD/svg11.dtd">
<svg version="1.1" id="Layer_1" xmlns="http://www.w3.org/2000/svg" xmlns:xlink="http://www.w3.org/1999/xlink" x="0px" y="0px"
	 width="775.898px" height="340px" viewBox="0 0 775.898 340" enable-background="new 0 0 775.898 340" xml:space="preserve">
<g>
	<path d="M179.838,112.324L153.672,86.46H61.678v14.944L48.671,90.799V72.967h59.939v7.691h29.244V69.622l-26.155-25.891H45.306
		L19.442,69.61v35.126l42.235,34.373v49.359h29.234v-25.578l17.698,14.404v17.002H48.671v-17.129H19.442v20.247l25.863,26.121
		h16.372v37.924h18.237v0.051h73.757c0,0,23.548-23.504,26.166-26.142C179.812,233.082,179.838,112.324,179.838,112.324z
		 M150.605,232.283H90.912v-8.747h20.787l26.155-26.121v-33.917l-46.942-38.26v-9.546h59.693V232.283z"/>
	<path d="M219.507,142.188c0,4.509,0.157,5.68,1.021,6.976c1.018,1.648,3.293,2.629,5.955,2.629c2.275,0,4.194-0.707,5.331-1.997
		c1.021-1.18,1.37-2.71,1.37-6.074v-10.9c0-2.935-0.04-3.444-0.313-3.842c-0.314-0.429-0.703-0.508-2.587-0.508v-0.941h7.524v0.941
		c-1.879,0-2.272,0.08-2.587,0.508c-0.273,0.398-0.312,0.907-0.312,3.842v10.9c0,4.187-0.471,6.149-1.841,7.718
		c-1.529,1.764-4.235,2.666-7.957,2.666c-3.646,0-6.27-0.902-7.841-2.705c-1.291-1.494-1.683-3.292-1.683-7.678v-10.9
		c0-2.935-0.038-3.444-0.313-3.842c-0.312-0.429-0.705-0.508-2.588-0.508v-0.941h9.721v0.941c-1.88,0-2.272,0.08-2.587,0.508
		c-0.275,0.398-0.313,0.907-0.313,3.842V142.188z"/>
	<path d="M272.937,154.104l-14.851-18.383l-1.176-1.45c-0.274-0.394-0.509-0.707-1.45-1.958v0.941v1.487v1.488v12.15
		c0,2.94,0.04,3.452,0.313,3.842c0.313,0.432,0.705,0.508,2.588,0.508v0.942h-7.525v-0.942c1.883,0,2.272-0.076,2.588-0.508
		c0.272-0.39,0.312-0.902,0.312-3.842v-17.791l-1.099-1.295c-0.625-0.669-0.898-0.743-2.269-0.823v-0.941h6.072l12.424,15.484
		c0.824,0.977,1.45,1.76,1.881,2.308c0.352,0.429,0.468,0.553,1.02,1.255c-0.041-2.387-0.041-3.761-0.041-4.154v-9.601
		c0-2.935-0.037-3.444-0.312-3.842c-0.315-0.429-0.706-0.508-2.59-0.508v-0.941h7.526v0.941c-1.879,0-2.271,0.08-2.586,0.508
		c-0.272,0.398-0.313,0.907-0.313,3.842v21.283H272.937z"/>
	<path d="M297.132,148.38c0,2.94,0.041,3.452,0.313,3.842c0.313,0.432,0.704,0.508,2.587,0.508v0.942h-9.721v-0.942
		c1.882,0,2.272-0.076,2.588-0.508c0.273-0.39,0.313-0.902,0.313-3.842v-15.559c0-2.935-0.039-3.444-0.313-3.842
		c-0.315-0.429-0.706-0.508-2.588-0.508v-0.941h9.721v0.941c-1.883,0-2.274,0.08-2.587,0.508c-0.272,0.398-0.313,0.907-0.313,3.842
		V148.38z"/>
	<path d="M325.205,154.415l-9.053-21.553c-1.293-3.059-1.375-3.253-1.844-3.722c-0.433-0.394-0.865-0.552-1.923-0.668v-0.941h9.483
		v0.941c-1.917,0.08-2.66,0.392-2.66,1.097c0,0.354,0.351,1.37,1.054,3.095l5.175,12.62c0.278,0.667,0.471,1.255,0.668,1.724
		c0.192,0.429,0.192,0.508,0.433,1.101c0.192-0.434,0.471-1.177,1.133-2.824l4.979-12.62c0.198-0.506,0.388-0.978,0.587-1.45
		c0.353-0.818,0.471-1.212,0.471-1.565c0-0.866-0.431-1.06-2.509-1.176v-0.941h7.172v0.941c-1.412,0.116-1.763,0.238-2.193,0.863
		c-0.353,0.508-0.433,0.74-1.647,3.527l-8.739,21.553H325.205z"/>
	<path d="M369.266,133.217l-0.941,0.115c-0.976-3.567-1.998-4.192-6.898-4.192h-4.072v10.073h3.759c3.49,0,4.038-0.435,4.354-3.491
		h0.86v8.543h-0.86c-0.474-3.291-0.63-3.45-4.626-3.45h-3.486v11.247h5.523c4.509,0,5.876-0.897,7.29-4.822l0.861,0.124
		l-1.645,6.309h-18.852v-0.942c1.88,0,2.271-0.076,2.587-0.508c0.274-0.39,0.313-0.902,0.313-3.842v-15.559
		c0-2.935-0.039-3.444-0.313-3.842c-0.315-0.429-0.707-0.508-2.587-0.508v-0.941h18.342L369.266,133.217z"/>
	<path d="M391.754,148.353c0,2.94,0.041,3.452,0.315,3.837c0.312,0.434,0.701,0.513,2.584,0.513v0.942h-9.719v-0.942
		c1.88,0,2.271-0.08,2.587-0.513c0.272-0.385,0.313-0.897,0.313-3.837v-15.559c0-2.937-0.041-3.444-0.313-3.842
		c-0.315-0.429-0.707-0.508-2.587-0.508v-0.941h10.269c3.291,0,5.406,0.587,7.012,1.883c1.414,1.176,2.197,2.94,2.197,5.053
		c0,2.198-0.783,4.039-2.311,5.37c-1.021,0.94-1.963,1.371-3.88,1.879c0.661,0.552,0.939,0.862,2.388,2.745l4.43,5.915
		c1.526,1.966,1.957,2.197,3.882,2.355v0.942h-5.877l-6.076-7.958c-1.923-2.547-1.923-2.547-2.314-2.744
		c-0.233-0.157-0.86-0.236-1.489-0.236h-1.41V148.353z M391.754,141.34c0.744,0.075,1.137,0.115,1.765,0.115
		c4.152,0,6.701-2.312,6.701-6.111c0-4-2.431-6.232-6.781-6.232h-1.685V141.34z"/>
	<path d="M435.638,134.349c-0.509-1.799-0.941-2.664-1.723-3.567c-1.141-1.251-2.905-2-4.781-2c-2.586,0-4.271,1.452-4.271,3.727
		c0,1.646,0.941,2.741,3.602,4.194l4.232,2.312c3.845,2.077,5.331,4.115,5.331,7.249c0,4.505-3.525,7.841-8.383,7.841
		c-1.57,0-2.119-0.119-5.135-1.1c-0.43-0.115-0.825-0.195-1.141-0.195c-0.585,0-0.898,0.195-2.115,1.295v-9.33h0.942
		c1.093,4.623,3.643,7.018,7.521,7.018c2.907,0,4.979-1.842,4.979-4.393c0-2.042-0.979-3.095-4.701-5.132l-3.527-1.879
		c-3.802-2.08-5.136-3.767-5.136-6.664c0-3.883,3.136-6.628,7.488-6.628c0.976,0,1.958,0.159,3.251,0.472
		c1.804,0.473,1.885,0.473,2.431,0.473c0.547,0,1.099-0.123,2.076-0.473v6.779H435.638z"/>
	<path d="M459.126,148.38c0,2.94,0.041,3.452,0.313,3.842c0.308,0.432,0.707,0.508,2.585,0.508v0.942h-9.716v-0.942
		c1.878,0,2.271-0.076,2.585-0.508c0.272-0.39,0.31-0.902,0.31-3.842v-15.559c0-2.935-0.037-3.444-0.31-3.842
		c-0.313-0.429-0.707-0.508-2.585-0.508v-0.941h9.716v0.941c-1.878,0-2.277,0.08-2.585,0.508c-0.272,0.398-0.313,0.907-0.313,3.842
		V148.38z"/>
	<path d="M487.776,148.38c0,2.86,0.04,3.452,0.313,3.842c0.317,0.432,0.705,0.508,2.586,0.508v0.942h-9.717v-0.942
		c1.882,0,2.273-0.076,2.585-0.508c0.274-0.39,0.312-0.902,0.312-3.842v-19.204c-6.188-0.119-7.641,0.745-8.265,5.057h-0.942
		l0.315-6.703c0.701,0.039,3.255,0.079,7.678,0.119h8.192c0.549,0,4.583-0.08,5.841-0.119l-0.356,6.703h-0.935
		c-0.317-4.625-1.101-5.214-6.665-5.057h-0.942V148.38z"/>
	<path d="M508.389,132.114c-2.154-3.21-2.548-3.527-4.583-3.643v-0.941h10.108v0.941c-2.115,0.116-2.39,0.199-2.39,0.823
		c0,0.471,0,0.471,1.137,2.276l3.605,5.684c0.863,1.407,1.373,2.309,1.568,2.62c0.59-0.94,0.67-1.055,1.803-2.858l3.409-5.446
		c0.86-1.337,1.06-1.805,1.06-2.192c0-0.753-0.276-0.827-2.546-0.906v-0.941h7.602v0.941c-1.804,0.08-1.883,0.153-4.232,3.643
		l-6.076,9.172v7.094c0,2.94,0.041,3.452,0.312,3.842c0.313,0.432,0.67,0.508,3.019,0.508v0.942h-10.58v-0.942
		c2.311,0,2.667-0.076,3.02-0.508c0.272-0.39,0.312-0.902,0.312-3.842v-6.431L508.389,132.114z"/>
	<path d="M583.57,129.608c3.369,2.467,5.173,6.272,5.173,11.011c0,7.885-5.405,13.485-13.046,13.485
		c-7.605,0-13.053-5.601-13.053-13.446c0-8.036,5.367-13.562,13.168-13.562C578.635,127.097,581.377,128.001,583.57,129.608z
		 M566.838,139.684c0,6.933,4.076,12.419,9.21,12.419c5.016,0,8.506-4.464,8.506-10.932c0-3.333-0.824-6.269-2.392-8.548
		c-1.649-2.39-3.806-3.527-6.663-3.527C570.403,129.096,566.838,133.451,566.838,139.684z"/>
	<path d="M617.885,133.41l-0.942,0.079c-1.056-3.724-1.996-4.349-6.427-4.349h-4.506v10.073h3.764c3.525,0,4.035-0.435,4.347-3.491
		h0.944v8.543h-0.944c-0.429-3.291-0.621-3.45-4.623-3.45h-3.487v7.565c0,2.94,0.041,3.452,0.314,3.842
		c0.312,0.432,0.706,0.508,2.582,0.508v0.942h-9.713v-0.942c1.878,0,2.272-0.076,2.586-0.508c0.271-0.39,0.311-0.823,0.311-3.842
		v-15.559c0-3.019-0.039-3.444-0.311-3.842c-0.313-0.429-0.708-0.508-2.586-0.508v-0.941h18.456L617.885,133.41z"/>
	<path d="M241.144,185.593c-0.938-3.308-1.728-4.897-3.167-6.546c-2.093-2.312-5.329-3.679-8.785-3.679
		c-4.751,0-7.85,2.666-7.85,6.84c0,3.015,1.729,5.037,6.626,7.707l7.775,4.243c7.056,3.816,9.79,7.563,9.79,13.322
		c0,8.274-6.479,14.396-15.406,14.396c-2.878,0-3.888-0.214-9.433-2.018c-0.79-0.214-1.513-0.357-2.086-0.357
		c-1.079,0-1.653,0.357-3.888,2.375v-17.128h1.728c2.018,8.493,6.697,12.886,13.823,12.886c5.327,0,9.145-3.393,9.145-8.068
		c0-3.742-1.804-5.688-8.642-9.426l-6.481-3.459c-6.979-3.814-9.43-6.913-9.43-12.239c0-7.127,5.76-12.164,13.752-12.164
		c1.799,0,3.601,0.291,5.975,0.858c3.313,0.865,3.456,0.865,4.464,0.865c1.01,0,2.019-0.214,3.816-0.865v12.457H241.144z"/>
	<path d="M290.893,176.882c6.193,4.532,9.503,11.519,9.503,20.235c0,14.458-9.934,24.758-23.973,24.758
		c-13.964,0-23.978-10.3-23.978-24.691c0-14.761,9.867-24.906,24.195-24.906C281.821,172.278,286.862,173.93,290.893,176.882z
		 M260.15,195.385c0,12.743,7.493,22.824,16.922,22.824c9.215,0,15.622-8.21,15.622-20.091c0-6.122-1.513-11.52-4.396-15.695
		c-3.021-4.389-6.978-6.475-12.238-6.475C266.703,175.948,260.15,183.933,260.15,195.385z"/>
	<path d="M319.337,199.992c0,8.283,0.287,10.435,1.872,12.815c1.87,3.023,6.045,4.827,10.943,4.827c4.175,0,7.702-1.3,9.791-3.678
		c1.872-2.162,2.519-4.961,2.519-11.163v-20.008c0-5.402-0.073-6.335-0.579-7.063c-0.571-0.791-1.292-0.925-4.746-0.925v-1.732
		h13.819v1.732c-3.457,0-4.171,0.134-4.752,0.925c-0.501,0.728-0.575,1.661-0.575,7.063v20.008c0,7.71-0.865,11.313-3.383,14.189
		c-2.808,3.238-7.772,4.894-14.615,4.894c-6.694,0-11.521-1.656-14.398-4.965c-2.373-2.737-3.097-6.05-3.097-14.117v-20.008
		c0-5.402-0.07-6.335-0.575-7.063c-0.577-0.791-1.295-0.925-4.752-0.925v-1.732h17.855v1.732c-3.455,0-4.177,0.134-4.754,0.925
		c-0.503,0.728-0.573,1.661-0.573,7.063V199.992z"/>
	<path d="M380.463,211.365c0,5.255,0.069,6.34,0.573,7.059c0.583,0.786,1.297,0.929,4.754,0.929v1.732h-17.852v-1.732
		c3.451,0,4.175-0.143,4.746-0.929c0.505-0.719,0.581-1.657,0.581-7.059v-35.274c-11.378-0.218-14.042,1.363-15.194,9.284h-1.728
		l0.575-12.31c1.299,0.072,5.979,0.147,14.109,0.214h15.05c1.007,0,8.427-0.143,10.723-0.214l-0.647,12.31h-1.728
		c-0.575-8.492-2.01-9.577-12.235-9.284h-1.728V211.365z"/>
	<path d="M413.583,197.908v13.458c0,5.402,0.072,6.34,0.577,7.059c0.571,0.786,1.295,0.929,4.746,0.929v1.732h-17.852v-1.732
		c3.457,0,4.172-0.143,4.756-0.929c0.501-0.719,0.571-1.657,0.571-7.059v-28.581c0-5.402-0.07-6.335-0.571-7.063
		c-0.584-0.791-1.299-0.925-4.756-0.925v-1.732h17.852v1.732c-3.451,0-4.175,0.134-4.746,0.925
		c-0.505,0.728-0.577,1.661-0.577,7.063v12.171h23.684v-12.171c0-5.402-0.067-6.335-0.575-7.063
		c-0.577-0.791-1.292-0.925-4.748-0.925v-1.732h17.852v1.732c-3.451,0-4.179,0.134-4.75,0.925c-0.505,0.728-0.581,1.661-0.581,7.063
		v28.581c0,5.402,0.076,6.34,0.581,7.059c0.571,0.786,1.299,0.929,4.75,0.929v1.732h-17.852v-1.732c3.456,0,4.171-0.143,4.748-0.929
		c0.508-0.719,0.575-1.657,0.575-7.059v-13.458H413.583z"/>
	<path d="M479.317,182.785c0-5.402-0.071-6.335-0.575-7.063c-0.572-0.791-1.296-0.925-4.752-0.925v-1.732h19.293
		c10.368,0,16.636,1.938,21.312,6.697c4.104,4.104,6.19,9.648,6.19,16.417c0,7.336-2.444,13.458-7.203,17.994
		c-5.108,4.826-11.439,6.912-21.236,6.912H473.99v-1.732c3.456,0,4.18-0.143,4.752-0.929c0.504-0.719,0.575-1.657,0.575-7.059
		V182.785z M486.52,207.627c0.144,8.127,0.144,8.274,0.499,9.283c0.292,0.934,1.947,1.299,5.828,1.299
		c7.71,0,12.891-2.232,16.347-6.987c2.589-3.523,3.894-8.283,3.894-13.748c0-7.63-2.737-14.039-7.56-17.86
		c-3.604-2.879-8.207-4.178-14.473-4.178c-1.513,0-2.525,0.08-4.535,0.223V207.627z"/>
	<path d="M535.549,204.748l-3.022,7.913c-1.152,2.876-1.438,3.889-1.438,4.751c0,1.231,0.863,1.656,4.099,1.942v1.732h-12.162
		v-1.732c3.165-0.286,3.67-0.929,6.333-7.777l16.131-40.382h1.15l15.909,38.948c2.52,5.835,3.095,7.059,3.818,7.85
		c0.715,0.787,1.369,1.076,3.309,1.362v1.732h-15.985v-1.732c2.813,0,3.672-0.432,3.672-1.87c0-0.791-0.072-1.073-1.078-3.67
		l-3.526-9.065H535.549z M544.117,182.924l-7.416,18.864h14.908L544.117,182.924z"/>
	<path d="M587.174,211.365c0,5.402,0.07,6.34,0.571,7.059c0.579,0.786,1.299,0.929,4.756,0.929v1.732h-17.852v-1.732
		c3.451,0,4.169-0.143,4.746-0.929c0.505-0.719,0.575-1.657,0.575-7.059v-28.581c0-5.402-0.07-6.335-0.575-7.063
		c-0.577-0.791-1.295-0.925-4.746-0.925v-1.732h17.852v1.732c-3.457,0-4.177,0.134-4.756,0.925
		c-0.501,0.728-0.571,1.661-0.571,7.063V211.365z M612.226,213.526c4.465,4.822,6.046,5.827,8.931,5.827v1.732h-19.223v-1.732
		c3.96-0.071,4.966-0.286,4.966-1.219c0-0.651-0.144-0.787-2.88-3.817l-16.561-18.503l13.967-14.038
		c3.169-3.246,4.247-4.604,4.247-5.403c0-1.219-0.721-1.51-4.247-1.576v-1.732h15.842v1.732c-3.958,0.357-5.261,1.076-10.797,6.109
		l-12.819,12.175L612.226,213.526z"/>
	<path d="M659.37,176.882c6.191,4.532,9.502,11.519,9.502,20.235c0,14.458-9.937,24.758-23.979,24.758
		c-13.966,0-23.969-10.3-23.969-24.691c0-14.761,9.859-24.906,24.188-24.906C650.293,172.278,655.334,173.93,659.37,176.882z
		 M628.628,195.385c0,12.743,7.487,22.824,16.917,22.824c9.212,0,15.623-8.21,15.623-20.091c0-6.122-1.513-11.52-4.389-15.695
		c-3.028-4.389-6.991-6.475-12.238-6.475C635.178,175.948,628.628,183.933,628.628,195.385z"/>
	<path d="M697.444,211.365c0,5.255,0.07,6.34,0.571,7.059c0.575,0.786,1.295,0.929,4.746,0.929v1.732h-17.848v-1.732
		c3.457,0,4.171-0.143,4.748-0.929c0.505-0.719,0.579-1.657,0.579-7.059v-35.274c-11.368-0.218-14.037,1.363-15.186,9.284h-1.728
		l0.572-12.31c1.295,0.072,5.971,0.147,14.108,0.214h15.052c1.004,0,8.42-0.143,10.717-0.214l-0.644,12.31h-1.724
		c-0.581-8.492-2.019-9.577-12.246-9.284h-1.72V211.365z"/>
	<path d="M724.137,204.748l-3.019,7.913c-1.16,2.876-1.442,3.889-1.442,4.751c0,1.231,0.857,1.656,4.1,1.942v1.732h-12.159v-1.732
		c3.161-0.286,3.662-0.929,6.336-7.777l16.119-40.382h1.155l15.911,38.948c2.521,5.835,3.089,7.059,3.816,7.85
		c0.718,0.787,1.366,1.076,3.313,1.362v1.732h-15.989v-1.732c2.81,0,3.676-0.432,3.676-1.87c0-0.791-0.068-1.073-1.081-3.67
		l-3.531-9.065H724.137z M732.705,182.924l-7.416,18.864h14.905L732.705,182.924z"/>
</g>
</svg>
