<?xml version="1.0" encoding="utf-8"?>
<!-- Generator: Adobe Illustrator 16.0.0, SVG Export Plug-In . SVG Version: 6.00 Build 0)  -->
<!DOCTYPE svg PUBLIC "-//W3C//DTD SVG 1.1//EN" "http://www.w3.org/Graphics/SVG/1.1/DTD/svg11.dtd">
<svg version="1.1" id="Layer_1" xmlns="http://www.w3.org/2000/svg" xmlns:xlink="http://www.w3.org/1999/xlink" x="0px" y="0px"
	 width="696.919px" height="340px" viewBox="0 0 696.919 340" enable-background="new 0 0 696.919 340" xml:space="preserve">
<g>
	<g>
		<path fill-rule="evenodd" clip-rule="evenodd" d="M17.423,44.293c3.193,0,6.389,0,9.725,0c0,14.368,0,28.57,0,43.09
			c-3.225,0-6.476,0-9.725,0C17.423,73.021,17.423,58.656,17.423,44.293z"/>
		<path fill-rule="evenodd" clip-rule="evenodd" d="M112.596,68.952c0,6.066,0,12.134,0,18.31c-3.342,0-6.451,0-9.721,0
			c0-14.239,0-28.471,0-42.95c3.056,0,6.101-0.08,9.133,0.073c0.543,0.028,1.202,0.936,1.528,1.58
			c4.078,8.051,8.104,16.126,12.296,24.498c0.488-0.909,0.872-1.583,1.22-2.276c3.707-7.401,7.437-14.793,11.086-22.223
			c0.605-1.233,1.292-1.766,2.711-1.698c2.602,0.125,5.214,0.036,7.982,0.036c0,14.366,0,28.594,0,42.947c-3.21,0-6.377,0-9.714,0
			c0-6.119,0-12.145,0-18.169c-0.145-0.049-0.291-0.099-0.436-0.148c-1.396,2.652-2.796,5.302-4.185,7.958
			c-1.555,2.975-3.155,5.93-4.618,8.95c-0.567,1.169-1.291,1.454-2.551,1.598c-3.352,0.382-5.36-0.597-6.789-3.952
			c-2.144-5.031-4.975-9.77-7.513-14.633C112.883,68.885,112.738,68.918,112.596,68.952z"/>
		<path fill-rule="evenodd" clip-rule="evenodd" d="M200.289,44.303c3.048,0,5.961-0.104,8.859,0.068
			c0.785,0.047,1.692,0.79,2.255,1.457c5.872,6.974,11.684,13.999,17.518,21.006c0.278,0.335,0.592,0.64,1.225,1.32
			c0-8.116,0-15.821,0-23.687c3.436,0,6.602,0,9.954,0c0,14.249,0,28.48,0,42.907c-2.985,0-5.969,0.107-8.934-0.073
			c-0.783-0.047-1.669-0.852-2.24-1.533c-5.96-7.096-11.863-14.237-17.784-21.365c-0.236-0.284-0.486-0.556-1.065-1.214
			c0,8.257,0,16.099,0,24.062c-3.394,0-6.503,0-9.787,0C200.289,73.047,200.289,58.816,200.289,44.303z"/>
		<path fill-rule="evenodd" clip-rule="evenodd" d="M353.213,87.375c-3.024,0-5.876,0.162-8.695-0.089
			c-0.972-0.086-2.042-1.039-2.744-1.87c-5.885-6.967-11.692-14-17.526-21.01c-0.237-0.285-0.497-0.551-1.062-1.174
			c0,8.211,0,16.057,0,24.021c-3.392,0-6.503,0-9.785,0c0-14.212,0-28.446,0-42.938c3.104,0,6.221-0.066,9.331,0.061
			c0.573,0.023,1.209,0.752,1.658,1.289c5.941,7.113,11.856,14.25,17.771,21.386c0.233,0.282,0.398,0.62,1.091,0.709
			c0-7.709,0-15.419,0-23.292c3.431,0,6.605,0,9.962,0C353.213,58.643,353.213,72.874,353.213,87.375z"/>
		<path fill-rule="evenodd" clip-rule="evenodd" d="M371.233,87.375c0-3.395,0-6.505,0-9.858c2.687,0,5.28,0,7.876,0
			c6.133-0.001,12.267,0.029,18.4-0.023c2.333-0.02,3.706-1.326,3.735-3.299c0.028-1.977-1.345-3.28-3.631-3.418
			c-0.521-0.033-1.047-0.009-1.571-0.009c-4.04-0.001-8.077,0.013-12.116-0.004c-7.075-0.029-12.786-5.896-12.792-13.117
			c-0.006-7.414,5.639-13.319,12.799-13.34c8.378-0.024,16.755-0.008,25.133-0.001c0.656,0,1.312,0.066,2.099,0.108
			c0,3.229,0,6.335,0,9.746c-0.843,0-1.632,0-2.42,0c-7.257,0-14.512,0-21.767,0c-0.525,0-1.048-0.006-1.571,0.002
			c-2.765,0.046-4.36,1.3-4.36,3.421c0.002,2.065,1.619,3.301,4.457,3.318c4.113,0.026,8.227,0.006,12.34,0.008
			c7.628,0.004,13.462,5.734,13.451,13.206c-0.012,7.529-5.793,13.255-13.394,13.259C389.083,87.378,380.266,87.375,371.233,87.375z
			"/>
		<path fill-rule="evenodd" clip-rule="evenodd" d="M282.92,44.302c-1.386,3.185-2.523,6.014-3.874,8.737
			c-0.286,0.573-1.351,1.062-2.062,1.072c-6.06,0.083-12.118,0.048-18.178,0.048c-0.598,0-1.197-0.011-1.794,0.003
			c-2.808,0.062-4.37,1.31-4.333,3.451c0.035,2.019,1.59,3.262,4.262,3.285c4.188,0.036,8.378,0.006,12.567,0.011
			c7.622,0.009,13.4,5.724,13.395,13.245c-0.006,7.515-5.783,13.214-13.419,13.218c-8.813,0.005-17.629,0.002-26.583,0.002
			c0-3.316,0-6.479,0-9.858c0.882,0,1.685,0,2.486,0c7.78,0,15.56,0.018,23.34-0.013c2.682-0.011,4.146-1.258,4.146-3.357
			c0-2.112-1.47-3.349-4.136-3.37c-4.339-0.033-8.679,0.001-13.017-0.012c-7.275-0.022-12.958-5.811-12.962-13.185
			c-0.002-7.385,5.674-13.259,12.869-13.274C264.598,44.287,273.568,44.302,282.92,44.302z"/>
		<path fill-rule="evenodd" clip-rule="evenodd" d="M528.289,87.276c0-14.36,0-28.489,0-42.796c12.231,0,24.433,0,36.924,0
			c-1.323,3.055-2.518,6.007-3.917,8.86c-0.239,0.489-1.338,0.778-2.043,0.785c-6.132,0.059-12.268,0.034-18.402,0.034
			c-0.813,0-1.627,0-2.598,0c0,2.243,0,4.361,0,6.689c6.861,0,13.708,0,20.724,0c0,3.362,0,6.521,0,9.891c-6.93,0-13.776,0-20.751,0
			c0,2.27,0,4.337,0,6.685c8.857,0,17.78,0,26.865,0c0,3.436,0,6.593,0,9.852C552.82,87.276,540.659,87.276,528.289,87.276z"/>
		<path fill-rule="evenodd" clip-rule="evenodd" d="M151.128,87.375c4.168-9.414,8.174-18.472,12.188-27.526
			c2.086-4.706,4.144-9.425,6.339-14.079c0.313-0.662,1.324-1.374,2.043-1.408c6.604-0.308,6.61-0.269,9.307,5.798
			c5.208,11.716,10.409,23.435,15.61,35.154c0.263,0.596,0.499,1.203,0.855,2.062c-6.118,0-11.996,0.012-17.874-0.006
			c-2.462-0.007-5.517,0.796-7.224-0.359c-1.785-1.208-2.282-4.324-3.325-6.615c-0.393-0.868-0.736-1.761-1.182-2.833
			c4.667,0,9.123,0,14.029,0c-2.544-5.741-4.962-11.198-7.566-17.076c-2.626,5.913-5.065,11.41-7.51,16.905
			c-1.302,2.93-2.561,5.882-3.972,8.758c-0.275,0.562-1.15,1.147-1.769,1.171C157.871,87.438,154.657,87.375,151.128,87.375z"/>
		<path fill-rule="evenodd" clip-rule="evenodd" d="M462.678,77.459c4.849,0,9.308,0,14.085,0
			c-2.514-5.659-4.921-11.082-7.521-16.935c-1.838,4.09-3.507,7.779-5.154,11.477c-2.029,4.563-4.095,9.114-6.032,13.717
			c-0.555,1.318-1.276,1.743-2.675,1.69c-2.986-0.11-5.977-0.033-9.182-0.033c0.208-0.652,0.329-1.194,0.55-1.692
			c5.872-13.222,11.776-26.429,17.601-39.672c0.568-1.291,1.189-1.83,2.618-1.743c2.082,0.128,4.179,0.034,6.355,0.034
			c6.336,14.274,12.65,28.496,19.12,43.074c-1.115,0-1.967,0-2.82,0c-6.954,0-13.908-0.032-20.861,0.028
			c-1.293,0.01-2.004-0.331-2.493-1.597C465.222,83.111,463.993,80.488,462.678,77.459z"/>
		<path fill-rule="evenodd" clip-rule="evenodd" d="M413.942,44.31c9.502,0,18.85-0.173,28.187,0.059
			c6.525,0.162,11.863,6.411,11.812,13.209c-0.054,6.872-5.388,12.918-11.906,13.146c-5.598,0.195-11.211,0.04-17.208,0.04
			c1.427-3.25,2.713-6.302,4.146-9.283c0.182-0.379,1.13-0.536,1.728-0.546c3.065-0.054,6.132,0.005,9.197-0.039
			c2.523-0.036,3.958-1.259,3.995-3.283c0.041-2.168-1.375-3.421-4.06-3.439c-5.298-0.036-10.597-0.011-16.145-0.011
			c0,11.09,0,22.036,0,33.095c-3.356,0-6.469,0-9.745,0C413.942,73.035,413.942,58.801,413.942,44.31z"/>
		<path fill-rule="evenodd" clip-rule="evenodd" d="M60.086,44.388c3.364,0,6.474,0,9.845,0c0,6.265-0.041,12.447,0.022,18.628
			c0.022,2.08,0.047,4.22,0.523,6.225c1.553,6.53,8.006,10.046,13.535,7.336c4.127-2.022,6.067-5.685,6.153-10.187
			c0.122-6.431,0.033-12.865,0.035-19.298c0-0.813,0-1.626,0-2.615c3.319,0,6.492,0,9.727,0c0.033,0.043,0.206,0.159,0.204,0.271
			c-0.186,8.95,0.703,18.091-0.83,26.807c-2.38,13.531-17.406,20.03-28.837,13.3c-6.259-3.686-9.885-9.479-10.281-16.686
			C59.752,60.346,60.086,52.479,60.086,44.388z"/>
		<path fill-rule="evenodd" clip-rule="evenodd" d="M525.792,44.302c-1.401,3.232-2.607,6.176-3.984,9.038
			c-0.221,0.459-1.188,0.767-1.821,0.784c-3.214,0.086-6.432-0.02-9.642,0.078c-6.69,0.204-11.698,5.245-11.693,11.67
			c0.006,6.392,5.044,11.395,11.759,11.61c2.538,0.081,5.082,0.03,7.622,0.035c2.457,0.003,4.911,0,7.544,0c0,3.318,0,6.47,0,10.073
			c-6.839-0.23-13.686,0.127-20.343-0.828c-9.231-1.323-16.196-10.767-16.565-20.21c-0.444-11.293,8.369-20.725,18.023-22.018
			c1.546-0.207,3.125-0.214,4.688-0.224C516.062,44.284,520.745,44.302,525.792,44.302z"/>
		<path fill-rule="evenodd" clip-rule="evenodd" d="M47.567,60.909c0-5.64,0-10.936,0-16.419c3.332,0,6.557,0,9.911,0
			c0,14.244,0,28.418,0,42.74c-3.194,0-6.377,0-9.822,0c0-5.364,0-10.772,0-16.368c-6.426,0-12.599,0-19.227,0
			c1.474-3.346,2.75-6.396,4.201-9.361c0.202-0.414,1.265-0.559,1.931-0.567C38.806,60.885,43.047,60.909,47.567,60.909z"/>
		<path fill-rule="evenodd" clip-rule="evenodd" d="M300.738,87.193c0-14.271,0-28.437,0-42.749c3.232,0,6.392,0,9.669,0
			c0,14.229,0,28.397,0,42.749C307.299,87.193,304.138,87.193,300.738,87.193z"/>
	</g>
	<g>
		<path fill-rule="evenodd" clip-rule="evenodd" fill="#29ABE2" d="M679.495,154.713c-0.438,2.57-0.822,5.15-1.325,7.708
			c-1.996,10.132-5.907,19.428-13.58,26.516c-4.521,4.175-9.537,8.023-14.871,11.068c-16.899,9.649-35.429,14.277-54.651,16.188
			c-7.939,0.789-15.942,1.246-23.921,1.281c-12.432,0.057-24.736-1.337-36.889-4.164c-11.377-2.646-22.264-6.428-32.183-12.677
			c-12.075-7.607-20.857-17.748-23.35-32.218c-3.105-18.038,3.04-32.507,17.777-43.244c11.352-8.27,24.399-12.281,38.145-13.96
			c7.467-0.912,15.058-1.498,22.563-1.265c14.59,0.454,28.871,2.874,42.069,9.623c5.861,2.997,11.172,6.782,14.744,12.45
			c6.006,9.533,5.056,19.122-0.611,28.357c-4.586,7.476-11.828,11.751-19.85,14.639c-15.543,5.594-31.307,5.98-47.146,1.283
			c-5.872-1.741-11.195-4.538-15.619-8.904c-9.153-9.033-10.025-24.835,5.366-32.296c9.991-4.844,20.464-5.758,31.203-2.693
			c3.325,0.949,6.125,2.752,8.341,5.423c2.768,3.338,1.436,7.286-2.832,8.126c-1.278,0.252-2.696,0.174-3.989-0.071
			c-5.065-0.957-10.077-2.274-15.176-2.964c-2.056-0.278-4.555,0.229-6.372,1.242c-3.074,1.715-3.363,6.48-0.504,9.423
			c2.078,2.138,4.6,4.301,7.34,5.258c11.57,4.043,22.896,2.856,33.48-3.277c10.129-5.869,7.863-14.797,2.427-20.937
			c-3.709-4.188-8.55-6.619-13.79-8c-19.722-5.201-38.677-3.205-56.571,6.822c-4.142,2.321-7.743,5.482-10.092,9.683
			c-4.284,7.657-3.948,15.332,0.64,22.768c4.43,7.179,11.223,11.512,18.69,14.833c16.388,7.29,33.74,8.951,51.384,7.972
			c12.399-0.688,24.457-3.303,35.636-9c5.969-3.042,11.436-6.804,15.557-12.245c9.189-12.136,8.836-28.5-0.895-40.264
			c-6.857-8.293-15.788-13.626-25.563-17.67c-12.252-5.069-25.049-8.104-38.247-9.083c-8.78-0.651-17.638-1.212-26.414-0.793
			c-20.16,0.961-39.57,5.318-57.266,15.497c-15.322,8.813-27.346,20.772-33.981,37.49c-5.431,13.683-5.938,27.636-1.887,41.775
			c3.403,11.884,9.676,22.121,17.891,31.245c9.313,10.341,20.369,18.397,32.706,24.727c4.251,2.18,8.63,4.116,12.943,6.173
			c0.444,0.211,0.851,0.499,1.694,1c-3.254,1.335-6.024,2.627-9.313,2.012c-2.564-0.479-5.15-0.873-7.745-1.144
			c-2.913-0.306-5.52,0.717-7.637,2.629c-1.356,1.229-2.525,1.259-4.017,0.486c-7.988-4.144-15.602-8.871-22.513-14.655
			c-9.881-8.268-17.769-18.135-23.401-29.74c-4.017-8.278-6.474-17.024-7.525-26.174c-1.251-10.858-0.09-21.489,2.972-31.931
			c3.222-10.98,8.576-20.842,15.852-29.662c10.24-12.417,22.943-21.524,37.697-27.82c10.877-4.642,22.234-7.57,33.979-8.733
			c7.648-0.756,15.357-1.423,23.024-1.292c21.742,0.371,43.02,3.688,63.435,11.521c9.771,3.748,18.938,8.604,26.941,15.408
			c7.947,6.757,14.011,14.833,15.616,25.433c1.816,11.99-1.035,22.869-8.77,32.328c-7.651,9.358-18.021,14.342-29.249,17.799
			c-8.248,2.54-16.749,3.721-25.362,4.287c-21.223,1.396-41.774-1.638-61.563-9.37c-9.053-3.537-17.271-8.513-23.925-15.831
			c-8.496-9.348-9.304-21.572-1.864-33.057c1.848-2.854,4.091-5.452,6.152-8.168c-0.124-0.157-0.249-0.313-0.373-0.471
			c-2.03,1.639-4.229,3.108-6.058,4.946c-7.143,7.174-9.161,16.112-8.118,25.819c1.546,14.408,10.144,24.042,22.014,31.208
			c11.455,6.917,24.082,10.602,37.217,12.373c8.047,1.084,16.221,1.872,24.325,1.775c18.291-0.218,36.186-3.094,53.165-10.305
			c9.082-3.857,17.549-8.797,24.551-15.815c7.84-7.857,12.732-17.222,13.627-28.517c0.957-12.096-1.926-23.004-9.641-32.44
			c-4.646-5.68-10.452-10.004-16.872-13.534c-13.081-7.19-27.231-11.532-41.472-15.622c-8.904-2.557-17.839-5.004-26.713-7.952
			c2.748,0.152,5.505,0.224,8.245,0.471c7.658,0.693,15.358,1.14,22.956,2.261c18.431,2.718,35.798,8.609,51.185,19.31
			c13.272,9.23,22.869,21.195,25.512,37.736c0.187,1.173,0.427,2.338,0.642,3.507C679.495,149.327,679.495,152.02,679.495,154.713z"
			/>
	</g>
	<g>
		<path d="M531.829,226.709h13.701l14.547,54.955H548.53l-2.538-11.622h-14.625l-2.54,11.622h-11.543L531.829,226.709z
			 M533.292,260.959h10.776l-5.313-24.706h-0.152L533.292,260.959z"/>
		<path d="M563.927,226.709h20.472c9.083,0,14.625,4.773,14.625,14.163c0,7.311-2.924,12.237-9.16,13.545v0.153
			c7.542,1.001,8.698,5.158,8.853,16.779c0.075,5.772,0.384,8.775,2.464,9.853v0.461h-12.007c-1.08-1.539-1.311-3.617-1.386-5.772
			l-0.309-10.545c-0.154-4.309-2.078-6.926-6.542-6.926h-5.927v23.244h-11.083V226.709z M575.01,250.723h4.616
			c5.313,0,8.313-2.308,8.313-8.235c0-5.08-2.693-7.62-7.696-7.62h-5.232V250.723z"/>
		<path d="M637.51,226.709v9.083h-12.007v45.872h-11.085v-45.872h-12.007v-9.083H637.51z"/>
	</g>
</g>
</svg>
