<?xml version="1.0" encoding="utf-8"?>
<!-- Generator: Adobe Illustrator 16.0.0, SVG Export Plug-In . SVG Version: 6.00 Build 0)  -->
<!DOCTYPE svg PUBLIC "-//W3C//DTD SVG 1.1//EN" "http://www.w3.org/Graphics/SVG/1.1/DTD/svg11.dtd">
<svg version="1.1" id="Layer_1" xmlns="http://www.w3.org/2000/svg" xmlns:xlink="http://www.w3.org/1999/xlink" x="0px" y="0px"
	 width="512px" height="512px" viewBox="0 0 512 512" enable-background="new 0 0 512 512" xml:space="preserve">
<g>
	<path fill-rule="evenodd" clip-rule="evenodd" fill="#FFFFFF" d="M73.582,205.677c5.246,0,16.965,0,16.965,0
		s-0.535,45.091-0.021,65.568c0.119,4.759,1.554,9.758,3.515,14.142c3.753,8.397,10.603,13.054,19.973,13.517
		c2.777,0.136,5.566,0.021,8.977,0.021c-0.896-4.153-1.74-7.998-2.551-11.849c-9.951-47.298,0.803-89.349,33.644-124.769
		c20.692-22.318,47.126-35.114,77.372-39.297c39.21-5.421,74.523,4.121,105.393,28.978c15.816,12.735,28.033,28.47,36.341,47.106
		c2.487,5.583,4.967,11.172,7.699,17.317c2.452-4.802,4.616-9.041,7.114-13.93c16.908,36.554,33.595,72.629,50.482,109.138
		c-14.656-0.216-15.906,0.722-18.199-3.39c-3.845-6.679-7.673-13.368-11.348-20.141c-0.987-1.821-2.747-3.434-4.797-3.404
		c-7.378,0.102-14.042,0.156-21.563,0.156c-1.533,5.271-2.938,12.307-5.238,18.146c-18.185,46.174-51.527,75.008-100.205,84.701
		c-47.4,9.438-88.297-4.486-122.769-37.837c-7.648-7.399-14.015-15.956-19.11-25.377c-0.742-1.376-1.652-2.663-2.346-4.062
		c-1.131-2.275-3.457-6.979-3.457-6.979s-5.333,0.479-8.022,0.396c-6.782-0.209-13.727-0.046-20.292-1.471
		c-15.457-3.357-25.453-13.651-27.557-29.395C73.155,279.774,73.582,228.299,73.582,205.677z M378.434,284.94
		c-12.769-0.31-12.769-0.31-16.646,8.105c-1.866,4.053-3.756,8.098-5.529,12.19c-2.025,4.677-5.56,6.684-10.583,6.567
		c-5.484-0.126-10.974-0.141-16.458-0.041c-5.986,0.107-10.31-2.314-13.786-7.289c-8.132-11.636-18.349-25.483-26.813-36.883
		c-1.792-2.412-5.24-3.686-5.546-3.503c0,15.811,0,31.621,0,47.649c-4.425,0-16.432-0.021-16.432-0.021s0.133-69.454,0.146-102.262
		c0.001-1.172,0.157-2.344,0.287-4.169c11.969,0.384,23.65,0.026,35.16,1.274c26.791,2.906,30.73,32.221,19.191,46.323
		c-4.631,5.659-10.793,8.36-18.266,9.474c11.526,15.64,21.564,31.926,35.416,45.623c0.51-1.043,0.956-1.902,1.356-2.782
		c6.243-13.705,12.437-27.435,18.734-41.116c5.179-11.25,10.56-22.405,15.69-33.676c1.354-2.971,3.759-8.656,3.759-8.656
		s-2.202-5.758-3.244-8.55c-7.921-21.228-19.831-39.624-36.872-54.744c-32.436-28.781-70.421-37.788-112.26-30.302
		c-34.326,6.142-61.312,24.89-81.653,53.109c-12.511,17.358-20.078,36.758-22.692,57.997c-1.692,13.749-0.93,27.495,1.433,41.103
		c1.013,5.831,2.917,11.508,4.444,17.359c7.056-2.18,11.887-5.946,14.014-12.104c1.543-4.468,2.669-9.315,2.738-14.013
		c0.308-20.598,0.164-41.203,0.184-61.807c0.002-1.286,0-3.82,0-3.82h16.137c0,0,0.539,49.776-0.323,74.044
		c-0.446,12.585-6.578,22.851-18.284,28.941c-2.564,1.335-5.186,2.552-7.77,3.818c18.008,41.999,66.402,75.438,122.679,73.538
		C316.035,384.315,366.753,340.299,378.434,284.94z M284.525,250.666c2.879,0,5.332,0.079,7.777-0.024
		c1.892-0.08,3.779-0.356,5.661-0.602c7.21-0.94,11.471-4.895,12.175-11.266c0.938-8.48-2.379-15.393-9.307-17.307
		c-5.153-1.423-9.815-0.743-16.307-1.002C284.525,231.448,284.525,240.222,284.525,250.666z M402.138,270.415
		c-4.722-12.171-9.305-23.983-14.173-36.531c-5.299,12.664-10.238,24.468-15.284,36.531
		C382.789,270.415,392.222,270.415,402.138,270.415z"/>
	<path fill-rule="evenodd" clip-rule="evenodd" fill="#FFFFFF" d="M244.219,221.053c-4.35,1.815-13.984,5.819-13.984,5.819
		s-0.848-1.246-1.574-2.02c-3.896-4.141-8.261-7.207-14.229-7.083c-4.883,0.101-8.871,2.148-11.865,5.954
		c-3.514,4.466-3.727,9.691,0.393,14.025c3.555,3.738,7.844,6.941,12.251,9.668c6.055,3.746,12.686,6.553,18.789,10.228
		c20.456,12.318,16.191,40.843,0.032,51.085c-3.919,2.483-8.785,4.064-13.407,4.738c-13.89,2.026-26.843,0.181-36.478-11.592
		c-0.705-0.863-5.834-9.731-5.834-9.731l13.519-7.722c0,0,0,0,3.534,4.998c7.221,10.211,20.328,12.453,29.227,4.999
		c6.711-5.622,7.547-13.772,1.291-19.862c-3.694-3.596-8.352-6.269-12.777-9.032c-6.609-4.128-13.742-7.492-20.025-12.05
		c-9.141-6.629-12.616-16.129-10.412-27.199c2.238-11.235,9.544-18.188,20.339-21.427c11.779-3.535,22.955-2.293,33.15,4.996
		C240.006,212.597,242.52,216.34,244.219,221.053z"/>
</g>
</svg>
