<?xml version="1.0" encoding="utf-8"?>
<!-- Generator: Adobe Illustrator 16.0.0, SVG Export Plug-In . SVG Version: 6.00 Build 0)  -->
<!DOCTYPE svg PUBLIC "-//W3C//DTD SVG 1.1//EN" "http://www.w3.org/Graphics/SVG/1.1/DTD/svg11.dtd">
<svg version="1.1" id="Layer_1" xmlns="http://www.w3.org/2000/svg" xmlns:xlink="http://www.w3.org/1999/xlink" x="0px" y="0px"
	 width="696.919px" height="340px" viewBox="0 0 696.919 340" enable-background="new 0 0 696.919 340" xml:space="preserve">
<g>
	<g>
		<path fill-rule="evenodd" clip-rule="evenodd" fill="#FFFFFF" d="M17.423,44.293c3.194,0,6.389,0,9.725,0
			c0,14.368,0,28.571,0,43.091c-3.225,0-6.476,0-9.725,0C17.423,73.02,17.423,58.656,17.423,44.293z"/>
		<path fill-rule="evenodd" clip-rule="evenodd" fill="#FFFFFF" d="M112.596,68.951c0,6.067,0,12.134,0,18.31
			c-3.342,0-6.451,0-9.721,0c0-14.239,0-28.471,0-42.951c3.056,0,6.101-0.08,9.133,0.074c0.543,0.027,1.202,0.936,1.528,1.58
			c4.079,8.051,8.106,16.127,12.296,24.498c0.488-0.909,0.872-1.583,1.219-2.276c3.707-7.401,7.437-14.793,11.086-22.223
			c0.604-1.233,1.291-1.766,2.71-1.697c2.603,0.125,5.214,0.036,7.982,0.036c0,14.366,0,28.594,0,42.948c-3.209,0-6.377,0-9.713,0
			c0-6.119,0-12.145,0-18.17c-0.145-0.049-0.292-0.099-0.436-0.148c-1.396,2.652-2.796,5.302-4.184,7.958
			c-1.555,2.975-3.155,5.93-4.618,8.95c-0.567,1.168-1.292,1.454-2.551,1.597c-3.351,0.383-5.36-0.597-6.789-3.952
			c-2.143-5.031-4.974-9.77-7.513-14.633C112.883,68.884,112.739,68.917,112.596,68.951z"/>
		<path fill-rule="evenodd" clip-rule="evenodd" fill="#FFFFFF" d="M200.29,44.303c3.048,0,5.961-0.104,8.859,0.068
			c0.785,0.047,1.692,0.789,2.254,1.456c5.873,6.974,11.684,13.999,17.518,21.006c0.278,0.334,0.592,0.64,1.226,1.32
			c0-8.116,0-15.82,0-23.687c3.436,0,6.601,0,9.954,0c0,14.249,0,28.48,0,42.906c-2.985,0-5.968,0.107-8.934-0.073
			c-0.781-0.047-1.667-0.852-2.239-1.533c-5.959-7.096-11.864-14.237-17.785-21.365c-0.236-0.283-0.486-0.555-1.065-1.214
			c0,8.257,0,16.099,0,24.062c-3.394,0-6.503,0-9.787,0C200.29,73.047,200.29,58.816,200.29,44.303z"/>
		<path fill-rule="evenodd" clip-rule="evenodd" fill="#FFFFFF" d="M353.214,87.374c-3.024,0-5.877,0.162-8.695-0.089
			c-0.972-0.086-2.042-1.039-2.745-1.869c-5.884-6.968-11.692-14-17.526-21.01c-0.237-0.285-0.497-0.551-1.061-1.174
			c0,8.211,0,16.056,0,24.021c-3.393,0-6.504,0-9.785,0c0-14.211,0-28.446,0-42.938c3.103,0,6.221-0.067,9.33,0.061
			c0.574,0.023,1.21,0.752,1.658,1.288c5.941,7.113,11.856,14.25,17.771,21.387c0.232,0.281,0.397,0.619,1.09,0.709
			c0-7.709,0-15.419,0-23.292c3.432,0,6.606,0,9.963,0C353.214,58.642,353.214,72.874,353.214,87.374z"/>
		<path fill-rule="evenodd" clip-rule="evenodd" fill="#FFFFFF" d="M371.233,87.375c0-3.395,0-6.505,0-9.858
			c2.688,0,5.281,0,7.876,0c6.134-0.001,12.268,0.029,18.4-0.022c2.333-0.02,3.706-1.326,3.735-3.299
			c0.029-1.977-1.345-3.279-3.631-3.418c-0.521-0.032-1.047-0.009-1.57-0.009c-4.04,0-8.078,0.013-12.117-0.003
			c-7.074-0.029-12.786-5.896-12.792-13.117c-0.006-7.414,5.639-13.32,12.799-13.34c8.379-0.023,16.755-0.008,25.134-0.001
			c0.655,0,1.312,0.066,2.099,0.108c0,3.229,0,6.335,0,9.745c-0.844,0-1.633,0-2.421,0c-7.256,0-14.511,0-21.767,0
			c-0.524,0-1.047-0.006-1.57,0.002c-2.766,0.046-4.36,1.299-4.36,3.421c0.001,2.065,1.619,3.301,4.456,3.319
			c4.113,0.026,8.228,0.006,12.341,0.008c7.628,0.004,13.462,5.734,13.451,13.206c-0.012,7.528-5.793,13.255-13.395,13.259
			C389.084,87.378,380.267,87.375,371.233,87.375z"/>
		<path fill-rule="evenodd" clip-rule="evenodd" fill="#FFFFFF" d="M282.92,44.301c-1.385,3.185-2.522,6.014-3.874,8.737
			c-0.285,0.573-1.35,1.063-2.062,1.072c-6.059,0.084-12.118,0.048-18.177,0.048c-0.599,0-1.197-0.011-1.795,0.003
			c-2.808,0.062-4.37,1.31-4.333,3.452c0.035,2.019,1.59,3.262,4.262,3.285c4.189,0.036,8.378,0.007,12.567,0.011
			c7.622,0.009,13.4,5.724,13.396,13.245c-0.006,7.515-5.784,13.214-13.419,13.219c-8.814,0.005-17.628,0.001-26.584,0.001
			c0-3.315,0-6.478,0-9.858c0.882,0,1.685,0,2.487,0c7.78,0,15.56,0.018,23.339-0.013c2.682-0.011,4.146-1.258,4.146-3.357
			c-0.001-2.111-1.47-3.349-4.137-3.369c-4.339-0.033-8.678,0.001-13.017-0.013c-7.274-0.021-12.958-5.811-12.961-13.185
			c-0.002-7.385,5.673-13.259,12.869-13.274C264.599,44.287,273.568,44.301,282.92,44.301z"/>
		<path fill-rule="evenodd" clip-rule="evenodd" fill="#FFFFFF" d="M528.29,87.276c0-14.36,0-28.489,0-42.796
			c12.231,0,24.433,0,36.924,0c-1.323,3.055-2.519,6.007-3.917,8.86c-0.239,0.49-1.338,0.778-2.043,0.785
			c-6.133,0.06-12.268,0.034-18.402,0.034c-0.813,0-1.628,0-2.599,0c0,2.243,0,4.361,0,6.689c6.861,0,13.709,0,20.725,0
			c0,3.362,0,6.521,0,9.891c-6.931,0-13.777,0-20.751,0c0,2.27,0,4.337,0,6.685c8.857,0,17.78,0,26.865,0c0,3.436,0,6.593,0,9.852
			C552.82,87.276,540.66,87.276,528.29,87.276z"/>
		<path fill-rule="evenodd" clip-rule="evenodd" fill="#FFFFFF" d="M151.128,87.375c4.168-9.414,8.173-18.473,12.189-27.526
			c2.087-4.705,4.143-9.424,6.34-14.078c0.313-0.662,1.323-1.374,2.042-1.408c6.603-0.309,6.61-0.269,9.306,5.798
			c5.208,11.716,10.409,23.435,15.61,35.154c0.264,0.596,0.5,1.203,0.855,2.062c-6.117,0-11.996,0.012-17.874-0.006
			c-2.462-0.007-5.515,0.797-7.224-0.359c-1.783-1.208-2.282-4.324-3.323-6.614c-0.396-0.868-0.737-1.761-1.182-2.833
			c4.667,0,9.123,0,14.027,0c-2.544-5.741-4.961-11.198-7.566-17.076c-2.626,5.912-5.065,11.41-7.51,16.905
			c-1.303,2.929-2.561,5.881-3.971,8.758c-0.276,0.562-1.151,1.147-1.77,1.17C157.872,87.437,154.658,87.375,151.128,87.375z"/>
		<path fill-rule="evenodd" clip-rule="evenodd" fill="#FFFFFF" d="M462.678,77.459c4.849,0,9.309,0,14.085,0
			c-2.513-5.66-4.921-11.082-7.521-16.936c-1.837,4.091-3.507,7.779-5.153,11.478c-2.03,4.563-4.095,9.114-6.032,13.717
			c-0.555,1.318-1.277,1.743-2.676,1.691c-2.985-0.111-5.977-0.034-9.182-0.034c0.209-0.652,0.33-1.194,0.551-1.692
			c5.871-13.222,11.776-26.43,17.6-39.673c0.568-1.29,1.19-1.83,2.618-1.742c2.083,0.128,4.18,0.033,6.355,0.033
			c6.336,14.274,12.65,28.496,19.121,43.074c-1.116,0-1.968,0-2.82,0c-6.954,0-13.908-0.031-20.862,0.028
			c-1.293,0.011-2.003-0.331-2.493-1.597C465.223,83.111,463.994,80.487,462.678,77.459z"/>
		<path fill-rule="evenodd" clip-rule="evenodd" fill="#FFFFFF" d="M413.942,44.31c9.503,0,18.85-0.172,28.187,0.059
			c6.526,0.162,11.864,6.412,11.813,13.209c-0.054,6.871-5.389,12.918-11.906,13.146c-5.599,0.195-11.211,0.04-17.208,0.04
			c1.427-3.25,2.712-6.302,4.145-9.283c0.182-0.379,1.13-0.536,1.728-0.546c3.065-0.054,6.132,0.006,9.198-0.039
			c2.522-0.036,3.957-1.259,3.995-3.283c0.041-2.168-1.375-3.421-4.06-3.439c-5.299-0.036-10.598-0.011-16.145-0.011
			c0,11.09,0,22.035,0,33.095c-3.357,0-6.47,0-9.746,0C413.942,73.034,413.942,58.801,413.942,44.31z"/>
		<path fill-rule="evenodd" clip-rule="evenodd" fill="#FFFFFF" d="M60.086,44.387c3.364,0,6.474,0,9.845,0
			c0,6.265-0.041,12.447,0.023,18.628c0.021,2.08,0.046,4.22,0.522,6.225c1.553,6.531,8.006,10.047,13.537,7.336
			c4.125-2.022,6.066-5.685,6.152-10.186c0.122-6.431,0.033-12.866,0.035-19.298c0-0.813,0-1.626,0-2.615c3.319,0,6.492,0,9.726,0
			c0.034,0.043,0.206,0.159,0.204,0.271c-0.185,8.95,0.704,18.092-0.829,26.807c-2.381,13.531-17.406,20.03-28.838,13.299
			c-6.258-3.685-9.884-9.479-10.281-16.686C59.752,60.345,60.086,52.479,60.086,44.387z"/>
		<path fill-rule="evenodd" clip-rule="evenodd" fill="#FFFFFF" d="M525.792,44.301c-1.4,3.232-2.607,6.176-3.984,9.038
			c-0.221,0.459-1.188,0.767-1.821,0.784c-3.213,0.086-6.431-0.02-9.642,0.078c-6.69,0.204-11.698,5.245-11.693,11.669
			c0.006,6.392,5.045,11.396,11.759,11.61c2.538,0.081,5.082,0.03,7.623,0.035c2.456,0.004,4.911,0,7.543,0
			c0,3.318,0,6.471,0,10.073c-6.839-0.23-13.685,0.126-20.342-0.828c-9.232-1.323-16.196-10.768-16.566-20.21
			c-0.444-11.293,8.37-20.724,18.024-22.017c1.546-0.208,3.125-0.214,4.688-0.224C516.063,44.284,520.746,44.301,525.792,44.301z"/>
		<path fill-rule="evenodd" clip-rule="evenodd" fill="#FFFFFF" d="M47.568,60.909c0-5.64,0-10.936,0-16.419
			c3.333,0,6.556,0,9.911,0c0,14.243,0,28.418,0,42.74c-3.195,0-6.377,0-9.823,0c0-5.364,0-10.772,0-16.368
			c-6.426,0-12.598,0-19.227,0c1.474-3.346,2.75-6.396,4.202-9.361c0.202-0.414,1.265-0.559,1.932-0.566
			C38.806,60.885,43.048,60.909,47.568,60.909z"/>
		<path fill-rule="evenodd" clip-rule="evenodd" fill="#FFFFFF" d="M300.738,87.192c0-14.27,0-28.437,0-42.748
			c3.233,0,6.393,0,9.67,0c0,14.229,0,28.396,0,42.748C307.299,87.192,304.138,87.192,300.738,87.192z"/>
	</g>
	<g>
		<path fill-rule="evenodd" clip-rule="evenodd" fill="#29ABE2" d="M679.496,154.713c-0.438,2.57-0.823,5.151-1.326,7.708
			c-1.996,10.132-5.906,19.428-13.58,26.516c-4.521,4.175-9.537,8.023-14.871,11.069c-16.898,9.65-35.428,14.277-54.65,16.188
			c-7.939,0.789-15.943,1.246-23.921,1.281c-12.432,0.056-24.736-1.337-36.89-4.164c-11.376-2.646-22.264-6.428-32.183-12.677
			c-12.075-7.607-20.856-17.748-23.35-32.219c-3.105-18.038,3.04-32.507,17.777-43.243c11.353-8.27,24.399-12.282,38.145-13.961
			c7.467-0.912,15.059-1.497,22.563-1.264c14.59,0.453,28.87,2.874,42.069,9.623c5.861,2.996,11.171,6.781,14.743,12.45
			c6.007,9.534,5.056,19.122-0.611,28.357c-4.586,7.476-11.828,11.752-19.85,14.639c-15.542,5.595-31.306,5.98-47.146,1.283
			c-5.872-1.742-11.194-4.538-15.619-8.904c-9.153-9.033-10.025-24.836,5.366-32.296c9.992-4.844,20.465-5.759,31.203-2.693
			c3.325,0.949,6.126,2.752,8.341,5.422c2.768,3.338,1.436,7.287-2.831,8.126c-1.279,0.252-2.696,0.174-3.99-0.071
			c-5.065-0.958-10.076-2.275-15.175-2.964c-2.056-0.278-4.556,0.229-6.373,1.243c-3.073,1.715-3.362,6.479-0.503,9.422
			c2.077,2.138,4.599,4.302,7.339,5.259c11.57,4.043,22.896,2.856,33.481-3.277c10.128-5.87,7.863-14.797,2.427-20.937
			c-3.709-4.188-8.55-6.619-13.791-8.001c-19.721-5.201-38.677-3.205-56.57,6.822c-4.143,2.321-7.744,5.482-10.093,9.683
			c-4.283,7.656-3.948,15.331,0.64,22.768c4.43,7.178,11.224,11.512,18.691,14.833c16.388,7.29,33.739,8.951,51.384,7.972
			c12.399-0.688,24.457-3.303,35.635-9c5.969-3.042,11.437-6.804,15.557-12.245c9.19-12.136,8.836-28.501-0.894-40.265
			c-6.857-8.293-15.788-13.625-25.563-17.669c-12.253-5.069-25.049-8.104-38.248-9.083c-8.78-0.651-17.638-1.212-26.413-0.793
			c-20.161,0.961-39.57,5.318-57.267,15.497c-15.322,8.813-27.345,20.772-33.981,37.49c-5.431,13.683-5.937,27.636-1.887,41.775
			c3.403,11.884,9.677,22.121,17.892,31.245c9.312,10.342,20.369,18.397,32.706,24.726c4.251,2.181,8.629,4.116,12.943,6.174
			c0.443,0.211,0.851,0.498,1.693,0.999c-3.254,1.335-6.024,2.628-9.313,2.013c-2.563-0.48-5.15-0.873-7.744-1.144
			c-2.914-0.305-5.52,0.717-7.637,2.63c-1.357,1.228-2.526,1.258-4.017,0.486c-7.989-4.144-15.602-8.871-22.513-14.655
			c-9.882-8.268-17.77-18.136-23.401-29.74c-4.018-8.278-6.474-17.024-7.526-26.174c-1.25-10.859-0.09-21.489,2.973-31.932
			c3.221-10.98,8.576-20.842,15.851-29.662c10.241-12.417,22.943-21.524,37.697-27.82c10.877-4.641,22.234-7.57,33.98-8.732
			c7.647-0.756,15.357-1.423,23.024-1.292c21.742,0.371,43.019,3.688,63.434,11.521c9.771,3.748,18.938,8.604,26.941,15.408
			c7.948,6.757,14.012,14.833,15.617,25.433c1.815,11.99-1.035,22.869-8.771,32.328c-7.651,9.358-18.021,14.342-29.248,17.799
			c-8.249,2.54-16.75,3.721-25.363,4.288c-21.222,1.396-41.774-1.639-61.562-9.371c-9.053-3.537-17.272-8.513-23.925-15.831
			c-8.496-9.348-9.305-21.572-1.865-33.057c1.848-2.854,4.092-5.452,6.153-8.168c-0.124-0.157-0.249-0.313-0.374-0.471
			c-2.029,1.639-4.229,3.108-6.058,4.946c-7.143,7.174-9.16,16.112-8.118,25.818c1.547,14.408,10.144,24.042,22.014,31.208
			c11.455,6.917,24.082,10.602,37.217,12.372c8.048,1.085,16.222,1.872,24.326,1.776c18.291-0.218,36.185-3.094,53.165-10.305
			c9.082-3.857,17.548-8.797,24.551-15.815c7.84-7.857,12.732-17.221,13.626-28.517c0.957-12.096-1.925-23.004-9.641-32.44
			c-4.646-5.68-10.451-10.003-16.872-13.533c-13.08-7.19-27.23-11.532-41.472-15.622c-8.903-2.557-17.838-5.004-26.713-7.952
			c2.749,0.152,5.505,0.224,8.245,0.472c7.659,0.693,15.358,1.14,22.956,2.26c18.431,2.718,35.798,8.609,51.185,19.31
			c13.273,9.23,22.869,21.195,25.512,37.736c0.187,1.173,0.428,2.339,0.643,3.508C679.496,149.327,679.496,152.02,679.496,154.713z"
			/>
	</g>
	<g>
		<path fill="#FFFFFF" d="M531.83,226.709h13.7l14.547,54.954h-11.546l-2.538-11.622h-14.626l-2.539,11.622h-11.544L531.83,226.709z
			 M533.293,260.959h10.775l-5.312-24.706h-0.153L533.293,260.959z"/>
		<path fill="#FFFFFF" d="M563.927,226.709h20.473c9.083,0,14.624,4.773,14.624,14.162c0,7.311-2.924,12.237-9.159,13.546v0.154
			c7.542,1,8.698,5.157,8.853,16.779c0.075,5.772,0.384,8.774,2.463,9.852v0.462h-12.007c-1.079-1.54-1.311-3.618-1.386-5.772
			l-0.309-10.545c-0.154-4.309-2.078-6.926-6.542-6.926h-5.927v23.244h-11.083V226.709z M575.01,250.723h4.617
			c5.312,0,8.313-2.309,8.313-8.235c0-5.08-2.693-7.62-7.696-7.62h-5.233V250.723z"/>
		<path fill="#FFFFFF" d="M637.51,226.709v9.082h-12.006v45.872h-11.085v-45.872h-12.007v-9.082H637.51z"/>
	</g>
</g>
</svg>
