<?xml version="1.0" encoding="utf-8"?>
<!-- Generator: Adobe Illustrator 16.0.0, SVG Export Plug-In . SVG Version: 6.00 Build 0)  -->
<!DOCTYPE svg PUBLIC "-//W3C//DTD SVG 1.1//EN" "http://www.w3.org/Graphics/SVG/1.1/DTD/svg11.dtd">
<svg version="1.1" id="Layer_1" xmlns="http://www.w3.org/2000/svg" xmlns:xlink="http://www.w3.org/1999/xlink" x="0px" y="0px"
	 width="512px" height="512px" viewBox="0 0 512 512" enable-background="new 0 0 512 512" xml:space="preserve">
<g>
	<path fill-rule="evenodd" clip-rule="evenodd" fill="#FADF8D" d="M73.582,205.677c5.247,0,16.965,0,16.965,0
		s-0.534,45.091-0.021,65.568c0.119,4.759,1.555,9.758,3.514,14.142c3.754,8.397,10.604,13.054,19.973,13.517
		c2.778,0.136,5.567,0.021,8.978,0.021c-0.896-4.153-1.74-7.998-2.551-11.849c-9.952-47.298,0.804-89.349,33.644-124.769
		c20.693-22.318,47.126-35.114,77.371-39.297c39.21-5.421,74.525,4.121,105.394,28.978c15.816,12.735,28.033,28.47,36.34,47.106
		c2.488,5.583,4.967,11.172,7.699,17.317c2.453-4.802,4.617-9.041,7.115-13.93c16.908,36.554,33.594,72.629,50.482,109.138
		c-14.656-0.216-15.906,0.722-18.199-3.39c-3.846-6.679-7.674-13.368-11.348-20.141c-0.988-1.821-2.748-3.434-4.797-3.404
		c-7.379,0.102-14.043,0.156-21.563,0.156c-1.533,5.271-2.939,12.307-5.238,18.146c-18.186,46.174-51.527,75.008-100.205,84.701
		c-47.401,9.438-88.296-4.486-122.769-37.837c-7.648-7.399-14.016-15.956-19.109-25.377c-0.743-1.376-1.653-2.663-2.348-4.062
		c-1.13-2.275-3.456-6.979-3.456-6.979s-5.333,0.479-8.021,0.396c-6.783-0.209-13.728-0.046-20.293-1.471
		c-15.457-3.357-25.453-13.651-27.557-29.395C73.155,279.774,73.582,228.299,73.582,205.677z M378.434,284.94
		c-12.77-0.31-12.77-0.31-16.646,8.105c-1.867,4.053-3.756,8.098-5.529,12.19c-2.025,4.677-5.561,6.684-10.584,6.567
		c-5.484-0.126-10.973-0.141-16.457-0.041c-5.986,0.107-10.311-2.314-13.787-7.289c-8.131-11.636-18.348-25.483-26.813-36.883
		c-1.791-2.412-5.24-3.686-5.545-3.503c0,15.811,0,31.621,0,47.649c-4.426,0-16.432-0.021-16.432-0.021s0.133-69.454,0.146-102.262
		c0-1.172,0.156-2.344,0.287-4.169c11.969,0.384,23.65,0.026,35.16,1.274c26.791,2.906,30.73,32.221,19.191,46.323
		c-4.631,5.659-10.793,8.36-18.266,9.474c11.525,15.64,21.564,31.926,35.416,45.623c0.51-1.043,0.955-1.902,1.355-2.782
		c6.244-13.705,12.438-27.435,18.734-41.116c5.18-11.25,10.561-22.405,15.691-33.676c1.354-2.971,3.758-8.656,3.758-8.656
		s-2.201-5.758-3.244-8.55c-7.92-21.228-19.83-39.624-36.871-54.744c-32.436-28.781-70.422-37.788-112.261-30.302
		c-34.325,6.142-61.312,24.89-81.651,53.109c-12.512,17.358-20.08,36.758-22.693,57.997c-1.693,13.749-0.93,27.495,1.434,41.103
		c1.012,5.831,2.917,11.508,4.443,17.359c7.056-2.18,11.887-5.946,14.014-12.104c1.543-4.468,2.669-9.315,2.739-14.013
		c0.308-20.598,0.163-41.203,0.183-61.807c0.001-1.286,0-3.82,0-3.82h16.137c0,0,0.539,49.776-0.323,74.044
		c-0.446,12.585-6.578,22.851-18.285,28.941c-2.563,1.335-5.185,2.552-7.769,3.818c18.008,41.999,66.402,75.438,122.68,73.538
		C316.035,384.315,366.752,340.299,378.434,284.94z M284.525,250.666c2.879,0,5.332,0.079,7.777-0.024
		c1.891-0.08,3.779-0.356,5.66-0.602c7.211-0.94,11.471-4.895,12.176-11.266c0.938-8.48-2.379-15.393-9.307-17.307
		c-5.154-1.423-9.816-0.743-16.307-1.002C284.525,231.448,284.525,240.222,284.525,250.666z M402.137,270.415
		c-4.721-12.171-9.305-23.983-14.172-36.531c-5.299,12.664-10.238,24.468-15.285,36.531
		C382.789,270.415,392.221,270.415,402.137,270.415z"/>
	<path fill-rule="evenodd" clip-rule="evenodd" fill="#FADF8D" d="M244.217,221.053c-4.349,1.815-13.983,5.819-13.983,5.819
		s-0.848-1.246-1.574-2.02c-3.896-4.141-8.261-7.207-14.229-7.083c-4.882,0.101-8.87,2.148-11.864,5.954
		c-3.514,4.466-3.727,9.691,0.393,14.025c3.554,3.738,7.844,6.941,12.25,9.668c6.055,3.746,12.686,6.553,18.789,10.228
		c20.457,12.318,16.191,40.843,0.033,51.085c-3.919,2.483-8.784,4.064-13.407,4.738c-13.89,2.026-26.843,0.181-36.478-11.592
		c-0.705-0.863-5.833-9.731-5.833-9.731l13.517-7.722c0,0,0,0,3.535,4.998c7.221,10.211,20.328,12.453,29.227,4.999
		c6.711-5.622,7.547-13.772,1.291-19.862c-3.694-3.596-8.352-6.269-12.777-9.032c-6.609-4.128-13.743-7.492-20.025-12.05
		c-9.141-6.629-12.615-16.129-10.411-27.199c2.237-11.235,9.544-18.188,20.338-21.427c11.779-3.535,22.956-2.293,33.151,4.996
		C240.005,212.597,242.518,216.34,244.217,221.053z"/>
</g>
</svg>
