<?xml version="1.0" encoding="utf-8"?>
<!-- Generator: Adobe Illustrator 16.0.0, SVG Export Plug-In . SVG Version: 6.00 Build 0)  -->
<!DOCTYPE svg PUBLIC "-//W3C//DTD SVG 1.1//EN" "http://www.w3.org/Graphics/SVG/1.1/DTD/svg11.dtd">
<svg version="1.1" id="Layer_1" xmlns="http://www.w3.org/2000/svg" xmlns:xlink="http://www.w3.org/1999/xlink" x="0px" y="0px"
	 width="512px" height="512px" viewBox="0 0 512 512" enable-background="new 0 0 512 512" xml:space="preserve">
<g>
	<path fill-rule="evenodd" clip-rule="evenodd" d="M73.582,205.677c5.247,0,16.965,0,16.965,0s-0.533,45.091-0.021,65.568
		c0.119,4.759,1.555,9.758,3.514,14.142c3.754,8.397,10.604,13.054,19.973,13.517c2.778,0.136,5.567,0.021,8.977,0.021
		c-0.895-4.153-1.739-7.998-2.55-11.849c-9.952-47.298,0.805-89.349,33.644-124.769c20.693-22.318,47.127-35.114,77.371-39.297
		c39.211-5.421,74.525,4.121,105.395,28.978c15.815,12.735,28.032,28.47,36.34,47.106c2.488,5.583,4.967,11.172,7.699,17.317
		c2.452-4.802,4.617-9.041,7.114-13.93c16.908,36.554,33.595,72.629,50.482,109.138c-14.656-0.216-15.906,0.722-18.198-3.39
		c-3.846-6.679-7.674-13.368-11.348-20.141c-0.988-1.821-2.748-3.434-4.798-3.404c-7.378,0.102-14.042,0.156-21.563,0.156
		c-1.533,5.271-2.938,12.307-5.237,18.146c-18.186,46.174-51.527,75.008-100.205,84.701c-47.4,9.438-88.297-4.486-122.77-37.837
		c-7.648-7.399-14.016-15.956-19.108-25.377c-0.745-1.376-1.654-2.663-2.349-4.062c-1.129-2.275-3.456-6.979-3.456-6.979
		s-5.333,0.479-8.021,0.396c-6.784-0.209-13.729-0.046-20.293-1.471c-15.458-3.357-25.455-13.651-27.558-29.395
		C73.155,279.774,73.582,228.299,73.582,205.677z M378.435,284.94c-12.77-0.31-12.77-0.31-16.647,8.105
		c-1.866,4.053-3.756,8.098-5.529,12.19c-2.025,4.677-5.56,6.684-10.583,6.567c-5.484-0.126-10.974-0.141-16.458-0.041
		c-5.986,0.107-10.31-2.314-13.786-7.289c-8.132-11.636-18.348-25.483-26.813-36.883c-1.792-2.412-5.24-3.686-5.545-3.503
		c0,15.811,0,31.621,0,47.649c-4.426,0-16.433-0.021-16.433-0.021s0.134-69.454,0.146-102.262c0.001-1.172,0.157-2.344,0.287-4.169
		c11.969,0.384,23.651,0.026,35.16,1.274c26.792,2.906,30.731,32.221,19.191,46.323c-4.631,5.659-10.793,8.36-18.265,9.474
		c11.525,15.64,21.563,31.926,35.416,45.623c0.509-1.043,0.955-1.902,1.355-2.782c6.243-13.705,12.438-27.435,18.734-41.116
		c5.179-11.25,10.56-22.405,15.691-33.676c1.353-2.971,3.758-8.656,3.758-8.656s-2.201-5.758-3.244-8.55
		c-7.921-21.228-19.83-39.624-36.871-54.744c-32.437-28.781-70.422-37.788-112.262-30.302c-34.324,6.142-61.312,24.89-81.65,53.109
		c-12.513,17.358-20.081,36.758-22.694,57.997c-1.693,13.749-0.929,27.495,1.435,41.103c1.012,5.831,2.917,11.508,4.443,17.359
		c7.055-2.18,11.886-5.946,14.014-12.104c1.543-4.468,2.668-9.315,2.738-14.013c0.309-20.598,0.164-41.203,0.183-61.807
		c0.001-1.286,0.001-3.82,0.001-3.82h16.135c0,0,0.54,49.776-0.322,74.044c-0.446,12.585-6.578,22.851-18.285,28.941
		c-2.562,1.335-5.184,2.552-7.77,3.818c18.008,41.999,66.404,75.438,122.682,73.538C316.035,384.315,366.753,340.299,378.435,284.94
		z M284.525,250.666c2.88,0,5.332,0.079,7.777-0.024c1.892-0.08,3.779-0.356,5.661-0.602c7.21-0.94,11.471-4.895,12.176-11.266
		c0.938-8.48-2.379-15.393-9.307-17.307c-5.154-1.423-9.816-0.743-16.308-1.002C284.525,231.448,284.525,240.222,284.525,250.666z
		 M402.138,270.415c-4.722-12.171-9.305-23.983-14.172-36.531c-5.3,12.664-10.238,24.468-15.285,36.531
		C382.79,270.415,392.222,270.415,402.138,270.415z"/>
	<path fill-rule="evenodd" clip-rule="evenodd" d="M244.218,221.053c-4.348,1.815-13.983,5.819-13.983,5.819
		s-0.849-1.246-1.574-2.02c-3.896-4.141-8.261-7.207-14.229-7.083c-4.882,0.101-8.87,2.148-11.864,5.954
		c-3.514,4.466-3.726,9.691,0.393,14.025c3.554,3.738,7.843,6.941,12.25,9.668c6.055,3.746,12.686,6.553,18.789,10.228
		c20.456,12.318,16.191,40.843,0.034,51.085c-3.92,2.483-8.784,4.064-13.408,4.738c-13.889,2.026-26.842,0.181-36.477-11.592
		c-0.706-0.863-5.833-9.731-5.833-9.731l13.516-7.722c0,0,0,0,3.535,4.998c7.221,10.211,20.328,12.453,29.226,4.999
		c6.712-5.622,7.548-13.772,1.292-19.862c-3.694-3.596-8.353-6.269-12.777-9.032c-6.61-4.128-13.743-7.492-20.025-12.05
		c-9.141-6.629-12.614-16.129-10.41-27.199c2.236-11.235,9.544-18.188,20.337-21.427c11.779-3.535,22.957-2.293,33.152,4.996
		C240.007,212.597,242.519,216.34,244.218,221.053z"/>
</g>
</svg>
