<?xml version="1.0" encoding="utf-8"?>
<!-- Generator: Adobe Illustrator 16.0.0, SVG Export Plug-In . SVG Version: 6.00 Build 0)  -->
<!DOCTYPE svg PUBLIC "-//W3C//DTD SVG 1.1//EN" "http://www.w3.org/Graphics/SVG/1.1/DTD/svg11.dtd">
<svg version="1.1" id="Layer_1" xmlns="http://www.w3.org/2000/svg" xmlns:xlink="http://www.w3.org/1999/xlink" x="0px" y="0px"
	 width="512px" height="512px" viewBox="0 0 512 512" enable-background="new 0 0 512 512" xml:space="preserve">
<g>
	<path fill="#FADF8D" d="M471.434,381.081c-68.012,118.621-219.306,159.646-337.926,91.633
		C14.892,404.702-26.135,253.41,41.876,134.789c68.01-118.617,219.305-159.646,337.921-91.633
		C498.416,111.168,539.444,262.46,471.434,381.081z"/>
	<g>
		<g>
			<path fill="#071C2C" d="M381.703,39.832C261.251-29.232,107.615,12.431,38.554,132.883
				C-30.509,253.34,11.15,406.973,131.602,476.037c120.459,69.065,274.091,27.406,343.155-93.05
				C543.819,262.529,502.159,108.896,381.703,39.832z M466.269,366.908c-11.698,20.401-60.155,18.963-68.644,7.226
				c-11.461-15.853-10.548-11.506-21.417-12.303c-16.995-1.25-25.589,5.459-34.858,5.908c-9.621,0.464-28.84-18.245-40.124-20.664
				c-15.724-3.374-36.664,4.382-42.352,4.449c-5.684,0.065-18.151-3.952-29.53-15.077c-0.934-0.913-1.85-1.601-2.756-2.127
				c-0.856-6.414-1.098-12.425,0.161-15.069c5.413-11.387,25.968-12.259,27.515-23.832c1.068-7.993-6.537-20.309-8.585-28.156
				c-1.618-6.228-2.238-15.507-1.286-24.303c1.999-10.199,15.86-26.31,15.86-26.31c1.396-2.433,1.295-5.401,0.021-8.208
				c10.26-2.07,23.089-12.397,34.132-27.79c0.109,0.069,0.229,0.141,0.348,0.197c0.875,0.439,1.82,0.579,2.723,0.464l3.434,18.154
				c-0.28,0.238-0.516,0.537-0.696,0.891c-0.423,0.85-0.388,1.812,0.012,2.598l-4.454,6.637c0.059,0.021,0.116,0.053,0.174,0.075
				c-1.951-0.707-4.224-0.268-5.764,1.313c-0.104,0.107-0.131,0.259-0.079,0.391c0.017,0.05,0.046,0.089,0.083,0.13l0.245,0.235
				l0.451,0.443l0.268,0.263c0.067,0.066,0.165,0.103,0.262,0.103c0.095-0.004,0.193-0.042,0.262-0.111
				c1.293-1.331,3.432-1.36,4.763-0.065c0.347,0.341,0.61,0.739,0.785,1.187c0.482,1.229,0.198,2.633-0.722,3.579
				c-0.105,0.111-0.133,0.263-0.08,0.393c0.018,0.045,0.05,0.091,0.086,0.128l0.965,0.941c0.066,0.065,0.164,0.102,0.26,0.102
				c0.098,0,0.197-0.041,0.261-0.111c1.491-1.528,1.947-3.804,1.171-5.792c-0.141-0.354-0.31-0.69-0.518-1.001l4.921-7.333
				c-0.025-0.005-0.055-0.01-0.084-0.01c0.797-0.197,1.506-0.71,1.898-1.497c0.634-1.259,0.26-2.75-0.809-3.584l-3.8-20.096
				c0.103-0.169,0.211-0.337,0.3-0.518c1.06-2.104,0.389-4.617-1.476-5.944c0.009-0.017,0.023-0.033,0.033-0.054l0.099,0.058
				l1.818-3.167l-18.029-10.339c1.363-0.351,2.629-1.061,3.657-2.08l11.34,6.494c1.885,1.086,3.31,0.753,4.325,0.034h0.006
				c0,0,0.004-0.005,0.009-0.009l0.01-0.008c0.385-0.275,0.707-0.608,0.979-0.94c1.276-2.293,2.449-4.589,3.51-6.876
				c1.624,0.977,3.76,0.647,4.994-0.864c1.351-1.655,1.108-4.091-0.549-5.448c-0.45-0.369-0.96-0.612-1.493-0.748
				c6.901-18.485,6.414-35.107-2.082-41.067c0.853-3.899,0.166-12.214-0.033-14.395c0.606-0.329,1.138-0.826,1.509-1.471
				c1.062-1.856,0.421-4.219-1.432-5.279c-1.856-1.067-4.223-0.426-5.283,1.43c-1.064,1.849-0.424,4.215,1.433,5.279
				c0.259,0.147,0.523,0.259,0.795,0.341c0.263,3.626,0.311,9.699-1.926,12.064c-9.351-1.688-22.26,6.138-33.462,19.875
				c-0.088-0.091-0.185-0.176-0.283-0.259c-1.655-1.351-4.092-1.108-5.447,0.546c-1.352,1.656-1.109,4.092,0.547,5.443
				c0.18,0.152,0.378,0.28,0.581,0.395c-1.412,2.035-2.78,4.166-4.089,6.38c-0.178,0.431-0.321,0.929-0.373,1.459
				c0,0,0,0.007-0.003,0.012c0.003,0.004,0,0.012,0,0.012h0.003c-0.111,1.232,0.323,2.639,2.214,3.718l10.793,6.191
				c-0.365,1.4-0.336,2.854,0.051,4.21l-17.072-9.789l-0.011,0.014l-0.021-0.011c-0.364,0.637-0.719,1.273-1.07,1.911l-0.719,1.256
				l0.031,0.009c-0.017,0.028-0.027,0.054-0.041,0.077c-2.122-1.075-4.76-0.406-6.082,1.636c-0.111,0.168-0.201,0.344-0.288,0.525
				l-19.271,6.869c-1.258-0.506-2.736-0.07-3.5,1.109c-0.477,0.735-0.565,1.61-0.333,2.391c-0.017-0.021-0.032-0.037-0.047-0.062
				l-3.69,7.642c-2.83-0.074-5.283,2.061-5.554,4.92c-0.015,0.153,0.062,0.284,0.18,0.357c0.04,0.022,0.091,0.038,0.145,0.045
				l0.341,0.035l0.629,0.057l0.369,0.037c0.099,0.008,0.196-0.021,0.271-0.082c0.075-0.062,0.124-0.152,0.133-0.25
				c0.176-1.849,1.822-3.209,3.672-3.032c0.485,0.045,0.943,0.189,1.357,0.428c1.148,0.662,1.807,1.931,1.68,3.245
				c-0.011,0.147,0.064,0.287,0.187,0.358c0.043,0.02,0.091,0.04,0.146,0.044l1.34,0.132c0.096,0.003,0.194-0.025,0.27-0.091
				c0.073-0.061,0.123-0.148,0.133-0.247c0.17-1.791-0.568-3.529-1.912-4.668l3.29-6.81c0.882-0.054,1.729-0.505,2.248-1.306
				c0.215-0.33,0.351-0.684,0.418-1.049l17.403-6.207c0.353,0.843,0.952,1.586,1.773,2.116c0.179,0.118,0.361,0.213,0.551,0.299
				c-7.764,17.443-10.164,33.85-6.646,43.722c-2.936,0.378-5.426,1.778-6.775,4.133c0,0-18.375,19-50.426,24.07
				c-3.833,0.607-9.967,1.578-13.27,3.48c-6.246,3.611-14.9,18.383-19.566,19.826c-5.246,1.614-7.377,2.355-10.049,3.8
				c3.902-22.136-14.83-45.228-38.372-52.426C89.207,197.234,69,191.79,61.564,205.486c-3.955,7.276-23.842-32.629-1.552-71.507
				C122.588,24.839,264.258-11.492,376.44,52.831C488.632,117.151,528.844,257.77,466.269,366.908z"/>
		</g>
	</g>
</g>
</svg>
