<?xml version="1.0" encoding="utf-8"?>
<!-- Generator: Adobe Illustrator 16.0.0, SVG Export Plug-In . SVG Version: 6.00 Build 0)  -->
<!DOCTYPE svg PUBLIC "-//W3C//DTD SVG 1.1//EN" "http://www.w3.org/Graphics/SVG/1.1/DTD/svg11.dtd">
<svg version="1.1" id="Layer_1" xmlns="http://www.w3.org/2000/svg" xmlns:xlink="http://www.w3.org/1999/xlink" x="0px" y="0px"
	 width="184.643px" height="205.096px" viewBox="0 0 184.643 205.096" enable-background="new 0 0 184.643 205.096"
	 xml:space="preserve">
<g>
	<polygon fill="#A16627" points="0.038,100.658 0.001,100.57 0.087,100.521 118.294,0 119.149,112.857 184.643,186.352 
		148.097,200.854 52.54,205.095 26.259,190.368 	"/>
	<g>
		<g>
			<path fill="#9B6225" d="M52.54,205.095"/>
			<line fill="#A16627" x1="52.503" y1="205.095" x2="0.015" y2="100.738"/>
			<polygon fill="#B37129" points="0.001,100.57 92.829,205.095 52.54,205.095 			"/>
			<polygon fill="#A16627" points="67.067,76.801 0.001,100.57 92.829,205.095 			"/>
			<polygon fill="#A66928" points="67.067,76.801 118.294,0 92.829,205.095 92.829,205.095 			"/>
		</g>
		<g>
			<polygon fill="#B6732C" points="0.034,100.578 67.622,76.472 118.294,0 			"/>
		</g>
		<polygon fill="#9C6228" points="118.294,0 119.149,112.857 92.829,205.095 		"/>
		<polygon fill="#A66928" points="119.149,112.857 148.097,200.854 92.829,205.095 		"/>
		<polygon fill="#B37129" points="119.149,112.857 184.643,186.352 148.097,200.854 		"/>
	</g>
	<polygon fill="#A66928" points="0.034,100.578 26.259,190.368 52.54,205.095 	"/>
	<polygon fill="#A16627" points="52.54,205.095 148.097,200.854 92.829,205.095 	"/>
</g>
</svg>
