<?xml version="1.0" encoding="utf-8"?>
<!-- Generator: Adobe Illustrator 16.0.0, SVG Export Plug-In . SVG Version: 6.00 Build 0)  -->
<!DOCTYPE svg PUBLIC "-//W3C//DTD SVG 1.1//EN" "http://www.w3.org/Graphics/SVG/1.1/DTD/svg11.dtd">
<svg version="1.1" id="Layer_1" xmlns="http://www.w3.org/2000/svg" xmlns:xlink="http://www.w3.org/1999/xlink" x="0px" y="0px"
	 width="960px" height="384.001px" viewBox="0 0 960 384.001" enable-background="new 0 0 960 384.001" xml:space="preserve">
<g opacity="0.5">
	<polygon fill="#BD782A" points="800,223.99 757.115,245.605 960,320.002 	"/>
	<polygon fill="#B6732A" points="800,223.99 632.023,64.039 758.398,245.605 	"/>
	<polygon fill="#C47C2A" points="547.305,137.02 320,384.002 352,192.002 	"/>
	<polygon fill="#BD782A" points="320,384.002 216.217,180.373 352,192.002 	"/>
	<g>
		<polygon fill="#C47C2A" points="548.105,136.857 576,288.002 553.406,193.217 		"/>
		<g>
			<polygon fill="#BD782A" points="548.105,136.857 553.406,193.217 394.881,262.188 546.986,137.215 			"/>
			<polygon fill="#B6732A" points="546.986,137.215 394.881,262.188 320,384.002 			"/>
		</g>
	</g>
	<g>
		<polygon fill="#C47C2A" points="632.023,64.039 548.105,137.02 490.707,32 		"/>
		<polygon fill="#BD782A" points="352,192.002 490.707,32 548.105,137.02 548.105,137.02 		"/>
	</g>
	<g>
		<polygon fill="#B6732A" points="632.041,64 576.07,288.057 548.146,136.896 		"/>
		<g>
			<polygon fill="#C47C2A" points="960,320.002 672,248.018 758.365,245.203 			"/>
			<polygon fill="#BD782A" points="632.023,64.039 758.365,245.203 672,248.018 576.07,288.057 			"/>
		</g>
	</g>
	<polygon fill="#B6732A" points="216.217,180.373 181.539,223.402 320,384.002 	"/>
	<g>
		<polygon fill="#B6732A" points="832,128.002 797.256,222.701 795.033,221.672 769.629,0 		"/>
		<polygon fill="#BD782A" points="768,0.592 769.629,0 795.033,221.672 632.023,64.039 		"/>
	</g>
	<polygon fill="#C47C2A" points="320,384.002 50.896,169.426 181.539,223.402 	"/>
	<polygon fill="#BD782A" points="181.539,223.402 30.668,128.002 50.896,169.426 	"/>
	<polygon fill="#B6732A" points="50.896,169.426 0,188.051 30.668,128.002 	"/>
	<polygon fill="#C47C2A" points="50.896,169.426 65.83,199.936 0,188.051 	"/>
	<polygon fill="#B6732A" points="50.896,169.426 320,384.002 65.83,199.936 	"/>
</g>
</svg>
