<?xml version="1.0" encoding="utf-8"?>
<!-- Generator: Adobe Illustrator 16.0.0, SVG Export Plug-In . SVG Version: 6.00 Build 0)  -->
<!DOCTYPE svg PUBLIC "-//W3C//DTD SVG 1.1//EN" "http://www.w3.org/Graphics/SVG/1.1/DTD/svg11.dtd">
<svg version="1.1" id="Layer_1" xmlns="http://www.w3.org/2000/svg" xmlns:xlink="http://www.w3.org/1999/xlink" x="0px" y="0px"
	 width="1151.6px" height="688.698px" viewBox="0 0 1151.6 688.698" enable-background="new 0 0 1151.6 688.698"
	 xml:space="preserve">
<g>
	<polygon fill="#BB762A" points="1002.687,405.182 724.985,179.438 511.37,336.777 418.495,405.182 391.577,116.926 404.39,254.109 
		418.495,405.182 724.985,179.438 560.312,91.455 412.128,0 300.296,147.315 216.193,254.109 107.662,331.566 0,607.139 
		53.831,643.139 143.918,642.951 179.937,665.852 300.296,670.689 443.47,689.553 541.79,689.553 664.503,651.348 741.485,689.553 
		863.837,689.553 1066.042,689.553 1151.6,665.852 	"/>
	<g>
		<polygon fill="#C67D2A" points="107.662,331.566 0,607.139 53.831,643.139 		"/>
		<polygon fill="#AB6C29" points="107.662,331.566 143.918,642.951 53.831,643.139 		"/>
		<polygon fill="#B37129" points="143.918,642.951 107.662,331.566 216.193,254.109 179.937,665.852 		"/>
		<polygon fill="#B6732A" points="179.937,665.852 216.193,254.109 265.683,428.625 		"/>
		<polygon fill="#B37129" points="179.937,665.852 300.296,670.689 265.683,428.625 		"/>
		<polygon fill="#BB762A" points="216.193,254.109 300.296,147.315 265.683,428.625 		"/>
		<polygon fill="#B6732A" points="300.296,147.315 391.577,116.926 418.495,405.182 		"/>
		<polygon fill="#B37129" points="265.683,428.625 305.624,452.066 300.296,147.315 		"/>
		<polygon fill="#C67D2A" points="418.495,405.182 300.296,147.315 305.624,452.066 		"/>
		<polygon fill="#AB6C29" points="305.624,452.066 300.296,670.689 265.683,428.625 		"/>
		<polygon fill="#BB762A" points="305.624,452.066 443.47,689.553 418.495,405.182 		"/>
		<polygon fill="#AB6C29" points="305.624,452.066 300.296,670.689 443.47,689.553 		"/>
		<polygon fill="#C67D2A" points="391.577,116.926 412.128,0 560.312,91.455 404.39,254.109 		"/>
		<polygon fill="#BB762A" points="560.312,91.455 418.495,405.182 404.39,254.109 		"/>
		<polygon fill="#C67D2A" points="560.312,91.455 724.985,179.438 418.495,405.182 		"/>
		<polygon fill="#AB6C29" points="443.47,689.553 511.37,336.777 418.495,405.182 		"/>
		<polygon fill="#BB762A" points="511.37,336.777 664.503,651.348 541.79,689.553 		"/>
		<polygon fill="#B6732A" points="443.47,689.553 541.79,689.553 511.37,336.777 		"/>
		<polygon fill="#B6732A" points="664.503,651.348 633.665,463.127 511.37,336.777 		"/>
		<polygon fill="#B37129" points="633.665,463.127 724.985,179.438 511.37,336.777 		"/>
		<polygon fill="#C67D2A" points="724.985,179.438 1002.687,405.182 741.485,432.99 		"/>
		<polygon fill="#BB762A" points="633.665,463.127 698.073,508.162 724.985,179.438 		"/>
		<polygon fill="#B37129" points="698.073,508.162 724.985,179.438 741.485,432.99 		"/>
		<polygon fill="#AB6C29" points="741.485,432.99 741.485,689.553 664.503,651.348 698.073,508.162 		"/>
		<polygon fill="#B37129" points="633.665,463.127 664.503,651.348 698.073,508.162 		"/>
		<polygon fill="#B6732A" points="741.485,432.99 863.837,689.553 741.485,689.553 		"/>
		<polygon fill="#BB762A" points="863.837,689.553 1002.687,405.182 741.485,432.99 		"/>
		<polygon fill="#C67D2A" points="1002.687,405.182 1151.6,665.852 1066.042,689.553 		"/>
		<polygon fill="#AB6C29" points="1066.042,689.553 863.837,689.553 1002.687,405.182 		"/>
		<polygon fill="#BB762A" points="300.296,147.315 412.128,0 391.577,116.926 		"/>
	</g>
</g>
</svg>
