<?xml version="1.0" encoding="utf-8"?>
<!-- Generator: Adobe Illustrator 16.0.1, SVG Export Plug-In . SVG Version: 6.00 Build 0)  -->
<!DOCTYPE svg PUBLIC "-//W3C//DTD SVG 1.1//EN" "http://www.w3.org/Graphics/SVG/1.1/DTD/svg11.dtd">
<svg version="1.1" id="Layer_1" xmlns="http://www.w3.org/2000/svg" xmlns:xlink="http://www.w3.org/1999/xlink" x="0px" y="0px"
	 width="1500px" height="1500px" viewBox="0 0 1500 1500" enable-background="new 0 0 1500 1500" xml:space="preserve">
<g id="Mars">
	<g id="Planet__x2B__Rings">
		<g opacity="0.74">
			<g>
				<path fill="none" stroke="#E6E7E8" stroke-width="4" stroke-miterlimit="10" d="M303.385,743.47
					c-0.002-0.165-0.003-0.33-0.003-0.495"/>
				<path fill="none" stroke="#E6E7E8" stroke-width="4" stroke-miterlimit="10" stroke-dasharray="0.997,11.9645" d="
					M305.993,731.387c24.022-53.566,210.845-97.729,438.414-101.147c235.505-3.542,430.502,33.181,445.311,88.496"/>
				<path fill="none" stroke="#E6E7E8" stroke-width="4" stroke-miterlimit="10" d="M1190.606,724.645
					c0.005,0.165,0.01,0.33,0.012,0.495"/>
			</g>
		</g>
		<g opacity="0.74">
			<g>
				<path fill="none" stroke="#E6E7E8" stroke-width="4" stroke-miterlimit="10" d="M359.771,536.54
					c0.08-0.145,0.162-0.289,0.244-0.433"/>
				<path fill="none" stroke="#E6E7E8" stroke-width="4" stroke-miterlimit="10" stroke-dasharray="0.9966,11.9593" d="
					M368.039,527.356c47.887-34.88,235.611,18.886,439.168,128.295c210.598,113.194,361.306,244.641,346.514,300.332"/>
				<path fill="none" stroke="#E6E7E8" stroke-width="4" stroke-miterlimit="10" d="M1151.554,961.55
					c-0.077,0.146-0.155,0.291-0.235,0.436"/>
			</g>
		</g>
		<g>
			<defs>
				<path id="SVGID_1_" d="M542.985,752.153c0-112.247,92.206-203.241,205.946-203.241c113.745,0,205.95,90.994,205.95,203.241
					c0,112.251-92.205,203.241-205.95,203.241C635.19,955.394,542.985,864.404,542.985,752.153z"/>
			</defs>
			<clipPath id="SVGID_2_">
				<use xlink:href="#SVGID_1_"  overflow="visible"/>
			</clipPath>
			<path clip-path="url(#SVGID_2_)" fill="#894920" d="M544.938,752.153c0-111.183,91.332-201.314,203.994-201.314
				c112.667,0,203.997,90.131,203.997,201.314c0,111.187-91.331,201.314-203.997,201.314
				C636.269,953.467,544.938,863.339,544.938,752.153z"/>
			<polygon clip-path="url(#SVGID_2_)" fill="#2F2113" points="628,956 843.882,958.342 834.875,883.375 734.25,919.251 			"/>
			<polygon clip-path="url(#SVGID_2_)" fill="#473321" points="936.721,862.386 883.875,893.062 907.25,857.812 			"/>
			<polygon clip-path="url(#SVGID_2_)" fill="#8C5D3A" points="841.066,958.145 886.302,887.891 936.721,862.386 			"/>
			<polygon clip-path="url(#SVGID_2_)" fill="#624D36" points="972.23,761.528 936.721,862.386 904.875,858.562 			"/>
			<polygon clip-path="url(#SVGID_2_)" fill="#46442D" points="610.87,758.836 630.804,563.901 833.222,642.062 			"/>
			<polygon clip-path="url(#SVGID_2_)" fill="#6B6331" points="512.298,752.354 610.87,758.836 630.804,563.901 			"/>
			<path clip-path="url(#SVGID_2_)" fill="#26322C" d="M833.222,642.062"/>
			<line clip-path="url(#SVGID_2_)" fill="#736D2E" x1="512.298" y1="752.354" x2="610.87" y2="758.836"/>
			<polygon clip-path="url(#SVGID_2_)" fill="#292F32" points="630.804,563.901 891.559,581.691 833.222,642.062 			"/>
			<path clip-path="url(#SVGID_2_)" fill="#0B132D" d="M865.11,871.166"/>
			<g clip-path="url(#SVGID_2_)">
				<g>
					<path fill="#0B132D" d="M904.403,732.954c0.858,0,2.002-1.303,0.696-1.303C904.241,731.651,903.097,732.954,904.403,732.954
						L904.403,732.954z"/>
				</g>
			</g>
			<polygon clip-path="url(#SVGID_2_)" fill="#0D1321" points="833.222,642.062 891.559,581.691 969.916,761.113 			"/>
			<polygon clip-path="url(#SVGID_2_)" fill="#DB6B27" points="611.946,758.304 631.884,563.369 834.297,641.533 			"/>
			<polygon clip-path="url(#SVGID_2_)" fill="#984221" points="512.298,752.354 611.946,758.304 631.884,563.369 			"/>
			<path clip-path="url(#SVGID_2_)" fill="#47452B" d="M626.58,953.267"/>
			<polygon clip-path="url(#SVGID_2_)" fill="#5E3419" points="628,956 611.946,758.304 834.074,885.228 734.25,919.251 			"/>
			<path clip-path="url(#SVGID_2_)" fill="#26322C" d="M834.297,641.533"/>
			<polygon clip-path="url(#SVGID_2_)" fill="#894920" points="834.074,885.228 730.388,825.981 611.946,758.304 696.459,713.936 
				834.297,641.533 			"/>
			<polygon clip-path="url(#SVGID_2_)" fill="#9D5324" points="628,956 512.298,752.354 553.442,754.812 611.946,758.304 			"/>
			<polygon clip-path="url(#SVGID_2_)" fill="#D37E40" points="631.884,563.369 756.141,537.518 892.637,581.159 834.297,641.533 
							"/>
			<path clip-path="url(#SVGID_2_)" fill="#0B132D" d="M866.186,870.642"/>
			<polygon clip-path="url(#SVGID_2_)" fill="#603E1F" points="843.882,958.342 834.074,885.228 970.99,760.585 907.787,858.917 
				888.688,888.688 			"/>
			<g clip-path="url(#SVGID_2_)">
				<g>
					<path fill="#0B132D" d="M905.482,732.421c0.858,0,2.002-1.303,0.696-1.303C905.32,731.119,904.176,732.421,905.482,732.421
						L905.482,732.421z"/>
				</g>
			</g>
			<polygon clip-path="url(#SVGID_2_)" fill="#39281B" points="834.074,885.228 834.297,641.533 970.99,760.585 			"/>
			<polygon clip-path="url(#SVGID_2_)" fill="#E78439" points="834.297,641.533 892.637,581.159 970.99,760.585 			"/>
			<polygon clip-path="url(#SVGID_2_)" fill="#442F24" points="843.452,958.942 731.246,976.362 734.25,919.251 			"/>
			<polygon clip-path="url(#SVGID_2_)" fill="#613815" points="731.246,976.362 628,956 734.25,919.251 			"/>
			<polygon clip-path="url(#SVGID_2_)" fill="#F0994D" points="756.141,537.518 834.297,641.533 892.769,581.052 			"/>
			<polygon clip-path="url(#SVGID_2_)" fill="#482C1D" points="834.074,885.228 809.994,775.715 828.759,672.112 834.297,641.533 
							"/>
			<polygon clip-path="url(#SVGID_2_)" fill="#D36027" points="621.832,889.575 673.409,859.361 730.388,825.981 611.946,758.304 
							"/>
			<polygon clip-path="url(#SVGID_2_)" fill="#AA5125" points="628,956 621.832,889.575 673.409,859.361 			"/>
			<polygon clip-path="url(#SVGID_2_)" fill="#7F431D" points="673.409,859.361 734.25,919.251 628,956 			"/>
			<polygon clip-path="url(#SVGID_2_)" fill="#8B401E" points="673.409,859.361 661.958,848.598 621.832,889.575 			"/>
			<polygon clip-path="url(#SVGID_2_)" fill="#6E3B17" points="661.958,848.598 611.946,758.304 621.832,889.575 			"/>
			<polygon clip-path="url(#SVGID_2_)" fill="#9A5529" points="661.958,848.598 689.241,802.487 673.409,859.361 			"/>
			<polygon clip-path="url(#SVGID_2_)" fill="#974D22" points="661.958,848.598 689.241,802.487 629.39,790.154 			"/>
			<polygon clip-path="url(#SVGID_2_)" fill="#904B21" points="621.832,889.575 592.28,856.44 611.946,758.304 			"/>
			<path clip-path="url(#SVGID_2_)" fill="#32311A" d="M625.541,954.757"/>
			<polygon clip-path="url(#SVGID_2_)" fill="#624D36" points="621.832,889.575 628,956 594.835,847.471 			"/>
			<polygon clip-path="url(#SVGID_2_)" fill="#39281B" points="628,956 550.167,852.871 594.835,847.471 			"/>
			<polygon clip-path="url(#SVGID_2_)" fill="#DB6B27" points="512.298,752.354 550.167,852.871 564.83,854.614 			"/>
			<polygon clip-path="url(#SVGID_2_)" fill="#703616" points="594.835,847.471 564.83,854.614 553.442,754.812 			"/>
			<polygon clip-path="url(#SVGID_2_)" fill="#7D411E" points="553.442,754.812 512.298,752.354 564.83,854.614 			"/>
			<polygon clip-path="url(#SVGID_2_)" fill="#82331B" points="512.298,752.354 555.071,646.453 573.872,679.661 			"/>
			<polygon clip-path="url(#SVGID_2_)" fill="#652C13" points="630.744,564.754 554.396,647.122 573.872,679.661 			"/>
			<polygon clip-path="url(#SVGID_2_)" fill="#452F1E" points="972.23,761.528 927.267,801.578 949.92,743.986 			"/>
			<polygon clip-path="url(#SVGID_2_)" fill="#654128" points="907.787,858.917 927.267,801.578 972.23,761.528 			"/>
			<polygon clip-path="url(#SVGID_2_)" fill="#493317" points="907.787,858.917 887.954,835.525 927.267,801.578 			"/>
			<polygon clip-path="url(#SVGID_2_)" fill="#CE6C28" points="972.23,761.528 972.262,730.994 956.257,728.59 			"/>
			<polygon clip-path="url(#SVGID_2_)" fill="#A76533" points="949.92,743.986 956.257,728.59 972.23,761.528 			"/>
			<polygon clip-path="url(#SVGID_2_)" fill="#6C451B" points="956.257,728.59 951.726,684.385 972.262,730.994 			"/>
			<polygon clip-path="url(#SVGID_2_)" fill="#EC9C54" points="892.769,581.052 951.726,684.385 935.719,681.312 			"/>
			<polygon clip-path="url(#SVGID_2_)" fill="#EA8432" points="956.257,728.59 910.227,708.903 951.726,684.385 			"/>
			<polygon clip-path="url(#SVGID_2_)" fill="#614328" points="935.719,681.312 910.227,708.903 951.726,684.385 			"/>
			<polygon clip-path="url(#SVGID_2_)" fill="#C07F48" points="927.267,801.578 910.227,708.903 949.92,743.986 			"/>
			<polygon clip-path="url(#SVGID_2_)" fill="#80491E" points="949.92,743.986 956.257,728.59 910.227,708.903 			"/>
			<g clip-path="url(#SVGID_2_)">
				<g>
					<path fill="#6A6230" d="M1009.56,753.802c1.128,0,1.462-1.48,0.154-1.48C1008.586,752.321,1008.252,753.802,1009.56,753.802
						L1009.56,753.802z"/>
				</g>
			</g>
			<polygon clip-path="url(#SVGID_2_)" fill="#B97036" points="834.297,641.533 773.861,673.205 828.759,672.112 			"/>
			<polygon clip-path="url(#SVGID_2_)" fill="#D47C28" points="773.861,673.205 719.767,597.22 834.297,641.533 			"/>
			<polygon clip-path="url(#SVGID_2_)" fill="#F79745" points="631.884,563.369 730.533,591.039 834.297,641.533 			"/>
			<polygon clip-path="url(#SVGID_2_)" fill="#A94F25" points="553.442,754.812 618.579,694.945 611.946,758.304 			"/>
			<polygon clip-path="url(#SVGID_2_)" fill="#512D13" points="573.872,679.661 553.442,754.812 512.298,752.354 			"/>
			<polygon clip-path="url(#SVGID_2_)" fill="#652C13" points="611.946,758.304 604.663,666.823 632.3,562.456 			"/>
			<polygon clip-path="url(#SVGID_2_)" fill="#D35827" points="604.663,666.823 618.579,694.945 573.872,679.661 			"/>
			<polygon clip-path="url(#SVGID_2_)" fill="#B97036" points="756.141,537.518 730.533,591.039 834.297,641.533 			"/>
			<polygon clip-path="url(#SVGID_2_)" fill="#9A5529" points="809.994,775.715 611.946,758.304 730.388,825.981 			"/>
			<polygon clip-path="url(#SVGID_2_)" fill="#DB6B27" points="809.994,775.715 828.759,672.112 773.861,673.205 			"/>
			<polygon clip-path="url(#SVGID_2_)" fill="#984221" points="696.459,713.936 632.3,562.456 611.946,758.304 			"/>
		</g>
		<g opacity="0.74">
			<g>
				<path fill="none" stroke="#E6E7E8" stroke-width="4" stroke-miterlimit="10" d="M1149.738,967.776
					c-0.08,0.145-0.162,0.289-0.244,0.433"/>
				<path fill="none" stroke="#E6E7E8" stroke-width="4" stroke-miterlimit="10" stroke-dasharray="0.9966,11.9592" d="
					M1141.471,976.96c-47.889,34.879-235.613-18.889-439.17-128.299C491.708,735.471,341.002,604.026,355.79,548.338"/>
				<path fill="none" stroke="#E6E7E8" stroke-width="4" stroke-miterlimit="10" d="M357.956,542.771
					c0.077-0.146,0.155-0.291,0.235-0.436"/>
			</g>
		</g>
		<g opacity="0.74">
			<g>
				<path fill="none" stroke="#E6E7E8" stroke-width="4" stroke-miterlimit="10" d="M1190.203,735.98
					c0.002,0.165,0.003,0.33,0.003,0.495"/>
				<path fill="none" stroke="#E6E7E8" stroke-width="4" stroke-miterlimit="10" stroke-dasharray="0.994,11.9286" d="
					M1187.61,748.031c-23.958,53.581-210.813,97.758-438.429,101.182c-235.521,3.537-427.941-32.355-442.538-87.62"/>
				<path fill="none" stroke="#E6E7E8" stroke-width="4" stroke-miterlimit="10" d="M305.769,755.699
					c-0.005-0.165-0.01-0.33-0.012-0.495"/>
			</g>
		</g>
	</g>
</g>
</svg>
