<?xml version="1.0" encoding="utf-8"?>
<!-- Generator: Adobe Illustrator 16.0.0, SVG Export Plug-In . SVG Version: 6.00 Build 0)  -->
<!DOCTYPE svg PUBLIC "-//W3C//DTD SVG 1.1//EN" "http://www.w3.org/Graphics/SVG/1.1/DTD/svg11.dtd">
<svg version="1.1" id="Layer_1" xmlns="http://www.w3.org/2000/svg" xmlns:xlink="http://www.w3.org/1999/xlink" x="0px" y="0px"
	 width="752.413px" height="233.154px" viewBox="0 0 752.413 233.154" enable-background="new 0 0 752.413 233.154"
	 xml:space="preserve">
<g opacity="0.5">
	<g>
		<g>
			<g>
				<polygon fill="#B27029" points="574.334,211.716 521.421,177.509 423.886,233.154 				"/>
				<polygon fill="#BD782A" points="423.886,233.154 391.543,212.737 521.421,177.509 				"/>
				<polygon fill="#C47C2A" points="423.886,233.154 274.652,165.266 391.543,212.737 				"/>
				<polygon fill="#B6732A" points="574.334,211.716 568.903,76.912 521.421,177.509 				"/>
				<polygon fill="#B27029" points="568.903,76.912 531.334,122.716 391.543,212.737 521.421,177.509 				"/>
				<polygon fill="#B6732A" points="391.589,212.786 528.548,124.496 372.672,186.454 274.605,165.297 				"/>
				<polygon fill="#BD782A" points="568.903,76.912 534.862,22.812 531.334,122.716 				"/>
				<polygon fill="#BD782A" points="532.709,122.841 289.34,136.703 372.464,186.828 				"/>
				<polygon fill="#C47C2A" points="372.505,186.704 274.58,165.295 289.139,136.389 				"/>
				<polygon fill="#B6732A" points="529.422,123.871 362.027,80.396 289.473,136.638 				"/>
				<polygon fill="#B27029" points="574.334,211.716 639.477,120.944 568.903,76.912 				"/>
				<polygon fill="#BD782A" points="639.477,120.944 633.356,87.292 568.903,76.912 				"/>
				<polygon fill="#C47C2A" points="633.356,87.292 534.862,22.812 568.903,76.912 				"/>
				<polygon fill="#B6732A" points="633.356,87.292 534.862,22.812 658.956,0.184 				"/>
				<polygon fill="#BD782A" points="633.356,87.292 699.439,56.393 658.956,0.184 				"/>
				<polygon fill="#B27029" points="699.439,56.393 633.356,87.292 716.562,89.373 				"/>
				<polygon fill="#B6732A" points="658.696,0 752.413,73.759 716.562,89.373 699.439,56.393 				"/>
				<polygon fill="#C47C2A" points="752.413,73.759 716.904,143.638 716.562,89.373 				"/>
				<polygon fill="#B6732A" points="716.562,89.373 706.22,113.004 716.904,143.638 				"/>
				<polygon fill="#BD782A" points="716.904,143.638 672.175,88.22 706.269,113.003 				"/>
				<polygon fill="#C47C2A" points="289.473,136.638 137.215,141.106 362.027,80.396 				"/>
				<polygon fill="#B27029" points="672.175,88.22 716.562,89.373 706.269,113.003 				"/>
				<polygon fill="#C47C2A" points="688.135,88.68 672.175,88.22 716.562,89.373 				"/>
			</g>
		</g>
		<polygon fill="#B6732A" points="274.58,165.295 289.473,136.638 137.215,141.106 		"/>
		<polygon fill="#B27029" points="274.58,165.295 125.339,162.703 137.215,141.106 		"/>
		<polygon fill="#BD782A" points="219.006,164.036 51.339,182.203 125.339,162.703 		"/>
		<polygon fill="#C47C2A" points="51.339,182.203 2.006,212.036 183.172,167.87 		"/>
	</g>
</g>
</svg>
