<?xml version="1.0" encoding="utf-8"?>
<!-- Generator: Adobe Illustrator 16.0.0, SVG Export Plug-In . SVG Version: 6.00 Build 0)  -->
<!DOCTYPE svg PUBLIC "-//W3C//DTD SVG 1.1//EN" "http://www.w3.org/Graphics/SVG/1.1/DTD/svg11.dtd">
<svg version="1.1" id="Layer_1" xmlns="http://www.w3.org/2000/svg" xmlns:xlink="http://www.w3.org/1999/xlink" x="0px" y="0px"
	 width="1500px" height="1500px" viewBox="0 0 1500 1500" enable-background="new 0 0 1500 1500" xml:space="preserve">
<g id="Mars">
	<g id="BG_2_">
		<defs>
			<path id="SVGID_1_" d="M519.781,498.586c-18.186-5.817-38.612,1.551-48.416,18.604c-1.725,2.998-3.016,6.125-3.902,9.3
				c-3.295,2.414-6.143,5.526-8.302,9.269c-8.27,14.393-3.16,32.676,11.424,40.839c9.281,5.199,20.157,5.042,28.972,0.531
				c16.791,3.112,34.459-4.389,43.366-19.872c0.801-1.4,1.512-2.831,2.131-4.275c5.061-2.572,9.447-6.581,12.465-11.829
				c8.275-14.392,3.161-32.672-11.419-40.838C537.731,495.629,528.065,495.298,519.781,498.586z"/>
		</defs>
		<clipPath id="SVGID_2_">
			<use xlink:href="#SVGID_1_"  overflow="visible"/>
		</clipPath>
		<polygon clip-path="url(#SVGID_2_)" fill="#46442D" points="540.611,537.574 537.813,587.091 485.725,569.596 		"/>
		<polygon clip-path="url(#SVGID_2_)" fill="#6B6331" points="565.879,537.963 540.611,537.574 537.813,587.091 		"/>
		<path clip-path="url(#SVGID_2_)" fill="#47452B" d="M534.661,488.433"/>
		<polygon clip-path="url(#SVGID_2_)" fill="#47452B" points="540.611,537.574 482.974,507.969 534.661,488.433 		"/>
		<polygon clip-path="url(#SVGID_2_)" fill="#26322C" points="482.974,507.969 540.611,537.574 485.725,569.596 		"/>
		<polygon clip-path="url(#SVGID_2_)" fill="#26322C" points="534.661,488.433 479.649,489.59 482.974,507.969 		"/>
		<line clip-path="url(#SVGID_2_)" fill="#736D2E" x1="565.879" y1="537.963" x2="540.611" y2="537.574"/>
		<polygon clip-path="url(#SVGID_2_)" fill="#292F32" points="537.813,587.091 471.669,585.52 485.725,569.596 		"/>
		<path clip-path="url(#SVGID_2_)" fill="#0B132D" d="M475.019,512.018"/>
		<polygon clip-path="url(#SVGID_2_)" fill="#0B132D" points="479.649,489.59 482.974,507.969 449.785,541.023 		"/>
		<g clip-path="url(#SVGID_2_)">
			<g>
				<path fill="#0B132D" d="M466.249,548.232c0.858,0,2.002-1.303,0.696-1.303C466.087,546.929,464.942,548.232,466.249,548.232
					L466.249,548.232z"/>
			</g>
		</g>
		<polygon clip-path="url(#SVGID_2_)" fill="#0D1225" points="482.974,507.969 485.725,569.596 449.785,541.023 		"/>
		<polygon clip-path="url(#SVGID_2_)" fill="#0D1321" points="485.725,569.596 471.669,585.52 449.785,541.023 		"/>
		<line clip-path="url(#SVGID_2_)" fill="#8E8239" x1="537.731" y1="514.182" x2="534.583" y2="488.392"/>
		<polygon clip-path="url(#SVGID_2_)" fill="#B4B0A6" points="540.345,537.72 537.547,587.241 485.459,569.745 		"/>
		<polygon clip-path="url(#SVGID_2_)" fill="#50514B" points="565.612,538.106 540.345,537.72 537.547,587.241 		"/>
		<path clip-path="url(#SVGID_2_)" fill="#47452B" d="M534.395,488.578"/>
		<polygon clip-path="url(#SVGID_2_)" fill="#B9B1A4" points="540.345,537.72 482.708,508.116 534.395,488.578 		"/>
		<path clip-path="url(#SVGID_2_)" fill="#26322C" d="M485.459,569.745"/>
		<polygon clip-path="url(#SVGID_2_)" fill="#4D4D3F" points="482.708,508.116 540.345,537.72 485.459,569.745 		"/>
		<polygon clip-path="url(#SVGID_2_)" fill="#D0C8BD" points="534.395,488.578 479.384,489.735 482.708,508.116 		"/>
		<polygon clip-path="url(#SVGID_2_)" fill="#6E6C67" points="534.395,488.578 565.612,538.106 540.345,537.72 		"/>
		<polygon clip-path="url(#SVGID_2_)" fill="#E1DAD0" points="537.547,587.241 506.425,595.17 471.403,585.669 485.459,569.745 		
			"/>
		<path clip-path="url(#SVGID_2_)" fill="#0B132D" d="M474.756,512.163"/>
		<polygon clip-path="url(#SVGID_2_)" fill="#B8B4AA" points="479.649,489.59 482.974,507.969 449.785,541.023 		"/>
		<g clip-path="url(#SVGID_2_)">
			<g>
				<path fill="#0B132D" d="M465.983,548.376c0.857,0,2.002-1.303,0.696-1.303C465.822,547.074,464.677,548.376,465.983,548.376
					L465.983,548.376z"/>
			</g>
		</g>
		<polygon clip-path="url(#SVGID_2_)" fill="#413B34" points="482.708,508.116 485.459,569.745 449.519,541.171 		"/>
		<polygon clip-path="url(#SVGID_2_)" fill="#B4B1A0" points="485.81,569.854 471.403,585.669 449.519,541.171 		"/>
		<line clip-path="url(#SVGID_2_)" fill="#8E8239" x1="537.466" y1="514.327" x2="534.318" y2="488.541"/>
		<polygon clip-path="url(#SVGID_2_)" fill="#B2A295" points="479.485,489.58 507.663,483.915 507.879,498.669 		"/>
		<polygon clip-path="url(#SVGID_2_)" fill="#DED8CE" points="507.663,483.915 534.726,488.49 507.639,498.714 		"/>
		<polygon clip-path="url(#SVGID_2_)" fill="#777964" points="506.425,595.17 485.88,569.754 471.373,585.695 		"/>
		<polygon clip-path="url(#SVGID_2_)" fill="#A9A198" points="483.058,508.108 490.408,535.532 479.797,530.758 		"/>
		<polygon clip-path="url(#SVGID_2_)" fill="#5B5655" points="536.329,504.632 509.597,521.977 540.43,537.723 		"/>
		<polygon clip-path="url(#SVGID_2_)" fill="#787975" points="534.726,488.49 536.329,504.632 523.75,512.917 		"/>
		<g clip-path="url(#SVGID_2_)">
			<g>
				<path fill="#5B622B" d="M518.896,519.077c0.596,0,2.098-0.902,0.804-0.902C519.104,518.174,517.602,519.077,518.896,519.077
					L518.896,519.077z"/>
			</g>
		</g>
		<polygon clip-path="url(#SVGID_2_)" fill="#4A4944" points="536.329,504.632 543.645,514.978 540.43,537.723 		"/>
		<path clip-path="url(#SVGID_2_)" fill="#32311A" d="M534.64,488.187"/>
		<path clip-path="url(#SVGID_2_)" fill="#38371F" d="M534.726,488.49"/>
		<polygon clip-path="url(#SVGID_2_)" fill="#CFCBC3" points="534.64,488.187 554.876,513.11 543.645,514.978 		"/>
		<polygon clip-path="url(#SVGID_2_)" fill="#C5C4BB" points="477.681,589.084 505.007,593.127 507.227,590.162 		"/>
		<polygon clip-path="url(#SVGID_2_)" fill="#33312C" points="483.604,580.23 477.971,589.137 507.227,590.162 		"/>
		<polygon clip-path="url(#SVGID_2_)" fill="#31302A" points="477.681,589.084 459.567,566.274 469.322,566.339 		"/>
		<polygon clip-path="url(#SVGID_2_)" fill="#313228" points="537.821,586.878 556.179,565.191 550.878,557.18 		"/>
		<polygon clip-path="url(#SVGID_2_)" fill="#4E4A3F" points="449.195,540.949 460.101,530.313 455.038,545.131 		"/>
		<polygon clip-path="url(#SVGID_2_)" fill="#958B82" points="449.195,540.949 457.012,515.043 464.438,515.435 		"/>
		<polygon clip-path="url(#SVGID_2_)" fill="#6C625A" points="464.438,515.435 460.101,530.313 449.195,540.949 		"/>
		<polygon clip-path="url(#SVGID_2_)" fill="#CCC5B6" points="457.012,515.043 468.808,507.937 464.438,515.435 		"/>
		<polygon clip-path="url(#SVGID_2_)" fill="#877A71" points="449.195,540.949 449.538,548.668 453.611,549.095 		"/>
		<polygon clip-path="url(#SVGID_2_)" fill="#A39D95" points="479.485,489.58 468.808,507.937 457.012,515.043 		"/>
		<polygon clip-path="url(#SVGID_2_)" fill="#3E352D" points="453.611,549.095 455.269,560.224 449.538,548.668 		"/>
		<polygon clip-path="url(#SVGID_2_)" fill="#9D968F" points="471.373,585.695 455.269,560.224 459.352,560.82 		"/>
		<polygon clip-path="url(#SVGID_2_)" fill="#B2ADA0" points="453.611,549.095 465.928,554.493 455.269,560.224 		"/>
		<polygon clip-path="url(#SVGID_2_)" fill="#D0C9BC" points="485.725,569.596 500.378,561.057 487.967,561.931 		"/>
		<polygon clip-path="url(#SVGID_2_)" fill="#939387" points="500.378,561.057 514.93,579.667 485.725,569.596 		"/>
		<polygon clip-path="url(#SVGID_2_)" fill="#8C9483" points="537.547,587.241 512.28,581.348 485.725,569.596 		"/>
		<polygon clip-path="url(#SVGID_2_)" fill="#363636" points="555.192,537.853 539.396,553.814 540.354,537.578 		"/>
		<polygon clip-path="url(#SVGID_2_)" fill="#282922" points="540.33,537.464 550.878,557.18 537.455,587.475 		"/>
		<polygon clip-path="url(#SVGID_2_)" fill="#BCB8A7" points="506.425,595.17 512.28,581.348 485.725,569.596 		"/>
		<polygon clip-path="url(#SVGID_2_)" fill="#5B5E47" points="519.483,549.886 537.455,587.475 540.345,537.72 		"/>
		<path clip-path="url(#SVGID_2_)" fill="#26322C" d="M456.604,569.615"/>
		<polygon clip-path="url(#SVGID_2_)" fill="#D5CFC1" points="463.506,558.635 458.708,564.393 454.395,558.216 457.271,553.651 
			461.517,552.662 		"/>
		<polygon clip-path="url(#SVGID_2_)" fill="#D0C8BD" points="461.517,552.662 457.242,553.683 464.828,544.599 		"/>
		<polygon clip-path="url(#SVGID_2_)" fill="#93897F" points="468.754,538.84 474.987,541.009 475.627,543.652 465.148,544.033 		
			"/>
		<polygon clip-path="url(#SVGID_2_)" fill="#E4E4EC" points="471.233,534.117 468.754,538.84 475.052,541.062 472.987,533.104 		
			"/>
		<polygon clip-path="url(#SVGID_2_)" fill="#F4EFE0" points="475.658,543.351 480.938,550.114 490.704,546.265 		"/>
		<polygon clip-path="url(#SVGID_2_)" fill="#E4E4EC" points="480.938,550.114 474.84,561.181 490.669,546.28 		"/>
		<polygon clip-path="url(#SVGID_2_)" fill="#D8D7DB" points="474.84,561.181 487.833,562.004 490.288,553.236 490.704,546.265 		
			"/>
		<polyline clip-path="url(#SVGID_2_)" fill="#EAE2CB" points="479.797,530.758 490.408,535.532 490.704,546.265 475.627,543.652 
			472.987,533.104 		"/>
		<polygon clip-path="url(#SVGID_2_)" fill="#EAEAEA" points="465.148,544.033 463.521,558.69 461.517,552.662 		"/>
		<path clip-path="url(#SVGID_2_)" fill="#26322C" d="M487.483,566.13"/>
		<polygon clip-path="url(#SVGID_2_)" fill="#B3AE9D" points="506.263,566.324 487.833,562.004 496.5,551.698 		"/>
		<polygon clip-path="url(#SVGID_2_)" fill="#ABAE9F" points="493.917,543.933 490.408,535.532 498.67,532.627 		"/>
		<polygon clip-path="url(#SVGID_2_)" fill="#413B34" points="494.057,513.989 511.567,528.663 512.399,532.125 498.67,532.627 		
			"/>
		<polygon clip-path="url(#SVGID_2_)" fill="#555748" points="496.543,551.822 506.263,566.324 519.483,549.886 		"/>
		<polygon clip-path="url(#SVGID_2_)" fill="#EAE2CB" points="534.271,534.924 519.483,549.886 512.399,532.125 509.816,521.707 
			520.87,535.272 		"/>
		<polygon clip-path="url(#SVGID_2_)" fill="#EAEAEA" points="498.67,532.627 496.543,551.822 493.917,543.933 		"/>
		<polygon clip-path="url(#SVGID_2_)" fill="#E4E4EC" points="550.239,513.968 554.876,513.11 561.076,531.231 		"/>
		<polygon clip-path="url(#SVGID_2_)" fill="#EAE2CB" points="554.876,513.11 581.869,520.623 561.076,531.231 		"/>
		<polygon clip-path="url(#SVGID_2_)" fill="#5B5655" points="558.949,514.081 543.375,498.972 554.876,513.11 		"/>
		<polygon clip-path="url(#SVGID_2_)" fill="#787975" points="543.375,498.972 574.512,502.233 558.505,514.019 		"/>
	</g>
</g>
</svg>
