<?xml version="1.0" encoding="utf-8"?>
<!-- Generator: Adobe Illustrator 16.0.0, SVG Export Plug-In . SVG Version: 6.00 Build 0)  -->
<!DOCTYPE svg PUBLIC "-//W3C//DTD SVG 1.1//EN" "http://www.w3.org/Graphics/SVG/1.1/DTD/svg11.dtd">
<svg version="1.1" id="Layer_1" xmlns="http://www.w3.org/2000/svg" xmlns:xlink="http://www.w3.org/1999/xlink" x="0px" y="0px"
	 width="1083.5px" height="288px" viewBox="0 0 1083.5 288" enable-background="new 0 0 1083.5 288" xml:space="preserve">
<g opacity="0.5">
	<g>
		<g>
			<polygon fill="#BD782A" points="262.249,127.5 298.884,149.614 95.499,194.5 			"/>
			<polygon fill="#B6732A" points="261.499,127.75 409.517,128.038 297.601,149.614 			"/>
			<polygon fill="#C47C2A" points="520.696,23.044 828.104,198.427 763.499,96 			"/>
			<polygon fill="#BD782A" points="828.104,198.427 827.499,128 763.499,96 			"/>
			<g>
				<polygon fill="#C47C2A" points="519.894,22.883 405.188,212.158 534.593,62.761 				"/>
				<g>
					<polygon fill="#BD782A" points="519.894,22.883 534.593,62.761 693.118,156.973 521.015,22 					"/>
					<polygon fill="#B6732A" points="521.015,22 693.118,156.973 828.104,198.427 					"/>
				</g>
			</g>
			<g>
				<polygon fill="#C47C2A" points="409.517,128.038 519.894,23.045 597.294,0 				"/>
				<polygon fill="#BD782A" points="763.499,96 597.294,0 519.894,23.045 519.894,23.045 				"/>
			</g>
			<g>
				<polygon fill="#B6732A" points="409.499,128 405.118,212.213 519.853,22.922 				"/>
				<g>
					<polygon fill="#C47C2A" points="93.249,195 347.312,159 297.634,149.213 					"/>
					<polygon fill="#BD782A" points="409.517,128.038 297.634,149.213 347.312,159 405.118,212.213 					"/>
				</g>
			</g>
			<polygon fill="#B6732A" points="827.499,128 987.499,119.325 828.104,198.427 			"/>
			<g>
				<polygon fill="#B6732A" points="-0.001,288 94.644,194.986 262.999,127.5 260.966,128 57.87,160 				"/>
				<polygon fill="#BD782A" points="59.499,160.591 57.87,160 260.749,128.25 409.517,128.038 				"/>
			</g>
			<polygon fill="#C47C2A" points="828.104,198.427 1019.499,129.491 987.499,119.325 			"/>
			<polygon fill="#BD782A" points="987.499,119.325 1074.499,95 1019.499,129.491 			"/>
			<polygon fill="#B6732A" points="1019.499,129.491 1083.499,128 1074.499,95 			"/>
			<polygon fill="#C47C2A" points="1019.499,129.491 1037.565,153 1083.499,128 			"/>
			<polygon fill="#B6732A" points="1019.499,129.491 998.64,136.235 1037.565,153 			"/>
		</g>
	</g>
</g>
</svg>
