<?xml version="1.0" encoding="utf-8"?>
<!-- Generator: Adobe Illustrator 16.0.0, SVG Export Plug-In . SVG Version: 6.00 Build 0)  -->
<!DOCTYPE svg PUBLIC "-//W3C//DTD SVG 1.1//EN" "http://www.w3.org/Graphics/SVG/1.1/DTD/svg11.dtd">
<svg version="1.1" id="Layer_1" xmlns="http://www.w3.org/2000/svg" xmlns:xlink="http://www.w3.org/1999/xlink" x="0px" y="0px"
	 width="1195.496px" height="501.924px" viewBox="0 0 1195.496 501.924" enable-background="new 0 0 1195.496 501.924"
	 xml:space="preserve">
<g opacity="0.5">
	<g>
		<polygon fill="#B27029" points="694.875,345.352 655.225,345.647 694.295,501.924 		"/>
		<polygon fill="#BD782A" points="694.295,501.924 651.873,426.563 655.225,345.647 		"/>
		<polygon fill="#C47C2A" points="694.295,501.924 456.916,384.719 651.873,426.563 		"/>
		<polygon fill="#B6732A" points="694.875,345.352 786.604,251.393 655.225,345.647 		"/>
		<polygon fill="#B27029" points="786.604,251.393 468.87,189.369 651.873,426.563 655.225,345.647 		"/>
		<polygon fill="#B6732A" points="651.873,426.563 468.87,189.369 456.916,384.719 		"/>
		<polygon fill="#BD782A" points="786.604,251.393 857.461,189.369 468.87,189.369 		"/>
		<polygon fill="#BD782A" points="468.87,189.369 192.271,423.786 459.879,345.647 		"/>
		<polygon fill="#C47C2A" points="459.879,345.647 456.916,384.719 192.271,423.786 		"/>
		<polygon fill="#B6732A" points="468.87,189.369 394.923,312.056 192.271,423.786 		"/>
		<polygon fill="#B27029" points="192.271,423.786 -8.951,384.719 121.441,390.196 		"/>
		<polygon fill="#B27029" points="694.875,345.352 1005.38,212.185 786.604,251.393 		"/>
		<polygon fill="#BD782A" points="1005.38,212.185 1001.068,118.871 786.604,251.393 		"/>
		<polygon fill="#C47C2A" points="1001.068,118.871 857.461,189.369 786.604,251.393 		"/>
		<polygon fill="#B6732A" points="1001.068,118.871 857.461,189.369 964.605,14.189 		"/>
		<polygon fill="#BD782A" points="1001.068,118.871 1044.734,41.243 964.605,14.189 		"/>
		<polygon fill="#B27029" points="1044.734,41.243 1001.068,118.871 1085.166,61.827 		"/>
		<polygon fill="#B6732A" points="964.217,14.192 1109.672,20.854 1085.166,61.827 1044.734,41.243 		"/>
		<polygon fill="#C47C2A" points="1109.672,20.854 1195.496,150.3 1085.166,61.827 		"/>
		<polygon fill="#B6732A" points="1085.166,61.827 1163.125,127.472 1195.496,150.3 		"/>
		<polygon fill="#BD782A" points="1195.496,150.3 1040.272,92.214 1163.172,127.437 		"/>
		<polygon fill="#B27029" points="1040.272,92.214 1085.166,61.827 1163.172,127.437 		"/>
		<polygon fill="#C47C2A" points="1056.447,81.333 1040.272,92.214 1085.166,61.827 		"/>
		<g>
			<polygon fill="#B6732A" points="296.912,340.028 186.395,420.848 121.353,390.134 			"/>
			<polygon fill="#C47C2A" points="394.923,312.056 192.271,423.786 186.395,420.848 296.912,340.028 			"/>
		</g>
	</g>
</g>
</svg>
