<?xml version="1.0" encoding="utf-8"?>
<!-- Generator: Adobe Illustrator 16.0.0, SVG Export Plug-In . SVG Version: 6.00 Build 0)  -->
<!DOCTYPE svg PUBLIC "-//W3C//DTD SVG 1.1//EN" "http://www.w3.org/Graphics/SVG/1.1/DTD/svg11.dtd">
<svg version="1.1" id="Layer_1" xmlns="http://www.w3.org/2000/svg" xmlns:xlink="http://www.w3.org/1999/xlink" x="0px" y="0px"
	 width="696px" height="488.22px" viewBox="0 0 696 488.22" enable-background="new 0 0 696 488.22" xml:space="preserve">
<g>
	<path fill="#A16627" d="M591.42,232.648l-73.799,16.831l-76.48-105.182L404.321,29.22L318.365,0L219.13,112.962L66,231.46
		L0,462.326l106.099,25.894h459.618L696,463.826L591.42,232.648z M319.07,224.809l8.201-46.259l-16.697,94.195L319.07,224.809z"/>
	<g>
		<polygon fill="#AE6E29" points="441.141,144.298 517.621,249.479 421.666,360.434 		"/>
		<polygon fill="#965E26" points="404.321,29.22 441.141,144.298 421.666,360.434 		"/>
		<polygon fill="#AE6E29" points="517.621,249.479 591.42,232.648 421.666,360.434 		"/>
		<polygon fill="#A16627" points="591.42,232.648 565.717,488.22 421.666,360.434 		"/>
		<polygon fill="#965E26" points="591.42,232.648 696,463.826 565.717,488.22 		"/>
		<polygon fill="#A16627" points="404.321,29.22 318.365,0 327.271,178.55 421.666,360.434 		"/>
		<polygon fill="#9A6126" points="421.666,360.434 106.099,488.22 565.717,488.22 		"/>
		<polygon fill="#A66928" points="421.666,360.434 327.271,178.55 252,307.383 		"/>
		<polygon fill="#AE6E29" points="318.365,0 219.13,112.962 327.271,178.55 		"/>
		<polygon fill="#A16627" points="327.271,178.55 219.13,112.962 244.158,207.769 319.07,257.576 		"/>
		<polygon fill="#965E26" points="319.07,257.576 244.158,207.769 252,307.383 		"/>
		<polygon fill="#AE6E29" points="219.13,112.962 66,231.46 244.158,207.769 		"/>
		<polygon fill="#905B24" points="252,307.383 66,231.46 244.158,207.769 		"/>
		<polygon fill="#9F6527" points="252,307.383 106.099,488.22 421.666,360.434 		"/>
		<polygon fill="#965E26" points="252,307.383 66,231.46 106.099,488.22 		"/>
		<polygon fill="#A16627" points="106.099,488.22 0,462.326 66,231.46 		"/>
	</g>
</g>
</svg>
