<?xml version="1.0" encoding="utf-8"?>
<!-- Generator: Adobe Illustrator 16.0.0, SVG Export Plug-In . SVG Version: 6.00 Build 0)  -->
<!DOCTYPE svg PUBLIC "-//W3C//DTD SVG 1.1//EN" "http://www.w3.org/Graphics/SVG/1.1/DTD/svg11.dtd">
<svg version="1.1" id="Layer_1" xmlns="http://www.w3.org/2000/svg" xmlns:xlink="http://www.w3.org/1999/xlink" x="0px" y="0px"
	 width="217.975px" height="289.091px" viewBox="0 0 217.975 289.091" enable-background="new 0 0 217.975 289.091"
	 xml:space="preserve">
<g>
	<polygon fill="#A16627" points="0.053,155.978 0,155.854 0.12,155.783 152.642,0 177.811,102.696 217.975,272.758 143.138,289.091 
		59.96,289.091 7.646,274.758 	"/>
	<g>
		<g>
			<path fill="#9B6225" d="M59.96,289.091"/>
			<line fill="#A16627" x1="59.907" y1="289.091" x2="0.02" y2="156.091"/>
			<polygon fill="#9C6228" points="0,155.854 116.748,289.091 59.96,289.091 			"/>
			<polygon fill="#A16627" points="80.438,108.254 0,155.854 116.748,289.091 			"/>
			<polygon fill="#A66928" points="80.438,108.254 152.642,0 116.748,289.091 116.748,289.091 			"/>
		</g>
		<g>
			<polygon fill="#B6732C" points="0.046,155.865 81.22,107.79 152.642,0 			"/>
		</g>
		<polygon fill="#A16627" points="152.642,0 177.811,102.696 116.748,289.091 		"/>
		<polygon fill="#9C6228" points="177.811,102.696 143.138,289.091 116.748,289.091 		"/>
		<polygon fill="#B37129" points="177.811,102.696 217.975,272.758 143.138,289.091 		"/>
	</g>
	<polygon fill="#A66928" points="0.046,155.865 7.646,274.758 59.96,289.091 	"/>
	<polygon fill="#A16627" points="59.96,289.091 143.138,289.091 116.748,289.091 	"/>
</g>
</svg>
