<?xml version="1.0" encoding="utf-8"?>
<!-- Generator: Adobe Illustrator 16.0.0, SVG Export Plug-In . SVG Version: 6.00 Build 0)  -->
<!DOCTYPE svg PUBLIC "-//W3C//DTD SVG 1.1//EN" "http://www.w3.org/Graphics/SVG/1.1/DTD/svg11.dtd">
<svg version="1.1" id="Layer_1" xmlns="http://www.w3.org/2000/svg" xmlns:xlink="http://www.w3.org/1999/xlink" x="0px" y="0px"
	 width="1047.878px" height="586.107px" viewBox="0 0 1047.878 586.107" enable-background="new 0 0 1047.878 586.107"
	 xml:space="preserve">
<g opacity="0.5">
	<polygon fill="#B27029" points="190.334,381.608 417.251,359.109 476.896,555.554 	"/>
	<polygon fill="#BD782A" points="476.896,555.554 518.025,482.485 417.251,359.109 	"/>
	<polygon fill="#C47C2A" points="476.896,555.554 643.482,586.107 518.025,482.485 	"/>
	<polygon fill="#B6732A" points="190.334,381.608 327.188,229.556 417.251,359.109 	"/>
	<polygon fill="#B27029" points="327.188,229.556 635.255,348.566 518.025,482.485 417.251,359.109 	"/>
	<polygon fill="#BD782A" points="327.188,229.556 258.484,106.829 635.255,348.566 	"/>
	<polygon fill="#BD782A" points="635.255,348.566 820.596,439.896 640.259,493.012 	"/>
	<polygon fill="#C47C2A" points="640.259,493.012 643.482,586.107 820.596,439.896 	"/>
	<polygon fill="#B6732A" points="635.255,348.566 706.953,288.373 820.596,439.896 	"/>
	<polygon fill="#BD782A" points="820.596,439.896 1047.878,477.775 972.202,364.073 	"/>
	<polygon fill="#B27029" points="190.334,381.608 115.065,191.542 327.188,229.556 	"/>
	<polygon fill="#BD782A" points="115.065,191.542 119.245,101.066 327.188,229.556 	"/>
	<polygon fill="#C47C2A" points="119.245,101.066 258.484,106.829 327.188,229.556 	"/>
	<polygon fill="#B6732A" points="119.245,101.066 258.484,106.829 154.6,-0.432 	"/>
	<polygon fill="#BD782A" points="119.245,101.066 76.908,25.8 154.6,-0.432 	"/>
	<polygon fill="#B27029" points="76.908,25.8 119.245,101.066 37.706,45.756 	"/>
	<polygon fill="#B6732A" points="154.977,-0.428 13.946,6.03 37.706,45.756 76.908,25.8 	"/>
	<polygon fill="#C47C2A" points="13.946,6.03 0,97.764 37.706,45.756 	"/>
	<polygon fill="#B6732A" points="37.706,45.756 31.386,75.632 0,97.764 	"/>
	<polygon fill="#BD782A" points="0,97.764 81.234,75.219 31.34,75.597 	"/>
	<polygon fill="#C47C2A" points="820.596,439.896 972.202,364.073 706.953,288.373 	"/>
	<polygon fill="#B27029" points="81.234,75.219 37.706,45.756 31.34,75.597 	"/>
	<polygon fill="#C47C2A" points="65.552,64.669 81.234,75.219 37.706,45.756 	"/>
	<polygon fill="#B6732A" points="518.025,482.485 635.255,348.566 640.259,493.012 643.482,586.107 	"/>
</g>
</svg>
