<?xml version="1.0" encoding="utf-8"?>
<!-- Generator: Adobe Illustrator 16.0.0, SVG Export Plug-In . SVG Version: 6.00 Build 0)  -->
<!DOCTYPE svg PUBLIC "-//W3C//DTD SVG 1.1//EN" "http://www.w3.org/Graphics/SVG/1.1/DTD/svg11.dtd">
<svg version="1.1" id="Layer_1" xmlns="http://www.w3.org/2000/svg" xmlns:xlink="http://www.w3.org/1999/xlink" x="0px" y="0px"
	 width="1120px" height="280.235px" viewBox="0 0 1120 280.235" enable-background="new 0 0 1120 280.235" xml:space="preserve">
<g opacity="0.5">
	<g>
		<polygon fill="#BD782A" points="251.033,145.091 266.885,193.699 0,268.085 		"/>
		<polygon fill="#B6732A" points="251.033,145.091 423.977,4.149 265.602,193.699 		"/>
		<polygon fill="#C47C2A" points="575.682,77.129 704.607,204.551 709.48,12.085 		"/>
		<polygon fill="#BD782A" points="704.607,204.551 748.283,82.521 709.48,12.085 		"/>
		<g>
			<polygon fill="#C47C2A" points="574.879,76.968 421.877,234.243 569.578,133.326 			"/>
			<g>
				<polygon fill="#BD782A" points="574.879,76.968 569.578,133.326 661.119,202.297 576,77.324 				"/>
				<polygon fill="#B6732A" points="576,77.324 661.119,202.297 704.607,204.551 				"/>
			</g>
		</g>
		<g>
			<polygon fill="#C47C2A" points="423.977,4.149 574.879,77.13 565.295,21.354 			"/>
			<polygon fill="#BD782A" points="709.48,12.085 565.295,21.354 574.879,77.13 574.879,77.13 			"/>
		</g>
		<g>
			<polygon fill="#B6732A" points="423.959,4.111 421.807,234.298 574.838,77.007 			"/>
			<g>
				<polygon fill="#C47C2A" points="0,268.096 384,252.451 265.635,193.298 				"/>
				<polygon fill="#BD782A" points="423.977,4.149 265.635,193.298 384,252.451 421.807,234.298 				"/>
			</g>
		</g>
		<polygon fill="#B6732A" points="748.283,82.521 832.001,140.085 704.607,204.551 		"/>
		<g>
			<polygon fill="#BD782A" points="256,108.085 251.033,145.091 423.977,4.149 			"/>
			<polygon fill="#B6732A" points="0,44.085 251.033,145.091 256,108.085 			"/>
		</g>
		<polygon fill="#C47C2A" points="704.607,204.551 1037.104,205.576 832.001,140.085 		"/>
		<polygon fill="#BD782A" points="832.001,140.085 1057.333,164.151 1037.104,205.576 		"/>
		<polygon fill="#B6732A" points="1037.104,205.576 1120.001,268.085 1057.333,164.151 		"/>
		<polygon fill="#C47C2A" points="1037.104,205.576 1054.171,279.969 1120.001,268.085 		"/>
		<polygon fill="#B6732A" points="1037.104,205.576 704.607,204.551 1054.171,279.969 		"/>
	</g>
	<polygon fill="#B6732A" points="0,44.085 253.777,143.801 0,268.096 	"/>
</g>
</svg>
