<?xml version="1.0" encoding="utf-8"?>
<!-- Generator: Adobe Illustrator 16.0.0, SVG Export Plug-In . SVG Version: 6.00 Build 0)  -->
<!DOCTYPE svg PUBLIC "-//W3C//DTD SVG 1.1//EN" "http://www.w3.org/Graphics/SVG/1.1/DTD/svg11.dtd">
<svg version="1.1" id="Layer_1" xmlns="http://www.w3.org/2000/svg" xmlns:xlink="http://www.w3.org/1999/xlink" x="0px" y="0px"
	 width="176.162px" height="215.168px" viewBox="0 0 176.162 215.168" enable-background="new 0 0 176.162 215.168"
	 xml:space="preserve">
<polygon fill="#B6732A" points="158.262,73.331 106.098,0 58.42,47.762 32.938,59.577 0,197.227 22.424,204.682 68.844,215.168 
	104.75,204.682 154.997,210.664 176.162,189.331 "/>
<g>
	<g>
		<g>
			<polygon fill="#B6732A" points="176.162,189.331 120.682,79.838 154.997,210.664 			"/>
			<polygon fill="#B06F29" points="154.997,210.664 120.682,79.838 104.75,204.682 			"/>
			<polygon fill="#B6732A" points="120.682,79.838 158.262,73.331 106.098,0 			"/>
			<polygon fill="#A96B28" points="158.262,73.331 176.162,189.331 120.682,79.838 			"/>
			<polygon fill="#B06F29" points="120.682,79.838 106.098,0 58.42,47.762 72.525,55.354 			"/>
			<polygon fill="#A66928" points="120.682,79.838 73.162,55.354 104.75,204.682 			"/>
			<polygon fill="#B6732A" points="104.75,204.682 32.938,59.577 73.162,55.354 			"/>
			<polygon fill="#B06F29" points="104.75,204.682 68.844,215.168 32.938,59.577 			"/>
			<polygon fill="#A66928" points="32.938,59.577 22.424,204.682 68.844,215.168 			"/>
			<polygon fill="#B6732A" points="32.938,59.577 0,197.227 22.424,204.682 			"/>
			<polygon fill="#A96B28" points="58.42,47.762 32.938,59.577 73.162,55.354 			"/>
		</g>
	</g>
</g>
</svg>
