<?xml version="1.0" encoding="utf-8"?>
<!-- Generator: Adobe Illustrator 16.0.0, SVG Export Plug-In . SVG Version: 6.00 Build 0)  -->
<!DOCTYPE svg PUBLIC "-//W3C//DTD SVG 1.1//EN" "http://www.w3.org/Graphics/SVG/1.1/DTD/svg11.dtd">
<svg version="1.1" id="Layer_1" xmlns="http://www.w3.org/2000/svg" xmlns:xlink="http://www.w3.org/1999/xlink" x="0px" y="0px"
	 width="964.539px" height="407.86px" viewBox="0 0 964.539 407.86" enable-background="new 0 0 964.539 407.86"
	 xml:space="preserve">
<g opacity="0.5">
	<polygon fill="#B27029" points="251.507,399.65 326.237,250.443 520.483,399.65 	"/>
	<polygon fill="#BD782A" points="520.483,399.65 509.668,300.199 326.237,250.443 	"/>
	<polygon fill="#C47C2A" points="520.483,399.65 617.895,374.779 509.668,300.199 	"/>
	<polygon fill="#B6732A" points="251.507,399.65 259.179,108.367 326.237,250.443 	"/>
	<polygon fill="#B27029" points="259.179,108.367 522.674,208.367 509.668,300.199 326.237,250.443 	"/>
	<polygon fill="#B6732A" points="509.668,300.199 522.674,208.367 617.895,374.779 	"/>
	<polygon fill="#BD782A" points="259.179,108.367 307.255,31.959 522.674,208.367 	"/>
	<polygon fill="#BD782A" points="522.674,208.367 964.54,237.916 557.52,296.283 	"/>
	<polygon fill="#C47C2A" points="557.52,296.283 617.895,374.779 964.54,237.916 	"/>
	<polygon fill="#B6732A" points="522.674,208.367 749.083,169.783 964.54,237.916 	"/>
	<polygon fill="#B27029" points="251.507,399.65 200.435,279.297 259.179,108.367 	"/>
	<polygon fill="#BD782A" points="200.435,279.297 168.149,123.027 259.179,108.367 	"/>
	<polygon fill="#C47C2A" points="168.149,123.027 307.255,31.959 259.179,108.367 	"/>
	<polygon fill="#B6732A" points="168.149,123.027 307.255,31.959 131.993,0.002 	"/>
	<polygon fill="#BD782A" points="168.149,123.027 74.817,79.387 131.993,0.002 	"/>
	<polygon fill="#B27029" points="74.817,79.387 168.149,123.027 50.633,125.967 	"/>
	<polygon fill="#B6732A" points="132.36,-0.258 0,103.914 50.633,125.967 74.817,79.387 	"/>
	<polygon fill="#C47C2A" points="0,103.914 50.151,202.607 50.633,125.967 	"/>
	<polygon fill="#B6732A" points="50.633,125.967 65.239,159.342 50.151,202.607 	"/>
	<polygon fill="#BD782A" points="50.151,202.607 113.323,124.338 65.17,159.34 	"/>
	<polygon fill="#C47C2A" points="964.54,237.916 964.54,43.676 749.083,169.783 	"/>
	<polygon fill="#B27029" points="113.323,124.338 50.633,125.967 65.17,159.34 	"/>
	<polygon fill="#C47C2A" points="90.782,124.988 113.323,124.338 50.633,125.967 	"/>
</g>
</svg>
