<?xml version="1.0" encoding="utf-8"?>
<!-- Generator: Adobe Illustrator 16.0.1, SVG Export Plug-In . SVG Version: 6.00 Build 0)  -->
<!DOCTYPE svg PUBLIC "-//W3C//DTD SVG 1.1//EN" "http://www.w3.org/Graphics/SVG/1.1/DTD/svg11.dtd">
<svg version="1.1" id="Layer_1" xmlns="http://www.w3.org/2000/svg" xmlns:xlink="http://www.w3.org/1999/xlink" x="0px" y="0px"
	 width="1500px" height="1500px" viewBox="0 0 1500 1500" enable-background="new 0 0 1500 1500" xml:space="preserve">
<g id="Mercury">
	<defs>
		<circle id="SVGID_1_" cx="750" cy="750" r="159.975"/>
	</defs>
	<clipPath id="SVGID_2_">
		<use xlink:href="#SVGID_1_"  overflow="visible"/>
	</clipPath>
	<circle clip-path="url(#SVGID_2_)" fill="#6C5229" cx="750" cy="750" r="159.975"/>
	<path clip-path="url(#SVGID_2_)" fill="#47452B" d="M883.864,859.403"/>
	<path clip-path="url(#SVGID_2_)" fill="#26322C" d="M664.905,669.154"/>
	<path clip-path="url(#SVGID_2_)" fill="#0B132D" d="M844.695,668.645"/>
	<g clip-path="url(#SVGID_2_)">
		<g>
			<path fill="#0B132D" d="M741.4,624.76c0.858,0,2.002-1.303,0.696-1.303C741.238,623.458,740.094,624.76,741.4,624.76
				L741.4,624.76z"/>
		</g>
	</g>
	<polygon clip-path="url(#SVGID_2_)" fill="#0D1321" points="664.905,669.154 624.342,618.545 770.615,577.542 	"/>
	<polygon clip-path="url(#SVGID_2_)" fill="#90744D" points="731.841,849.461 584.106,814.177 618.743,750.781 665.031,668.36 	"/>
	<polygon clip-path="url(#SVGID_2_)" fill="#281E0F" points="717.562,925.25 723.423,893.674 731.841,849.461 584.106,814.177 	"/>
	<polygon clip-path="url(#SVGID_2_)" fill="#6C5229" points="731.841,849.461 852.353,693.703 867.332,773.2 883.653,859.563 	"/>
	<path clip-path="url(#SVGID_2_)" fill="#26322C" d="M664.603,668.285"/>
	<polygon clip-path="url(#SVGID_2_)" fill="#C2A380" points="852.353,693.703 731.841,849.461 664.603,668.285 	"/>
	<polygon clip-path="url(#SVGID_2_)" fill="#977037" points="883.653,859.563 909.975,693.843 852.353,693.703 867.332,773.2 	"/>
	<polygon clip-path="url(#SVGID_2_)" fill="#0D1511" points="883.653,859.563 717.562,925.25 723.423,893.674 731.841,849.461 	"/>
	<polygon clip-path="url(#SVGID_2_)" fill="#6A4B1D" points="584.106,814.177 576.002,715.703 623.592,616.439 664.144,667.058 	"/>
	<path clip-path="url(#SVGID_2_)" fill="#0B132D" d="M844.404,667.777"/>
	<polygon clip-path="url(#SVGID_2_)" fill="#8B6226" points="909.975,693.843 852.353,693.703 770.312,576.674 	"/>
	<g clip-path="url(#SVGID_2_)">
		<g>
			<path fill="#0B132D" d="M741.094,623.906c0.857,0,2.002-1.303,0.696-1.303C740.933,622.604,739.788,623.906,741.094,623.906
				L741.094,623.906z"/>
		</g>
	</g>
	<polygon clip-path="url(#SVGID_2_)" fill="#E3C498" points="852.353,693.703 664.603,668.285 770.312,576.674 797.431,614.181 	"/>
	<polygon clip-path="url(#SVGID_2_)" fill="#B18A5D" points="664.603,668.285 624.052,617.666 770.312,576.674 724.284,617.535 	"/>
	<polygon clip-path="url(#SVGID_2_)" fill="#674A1C" points="909.975,693.843 912.065,781.343 867.332,773.2 	"/>
	<polygon clip-path="url(#SVGID_2_)" fill="#3D3020" points="912.065,781.343 883.653,859.563 867.332,773.2 	"/>
	<polygon clip-path="url(#SVGID_2_)" fill="#8E6B29" points="576.461,716.93 664.603,668.285 623.978,617.553 	"/>
	<polygon clip-path="url(#SVGID_2_)" fill="#482C1D" points="852.353,693.703 765.501,700.664 664.603,668.285 	"/>
	<polygon clip-path="url(#SVGID_2_)" fill="#503919" points="833.998,855.546 815.74,813.491 795.979,766.341 731.841,849.461 	"/>
	<polygon clip-path="url(#SVGID_2_)" fill="#58442B" points="883.653,859.563 833.998,855.546 815.74,813.491 	"/>
	<polygon clip-path="url(#SVGID_2_)" fill="#573E1A" points="815.74,813.491 867.332,773.2 883.653,859.563 	"/>
	<polygon clip-path="url(#SVGID_2_)" fill="#7E6846" points="815.74,813.491 806.519,820.796 833.998,855.546 	"/>
	<polygon clip-path="url(#SVGID_2_)" fill="#503815" points="806.519,820.796 734.772,848.574 833.998,855.546 	"/>
	<polygon clip-path="url(#SVGID_2_)" fill="#9C805D" points="806.519,820.796 773.681,795.237 815.74,813.491 	"/>
	<polygon clip-path="url(#SVGID_2_)" fill="#785A24" points="806.519,820.796 773.681,795.237 758.162,839.503 	"/>
	<polygon clip-path="url(#SVGID_2_)" fill="#1F130A" points="833.998,855.546 798.792,871.709 731.841,849.461 	"/>
	<path clip-path="url(#SVGID_2_)" fill="#32311A" d="M884.608,859.478"/>
	<path clip-path="url(#SVGID_2_)" fill="#38371F" d="M883.653,859.563"/>
	<polygon clip-path="url(#SVGID_2_)" fill="#624D36" points="833.998,855.546 883.653,859.563 798.792,871.709 	"/>
	<polygon clip-path="url(#SVGID_2_)" fill="#39281B" points="883.653,859.563 798.391,906.24 798.792,871.709 	"/>
	<polygon clip-path="url(#SVGID_2_)" fill="#2A3934" points="717.562,925.25 799.297,907.521 801.229,895.263 	"/>
	<polygon clip-path="url(#SVGID_2_)" fill="#2D1F10" points="798.792,871.709 801.229,895.263 723.423,893.674 	"/>
	<polygon clip-path="url(#SVGID_2_)" fill="#0A1D14" points="723.423,893.674 717.562,925.25 801.229,895.263 	"/>
	<polygon clip-path="url(#SVGID_2_)" fill="#0C160F" points="717.562,925.25 639.835,881.121 667.346,870.266 	"/>
	<polygon clip-path="url(#SVGID_2_)" fill="#493923" points="584.106,814.177 640.28,881.69 667.346,870.266 	"/>
	<polygon clip-path="url(#SVGID_2_)" fill="#452F1E" points="771.161,575.832 797.431,614.181 755.36,590.974 	"/>
	<polygon clip-path="url(#SVGID_2_)" fill="#624D36" points="771.161,575.832 845.25,613.289 840.034,635.278 	"/>
	<polygon clip-path="url(#SVGID_2_)" fill="#654128" points="840.034,635.278 797.431,614.181 771.161,575.832 	"/>
	<polygon clip-path="url(#SVGID_2_)" fill="#473321" points="845.25,613.289 860.044,652.097 840.034,635.278 	"/>
	<polygon clip-path="url(#SVGID_2_)" fill="#493317" points="840.034,635.278 820.221,647.18 797.431,614.181 	"/>
	<polygon clip-path="url(#SVGID_2_)" fill="#B19C7F" points="771.161,575.832 747.652,572.646 744.151,584.564 	"/>
	<polygon clip-path="url(#SVGID_2_)" fill="#A76533" points="755.36,590.974 744.151,584.564 771.161,575.832 	"/>
	<polygon clip-path="url(#SVGID_2_)" fill="#8C5D3A" points="909.975,693.843 860.044,652.097 845.25,613.289 	"/>
	<polygon clip-path="url(#SVGID_2_)" fill="#6C451B" points="744.151,584.564 709.632,583.424 747.652,572.646 	"/>
	<polygon clip-path="url(#SVGID_2_)" fill="#EC9C54" points="623.978,617.553 709.632,583.424 705.627,595.288 	"/>
	<polygon clip-path="url(#SVGID_2_)" fill="#CAA57B" points="744.151,584.564 724.284,617.535 709.632,583.424 	"/>
	<polygon clip-path="url(#SVGID_2_)" fill="#614328" points="705.627,595.288 724.284,617.535 709.632,583.424 	"/>
	<polygon clip-path="url(#SVGID_2_)" fill="#B28A50" points="797.431,614.181 724.284,617.535 755.36,590.974 	"/>
	<polygon clip-path="url(#SVGID_2_)" fill="#946A37" points="755.36,590.974 744.151,584.564 724.284,617.535 	"/>
	<g clip-path="url(#SVGID_2_)">
		<g>
			<path fill="#6A6230" d="M768.393,547.254c1.128,0,1.462-1.48,0.154-1.48C767.419,545.774,767.085,547.254,768.393,547.254
				L768.393,547.254z"/>
		</g>
	</g>
	<polygon clip-path="url(#SVGID_2_)" fill="#C9A67E" points="664.603,668.285 682.821,717.52 687.338,675.992 	"/>
	<polygon clip-path="url(#SVGID_2_)" fill="#936B30" points="682.821,717.52 618.743,750.781 664.603,668.285 	"/>
	<polygon clip-path="url(#SVGID_2_)" fill="#A07E52" points="584.106,814.177 615.078,741.949 664.603,668.285 618.743,750.781 	"/>
	<polygon clip-path="url(#SVGID_2_)" fill="#422E17" points="723.423,893.674 690.682,847.492 731.841,849.461 	"/>
	<polygon clip-path="url(#SVGID_2_)" fill="#020202" points="668.388,871.454 723.423,893.674 717.562,925.25 	"/>
	<polygon clip-path="url(#SVGID_2_)" fill="#231A0E" points="731.841,849.461 667.483,845.973 585.802,813.879 	"/>
	<polyline clip-path="url(#SVGID_2_)" fill="#23110A" points="665.787,846.271 667.346,870.266 690.682,847.492 666.185,846.246 	
		"/>
	<polygon clip-path="url(#SVGID_2_)" fill="#997A48" points="576.461,716.93 615.078,741.949 664.603,668.285 	"/>
	<polygon clip-path="url(#SVGID_2_)" fill="#A98A63" points="765.501,700.664 731.841,849.461 773.681,795.237 795.979,766.341 	"/>
	<polygon clip-path="url(#SVGID_2_)" fill="#946D33" points="682.821,717.52 687.338,675.992 765.501,700.664 	"/>
	<polygon clip-path="url(#SVGID_2_)" fill="#503215" points="706.3,780.601 584.106,814.177 731.841,849.461 	"/>
</g>
</svg>
