<?xml version="1.0" encoding="utf-8"?>
<!-- Generator: Adobe Illustrator 16.0.0, SVG Export Plug-In . SVG Version: 6.00 Build 0)  -->
<!DOCTYPE svg PUBLIC "-//W3C//DTD SVG 1.1//EN" "http://www.w3.org/Graphics/SVG/1.1/DTD/svg11.dtd">
<svg version="1.1" id="Layer_1" xmlns="http://www.w3.org/2000/svg" xmlns:xlink="http://www.w3.org/1999/xlink" x="0px" y="0px"
	 width="162px" height="71.188px" viewBox="0 0 162 71.188" enable-background="new 0 0 162 71.188" xml:space="preserve">
<g>
	<polygon fill="#BB956F" points="137.186,6.006 46.542,3.602 32.421,13.023 26.246,24.385 32.421,50.779 136.231,57.08 
		155.635,23.641 	"/>
	<polygon opacity="0.5" fill="#977B5A" points="136.231,57.23 14.488,66.801 5.238,44.301 26.246,24.535 	"/>
	<g>
		<polygon fill="#886F51" points="126.559,34.258 137.23,18.479 32.421,13.023 48.97,24.713 80.62,35.746 		"/>
		<polygon fill="#BB956F" points="137.23,18.479 137.186,6.006 46.542,3.602 32.421,13.023 		"/>
		<polygon fill="#B5916B" points="137.186,6.006 155.635,23.641 137.23,18.479 		"/>
		<polygon fill="#AD8967" points="137.23,18.479 126.559,34.258 136.231,57.08 155.635,23.641 		"/>
		<polygon fill="#BB956F" points="48.97,24.713 36.542,39.369 136.231,57.08 126.559,34.258 80.62,35.746 		"/>
		<polygon fill="#B5916B" points="48.97,24.713 32.421,13.023 36.542,39.369 		"/>
		<polygon fill="#AD8967" points="46.542,3.602 32.421,13.023 36.542,39.369 		"/>
		<polygon fill="#B5916B" points="36.542,39.369 36.542,39.369 47.285,45.025 136.231,57.08 		"/>
		<path fill="#BB956F" d="M136.231,57.08"/>
	</g>
	<path fill="#B5916B" d="M126.559,34.258L80.62,35.746L126.559,34.258z"/>
	<polygon fill="#B5916B" points="80.62,35.746 136.231,57.08 126.559,34.258 	"/>
	<polygon fill="#AD8967" points="36.542,39.369 36.389,39.787 32.421,50.779 136.231,57.08 47.285,45.025 	"/>
	<polygon fill="#BB956F" points="32.421,13.023 26.246,24.385 32.421,50.779 36.542,39.369 	"/>
</g>
</svg>
