<?xml version="1.0" encoding="utf-8"?>
<!-- Generator: Adobe Illustrator 16.0.0, SVG Export Plug-In . SVG Version: 6.00 Build 0)  -->
<!DOCTYPE svg PUBLIC "-//W3C//DTD SVG 1.1//EN" "http://www.w3.org/Graphics/SVG/1.1/DTD/svg11.dtd">
<svg version="1.1" id="Layer_1" xmlns="http://www.w3.org/2000/svg" xmlns:xlink="http://www.w3.org/1999/xlink" x="0px" y="0px"
	 width="328.44px" height="266.166px" viewBox="0 0 328.44 266.166" enable-background="new 0 0 328.44 266.166"
	 xml:space="preserve">
<g>
	<polygon fill="#755424" points="328.44,212.262 328.44,138.387 287.089,96.846 240.879,69.781 213.993,32.005 126.195,8.824 
		61.899,122.937 4.776,242.961 35.052,251.767 159.75,266.166 209.065,235.708 300.54,251.767 	"/>
	<polygon fill="#8C6A2D" points="328.44,212.262 287.089,97.177 240.879,69.781 213.993,32.463 126.195,9.344 61.899,123.297 
		4.776,242.961 35.052,251.767 159.75,243.7 209.065,235.708 300.54,251.767 	"/>
	<path fill="#8F8138" d="M244.638,117.419"/>
	<polygon fill="#6B4D20" points="209.065,235.708 159.75,266.166 35.052,251.767 126.195,9.344 	"/>
	<polygon fill="#503A1B" points="126.195,8.824 61.899,122.937 4.776,242.961 35.052,251.767 	"/>
	<path fill="#8F8138" d="M243.902,118.477"/>
	<polygon fill="#6D542A" points="126.195,8.824 213.993,32.005 220.315,91.034 193.425,185.197 	"/>
	<polygon fill="#755424" points="193.425,185.197 132.036,208.314 35.052,251.767 135.911,57.075 126.195,8.824 	"/>
	<polygon fill="#755424" points="193.425,185.197 328.44,212.262 220.315,91.034 	"/>
	<polygon fill="#8C6A2D" points="220.315,91.034 287.089,96.846 328.44,138.387 328.44,212.262 	"/>
	<polygon fill="#84642A" points="220.315,91.034 213.993,32.005 240.879,69.781 287.089,96.846 	"/>
	<polygon fill="#84642A" points="132.036,208.314 193.425,185.197 159.75,266.166 	"/>
	<polygon fill="#5B421F" points="61.899,122.937 135.911,57.075 126.195,8.824 	"/>
	<polygon fill="#432F1B" points="61.899,122.937 35.052,251.767 135.911,57.075 	"/>
	<polygon fill="#7A5C26" points="201.314,56.684 213.993,32.005 126.195,8.824 	"/>
	<polygon fill="#6B4D20" points="201.314,56.684 187.289,104.492 220.315,91.034 	"/>
	<polygon fill="#8C6A2D" points="135.911,57.075 187.289,104.492 126.195,8.824 	"/>
	<polygon fill="#503A1B" points="132.036,208.314 135.911,57.075 35.052,251.767 	"/>
	<polygon fill="#84642A" points="209.065,235.708 328.44,212.262 300.54,251.767 	"/>
	<polygon fill="#8C6A2D" points="240.879,69.781 220.315,91.034 213.993,32.005 	"/>
</g>
</svg>
