<?xml version="1.0" encoding="utf-8"?>
<!-- Generator: Adobe Illustrator 16.0.0, SVG Export Plug-In . SVG Version: 6.00 Build 0)  -->
<!DOCTYPE svg PUBLIC "-//W3C//DTD SVG 1.1//EN" "http://www.w3.org/Graphics/SVG/1.1/DTD/svg11.dtd">
<svg version="1.1" id="Layer_1" xmlns="http://www.w3.org/2000/svg" xmlns:xlink="http://www.w3.org/1999/xlink" x="0px" y="0px"
	 width="845.099px" height="307.262px" viewBox="0 0 845.099 307.262" enable-background="new 0 0 845.099 307.262"
	 xml:space="preserve">
<g>
	<polygon fill="#6B4D20" points="823.533,208.551 718.435,183.254 538.88,177.345 481.05,187.146 477.083,189.495 357.526,152.918 
		257.842,99.865 212.198,72.417 183.938,31.67 99.393,11.283 47.607,143.792 0,273.507 32.256,290.428 150.903,298.55 
		165.467,307.262 257.842,306.502 354.553,286.702 452.12,298.043 572.957,306.502 762.483,290.56 845.099,278.033 	"/>
	<polygon fill="#7A5C26" points="845.099,278.033 791.19,256.649 759.224,231.541 823.533,208.551 	"/>
	<g>
		<path fill="#432F1B" d="M392.926,239.333l59.193,58.711l120.837,8.459l189.526-15.942l61.05-82.009l0,0l-105.098-25.297
			l-179.555-5.909l-57.83,9.801L392.926,239.333"/>
		<polygon fill="#84642A" points="718.601,214.864 698.462,243.595 519.081,228.835 		"/>
		<polygon fill="#7A5C26" points="762.483,290.56 572.957,306.502 452.12,298.043 519.081,228.835 698.462,243.595 		"/>
		<g>
			<polygon fill="#755424" points="823.533,208.551 810.02,234.408 762.483,290.56 698.462,243.595 718.601,214.864 			"/>
			<polygon fill="#503A1B" points="452.12,298.043 404.495,268.202 392.926,239.333 479.152,204.64 519.081,228.835 			"/>
			<polygon fill="#8C6A2D" points="718.435,183.254 759.224,231.541 718.601,214.864 			"/>
			<polygon fill="#84642A" points="823.533,208.551 759.224,231.541 718.435,183.254 			"/>
			<polygon fill="#5D4319" points="392.926,239.333 481.05,187.146 479.309,204.664 			"/>
			<polygon fill="#7A5C26" points="538.88,177.345 519.081,228.835 481.05,187.146 			"/>
			<polygon fill="#6B4D20" points="479.152,204.64 519.081,228.835 481.05,187.146 			"/>
			<polygon fill="#755424" points="643.475,200.97 538.88,177.345 519.081,228.835 572.125,207.867 			"/>
			<polygon fill="#755424" points="643.475,200.97 718.435,183.254 718.601,214.864 			"/>
			<polygon fill="#6B4D20" points="538.88,177.345 718.435,183.254 643.475,200.97 560.08,182.397 			"/>
			<polygon fill="#6B4D20" points="538.88,177.345 519.081,228.835 572.125,207.867 			"/>
			<polygon fill="#432F1B" points="718.601,214.864 519.081,228.835 511.954,221.025 572.125,207.867 643.475,200.97 			"/>
		</g>
	</g>
	<polygon fill="#8C6A2D" points="762.483,290.56 845.099,278.033 791.19,256.649 	"/>
	<g>
		<g>
			<polygon fill="#8C6A2D" points="305.638,225.601 257.87,100.239 212.198,72.417 183.973,32.187 99.434,11.867 47.635,144.196 
				0,273.507 32.256,290.428 149.167,273.279 195.03,261.1 282.491,273.24 305.095,225.335 305.095,225.335 			"/>
			<g>
				<path fill="#8F8138" d="M219.419,125.752"/>
				<polygon fill="#6B4D20" points="195.03,261.1 150.903,298.55 32.256,290.428 99.434,11.867 				"/>
				<polygon fill="#5B421F" points="99.393,11.283 47.607,143.792 0,273.507 32.256,290.428 				"/>
				<path fill="#8F8138" d="M218.809,126.99"/>
				<polygon fill="#6D542A" points="99.393,11.283 183.938,31.67 194.458,97.652 176.385,205.301 				"/>
				<polygon fill="#755424" points="176.385,205.301 120.31,235.276 32.256,290.428 112.28,64.922 99.393,11.283 				"/>
				<polygon fill="#755424" points="176.385,205.301 305.629,225.465 194.458,97.652 				"/>
				<polygon fill="#8C6A2D" points="194.458,97.652 257.842,99.865 295.489,141.358 305.629,225.465 				"/>
				<polygon fill="#84642A" points="194.458,97.652 183.938,31.67 212.198,72.417 257.842,99.865 				"/>
				<polygon fill="#5B421F" points="120.31,235.276 176.385,205.301 150.903,298.55 				"/>
				<polygon fill="#5B421F" points="47.607,143.792 112.28,64.922 99.393,11.283 				"/>
				<polygon fill="#432F1B" points="47.607,143.792 32.256,290.428 112.28,64.922 				"/>
				<polygon fill="#7A5C26" points="173.894,60.247 183.938,31.67 99.393,11.283 				"/>
				<polygon fill="#6B4D20" points="173.894,60.247 164.369,114.928 194.458,97.652 				"/>
				<polygon fill="#8C6A2D" points="112.28,64.922 164.369,114.928 99.393,11.283 				"/>
			</g>
		</g>
		<polygon fill="#503A1B" points="120.31,235.276 112.28,64.922 32.256,290.428 		"/>
	</g>
	<polygon fill="#84642A" points="195.03,261.1 305.629,225.465 282.491,273.24 	"/>
	<polygon fill="#8C6A2D" points="212.198,72.417 194.458,97.652 183.938,31.67 	"/>
	<line fill="#6B4D20" x1="47.607" y1="143.792" x2="32.256" y2="290.428"/>
	<path fill="#8F8138" d="M449.467,197.138"/>
	<polygon fill="#6B4D20" points="501.667,278.496 354.553,286.702 257.842,306.502 165.467,307.262 257.842,99.865 	"/>
	<polygon fill="#432F1B" points="256.602,169.685 176.385,205.301 150.903,298.55 165.467,307.262 	"/>
	<path fill="#8F8138" d="M448.56,197.916"/>
	<polygon fill="#6B4D20" points="416.608,181.598 337.342,250.557 257.842,306.502 354.553,286.702 452.12,298.043 572.957,306.502 
			"/>
	<polygon fill="#5B421F" points="519.081,228.835 572.957,306.502 452.12,298.043 	"/>
	<polygon fill="#6B4D20" points="257.842,99.865 357.526,152.918 416.608,181.598 337.342,250.557 	"/>
	<polygon fill="#84642A" points="337.342,250.557 258.534,271.562 165.467,307.262 256.602,169.685 257.842,99.865 	"/>
	<polygon fill="#755424" points="337.342,250.557 452.12,298.043 416.608,181.598 	"/>
	<polygon fill="#84642A" points="416.608,181.598 478.222,189.843 452.12,298.043 	"/>
	<polygon fill="#6B4D20" points="416.608,181.598 357.526,152.918 478.222,189.843 	"/>
	<polygon fill="#7A5C26" points="258.534,271.562 337.342,250.557 257.842,306.502 	"/>
	<polygon fill="#503A1B" points="176.385,205.301 256.602,169.685 257.842,99.865 	"/>
	<polygon fill="#5B421F" points="176.385,205.301 165.467,307.262 256.602,169.685 	"/>
	<polygon fill="#7A5C26" points="341.682,163.576 357.526,152.918 257.842,99.865 	"/>
	<polygon fill="#503A1B" points="341.682,163.576 325.639,196.926 416.608,181.598 	"/>
	<polygon fill="#755424" points="256.602,169.685 325.639,196.926 257.842,99.865 	"/>
	<polygon fill="#503A1B" points="258.534,271.562 256.602,169.685 165.467,307.262 	"/>
	<polygon fill="#5B421F" points="120.31,235.276 76.37,166.117 112.28,64.922 	"/>
</g>
<path fill="#48462D" d="M94.8,7.306"/>
<path fill="#48462D" d="M92.63,8.061"/>
<path fill="#33321C" d="M94.987,5.449"/>
<path fill="#393720" d="M95.202,7.837"/>
</svg>
