<?xml version="1.0" encoding="utf-8"?>
<!-- Generator: Adobe Illustrator 16.0.0, SVG Export Plug-In . SVG Version: 6.00 Build 0)  -->
<!DOCTYPE svg PUBLIC "-//W3C//DTD SVG 1.1//EN" "http://www.w3.org/Graphics/SVG/1.1/DTD/svg11.dtd">
<svg version="1.1" id="Layer_1" xmlns="http://www.w3.org/2000/svg" xmlns:xlink="http://www.w3.org/1999/xlink" x="0px" y="0px"
	 width="251.334px" height="120.294px" viewBox="0 0 251.334 120.294" enable-background="new 0 0 251.334 120.294"
	 xml:space="preserve">
<g>
	<polygon fill="#AD8967" points="244.003,26.907 224.404,8.114 91.563,17.589 56.958,35.261 36.479,46.7 78.139,94.37 
		248.646,89.54 	"/>
	<polygon opacity="0.5" fill="#977B5A" points="56.958,35.261 248.646,89.54 60,115.942 4.05,64.815 	"/>
	<polygon fill="#886F51" points="91.563,59.425 56.958,35.261 244.003,26.907 221.033,44.808 	"/>
	<polygon fill="#BB956F" points="56.958,35.261 91.563,17.589 224.404,8.114 244.003,26.907 	"/>
	<polygon fill="#AD8967" points="56.958,35.261 91.563,59.425 78.139,94.37 36.479,46.7 	"/>
	<polygon fill="#BB956F" points="221.033,44.808 248.646,89.54 78.139,94.37 91.563,59.425 	"/>
	<polygon fill="#B5916B" points="221.033,44.808 244.003,26.907 248.646,89.54 	"/>
	<polygon fill="#AD8967" points="224.404,8.114 244.003,26.907 248.646,89.54 	"/>
</g>
</svg>
