<?xml version="1.0" encoding="utf-8"?>
<!-- Generator: Adobe Illustrator 16.0.0, SVG Export Plug-In . SVG Version: 6.00 Build 0)  -->
<!DOCTYPE svg PUBLIC "-//W3C//DTD SVG 1.1//EN" "http://www.w3.org/Graphics/SVG/1.1/DTD/svg11.dtd">
<svg version="1.1" id="Layer_1" xmlns="http://www.w3.org/2000/svg" xmlns:xlink="http://www.w3.org/1999/xlink" x="0px" y="0px"
	 width="1500px" height="1500px" viewBox="0 0 1500 1500" enable-background="new 0 0 1500 1500" xml:space="preserve">
<g id="Mercury">
	<defs>
		<circle id="SVGID_1_" cx="750" cy="750" r="159.975"/>
	</defs>
	<clipPath id="SVGID_2_">
		<use xlink:href="#SVGID_1_"  overflow="visible"/>
	</clipPath>
	<circle clip-path="url(#SVGID_2_)" fill="#6C5229" cx="750" cy="750" r="159.975"/>
	<path clip-path="url(#SVGID_2_)" fill="#47452B" d="M859.403,616.136"/>
	<path clip-path="url(#SVGID_2_)" fill="#26322C" d="M669.155,835.095"/>
	<path clip-path="url(#SVGID_2_)" fill="#0B132D" d="M668.645,655.305"/>
	<g clip-path="url(#SVGID_2_)">
		<g>
			<path fill="#0B132D" d="M623.761,758.903c0.858,0,2.002-1.303,0.696-1.303C623.6,757.601,622.455,758.903,623.761,758.903
				L623.761,758.903z"/>
		</g>
	</g>
	<polygon clip-path="url(#SVGID_2_)" fill="#0D1321" points="669.155,835.095 618.545,875.658 577.542,729.385 	"/>
	<polygon clip-path="url(#SVGID_2_)" fill="#90744D" points="849.462,768.159 814.177,915.894 750.782,881.257 668.361,834.969 	"/>
	<polygon clip-path="url(#SVGID_2_)" fill="#281E0F" points="925.25,782.438 893.674,776.577 849.462,768.159 814.177,915.894 	"/>
	<polygon clip-path="url(#SVGID_2_)" fill="#6C5229" points="849.462,768.159 693.703,647.647 773.2,632.668 859.563,616.347 	"/>
	<path clip-path="url(#SVGID_2_)" fill="#26322C" d="M668.286,835.397"/>
	<polygon clip-path="url(#SVGID_2_)" fill="#C2A380" points="693.703,647.647 849.462,768.159 668.286,835.397 	"/>
	<polygon clip-path="url(#SVGID_2_)" fill="#977037" points="859.563,616.347 693.844,590.025 693.703,647.647 773.2,632.668 	"/>
	<polygon clip-path="url(#SVGID_2_)" fill="#0D1511" points="859.563,616.347 925.25,782.438 893.674,776.577 849.462,768.159 	"/>
	<polygon clip-path="url(#SVGID_2_)" fill="#6A4B1D" points="814.177,915.894 715.703,923.998 616.439,876.408 667.059,835.856 	"/>
	<path clip-path="url(#SVGID_2_)" fill="#0B132D" d="M667.778,655.596"/>
	<polygon clip-path="url(#SVGID_2_)" fill="#8B6226" points="693.844,590.025 693.703,647.647 576.674,729.688 	"/>
	<g clip-path="url(#SVGID_2_)">
		<g>
			<path fill="#0B132D" d="M622.907,759.209c0.857,0,2.002-1.303,0.696-1.303C622.746,757.907,621.601,759.209,622.907,759.209
				L622.907,759.209z"/>
		</g>
	</g>
	<polygon clip-path="url(#SVGID_2_)" fill="#E3C498" points="693.703,647.647 668.286,835.397 576.674,729.688 614.181,702.569 	"/>
	<polygon clip-path="url(#SVGID_2_)" fill="#B18A5D" points="668.286,835.397 617.667,875.948 576.674,729.688 617.535,775.716 	"/>
	<polygon clip-path="url(#SVGID_2_)" fill="#674A1C" points="693.844,590.025 781.344,587.935 773.2,632.668 	"/>
	<polygon clip-path="url(#SVGID_2_)" fill="#3D3020" points="781.344,587.935 859.563,616.347 773.2,632.668 	"/>
	<polygon clip-path="url(#SVGID_2_)" fill="#8E6B29" points="716.93,923.539 668.286,835.397 617.553,876.022 	"/>
	<polygon clip-path="url(#SVGID_2_)" fill="#482C1D" points="693.703,647.647 700.665,734.499 668.286,835.397 	"/>
	<polygon clip-path="url(#SVGID_2_)" fill="#503919" points="855.547,666.002 813.491,684.26 766.341,704.021 849.462,768.159 	"/>
	<polygon clip-path="url(#SVGID_2_)" fill="#58442B" points="859.563,616.347 855.547,666.002 813.491,684.26 	"/>
	<polygon clip-path="url(#SVGID_2_)" fill="#573E1A" points="813.491,684.26 773.2,632.668 859.563,616.347 	"/>
	<polygon clip-path="url(#SVGID_2_)" fill="#7E6846" points="813.491,684.26 820.796,693.481 855.547,666.002 	"/>
	<polygon clip-path="url(#SVGID_2_)" fill="#503815" points="820.796,693.481 848.574,765.228 855.547,666.002 	"/>
	<polygon clip-path="url(#SVGID_2_)" fill="#9C805D" points="820.796,693.481 795.238,726.319 813.491,684.26 	"/>
	<polygon clip-path="url(#SVGID_2_)" fill="#785A24" points="820.796,693.481 795.238,726.319 839.504,741.838 	"/>
	<polygon clip-path="url(#SVGID_2_)" fill="#1F130A" points="855.547,666.002 871.709,701.208 849.462,768.159 	"/>
	<path clip-path="url(#SVGID_2_)" fill="#32311A" d="M859.478,615.392"/>
	<path clip-path="url(#SVGID_2_)" fill="#38371F" d="M859.563,616.347"/>
	<polygon clip-path="url(#SVGID_2_)" fill="#624D36" points="855.547,666.002 859.563,616.347 871.709,701.208 	"/>
	<polygon clip-path="url(#SVGID_2_)" fill="#39281B" points="859.563,616.347 906.24,701.609 871.709,701.208 	"/>
	<polygon clip-path="url(#SVGID_2_)" fill="#2A3934" points="925.25,782.438 907.521,700.703 895.264,698.771 	"/>
	<polygon clip-path="url(#SVGID_2_)" fill="#2D1F10" points="871.709,701.208 895.264,698.771 893.674,776.577 	"/>
	<polygon clip-path="url(#SVGID_2_)" fill="#0A1D14" points="893.674,776.577 925.25,782.438 895.264,698.771 	"/>
	<polygon clip-path="url(#SVGID_2_)" fill="#0C160F" points="925.25,782.438 881.122,860.165 870.267,832.654 	"/>
	<polygon clip-path="url(#SVGID_2_)" fill="#493923" points="814.177,915.894 881.69,859.72 870.267,832.654 	"/>
	<polygon clip-path="url(#SVGID_2_)" fill="#452F1E" points="575.833,728.839 614.181,702.569 590.975,744.64 	"/>
	<polygon clip-path="url(#SVGID_2_)" fill="#624D36" points="575.833,728.839 613.29,654.75 635.278,659.966 	"/>
	<polygon clip-path="url(#SVGID_2_)" fill="#654128" points="635.278,659.966 614.181,702.569 575.833,728.839 	"/>
	<polygon clip-path="url(#SVGID_2_)" fill="#473321" points="613.29,654.75 652.098,639.956 635.278,659.966 	"/>
	<polygon clip-path="url(#SVGID_2_)" fill="#493317" points="635.278,659.966 647.18,679.779 614.181,702.569 	"/>
	<polygon clip-path="url(#SVGID_2_)" fill="#B19C7F" points="575.833,728.839 572.646,752.348 584.565,755.849 	"/>
	<polygon clip-path="url(#SVGID_2_)" fill="#A76533" points="590.975,744.64 584.565,755.849 575.833,728.839 	"/>
	<polygon clip-path="url(#SVGID_2_)" fill="#8C5D3A" points="693.844,590.025 652.098,639.956 613.29,654.75 	"/>
	<polygon clip-path="url(#SVGID_2_)" fill="#6C451B" points="584.565,755.849 583.425,790.368 572.646,752.348 	"/>
	<polygon clip-path="url(#SVGID_2_)" fill="#EC9C54" points="617.553,876.022 583.425,790.368 595.288,794.373 	"/>
	<polygon clip-path="url(#SVGID_2_)" fill="#CAA57B" points="584.565,755.849 617.535,775.716 583.425,790.368 	"/>
	<polygon clip-path="url(#SVGID_2_)" fill="#614328" points="595.288,794.373 617.535,775.716 583.425,790.368 	"/>
	<polygon clip-path="url(#SVGID_2_)" fill="#B28A50" points="614.181,702.569 617.535,775.716 590.975,744.64 	"/>
	<polygon clip-path="url(#SVGID_2_)" fill="#946A37" points="590.975,744.64 584.565,755.849 617.535,775.716 	"/>
	<g clip-path="url(#SVGID_2_)">
		<g>
			<path fill="#6A6230" d="M546.438,732.271c1.128,0,1.462-1.48,0.154-1.48C545.464,730.79,545.13,732.271,546.438,732.271
				L546.438,732.271z"/>
		</g>
	</g>
	<polygon clip-path="url(#SVGID_2_)" fill="#C9A67E" points="668.286,835.397 717.521,817.179 675.993,812.662 	"/>
	<polygon clip-path="url(#SVGID_2_)" fill="#936B30" points="717.521,817.179 750.782,881.257 668.286,835.397 	"/>
	<polygon clip-path="url(#SVGID_2_)" fill="#A07E52" points="814.177,915.894 741.95,884.922 668.286,835.397 750.782,881.257 	"/>
	<polygon clip-path="url(#SVGID_2_)" fill="#422E17" points="893.674,776.577 847.493,809.318 849.462,768.159 	"/>
	<polygon clip-path="url(#SVGID_2_)" fill="#020202" points="871.454,831.612 893.674,776.577 925.25,782.438 	"/>
	<polygon clip-path="url(#SVGID_2_)" fill="#231A0E" points="849.462,768.159 845.973,832.517 813.879,914.198 	"/>
	<polyline clip-path="url(#SVGID_2_)" fill="#23110A" points="846.271,834.213 870.267,832.654 847.493,809.318 846.247,833.815 	
		"/>
	<polygon clip-path="url(#SVGID_2_)" fill="#997A48" points="716.93,923.539 741.95,884.922 668.286,835.397 	"/>
	<polygon clip-path="url(#SVGID_2_)" fill="#A98A63" points="700.665,734.499 849.462,768.159 795.238,726.319 766.341,704.021 	"/>
	<polygon clip-path="url(#SVGID_2_)" fill="#946D33" points="717.521,817.179 675.993,812.662 700.665,734.499 	"/>
	<polygon clip-path="url(#SVGID_2_)" fill="#503215" points="780.601,793.7 814.177,915.894 849.462,768.159 	"/>
</g>
</svg>
