<?xml version="1.0" encoding="utf-8"?>
<!-- Generator: Adobe Illustrator 16.0.0, SVG Export Plug-In . SVG Version: 6.00 Build 0)  -->
<!DOCTYPE svg PUBLIC "-//W3C//DTD SVG 1.1//EN" "http://www.w3.org/Graphics/SVG/1.1/DTD/svg11.dtd">
<svg version="1.1" id="Layer_1" xmlns="http://www.w3.org/2000/svg" xmlns:xlink="http://www.w3.org/1999/xlink" x="0px" y="0px"
	 width="1652.601px" height="483.715px" viewBox="0 0 1652.601 483.715" enable-background="new 0 0 1652.601 483.715"
	 xml:space="preserve">
<path fill="#48462D" d="M1650.831,119.655"/>
<path fill="#48462D" d="M1645.523,119.746"/>
<path fill="#33321C" d="M1652.601,118.588"/>
<path fill="#393720" d="M1651.328,120.032"/>
<path fill="#AD8967" d="M0,0v185.681v247.42l242.895,30.118l575.13,20.505l0.141-0.007l0.078,0.007l-0.045-0.009l0.085-0.004
	l-0.04,0.014l0.083-0.016l468.932-18.304l120.733,18.312l244.608-32.999V259.511V122.417V9.333L754.462,34.566L0,0z"/>
<g>
	<path fill="#26322C" d="M171.595,364.987"/>
	<path fill="#26322C" d="M166.274,365.08"/>
	<polygon fill="#B08A5D" points="166.274,365.08 0,433.101 0,185.681 	"/>
	<line fill="#47442F" x1="171.595" y1="364.987" x2="1288.236" y2="339.684"/>
	<line fill="#6D6531" x1="1652.601" y1="450.717" x2="1288.236" y2="339.684"/>
	<line fill="#756F2F" x1="1652.601" y1="450.717" x2="1288.236" y2="339.684"/>
	<path fill="#0F172E" d="M497.517,99.688"/>
	<polygon fill="#B8926D" points="1282.947,339.757 818.024,483.724 166.274,365.08 	"/>
	<polygon fill="#B5916B" points="1652.601,450.717 1510.019,367.275 1282.947,339.757 818.024,483.724 	"/>
	<polygon fill="#AD8967" points="1282.947,339.757 648.958,98.605 1652.601,122.417 	"/>
	<polygon fill="#C4A581" points="648.958,98.605 1282.947,339.757 166.274,365.08 	"/>
	<polygon fill="#8F7141" points="1652.601,122.417 754.462,34.566 648.958,98.605 	"/>
	<polygon fill="#AF8C68" points="1652.601,122.417 1652.601,450.717 1282.947,339.757 	"/>
	<polygon fill="#AF8C68" points="818.024,483.724 242.895,463.219 0,433.101 166.274,365.08 	"/>
	<path fill="#0F172E" d="M492.233,99.762"/>
	<polygon fill="#A38863" points="754.462,34.566 648.958,98.605 0,185.681 	"/>
	<polygon fill="#B8926D" points="648.958,98.605 166.274,365.08 0,185.681 	"/>
	<polygon fill="#886942" points="754.462,34.566 1652.601,9.333 1116.416,109.181 	"/>
	<polygon fill="#8F7141" points="1652.601,9.333 1652.601,122.417 1112.386,108.91 	"/>
	<polygon fill="#BB956F" points="242.895,463.219 166.274,365.08 0,433.101 	"/>
	<polygon fill="#AD8967" points="648.958,98.605 527.346,228.737 166.274,365.08 	"/>
	<polygon fill="#BB956F" points="1503.108,191.609 944.305,211.322 1282.947,339.757 	"/>
	<polygon fill="#BB956F" points="1652.601,122.417 1503.108,191.609 1239.05,201.396 	"/>
	<polygon fill="#977B5A" points="1239.05,201.396 1189.901,110.508 1652.601,122.417 	"/>
	<polygon fill="#AF8C68" points="1239.05,201.396 1262.254,217.967 1503.108,191.609 	"/>
	<polygon fill="#977B5A" points="1260.921,217.765 1282.987,339.761 1503.108,191.609 	"/>
	<polygon fill="#9D815F" points="1262.254,217.967 1062.403,255.826 1239.05,201.396 	"/>
	<polygon fill="#B5916B" points="1262.254,217.967 1062.403,255.826 1282.947,339.757 	"/>
	<polygon fill="#BB956F" points="1503.108,191.609 1527.386,250.103 1282.947,339.757 	"/>
	<polygon fill="#AD8967" points="1503.108,191.609 1652.601,122.417 1527.386,250.103 	"/>
	<polygon fill="#977B5A" points="1652.601,122.417 1652.601,259.511 1527.386,250.103 	"/>
	<polygon fill="#AD8967" points="1527.386,250.103 1652.601,259.511 1510.019,367.275 	"/>
	<polygon fill="#B5916B" points="1510.019,367.275 1652.601,450.717 1652.601,259.511 	"/>
	<polygon fill="#AD8967" points="1652.601,450.717 1407.992,483.715 1287.259,465.403 1278.392,424.401 	"/>
	<polygon fill="#B8926D" points="818.024,483.724 1287.259,465.403 1278.392,424.401 	"/>
	<polygon fill="#8F7141" points="0,185.681 0,0 323.371,100.964 	"/>
	<polygon fill="#AF8C68" points="323.371,100.964 112.373,147.185 0,185.681 	"/>
	<polygon fill="#735B39" points="0,0 550.407,65.995 323.371,100.964 	"/>
	<polygon fill="#B5916B" points="323.371,100.964 336.554,127.477 0,185.681 	"/>
	<polygon fill="#8A6C47" points="754.462,34.566 550.407,65.995 0,0 	"/>
	<polygon fill="#CAA880" points="166.274,364.987 468.632,357.422 249.113,333.844 	"/>
	<polygon fill="#AD8967" points="469.634,358.278 534.911,466.311 166.274,365.08 	"/>
	<polygon fill="#A17E52" points="818.024,483.724 450.725,447.619 166.274,365.08 	"/>
	<polygon fill="#B8926D" points="1510.019,367.275 1131.213,406 1282.947,339.757 	"/>
	<polygon fill="#BB956F" points="1278.392,424.401 1510.019,367.275 1652.601,450.717 	"/>
	<polygon fill="#977B5A" points="1282.947,339.757 1145.269,435.256 818.243,483.724 	"/>
	<polyline fill="#BB956F" points="1144.678,435.852 1278.392,424.401 1196.89,399.64 1145.269,435.256 	"/>
	<polygon fill="#C4A581" points="242.895,463.219 450.725,447.619 166.274,365.08 	"/>
	<polygon fill="#A98965" points="527.346,228.393 1282.825,339.761 943.302,210.214 	"/>
	<polyline fill="#B8926D" points="527.346,228.737 500.551,297.29 166.274,365.08 527.346,228.737 	"/>
	<polygon fill="#AD8967" points="858.553,349.362 818.024,483.724 1282.947,339.757 	"/>
</g>
</svg>
