<?xml version="1.0" encoding="utf-8"?>
<!-- Generator: Adobe Illustrator 16.0.0, SVG Export Plug-In . SVG Version: 6.00 Build 0)  -->
<!DOCTYPE svg PUBLIC "-//W3C//DTD SVG 1.1//EN" "http://www.w3.org/Graphics/SVG/1.1/DTD/svg11.dtd">
<svg version="1.1" id="Layer_1" xmlns="http://www.w3.org/2000/svg" xmlns:xlink="http://www.w3.org/1999/xlink" x="0px" y="0px"
	 width="417.4px" height="130.126px" viewBox="0 0 417.4 130.126" enable-background="new 0 0 417.4 130.126" xml:space="preserve">
<g>
	<polygon fill="#BB956F" points="417.4,102.63 361.09,43.227 299.534,6.217 184.587,48.026 125.782,63.856 75.224,35.012 
		15.567,74.729 0.073,113.666 0.374,113.666 0.297,113.763 149.329,129.691 265.272,122.576 356.198,102.483 356.203,102.521 	"/>
	<path fill="#26322C" d="M314.036,58.898"/>
	<path fill="#26322C" d="M312.959,58.851"/>
	<polygon fill="#CBA57C" points="299.534,6.217 319.552,38.308 265.272,122.576 417.4,102.63 344.941,42.504 	"/>
	<polygon fill="#E1C395" points="149.329,129.691 265.272,122.576 184.587,48.026 	"/>
	<polygon fill="#E1C395" points="265.272,122.576 319.552,38.308 184.587,48.026 220.117,103.377 	"/>
	<polygon fill="#E1C395" points="299.534,6.217 344.941,42.504 400.664,83.051 417.4,102.63 361.09,43.227 	"/>
	<polygon fill="#B29B7F" points="184.587,48.026 208.939,50.238 209.113,63.567 	"/>
	<polygon fill="#C4A59B" points="195.679,66.951 209.113,63.567 184.587,48.026 	"/>
	<polygon fill="#B08950" points="319.552,38.308 245.113,72.362 265.272,122.576 	"/>
	<polygon fill="#CBA57C" points="209.113,63.567 220.117,103.377 245.113,72.362 	"/>
	<polygon fill="#A97F59" points="265.272,122.576 220.117,103.377 245.113,72.362 	"/>
	<polygon fill="#B08950" points="149.329,129.691 220.117,103.377 195.679,66.951 	"/>
	<polygon fill="#946B37" points="195.679,66.951 209.113,63.567 220.117,103.377 	"/>
	<polygon fill="#B29B7F" points="417.4,102.63 356.203,110.653 400.664,83.051 	"/>
	<polygon fill="#A98965" points="344.941,42.504 265.272,122.576 319.552,38.308 	"/>
	<polyline fill="#E8D3BB" points="344.941,42.504 356.203,110.653 400.664,83.051 344.941,42.504 	"/>
	<polygon fill="#C4A59B" points="319.552,38.308 299.534,6.217 184.587,48.026 	"/>
	<polygon fill="#B29B7F" points="209.113,63.567 299.534,6.217 184.587,48.026 	"/>
	<path fill="#8F8138" d="M30.428,79.686"/>
	<polygon fill="#A97F59" points="0.297,113.763 149.329,129.691 75.224,35.012 	"/>
	<polygon fill="#BB956F" points="75.224,35.012 126.094,64.776 184.587,48.026 149.329,129.691 	"/>
	<path fill="#8F8138" d="M30.916,80.351"/>
	<polygon fill="#B29B7F" points="46.578,63.104 82.753,122.576 0.073,113.666 	"/>
	<polygon fill="#B08A5D" points="75.224,35.012 46.578,63.104 64.917,93.252 	"/>
	<polygon fill="#BB956F" points="64.917,93.252 149.329,129.691 75.224,35.012 	"/>
	<polygon fill="#C4A59B" points="64.917,93.252 0.073,113.666 46.578,63.104 	"/>
	<polygon fill="#C4A581" points="46.578,63.104 15.567,74.729 0.073,113.666 	"/>
	<path fill="#393720" d="M74.871,34.894"/>
	<polygon fill="#E1C395" points="46.578,63.104 75.224,35.012 15.567,74.729 	"/>
	<polygon fill="#E1C395" points="126.094,64.776 127.604,85.597 75.224,35.012 	"/>
	<polygon fill="#B08950" points="149.329,129.691 127.604,85.597 75.224,35.012 	"/>
	<polygon fill="#C4A59B" points="127.604,85.597 184.587,48.026 126.094,64.776 	"/>
	<polygon fill="#B08950" points="209.113,63.567 299.534,6.217 319.552,38.308 	"/>
</g>
</svg>
