<?xml version="1.0" encoding="utf-8"?>
<!-- Generator: Adobe Illustrator 16.0.0, SVG Export Plug-In . SVG Version: 6.00 Build 0)  -->
<!DOCTYPE svg PUBLIC "-//W3C//DTD SVG 1.1//EN" "http://www.w3.org/Graphics/SVG/1.1/DTD/svg11.dtd">
<svg version="1.1" id="Layer_1" xmlns="http://www.w3.org/2000/svg" xmlns:xlink="http://www.w3.org/1999/xlink" x="0px" y="0px"
	 width="757.581px" height="215.262px" viewBox="0 0 757.581 215.262" enable-background="new 0 0 757.581 215.262"
	 xml:space="preserve">
<g>
	<polygon fill="#C4A581" points="757.581,194.773 732.464,141.226 636.221,87.7 525.691,127.813 410.289,105.242 188.961,17.892 
		90.844,98.774 7.023,194.773 99.361,215.288 99.369,215.235 241.69,215.262 489.691,194.773 	"/>
	<polygon fill="#E1C395" points="489.691,194.773 241.69,215.262 410.289,105.242 	"/>
	<polygon fill="#B08A5D" points="241.69,215.262 156.666,92.144 410.289,105.242 352.97,179.831 	"/>
	<polygon fill="#A97F59" points="188.961,17.892 116.898,97.798 27.002,189.494 7.023,194.773 90.844,98.774 	"/>
	<polygon fill="#B29B7F" points="410.289,105.242 371.002,108.223 370.72,126.184 	"/>
	<polygon fill="#C4A59B" points="392.395,130.745 370.72,126.184 410.289,105.242 	"/>
	<polygon fill="#A97F59" points="370.72,126.184 312.643,138.037 371.002,108.223 	"/>
	<polygon fill="#B08950" points="156.666,92.144 312.643,138.037 241.69,215.262 	"/>
	<polygon fill="#CBA57C" points="370.72,126.184 352.97,179.831 312.643,138.037 	"/>
	<polygon fill="#A97F59" points="241.69,215.262 352.97,179.831 312.643,138.037 	"/>
	<polygon fill="#B08950" points="489.691,194.773 352.97,179.831 392.395,130.745 	"/>
	<polygon fill="#946B37" points="392.395,130.745 370.72,126.184 352.97,179.831 	"/>
	<polygon fill="#A98965" points="7.023,194.773 99.361,215.288 27.002,189.494 	"/>
	<polygon fill="#A98965" points="116.898,97.798 241.69,215.262 156.666,92.144 	"/>
	<polyline fill="#C4A59B" points="116.898,97.798 99.361,215.288 27.002,189.494 116.898,97.798 	"/>
	<polygon fill="#E1C395" points="156.666,92.144 188.961,17.892 410.289,105.242 	"/>
	<polygon fill="#C4A581" points="371.002,108.223 156.666,92.144 410.289,105.242 	"/>
	<path fill="#48462D" d="M637.263,86.285"/>
	<path fill="#8F8138" d="M708.489,147.906"/>
	<path fill="#48462D" d="M636.493,87.171"/>
	<polygon fill="#A97F59" points="757.581,194.773 489.691,194.773 636.221,87.7 	"/>
	<polygon fill="#BB956F" points="636.221,87.7 525.691,127.813 410.289,105.242 489.691,194.773 	"/>
	<path fill="#8F8138" d="M636.137,87.171"/>
	<path fill="#8F8138" d="M707.703,148.802"/>
	<polygon fill="#B29B7F" points="682.435,125.562 628.358,194.773 757.581,194.773 	"/>
	<polygon fill="#B08A5D" points="636.221,87.7 682.435,125.562 650.733,165.862 	"/>
	<polygon fill="#B08950" points="650.733,165.862 489.691,194.773 636.221,87.7 	"/>
	<polygon fill="#E1C395" points="650.733,165.862 757.581,194.773 682.435,125.562 	"/>
	<polygon fill="#C4A581" points="682.435,125.562 732.464,141.226 757.581,194.773 	"/>
	<path fill="#33321C" d="M636.79,85.534"/>
	<path fill="#393720" d="M636.79,87.543"/>
	<polygon fill="#E8D3BB" points="682.435,125.562 636.221,87.7 732.464,141.226 	"/>
	<polygon fill="#C4A59B" points="525.691,127.813 523.256,155.871 636.221,87.7 	"/>
	<polygon fill="#B29B7F" points="489.691,194.773 523.256,155.871 636.221,87.7 	"/>
	<polygon fill="#E8D3BB" points="523.256,155.871 410.289,105.242 525.691,127.813 	"/>
</g>
</svg>
