<?xml version="1.0" encoding="utf-8"?>
<!-- Generator: Adobe Illustrator 16.0.0, SVG Export Plug-In . SVG Version: 6.00 Build 0)  -->
<!DOCTYPE svg PUBLIC "-//W3C//DTD SVG 1.1//EN" "http://www.w3.org/Graphics/SVG/1.1/DTD/svg11.dtd">
<svg version="1.1" id="Layer_1" xmlns="http://www.w3.org/2000/svg" xmlns:xlink="http://www.w3.org/1999/xlink" x="0px" y="0px"
	 width="216.31px" height="97.401px" viewBox="0 0 216.31 97.401" enable-background="new 0 0 216.31 97.401" xml:space="preserve">
<g>
	<polygon fill="#CBA57C" points="216.31,83.82 187.234,97.401 23.731,94.432 4.104,53.204 48.568,13.346 77.105,10.801 
		86.216,6.668 99.635,0 168.491,25.838 	"/>
	<polygon fill="#BB956F" points="216.31,83.82 187.234,97.401 99.047,0.847 167.55,46.109 	"/>
	<polygon fill="#E1C395" points="187.234,97.401 23.731,94.432 99.047,0.847 128.012,31.706 	"/>
	<polygon fill="#B08A5D" points="23.731,94.432 4.104,53.204 47.043,24.439 99.047,0.847 66.406,42.469 	"/>
	<polygon fill="#E1C395" points="99.635,0 128.012,31.706 88.606,15.291 	"/>
	<polygon fill="#E8D3BB" points="99.635,0 168.491,25.838 167.55,46.109 	"/>
	<polygon fill="#B29B7F" points="167.55,46.109 128.012,31.706 99.635,0 	"/>
	<polygon fill="#CBA57C" points="168.491,25.838 187.234,64.411 167.55,46.109 	"/>
	<polygon fill="#A97F59" points="167.55,46.109 156.455,63.258 128.012,31.706 	"/>
	<polygon fill="#C4A59B" points="88.606,15.291 78.071,10.715 99.635,0 	"/>
	<polygon fill="#B08950" points="216.31,83.82 187.234,64.411 168.491,25.838 	"/>
	<polygon fill="#A98965" points="4.104,53.204 48.568,13.346 47.043,24.439 	"/>
	<polygon fill="#CBA57C" points="78.071,10.715 66.406,42.469 48.568,13.346 	"/>
	<polygon fill="#946B37" points="47.043,24.439 66.406,42.469 48.568,13.346 	"/>
	<polygon fill="#B08950" points="128.012,31.706 66.406,42.469 88.606,15.291 	"/>
	<polygon fill="#946B37" points="88.606,15.291 78.071,10.715 66.406,42.469 	"/>
</g>
</svg>
