<?xml version="1.0" encoding="utf-8"?>
<!-- Generator: Adobe Illustrator 16.0.0, SVG Export Plug-In . SVG Version: 6.00 Build 0)  -->
<!DOCTYPE svg PUBLIC "-//W3C//DTD SVG 1.1//EN" "http://www.w3.org/Graphics/SVG/1.1/DTD/svg11.dtd">
<svg version="1.1" id="Layer_1" xmlns="http://www.w3.org/2000/svg" xmlns:xlink="http://www.w3.org/1999/xlink" x="0px" y="0px"
	 width="136.868px" height="52.424px" viewBox="0 0 136.868 52.424" enable-background="new 0 0 136.868 52.424"
	 xml:space="preserve">
<g>
	<polygon fill="#B5916B" points="131.257,14.375 121.356,4.881 41.8,8.947 24.864,22.588 47.47,48.453 132.826,46.334 
		133.603,46.014 	"/>
	<polygon fill="#886F51" points="54.251,30.801 36.77,18.594 131.257,14.375 119.653,23.416 	"/>
	<polygon fill="#BB956F" points="36.77,18.594 41.8,8.947 121.356,4.881 131.257,14.375 	"/>
	<polygon fill="#B5916B" points="41.8,8.947 24.864,22.588 36.77,18.594 	"/>
	<polygon fill="#AD8967" points="36.77,18.594 54.251,30.801 47.47,48.453 24.864,22.588 	"/>
	<polygon fill="#BB956F" points="119.653,23.416 133.603,46.014 47.47,48.453 54.251,30.801 	"/>
	<polygon fill="#B5916B" points="119.653,23.416 131.257,14.375 133.603,46.014 	"/>
	<polygon fill="#AD8967" points="121.356,4.881 131.257,14.375 133.603,46.014 	"/>
	<polygon opacity="0.5" fill="#977B5A" points="1.587,47.951 47.47,48.453 24.864,22.588 5.337,30.576 	"/>
	<polyline fill="#B5916B" points="132.826,46.334 133.603,46.014 47.47,48.453 	"/>
</g>
</svg>
