<?xml version="1.0" encoding="utf-8"?>
<!-- Generator: Adobe Illustrator 16.0.0, SVG Export Plug-In . SVG Version: 6.00 Build 0)  -->
<!DOCTYPE svg PUBLIC "-//W3C//DTD SVG 1.1//EN" "http://www.w3.org/Graphics/SVG/1.1/DTD/svg11.dtd">
<svg version="1.1" id="Layer_1" xmlns="http://www.w3.org/2000/svg" xmlns:xlink="http://www.w3.org/1999/xlink" x="0px" y="0px"
	 width="227.124px" height="510.758px" viewBox="0 0 227.124 510.758" enable-background="new 0 0 227.124 510.758"
	 xml:space="preserve">
<path fill="#C4A581" d="M154.089,338.564"/>
<g>
	<polygon fill="#CBA57C" points="127.325,0 96.554,13.833 50.842,152.205 0,475.809 109.425,510.758 227.124,475.809 	"/>
	<polygon fill="#E1C395" points="227.124,475.809 109.425,510.758 0,475.809 127.325,0 	"/>
	<polygon fill="#B29B7F" points="127.325,0 96.554,13.833 96.333,97.191 	"/>
	<polygon fill="#C4A59B" points="113.309,118.361 96.333,97.191 127.325,0 	"/>
	<polygon fill="#A97F59" points="96.333,97.191 50.842,152.205 96.554,13.833 	"/>
	<polygon fill="#CBA57C" points="96.333,97.191 82.428,346.182 50.842,152.205 	"/>
	<polygon fill="#A97F59" points="0,475.809 82.428,346.182 50.842,152.205 	"/>
	<polygon fill="#B08950" points="227.124,475.809 82.428,346.182 113.309,118.361 	"/>
	<polygon fill="#946B37" points="113.309,118.361 96.333,97.191 82.428,346.182 	"/>
</g>
<path fill="#A98965" d="M154.089,338.564"/>
</svg>
