<?xml version="1.0" encoding="utf-8"?>
<!-- Generator: Adobe Illustrator 16.0.1, SVG Export Plug-In . SVG Version: 6.00 Build 0)  -->
<!DOCTYPE svg PUBLIC "-//W3C//DTD SVG 1.1//EN" "http://www.w3.org/Graphics/SVG/1.1/DTD/svg11.dtd">
<svg version="1.1" id="Layer_1" xmlns="http://www.w3.org/2000/svg" xmlns:xlink="http://www.w3.org/1999/xlink" x="0px" y="0px"
	 width="1500px" height="1500px" viewBox="0 0 1500 1500" enable-background="new 0 0 1500 1500" xml:space="preserve">
<g id="Neptune">
	<g id="FG_3_">
		<g>
			<defs>
				<path id="SVGID_1_" d="M1219.139,579.331c-21.715,21.38-56.925,21.38-78.641,0c-21.715-21.377-21.715-56.036,0-77.417
					c21.716-21.377,56.922-21.377,78.641,0.003C1240.855,523.292,1240.855,557.954,1219.139,579.331z"/>
			</defs>
			<clipPath id="SVGID_2_">
				<use xlink:href="#SVGID_1_"  overflow="visible"/>
			</clipPath>
			<polygon clip-path="url(#SVGID_2_)" fill="#46442D" points="1210.904,571.103 1150.099,619.987 1115.647,542.467 			"/>
			<polygon clip-path="url(#SVGID_2_)" fill="#6B6331" points="1237.084,600.189 1210.904,571.103 1150.099,619.987 			"/>
			<path clip-path="url(#SVGID_2_)" fill="#47452B" d="M1262.054,512.693"/>
			<polygon clip-path="url(#SVGID_2_)" fill="#47452B" points="1210.904,571.103 1184.754,474.555 1262.054,512.693 			"/>
			<polygon clip-path="url(#SVGID_2_)" fill="#26322C" points="1184.754,474.555 1210.904,571.103 1115.647,542.467 			"/>
			<polygon clip-path="url(#SVGID_2_)" fill="#26322C" points="1262.054,512.693 1202.732,451.464 1184.754,474.555 			"/>
			<line clip-path="url(#SVGID_2_)" fill="#736D2E" x1="1237.084" y1="600.189" x2="1210.904" y2="571.103"/>
			<polygon clip-path="url(#SVGID_2_)" fill="#292F32" points="1150.099,619.987 1082.227,543.251 1115.647,542.467 			"/>
			<path clip-path="url(#SVGID_2_)" fill="#0B132D" d="M1171.643,469.785"/>
			<polygon clip-path="url(#SVGID_2_)" fill="#0B132D" points="1202.732,451.464 1184.754,474.555 1111.157,471.629 			"/>
			<g clip-path="url(#SVGID_2_)">
				<g>
					<path fill="#0B132D" d="M1120.866,498.255c0.858,0,2.002-1.303,0.696-1.303C1120.704,496.953,1119.56,498.255,1120.866,498.255
						L1120.866,498.255z"/>
				</g>
			</g>
			<polygon clip-path="url(#SVGID_2_)" fill="#0D1225" points="1184.754,474.555 1115.647,542.467 1111.157,471.629 			"/>
			<polygon clip-path="url(#SVGID_2_)" fill="#0D1321" points="1115.647,542.467 1082.227,543.251 1111.157,471.629 			"/>
			<line clip-path="url(#SVGID_2_)" fill="#8E8239" x1="1235.208" y1="543.241" x2="1262.015" y2="512.562"/>
			<polygon clip-path="url(#SVGID_2_)" fill="#CF8936" points="1210.45,570.953 1149.647,619.839 1115.196,542.317 			"/>
			<polygon clip-path="url(#SVGID_2_)" fill="#634E1F" points="1236.632,600.037 1210.45,570.953 1149.647,619.839 			"/>
			<path clip-path="url(#SVGID_2_)" fill="#47452B" d="M1261.601,512.539"/>
			<polygon clip-path="url(#SVGID_2_)" fill="#99753C" points="1210.45,570.953 1184.305,474.404 1261.601,512.539 			"/>
			<path clip-path="url(#SVGID_2_)" fill="#26322C" d="M1115.196,542.317"/>
			<polygon clip-path="url(#SVGID_2_)" fill="#BA9D46" points="1184.305,474.404 1210.45,570.953 1115.196,542.317 			"/>
			<polygon clip-path="url(#SVGID_2_)" fill="#AE7B3F" points="1261.601,512.539 1202.276,451.312 1184.305,474.404 			"/>
			<polygon clip-path="url(#SVGID_2_)" fill="#8F703E" points="1261.601,512.539 1252.605,554.267 1236.632,600.037 
				1210.45,570.953 			"/>
			<polygon clip-path="url(#SVGID_2_)" fill="#5D431B" points="1149.647,619.839 1107.577,592.848 1081.774,543.097 
				1115.196,542.317 			"/>
			<path clip-path="url(#SVGID_2_)" fill="#0B132D" d="M1171.194,469.638"/>
			<polygon clip-path="url(#SVGID_2_)" fill="#E1BE62" points="1202.732,451.464 1184.754,474.555 1111.157,471.629 			"/>
			<g clip-path="url(#SVGID_2_)">
				<g>
					<path fill="#0B132D" d="M1120.413,498.109c0.858,0,2.002-1.303,0.696-1.303
						C1120.251,496.807,1119.107,498.109,1120.413,498.109L1120.413,498.109z"/>
				</g>
			</g>
			<polygon clip-path="url(#SVGID_2_)" fill="#ECD087" points="1184.305,474.404 1115.196,542.317 1108.597,518.35 
				1104.809,505.703 1110.705,471.486 			"/>
			<polygon clip-path="url(#SVGID_2_)" fill="#E1A03E" points="1115.433,542.834 1081.774,543.097 1110.925,470.328 
				1105.065,505.873 1109.007,518.11 			"/>
			<line clip-path="url(#SVGID_2_)" fill="#8E8239" x1="1234.757" y1="543.097" x2="1261.561" y2="512.413"/>
			<polygon clip-path="url(#SVGID_2_)" fill="#7B4E21" points="1202.567,451.264 1238.878,477.288 1221.86,493.048 			"/>
			<polygon clip-path="url(#SVGID_2_)" fill="#926F2D" points="1238.878,477.288 1262.054,512.823 1221.56,492.824 			"/>
			<polygon clip-path="url(#SVGID_2_)" fill="#8F682C" points="1107.577,592.848 1115.625,542.806 1081.705,543.095 			"/>
			<polygon clip-path="url(#SVGID_2_)" fill="#FFC440" points="1184.282,474.45 1160.383,511.971 1154.778,494.909 			"/>
			<polygon clip-path="url(#SVGID_2_)" fill="#BCA381" points="1244.883,531.614 1196.447,519.502 1210.542,571.057 			"/>
			<polygon clip-path="url(#SVGID_2_)" fill="#9D6327" points="1262.054,512.823 1244.883,531.614 1221.945,526.04 			"/>
			<g clip-path="url(#SVGID_2_)">
				<g>
					<path fill="#5B622B" d="M1210.186,527.448c0.596,0,2.098-0.902,0.804-0.902
						C1210.394,526.546,1208.892,527.448,1210.186,527.448L1210.186,527.448z"/>
				</g>
			</g>
			<polygon clip-path="url(#SVGID_2_)" fill="#89682C" points="1244.883,531.614 1240.504,550.792 1210.542,571.057 			"/>
			<path clip-path="url(#SVGID_2_)" fill="#32311A" d="M1262.317,512.413"/>
			<path clip-path="url(#SVGID_2_)" fill="#38371F" d="M1262.054,512.823"/>
			<polygon clip-path="url(#SVGID_2_)" fill="#5B3C23" points="1262.317,512.413 1254.521,561.577 1240.504,550.792 			"/>
			<polygon clip-path="url(#SVGID_2_)" fill="#423C38" points="1236.992,600.41 1254.521,561.577 1250.293,558.413 			"/>
			<polygon clip-path="url(#SVGID_2_)" fill="#68615A" points="1225.942,587.954 1236.903,600.76 1250.293,558.178 			"/>
			<polygon clip-path="url(#SVGID_2_)" fill="#5E452B" points="1236.992,600.41 1194.663,617.804 1198.814,603.369 			"/>
			<polygon clip-path="url(#SVGID_2_)" fill="#6D4E20" points="1150.358,619.765 1195.038,617.806 1198.814,603.369 			"/>
			<polygon clip-path="url(#SVGID_2_)" fill="#EDC569" points="1110.624,470.878 1134.545,472.084 1111.893,481.914 			"/>
			<polygon clip-path="url(#SVGID_2_)" fill="#F79A36" points="1110.624,470.878 1149.131,452.521 1156.495,461.371 			"/>
			<polygon clip-path="url(#SVGID_2_)" fill="#DFBB68" points="1156.495,461.371 1134.545,472.084 1110.624,470.878 			"/>
			<polygon clip-path="url(#SVGID_2_)" fill="#3A3D25" points="1149.131,452.521 1169.865,458.443 1156.495,461.371 			"/>
			<polygon clip-path="url(#SVGID_2_)" fill="#FAC050" points="1110.624,470.878 1101.968,479.387 1105.759,484.465 			"/>
			<polygon clip-path="url(#SVGID_2_)" fill="#C9AD69" points="1203.659,451.484 1170.949,458.952 1150.079,452.753 			"/>
			<polygon clip-path="url(#SVGID_2_)" fill="#F0C376" points="1111.871,480.361 1094.501,498.041 1101.968,479.387 			"/>
			<polygon clip-path="url(#SVGID_2_)" fill="#FFEDCE" points="1081.705,543.095 1094.501,498.041 1098.104,503.304 			"/>
			<polygon clip-path="url(#SVGID_2_)" fill="#F1CB6C" points="1110.383,480.813 1114.923,494.483 1094.501,498.041 			"/>
			<polygon clip-path="url(#SVGID_2_)" fill="#CB8B2A" points="1115.647,542.467 1141.067,550.122 1126.963,536.956 			"/>
			<polygon clip-path="url(#SVGID_2_)" fill="#AE792B" points="1141.067,550.122 1134.663,586.205 1115.647,542.467 			"/>
			<polygon clip-path="url(#SVGID_2_)" fill="#B98D41" points="1149.647,619.839 1129.899,584.967 1115.647,542.467 			"/>
			<polygon clip-path="url(#SVGID_2_)" fill="#AE8A5B" points="1225.942,587.954 1190.643,586.799 1210.629,570.814 			"/>
			<polygon clip-path="url(#SVGID_2_)" fill="#9F7632" points="1210.735,570.67 1198.814,603.369 1149.271,619.979 			"/>
			<polygon clip-path="url(#SVGID_2_)" fill="#E2B983" points="1107.577,592.848 1129.899,584.967 1115.647,542.467 			"/>
			<polygon clip-path="url(#SVGID_2_)" fill="#B68441" points="1174.249,560.064 1149.271,619.979 1210.45,570.953 			"/>
			<path clip-path="url(#SVGID_2_)" fill="#26322C" d="M1084.933,509.426"/>
			<polygon clip-path="url(#SVGID_2_)" fill="#FFECDF" points="1105.038,505.716 1092.851,502.934 1094.685,497.743 
				1104.292,493.404 1109.92,497.19 			"/>
			<polygon clip-path="url(#SVGID_2_)" fill="#EBC04F" points="1109.92,497.19 1104.289,493.191 1123.86,492.269 			"/>
			<polygon clip-path="url(#SVGID_2_)" fill="#EBCBAB" points="1141.831,488.717 1133.699,490.866 1137.739,500.353 
				1144.863,489.646 			"/>
			<polygon clip-path="url(#SVGID_2_)" fill="#4F3A14" points="1135.704,503.448 1133.37,516.548 1148.149,523.593 			"/>
			<polygon clip-path="url(#SVGID_2_)" fill="#DEC382" points="1133.37,516.548 1126.884,522.841 1148.104,523.562 			"/>
			<polygon clip-path="url(#SVGID_2_)" fill="#F1CD54" points="1154.778,494.909 1160.383,511.971 1148.149,523.593 
				1135.323,503.734 1144.863,489.646 			"/>
			<polygon clip-path="url(#SVGID_2_)" fill="#F7D678" points="1123.825,492.229 1104.994,505.796 1109.92,497.19 			"/>
			<path clip-path="url(#SVGID_2_)" fill="#26322C" d="M1121.542,540.812"/>
			<polygon clip-path="url(#SVGID_2_)" fill="#C79F37" points="1140.611,549.996 1126.737,536.875 1127.151,522.577 
				1147.831,523.352 1154.272,524.787 			"/>
			<polygon clip-path="url(#SVGID_2_)" fill="#D9B86B" points="1154.272,524.787 1160.383,511.971 1172.491,518.29 			"/>
			<polygon clip-path="url(#SVGID_2_)" fill="#F9C331" points="1185.417,516.507 1190.708,528.763 1187.544,533.356 
				1172.491,518.29 			"/>
			<polygon clip-path="url(#SVGID_2_)" fill="#A9A198" points="1199.91,513.682 1185.417,516.507 1190.706,528.933 
				1200.033,514.907 			"/>
			<polyline clip-path="url(#SVGID_2_)" fill="#AD924E" points="1213.025,521.797 1210.51,570.603 1187.544,533.356 
				1200.033,514.907 1213.773,522.04 			"/>
			<polygon clip-path="url(#SVGID_2_)" fill="#E5BD60" points="1172.491,518.29 1147.817,536.062 1154.272,524.787 			"/>
			<polygon clip-path="url(#SVGID_2_)" fill="#E8BF47" points="1144.863,489.646 1184.3,474.43 1154.778,494.909 			"/>
			<polygon clip-path="url(#SVGID_2_)" fill="#D8B842" points="1141.831,488.717 1133.924,472.432 1184.3,474.43 1144.955,489.924 
							"/>
			<polygon clip-path="url(#SVGID_2_)" fill="#E0B553" points="1123.914,492.229 1119.253,478.574 1111.108,481.947 
				1112.137,493.339 			"/>
			<polygon clip-path="url(#SVGID_2_)" fill="#BC9237" points="1190.542,528.4 1221.945,526.04 1205.113,484.858 			"/>
			<polygon clip-path="url(#SVGID_2_)" fill="#BFA343" points="1190.708,528.763 1185.417,516.507 1205.113,484.858 			"/>
			<polygon clip-path="url(#SVGID_2_)" fill="#FABF21" points="1205.113,484.858 1160.383,511.971 1172.491,518.29 
				1185.417,516.507 			"/>
			<polygon clip-path="url(#SVGID_2_)" fill="#5B3C23" points="1221.945,526.04 1221.56,492.824 1240.858,501.653 			"/>
			<polygon clip-path="url(#SVGID_2_)" fill="#BA964A" points="1187.544,533.356 1174.249,560.064 1172.491,518.29 			"/>
			<polygon clip-path="url(#SVGID_2_)" fill="#D4A951" points="1147.817,536.062 1140.611,549.996 1174.249,560.064 			"/>
			<polygon clip-path="url(#SVGID_2_)" fill="#EAE2CB" points="1126.884,522.841 1115.647,542.467 1127.14,537.094 			"/>
			<polygon clip-path="url(#SVGID_2_)" fill="#777964" points="1133.37,516.548 1104.994,505.796 1126.884,522.841 			"/>
			<polygon clip-path="url(#SVGID_2_)" fill="#E6C15C" points="1104.809,505.703 1135.323,503.734 1137.735,500.227 
				1133.699,490.866 1123.825,492.229 1123.86,492.263 			"/>
			<polygon clip-path="url(#SVGID_2_)" fill="#A5762B" points="1134.33,584.939 1174.249,560.064 1149.348,621.762 			"/>
		</g>
		<g>
			<defs>
				<path id="SVGID_3_" d="M935.501,930.459c0-28.522,23.488-51.645,52.456-51.645c28.973,0,52.459,23.123,52.459,51.645
					c0,28.521-23.487,51.642-52.459,51.642C958.989,982.102,935.501,958.98,935.501,930.459z"/>
			</defs>
			<clipPath id="SVGID_4_">
				<use xlink:href="#SVGID_3_"  overflow="visible"/>
			</clipPath>
			<polygon clip-path="url(#SVGID_4_)" fill="#E0B553" points="976.203,842.412 986.181,831.632 979.141,826.201 969.404,832.702 
							"/>
			<polygon clip-path="url(#SVGID_4_)" fill="#46442D" points="948.116,956.988 874.261,928.075 926.986,859.929 			"/>
			<polygon clip-path="url(#SVGID_4_)" fill="#6B6331" points="934.854,994.103 948.116,956.988 874.261,928.075 			"/>
			<path clip-path="url(#SVGID_4_)" fill="#47452B" d="M1025.778,972.797"/>
			<polygon clip-path="url(#SVGID_4_)" fill="#47452B" points="948.116,956.988 1022.022,886.707 1025.778,972.797 			"/>
			<polygon clip-path="url(#SVGID_4_)" fill="#26322C" points="1022.022,886.707 948.116,956.988 926.986,859.929 			"/>
			<polygon clip-path="url(#SVGID_4_)" fill="#26322C" points="1025.778,972.797 1051.62,891.001 1022.022,886.707 			"/>
			<line clip-path="url(#SVGID_4_)" fill="#736D2E" x1="934.854" y1="994.103" x2="948.116" y2="956.988"/>
			<polygon clip-path="url(#SVGID_4_)" fill="#292F32" points="874.261,928.075 909.837,831.205 926.986,859.929 			"/>
			<path clip-path="url(#SVGID_4_)" fill="#0B132D" d="M1019.858,872.938"/>
			<polygon clip-path="url(#SVGID_4_)" fill="#0B132D" points="1051.62,891.001 1022.022,886.707 988.437,821.162 			"/>
			<g clip-path="url(#SVGID_4_)">
				<g>
					<path fill="#0B132D" d="M969.693,843.353c0.857,0,2.002-1.303,0.696-1.303C969.532,842.05,968.387,843.353,969.693,843.353
						L969.693,843.353z"/>
				</g>
			</g>
			<polygon clip-path="url(#SVGID_4_)" fill="#0D1225" points="1022.022,886.707 926.986,859.929 988.437,821.162 			"/>
			<polygon clip-path="url(#SVGID_4_)" fill="#0D1321" points="926.986,859.929 909.837,831.205 988.437,821.162 			"/>
			<line clip-path="url(#SVGID_4_)" fill="#8E8239" x1="985.114" y1="964.445" x2="1025.877" y2="972.699"/>
			<polygon clip-path="url(#SVGID_4_)" fill="#D1BC9D" points="948.028,956.518 874.179,927.608 926.896,859.46 			"/>
			<polygon clip-path="url(#SVGID_4_)" fill="#AEAFA5" points="934.768,993.631 948.028,956.518 874.179,927.608 			"/>
			<path clip-path="url(#SVGID_4_)" fill="#47452B" d="M1025.692,972.329"/>
			<polygon clip-path="url(#SVGID_4_)" fill="#B59F7B" points="948.028,956.518 1021.935,886.24 1025.692,972.329 			"/>
			<path clip-path="url(#SVGID_4_)" fill="#26322C" d="M926.896,859.46"/>
			<polygon clip-path="url(#SVGID_4_)" fill="#B69C74" points="1021.935,886.24 948.028,956.518 926.896,859.46 			"/>
			<polygon clip-path="url(#SVGID_4_)" fill="#9B735F" points="1025.692,972.329 1051.531,890.535 1021.935,886.24 			"/>
			<polygon clip-path="url(#SVGID_4_)" fill="#C5C6A0" points="1025.692,972.329 983.765,985.027 934.768,993.631 948.028,956.518 
							"/>
			<polygon clip-path="url(#SVGID_4_)" fill="#97969B" points="874.179,927.608 877.737,877.686 909.749,830.742 926.896,859.46 			
				"/>
			<path clip-path="url(#SVGID_4_)" fill="#0B132D" d="M1019.769,872.473"/>
			<polygon clip-path="url(#SVGID_4_)" fill="#85674D" points="1051.62,891.001 1022.022,886.707 988.437,821.162 			"/>
			<g clip-path="url(#SVGID_4_)">
				<g>
					<path fill="#0B132D" d="M969.604,842.892c0.858,0,2.002-1.303,0.696-1.303C969.442,841.589,968.298,842.892,969.604,842.892
						L969.604,842.892z"/>
				</g>
			</g>
			<polygon clip-path="url(#SVGID_4_)" fill="#BD9D76" points="1021.935,886.24 926.896,859.46 945.191,841.921 954.691,832.399 
				988.347,820.696 			"/>
			<polygon clip-path="url(#SVGID_4_)" fill="#B4AC99" points="926.549,859.924 909.749,830.742 989.496,820.324 954.667,832.708 
				945.609,842.164 			"/>
			<line clip-path="url(#SVGID_4_)" fill="#8E8239" x1="985.022" y1="963.982" x2="1025.79" y2="972.236"/>
			<polygon clip-path="url(#SVGID_4_)" fill="#A09D97" points="1051.714,890.764 1046.193,935.194 1023.658,928.126 			"/>
			<polygon clip-path="url(#SVGID_4_)" fill="#C7C2B5" points="1046.193,935.194 1025.662,972.856 1023.707,927.752 			"/>
			<polygon clip-path="url(#SVGID_4_)" fill="#B3B4AD" points="877.737,877.686 926.667,860.077 909.723,830.675 			"/>
			<polygon clip-path="url(#SVGID_4_)" fill="#97724A" points="1021.881,886.24 976.407,883.887 988.983,870.612 			"/>
			<polygon clip-path="url(#SVGID_4_)" fill="#FFFAEC" points="1000.322,967.154 987.379,919.007 947.982,956.648 			"/>
			<polygon clip-path="url(#SVGID_4_)" fill="#D0C6AB" points="1025.662,972.856 1000.322,967.154 994.049,944.435 			"/>
			<g clip-path="url(#SVGID_4_)">
				<g>
					<path fill="#5B622B" d="M987.198,935.458c0.595,0,2.098-0.902,0.804-0.902C987.406,934.556,985.904,935.458,987.198,935.458
						L987.198,935.458z"/>
				</g>
			</g>
			<polygon clip-path="url(#SVGID_4_)" fill="#CAC29A" points="1000.322,967.154 980.933,972.773 947.982,956.648 			"/>
			<path clip-path="url(#SVGID_4_)" fill="#32311A" d="M1026.159,972.887"/>
			<path clip-path="url(#SVGID_4_)" fill="#38371F" d="M1025.662,972.856"/>
			<polygon clip-path="url(#SVGID_4_)" fill="#ACB3AE" points="1026.159,972.887 978.136,990.286 980.933,972.773 			"/>
			<polygon clip-path="url(#SVGID_4_)" fill="#A8B4A1" points="934.614,994.128 978.136,990.286 978.904,985.05 			"/>
			<polygon clip-path="url(#SVGID_4_)" fill="#92AC99" points="940.372,978.376 934.252,994.224 979.115,984.935 			"/>
			<polygon clip-path="url(#SVGID_4_)" fill="#ADBBB6" points="934.614,994.128 898.149,965.822 913.17,962.332 			"/>
			<polygon clip-path="url(#SVGID_4_)" fill="#A2A5A7" points="874.591,928.193 898.335,966.148 913.17,962.332 			"/>
			<polygon clip-path="url(#SVGID_4_)" fill="#9C989B" points="988.853,820.331 1024.297,844.84 1019.967,855.607 			"/>
			<polygon clip-path="url(#SVGID_4_)" fill="#B0ABA3" points="1019.967,855.607 999.534,841.755 988.853,820.331 			"/>
			<polygon clip-path="url(#SVGID_4_)" fill="#957259" points="1024.297,844.84 1029.175,865.81 1019.967,855.607 			"/>
			<polygon clip-path="url(#SVGID_4_)" fill="#849391" points="988.853,820.331 976.94,816.979 974.249,822.778 			"/>
			<polygon clip-path="url(#SVGID_4_)" fill="#8F888F" points="1052.057,891.822 1029.252,867.007 1024.555,845.779 			"/>
			<polygon clip-path="url(#SVGID_4_)" fill="#8B998F" points="980.944,826.085 956.505,819.652 976.94,816.979 			"/>
			<polygon clip-path="url(#SVGID_4_)" fill="#FFEDCE" points="909.723,830.675 956.505,819.652 953.55,825.38 			"/>
			<polygon clip-path="url(#SVGID_4_)" fill="#B2AF9D" points="979.808,825.004 969.755,835.69 956.505,819.652 			"/>
			<polygon clip-path="url(#SVGID_4_)" fill="#CDB797" points="926.986,859.929 932.613,885.835 937.506,867.077 			"/>
			<polygon clip-path="url(#SVGID_4_)" fill="#AE9274" points="932.613,885.835 897.034,898.013 926.986,859.929 			"/>
			<polygon clip-path="url(#SVGID_4_)" fill="#978067" points="874.179,927.608 895.802,893.253 926.986,859.929 			"/>
			<polygon clip-path="url(#SVGID_4_)" fill="#CED0C5" points="940.372,978.376 924.043,947.064 948.238,956.603 			"/>
			<polygon clip-path="url(#SVGID_4_)" fill="#C3C6C5" points="948.421,956.625 913.17,962.332 873.864,927.352 			"/>
			<polygon clip-path="url(#SVGID_4_)" fill="#927873" points="877.737,877.686 895.802,893.253 926.986,859.929 			"/>
			<polygon clip-path="url(#SVGID_4_)" fill="#C3B7A1" points="940.002,919.629 873.864,927.352 948.028,956.518 			"/>
			<path clip-path="url(#SVGID_4_)" fill="#26322C" d="M941.566,816.919"/>
			<polygon clip-path="url(#SVGID_4_)" fill="#A2A999" points="954.791,832.61 951.297,820.622 956.867,819.665 965.494,825.899 
				964.854,832.665 			"/>
			<polygon clip-path="url(#SVGID_4_)" fill="#BFB59A" points="964.854,832.665 965.677,825.794 976.141,842.383 			"/>
			<polygon clip-path="url(#SVGID_4_)" fill="#EBCBAB" points="988.172,856.29 982.241,850.264 975.705,858.449 988.828,859.385 			
				"/>
			<polygon clip-path="url(#SVGID_4_)" fill="#BAA689" points="971.919,858.202 959,862.615 959.94,878.952 			"/>
			<polygon clip-path="url(#SVGID_4_)" fill="#DEC382" points="959,862.615 950.152,860.06 959.94,878.897 			"/>
			<polygon clip-path="url(#SVGID_4_)" fill="#B69169" points="988.983,870.612 976.407,883.887 959.94,878.952 971.479,858.012 
				988.828,859.385 			"/>
			<polygon clip-path="url(#SVGID_4_)" fill="#C2AC8D" points="976.164,842.334 954.7,832.61 964.854,832.665 			"/>
			<path clip-path="url(#SVGID_4_)" fill="#26322C" d="M931.37,864.254"/>
			<polygon clip-path="url(#SVGID_4_)" fill="#B68E65" points="932.501,885.374 937.468,866.838 950.52,860.163 960.001,878.556 
				961.88,884.87 			"/>
			<polygon clip-path="url(#SVGID_4_)" fill="#A9845B" points="961.88,884.87 976.407,883.887 976.681,897.542 			"/>
			<polygon clip-path="url(#SVGID_4_)" fill="#D3AF76" points="984.644,907.93 976.231,918.563 970.543,918.065 976.681,897.542 			
				"/>
			<polygon clip-path="url(#SVGID_4_)" fill="#A9A198" points="994.313,919.159 984.644,907.93 976.082,918.641 993.273,919.869 			
				"/>
			<polyline clip-path="url(#SVGID_4_)" fill="#C8A87A" points="993.477,934.576 948.371,956.394 970.543,918.065 993.273,919.869 
				993.623,935.349 			"/>
			<polygon clip-path="url(#SVGID_4_)" fill="#C5A77E" points="976.681,897.542 948.569,884.8 961.88,884.87 			"/>
			<polygon clip-path="url(#SVGID_4_)" fill="#A68666" points="988.828,859.385 1021.91,886.251 988.983,870.612 			"/>
			<polygon clip-path="url(#SVGID_4_)" fill="#B6A790" points="988.172,856.29 998.923,841.39 1021.91,886.251 988.625,859.602 			
				"/>
			<polygon clip-path="url(#SVGID_4_)" fill="#B5946C" points="976.474,918.24 994.049,944.435 1022.774,909.509 			"/>
			<polygon clip-path="url(#SVGID_4_)" fill="#A6794E" points="976.231,918.563 984.644,907.93 1022.774,909.509 			"/>
			<polygon clip-path="url(#SVGID_4_)" fill="#C9AE8A" points="1022.774,909.509 976.407,883.887 976.681,897.542 984.644,907.93 
							"/>
			<polygon clip-path="url(#SVGID_4_)" fill="#A47751" points="994.049,944.435 1023.707,927.752 1025.271,948.904 			"/>
			<polygon clip-path="url(#SVGID_4_)" fill="#C4A678" points="970.543,918.065 940.002,919.629 976.681,897.542 			"/>
			<polygon clip-path="url(#SVGID_4_)" fill="#DFCEAB" points="948.569,884.8 932.501,885.374 940.002,919.629 			"/>
			<polygon clip-path="url(#SVGID_4_)" fill="#EAE2CB" points="950.152,860.06 926.986,859.929 937.468,867.297 			"/>
			<polygon clip-path="url(#SVGID_4_)" fill="#777964" points="959,862.615 954.7,832.61 950.152,860.06 			"/>
			<polygon clip-path="url(#SVGID_4_)" fill="#B6926A" points="954.691,832.399 971.479,858.012 975.815,858.387 982.241,850.264 
				976.164,842.334 976.146,842.383 			"/>
			<polygon clip-path="url(#SVGID_4_)" fill="#B4A391" points="898.003,897.102 940.002,919.629 872.296,928.298 			"/>
			<polygon clip-path="url(#SVGID_4_)" fill="#BBAE97" points="985.391,810.631 999.534,841.755 977.928,824.494 			"/>
		</g>
		<g>
			<defs>
				
					<ellipse id="SVGID_5_" transform="matrix(0.7071 0.7071 -0.7071 0.7071 844.5417 172.2195)" cx="214.384" cy="1105.562" rx="91.745" ry="90.318"/>
			</defs>
			<clipPath id="SVGID_6_">
				<use xlink:href="#SVGID_5_"  overflow="visible"/>
			</clipPath>
			<polygon clip-path="url(#SVGID_6_)" fill="#E0B553" points="154.12,1144.841 137.94,1145.461 139.194,1155.186 151.849,1157.703 
							"/>
			<polygon clip-path="url(#SVGID_6_)" fill="#46442D" points="265.322,1077.424 300.36,1157.525 206.14,1169.549 			"/>
			<polygon clip-path="url(#SVGID_6_)" fill="#6B6331" points="304.592,1058.831 265.322,1077.424 300.36,1157.525 			"/>
			<path clip-path="url(#SVGID_6_)" fill="#47452B" d="M217.109,1004.56"/>
			<polygon clip-path="url(#SVGID_6_)" fill="#47452B" points="265.322,1077.424 152.931,1074.596 217.109,1004.56 			"/>
			<polygon clip-path="url(#SVGID_6_)" fill="#26322C" points="152.931,1074.596 265.322,1077.424 206.14,1169.549 			"/>
			<polygon clip-path="url(#SVGID_6_)" fill="#26322C" points="217.109,1004.56 133.21,1048.176 152.931,1074.596 			"/>
			<line clip-path="url(#SVGID_6_)" fill="#736D2E" x1="304.592" y1="1058.831" x2="265.322" y2="1077.424"/>
			<polygon clip-path="url(#SVGID_6_)" fill="#292F32" points="300.36,1157.525 197.117,1205.308 206.14,1169.549 			"/>
			<path clip-path="url(#SVGID_6_)" fill="#0B132D" d="M143.887,1087.014"/>
			<polygon clip-path="url(#SVGID_6_)" fill="#0B132D" points="133.21,1048.176 152.931,1074.596 128.022,1151.864 			"/>
			<g clip-path="url(#SVGID_6_)">
				<g>
					<path fill="#0B132D" d="M158.802,1150.066c0.858,0,2.002-1.303,0.696-1.303
						C158.641,1148.764,157.496,1150.066,158.802,1150.066L158.802,1150.066z"/>
				</g>
			</g>
			<polygon clip-path="url(#SVGID_6_)" fill="#0D1225" points="152.931,1074.596 206.14,1169.549 128.022,1151.864 			"/>
			<polygon clip-path="url(#SVGID_6_)" fill="#0D1321" points="206.14,1169.549 197.117,1205.308 128.022,1151.864 			"/>
			<line clip-path="url(#SVGID_6_)" fill="#8E8239" x1="242.303" y1="1042.767" x2="216.959" y2="1004.559"/>
			<polygon clip-path="url(#SVGID_6_)" fill="#7E7165" points="265.029,1077.854 300.064,1157.957 205.847,1169.981 			"/>
			<polygon clip-path="url(#SVGID_6_)" fill="#837F84" points="304.296,1059.263 265.029,1077.854 300.064,1157.957 			"/>
			<path clip-path="url(#SVGID_6_)" fill="#47452B" d="M216.81,1004.989"/>
			<polygon clip-path="url(#SVGID_6_)" fill="#DBCAC5" points="265.029,1077.854 152.638,1075.027 216.81,1004.989 			"/>
			<path clip-path="url(#SVGID_6_)" fill="#26322C" d="M205.847,1169.981"/>
			<polygon clip-path="url(#SVGID_6_)" fill="#695B48" points="152.638,1075.027 265.029,1077.854 205.847,1169.981 			"/>
			<polygon clip-path="url(#SVGID_6_)" fill="#DECEC0" points="216.81,1004.989 132.913,1048.61 152.638,1075.027 			"/>
			<polygon clip-path="url(#SVGID_6_)" fill="#D1C4C8" points="216.81,1004.989 259.394,1027.78 304.296,1059.263 265.029,1077.854 
							"/>
			<polygon clip-path="url(#SVGID_6_)" fill="#3F3A2F" points="300.064,1157.957 258.374,1194.095 196.823,1205.738 
				205.847,1169.981 			"/>
			<path clip-path="url(#SVGID_6_)" fill="#0B132D" d="M143.595,1087.442"/>
			<polygon clip-path="url(#SVGID_6_)" fill="#8A786A" points="133.21,1048.176 152.931,1074.596 128.022,1151.864 			"/>
			<g clip-path="url(#SVGID_6_)">
				<g>
					<path fill="#0B132D" d="M158.51,1150.498c0.857,0,2.002-1.303,0.696-1.303C158.349,1149.195,157.204,1150.498,158.51,1150.498
						L158.51,1150.498z"/>
				</g>
			</g>
			<polygon clip-path="url(#SVGID_6_)" fill="#4F423F" points="152.638,1075.027 205.847,1169.981 177.912,1169.393 
				163.087,1169.411 127.73,1152.3 			"/>
			<polygon clip-path="url(#SVGID_6_)" fill="#675E5C" points="206.476,1169.896 196.823,1205.738 126.539,1151.701 
				163.346,1169.189 177.776,1168.881 			"/>
			<line clip-path="url(#SVGID_6_)" fill="#8E8239" x1="242.01" y1="1043.203" x2="216.668" y2="1004.989"/>
			<polygon clip-path="url(#SVGID_6_)" fill="#C5B3B2" points="132.948,1048.285 171.888,1017.958 183.943,1041.031 			"/>
			<polygon clip-path="url(#SVGID_6_)" fill="#FFFBF6" points="171.888,1017.958 217.249,1004.598 183.613,1041.285 			"/>
			<polygon clip-path="url(#SVGID_6_)" fill="#494139" points="269.609,1160.525 234.764,1144.128 228.245,1168.395 			"/>
			<polygon clip-path="url(#SVGID_6_)" fill="#85796B" points="152.679,1075.067 186.292,1112.354 166.143,1112.894 			"/>
			<polygon clip-path="url(#SVGID_6_)" fill="#FFFAEC" points="232.552,1028.795 205.115,1076.417 265.168,1077.79 			"/>
			<polygon clip-path="url(#SVGID_6_)" fill="#E8D9D5" points="217.249,1004.598 232.552,1028.795 219.734,1051.403 			"/>
			<g clip-path="url(#SVGID_6_)">
				<g>
					<path fill="#5B622B" d="M217.008,1064.229c0.596,0,2.098-0.902,0.804-0.902
						C217.216,1063.327,215.714,1064.229,217.008,1064.229L217.008,1064.229z"/>
				</g>
			</g>
			<polygon clip-path="url(#SVGID_6_)" fill="#C3B9BC" points="232.552,1028.795 252.045,1039.533 265.168,1077.79 			"/>
			<path clip-path="url(#SVGID_6_)" fill="#32311A" d="M216.885,1004.187"/>
			<path clip-path="url(#SVGID_6_)" fill="#38371F" d="M217.249,1004.598"/>
			<polygon clip-path="url(#SVGID_6_)" fill="#E0D6DE" points="216.885,1004.187 267.883,1028.061 252.045,1039.533 			"/>
			<polygon clip-path="url(#SVGID_6_)" fill="#A8B4A1" points="304.809,1058.993 267.883,1028.061 263.206,1031.546 			"/>
			<polygon clip-path="url(#SVGID_6_)" fill="#988D95" points="288.035,1066.786 305.156,1059.2 262.95,1031.472 			"/>
			<polygon clip-path="url(#SVGID_6_)" fill="#ADBBB6" points="304.809,1058.993 311.159,1109.484 296.733,1100.494 			"/>
			<polygon clip-path="url(#SVGID_6_)" fill="#A2A5A7" points="300.193,1157.185 311.271,1109.086 296.733,1100.494 			"/>
			<polygon clip-path="url(#SVGID_6_)" fill="#AB9FA8" points="127.048,1152.189 118.525,1105.457 130.288,1100.438 			"/>
			<polygon clip-path="url(#SVGID_6_)" fill="#BDAFB9" points="130.288,1100.438 135.424,1127.162 127.048,1152.189 			"/>
			<polygon clip-path="url(#SVGID_6_)" fill="#77655E" points="118.525,1105.457 131.067,1085.307 130.288,1100.438 			"/>
			<polygon clip-path="url(#SVGID_6_)" fill="#849391" points="127.048,1152.189 133.714,1164.087 140.338,1161.669 			"/>
			<polygon clip-path="url(#SVGID_6_)" fill="#8F888F" points="133.505,1047.194 131.938,1084.316 119.058,1104.526 			"/>
			<polygon clip-path="url(#SVGID_6_)" fill="#B2A9B0" points="137.696,1153.872 151.733,1177.932 133.714,1164.087 			"/>
			<polygon clip-path="url(#SVGID_6_)" fill="#FFEDCE" points="196.794,1205.807 151.733,1177.932 158.501,1175.774 			"/>
			<polygon clip-path="url(#SVGID_6_)" fill="#867D83" points="137.741,1155.601 153.906,1155.109 151.733,1177.932 			"/>
			<polygon clip-path="url(#SVGID_6_)" fill="#847A69" points="206.14,1169.549 221.949,1144.971 203.507,1155.778 			"/>
			<polygon clip-path="url(#SVGID_6_)" fill="#514738" points="221.949,1144.971 259.177,1163.215 206.14,1169.549 			"/>
			<polygon clip-path="url(#SVGID_6_)" fill="#4C4235" points="300.064,1157.957 256.426,1167.883 206.14,1169.549 			"/>
			<polygon clip-path="url(#SVGID_6_)" fill="#CED0C5" points="288.035,1066.786 276.356,1103.923 264.928,1077.626 			"/>
			<polygon clip-path="url(#SVGID_6_)" fill="#C3C6C5" points="264.805,1077.463 296.733,1100.494 300.104,1158.403 			"/>
			<polygon clip-path="url(#SVGID_6_)" fill="#3C3828" points="258.374,1194.095 256.426,1167.883 206.14,1169.549 			"/>
			<polygon clip-path="url(#SVGID_6_)" fill="#887F86" points="242.53,1112.864 300.104,1158.403 265.029,1077.854 			"/>
			<path clip-path="url(#SVGID_6_)" fill="#26322C" d="M161.246,1191.711"/>
			<polygon clip-path="url(#SVGID_6_)" fill="#978E98" points="163.169,1169.17 156.549,1181.238 151.465,1177.64 149.595,1166.057 
				155.366,1161.283 			"/>
			<polygon clip-path="url(#SVGID_6_)" fill="#87807E" points="155.366,1161.283 149.368,1166.001 154.146,1144.909 			"/>
			<polygon clip-path="url(#SVGID_6_)" fill="#938374" points="155.608,1124.692 155.536,1134.012 167.012,1132.729 
				157.508,1121.766 			"/>
			<polygon clip-path="url(#SVGID_6_)" fill="#463A2D" points="169.765,1135.871 183.278,1142.504 195.282,1129.032 			"/>
			<polygon clip-path="url(#SVGID_6_)" fill="#5F5447" points="183.278,1142.504 188.183,1151.392 195.239,1129.075 			"/>
			<polygon clip-path="url(#SVGID_6_)" fill="#52463A" points="166.143,1112.894 186.292,1112.354 195.282,1129.032 
				169.959,1136.369 157.508,1121.766 			"/>
			<polygon clip-path="url(#SVGID_6_)" fill="#887F85" points="154.092,1144.933 163.236,1169.244 155.366,1161.283 			"/>
			<path clip-path="url(#SVGID_6_)" fill="#26322C" d="M206.094,1162.761"/>
			<polygon clip-path="url(#SVGID_6_)" fill="#716453" points="221.678,1145.413 203.354,1155.997 187.98,1151.02 194.925,1129.299 
				198.386,1122.91 			"/>
			<polygon clip-path="url(#SVGID_6_)" fill="#85796F" points="198.386,1122.91 186.292,1112.354 196.722,1101.492 			"/>
			<polygon clip-path="url(#SVGID_6_)" fill="#9E9188" points="198.607,1087.191 213.454,1085.456 217.504,1090.273 
				196.722,1101.492 			"/>
			<polygon clip-path="url(#SVGID_6_)" fill="#A9A198" points="199.827,1070.899 198.607,1087.191 213.638,1085.511 
				201.196,1071.155 			"/>
			<polyline clip-path="url(#SVGID_6_)" fill="#978776" points="212.497,1059.536 264.665,1077.683 217.504,1090.273 
				201.196,1071.155 212.985,1058.816 			"/>
			<polygon clip-path="url(#SVGID_6_)" fill="#968776" points="196.722,1101.492 208.702,1133.345 198.386,1122.91 			"/>
			<polygon clip-path="url(#SVGID_6_)" fill="#7C6D62" points="157.508,1121.766 152.658,1075.037 166.143,1112.894 			"/>
			<polygon clip-path="url(#SVGID_6_)" fill="#B6A790" points="155.608,1124.692 135.611,1127.929 152.658,1075.037 
				157.839,1121.754 			"/>
			<polygon clip-path="url(#SVGID_6_)" fill="#C5B6AD" points="213.019,1085.519 219.734,1051.403 170.118,1056.23 			"/>
			<polygon clip-path="url(#SVGID_6_)" fill="#9A8A7B" points="213.454,1085.456 198.607,1087.191 170.118,1056.23 			"/>
			<polygon clip-path="url(#SVGID_6_)" fill="#7C6B5B" points="170.118,1056.23 186.292,1112.354 196.722,1101.492 
				198.607,1087.191 			"/>
			<polygon clip-path="url(#SVGID_6_)" fill="#BFAF9E" points="219.734,1051.403 183.613,1041.285 198.883,1023.578 			"/>
			<polygon clip-path="url(#SVGID_6_)" fill="#B9AA9B" points="217.504,1090.273 242.53,1112.864 196.722,1101.492 			"/>
			<polygon clip-path="url(#SVGID_6_)" fill="#948577" points="208.702,1133.345 221.678,1145.413 242.53,1112.864 			"/>
			<polygon clip-path="url(#SVGID_6_)" fill="#463A2D" points="188.183,1151.392 206.14,1169.549 203.716,1155.634 			"/>
			<polygon clip-path="url(#SVGID_6_)" fill="#71676A" points="183.278,1142.504 163.236,1169.244 188.183,1151.392 			"/>
			<polygon clip-path="url(#SVGID_6_)" fill="#5B4D3D" points="163.087,1169.411 169.959,1136.369 166.873,1132.689 
				155.536,1134.012 154.092,1144.933 154.145,1144.908 			"/>
			<polygon clip-path="url(#SVGID_6_)" fill="#716A5E" points="257.703,1163.164 242.53,1112.864 302.064,1158.884 			"/>
			<polygon clip-path="url(#SVGID_6_)" fill="#8D7F89" points="122.184,1162.451 135.424,1127.162 138.814,1157.459 			"/>
		</g>
		<path fill="#AF9A8C" d="M506.572,406.038c0-14.124,11.626-25.566,25.969-25.566c14.344,0,25.973,11.442,25.973,25.566
			c0,14.119-11.629,25.563-25.973,25.563C518.198,431.602,506.572,420.157,506.572,406.038z"/>
		<ellipse fill="#AF9A8C" cx="578.202" cy="994.042" rx="12.129" ry="11.94"/>
		<ellipse fill="#AF9A8C" cx="1206.67" cy="945.042" rx="12.129" ry="11.94"/>
	</g>
</g>
</svg>
