<?xml version="1.0" encoding="utf-8"?>
<!-- Generator: Adobe Illustrator 16.0.1, SVG Export Plug-In . SVG Version: 6.00 Build 0)  -->
<!DOCTYPE svg PUBLIC "-//W3C//DTD SVG 1.1//EN" "http://www.w3.org/Graphics/SVG/1.1/DTD/svg11.dtd">
<svg version="1.1" id="Layer_1" xmlns="http://www.w3.org/2000/svg" xmlns:xlink="http://www.w3.org/1999/xlink" x="0px" y="0px"
	 width="1500px" height="1500px" viewBox="0 0 1500 1500" enable-background="new 0 0 1500 1500" xml:space="preserve">
<g id="Neptune">
	<g id="BG_3_">
		<g id="Flat_Moons_1_">
			<path fill="#7E7165" d="M867.994,1109.369c0-3.353,2.762-6.073,6.167-6.073c3.405,0,6.167,2.72,6.167,6.073
				c0,3.35-2.762,6.066-6.167,6.066C870.756,1115.436,867.994,1112.719,867.994,1109.369z"/>
			<path fill="#7E7165" d="M426.545,493.554c0-3.354,2.76-6.073,6.167-6.073c3.406,0,6.163,2.719,6.163,6.073
				c0,3.352-2.757,6.07-6.163,6.07C429.306,499.624,426.545,496.906,426.545,493.554z"/>
			<path fill="#7E7165" d="M1390.526,1205.288c0-3.352,2.759-6.07,6.166-6.07s6.167,2.718,6.167,6.07
				c0,3.355-2.761,6.073-6.167,6.073S1390.526,1208.644,1390.526,1205.288z"/>
			<ellipse fill="#7E7165" cx="1371.917" cy="1152.077" rx="6.164" ry="6.07"/>
			<ellipse fill="#7E7165" cx="1412.459" cy="508.496" rx="6.165" ry="6.072"/>
			<ellipse fill="#7E7165" cx="871.909" cy="386.544" rx="6.166" ry="6.072"/>
			<ellipse fill="#7E7165" cx="202.978" cy="752.639" rx="13.764" ry="13.553"/>
			<path fill="#7E7165" d="M788.323,284.55c0-7.483,6.159-13.551,13.765-13.551c7.601,0,13.763,6.068,13.763,13.551
				c0,7.485-6.162,13.552-13.763,13.552C794.482,298.102,788.323,292.035,788.323,284.55z"/>
			<path fill="#7E7165" d="M294.821,1200.271c0-7.483,6.162-13.545,13.763-13.545c7.604,0,13.767,6.062,13.767,13.545
				c0,7.487-6.163,13.555-13.767,13.555C300.982,1213.826,294.821,1207.758,294.821,1200.271z"/>
			<path fill="#7E7165" d="M450.48,958.593c0-7.485,6.16-13.552,13.764-13.552c7.602,0,13.763,6.066,13.763,13.552
				c0,7.483-6.161,13.551-13.763,13.551C456.64,972.145,450.48,966.077,450.48,958.593z"/>
			<path fill="#7E7165" d="M1024.815,690.305c0-7.482,6.159-13.547,13.763-13.547c7.603,0,13.764,6.065,13.764,13.547
				c0,7.485-6.161,13.553-13.764,13.553C1030.974,703.858,1024.815,697.791,1024.815,690.305z"/>
			<path fill="#7E7165" d="M78.668,568.304c0-14.124,11.626-25.566,25.969-25.566c14.344,0,25.973,11.442,25.973,25.566
				c0,14.119-11.629,25.563-25.973,25.563C90.294,593.867,78.668,582.422,78.668,568.304z"/>
		</g>
		<g>
			<defs>
				<ellipse id="SVGID_1_" cx="487.805" cy="369.204" rx="44.738" ry="44.041"/>
			</defs>
			<clipPath id="SVGID_2_">
				<use xlink:href="#SVGID_1_"  overflow="visible"/>
			</clipPath>
			<polygon clip-path="url(#SVGID_2_)" fill="#E0B553" points="479.965,419.248 471.303,428.602 477.419,433.318 485.867,427.672 
							"/>
			<polygon clip-path="url(#SVGID_2_)" fill="#46442D" points="504.348,319.785 568.46,344.878 522.693,404.039 			"/>
			<polygon clip-path="url(#SVGID_2_)" fill="#6B6331" points="515.864,287.565 504.348,319.785 568.46,344.878 			"/>
			<path clip-path="url(#SVGID_2_)" fill="#47452B" d="M436.927,306.061"/>
			<polygon clip-path="url(#SVGID_2_)" fill="#47452B" points="504.348,319.785 440.19,380.796 436.927,306.061 			"/>
			<polygon clip-path="url(#SVGID_2_)" fill="#26322C" points="440.19,380.796 504.348,319.785 522.693,404.039 			"/>
			<polygon clip-path="url(#SVGID_2_)" fill="#26322C" points="436.927,306.061 414.499,377.064 440.19,380.796 			"/>
			<line clip-path="url(#SVGID_2_)" fill="#736D2E" x1="515.864" y1="287.565" x2="504.348" y2="319.785"/>
			<polygon clip-path="url(#SVGID_2_)" fill="#292F32" points="568.46,344.878 537.578,428.972 522.693,404.039 			"/>
			<path clip-path="url(#SVGID_2_)" fill="#0B132D" d="M442.07,392.743"/>
			<polygon clip-path="url(#SVGID_2_)" fill="#0B132D" points="414.499,377.064 440.19,380.796 469.344,437.692 			"/>
			<g clip-path="url(#SVGID_2_)">
				<g>
					<path fill="#0B132D" d="M484.969,419.642c0.857,0,2.002-1.303,0.696-1.303C484.808,418.339,483.663,419.642,484.969,419.642
						L484.969,419.642z"/>
				</g>
			</g>
			<polygon clip-path="url(#SVGID_2_)" fill="#0D1225" points="440.19,380.796 522.693,404.039 469.344,437.692 			"/>
			<polygon clip-path="url(#SVGID_2_)" fill="#0D1321" points="522.693,404.039 537.578,428.972 469.344,437.692 			"/>
			<line clip-path="url(#SVGID_2_)" fill="#8E8239" x1="472.234" y1="313.304" x2="436.845" y2="306.14"/>
			<polygon clip-path="url(#SVGID_2_)" fill="#7E7165" points="504.426,320.189 568.535,345.285 522.77,404.443 			"/>
			<polygon clip-path="url(#SVGID_2_)" fill="#837F84" points="515.937,287.971 504.426,320.189 568.535,345.285 			"/>
			<path clip-path="url(#SVGID_2_)" fill="#47452B" d="M437.004,306.464"/>
			<polygon clip-path="url(#SVGID_2_)" fill="#DBCAC5" points="504.426,320.189 440.269,381.197 437.004,306.464 			"/>
			<path clip-path="url(#SVGID_2_)" fill="#26322C" d="M522.77,404.443"/>
			<polygon clip-path="url(#SVGID_2_)" fill="#695B48" points="440.269,381.197 504.426,320.189 522.77,404.443 			"/>
			<polygon clip-path="url(#SVGID_2_)" fill="#DECEC0" points="437.004,306.464 414.575,377.469 440.269,381.197 			"/>
			<polygon clip-path="url(#SVGID_2_)" fill="#D1C4C8" points="437.004,306.464 473.404,295.441 515.937,287.971 504.426,320.189 
							"/>
			<polygon clip-path="url(#SVGID_2_)" fill="#3F3A2F" points="568.535,345.285 565.446,388.623 537.657,429.38 522.77,404.443 			
				"/>
			<path clip-path="url(#SVGID_2_)" fill="#0B132D" d="M442.147,393.147"/>
			<polygon clip-path="url(#SVGID_2_)" fill="#8A786A" points="414.499,377.064 440.19,380.796 469.344,437.692 			"/>
			<g clip-path="url(#SVGID_2_)">
				<g>
					<path fill="#0B132D" d="M485.048,420.046c0.857,0,2.002-1.303,0.696-1.303C484.887,418.744,483.742,420.046,485.048,420.046
						L485.048,420.046z"/>
				</g>
			</g>
			<polygon clip-path="url(#SVGID_2_)" fill="#4F423F" points="440.269,381.197 522.77,404.443 506.884,419.669 498.64,427.934 
				469.423,438.097 			"/>
			<polygon clip-path="url(#SVGID_2_)" fill="#675E5C" points="523.072,404.043 537.657,429.38 468.429,438.425 498.664,427.668 
				506.523,419.462 			"/>
			<line clip-path="url(#SVGID_2_)" fill="#8E8239" x1="472.312" y1="313.708" x2="436.922" y2="306.546"/>
			<polygon clip-path="url(#SVGID_2_)" fill="#C5B3B2" points="414.412,377.273 419.207,338.702 438.771,344.834 			"/>
			<polygon clip-path="url(#SVGID_2_)" fill="#FFFBF6" points="419.207,338.702 437.029,306.002 438.721,345.159 			"/>
			<polygon clip-path="url(#SVGID_2_)" fill="#494139" points="565.446,388.623 522.967,403.91 537.678,429.432 			"/>
			<polygon clip-path="url(#SVGID_2_)" fill="#85796B" points="440.313,381.197 479.793,383.24 468.873,394.765 			"/>
			<polygon clip-path="url(#SVGID_2_)" fill="#FFFAEC" points="459.024,310.955 470.264,352.754 504.468,320.076 			"/>
			<polygon clip-path="url(#SVGID_2_)" fill="#E8D9D5" points="437.029,306.002 459.024,310.955 464.476,330.683 			"/>
			<g clip-path="url(#SVGID_2_)">
				<g>
					<path fill="#5B622B" d="M469.672,339.313c0.596,0,2.098-0.902,0.804-0.902C469.88,338.411,468.378,339.313,469.672,339.313
						L469.672,339.313z"/>
				</g>
			</g>
			<polygon clip-path="url(#SVGID_2_)" fill="#C3B9BC" points="459.024,310.955 475.856,306.079 504.468,320.076 			"/>
			<path clip-path="url(#SVGID_2_)" fill="#32311A" d="M436.597,305.979"/>
			<path clip-path="url(#SVGID_2_)" fill="#38371F" d="M437.029,306.002"/>
			<polygon clip-path="url(#SVGID_2_)" fill="#E0D6DE" points="436.597,305.979 478.287,290.874 475.856,306.079 			"/>
			<polygon clip-path="url(#SVGID_2_)" fill="#A8B4A1" points="516.07,287.537 478.287,290.874 477.624,295.418 			"/>
			<polygon clip-path="url(#SVGID_2_)" fill="#988D95" points="511.075,301.215 516.38,287.457 477.441,295.521 			"/>
			<polygon clip-path="url(#SVGID_2_)" fill="#ADBBB6" points="516.07,287.537 547.725,312.112 534.685,315.141 			"/>
			<polygon clip-path="url(#SVGID_2_)" fill="#A2A5A7" points="568.179,344.78 547.562,311.829 534.685,315.141 			"/>
			<polygon clip-path="url(#SVGID_2_)" fill="#AB9FA8" points="468.987,438.415 438.215,417.138 441.97,407.79 			"/>
			<polygon clip-path="url(#SVGID_2_)" fill="#BDAFB9" points="441.97,407.79 459.714,419.813 468.987,438.415 			"/>
			<polygon clip-path="url(#SVGID_2_)" fill="#77655E" points="438.215,417.138 433.982,398.936 441.97,407.79 			"/>
			<polygon clip-path="url(#SVGID_2_)" fill="#849391" points="468.987,438.415 479.322,441.325 481.666,436.287 			"/>
			<polygon clip-path="url(#SVGID_2_)" fill="#8F888F" points="414.114,376.354 433.913,397.896 437.997,416.32 			"/>
			<polygon clip-path="url(#SVGID_2_)" fill="#B2A9B0" points="475.853,433.421 497.066,439.001 479.322,441.325 			"/>
			<polygon clip-path="url(#SVGID_2_)" fill="#FFEDCE" points="537.678,429.432 497.066,439.001 499.632,434.033 			"/>
			<polygon clip-path="url(#SVGID_2_)" fill="#867D83" points="476.837,434.358 485.564,425.081 497.066,439.001 			"/>
			<polygon clip-path="url(#SVGID_2_)" fill="#847A69" points="522.693,404.039 517.81,381.55 513.559,397.838 			"/>
			<polygon clip-path="url(#SVGID_2_)" fill="#514738" points="517.81,381.55 548.697,370.98 522.693,404.039 			"/>
			<polygon clip-path="url(#SVGID_2_)" fill="#4C4235" points="568.535,345.285 549.767,375.109 522.693,404.039 			"/>
			<polygon clip-path="url(#SVGID_2_)" fill="#CED0C5" points="511.075,301.215 525.248,328.395 504.242,320.115 			"/>
			<polygon clip-path="url(#SVGID_2_)" fill="#C3C6C5" points="504.082,320.094 534.685,315.141 568.806,345.505 			"/>
			<polygon clip-path="url(#SVGID_2_)" fill="#3C3828" points="565.446,388.623 549.767,375.109 522.693,404.039 			"/>
			<polygon clip-path="url(#SVGID_2_)" fill="#887F86" points="511.392,352.211 568.806,345.505 504.426,320.189 			"/>
			<path clip-path="url(#SVGID_2_)" fill="#26322C" d="M510.032,441.376"/>
			<polygon clip-path="url(#SVGID_2_)" fill="#978E98" points="498.557,427.757 501.59,438.158 496.755,438.989 489.262,433.58 
				489.816,427.706 			"/>
			<polygon clip-path="url(#SVGID_2_)" fill="#87807E" points="489.816,427.706 489.103,433.675 480.021,419.271 			"/>
			<polygon clip-path="url(#SVGID_2_)" fill="#938374" points="469.574,407.195 474.727,412.427 480.401,405.322 469.007,404.51 			
				"/>
			<polygon clip-path="url(#SVGID_2_)" fill="#463A2D" points="483.685,405.542 494.904,401.709 494.086,387.521 			"/>
			<polygon clip-path="url(#SVGID_2_)" fill="#5F5447" points="494.904,401.709 502.584,403.925 494.086,387.575 			"/>
			<polygon clip-path="url(#SVGID_2_)" fill="#52463A" points="468.873,394.765 479.793,383.24 494.086,387.521 484.066,405.708 
				469.007,404.51 			"/>
			<polygon clip-path="url(#SVGID_2_)" fill="#887F85" points="480.003,419.312 498.634,427.76 489.816,427.706 			"/>
			<path clip-path="url(#SVGID_2_)" fill="#26322C" d="M518.886,400.285"/>
			<polygon clip-path="url(#SVGID_2_)" fill="#716453" points="517.904,381.949 513.595,398.038 502.264,403.832 494.032,387.869 
				492.403,382.386 			"/>
			<polygon clip-path="url(#SVGID_2_)" fill="#85796F" points="492.403,382.386 479.793,383.24 479.553,371.386 			"/>
			<polygon clip-path="url(#SVGID_2_)" fill="#9E9188" points="472.638,362.373 479.941,353.138 484.877,353.567 479.553,371.386 
							"/>
			<polygon clip-path="url(#SVGID_2_)" fill="#A9A198" points="464.248,352.625 472.638,362.373 480.071,353.071 465.148,352.005 
							"/>
			<polyline clip-path="url(#SVGID_2_)" fill="#978776" points="464.975,339.237 504.131,320.294 484.877,353.567 465.148,352.005 
				464.844,338.569 			"/>
			<polygon clip-path="url(#SVGID_2_)" fill="#968776" points="479.553,371.386 503.959,382.453 492.403,382.386 			"/>
			<polygon clip-path="url(#SVGID_2_)" fill="#7C6D62" points="469.007,404.51 440.286,381.189 468.873,394.765 			"/>
			<polygon clip-path="url(#SVGID_2_)" fill="#B6A790" points="469.574,407.195 460.243,420.133 440.286,381.189 469.183,404.321 
							"/>
			<polygon clip-path="url(#SVGID_2_)" fill="#C5B6AD" points="479.735,353.418 464.476,330.683 439.534,360.998 			"/>
			<polygon clip-path="url(#SVGID_2_)" fill="#9A8A7B" points="479.941,353.138 472.638,362.373 439.534,360.998 			"/>
			<polygon clip-path="url(#SVGID_2_)" fill="#7C6B5B" points="439.534,360.998 479.793,383.24 479.553,371.386 472.638,362.373 			
				"/>
			<polygon clip-path="url(#SVGID_2_)" fill="#BFAF9E" points="464.476,330.683 438.721,345.159 437.37,326.796 			"/>
			<polygon clip-path="url(#SVGID_2_)" fill="#B9AA9B" points="484.877,353.567 511.392,352.211 479.553,371.386 			"/>
			<polygon clip-path="url(#SVGID_2_)" fill="#948577" points="503.959,382.453 517.904,381.949 511.392,352.211 			"/>
			<polygon clip-path="url(#SVGID_2_)" fill="#463A2D" points="502.584,403.925 522.693,404.039 513.595,397.642 			"/>
			<polygon clip-path="url(#SVGID_2_)" fill="#71676A" points="494.904,401.709 498.634,427.76 502.584,403.925 			"/>
			<polygon clip-path="url(#SVGID_2_)" fill="#5B4D3D" points="498.64,427.934 484.066,405.708 480.302,405.376 474.727,412.427 
				480.003,419.312 480.017,419.271 			"/>
			<polygon clip-path="url(#SVGID_2_)" fill="#716A5E" points="547.848,371.77 511.392,352.211 570.167,344.687 			"/>
			<polygon clip-path="url(#SVGID_2_)" fill="#8D7F89" points="471.989,446.833 459.714,419.813 478.469,434.8 			"/>
		</g>
	</g>
</g>
</svg>
