<?xml version="1.0" encoding="utf-8"?>
<!-- Generator: Adobe Illustrator 16.0.0, SVG Export Plug-In . SVG Version: 6.00 Build 0)  -->
<!DOCTYPE svg PUBLIC "-//W3C//DTD SVG 1.1//EN" "http://www.w3.org/Graphics/SVG/1.1/DTD/svg11.dtd">
<svg version="1.1" id="Layer_1" xmlns="http://www.w3.org/2000/svg" xmlns:xlink="http://www.w3.org/1999/xlink" x="0px" y="0px"
	 width="917.22px" height="309.673px" viewBox="0 0 917.22 309.673" enable-background="new 0 0 917.22 309.673"
	 xml:space="preserve">
<g opacity="0.5">
	<defs>
		<path id="SVGID_1_" opacity="0.5" d="M918.281-42.203C857.38-27.928,784.902-21.899,698.646-27.739
			C299.978-54.744,261.944-193.324,1.061-169.269l0.01-247.696c121.491-34.643,287.99-78.297,478.628-4.187
			c200.261,77.852,333.303,87.612,438.573,70.89L918.281-42.203z"/>
	</defs>
	<linearGradient id="SVGID_2_" gradientUnits="userSpaceOnUse" x1="884.3193" y1="-243.5996" x2="33.6897" y2="-243.5995">
		<stop  offset="0" style="stop-color:#282560"/>
		<stop  offset="0.0387" style="stop-color:#292B65"/>
		<stop  offset="0.3996" style="stop-color:#336391"/>
		<stop  offset="0.6904" style="stop-color:#3991BD"/>
		<stop  offset="0.8968" style="stop-color:#3AB2DF"/>
		<stop  offset="1" style="stop-color:#38C2F1"/>
	</linearGradient>
	<use xlink:href="#SVGID_1_"  overflow="visible" fill="url(#SVGID_2_)"/>
	<clipPath id="SVGID_3_">
		<use xlink:href="#SVGID_1_"  overflow="visible"/>
	</clipPath>
	<polygon opacity="0.2" clip-path="url(#SVGID_3_)" fill="#F1F2F2" points="1011.418,27.372 1034.326,-490.926 727.099,-447.284 	
		"/>
	<polygon opacity="0.2" clip-path="url(#SVGID_3_)" fill="#D1D3D4" points="1011.418,27.372 727.099,-447.284 335.85,4.706 	"/>
	<polygon opacity="0.2" clip-path="url(#SVGID_3_)" fill="#F1F2F2" points="335.85,4.706 727.099,-447.284 282.219,-490.926 	"/>
	<polygon opacity="0.2" clip-path="url(#SVGID_3_)" fill="#D1D3D4" points="335.85,4.706 282.219,-490.926 -44.773,-80.326 	"/>
</g>
<g opacity="0.5">
	<defs>
		<path id="SVGID_4_" opacity="0.5" d="M0,254.688c53.596-25.168,141.735-79.953,436.095,12.898
			c167.967,52.982,390.814,67.33,481.125-24.814V25.389C382.877-58.803,0,93.365,0,93.365V254.688z"/>
	</defs>
	<linearGradient id="SVGID_5_" gradientUnits="userSpaceOnUse" x1="906.0234" y1="154.8359" x2="7.38" y2="154.8359">
		<stop  offset="0" style="stop-color:#282560"/>
		<stop  offset="0.0387" style="stop-color:#292B65"/>
		<stop  offset="0.3996" style="stop-color:#336391"/>
		<stop  offset="0.6904" style="stop-color:#3991BD"/>
		<stop  offset="0.8968" style="stop-color:#3AB2DF"/>
		<stop  offset="1" style="stop-color:#38C2F1"/>
	</linearGradient>
	<use xlink:href="#SVGID_4_"  overflow="visible" fill="url(#SVGID_5_)"/>
	<clipPath id="SVGID_6_">
		<use xlink:href="#SVGID_4_"  overflow="visible"/>
	</clipPath>
	<polygon opacity="0.2" clip-path="url(#SVGID_6_)" fill="#F1F2F2" points="-37.631,488.428 223.776,-146.91 -325.136,190.342 	"/>
	<polygon opacity="0.2" clip-path="url(#SVGID_6_)" fill="#E6E7E8" points="-37.631,488.428 223.776,-146.91 659.144,370.193 	"/>
	<polygon opacity="0.2" clip-path="url(#SVGID_6_)" fill="#D1D3D4" points="659.144,370.193 223.776,-146.91 556.119,-257.014 	"/>
	<polygon opacity="0.2" clip-path="url(#SVGID_6_)" fill="#F1F2F2" points="659.144,370.193 556.119,-257.014 963.311,471.703 	"/>
	<polygon opacity="0.2" clip-path="url(#SVGID_6_)" fill="#E6E7E8" points="963.311,471.703 556.119,-257.014 1240.301,151.143 	"/>
</g>
<g opacity="0.5">
	<defs>
		<path id="SVGID_7_" opacity="0.5" d="M918.13,371.419c-52.423-5.603-105.16-5.622-158.856,8.391
			c-140.614,36.693-260.028,97.864-410.132,92.547c-57.218-2.027-218.994-37.567-348.078-33.564l-0.003,67.763
			c131.203,18.393,257.806,73.352,396.08,82.771c87.906,5.989,177.179-45.958,252.835-84.014
			c89.828-45.184,154.404-66.832,255.161-72.476c4.456-0.25,8.914-0.501,13.373-0.751L918.13,371.419z"/>
	</defs>
	<linearGradient id="SVGID_8_" gradientUnits="userSpaceOnUse" x1="1.0605" y1="478.8564" x2="918.5098" y2="478.8564">
		<stop  offset="0" style="stop-color:#282560"/>
		<stop  offset="0.0387" style="stop-color:#292B65"/>
		<stop  offset="0.3996" style="stop-color:#336391"/>
		<stop  offset="0.6904" style="stop-color:#3991BD"/>
		<stop  offset="0.8968" style="stop-color:#3AB2DF"/>
		<stop  offset="1" style="stop-color:#38C2F1"/>
	</linearGradient>
	<use xlink:href="#SVGID_7_"  overflow="visible" fill="url(#SVGID_8_)"/>
	<clipPath id="SVGID_9_">
		<use xlink:href="#SVGID_7_"  overflow="visible"/>
	</clipPath>
	<polygon opacity="0.2" clip-path="url(#SVGID_9_)" fill="#F1F2F2" points="801.562,589.801 662.744,237.895 1087.371,349.136 	"/>
	<polygon opacity="0.2" clip-path="url(#SVGID_9_)" fill="#E6E7E8" points="801.562,589.801 662.744,237.895 328.511,635.461 	"/>
	<polygon opacity="0.2" clip-path="url(#SVGID_9_)" fill="#D1D3D4" points="328.511,635.461 662.744,237.895 219.353,294.242 	"/>
	<polygon opacity="0.2" clip-path="url(#SVGID_9_)" fill="#F1F2F2" points="328.511,635.461 219.353,294.242 29.719,635.461 	"/>
	<polygon opacity="0.2" clip-path="url(#SVGID_9_)" fill="#E6E7E8" points="29.719,635.461 219.353,294.242 -120.612,464.551 	"/>
</g>
</svg>
