<?xml version="1.0" encoding="utf-8"?>
<!-- Generator: Adobe Illustrator 16.0.0, SVG Export Plug-In . SVG Version: 6.00 Build 0)  -->
<!DOCTYPE svg PUBLIC "-//W3C//DTD SVG 1.1//EN" "http://www.w3.org/Graphics/SVG/1.1/DTD/svg11.dtd">
<svg version="1.1" id="Layer_1" xmlns="http://www.w3.org/2000/svg" xmlns:xlink="http://www.w3.org/1999/xlink" x="0px" y="0px"
	 width="917.22px" height="221.889px" viewBox="0 0 917.22 221.889" enable-background="new 0 0 917.22 221.889"
	 xml:space="preserve">
<g opacity="0.5">
	<defs>
		<path id="SVGID_4_" opacity="0.5" d="M-1.061-113.225c53.596-25.168,141.735-79.953,436.095,12.898
			c167.967,52.982,390.814,67.33,481.125-24.814v-217.383c-534.343-84.191-917.22,67.977-917.22,67.977V-113.225z"/>
	</defs>
	<linearGradient id="SVGID_2_" gradientUnits="userSpaceOnUse" x1="904.9629" y1="-213.0762" x2="6.3195" y2="-213.0762">
		<stop  offset="0" style="stop-color:#282560"/>
		<stop  offset="0.0387" style="stop-color:#292B65"/>
		<stop  offset="0.3996" style="stop-color:#336391"/>
		<stop  offset="0.6904" style="stop-color:#3991BD"/>
		<stop  offset="0.8968" style="stop-color:#3AB2DF"/>
		<stop  offset="1" style="stop-color:#38C2F1"/>
	</linearGradient>
	<use xlink:href="#SVGID_4_"  overflow="visible" fill="url(#SVGID_2_)"/>
	<clipPath id="SVGID_3_">
		<use xlink:href="#SVGID_4_"  overflow="visible"/>
	</clipPath>
	<polygon opacity="0.2" clip-path="url(#SVGID_3_)" fill="#F1F2F2" points="-38.692,120.516 222.716,-514.822 -326.196,-177.57 	"/>
	<polygon opacity="0.2" clip-path="url(#SVGID_3_)" fill="#E6E7E8" points="-38.692,120.516 222.716,-514.822 658.083,2.281 	"/>
	<polygon opacity="0.2" clip-path="url(#SVGID_3_)" fill="#D1D3D4" points="658.083,2.281 222.716,-514.822 555.059,-624.926 	"/>
	<polygon opacity="0.2" clip-path="url(#SVGID_3_)" fill="#F1F2F2" points="658.083,2.281 555.059,-624.926 962.25,103.791 	"/>
	<polygon opacity="0.2" clip-path="url(#SVGID_3_)" fill="#E6E7E8" points="962.25,103.791 555.059,-624.926 1239.24,-216.77 	"/>
</g>
<g opacity="0.5">
	<defs>
		<path id="SVGID_7_" opacity="0.5" d="M917.069,3.507c-52.423-5.603-105.16-5.622-158.856,8.391
			c-140.614,36.693-260.028,97.864-410.132,92.547C290.863,102.417,129.087,66.877,0.003,70.88L0,138.643
			c131.203,18.393,257.806,73.352,396.08,82.771c87.906,5.989,177.179-45.958,252.835-84.014
			c89.828-45.184,154.404-66.832,255.161-72.476c4.456-0.25,8.914-0.501,13.373-0.751L917.069,3.507z"/>
	</defs>
	<linearGradient id="SVGID_5_" gradientUnits="userSpaceOnUse" x1="0" y1="110.9443" x2="917.4492" y2="110.9443">
		<stop  offset="0" style="stop-color:#282560"/>
		<stop  offset="0.0387" style="stop-color:#292B65"/>
		<stop  offset="0.3996" style="stop-color:#336391"/>
		<stop  offset="0.6904" style="stop-color:#3991BD"/>
		<stop  offset="0.8968" style="stop-color:#3AB2DF"/>
		<stop  offset="1" style="stop-color:#38C2F1"/>
	</linearGradient>
	<use xlink:href="#SVGID_7_"  overflow="visible" fill="url(#SVGID_5_)"/>
	<clipPath id="SVGID_6_">
		<use xlink:href="#SVGID_7_"  overflow="visible"/>
	</clipPath>
	<polygon opacity="0.2" clip-path="url(#SVGID_6_)" fill="#F1F2F2" points="800.501,221.889 661.684,-130.018 1086.311,-18.776 	"/>
	<polygon opacity="0.2" clip-path="url(#SVGID_6_)" fill="#E6E7E8" points="800.501,221.889 661.684,-130.018 327.45,267.549 	"/>
	<polygon opacity="0.2" clip-path="url(#SVGID_6_)" fill="#D1D3D4" points="327.45,267.549 661.684,-130.018 218.292,-73.67 	"/>
	<polygon opacity="0.2" clip-path="url(#SVGID_6_)" fill="#F1F2F2" points="327.45,267.549 218.292,-73.67 28.659,267.549 	"/>
	<polygon opacity="0.2" clip-path="url(#SVGID_6_)" fill="#E6E7E8" points="28.659,267.549 218.292,-73.67 -121.672,96.639 	"/>
</g>
<g opacity="0.5">
	<defs>
		<path id="SVGID_10_" opacity="0.5" d="M915.092,508.876c-258.818,99.208-543.359,165.565-796.381,127.587
			c-44.746-6.716-84.148-14.221-118.713-22.383L0,246.826c0,0,425.254,122.335,915.098,84.159L915.092,508.876z"/>
	</defs>
	<linearGradient id="SVGID_8_" gradientUnits="userSpaceOnUse" x1="-0.002" y1="447.0674" x2="915.0977" y2="447.0674">
		<stop  offset="0" style="stop-color:#282560"/>
		<stop  offset="0.0387" style="stop-color:#292B65"/>
		<stop  offset="0.3996" style="stop-color:#336391"/>
		<stop  offset="0.6904" style="stop-color:#3991BD"/>
		<stop  offset="0.8968" style="stop-color:#3AB2DF"/>
		<stop  offset="1" style="stop-color:#38C2F1"/>
	</linearGradient>
	<use xlink:href="#SVGID_10_"  overflow="visible" fill="url(#SVGID_8_)"/>
	<clipPath id="SVGID_9_">
		<use xlink:href="#SVGID_10_"  overflow="visible"/>
	</clipPath>
	<polygon opacity="0.2" clip-path="url(#SVGID_9_)" fill="#F1F2F2" points="890.711,239.848 1165.203,797.063 366.295,205.381 	"/>
	<polygon opacity="0.2" clip-path="url(#SVGID_9_)" fill="#D1D3D4" points="366.295,205.381 1165.203,797.063 288.453,889.827 	"/>
	<polygon opacity="0.2" clip-path="url(#SVGID_9_)" fill="#F1F2F2" points="288.453,889.827 366.295,205.381 -362.965,518.543 	"/>
	<polygon opacity="0.2" clip-path="url(#SVGID_9_)" fill="#E6E7E8" points="-362.965,518.543 366.295,205.381 -27.013,53.345 	"/>
</g>
</svg>
