<?xml version="1.0" encoding="utf-8"?>
<!-- Generator: Adobe Illustrator 16.0.0, SVG Export Plug-In . SVG Version: 6.00 Build 0)  -->
<!DOCTYPE svg PUBLIC "-//W3C//DTD SVG 1.1//EN" "http://www.w3.org/Graphics/SVG/1.1/DTD/svg11.dtd">
<svg version="1.1" id="Layer_1" xmlns="http://www.w3.org/2000/svg" xmlns:xlink="http://www.w3.org/1999/xlink" x="0px" y="0px"
	 width="1553.607px" height="513.428px" viewBox="0 0 1553.607 513.428" enable-background="new 0 0 1553.607 513.428"
	 xml:space="preserve">
<g opacity="0.5">
	<defs>
		<path id="SVGID_1_" opacity="0.5" d="M1553.608,954.737c-60.901,14.275-133.379,20.304-219.636,14.464
			c-398.668-27.005-436.701-165.585-697.585-141.529l0.01-247.696c121.491-34.643,287.99-78.297,478.628-4.187
			c200.261,77.852,333.303,87.612,438.573,70.89L1553.608,954.737z"/>
	</defs>
	<linearGradient id="SVGID_2_" gradientUnits="userSpaceOnUse" x1="1519.646" y1="753.3403" x2="669.0164" y2="753.3404">
		<stop  offset="0" style="stop-color:#282560"/>
		<stop  offset="0.0387" style="stop-color:#292B65"/>
		<stop  offset="0.3996" style="stop-color:#336391"/>
		<stop  offset="0.6904" style="stop-color:#3991BD"/>
		<stop  offset="0.8968" style="stop-color:#3AB2DF"/>
		<stop  offset="1" style="stop-color:#38C2F1"/>
	</linearGradient>
	<use xlink:href="#SVGID_1_"  overflow="visible" fill="url(#SVGID_2_)"/>
	<clipPath id="SVGID_3_">
		<use xlink:href="#SVGID_1_"  overflow="visible"/>
	</clipPath>
	<polygon opacity="0.2" clip-path="url(#SVGID_3_)" fill="#F1F2F2" points="1646.745,1024.312 1669.653,506.014 1362.425,549.656 	
		"/>
	<polygon opacity="0.2" clip-path="url(#SVGID_3_)" fill="#F1F2F2" points="971.176,1001.646 1362.425,549.656 917.545,506.014 	"/>
	<polygon opacity="0.2" clip-path="url(#SVGID_3_)" fill="#D1D3D4" points="971.176,1001.646 917.545,506.014 590.553,916.614 	"/>
	<polygon opacity="0.2" clip-path="url(#SVGID_3_)" fill="#BCBEC0" points="590.553,916.614 917.545,506.014 399.952,549.656 	"/>
</g>
<polygon fill="#6079BB" points="1267.076,18.834 765.034,50.196 282.642,0 0,138.185 0,419.876 364.106,510.039 536.791,483.746 
	817.918,513.428 818.133,513.414 818.1,513.428 818.169,513.412 1208.664,488.609 1305.816,499.345 1553.607,407.803 
	1553.607,272.994 1553.607,138.185 "/>
<g>
	<polygon fill="#6988C5" points="270.411,379.244 0,419.876 0,138.185 	"/>
	<path fill="#0F172E" d="M551.541,115.318"/>
	<polygon fill="#6079BB" points="1204.15,355.387 817.918,513.428 270.411,379.244 	"/>
	<polygon fill="#525DA9" points="1553.607,407.803 1396.661,373.41 1204.15,355.387 817.918,513.428 	"/>
	<polygon fill="#5F73B7" points="1204.15,355.387 673.744,114.151 1553.607,138.185 	"/>
	<polygon fill="#6988C5" points="673.744,114.151 1204.15,355.387 270.411,379.244 	"/>
	<polygon fill="#75B4D3" points="1553.607,138.185 765.034,50.196 673.744,114.151 	"/>
	<polygon fill="#5B6AB2" points="1553.607,138.185 1553.607,407.803 1204.15,355.387 	"/>
	<path fill="#0F172E" d="M547.149,115.392"/>
	<polygon fill="#6079BB" points="673.744,114.151 270.411,379.244 0,138.185 	"/>
	<polygon fill="#B6D9E6" points="765.034,50.196 1267.076,18.834 1062.408,124.07 	"/>
	<polygon fill="#6988C5" points="1267.076,18.834 1553.607,138.185 1062.408,124.07 	"/>
	<polygon fill="#5B6AB2" points="364.106,510.039 270.411,379.244 0,419.876 	"/>
	<polygon fill="#5B6AB2" points="673.744,114.151 329.411,216.91 270.411,379.244 	"/>
	<polygon fill="#6988C5" points="1398.744,213.243 921.603,226.881 1204.15,355.387 	"/>
	<polygon fill="#6988C5" points="1553.607,138.185 1398.744,213.243 1167.675,217.026 	"/>
	<polygon fill="#525DA9" points="1167.675,217.026 1062.408,124.07 1553.607,138.185 	"/>
	<polygon fill="#B6D9E6" points="1167.675,217.026 1186.957,233.597 1398.744,213.243 	"/>
	<polygon fill="#525DA9" points="1186.957,233.597 1204.15,355.387 1315.08,259.685 	"/>
	<polygon fill="#75B4D3" points="1186.957,233.597 1020.902,271.456 1167.675,217.026 	"/>
	<polygon fill="#5B6AB2" points="1186.957,233.597 1020.902,271.456 1204.15,355.387 	"/>
	<polygon fill="#6988C5" points="1315.08,259.685 1407.253,265.733 1204.15,355.387 	"/>
	<polygon fill="#6079BB" points="1315.08,259.685 1553.607,138.185 1407.253,265.733 	"/>
	<polygon fill="#B6D9E6" points="1553.607,138.185 1553.607,272.994 1407.253,265.733 	"/>
	<polygon fill="#75B4D3" points="1407.253,265.733 1553.607,272.994 1396.661,373.41 	"/>
	<polygon fill="#6988C5" points="1396.661,373.41 1553.607,407.803 1553.607,272.994 	"/>
	<polygon fill="#6988C5" points="1553.607,407.803 1305.816,499.345 1208.664,488.609 1194.616,459.344 	"/>
	<polygon fill="#5F73B7" points="817.918,513.428 1208.664,488.609 1194.616,459.344 	"/>
	<polygon fill="#6988C5" points="0,138.185 282.642,0 356.376,57.91 	"/>
	<polygon fill="#5B6AB2" points="356.376,57.91 388.26,121.107 0,138.185 	"/>
	<polygon fill="#6988C5" points="0,138.185 673.744,114.151 329.411,216.91 	"/>
	<polygon fill="#75B4D3" points="282.642,0 765.034,50.196 356.376,57.91 	"/>
	<polygon fill="#5F73B7" points="765.034,50.196 388.26,121.107 356.376,57.91 	"/>
	<polygon fill="#525DA9" points="576.325,244.367 543.746,372.26 768.432,366.52 	"/>
	<polygon fill="#5B6AB2" points="817.918,286.877 768.432,366.52 576.325,244.367 	"/>
	<polygon fill="#6988C5" points="817.918,513.428 536.791,483.746 270.411,379.244 	"/>
	<polygon fill="#6079BB" points="1396.661,373.41 1066.86,411.564 1204.15,355.387 	"/>
	<polygon fill="#5B6AB2" points="1194.616,459.344 1396.661,373.41 1553.607,407.803 	"/>
	<polygon fill="#525DA9" points="1066.86,411.564 1089.753,450.886 818.1,513.428 	"/>
	<polygon fill="#5B6AB2" points="1089.753,450.886 1066.86,411.564 1194.616,459.344 	"/>
	<polygon fill="#5F73B7" points="364.106,510.039 536.791,483.746 270.411,379.244 	"/>
	<polygon fill="#B6D9E6" points="576.325,244.023 1204.15,355.387 921.603,226.881 	"/>
	<polyline fill="#6988C5" points="576.325,244.367 543.746,372.26 465.729,250.87 576.325,244.367 	"/>
	<polygon fill="#6988C5" points="837.089,428.743 817.918,513.428 1204.15,355.387 	"/>
	<polygon fill="#6079BB" points="765.034,50.196 673.744,114.151 0,138.185 	"/>
	<polygon fill="#5B6AB2" points="576.325,244.023 543.746,372.26 270.411,379.244 	"/>
</g>
</svg>
