<?xml version="1.0" encoding="utf-8"?>
<!-- Generator: Adobe Illustrator 16.0.1, SVG Export Plug-In . SVG Version: 6.00 Build 0)  -->
<!DOCTYPE svg PUBLIC "-//W3C//DTD SVG 1.1//EN" "http://www.w3.org/Graphics/SVG/1.1/DTD/svg11.dtd">
<svg version="1.1" id="Layer_1" xmlns="http://www.w3.org/2000/svg" xmlns:xlink="http://www.w3.org/1999/xlink" x="0px" y="0px"
	 width="1500px" height="1500px" viewBox="0 0 1500 1500" enable-background="new 0 0 1500 1500" xml:space="preserve">
<g id="Neptune">
	<g id="Planet__x2B__Rings_1_">
		<g opacity="0.74">
			<g>
				<path fill="none" stroke="#E6E7E8" stroke-width="4" stroke-miterlimit="10" d="M1374.235,605.329
					c0.045,0.159,0.09,0.319,0.133,0.479"/>
				<path fill="none" stroke="#E6E7E8" stroke-width="4" stroke-miterlimit="10" stroke-dasharray="0.9958,11.9493" d="
					M1375.653,617.64c-3.521,83.87-258.599,219.644-590.797,311.489c-340.204,94.061-635.71,107.328-672.144,31.664"/>
				<path fill="none" stroke="#E6E7E8" stroke-width="4" stroke-miterlimit="10" d="M110.55,955.224
					c-0.047-0.158-0.094-0.317-0.139-0.477"/>
			</g>
		</g>
		<g opacity="0.74">
			<g>
				<path fill="none" stroke="#E6E7E8" stroke-width="4" stroke-miterlimit="10" d="M1301.642,1147.867
					c-0.102,0.129-0.206,0.258-0.309,0.387"/>
				<path fill="none" stroke="#E6E7E8" stroke-width="4" stroke-miterlimit="10" stroke-dasharray="1.0013,12.0156" d="
					M1292.459,1156.285c-70.563,47.113-333.108-74.16-605.607-282.628c-278.998-213.444-465.441-439.51-425.312-513.334"/>
				<path fill="none" stroke="#E6E7E8" stroke-width="4" stroke-miterlimit="10" d="M264.815,355.283
					c0.101-0.131,0.202-0.261,0.304-0.391"/>
			</g>
		</g>
		<g opacity="0.74">
			<g>
				<path fill="none" stroke="#E6E7E8" stroke-width="4" stroke-miterlimit="10" d="M111.019,505.956
					c0.05-0.158,0.1-0.316,0.152-0.473"/>
				<path fill="none" stroke="#E6E7E8" stroke-width="4" stroke-miterlimit="10" stroke-dasharray="0.9956,11.9473" d="
					M116.587,494.886c49.096-68.627,338.237-46.554,667.992,53.629c337.646,102.581,593.239,249.177,582.184,332.202"/>
				<path fill="none" stroke="#E6E7E8" stroke-width="4" stroke-miterlimit="10" d="M1365.511,886.556
					c-0.047,0.159-0.096,0.317-0.146,0.475"/>
			</g>
		</g>
		<g opacity="0.74">
			<g>
				<path fill="none" stroke="#E6E7E8" stroke-width="4" stroke-miterlimit="10" d="M177.188,1092.686
					c-0.087-0.14-0.173-0.281-0.258-0.422"/>
				<path fill="none" stroke="#E6E7E8" stroke-width="4" stroke-miterlimit="10" stroke-dasharray="1.0026,12.0313" d="
					M172.411,1081.166c-19.677-81.69,188.256-280.579,482.51-457.851c301.379-181.569,582.068-273.433,638.06-210.4"/>
				<path fill="none" stroke="#E6E7E8" stroke-width="4" stroke-miterlimit="10" d="M1296.615,417.711
					c0.089,0.14,0.178,0.28,0.265,0.42"/>
			</g>
		</g>
		<g>
			<defs>
				<path id="SVGID_1_" d="M581.084,512.351c130.13-93.758,310.443-62.604,402.738,69.583
					c92.303,132.186,61.631,315.35-68.503,409.106c-130.129,93.756-310.441,62.602-402.738-69.585
					C420.282,789.269,450.956,606.103,581.084,512.351z"/>
			</defs>
			<clipPath id="SVGID_2_">
				<use xlink:href="#SVGID_1_"  overflow="visible"/>
			</clipPath>
			<path clip-path="url(#SVGID_2_)" fill="#9CBBE2" d="M581.084,512.351c130.13-93.758,310.443-62.604,402.738,69.583
				c92.303,132.186,61.631,315.35-68.503,409.106c-130.129,93.756-310.441,62.602-402.738-69.585
				C420.282,789.269,450.956,606.103,581.084,512.351z"/>
			<polygon clip-path="url(#SVGID_2_)" fill="#BBC8E6" points="1055.545,740.447 1012.675,817.147 1011.424,751.695 			"/>
			<path clip-path="url(#SVGID_2_)" fill="#26322C" d="M773.848,540.599"/>
			<path clip-path="url(#SVGID_2_)" fill="#736D2E" d="M593.417,843.802"/>
			<polygon clip-path="url(#SVGID_2_)" fill="#292F32" points="476.815,587.621 799.787,424.134 773.848,540.599 			"/>
			<path clip-path="url(#SVGID_2_)" fill="#0B132D" d="M976.693,802.312"/>
			<g clip-path="url(#SVGID_2_)">
				<g>
					<path fill="#0B132D" d="M923.544,602.363c0.857,0,2.002-1.303,0.696-1.303C923.383,601.06,922.238,602.363,923.544,602.363
						L923.544,602.363z"/>
				</g>
			</g>
			<polygon clip-path="url(#SVGID_2_)" fill="#0D1321" points="773.848,540.599 799.787,424.134 1022.141,591.107 			"/>
			<line clip-path="url(#SVGID_2_)" fill="#8E8239" x1="668.729" y1="953.941" x2="751.645" y2="1075.406"/>
			<polygon clip-path="url(#SVGID_2_)" fill="#C7EFFF" points="594.695,844.148 477.719,586.2 774.751,539.172 			"/>
			<polygon clip-path="url(#SVGID_2_)" fill="#546F96" points="471.51,905.906 594.695,844.148 477.719,586.2 			"/>
			<polygon clip-path="url(#SVGID_2_)" fill="#8CACDA" points="594.695,844.148 949.896,841.858 752.064,1073.992 			"/>
			<path clip-path="url(#SVGID_2_)" fill="#26322C" d="M774.751,539.172"/>
			<polygon clip-path="url(#SVGID_2_)" fill="#D1E3F4" points="949.896,841.858 785.133,842.939 594.695,844.148 774.751,539.172 
				840.884,723.194 			"/>
			<polygon clip-path="url(#SVGID_2_)" fill="#5C7785" points="752.064,1073.992 1014.19,925.638 949.896,841.858 838.32,971.023 
							"/>
			<polygon clip-path="url(#SVGID_2_)" fill="#40546E" points="752.064,1073.992 471.51,905.906 524.508,877.523 594.695,844.148 
							"/>
			<polygon clip-path="url(#SVGID_2_)" fill="#C4D6EE" points="477.719,586.2 606.911,465.671 800.682,422.706 774.751,539.172 			
				"/>
			<path clip-path="url(#SVGID_2_)" fill="#0B132D" d="M977.598,800.891"/>
			<polygon clip-path="url(#SVGID_2_)" fill="#B5D5F0" points="1014.19,925.638 949.896,841.858 1023.042,589.674 			"/>
			<g clip-path="url(#SVGID_2_)">
				<g>
					<path fill="#0B132D" d="M924.44,600.941c0.858,0,2.002-1.303,0.696-1.303C924.278,599.639,923.134,600.941,924.44,600.941
						L924.44,600.941z"/>
				</g>
			</g>
			<polygon clip-path="url(#SVGID_2_)" fill="#C4D6EE" points="949.896,841.858 840.182,724.533 774.751,539.172 1023.042,589.674 
				999.521,670.941 982.419,743.458 			"/>
			<polygon clip-path="url(#SVGID_2_)" fill="#DEF2FC" points="773.267,540.421 800.682,422.706 1023.042,589.674 914.25,574.353 
							"/>
			<line clip-path="url(#SVGID_2_)" fill="#8E8239" x1="669.622" y1="952.52" x2="752.543" y2="1073.979"/>
			<polygon clip-path="url(#SVGID_2_)" fill="#364154" points="1014.112,926.688 893.193,1028.168 838.32,971.023 			"/>
			<polygon clip-path="url(#SVGID_2_)" fill="#657F9C" points="893.193,1028.168 750.716,1075.288 838.32,971.023 			"/>
			<polygon clip-path="url(#SVGID_2_)" fill="#D9F6FF" points="606.685,467.698 773.576,540.948 800.541,424.505 			"/>
			<polygon clip-path="url(#SVGID_2_)" fill="#9CB4D6" points="700.569,998.302 785.133,842.939 594.695,844.148 			"/>
			<polygon clip-path="url(#SVGID_2_)" fill="#657F9C" points="750.716,1075.288 700.569,998.302 739.464,924.065 			"/>
			<polygon clip-path="url(#SVGID_2_)" fill="#7D9EC8" points="739.464,924.065 838.32,971.023 750.716,1075.288 			"/>
			<polygon clip-path="url(#SVGID_2_)" fill="#BBC8E6" points="700.569,998.302 638.15,965.245 594.695,844.148 			"/>
			<polygon clip-path="url(#SVGID_2_)" fill="#849DBA" points="700.569,998.302 750.716,1075.288 638.15,965.245 			"/>
			<polygon clip-path="url(#SVGID_2_)" fill="#40546E" points="751.896,1076.582 588.912,1003.739 638.15,965.245 			"/>
			<polygon clip-path="url(#SVGID_2_)" fill="#40546E" points="471.51,905.906 588.912,1003.739 607.598,995.465 			"/>
			<polygon clip-path="url(#SVGID_2_)" fill="#849DBA" points="638.15,965.245 613.008,1002.273 524.508,877.523 			"/>
			<polygon clip-path="url(#SVGID_2_)" fill="#5C7785" points="524.508,877.523 471.51,905.906 613.008,1002.273 			"/>
			<polygon clip-path="url(#SVGID_2_)" fill="#40546E" points="471.51,905.906 446.155,744.008 492.419,771.846 			"/>
			<polygon clip-path="url(#SVGID_2_)" fill="#5D6677" points="477.354,588.721 445.832,745.307 492.419,771.846 			"/>
			<polygon clip-path="url(#SVGID_2_)" fill="#9CBBE2" points="1025.201,589.964 999.521,670.941 986.03,584.07 			"/>
			<polygon clip-path="url(#SVGID_2_)" fill="#849DBA" points="1025.201,589.964 1055.545,740.447 1018.713,757.707 			"/>
			<polygon clip-path="url(#SVGID_2_)" fill="#B5D5F0" points="1018.713,757.707 999.521,670.941 1025.201,589.964 			"/>
			<polygon clip-path="url(#SVGID_2_)" fill="#DEF2FC" points="1018.713,757.707 982.419,743.458 999.521,670.941 			"/>
			<polygon clip-path="url(#SVGID_2_)" fill="#BBC8E6" points="1025.201,589.964 1003.252,552.044 982.487,560.449 			"/>
			<polygon clip-path="url(#SVGID_2_)" fill="#5C7785" points="986.03,584.07 982.487,560.449 1025.201,589.964 			"/>
			<polygon clip-path="url(#SVGID_2_)" fill="#40546E" points="1014.112,926.688 1017.363,806.729 1055.545,740.447 			"/>
			<polygon clip-path="url(#SVGID_2_)" fill="#7697C8" points="982.487,560.449 945.275,508.793 1003.252,552.044 			"/>
			<polygon clip-path="url(#SVGID_2_)" fill="#DEF2FC" points="800.765,422.48 945.275,508.793 924.026,516.378 			"/>
			<polygon clip-path="url(#SVGID_2_)" fill="#C7EFFF" points="982.487,560.449 914.25,574.353 945.275,508.793 			"/>
			<polygon clip-path="url(#SVGID_2_)" fill="#BBC8E6" points="924.026,516.378 914.25,574.353 945.275,508.793 			"/>
			<polygon clip-path="url(#SVGID_2_)" fill="#DEF2FC" points="999.521,670.941 914.25,574.353 986.03,584.07 			"/>
			<polygon clip-path="url(#SVGID_2_)" fill="#D1E3F4" points="986.03,584.07 982.487,560.449 914.25,574.353 			"/>
			<polygon clip-path="url(#SVGID_2_)" fill="#C7EFFF" points="773.805,538.921 725.66,621.5 789.418,581.064 			"/>
			<polygon clip-path="url(#SVGID_2_)" fill="#BDD6EF" points="725.66,621.5 606.615,565.677 773.805,538.921 			"/>
			<polygon clip-path="url(#SVGID_2_)" fill="#C4D6EE" points="477.719,586.2 614.975,550.338 773.805,538.921 			"/>
			<polygon clip-path="url(#SVGID_2_)" fill="#B5D5F0" points="524.508,877.523 550.414,782.179 556.604,759.003 594.695,844.148 
							"/>
			<polygon clip-path="url(#SVGID_2_)" fill="#7697C8" points="492.419,771.846 524.508,877.523 471.51,905.906 			"/>
			<polygon clip-path="url(#SVGID_2_)" fill="#BDCFEB" points="594.695,844.148 550.414,782.179 525.04,742.974 477.554,584.767 			
				"/>
			<polygon clip-path="url(#SVGID_2_)" fill="#849DBA" points="525.04,742.974 550.414,782.179 492.419,771.846 			"/>
			<polygon clip-path="url(#SVGID_2_)" fill="#DEF2FC" points="606.911,465.671 614.975,550.338 773.881,538.949 			"/>
			<polygon clip-path="url(#SVGID_2_)" fill="#D9F6FF" points="840.182,724.533 594.695,844.148 785.133,842.939 			"/>
			<polygon clip-path="url(#SVGID_2_)" fill="#DEF2FC" points="791.369,580.345 725.66,621.5 840.182,724.533 			"/>
			<polygon clip-path="url(#SVGID_2_)" fill="#9CBBE2" points="662.911,727.15 477.554,584.767 594.695,844.148 			"/>
			<polygon clip-path="url(#SVGID_2_)" fill="#C7EFFF" points="840.182,724.533 999.521,670.941 914.25,574.353 			"/>
			<polygon clip-path="url(#SVGID_2_)" fill="#D1E3F4" points="773.805,538.921 914.25,574.353 789.418,581.064 			"/>
			<polygon clip-path="url(#SVGID_2_)" fill="#D9F6FF" points="662.911,727.15 606.615,565.677 725.66,621.5 			"/>
			<polygon clip-path="url(#SVGID_2_)" fill="#C4D6EE" points="606.615,565.677 483.849,606.526 512.432,581.051 			"/>
			<polygon clip-path="url(#SVGID_2_)" fill="#7697C8" points="739.464,924.065 594.695,844.148 700.569,998.302 			"/>
			<polygon clip-path="url(#SVGID_2_)" fill="#84ACD6" points="838.32,971.023 785.133,842.939 739.464,924.065 			"/>
			<polygon clip-path="url(#SVGID_2_)" fill="#DEF2FC" points="785.133,842.939 696.996,792.99 594.695,844.148 			"/>
			<polygon clip-path="url(#SVGID_2_)" fill="#C3DCF2" points="696.996,792.99 725.66,621.5 662.911,727.15 			"/>
		</g>
		<g opacity="0.74">
			<g>
				<path fill="none" stroke="#E6E7E8" stroke-width="4" stroke-miterlimit="10" d="M1303.14,424.304
					c0.087,0.14,0.173,0.281,0.259,0.422"/>
				<path fill="none" stroke="#E6E7E8" stroke-width="4" stroke-miterlimit="10" stroke-dasharray="1.0026,12.0312" d="
					M1307.917,435.823c19.679,81.684-188.261,280.572-482.515,457.844c-301.38,181.565-582.064,273.434-638.056,210.402"/>
				<path fill="none" stroke="#E6E7E8" stroke-width="4" stroke-miterlimit="10" d="M183.712,1099.272
					c-0.089-0.139-0.178-0.279-0.265-0.42"/>
			</g>
		</g>
		<g opacity="0.74">
			<g>
				<path fill="none" stroke="#E6E7E8" stroke-width="4" stroke-miterlimit="10" d="M1364.8,895.733
					c-0.049,0.158-0.1,0.315-0.152,0.473"/>
				<path fill="none" stroke="#E6E7E8" stroke-width="4" stroke-miterlimit="10" stroke-dasharray="0.9956,11.9473" d="
					M1359.232,906.803c-49.091,68.629-338.234,46.549-667.994-53.634C353.597,750.594,98.005,603.995,109.057,520.974"/>
				<path fill="none" stroke="#E6E7E8" stroke-width="4" stroke-miterlimit="10" d="M110.308,515.134
					c0.047-0.159,0.096-0.317,0.146-0.475"/>
			</g>
		</g>
		<g opacity="0.74">
			<g>
				<path fill="none" stroke="#E6E7E8" stroke-width="4" stroke-miterlimit="10" d="M268.773,346.947
					c0.102-0.129,0.206-0.258,0.309-0.387"/>
				<path fill="none" stroke="#E6E7E8" stroke-width="4" stroke-miterlimit="10" stroke-dasharray="1.0013,12.0157" d="
					M277.957,338.53c70.566-47.111,333.115,74.153,605.609,282.624c278.999,213.446,465.446,439.511,425.312,513.341"/>
				<path fill="none" stroke="#E6E7E8" stroke-width="4" stroke-miterlimit="10" d="M1305.602,1139.534
					c-0.101,0.131-0.202,0.261-0.304,0.391"/>
			</g>
		</g>
		<g opacity="0.74">
			<g>
				<path fill="none" stroke="#E6E7E8" stroke-width="4" stroke-miterlimit="10" d="M106.094,947.134
					c-0.045-0.159-0.09-0.319-0.133-0.479"/>
				<path fill="none" stroke="#E6E7E8" stroke-width="4" stroke-miterlimit="10" stroke-dasharray="0.9958,11.9493" d="
					M104.676,934.823c3.521-83.871,258.592-219.647,590.793-311.495c340.204-94.058,635.712-107.328,672.144-31.66"/>
				<path fill="none" stroke="#E6E7E8" stroke-width="4" stroke-miterlimit="10" d="M1369.775,597.236
					c0.048,0.158,0.094,0.317,0.14,0.477"/>
			</g>
		</g>
	</g>
</g>
</svg>
