<?xml version="1.0" encoding="utf-8"?>
<!-- Generator: Adobe Illustrator 16.0.0, SVG Export Plug-In . SVG Version: 6.00 Build 0)  -->
<!DOCTYPE svg PUBLIC "-//W3C//DTD SVG 1.1//EN" "http://www.w3.org/Graphics/SVG/1.1/DTD/svg11.dtd">
<svg version="1.1" id="Layer_1" xmlns="http://www.w3.org/2000/svg" xmlns:xlink="http://www.w3.org/1999/xlink" x="0px" y="0px"
	 width="266.558px" height="257.238px" viewBox="0 0 266.558 257.238" enable-background="new 0 0 266.558 257.238"
	 xml:space="preserve">
<g opacity="0.5">
	<defs>
		<path id="SVGID_1_" opacity="0.5" d="M-24.042,390.244c-60.901,14.275-133.379,20.304-219.636,14.464
			c-398.668-27.005-436.701-165.585-697.585-141.529l0.01-247.696c121.491-34.643,287.99-78.297,478.628-4.187
			c200.261,77.852,333.303,87.612,438.573,70.89L-24.042,390.244z"/>
	</defs>
	<linearGradient id="SVGID_2_" gradientUnits="userSpaceOnUse" x1="-58.0039" y1="188.8477" x2="-908.6335" y2="188.8477">
		<stop  offset="0" style="stop-color:#282560"/>
		<stop  offset="0.0387" style="stop-color:#292B65"/>
		<stop  offset="0.3996" style="stop-color:#336391"/>
		<stop  offset="0.6904" style="stop-color:#3991BD"/>
		<stop  offset="0.8968" style="stop-color:#3AB2DF"/>
		<stop  offset="1" style="stop-color:#38C2F1"/>
	</linearGradient>
	<use xlink:href="#SVGID_1_"  overflow="visible" fill="url(#SVGID_2_)"/>
	<clipPath id="SVGID_3_">
		<use xlink:href="#SVGID_1_"  overflow="visible"/>
	</clipPath>
	<polygon opacity="0.2" clip-path="url(#SVGID_3_)" fill="#F1F2F2" points="69.095,459.819 92.003,-58.479 -215.225,-14.837 	"/>
	<polygon opacity="0.2" clip-path="url(#SVGID_3_)" fill="#D1D3D4" points="69.095,459.819 -215.225,-14.837 -606.474,437.153 	"/>
</g>
<g>
	<polygon fill="#CEEBF4" points="159.033,0.001 181.997,10.324 202.749,60.288 211.355,101.84 244.987,173.015 148.042,219.516 
		75.497,173.015 107.229,89.392 	"/>
	<polygon fill="#78A6D3" points="75.497,173.015 59.413,178.576 148.042,219.516 238.444,210.561 264.98,183.737 244.987,173.015 
		180.599,110.833 107.229,89.392 	"/>
	<polygon fill="#5485BA" points="180.599,110.833 75.497,173.015 148.042,219.516 	"/>
	<polygon fill="#5485BA" points="75.497,173.015 148.042,219.516 75.497,173.015 180.599,110.833 	"/>
	<polygon opacity="0.5" fill="#303D77" points="75.497,173.015 148.042,219.516 7.804,254.984 0,231.339 59.413,178.576 	"/>
	<polygon fill="#CEEBF4" points="159.033,0.001 181.997,10.324 173.1,25.876 	"/>
	<polygon fill="#CEEBF4" points="160.431,41.673 173.1,25.876 159.033,0.001 	"/>
	<polygon fill="#B6D9E6" points="173.1,25.876 202.749,60.288 181.997,10.324 	"/>
	<polygon fill="#CEEBF4" points="173.1,25.876 180.599,110.833 202.749,60.288 	"/>
	<polygon fill="#75B4D3" points="244.987,173.015 180.599,110.833 202.749,60.288 211.355,101.84 	"/>
	<polygon fill="#94CEDC" points="75.497,173.015 180.599,110.833 160.431,41.673 107.229,89.392 	"/>
	<polygon fill="#B6D9E6" points="160.431,41.673 173.1,25.876 180.599,110.833 	"/>
</g>
<g opacity="0.5">
	<defs>
		<path id="SVGID_4_" opacity="0.5" d="M-942.323,687.135c53.596-25.168,141.735-79.953,436.095,12.898
			c167.967,52.982,390.814,67.33,481.125-24.814V457.836c-534.343-84.191-917.22,67.977-917.22,67.977V687.135z"/>
	</defs>
	<linearGradient id="SVGID_5_" gradientUnits="userSpaceOnUse" x1="-36.2998" y1="587.2832" x2="-934.9432" y2="587.2831">
		<stop  offset="0" style="stop-color:#282560"/>
		<stop  offset="0.0387" style="stop-color:#292B65"/>
		<stop  offset="0.3996" style="stop-color:#336391"/>
		<stop  offset="0.6904" style="stop-color:#3991BD"/>
		<stop  offset="0.8968" style="stop-color:#3AB2DF"/>
		<stop  offset="1" style="stop-color:#38C2F1"/>
	</linearGradient>
	<use xlink:href="#SVGID_4_"  overflow="visible" fill="url(#SVGID_5_)"/>
	<clipPath id="SVGID_6_">
		<use xlink:href="#SVGID_4_"  overflow="visible"/>
	</clipPath>
	<polygon opacity="0.2" clip-path="url(#SVGID_6_)" fill="#F1F2F2" points="-283.18,802.641 -386.204,175.434 20.987,904.15 	"/>
	<polygon opacity="0.2" clip-path="url(#SVGID_6_)" fill="#E6E7E8" points="20.987,904.15 -386.204,175.434 297.978,583.59 	"/>
</g>
</svg>
