<?xml version="1.0" encoding="utf-8"?>
<!-- Generator: Adobe Illustrator 16.0.0, SVG Export Plug-In . SVG Version: 6.00 Build 0)  -->
<!DOCTYPE svg PUBLIC "-//W3C//DTD SVG 1.1//EN" "http://www.w3.org/Graphics/SVG/1.1/DTD/svg11.dtd">
<svg version="1.1" id="Layer_1" xmlns="http://www.w3.org/2000/svg" xmlns:xlink="http://www.w3.org/1999/xlink" x="0px" y="0px"
	 width="64px" height="64px" viewBox="0 0 64 64" enable-background="new 0 0 64 64" xml:space="preserve">
<g>
	<path fill="#FFFFFF" d="M63.493,31.853c0.055,17.749-13.945,31.998-31.465,32.026C14.786,63.905,0.632,49.811,0.509,32.492
		C0.383,14.771,14.302,0.323,31.694,0.123C49.057-0.078,63.438,14.269,63.493,31.853z M28.792,31.916c0.02,0,0.039,0,0.058,0
		c0-4.056-0.204-8.13-0.204-12.134c0-3.343-1.521-4.186-4.331-4.186c-3.042,0-5.039,0.609-5.039,4.177
		c0,7.706,0.111,15.41,0.049,23.116c-0.027,3.343,1.417,4.724,4.76,4.723c3.357,0,4.814-1.42,4.729-4.748
		C28.719,39.217,28.792,35.564,28.792,31.916z M45.871,31.75c0.023,0,0.046,0,0.069,0c0-3.853-0.07-7.708,0.021-11.559
		c0.079-3.292-1.309-4.806-4.686-4.818c-3.227-0.011-4.967,1.115-4.93,4.564c0.082,7.705,0.116,15.41,0.062,23.118
		c-0.023,3.45,1.673,4.57,4.919,4.554c3.467-0.017,4.654-1.685,4.567-4.909C45.795,39.051,45.871,35.399,45.871,31.75z"/>
</g>
</svg>
