<?xml version="1.0" encoding="utf-8"?>
<!-- Generator: Adobe Illustrator 16.0.0, SVG Export Plug-In . SVG Version: 6.00 Build 0)  -->
<!DOCTYPE svg PUBLIC "-//W3C//DTD SVG 1.1//EN" "http://www.w3.org/Graphics/SVG/1.1/DTD/svg11.dtd">
<svg version="1.1" id="Layer_1" xmlns="http://www.w3.org/2000/svg" xmlns:xlink="http://www.w3.org/1999/xlink" x="0px" y="0px"
	 width="1024px" height="1024px" viewBox="0 0 1024 1024" enable-background="new 0 0 1024 1024" xml:space="preserve">
<g id="FG_1_">
	<g>
		<defs>
			<ellipse id="SVGID_23_" cx="214.508" cy="444.197" rx="45.714" ry="46.201"/>
		</defs>
		<clipPath id="SVGID_2_">
			<use xlink:href="#SVGID_23_"  overflow="visible"/>
		</clipPath>
		<ellipse clip-path="url(#SVGID_2_)" fill="#E5BD60" cx="214.508" cy="444.197" rx="45.145" ry="45.625"/>
		<polygon clip-path="url(#SVGID_2_)" fill="#46442D" points="148.32,437.119 156.218,358.041 236.399,389.752 		"/>
		<polygon clip-path="url(#SVGID_2_)" fill="#6B6331" points="108.848,434.709 148.32,437.119 156.218,358.041 		"/>
		<path clip-path="url(#SVGID_2_)" fill="#47452B" d="M154.118,516.217"/>
		<polygon clip-path="url(#SVGID_2_)" fill="#47452B" points="148.32,437.119 236.312,488.613 154.118,516.217 		"/>
		<polygon clip-path="url(#SVGID_2_)" fill="#26322C" points="236.312,488.613 148.32,437.119 236.399,389.752 		"/>
		<polygon clip-path="url(#SVGID_2_)" fill="#26322C" points="154.118,516.217 240.196,518.273 236.312,488.613 		"/>
		<line clip-path="url(#SVGID_2_)" fill="#736D2E" x1="108.848" y1="434.709" x2="148.32" y2="437.119"/>
		<polygon clip-path="url(#SVGID_2_)" fill="#292F32" points="156.218,358.041 259.51,365.256 236.399,389.752 		"/>
		<path clip-path="url(#SVGID_2_)" fill="#0B132D" d="M249.033,482.695"/>
		<polygon clip-path="url(#SVGID_2_)" fill="#0B132D" points="240.196,518.273 236.312,488.613 290.551,438.049 		"/>
		<g clip-path="url(#SVGID_2_)">
			<g>
				<path fill="#0B132D" d="M264.354,426.877c0.682,0,2.071-1.035,0.768-1.035C264.439,425.842,263.05,426.877,264.354,426.877
					L264.354,426.877z"/>
			</g>
		</g>
		<polygon clip-path="url(#SVGID_2_)" fill="#0D1225" points="236.312,488.613 236.399,389.752 290.551,438.049 		"/>
		<polygon clip-path="url(#SVGID_2_)" fill="#0D1321" points="236.399,389.752 259.51,365.256 290.551,438.049 		"/>
		<line clip-path="url(#SVGID_2_)" fill="#8E8239" x1="151.149" y1="474.779" x2="154.238" y2="516.283"/>
		<polygon clip-path="url(#SVGID_2_)" fill="#CF8936" points="148.748,436.906 156.644,357.824 236.826,389.535 		"/>
		<polygon clip-path="url(#SVGID_2_)" fill="#634E1F" points="109.277,434.496 148.748,436.906 156.644,357.824 		"/>
		<path clip-path="url(#SVGID_2_)" fill="#47452B" d="M154.548,516.002"/>
		<polygon clip-path="url(#SVGID_2_)" fill="#99753C" points="148.748,436.906 236.739,488.398 154.548,516.002 		"/>
		<path clip-path="url(#SVGID_2_)" fill="#26322C" d="M236.826,389.535"/>
		<polygon clip-path="url(#SVGID_2_)" fill="#BA9D46" points="236.739,488.398 148.748,436.906 236.826,389.535 		"/>
		<polygon clip-path="url(#SVGID_2_)" fill="#AE7B3F" points="154.548,516.002 240.623,518.059 236.739,488.398 		"/>
		<polygon clip-path="url(#SVGID_2_)" fill="#8F703E" points="154.548,516.002 130.892,479.217 109.277,434.496 148.748,436.906 		
			"/>
		<polygon clip-path="url(#SVGID_2_)" fill="#5D431B" points="156.644,357.824 205.867,347.336 259.938,365.041 236.826,389.535 		
			"/>
		<path clip-path="url(#SVGID_2_)" fill="#0B132D" d="M249.459,482.48"/>
		<polygon clip-path="url(#SVGID_2_)" fill="#E1BE62" points="240.196,518.273 236.312,488.613 290.551,438.049 		"/>
		<g clip-path="url(#SVGID_2_)">
			<g>
				<path fill="#0B132D" d="M264.541,426.559c0.428,0,2.209-0.828,1.242-0.828C265.355,425.73,263.574,426.559,264.541,426.559
					L264.541,426.559z"/>
			</g>
		</g>
		<polygon clip-path="url(#SVGID_2_)" fill="#ECD087" points="236.739,488.398 236.826,389.535 258.748,402.244 270.53,408.727 
			290.977,437.832 		"/>
		<polygon clip-path="url(#SVGID_2_)" fill="#E1A03E" points="236.288,389.328 259.938,365.041 291.653,438.832 270.227,408.787 
			258.629,402.713 		"/>
		<line clip-path="url(#SVGID_2_)" fill="#8E8239" x1="151.576" y1="474.562" x2="154.663" y2="516.068"/>
		<polygon clip-path="url(#SVGID_2_)" fill="#7B4E21" points="240.453,518.301 196.007,525.371 196.722,501.729 		"/>
		<polygon clip-path="url(#SVGID_2_)" fill="#926F2D" points="196.007,525.371 154.026,516.123 197.097,501.674 		"/>
		<polygon clip-path="url(#SVGID_2_)" fill="#8F682C" points="205.867,347.336 236.171,389.486 259.992,364.996 		"/>
		<polygon clip-path="url(#SVGID_2_)" fill="#FFC440" points="236.725,488.348 226.655,443.957 242.901,452.352 		"/>
		<polygon clip-path="url(#SVGID_2_)" fill="#BCA381" points="152.663,490.164 195.688,464.301 148.609,436.898 		"/>
		<polygon clip-path="url(#SVGID_2_)" fill="#9D6327" points="154.026,516.123 152.663,490.164 172.922,477.797 		"/>
		<g clip-path="url(#SVGID_2_)">
			<g>
				<path fill="#5B622B" d="M179.916,469.547c0.759,0,2.043-1.152,0.736-1.152C179.894,468.395,178.609,469.547,179.916,469.547
					L179.916,469.547z"/>
			</g>
		</g>
		<polygon clip-path="url(#SVGID_2_)" fill="#89682C" points="152.663,490.164 141.969,473.082 148.609,436.898 		"/>
		<path clip-path="url(#SVGID_2_)" fill="#32311A" d="M154.132,516.609"/>
		<path clip-path="url(#SVGID_2_)" fill="#38371F" d="M154.026,516.123"/>
		<polygon clip-path="url(#SVGID_2_)" fill="#5B3C23" points="154.132,516.609 124.278,475.273 141.969,473.082 		"/>
		<polygon clip-path="url(#SVGID_2_)" fill="#423C38" points="108.752,434.484 124.278,475.273 129.549,474.551 		"/>
		<polygon clip-path="url(#SVGID_2_)" fill="#68615A" points="125.54,435.635 108.563,434.164 129.718,474.721 		"/>
		<polygon clip-path="url(#SVGID_2_)" fill="#5E452B" points="108.752,434.484 126.217,391.529 133.666,405.002 		"/>
		<polygon clip-path="url(#SVGID_2_)" fill="#6D4E20" points="156.194,358.385 125.949,391.801 133.666,405.002 		"/>
		<polygon clip-path="url(#SVGID_2_)" fill="#EDC569" points="291.47,438.215 273.658,454.461 282.629,431.098 		"/>
		<polygon clip-path="url(#SVGID_2_)" fill="#F79A36" points="291.47,438.215 277.399,479.133 265.816,477.971 		"/>
		<polygon clip-path="url(#SVGID_2_)" fill="#DFBB68" points="265.816,477.971 273.658,454.461 291.47,438.215 		"/>
		<polygon clip-path="url(#SVGID_2_)" fill="#3A3D25" points="277.399,479.133 258.455,489.67 265.816,477.971 		"/>
		<polygon clip-path="url(#SVGID_2_)" fill="#FAC050" points="291.47,438.215 291.478,425.83 285.138,424.852 		"/>
		<polygon clip-path="url(#SVGID_2_)" fill="#C9AD69" points="239.522,518.924 257.32,490.078 276.561,479.641 		"/>
		<polygon clip-path="url(#SVGID_2_)" fill="#F0C376" points="283.764,432.213 283.344,406.918 291.478,425.83 		"/>
		<polygon clip-path="url(#SVGID_2_)" fill="#FFEDCE" points="259.992,364.996 283.344,406.918 277.007,405.672 		"/>
		<polygon clip-path="url(#SVGID_2_)" fill="#F1CB6C" points="284.495,430.818 271.439,424.129 283.344,406.918 		"/>
		<polygon clip-path="url(#SVGID_2_)" fill="#CB8B2A" points="236.399,389.752 212.887,402.381 232.351,401.859 		"/>
		<polygon clip-path="url(#SVGID_2_)" fill="#AE792B" points="212.887,402.381 191.457,371.559 236.399,389.752 		"/>
		<polygon clip-path="url(#SVGID_2_)" fill="#B98D41" points="156.644,357.824 195.726,369.049 236.399,389.752 		"/>
		<polygon clip-path="url(#SVGID_2_)" fill="#AE8A5B" points="125.54,435.635 151.375,411.203 148.724,437.135 		"/>
		<polygon clip-path="url(#SVGID_2_)" fill="#9F7632" points="148.75,437.314 133.666,405.002 156.81,357.453 		"/>
		<polygon clip-path="url(#SVGID_2_)" fill="#E2B983" points="212.747,369.129 204.26,387.299 238.297,404.621 		"/>
		<polygon clip-path="url(#SVGID_2_)" fill="#B68441" points="182.227,418.908 156.81,357.453 148.748,436.906 		"/>
		<path clip-path="url(#SVGID_2_)" fill="#26322C" d="M281.933,391.789"/>
		<polygon clip-path="url(#SVGID_2_)" fill="#FFECDF" points="270.356,408.879 280.992,402.18 283.427,407.27 279.746,417.303 
			273.035,418.576 		"/>
		<polygon clip-path="url(#SVGID_2_)" fill="#EBC04F" points="273.035,418.576 279.9,417.451 266.703,432.137 		"/>
		<polygon clip-path="url(#SVGID_2_)" fill="#EBCBAB" points="256.528,447.584 260.739,440.199 251.055,436.193 253.713,449.078 		
			"/>
		<polygon clip-path="url(#SVGID_2_)" fill="#4F3A14" points="250.334,432.004 242.497,421.287 226.957,426.746 		"/>
		<polygon clip-path="url(#SVGID_2_)" fill="#DEC382" points="242.497,421.287 242.564,412.068 226.957,426.746 		"/>
		<polygon clip-path="url(#SVGID_2_)" fill="#F1CD54" points="242.901,452.352 226.655,443.957 226.957,426.746 250.334,432.004 
			251.055,436.193 253.713,449.078 		"/>
		<polygon clip-path="url(#SVGID_2_)" fill="#F7D678" points="266.755,432.143 270.333,408.791 273.035,418.576 		"/>
		<path clip-path="url(#SVGID_2_)" fill="#26322C" d="M233.41,395.172"/>
		<polygon clip-path="url(#SVGID_2_)" fill="#C79F37" points="212.887,402.381 232.567,401.756 242.564,412.068 226.957,426.746 
			221.763,430.26 218.221,417.439 		"/>
		<polygon clip-path="url(#SVGID_2_)" fill="#D9B86B" points="221.763,430.26 226.655,443.957 213.531,448.027 		"/>
		<polygon clip-path="url(#SVGID_2_)" fill="#D3AF76" points="205.656,458.58 193.091,453.453 192.027,447.848 213.531,448.027 		
			"/>
		<polygon clip-path="url(#SVGID_2_)" fill="#A9A198" points="197.425,471.01 205.656,458.58 192.975,453.33 196.453,470.205 		"/>
		<polyline clip-path="url(#SVGID_2_)" fill="#AD924E" points="182.295,474.498 148.959,437.199 192.027,447.848 196.453,470.205 
			181.588,474.857 		"/>
		<polygon clip-path="url(#SVGID_2_)" fill="#E5BD60" points="213.531,448.027 218.221,417.439 221.763,430.26 		"/>
		<polygon clip-path="url(#SVGID_2_)" fill="#E8BF47" points="253.713,449.078 236.725,488.379 242.901,452.352 		"/>
		<polygon clip-path="url(#SVGID_2_)" fill="#D8B842" points="256.528,447.584 273.848,453.768 236.725,488.379 253.713,449.078 		
			"/>
		<polygon clip-path="url(#SVGID_2_)" fill="#E0B553" points="266.694,432.203 279.818,438.795 283.16,430.512 274.233,422.963 		
			"/>
		<polygon clip-path="url(#SVGID_2_)" fill="#BC9237" points="193.467,453.596 172.922,477.797 214.478,495.693 		"/>
		<polygon clip-path="url(#SVGID_2_)" fill="#BFA343" points="193.091,453.453 205.656,458.58 214.478,495.693 		"/>
		<polygon clip-path="url(#SVGID_2_)" fill="#D7A94F" points="214.478,495.693 226.655,443.957 213.531,448.027 205.656,458.58 		
			"/>
		<polygon clip-path="url(#SVGID_2_)" fill="#883A27" points="172.922,477.797 197.097,501.674 177.073,509.07 		"/>
		<polygon clip-path="url(#SVGID_2_)" fill="#BA964A" points="192.027,447.848 182.227,418.908 213.531,448.027 		"/>
		<polygon clip-path="url(#SVGID_2_)" fill="#D4A951" points="218.221,417.439 212.887,402.381 182.227,418.908 		"/>
		<polygon clip-path="url(#SVGID_2_)" fill="#EAE2CB" points="242.564,412.068 236.399,389.752 232.123,401.885 		"/>
		<polygon clip-path="url(#SVGID_2_)" fill="#777964" points="242.497,421.287 270.333,408.791 242.564,412.068 		"/>
		<polygon clip-path="url(#SVGID_2_)" fill="#E6C15C" points="270.53,408.727 250.334,432.004 251.055,436.193 260.739,440.199 
			266.755,432.143 266.703,432.141 		"/>
		<polygon clip-path="url(#SVGID_2_)" fill="#A5762B" points="192.604,372.24 182.227,418.908 155.47,356.211 		"/>
	</g>
	<g>
		<defs>
			<ellipse id="SVGID_25_" cx="824.624" cy="811.859" rx="36.368" ry="36.756"/>
		</defs>
		<clipPath id="SVGID_4_">
			<use xlink:href="#SVGID_25_"  overflow="visible"/>
		</clipPath>
		<ellipse clip-path="url(#SVGID_4_)" fill="#B69C74" cx="824.624" cy="811.859" rx="35.209" ry="35.611"/>
		<polygon clip-path="url(#SVGID_4_)" fill="#E0B553" points="839.717,743.314 847.082,735.15 841.885,731.035 834.703,735.959 		
			"/>
		<path clip-path="url(#SVGID_4_)" fill="#47452B" d="M876.299,842.086"/>
		<polygon clip-path="url(#SVGID_4_)" fill="#26322C" points="876.299,842.086 895.367,780.123 873.527,776.873 		"/>
		<polygon clip-path="url(#SVGID_4_)" fill="#292F32" points="764.501,808.209 790.75,734.826 803.401,756.588 		"/>
		<path clip-path="url(#SVGID_4_)" fill="#0B132D" d="M871.932,766.443"/>
		<polygon clip-path="url(#SVGID_4_)" fill="#0B132D" points="895.367,780.123 873.527,776.873 848.745,727.223 		"/>
		<g clip-path="url(#SVGID_4_)">
			<g>
				<path fill="#0B132D" d="M834.786,744.05c0.675,0,2.073-1.025,0.771-1.025C834.881,743.024,833.483,744.05,834.786,744.05
					L834.786,744.05z"/>
			</g>
		</g>
		<polygon clip-path="url(#SVGID_4_)" fill="#0D1225" points="873.527,776.873 803.401,756.588 848.745,727.223 		"/>
		<polygon clip-path="url(#SVGID_4_)" fill="#0D1321" points="803.401,756.588 790.75,734.826 848.745,727.223 		"/>
		<line clip-path="url(#SVGID_4_)" fill="#8E8239" x1="846.293" y1="835.762" x2="876.372" y2="842.014"/>
		<polygon clip-path="url(#SVGID_4_)" fill="#D1BC9D" points="819.259,829.148 764.435,807.857 803.337,756.232 		"/>
		<polygon clip-path="url(#SVGID_4_)" fill="#AEAFA5" points="809.144,857.871 819.259,829.148 764.435,807.857 		"/>
		<path clip-path="url(#SVGID_4_)" fill="#47452B" d="M876.237,841.734"/>
		<polygon clip-path="url(#SVGID_4_)" fill="#B59F7B" points="819.259,829.148 873.461,776.52 876.237,841.734 		"/>
		<path clip-path="url(#SVGID_4_)" fill="#26322C" d="M803.337,756.232"/>
		<polygon clip-path="url(#SVGID_4_)" fill="#B69C74" points="873.461,776.52 819.259,829.148 813.009,801.812 803.337,756.232 		
			"/>
		<polygon clip-path="url(#SVGID_4_)" fill="#9B735F" points="876.237,841.734 895.3,779.771 873.461,776.52 		"/>
		<polygon clip-path="url(#SVGID_4_)" fill="#C5C6A0" points="876.237,841.734 845.297,851.352 809.144,857.871 819.259,829.148 		
			"/>
		<polygon clip-path="url(#SVGID_4_)" fill="#97969B" points="764.435,807.857 767.061,770.039 790.685,734.473 803.337,756.232 		
			"/>
		<path clip-path="url(#SVGID_4_)" fill="#0B132D" d="M871.866,766.088"/>
		<polygon clip-path="url(#SVGID_4_)" fill="#85674D" points="895.367,780.123 873.527,776.873 848.745,727.223 		"/>
		<g clip-path="url(#SVGID_4_)">
			<g>
				<path fill="#0B132D" d="M835.023,743.902c1.111,0,1.476-1.434,0.166-1.434C834.078,742.469,833.713,743.902,835.023,743.902
					L835.023,743.902z"/>
			</g>
		</g>
		<polygon clip-path="url(#SVGID_4_)" fill="#BD9D76" points="873.461,776.52 803.337,756.232 816.838,742.943 823.845,735.732 
			848.68,726.865 		"/>
		<polygon clip-path="url(#SVGID_4_)" fill="#B4AC99" points="803.079,756.58 790.685,734.473 849.528,726.582 823.828,735.965 
			817.145,743.127 		"/>
		<line clip-path="url(#SVGID_4_)" fill="#8E8239" x1="846.226" y1="835.408" x2="876.307" y2="841.662"/>
		<polygon clip-path="url(#SVGID_4_)" fill="#A09D97" points="895.438,779.943 891.364,813.602 874.734,808.246 		"/>
		<polygon clip-path="url(#SVGID_4_)" fill="#C7C2B5" points="891.364,813.602 876.215,842.135 874.773,807.967 		"/>
		<polygon clip-path="url(#SVGID_4_)" fill="#B3B4AD" points="767.061,770.039 803.167,756.697 790.664,734.422 		"/>
		<polygon clip-path="url(#SVGID_4_)" fill="#97724A" points="873.424,776.52 839.868,774.734 849.149,764.678 		"/>
		<polygon clip-path="url(#SVGID_4_)" fill="#FFFAEC" points="857.517,837.812 852.997,820.547 847.967,801.338 819.259,829.148 		
			"/>
		<polygon clip-path="url(#SVGID_4_)" fill="#D0C6AB" points="876.215,842.135 857.517,837.812 852.997,820.547 		"/>
		<g clip-path="url(#SVGID_4_)">
			<g>
				<path fill="#5B622B" d="M847.773,814.078c0.815,0,2.021-1.238,0.713-1.238C847.672,812.84,846.466,814.078,847.773,814.078
					L847.773,814.078z"/>
			</g>
		</g>
		<polygon clip-path="url(#SVGID_4_)" fill="#CAC29A" points="857.517,837.812 843.209,842.068 819.259,829.148 		"/>
		<path clip-path="url(#SVGID_4_)" fill="#32311A" d="M876.581,842.158"/>
		<path clip-path="url(#SVGID_4_)" fill="#38371F" d="M876.215,842.135"/>
		<polygon clip-path="url(#SVGID_4_)" fill="#ACB3AE" points="876.581,842.158 841.146,855.338 843.209,842.068 		"/>
		<polygon clip-path="url(#SVGID_4_)" fill="#A8B4A1" points="809.031,858.248 841.146,855.338 841.713,851.371 		"/>
		<polygon clip-path="url(#SVGID_4_)" fill="#92AC99" points="819.259,829.148 808.764,858.318 841.866,851.283 		"/>
		<polygon clip-path="url(#SVGID_4_)" fill="#ADBBB6" points="809.031,858.248 782.124,836.803 793.208,834.16 		"/>
		<polygon clip-path="url(#SVGID_4_)" fill="#A2A5A7" points="764.742,808.299 782.262,837.051 793.208,834.16 		"/>
		<polygon clip-path="url(#SVGID_4_)" fill="#9C989B" points="849.052,726.588 875.206,745.154 872.013,753.312 		"/>
		<polygon clip-path="url(#SVGID_4_)" fill="#B0ABA3" points="872.013,753.312 856.936,742.822 849.052,726.588 		"/>
		<polygon clip-path="url(#SVGID_4_)" fill="#957259" points="875.206,745.154 878.805,761.041 872.013,753.312 		"/>
		<polygon clip-path="url(#SVGID_4_)" fill="#849391" points="849.052,726.588 840.265,724.049 838.277,728.443 		"/>
		<polygon clip-path="url(#SVGID_4_)" fill="#8F888F" points="895.691,780.746 878.863,761.947 875.396,745.869 		"/>
		<polygon clip-path="url(#SVGID_4_)" fill="#8B998F" points="843.217,730.945 825.184,726.074 840.265,724.049 		"/>
		<polygon clip-path="url(#SVGID_4_)" fill="#FFEDCE" points="790.664,734.422 825.184,726.074 823.004,730.412 		"/>
		<polygon clip-path="url(#SVGID_4_)" fill="#B2AF9D" points="842.378,730.129 834.961,738.221 825.184,726.074 		"/>
		<polygon clip-path="url(#SVGID_4_)" fill="#CDB797" points="803.401,756.588 807.554,776.209 811.163,761.998 		"/>
		<polygon clip-path="url(#SVGID_4_)" fill="#AE9274" points="807.554,776.209 781.3,785.436 803.401,756.588 		"/>
		<polygon clip-path="url(#SVGID_4_)" fill="#978067" points="764.435,807.857 780.392,781.83 803.401,756.588 		"/>
		<polygon clip-path="url(#SVGID_4_)" fill="#CED0C5" points="812.36,855.426 801.232,822.596 819.259,829.148 		"/>
		<polygon clip-path="url(#SVGID_4_)" fill="#C3C6C5" points="819.259,829.148 793.208,834.16 764.205,807.662 		"/>
		<polygon clip-path="url(#SVGID_4_)" fill="#927873" points="767.061,770.039 780.392,781.83 803.401,756.588 		"/>
		<polygon clip-path="url(#SVGID_4_)" fill="#C3B7A1" points="813.009,801.812 764.205,807.662 819.259,829.148 		"/>
		<path clip-path="url(#SVGID_4_)" fill="#26322C" d="M814.161,724.004"/>
		<polygon clip-path="url(#SVGID_4_)" fill="#A2A999" points="823.921,735.891 821.34,726.809 825.449,726.086 831.815,730.809 
			831.346,735.932 		"/>
		<polygon clip-path="url(#SVGID_4_)" fill="#BFB59A" points="831.346,735.932 831.953,730.725 839.673,743.293 		"/>
		<polygon clip-path="url(#SVGID_4_)" fill="#EBCBAB" points="848.551,753.828 844.176,749.266 839.35,755.465 849.034,756.172 		
			"/>
		<polygon clip-path="url(#SVGID_4_)" fill="#BAA689" points="836.558,755.277 827.024,758.617 827.719,770.994 		"/>
		<polygon clip-path="url(#SVGID_4_)" fill="#DEC382" points="827.024,758.617 820.496,756.684 827.719,770.955 		"/>
		<polygon clip-path="url(#SVGID_4_)" fill="#B69169" points="849.149,764.678 839.868,774.734 827.719,770.994 836.23,755.129 
			849.034,756.172 		"/>
		<polygon clip-path="url(#SVGID_4_)" fill="#C2AC8D" points="839.687,743.258 823.852,735.889 831.346,735.932 		"/>
		<path clip-path="url(#SVGID_4_)" fill="#26322C" d="M806.637,759.861"/>
		<polygon clip-path="url(#SVGID_4_)" fill="#B68E65" points="807.471,775.863 811.135,761.82 820.765,756.766 827.763,770.697 
			829.149,775.48 		"/>
		<polygon clip-path="url(#SVGID_4_)" fill="#A9845B" points="829.149,775.48 839.868,774.734 840.071,785.08 		"/>
		<polygon clip-path="url(#SVGID_4_)" fill="#D3AF76" points="845.947,792.945 839.909,800.844 835.545,800.627 840.071,785.08 		
			"/>
		<polygon clip-path="url(#SVGID_4_)" fill="#A9A198" points="853.083,801.453 845.947,792.945 839.909,800.844 852.314,801.992 		
			"/>
		<polyline clip-path="url(#SVGID_4_)" fill="#C8A87A" points="852.464,813.133 819.259,829.148 835.545,800.627 839.909,800.844 
			852.314,801.992 852.573,813.719 		"/>
		<polygon clip-path="url(#SVGID_4_)" fill="#C5A77E" points="840.071,785.08 819.329,775.424 829.149,775.48 		"/>
		<polygon clip-path="url(#SVGID_4_)" fill="#A68666" points="849.034,756.172 873.445,776.525 849.149,764.678 		"/>
		<polygon clip-path="url(#SVGID_4_)" fill="#B6A790" points="848.551,753.828 856.483,742.541 873.445,776.525 848.885,756.338 		
			"/>
		<polygon clip-path="url(#SVGID_4_)" fill="#B5946C" points="839.909,800.844 852.997,820.547 874.084,794.146 		"/>
		<polygon clip-path="url(#SVGID_4_)" fill="#A6794E" points="839.909,800.844 845.947,792.945 874.084,794.146 		"/>
		<polygon clip-path="url(#SVGID_4_)" fill="#C9AE8A" points="874.084,794.146 839.868,774.734 840.071,785.08 845.947,792.945 		
			"/>
		<polygon clip-path="url(#SVGID_4_)" fill="#A47751" points="852.997,820.547 874.773,807.967 875.926,823.988 		"/>
		<polygon clip-path="url(#SVGID_4_)" fill="#C4A678" points="835.545,800.627 813.009,801.812 840.071,785.08 		"/>
		<polygon clip-path="url(#SVGID_4_)" fill="#DFCEAB" points="819.329,775.424 807.471,775.863 813.009,801.812 		"/>
		<polygon clip-path="url(#SVGID_4_)" fill="#EAE2CB" points="820.496,756.684 803.401,756.588 811.135,762.168 		"/>
		<polygon clip-path="url(#SVGID_4_)" fill="#777964" points="827.024,758.617 823.852,735.889 820.496,756.684 		"/>
		<polygon clip-path="url(#SVGID_4_)" fill="#B6926A" points="823.845,735.732 836.23,755.129 839.434,755.416 844.176,749.266 
			839.687,743.258 839.678,743.293 		"/>
		<polygon clip-path="url(#SVGID_4_)" fill="#B4A391" points="782.018,784.744 813.009,801.812 763.05,808.377 		"/>
		<polygon clip-path="url(#SVGID_4_)" fill="#BBAE97" points="846.499,719.24 856.936,742.822 840.992,729.744 		"/>
	</g>
	<g>
		<defs>
			<path id="SVGID_27_" d="M77.286,775.943c0-35.328,28.339-63.969,63.297-63.969c34.956,0,63.295,28.641,63.295,63.969
				c0,35.332-28.339,63.973-63.295,63.973C105.625,839.916,77.286,811.275,77.286,775.943z"/>
		</defs>
		<clipPath id="SVGID_6_">
			<use xlink:href="#SVGID_27_"  overflow="visible"/>
		</clipPath>
		<polygon clip-path="url(#SVGID_6_)" fill="#E0B553" points="157.204,692.912 169.087,679.736 160.702,673.094 149.111,681.043 		
			"/>
		<polygon clip-path="url(#SVGID_6_)" fill="#46442D" points="123.753,833 35.803,797.652 98.588,714.332 		"/>
		<polygon clip-path="url(#SVGID_6_)" fill="#6B6331" points="107.962,878.375 123.753,833 35.803,797.652 		"/>
		<path clip-path="url(#SVGID_6_)" fill="#47452B" d="M216.247,852.33"/>
		<polygon clip-path="url(#SVGID_6_)" fill="#47452B" points="123.753,833 211.771,747.072 216.247,852.33 		"/>
		<polygon clip-path="url(#SVGID_6_)" fill="#26322C" points="211.771,747.072 123.753,833 98.588,714.332 		"/>
		<polygon clip-path="url(#SVGID_6_)" fill="#26322C" points="216.247,852.33 247.021,752.322 211.771,747.072 		"/>
		<line clip-path="url(#SVGID_6_)" fill="#736D2E" x1="107.962" y1="878.375" x2="123.753" y2="833"/>
		<polygon clip-path="url(#SVGID_6_)" fill="#292F32" points="35.803,797.652 78.167,679.211 98.588,714.332 		"/>
		<path clip-path="url(#SVGID_6_)" fill="#0B132D" d="M209.195,730.238"/>
		<polygon clip-path="url(#SVGID_6_)" fill="#0B132D" points="247.021,752.322 211.771,747.072 171.773,666.936 		"/>
		<g clip-path="url(#SVGID_6_)">
			<g>
				<path fill="#0B132D" d="M149.792,694.024c1.137,0,1.454-1.506,0.146-1.506C148.801,692.519,148.485,694.024,149.792,694.024
					L149.792,694.024z"/>
			</g>
		</g>
		<polygon clip-path="url(#SVGID_6_)" fill="#0D1225" points="211.771,747.072 98.588,714.332 171.773,666.936 		"/>
		<polygon clip-path="url(#SVGID_6_)" fill="#0D1321" points="98.588,714.332 78.167,679.211 171.773,666.936 		"/>
		<line clip-path="url(#SVGID_6_)" fill="#8E8239" x1="167.814" y1="842.123" x2="216.361" y2="852.211"/>
		<polygon clip-path="url(#SVGID_6_)" fill="#7E7165" points="123.651,832.428 35.697,797.084 98.483,713.762 		"/>
		<polygon clip-path="url(#SVGID_6_)" fill="#837F84" points="107.858,877.805 123.651,832.428 35.697,797.084 		"/>
		<path clip-path="url(#SVGID_6_)" fill="#47452B" d="M216.143,851.758"/>
		<polygon clip-path="url(#SVGID_6_)" fill="#DBCAC5" points="123.651,832.428 211.667,746.502 216.143,851.758 		"/>
		<path clip-path="url(#SVGID_6_)" fill="#26322C" d="M98.483,713.762"/>
		<polygon clip-path="url(#SVGID_6_)" fill="#695B48" points="211.667,746.502 123.651,832.428 98.483,713.762 		"/>
		<polygon clip-path="url(#SVGID_6_)" fill="#DECEC0" points="216.143,851.758 246.915,751.754 211.667,746.502 		"/>
		<polygon clip-path="url(#SVGID_6_)" fill="#D1C4C8" points="216.143,851.758 166.209,867.283 107.858,877.805 123.651,832.428 		
			"/>
		<polygon clip-path="url(#SVGID_6_)" fill="#3F3A2F" points="35.697,797.084 39.938,736.045 78.062,678.643 98.483,713.762 		"/>
		<path clip-path="url(#SVGID_6_)" fill="#0B132D" d="M209.088,729.67"/>
		<polygon clip-path="url(#SVGID_6_)" fill="#8A786A" points="247.021,752.322 211.771,747.072 171.773,666.936 		"/>
		<g clip-path="url(#SVGID_6_)">
			<g>
				<path fill="#0B132D" d="M149.683,693.441c1.128,0,1.461-1.48,0.153-1.48C148.708,691.961,148.375,693.441,149.683,693.441
					L149.683,693.441z"/>
			</g>
		</g>
		<polygon clip-path="url(#SVGID_6_)" fill="#4F423F" points="211.667,746.502 98.483,713.762 120.273,692.316 131.585,680.676 
			171.667,666.367 		"/>
		<polygon clip-path="url(#SVGID_6_)" fill="#675E5C" points="98.07,714.322 78.062,678.643 173.034,665.904 131.556,681.051 
			120.771,692.609 		"/>
		<line clip-path="url(#SVGID_6_)" fill="#8E8239" x1="167.707" y1="841.553" x2="216.257" y2="851.645"/>
		<polygon clip-path="url(#SVGID_6_)" fill="#C5B3B2" points="247.137,752.031 240.559,806.355 213.721,797.713 		"/>
		<polygon clip-path="url(#SVGID_6_)" fill="#FFFBF6" points="240.559,806.355 216.109,852.408 213.781,797.258 		"/>
		<polygon clip-path="url(#SVGID_6_)" fill="#494139" points="39.938,736.045 98.211,714.512 78.03,678.564 		"/>
		<polygon clip-path="url(#SVGID_6_)" fill="#85796B" points="211.604,746.504 157.445,743.625 172.424,727.395 		"/>
		<polygon clip-path="url(#SVGID_6_)" fill="#FFFAEC" points="185.933,845.432 170.519,786.564 123.595,832.588 		"/>
		<polygon clip-path="url(#SVGID_6_)" fill="#E8D9D5" points="216.109,852.408 185.933,845.432 178.456,817.65 		"/>
		<g clip-path="url(#SVGID_6_)">
			<g>
				<path fill="#5B622B" d="M170.146,806.487c0.366,0,2.187-0.725,1.27-0.725C171.049,805.763,169.229,806.487,170.146,806.487
					L170.146,806.487z"/>
			</g>
		</g>
		<polygon clip-path="url(#SVGID_6_)" fill="#C3B9BC" points="185.933,845.432 162.839,852.301 123.595,832.588 		"/>
		<path clip-path="url(#SVGID_6_)" fill="#32311A" d="M216.698,852.445"/>
		<path clip-path="url(#SVGID_6_)" fill="#38371F" d="M216.109,852.408"/>
		<polygon clip-path="url(#SVGID_6_)" fill="#E0D6DE" points="216.698,852.445 159.509,873.717 162.839,852.301 		"/>
		<polygon clip-path="url(#SVGID_6_)" fill="#A8B4A1" points="107.675,878.414 159.509,873.717 160.421,867.314 		"/>
		<polygon clip-path="url(#SVGID_6_)" fill="#988D95" points="114.532,859.154 107.245,878.529 160.671,867.174 		"/>
		<polygon clip-path="url(#SVGID_6_)" fill="#ADBBB6" points="107.675,878.414 64.25,843.803 82.137,839.539 		"/>
		<polygon clip-path="url(#SVGID_6_)" fill="#A2A5A7" points="36.191,797.795 64.471,844.203 82.137,839.539 		"/>
		<polygon clip-path="url(#SVGID_6_)" fill="#AB9FA8" points="172.268,665.916 214.479,695.883 209.326,709.047 		"/>
		<polygon clip-path="url(#SVGID_6_)" fill="#BDAFB9" points="209.326,709.047 184.993,692.115 172.268,665.916 		"/>
		<polygon clip-path="url(#SVGID_6_)" fill="#77655E" points="214.479,695.883 220.291,721.521 209.326,709.047 		"/>
		<polygon clip-path="url(#SVGID_6_)" fill="#849391" points="172.268,665.916 158.086,661.816 154.875,668.91 		"/>
		<polygon clip-path="url(#SVGID_6_)" fill="#8F888F" points="247.542,753.326 220.384,722.982 214.785,697.033 		"/>
		<polygon clip-path="url(#SVGID_6_)" fill="#B2A9B0" points="162.853,672.951 133.745,665.088 158.086,661.816 		"/>
		<polygon clip-path="url(#SVGID_6_)" fill="#FFEDCE" points="78.03,678.564 133.745,665.088 130.228,672.09 		"/>
		<polygon clip-path="url(#SVGID_6_)" fill="#867D83" points="161.494,671.631 149.525,684.695 133.745,665.088 		"/>
		<polygon clip-path="url(#SVGID_6_)" fill="#847A69" points="98.588,714.332 105.29,746.006 111.117,723.068 		"/>
		<polygon clip-path="url(#SVGID_6_)" fill="#514738" points="105.29,746.006 62.918,760.896 98.588,714.332 		"/>
		<polygon clip-path="url(#SVGID_6_)" fill="#4C4235" points="35.697,797.084 61.452,755.074 98.588,714.332 		"/>
		<polygon clip-path="url(#SVGID_6_)" fill="#CED0C5" points="114.532,859.154 95.085,820.869 123.903,832.531 		"/>
		<polygon clip-path="url(#SVGID_6_)" fill="#C3C6C5" points="124.119,832.561 82.137,839.539 35.327,796.768 		"/>
		<polygon clip-path="url(#SVGID_6_)" fill="#3C3828" points="39.938,736.045 61.452,755.074 98.588,714.332 		"/>
		<polygon clip-path="url(#SVGID_6_)" fill="#887F86" points="114.093,787.324 35.327,796.768 123.651,832.428 		"/>
		<path clip-path="url(#SVGID_6_)" fill="#26322C" d="M115.956,661.746"/>
		<polygon clip-path="url(#SVGID_6_)" fill="#978E98" points="131.705,680.928 127.543,666.275 134.176,665.107 144.45,672.727 
			143.693,680.996 		"/>
		<polygon clip-path="url(#SVGID_6_)" fill="#87807E" points="143.693,680.996 144.67,672.594 157.132,692.879 		"/>
		<polygon clip-path="url(#SVGID_6_)" fill="#938374" points="171.459,709.883 164.396,702.518 156.61,712.523 172.241,713.666 		
			"/>
		<polygon clip-path="url(#SVGID_6_)" fill="#463A2D" points="152.104,712.219 136.714,717.611 137.837,737.59 		"/>
		<polygon clip-path="url(#SVGID_6_)" fill="#5F5447" points="136.714,717.611 126.181,714.488 137.834,737.523 		"/>
		<polygon clip-path="url(#SVGID_6_)" fill="#52463A" points="172.424,727.395 157.445,743.625 137.837,737.59 151.576,711.982 
			172.241,713.666 		"/>
		<polygon clip-path="url(#SVGID_6_)" fill="#887F85" points="157.154,692.822 131.596,680.926 143.693,680.996 		"/>
		<path clip-path="url(#SVGID_6_)" fill="#26322C" d="M103.812,719.619"/>
		<polygon clip-path="url(#SVGID_6_)" fill="#716453" points="105.157,745.445 111.072,722.779 126.615,714.621 137.907,737.105 
			140.143,744.826 		"/>
		<polygon clip-path="url(#SVGID_6_)" fill="#85796F" points="140.143,744.826 157.445,743.625 157.773,760.32 		"/>
		<polygon clip-path="url(#SVGID_6_)" fill="#9E9188" points="167.257,773.016 157.239,786.021 150.47,785.412 157.773,760.32 		"/>
		<polygon clip-path="url(#SVGID_6_)" fill="#A9A198" points="178.773,786.748 167.257,773.016 157.06,786.117 177.532,787.619 		
			"/>
		<polyline clip-path="url(#SVGID_6_)" fill="#978776" points="177.775,805.6 124.058,832.279 150.47,785.412 177.532,787.619 
			177.951,806.545 		"/>
		<polygon clip-path="url(#SVGID_6_)" fill="#968776" points="157.773,760.32 124.293,744.738 140.143,744.826 		"/>
		<polygon clip-path="url(#SVGID_6_)" fill="#7C6D62" points="172.241,713.666 211.64,746.514 172.424,727.395 		"/>
		<polygon clip-path="url(#SVGID_6_)" fill="#B6A790" points="171.459,709.883 184.262,691.662 211.64,746.514 172,713.932 		"/>
		<polygon clip-path="url(#SVGID_6_)" fill="#C5B6AD" points="157.526,785.627 178.456,817.65 212.67,774.951 		"/>
		<polygon clip-path="url(#SVGID_6_)" fill="#9A8A7B" points="157.239,786.021 167.257,773.016 212.67,774.951 		"/>
		<polygon clip-path="url(#SVGID_6_)" fill="#7C6B5B" points="212.67,774.951 157.445,743.625 157.773,760.32 167.257,773.016 		"/>
		<polygon clip-path="url(#SVGID_6_)" fill="#BFAF9E" points="178.456,817.65 213.781,797.258 215.641,823.119 		"/>
		<polygon clip-path="url(#SVGID_6_)" fill="#B9AA9B" points="150.47,785.412 114.093,787.324 157.773,760.32 		"/>
		<polygon clip-path="url(#SVGID_6_)" fill="#948577" points="124.293,744.738 105.157,745.445 114.093,787.324 		"/>
		<polygon clip-path="url(#SVGID_6_)" fill="#463A2D" points="126.181,714.488 98.588,714.332 111.073,723.342 		"/>
		<polygon clip-path="url(#SVGID_6_)" fill="#71676A" points="136.714,717.611 131.596,680.926 126.181,714.488 		"/>
		<polygon clip-path="url(#SVGID_6_)" fill="#5B4D3D" points="131.585,680.676 151.576,711.982 156.743,712.445 164.396,702.518 
			157.154,692.822 157.136,692.881 		"/>
		<polygon clip-path="url(#SVGID_6_)" fill="#716A5E" points="64.076,759.781 114.093,787.324 33.463,797.924 		"/>
		<polygon clip-path="url(#SVGID_6_)" fill="#8D7F89" points="168.148,654.059 184.993,692.115 159.259,671.012 		"/>
	</g>
	<g>
		<ellipse fill="#AF9A8C" cx="272.438" cy="184.49" rx="12.215" ry="12.346"/>
		<ellipse fill="#AF9A8C" cx="614.905" cy="932.244" rx="18.937" ry="19.139"/>
		<ellipse fill="#AF9A8C" cx="284.653" cy="985.965" rx="7.207" ry="7.283"/>
	</g>
</g>
</svg>
