<?xml version="1.0" encoding="utf-8"?>
<!-- Generator: Adobe Illustrator 16.0.0, SVG Export Plug-In . SVG Version: 6.00 Build 0)  -->
<!DOCTYPE svg PUBLIC "-//W3C//DTD SVG 1.1//EN" "http://www.w3.org/Graphics/SVG/1.1/DTD/svg11.dtd">
<svg version="1.1" id="Layer_1" xmlns="http://www.w3.org/2000/svg" xmlns:xlink="http://www.w3.org/1999/xlink" x="0px" y="0px"
	 width="1024px" height="1024px" viewBox="0 0 1024 1024" enable-background="new 0 0 1024 1024" xml:space="preserve">
<rect x="-35.61" y="-1389.835" display="none" width="4781.037" height="2764.835"/>
<g id="MG">
	<g opacity="0.74">
		<g>
			<path fill="none" stroke="#E6E7E8" stroke-width="4" stroke-miterlimit="10" d="M188.774,235.902
				c0.102-0.131,0.204-0.26,0.308-0.388"/>
			<path fill="none" stroke="#E6E7E8" stroke-width="4" stroke-miterlimit="10" stroke-dasharray="0.9986,11.9827" d="
				M198.375,228.086c52.813-27.181,229.033,56.712,411.78,198.73c189.072,146.932,316.131,302.454,292.386,355.627"/>
			<path fill="none" stroke="#E6E7E8" stroke-width="4" stroke-miterlimit="10" d="M899.516,787.61
				c-0.099,0.132-0.199,0.263-0.3,0.394"/>
		</g>
	</g>
	<g opacity="0.74">
		<g>
			<path fill="none" stroke="#E6E7E8" stroke-width="4" stroke-miterlimit="10" d="M80.649,346.611
				c0.049-0.158,0.099-0.315,0.15-0.472"/>
			<path fill="none" stroke="#E6E7E8" stroke-width="4" stroke-miterlimit="10" stroke-dasharray="0.9986,11.9827" d="
				M86.866,335.906c39.795-44.098,234.295-27.912,455.445,40.338c228.804,70.609,402.634,171.178,399.219,229.309"/>
			<path fill="none" stroke="#E6E7E8" stroke-width="4" stroke-miterlimit="10" d="M940.527,611.455
				c-0.045,0.158-0.093,0.316-0.142,0.475"/>
		</g>
	</g>
	<g opacity="0.74">
		<g>
			<path fill="none" stroke="#E6E7E8" stroke-width="4" stroke-miterlimit="10" d="M126.002,755.115
				c-0.086-0.141-0.171-0.282-0.254-0.425"/>
			<path fill="none" stroke="#E6E7E8" stroke-width="4" stroke-miterlimit="10" stroke-dasharray="0.9986,11.9828" d="
				M122.08,743.373c-6.777-59.012,133.95-194.244,331.363-315.051c204.241-124.991,394.618-188.93,435.976-147.933"/>
			<path fill="none" stroke="#E6E7E8" stroke-width="4" stroke-miterlimit="10" d="M893.184,285.045
				c0.089,0.139,0.176,0.279,0.262,0.42"/>
		</g>
	</g>
	<g>
		<defs>
			<circle id="SVGID_17_" cx="516.402" cy="516.17" r="216.584"/>
		</defs>
		<clipPath id="SVGID_2_">
			<use xlink:href="#SVGID_17_"  overflow="visible"/>
		</clipPath>
		<circle clip-path="url(#SVGID_2_)" fill="#536CB2" cx="516.402" cy="516.17" r="216.584"/>
		<polygon clip-path="url(#SVGID_2_)" fill="#303C76" points="548.009,754.109 725.397,621.863 669.76,563.9 601.517,672.65 		"/>
		<polygon clip-path="url(#SVGID_2_)" fill="#2A3367" points="725.397,621.863 670.385,567.832 699.706,379.254 722.127,501.025 		
			"/>
		<polygon clip-path="url(#SVGID_2_)" fill="#292F32" points="300.251,430.9 520.671,281.85 512.864,368.176 		"/>
		<polygon clip-path="url(#SVGID_2_)" fill="#6888C5" points="410.527,602.787 300.773,429.789 513.387,367.064 		"/>
		<polygon clip-path="url(#SVGID_2_)" fill="#4A63AD" points="326.845,660.443 410.527,602.787 300.773,429.789 		"/>
		<polygon clip-path="url(#SVGID_2_)" fill="#506DB3" points="402.772,599.881 670.385,567.832 547.487,755.219 		"/>
		<polygon clip-path="url(#SVGID_2_)" fill="#536CB2" points="670.385,567.832 410.527,602.787 447.12,512.035 484.149,431.363 
			513.387,367.064 		"/>
		<polygon clip-path="url(#SVGID_2_)" fill="#5876B9" points="548.009,754.109 326.845,660.443 410.527,602.787 		"/>
		<polygon clip-path="url(#SVGID_2_)" fill="#334488" points="547.487,755.219 422.027,719.424 465.405,674.875 		"/>
		<polygon clip-path="url(#SVGID_2_)" fill="#506DB3" points="300.773,429.789 383.667,330.498 521.191,280.734 513.387,367.064 		
			"/>
		<polygon clip-path="url(#SVGID_2_)" fill="#36468A" points="670.385,567.832 616.975,504.732 513.387,367.064 699.706,379.254 
			696.21,440.16 		"/>
		<polygon clip-path="url(#SVGID_2_)" fill="#5F72B5" points="616.975,504.732 617.682,374.855 504.735,363.225 		"/>
		<polygon clip-path="url(#SVGID_2_)" fill="#485BA8" points="513.387,367.064 517.27,279.074 699.706,379.254 617.682,374.855 		
			"/>
		<polygon clip-path="url(#SVGID_2_)" fill="#242E62" points="725.397,621.863 646.772,707.412 601.517,672.65 		"/>
		<polygon clip-path="url(#SVGID_2_)" fill="#2B3671" points="646.772,707.412 547.147,755.17 601.517,672.65 		"/>
		<polygon clip-path="url(#SVGID_2_)" fill="#576CB2" points="378.839,331.254 513.387,367.064 523.738,278.125 		"/>
		<polygon clip-path="url(#SVGID_2_)" fill="#4F6AB1" points="503.121,704.652 549.033,583.979 498.338,588.236 410.232,602.986 		
			"/>
		<polygon clip-path="url(#SVGID_2_)" fill="#4963AC" points="547.147,755.17 503.121,704.652 524.441,647.447 		"/>
		<polygon clip-path="url(#SVGID_2_)" fill="#3D52A3" points="524.441,647.447 601.517,672.65 547.147,755.17 		"/>
		<polygon clip-path="url(#SVGID_2_)" fill="#515CA8" points="524.441,647.447 508.837,645.725 503.121,704.652 		"/>
		<polygon clip-path="url(#SVGID_2_)" fill="#5F72B5" points="508.837,645.725 410.232,602.986 503.121,704.652 		"/>
		<polygon clip-path="url(#SVGID_2_)" fill="#5873B7" points="508.837,645.725 498.338,588.236 524.441,647.447 		"/>
		<polygon clip-path="url(#SVGID_2_)" fill="#4C5DA9" points="508.837,645.725 498.338,588.236 445.049,618.057 		"/>
		<polygon clip-path="url(#SVGID_2_)" fill="#4D66AE" points="503.121,704.652 454.332,686.936 410.232,602.986 		"/>
		<polygon clip-path="url(#SVGID_2_)" fill="#303C76" points="503.121,704.652 547.147,755.17 454.332,686.936 		"/>
		<polygon clip-path="url(#SVGID_2_)" fill="#4153A3" points="325.771,661.26 422.027,719.424 434.893,711.652 		"/>
		<polygon clip-path="url(#SVGID_2_)" fill="#5F72B5" points="454.332,686.936 434.893,711.652 361.564,636.98 		"/>
		<polygon clip-path="url(#SVGID_2_)" fill="#4660AB" points="361.564,636.98 326.782,661.908 434.893,711.652 		"/>
		<polygon clip-path="url(#SVGID_2_)" fill="#506DB3" points="325.771,661.26 292.812,546.414 329.293,561.947 		"/>
		<polygon clip-path="url(#SVGID_2_)" fill="#44538C" points="300.754,431.635 292.702,547.381 329.293,561.947 		"/>
		<polygon clip-path="url(#SVGID_2_)" fill="#2A3367" points="699.706,379.254 690.115,439.93 672.115,378.82 		"/>
		<polygon clip-path="url(#SVGID_2_)" fill="#28336B" points="699.706,379.254 746.235,499.615 710.7,498.695 		"/>
		<polygon clip-path="url(#SVGID_2_)" fill="#364588" points="710.7,498.695 690.115,439.93 699.706,379.254 		"/>
		<polygon clip-path="url(#SVGID_2_)" fill="#2A3367" points="737.901,484.584 716.335,535.992 710.7,498.695 		"/>
		<polygon clip-path="url(#SVGID_2_)" fill="#455AA7" points="710.7,498.695 684.982,495.666 690.115,439.93 		"/>
		<polygon clip-path="url(#SVGID_2_)" fill="#2D3368" points="699.706,379.254 681.641,354.102 667.115,364.375 		"/>
		<polygon clip-path="url(#SVGID_2_)" fill="#394999" points="672.115,378.82 667.115,364.375 699.706,379.254 		"/>
		<polygon clip-path="url(#SVGID_2_)" fill="#1A2048" points="725.397,621.863 716.335,535.992 737.901,484.584 		"/>
		<polygon clip-path="url(#SVGID_2_)" fill="#3E51A2" points="667.115,364.375 635.12,328.619 681.641,354.102 		"/>
		<polygon clip-path="url(#SVGID_2_)" fill="#2B326A" points="515.458,278.469 635.12,328.619 620.314,336.139 		"/>
		<polygon clip-path="url(#SVGID_2_)" fill="#394999" points="667.115,364.375 617.682,374.855 635.12,328.619 		"/>
		<polygon clip-path="url(#SVGID_2_)" fill="#5F72B5" points="620.314,336.139 617.682,374.855 635.12,328.619 		"/>
		<polygon clip-path="url(#SVGID_2_)" fill="#5167AF" points="690.115,439.93 617.682,374.855 672.115,378.82 		"/>
		<polygon clip-path="url(#SVGID_2_)" fill="#515CA8" points="672.115,378.82 667.115,364.375 617.682,374.855 		"/>
		<polygon clip-path="url(#SVGID_2_)" fill="#73B3D2" points="513.387,367.064 484.149,431.363 528.683,395.654 		"/>
		<polygon clip-path="url(#SVGID_2_)" fill="#5873B7" points="484.149,431.363 396.865,404.912 513.387,367.064 		"/>
		<polygon clip-path="url(#SVGID_2_)" fill="#73B3D2" points="300.773,429.789 397.67,390.635 513.387,367.064 396.865,404.912 		
			"/>
		<polygon clip-path="url(#SVGID_2_)" fill="#515CA8" points="361.564,636.98 374.978,546.463 410.847,603.281 		"/>
		<polygon clip-path="url(#SVGID_2_)" fill="#6479BA" points="329.293,561.947 362.425,637.559 326.324,661.559 		"/>
		<polygon clip-path="url(#SVGID_2_)" fill="#6081C0" points="411.186,603.604 350.373,537.996 300.518,428.773 		"/>
		<polyline clip-path="url(#SVGID_2_)" fill="#5572B6" points="349.971,537.643 329.293,561.947 372.791,562.191 350.373,537.996 		
			"/>
		<polygon clip-path="url(#SVGID_2_)" fill="#515CA8" points="383.667,330.498 397.67,390.635 513.387,367.064 		"/>
		<polygon clip-path="url(#SVGID_2_)" fill="#5F79BB" points="578.304,493.162 498.338,588.236 670.385,567.832 		"/>
		<polygon clip-path="url(#SVGID_2_)" fill="#4F64AD" points="528.683,395.654 484.149,431.363 578.304,493.162 		"/>
		<polygon clip-path="url(#SVGID_2_)" fill="#5773B7" points="447.12,512.035 300.518,428.773 410.527,602.787 		"/>
		<polygon clip-path="url(#SVGID_2_)" fill="#5F79BB" points="513.387,367.064 616.975,504.732 578.304,493.162 528.683,395.654 		
			"/>
		<polygon clip-path="url(#SVGID_2_)" fill="#415AA7" points="616.975,504.732 690.115,439.93 617.682,374.855 		"/>
		<polygon clip-path="url(#SVGID_2_)" fill="#4F64AD" points="447.12,512.035 484.149,431.363 396.865,404.912 		"/>
		<polygon clip-path="url(#SVGID_2_)" fill="#303C76" points="447.12,512.035 498.338,588.236 410.006,603.41 		"/>
		<polygon clip-path="url(#SVGID_2_)" fill="#515CA8" points="447.12,512.035 484.149,431.363 578.304,493.162 		"/>
		<polygon clip-path="url(#SVGID_2_)" fill="#73B3D2" points="447.12,512.035 498.338,588.236 486.434,544.434 		"/>
		<polygon clip-path="url(#SVGID_2_)" fill="#515CA8" points="486.434,544.434 578.304,493.162 498.338,588.236 		"/>
	</g>
	<g opacity="0.74">
		<g>
			<path fill="none" stroke="#E6E7E8" stroke-width="4" stroke-miterlimit="10" d="M896.709,793.533
				c-0.102,0.131-0.204,0.26-0.308,0.389"/>
			<path fill="none" stroke="#E6E7E8" stroke-width="4" stroke-miterlimit="10" stroke-dasharray="0.9986,11.9827" d="
				M887.109,801.351c-52.812,27.183-229.031-56.717-411.781-198.735C286.26,455.686,159.203,300.166,182.945,246.994"/>
			<path fill="none" stroke="#E6E7E8" stroke-width="4" stroke-miterlimit="10" d="M185.97,241.827
				c0.099-0.132,0.198-0.263,0.3-0.394"/>
		</g>
	</g>
	<g opacity="0.74">
		<g>
			<path fill="none" stroke="#E6E7E8" stroke-width="4" stroke-miterlimit="10" d="M897.737,289.762
				c0.086,0.141,0.171,0.282,0.255,0.425"/>
			<path fill="none" stroke="#E6E7E8" stroke-width="4" stroke-miterlimit="10" stroke-dasharray="0.9986,11.9827" d="
				M901.659,301.504c6.775,59.007-133.956,194.238-331.366,315.045C366.053,741.538,175.679,805.475,134.32,764.482"/>
			<path fill="none" stroke="#E6E7E8" stroke-width="4" stroke-miterlimit="10" d="M130.554,759.828
				c-0.088-0.139-0.176-0.279-0.262-0.42"/>
		</g>
	</g>
	<g opacity="0.74">
		<g>
			<path fill="none" stroke="#E6E7E8" stroke-width="4" stroke-miterlimit="10" d="M939.999,617.992
				c-0.048,0.158-0.099,0.315-0.15,0.472"/>
			<path fill="none" stroke="#E6E7E8" stroke-width="4" stroke-miterlimit="10" stroke-dasharray="0.9986,11.9827" d="
				M933.781,628.697c-39.794,44.095-234.295,27.904-455.445-40.342C249.533,517.744,75.704,417.176,79.118,359.047"/>
			<path fill="none" stroke="#E6E7E8" stroke-width="4" stroke-miterlimit="10" d="M80.121,353.145
				c0.046-0.158,0.093-0.316,0.142-0.475"/>
		</g>
	</g>
</g>
</svg>
