<?xml version="1.0" encoding="utf-8"?>
<!-- Generator: Adobe Illustrator 16.0.0, SVG Export Plug-In . SVG Version: 6.00 Build 0)  -->
<!DOCTYPE svg PUBLIC "-//W3C//DTD SVG 1.1//EN" "http://www.w3.org/Graphics/SVG/1.1/DTD/svg11.dtd">
<svg version="1.1" id="Layer_1" xmlns="http://www.w3.org/2000/svg" xmlns:xlink="http://www.w3.org/1999/xlink" x="0px" y="0px"
	 width="1024px" height="1024px" viewBox="0 0 1024 1024" enable-background="new 0 0 1024 1024" xml:space="preserve">
<g>
	<g id="Planet">
		<defs>
			<circle id="SVGID_19_" cx="526.878" cy="510.5" r="265.024"/>
		</defs>
		<clipPath id="SVGID_2_">
			<use xlink:href="#SVGID_19_"  overflow="visible"/>
		</clipPath>
		<path clip-path="url(#SVGID_2_)" fill="#C59857" d="M723.043,681.188c-94.269,108.34-258.513,119.746-366.855,25.477
			c-108.338-94.268-119.746-258.512-25.475-366.852c94.269-108.342,258.513-119.746,366.851-25.479
			C805.904,408.604,817.312,572.848,723.043,681.188z"/>
		<polygon clip-path="url(#SVGID_2_)" fill="#ECBC68" points="349.319,547.213 241.006,557.328 318.519,314.633 337.18,416.211 		
			"/>
		<path clip-path="url(#SVGID_2_)" fill="#26322C" d="M350.818,547.6"/>
		<polygon clip-path="url(#SVGID_2_)" fill="#8F715D" points="435.733,241.627 512.141,259.193 464.355,273.035 		"/>
		<path clip-path="url(#SVGID_2_)" fill="#0B132D" d="M515.962,295.285"/>
		<g clip-path="url(#SVGID_2_)">
			<g>
				<path fill="#0B132D" d="M358.265,399.044c0.84,0,2.01-1.275,0.703-1.275C358.128,397.769,356.958,399.044,358.265,399.044
					L358.265,399.044z"/>
			</g>
		</g>
		<line clip-path="url(#SVGID_2_)" fill="#8E8239" x1="739.143" y1="523.211" x2="819.15" y2="415.979"/>
		<polygon clip-path="url(#SVGID_2_)" fill="#D0A772" points="665.129,620.166 478.917,795.088 349.319,547.213 435.1,567.109 		"/>
		<polygon clip-path="url(#SVGID_2_)" fill="#BD997D" points="756.769,710.188 665.129,620.166 478.917,795.088 		"/>
		<polygon clip-path="url(#SVGID_2_)" fill="#E4B462" points="665.129,620.166 558.13,307.672 817.804,416.004 		"/>
		<path clip-path="url(#SVGID_2_)" fill="#26322C" d="M349.579,547.273"/>
		<polygon clip-path="url(#SVGID_2_)" fill="#D3A45C" points="558.13,307.672 608.981,453.5 665.129,620.166 435.1,567.109 
			349.319,547.213 		"/>
		<polygon clip-path="url(#SVGID_2_)" fill="#AA875B" points="817.804,416.004 611.188,227.467 558.13,307.672 684.336,362.908 
			704.412,370.895 		"/>
		<polygon clip-path="url(#SVGID_2_)" fill="#D1A571" points="817.804,416.004 756.769,710.188 718.407,672.504 665.129,620.166 		
			"/>
		<polygon clip-path="url(#SVGID_2_)" fill="#DAAF61" points="478.917,795.088 336.159,715.555 241.006,557.328 349.319,547.213 		
			"/>
		<path clip-path="url(#SVGID_2_)" fill="#0B132D" d="M514.467,294.896"/>
		<polygon clip-path="url(#SVGID_2_)" fill="#C39A60" points="611.188,227.467 558.13,307.672 463.018,311.33 318.519,314.633 
			464.862,270.945 		"/>
		<polygon clip-path="url(#SVGID_2_)" fill="#846F61" points="464.862,270.945 395.657,312.625 318.12,312.654 		"/>
		<g clip-path="url(#SVGID_2_)">
			<g>
				<path fill="#0B132D" d="M356.76,398.637c0.813,0,2.022-1.234,0.714-1.234C356.661,397.402,355.452,398.637,356.76,398.637
					L356.76,398.637z"/>
			</g>
		</g>
		<polygon clip-path="url(#SVGID_2_)" fill="#E0B463" points="558.13,307.672 349.319,547.213 333.274,416.803 318.519,314.633 
			395.599,311.418 463.018,311.33 		"/>
		<line clip-path="url(#SVGID_2_)" fill="#8E8239" x1="737.644" y1="522.822" x2="817.651" y2="415.588"/>
		<polygon clip-path="url(#SVGID_2_)" fill="#634647" points="611.188,227.467 735.96,304.877 684.336,362.908 		"/>
		<polygon clip-path="url(#SVGID_2_)" fill="#A17D55" points="735.96,304.877 819.329,416.824 684.336,362.908 		"/>
		<polygon clip-path="url(#SVGID_2_)" fill="#A1826A" points="336.159,715.555 349.319,547.213 240.784,557.318 		"/>
		<polygon clip-path="url(#SVGID_2_)" fill="#DFB262" points="558.13,307.672 487.768,435.742 381.081,522.477 349.319,547.213 		
			"/>
		<polygon clip-path="url(#SVGID_2_)" fill="#CD9F5F" points="767.896,482.672 608.981,453.5 665.129,620.166 		"/>
		<polygon clip-path="url(#SVGID_2_)" fill="#CCA26C" points="819.329,416.824 767.896,482.672 692.15,469.463 		"/>
		<polygon clip-path="url(#SVGID_2_)" fill="#D7AA5D" points="692.15,469.463 704.412,370.895 819.329,416.824 		"/>
		<polygon clip-path="url(#SVGID_2_)" fill="#D7AA5D" points="692.15,469.463 693.863,489.102 767.896,482.672 		"/>
		<polygon clip-path="url(#SVGID_2_)" fill="#D1A571" points="693.863,489.102 665.129,620.166 767.896,482.672 		"/>
		<polygon clip-path="url(#SVGID_2_)" fill="#F2BE64" points="693.863,489.102 627.91,511.408 692.15,469.463 		"/>
		<polygon clip-path="url(#SVGID_2_)" fill="#DEB15A" points="693.863,489.102 627.91,511.408 675.458,574.094 		"/>
		<polygon clip-path="url(#SVGID_2_)" fill="#BD997D" points="767.896,482.672 758.062,546.902 665.129,620.166 		"/>
		<polygon clip-path="url(#SVGID_2_)" fill="#917867" points="767.896,482.672 819.329,416.824 758.062,546.902 		"/>
		<polygon clip-path="url(#SVGID_2_)" fill="#AF8D74" points="820.092,415.422 806.048,579.314 758.062,546.902 		"/>
		<polygon clip-path="url(#SVGID_2_)" fill="#96766C" points="756.769,710.188 806.048,579.314 793.306,565.221 		"/>
		<polygon clip-path="url(#SVGID_2_)" fill="#C7A17C" points="758.062,546.902 793.306,565.221 718.407,672.504 		"/>
		<polygon clip-path="url(#SVGID_2_)" fill="#B89477" points="718.407,672.504 756.769,710.188 793.306,565.221 		"/>
		<g clip-path="url(#SVGID_2_)">
			<polygon fill="#917867" points="756.769,710.188 624.605,778.236 634.776,729.691 			"/>
		</g>
		<polygon clip-path="url(#SVGID_2_)" fill="#B3927A" points="481.204,794.689 625.823,778.154 634.776,729.691 		"/>
		<polygon clip-path="url(#SVGID_2_)" fill="#5E5049" points="318.12,312.654 395.599,311.418 324.766,348.762 		"/>
		<polygon clip-path="url(#SVGID_2_)" fill="#3E3035" points="318.12,312.654 439.558,243.453 464.862,270.945 		"/>
		<polygon clip-path="url(#SVGID_2_)" fill="#C9A06C" points="464.862,270.945 463.018,311.33 395.599,311.418 		"/>
		<polygon clip-path="url(#SVGID_2_)" fill="#393131" points="318.12,312.654 291.96,342.666 302.22,360.924 		"/>
		<polygon clip-path="url(#SVGID_2_)" fill="#917862" points="324.766,348.762 302.162,358.51 318.12,312.654 		"/>
		<polygon clip-path="url(#SVGID_2_)" fill="#795C50" points="611.188,227.467 507.659,258.229 439.558,243.453 		"/>
		<polygon clip-path="url(#SVGID_2_)" fill="#4C4142" points="302.162,358.51 271.996,405.867 291.96,342.666 		"/>
		<polygon clip-path="url(#SVGID_2_)" fill="#EC9C54" points="240.784,557.318 271.996,405.867 284.909,422.406 		"/>
		<polygon clip-path="url(#SVGID_2_)" fill="#846F61" points="302.162,358.51 333.274,416.803 271.996,405.867 		"/>
		<polygon clip-path="url(#SVGID_2_)" fill="#BF9C72" points="284.909,422.406 333.274,416.803 271.996,405.867 		"/>
		<polygon clip-path="url(#SVGID_2_)" fill="#B39065" points="395.599,311.418 333.274,416.803 324.766,348.762 		"/>
		<polygon clip-path="url(#SVGID_2_)" fill="#6D5B52" points="324.766,348.762 302.162,358.51 333.274,416.803 		"/>
		<g clip-path="url(#SVGID_2_)">
			<g>
				<path fill="#6A6230" d="M274.473,290.065c1.084,0,1.499-1.361,0.186-1.361C273.575,288.704,273.16,290.065,274.473,290.065
					L274.473,290.065z"/>
			</g>
		</g>
		<polygon clip-path="url(#SVGID_2_)" fill="#FFCB70" points="349.319,547.213 435.1,567.109 381.081,522.477 		"/>
		<polygon clip-path="url(#SVGID_2_)" fill="#A1826A" points="478.917,795.088 406.833,684.537 349.319,547.213 		"/>
		<polygon clip-path="url(#SVGID_2_)" fill="#D2A878" points="718.407,672.504 604.458,676.889 665.129,620.166 		"/>
		<polygon clip-path="url(#SVGID_2_)" fill="#A98770" points="634.776,729.691 718.407,672.504 756.769,710.188 		"/>
		<polygon clip-path="url(#SVGID_2_)" fill="#B89477" points="665.129,620.166 600.074,709.17 477.728,795.633 		"/>
		<polyline clip-path="url(#SVGID_2_)" fill="#917867" points="599.735,709.746 634.776,729.691 624.377,675.992 600.074,709.17 		
			"/>
		<polygon clip-path="url(#SVGID_2_)" fill="#CFA467" points="336.159,715.555 406.833,684.537 349.319,547.213 		"/>
		<polygon clip-path="url(#SVGID_2_)" fill="#F7C663" points="487.768,435.742 665.129,620.166 608.981,453.5 		"/>
		<polygon clip-path="url(#SVGID_2_)" fill="#C59B63" points="487.768,435.742 381.081,522.477 435.1,567.109 		"/>
		<polygon clip-path="url(#SVGID_2_)" fill="#ECBC68" points="545.105,592.42 477.728,795.633 665.129,620.166 		"/>
		<path opacity="0.1" clip-path="url(#SVGID_2_)" fill="#C59857" d="M368.556,698.457c0,0,418.093-191.398,479.176-423.52
			l90.949,264.699c0,0-160.178,198.188-555.193,218.549S368.556,698.457,368.556,698.457z"/>
		<path opacity="0.19" clip-path="url(#SVGID_2_)" fill="#2B221D" d="M772.996,341.525l11.083,7.689
			c0,0-224.648,297.871-518.254,366.83c-294.326,69.127,30.364-18.098,30.364-18.098S601.42,572.818,772.996,341.525z"/>
	</g>
	<g id="Rings">
		<g>
			<path fill="#B3927A" d="M273.86,604.238c-2.178-5.766-4.159-11.625-5.934-17.574c-39.744,34.652-72.108,65.08-102.213,96.154
				C96.715,754.035,63.176,806.973,75.992,824.424c3.298,4.492,10.047,6.77,20.056,6.77c69.205,0,266.11-107.723,468.195-256.137
				c117.25-86.111,221.774-174.773,294.325-249.656c68.998-71.219,102.537-124.156,89.721-141.605
				c-3.299-4.492-10.048-6.768-20.058-6.768c-43.722,0-134.335,40.748-249.1,109.838c6.58,4.34,12.955,8.959,19.104,13.846
				c76.075-39.824,126.094-54.264,138.096-37.756l3.249,2.271c22.225,30.557-108.226,163.291-291.36,296.473
				C365.082,694.879,198.604,778.07,176.38,747.51l-3.245-2.27C159.763,726.848,198.439,674.467,273.86,604.238z"/>
			<path fill="#9E8075" d="M1011.383,143.364l-4.871-3.403c-24.544-33.756-163.426,23.167-346.3,136.37
				c3.216,1.777,6.404,3.598,9.536,5.5c118.301-71.645,212.186-113.539,258.484-113.539c12.945,0,22.063,3.475,27.098,10.33
				c20.529,27.953-37.876,98.553-90.485,152.857c-72.878,75.225-177.796,164.229-295.428,250.619
				c-206.705,151.807-401.36,257.83-473.368,257.83c-12.946,0-22.063-3.477-27.098-10.33
				c-20.529-27.953,37.876-98.555,90.487-152.857c31.061-32.061,64.205-63.326,105.408-99.121
				c-1.104-4.275-2.106-8.592-2.997-12.947C89.606,708.844-12.717,828.115,12.513,862.809l4.863,3.406
				C50.687,912.018,300.2,787.328,574.69,587.719C849.173,388.105,1044.691,189.164,1011.383,143.364z"/>
		</g>
		<g>
			<path fill="#392B22" d="M664.149,278.485c0,0,6.585-4.064,18.931-11.686c12.384-7.561,30.591-18.583,54.088-32.062
				c11.746-6.743,24.837-14.06,39.211-21.804c14.376-7.74,30.036-15.908,46.981-24.215c16.951-8.289,35.168-16.778,54.791-24.76
				c9.812-3.987,19.971-7.857,30.521-11.404c10.551-3.532,21.491-6.784,32.903-9.169c5.706-1.182,11.533-2.138,17.482-2.64
				c5.941-0.472,12.038-0.554,18.105,0.545c3.023,0.557,6.042,1.43,8.865,2.846c2.817,1.402,5.427,3.401,7.369,5.986
				c1.925,2.555,3.201,5.691,3.697,8.847c0.539,3.175,0.465,6.409,0.058,9.57c-0.838,6.339-2.895,12.44-5.384,18.339
				c-2.51,5.9-5.514,11.617-8.764,17.229c-6.526,11.218-14.067,22.019-22.1,32.644c-16.112,21.23-34.239,41.765-53.445,62.059
				c-19.219,20.29-39.558,40.334-60.69,60.229c-42.307,39.753-87.69,79.016-134.887,117.565
				c-47.161,38.598-96.203,76.422-146.177,112.966c-49.961,36.564-100.862,71.855-151.963,105.082
				c-51.126,33.182-102.454,64.315-153.418,92.154c-25.483,13.912-50.903,26.948-76.255,38.737
				c-25.361,11.743-50.628,22.389-76.064,30.444c-12.722,3.972-25.505,7.33-38.423,9.023c-6.453,0.808-12.96,1.215-19.413,0.567
				c-3.221-0.325-6.427-0.941-9.506-2.024c-3.056-1.109-6.015-2.699-8.385-5.013c-2.377-2.285-4.118-5.193-5.073-8.298
				c-0.975-3.1-1.256-6.332-1.131-9.479c0.283-6.319,1.99-12.338,4.105-18.04c2.142-5.71,4.765-11.142,7.595-16.376
				c2.833-5.234,5.886-10.271,9.048-15.157c6.336-9.769,13.087-18.951,19.935-27.718c6.855-8.762,13.821-17.103,20.761-25.1
				c13.895-15.984,27.674-30.605,40.874-44.089c26.441-26.932,50.501-49.386,70.575-67.569
				c20.096-18.164,36.196-32.083,47.21-41.528c11.056-9.396,16.953-14.406,16.953-14.406l0.13,0.152c0,0-5.861,5.052-16.849,14.524
				c-10.946,9.521-26.945,23.551-46.905,41.85c-19.931,18.323-43.943,40.805-70.243,67.828
				c-13.136,13.52-26.844,28.176-40.653,44.183c-6.897,8.008-13.815,16.356-20.617,25.118c-6.793,8.765-13.484,17.939-19.746,27.673
				c-3.125,4.869-6.136,9.881-8.923,15.074c-2.782,5.193-5.352,10.569-7.431,16.178c-2.056,5.597-3.68,11.477-3.922,17.475
				c-0.108,2.986,0.176,5.999,1.077,8.823c0.876,2.82,2.456,5.416,4.593,7.463c2.128,2.067,4.834,3.516,7.693,4.548
				c2.88,1.011,5.936,1.604,9.04,1.913c6.219,0.622,12.601,0.227,18.952-0.574c12.725-1.674,25.421-5.012,38.067-8.97
				c25.294-8.027,50.495-18.66,75.794-30.395c25.289-11.788,50.664-24.819,76.151-38.651
				c50.957-27.711,102.275-58.777,153.458-91.802c51.188-33.028,102.196-68.123,152.266-104.501
				c50.052-36.41,99.174-74.103,146.421-112.575c47.173-38.556,92.484-77.894,134.547-117.857
				c21.026-19.983,41.26-40.103,60.362-60.454c9.551-10.175,18.809-20.417,27.703-30.748c8.905-10.321,17.447-20.738,25.448-31.333
				c7.987-10.598,15.479-21.362,21.936-32.498c3.215-5.57,6.179-11.233,8.641-17.045c2.434-5.809,4.458-11.78,5.27-17.867
				c0.397-3.033,0.465-6.1-0.031-9.049c-0.476-2.968-1.589-5.72-3.353-8.089c-1.756-2.347-4.126-4.179-6.753-5.493
				c-2.628-1.326-5.495-2.167-8.4-2.707c-5.833-1.07-11.81-1.01-17.656-0.555c-5.858,0.483-11.627,1.418-17.286,2.58
				c-11.321,2.344-22.217,5.56-32.732,9.06c-10.516,3.514-20.654,7.355-30.45,11.315c-19.583,7.951-37.828,16.307-54.792,24.522
				c-33.92,16.466-62.752,32.308-86.355,45.564c-23.587,13.299-41.872,24.184-54.31,31.65
				c-12.401,7.528-19.016,11.543-19.016,11.543L664.149,278.485z"/>
		</g>
		<g>
			<defs>
				<path id="SVGID_21_" d="M273.86,604.238c-2.178-5.766-4.159-11.625-5.934-17.574c-39.744,34.652-72.108,65.08-102.213,96.154
					C96.715,754.035,63.176,806.973,75.992,824.424c3.298,4.492,10.047,6.77,20.056,6.77c69.205,0,266.11-107.723,468.195-256.137
					c117.25-86.111,221.774-174.773,294.325-249.656c68.998-71.219,102.537-124.156,89.721-141.605
					c-3.299-4.492-10.048-6.768-20.058-6.768c-43.722,0-134.335,40.748-249.1,109.838c6.58,4.34,12.955,8.959,19.104,13.846
					c76.075-39.824,126.094-54.264,138.096-37.756l3.249,2.271c22.225,30.557-108.226,163.291-291.36,296.473
					C365.082,694.879,198.604,778.07,176.38,747.51l-3.245-2.27C159.763,726.848,198.439,674.467,273.86,604.238z"/>
			</defs>
			<clipPath id="SVGID_4_">
				<use xlink:href="#SVGID_21_"  overflow="visible"/>
			</clipPath>
			<path clip-path="url(#SVGID_4_)" fill="none" stroke="#6D5B52" stroke-width="8" stroke-miterlimit="10" d="M684.868,301.049
				c93.213-51.121,160.568-73.938,174.601-54.668c24.078,33.064-117.993,177.545-317.327,322.705
				c-199.335,145.16-380.448,236.027-404.527,202.963c-15.676-21.529,44.055-93.918,139.185-179.34"/>
			<path clip-path="url(#SVGID_4_)" fill="none" stroke="#6D5B52" stroke-width="3" stroke-miterlimit="10" d="M674.439,295.197
				c130.679-77.287,237.286-120.641,255.193-96.051c26.981,37.053-137.148,202.539-366.591,369.625
				c-229.445,167.088-437.32,272.5-464.303,235.449c-18.829-25.859,52.69-111.906,177.27-219.766"/>
		</g>
	</g>
</g>
</svg>
