<?xml version="1.0" encoding="utf-8"?>
<!-- Generator: Adobe Illustrator 16.0.0, SVG Export Plug-In . SVG Version: 6.00 Build 0)  -->
<!DOCTYPE svg PUBLIC "-//W3C//DTD SVG 1.1//EN" "http://www.w3.org/Graphics/SVG/1.1/DTD/svg11.dtd">
<svg version="1.1" id="Layer_1" xmlns="http://www.w3.org/2000/svg" xmlns:xlink="http://www.w3.org/1999/xlink" x="0px" y="0px"
	 width="1024px" height="1024px" viewBox="0 0 1024 1024" enable-background="new 0 0 1024 1024" xml:space="preserve">
<g id="Mercury">
	<defs>
		<circle id="SVGID_3_" cx="517.27" cy="514.449" r="110.383"/>
	</defs>
	<clipPath id="SVGID_2_">
		<use xlink:href="#SVGID_3_"  overflow="visible"/>
	</clipPath>
	<circle clip-path="url(#SVGID_2_)" fill="#6C5229" cx="517.27" cy="514.449" r="110.383"/>
	<path clip-path="url(#SVGID_2_)" fill="#47452B" d="M609.636,589.938"/>
	<path clip-path="url(#SVGID_2_)" fill="#26322C" d="M458.555,458.666"/>
	<path clip-path="url(#SVGID_2_)" fill="#0B132D" d="M582.609,458.314"/>
	<g clip-path="url(#SVGID_2_)">
		<g>
			<path fill="#0B132D" d="M511.229,428.237c0.857,0,2.002-1.303,0.695-1.303C511.066,426.935,509.922,428.237,511.229,428.237
				L511.229,428.237z"/>
		</g>
	</g>
	<polygon clip-path="url(#SVGID_2_)" fill="#0D1321" points="458.555,458.666 430.565,423.746 531.494,395.453 	"/>
	<polygon clip-path="url(#SVGID_2_)" fill="#90744D" points="504.74,583.078 402.803,558.732 426.702,514.988 458.642,458.119 	"/>
	<polygon clip-path="url(#SVGID_2_)" fill="#281E0F" points="494.888,635.373 498.932,613.584 504.74,583.078 402.803,558.732 	"/>
	<polygon clip-path="url(#SVGID_2_)" fill="#6C5229" points="504.74,583.078 587.893,475.605 598.229,530.457 609.49,590.047 	"/>
	<path clip-path="url(#SVGID_2_)" fill="#26322C" d="M458.346,458.066"/>
	<polygon clip-path="url(#SVGID_2_)" fill="#C2A380" points="587.893,475.605 504.74,583.078 458.346,458.066 	"/>
	<polygon clip-path="url(#SVGID_2_)" fill="#977037" points="609.49,590.047 627.652,475.701 587.893,475.605 598.229,530.457 	"/>
	<polygon clip-path="url(#SVGID_2_)" fill="#0D1511" points="609.49,590.047 494.888,635.373 498.932,613.584 504.74,583.078 	"/>
	<polygon clip-path="url(#SVGID_2_)" fill="#6A4B1D" points="402.803,558.732 397.211,490.785 430.048,422.293 458.029,457.221 	"/>
	<path clip-path="url(#SVGID_2_)" fill="#0B132D" d="M582.408,457.717"/>
	<polygon clip-path="url(#SVGID_2_)" fill="#8B6226" points="627.652,475.701 587.893,475.605 531.285,394.855 	"/>
	<g clip-path="url(#SVGID_2_)">
		<g>
			<path fill="#0B132D" d="M511.017,427.647c0.857,0,2.002-1.303,0.695-1.303C510.854,426.345,509.71,427.647,511.017,427.647
				L511.017,427.647z"/>
		</g>
	</g>
	<polygon clip-path="url(#SVGID_2_)" fill="#E3C498" points="587.893,475.605 458.346,458.066 531.285,394.855 549.997,420.734 	"/>
	<polygon clip-path="url(#SVGID_2_)" fill="#B18A5D" points="458.346,458.066 430.365,423.139 531.285,394.855 499.525,423.049 	"/>
	<polygon clip-path="url(#SVGID_2_)" fill="#674A1C" points="627.652,475.701 629.095,536.076 598.229,530.457 	"/>
	<polygon clip-path="url(#SVGID_2_)" fill="#3D3020" points="629.095,536.076 609.49,590.047 598.229,530.457 	"/>
	<polygon clip-path="url(#SVGID_2_)" fill="#8E6B29" points="397.527,491.631 458.346,458.066 430.314,423.061 	"/>
	<polygon clip-path="url(#SVGID_2_)" fill="#482C1D" points="587.893,475.605 527.966,480.408 458.346,458.066 	"/>
	<polygon clip-path="url(#SVGID_2_)" fill="#503919" points="575.229,587.277 562.631,558.258 548.995,525.725 504.74,583.078 	"/>
	<polygon clip-path="url(#SVGID_2_)" fill="#58442B" points="609.49,590.047 575.229,587.277 562.631,558.258 	"/>
	<polygon clip-path="url(#SVGID_2_)" fill="#573E1A" points="562.631,558.258 598.229,530.457 609.49,590.047 	"/>
	<polygon clip-path="url(#SVGID_2_)" fill="#7E6846" points="562.631,558.258 556.267,563.299 575.229,587.277 	"/>
	<polygon clip-path="url(#SVGID_2_)" fill="#503815" points="556.267,563.299 506.762,582.467 575.229,587.277 	"/>
	<polygon clip-path="url(#SVGID_2_)" fill="#9C805D" points="556.267,563.299 533.61,545.664 562.631,558.258 	"/>
	<polygon clip-path="url(#SVGID_2_)" fill="#785A24" points="556.267,563.299 533.61,545.664 522.901,576.207 	"/>
	<polygon clip-path="url(#SVGID_2_)" fill="#1F130A" points="575.229,587.277 550.937,598.43 504.74,583.078 	"/>
	<path clip-path="url(#SVGID_2_)" fill="#32311A" d="M610.148,589.988"/>
	<path clip-path="url(#SVGID_2_)" fill="#38371F" d="M609.49,590.047"/>
	<polygon clip-path="url(#SVGID_2_)" fill="#624D36" points="575.229,587.277 609.49,590.047 550.937,598.43 	"/>
	<polygon clip-path="url(#SVGID_2_)" fill="#39281B" points="609.49,590.047 550.659,622.256 550.937,598.43 	"/>
	<polygon clip-path="url(#SVGID_2_)" fill="#2A3934" points="494.888,635.373 551.285,623.139 552.617,614.682 	"/>
	<polygon clip-path="url(#SVGID_2_)" fill="#2D1F10" points="550.937,598.43 552.617,614.682 498.932,613.584 	"/>
	<polygon clip-path="url(#SVGID_2_)" fill="#0A1D14" points="498.932,613.584 494.888,635.373 552.617,614.682 	"/>
	<polygon clip-path="url(#SVGID_2_)" fill="#0C160F" points="494.888,635.373 441.257,604.924 460.238,597.434 	"/>
	<polygon clip-path="url(#SVGID_2_)" fill="#493923" points="402.803,558.732 441.562,605.316 460.238,597.434 	"/>
	<polygon clip-path="url(#SVGID_2_)" fill="#452F1E" points="531.871,394.273 549.997,420.734 520.968,404.723 	"/>
	<polygon clip-path="url(#SVGID_2_)" fill="#624D36" points="531.871,394.273 582.992,420.119 579.394,435.291 	"/>
	<polygon clip-path="url(#SVGID_2_)" fill="#654128" points="579.394,435.291 549.997,420.734 531.871,394.273 	"/>
	<polygon clip-path="url(#SVGID_2_)" fill="#473321" points="582.992,420.119 593.201,446.896 579.394,435.291 	"/>
	<polygon clip-path="url(#SVGID_2_)" fill="#493317" points="579.394,435.291 565.722,443.504 549.997,420.734 	"/>
	<polygon clip-path="url(#SVGID_2_)" fill="#B19C7F" points="531.871,394.273 515.65,392.076 513.233,400.299 	"/>
	<polygon clip-path="url(#SVGID_2_)" fill="#A76533" points="520.968,404.723 513.233,400.299 531.871,394.273 	"/>
	<polygon clip-path="url(#SVGID_2_)" fill="#8C5D3A" points="627.652,475.701 593.201,446.896 582.992,420.119 	"/>
	<polygon clip-path="url(#SVGID_2_)" fill="#6C451B" points="513.233,400.299 489.416,399.512 515.65,392.076 	"/>
	<polygon clip-path="url(#SVGID_2_)" fill="#EC9C54" points="430.314,423.061 489.416,399.512 486.652,407.697 	"/>
	<polygon clip-path="url(#SVGID_2_)" fill="#CAA57B" points="513.233,400.299 499.525,423.049 489.416,399.512 	"/>
	<polygon clip-path="url(#SVGID_2_)" fill="#614328" points="486.652,407.697 499.525,423.049 489.416,399.512 	"/>
	<polygon clip-path="url(#SVGID_2_)" fill="#B28A50" points="549.997,420.734 499.525,423.049 520.968,404.723 	"/>
	<polygon clip-path="url(#SVGID_2_)" fill="#946A37" points="520.968,404.723 513.233,400.299 499.525,423.049 	"/>
	<g clip-path="url(#SVGID_2_)">
		<g>
			<path fill="#6A6230" d="M529.937,374.785c1.128,0,1.462-1.48,0.154-1.48C528.963,373.305,528.629,374.785,529.937,374.785
				L529.937,374.785z"/>
		</g>
	</g>
	<polygon clip-path="url(#SVGID_2_)" fill="#C9A67E" points="458.346,458.066 470.916,492.039 474.033,463.385 	"/>
	<polygon clip-path="url(#SVGID_2_)" fill="#936B30" points="470.916,492.039 426.702,514.988 458.346,458.066 	"/>
	<polygon clip-path="url(#SVGID_2_)" fill="#A07E52" points="402.803,558.732 424.174,508.895 458.346,458.066 426.702,514.988 	"/>
	<polygon clip-path="url(#SVGID_2_)" fill="#422E17" points="498.932,613.584 476.34,581.719 504.74,583.078 	"/>
	<polygon clip-path="url(#SVGID_2_)" fill="#020202" points="460.958,598.252 498.932,613.584 494.888,635.373 	"/>
	<polygon clip-path="url(#SVGID_2_)" fill="#231A0E" points="504.74,583.078 460.333,580.67 403.974,558.525 	"/>
	<polyline clip-path="url(#SVGID_2_)" fill="#23110A" points="459.163,580.877 460.238,597.434 476.34,581.719 459.438,580.859 	"/>
	<polygon clip-path="url(#SVGID_2_)" fill="#997A48" points="397.527,491.631 424.174,508.895 458.346,458.066 	"/>
	<polygon clip-path="url(#SVGID_2_)" fill="#A98A63" points="527.966,480.408 504.74,583.078 533.61,545.664 548.995,525.725 	"/>
	<polygon clip-path="url(#SVGID_2_)" fill="#946D33" points="470.916,492.039 474.033,463.385 527.966,480.408 	"/>
	<polygon clip-path="url(#SVGID_2_)" fill="#503215" points="487.117,535.564 402.803,558.732 504.74,583.078 	"/>
</g>
</svg>
