<?xml version="1.0" encoding="utf-8"?>
<!-- Generator: Adobe Illustrator 16.0.0, SVG Export Plug-In . SVG Version: 6.00 Build 0)  -->
<!DOCTYPE svg PUBLIC "-//W3C//DTD SVG 1.1//EN" "http://www.w3.org/Graphics/SVG/1.1/DTD/svg11.dtd">
<svg version="1.1" id="Layer_1" xmlns="http://www.w3.org/2000/svg" xmlns:xlink="http://www.w3.org/1999/xlink" x="0px" y="0px"
	 width="1024px" height="1024px" viewBox="0 0 1024 1024" enable-background="new 0 0 1024 1024" xml:space="preserve">
<rect x="-1104.61" y="-1389.835" display="none" width="4781.037" height="2764.835"/>
<g id="MG_1_">
	<g>
		<defs>
			<circle id="SVGID_9_" cx="1599.674" cy="514.625" r="168.07"/>
		</defs>
		<use xlink:href="#SVGID_9_"  overflow="visible" fill="#33726D"/>
		<clipPath id="SVGID_2_">
			<use xlink:href="#SVGID_9_"  overflow="visible"/>
		</clipPath>
		<g opacity="0.3" clip-path="url(#SVGID_2_)">
			<defs>
				<path id="SVGID_11_" opacity="0.3" d="M1770.715,522.459c0,0-334.069,98.271-562.973-56.648c0,0,301.642,219.174,526.86,185.369
					C1959.816,617.375,1770.715,522.459,1770.715,522.459z"/>
			</defs>
			<clipPath id="SVGID_4_">
				<use xlink:href="#SVGID_11_"  overflow="visible"/>
			</clipPath>
			
				<ellipse transform="matrix(-0.9453 -0.3262 0.3262 -0.9453 2687.594 1590.3748)" opacity="0.74" clip-path="url(#SVGID_4_)" fill="#E6E7E8" cx="1477.142" cy="569.847" rx="543.557" ry="305.05"/>
		</g>
	</g>
</g>
<g id="Planet__x2B__Rings_1_">
	<g opacity="0.74">
		<g>
			<path fill="none" stroke="#E6E7E8" stroke-width="4" stroke-miterlimit="10" d="M947.991,414.627
				c0.045,0.159,0.089,0.319,0.132,0.479"/>
			<path fill="none" stroke="#E6E7E8" stroke-width="4" stroke-miterlimit="10" stroke-dasharray="1.0028,12.0333" d="
				M948.55,427.04c-9.875,58.11-183.118,149.048-407.229,211.009c-231.988,64.14-433.854,73.834-462.821,23.66"/>
			<path fill="none" stroke="#E6E7E8" stroke-width="4" stroke-miterlimit="10" d="M76.094,656.203
				c-0.048-0.158-0.095-0.317-0.141-0.477"/>
		</g>
	</g>
	<g opacity="0.74">
		<g>
			<path fill="none" stroke="#E6E7E8" stroke-width="4" stroke-miterlimit="10" d="M897.903,788.979
				c-0.103,0.13-0.207,0.259-0.312,0.387"/>
			<path fill="none" stroke="#E6E7E8" stroke-width="4" stroke-miterlimit="10" stroke-dasharray="0.999,11.9879" d="
				M888.238,796.726c-53.167,26.936-230.565-56.208-414.541-196.952c-190.304-145.59-318.199-299.69-294.354-352.409"/>
			<path fill="none" stroke="#E6E7E8" stroke-width="4" stroke-miterlimit="10" d="M182.399,242.218
				c0.1-0.132,0.201-0.262,0.303-0.392"/>
		</g>
	</g>
	<g opacity="0.74">
		<g>
			<path fill="none" stroke="#E6E7E8" stroke-width="4" stroke-miterlimit="10" d="M76.372,346.059
				c0.05-0.158,0.101-0.315,0.153-0.473"/>
			<path fill="none" stroke="#E6E7E8" stroke-width="4" stroke-miterlimit="10" stroke-dasharray="1.0026,12.0312" d="
				M82.706,335.368c40.231-43.599,235.929-27.539,458.423,40.058c230.235,69.947,405.178,169.556,401.9,227.18"/>
			<path fill="none" stroke="#E6E7E8" stroke-width="4" stroke-miterlimit="10" d="M942.016,608.526
				c-0.046,0.159-0.094,0.317-0.144,0.476"/>
		</g>
	</g>
	<g opacity="0.74">
		<g>
			<path fill="none" stroke="#E6E7E8" stroke-width="4" stroke-miterlimit="10" d="M122.029,750.902
				c-0.087-0.141-0.173-0.281-0.257-0.423"/>
			<path fill="none" stroke="#E6E7E8" stroke-width="4" stroke-miterlimit="10" stroke-dasharray="1.0003,12.0035" d="
				M118.068,739.156c-6.632-58.54,134.985-192.466,333.598-312.119c205.572-123.85,397.193-187.21,438.874-146.627"/>
			<path fill="none" stroke="#E6E7E8" stroke-width="4" stroke-miterlimit="10" d="M894.351,285.041
				c0.09,0.14,0.179,0.279,0.266,0.42"/>
		</g>
	</g>
	<g>
		<defs>
			<path id="SVGID_15_" d="M400.718,350.473c89.79-64.693,214.206-43.197,277.89,48.012
				c63.688,91.209,42.525,217.592-47.268,282.283c-89.789,64.691-214.205,43.195-277.889-48.014
				C289.765,541.545,310.93,415.162,400.718,350.473z"/>
		</defs>
		<clipPath id="SVGID_6_">
			<use xlink:href="#SVGID_15_"  overflow="visible"/>
		</clipPath>
		<path clip-path="url(#SVGID_6_)" fill="#9CBBE2" d="M400.718,350.473c89.79-64.693,214.206-43.197,277.89,48.012
			c63.688,91.209,42.525,217.592-47.268,282.283c-89.789,64.691-214.205,43.195-277.889-48.014
			C289.765,541.545,310.93,415.162,400.718,350.473z"/>
		<polygon clip-path="url(#SVGID_6_)" fill="#BBC8E6" points="728.096,507.857 698.516,560.781 697.652,515.619 		"/>
		<path clip-path="url(#SVGID_6_)" fill="#26322C" d="M533.725,369.963"/>
		<path clip-path="url(#SVGID_6_)" fill="#736D2E" d="M409.229,579.174"/>
		<polygon clip-path="url(#SVGID_6_)" fill="#292F32" points="328.771,402.408 551.623,289.604 533.725,369.963 		"/>
		<path clip-path="url(#SVGID_6_)" fill="#0B132D" d="M673.688,550.545"/>
		<g clip-path="url(#SVGID_6_)">
			<g>
				<path fill="#0B132D" d="M636.908,412.782c0.858,0,2.002-1.303,0.696-1.303C636.746,411.479,635.602,412.782,636.908,412.782
					L636.908,412.782z"/>
			</g>
		</g>
		<polygon clip-path="url(#SVGID_6_)" fill="#0D1321" points="533.725,369.963 551.623,289.604 705.047,404.814 		"/>
		<line clip-path="url(#SVGID_6_)" fill="#8E8239" x1="461.192" y1="655.17" x2="518.404" y2="738.98"/>
		<polygon clip-path="url(#SVGID_6_)" fill="#C7EFFF" points="410.109,579.412 329.396,401.428 534.349,368.979 		"/>
		<polygon clip-path="url(#SVGID_6_)" fill="#546F96" points="325.111,622.025 410.109,579.412 329.396,401.428 		"/>
		<polygon clip-path="url(#SVGID_6_)" fill="#8CACDA" points="410.109,579.412 655.198,577.832 518.694,738.004 		"/>
		<path clip-path="url(#SVGID_6_)" fill="#26322C" d="M534.349,368.979"/>
		<polygon clip-path="url(#SVGID_6_)" fill="#D1E3F4" points="655.198,577.832 541.512,578.578 410.109,579.412 534.349,368.979 
			579.98,495.953 		"/>
		<polygon clip-path="url(#SVGID_6_)" fill="#5C7785" points="518.694,738.004 699.561,635.641 655.198,577.832 578.211,666.955 		
			"/>
		<polygon clip-path="url(#SVGID_6_)" fill="#40546E" points="518.694,738.004 325.111,622.025 361.68,602.441 410.109,579.412 		
			"/>
		<polygon clip-path="url(#SVGID_6_)" fill="#C4D6EE" points="329.396,401.428 418.538,318.264 552.24,288.617 534.349,368.979 		
			"/>
		<path clip-path="url(#SVGID_6_)" fill="#0B132D" d="M674.312,549.564"/>
		<polygon clip-path="url(#SVGID_6_)" fill="#B5D5F0" points="699.561,635.641 655.198,577.832 705.668,403.824 		"/>
		<g clip-path="url(#SVGID_6_)">
			<g>
				<path fill="#0B132D" d="M637.525,411.802c0.857,0,2.002-1.303,0.696-1.303C637.364,410.499,636.219,411.802,637.525,411.802
					L637.525,411.802z"/>
			</g>
		</g>
		<polygon clip-path="url(#SVGID_6_)" fill="#C4D6EE" points="655.198,577.832 579.495,496.877 534.349,368.979 705.668,403.824 
			689.438,459.898 677.638,509.936 		"/>
		<polygon clip-path="url(#SVGID_6_)" fill="#DEF2FC" points="533.324,369.84 552.24,288.617 705.668,403.824 630.603,393.254 		"/>
		<line clip-path="url(#SVGID_6_)" fill="#8E8239" x1="461.809" y1="654.188" x2="519.024" y2="737.994"/>
		<polygon clip-path="url(#SVGID_6_)" fill="#364154" points="699.507,636.363 616.073,706.385 578.211,666.955 		"/>
		<polygon clip-path="url(#SVGID_6_)" fill="#657F9C" points="616.073,706.385 517.765,738.898 578.211,666.955 		"/>
		<polygon clip-path="url(#SVGID_6_)" fill="#D9F6FF" points="418.382,319.66 533.537,370.203 552.143,289.859 		"/>
		<polygon clip-path="url(#SVGID_6_)" fill="#9CB4D6" points="483.162,685.777 541.512,578.578 410.109,579.412 		"/>
		<polygon clip-path="url(#SVGID_6_)" fill="#657F9C" points="517.765,738.898 483.162,685.777 510,634.555 		"/>
		<polygon clip-path="url(#SVGID_6_)" fill="#7D9EC8" points="510,634.555 578.211,666.955 517.765,738.898 		"/>
		<polygon clip-path="url(#SVGID_6_)" fill="#BBC8E6" points="483.162,685.777 440.094,662.969 410.109,579.412 		"/>
		<polygon clip-path="url(#SVGID_6_)" fill="#849DBA" points="483.162,685.777 517.765,738.898 440.094,662.969 		"/>
		<polygon clip-path="url(#SVGID_6_)" fill="#40546E" points="518.578,739.791 406.119,689.529 440.094,662.969 		"/>
		<polygon clip-path="url(#SVGID_6_)" fill="#40546E" points="325.111,622.025 406.119,689.529 419.012,683.82 		"/>
		<polygon clip-path="url(#SVGID_6_)" fill="#849DBA" points="440.094,662.969 422.745,688.518 361.68,602.441 		"/>
		<polygon clip-path="url(#SVGID_6_)" fill="#5C7785" points="361.68,602.441 325.111,622.025 422.745,688.518 		"/>
		<polygon clip-path="url(#SVGID_6_)" fill="#40546E" points="325.111,622.025 307.617,510.314 339.538,529.523 		"/>
		<polygon clip-path="url(#SVGID_6_)" fill="#5D6677" points="329.144,403.168 307.394,511.211 339.538,529.523 		"/>
		<polygon clip-path="url(#SVGID_6_)" fill="#9CBBE2" points="707.158,404.025 689.438,459.898 680.13,399.959 		"/>
		<polygon clip-path="url(#SVGID_6_)" fill="#849DBA" points="707.158,404.025 728.096,507.857 702.682,519.768 		"/>
		<polygon clip-path="url(#SVGID_6_)" fill="#B5D5F0" points="702.682,519.768 689.438,459.898 707.158,404.025 		"/>
		<polygon clip-path="url(#SVGID_6_)" fill="#DEF2FC" points="702.682,519.768 677.638,509.936 689.438,459.898 		"/>
		<polygon clip-path="url(#SVGID_6_)" fill="#BBC8E6" points="707.158,404.025 692.014,377.859 677.686,383.66 		"/>
		<polygon clip-path="url(#SVGID_6_)" fill="#5C7785" points="680.13,399.959 677.686,383.66 707.158,404.025 		"/>
		<polygon clip-path="url(#SVGID_6_)" fill="#40546E" points="699.507,636.363 701.75,553.592 728.096,507.857 		"/>
		<polygon clip-path="url(#SVGID_6_)" fill="#7697C8" points="677.686,383.66 652.01,348.018 692.014,377.859 		"/>
		<polygon clip-path="url(#SVGID_6_)" fill="#DEF2FC" points="552.297,288.461 652.01,348.018 637.348,353.252 		"/>
		<polygon clip-path="url(#SVGID_6_)" fill="#C7EFFF" points="677.686,383.66 630.603,393.254 652.01,348.018 		"/>
		<polygon clip-path="url(#SVGID_6_)" fill="#BBC8E6" points="637.348,353.252 630.603,393.254 652.01,348.018 		"/>
		<polygon clip-path="url(#SVGID_6_)" fill="#DEF2FC" points="689.438,459.898 630.603,393.254 680.13,399.959 		"/>
		<polygon clip-path="url(#SVGID_6_)" fill="#D1E3F4" points="680.13,399.959 677.686,383.66 630.603,393.254 		"/>
		<polygon clip-path="url(#SVGID_6_)" fill="#C7EFFF" points="533.695,368.807 500.476,425.785 544.468,397.885 		"/>
		<polygon clip-path="url(#SVGID_6_)" fill="#BDD6EF" points="500.476,425.785 418.334,387.268 533.695,368.807 		"/>
		<polygon clip-path="url(#SVGID_6_)" fill="#C4D6EE" points="329.396,401.428 424.103,376.684 533.695,368.807 		"/>
		<polygon clip-path="url(#SVGID_6_)" fill="#B5D5F0" points="361.68,602.441 379.556,536.654 383.826,520.662 410.109,579.412 		
			"/>
		<polygon clip-path="url(#SVGID_6_)" fill="#7697C8" points="339.538,529.523 361.68,602.441 325.111,622.025 		"/>
		<polygon clip-path="url(#SVGID_6_)" fill="#BDCFEB" points="410.109,579.412 379.556,536.654 362.047,509.602 329.282,400.439 		
			"/>
		<polygon clip-path="url(#SVGID_6_)" fill="#849DBA" points="362.047,509.602 379.556,536.654 339.538,529.523 		"/>
		<polygon clip-path="url(#SVGID_6_)" fill="#DEF2FC" points="418.538,318.264 424.103,376.684 533.748,368.824 		"/>
		<polygon clip-path="url(#SVGID_6_)" fill="#D9F6FF" points="579.495,496.877 410.109,579.412 541.512,578.578 		"/>
		<polygon clip-path="url(#SVGID_6_)" fill="#DEF2FC" points="545.814,397.389 500.476,425.785 579.495,496.877 		"/>
		<polygon clip-path="url(#SVGID_6_)" fill="#9CBBE2" points="457.179,498.684 329.282,400.439 410.109,579.412 		"/>
		<polygon clip-path="url(#SVGID_6_)" fill="#C7EFFF" points="579.495,496.877 689.438,459.898 630.603,393.254 		"/>
		<polygon clip-path="url(#SVGID_6_)" fill="#D1E3F4" points="533.695,368.807 630.603,393.254 544.468,397.885 		"/>
		<polygon clip-path="url(#SVGID_6_)" fill="#D9F6FF" points="457.179,498.684 418.334,387.268 500.476,425.785 		"/>
		<polygon clip-path="url(#SVGID_6_)" fill="#C4D6EE" points="418.334,387.268 333.625,415.453 353.348,397.875 		"/>
		<polygon clip-path="url(#SVGID_6_)" fill="#7697C8" points="510,634.555 410.109,579.412 483.162,685.777 		"/>
		<polygon clip-path="url(#SVGID_6_)" fill="#84ACD6" points="578.211,666.955 541.512,578.578 510,634.555 		"/>
		<polygon clip-path="url(#SVGID_6_)" fill="#DEF2FC" points="541.512,578.578 480.697,544.113 410.109,579.412 		"/>
		<polygon clip-path="url(#SVGID_6_)" fill="#C3DCF2" points="480.697,544.113 500.476,425.785 457.179,498.684 		"/>
	</g>
	<g opacity="0.74">
		<g>
			<path fill="none" stroke="#E6E7E8" stroke-width="4" stroke-miterlimit="10" d="M898.936,289.721
				c0.087,0.141,0.173,0.281,0.257,0.423"/>
			<path fill="none" stroke="#E6E7E8" stroke-width="4" stroke-miterlimit="10" stroke-dasharray="1.0003,12.0034" d="
				M902.897,301.467c6.633,58.535-134.99,192.461-333.6,312.113C363.725,737.426,172.106,800.789,130.426,760.209"/>
			<path fill="none" stroke="#E6E7E8" stroke-width="4" stroke-miterlimit="10" d="M126.615,755.578
				c-0.09-0.14-0.179-0.279-0.266-0.42"/>
		</g>
	</g>
	<g opacity="0.74">
		<g>
			<path fill="none" stroke="#E6E7E8" stroke-width="4" stroke-miterlimit="10" d="M941.482,615.006
				c-0.049,0.158-0.101,0.315-0.153,0.473"/>
			<path fill="none" stroke="#E6E7E8" stroke-width="4" stroke-miterlimit="10" stroke-dasharray="1.0026,12.0312" d="
				M935.149,625.697c-40.229,43.6-235.927,27.534-458.425-40.061C246.492,515.693,71.551,416.082,74.826,358.461"/>
			<path fill="none" stroke="#E6E7E8" stroke-width="4" stroke-miterlimit="10" d="M75.838,352.54
				c0.046-0.159,0.094-0.317,0.144-0.476"/>
		</g>
	</g>
	<g opacity="0.74">
		<g>
			<path fill="none" stroke="#E6E7E8" stroke-width="4" stroke-miterlimit="10" d="M185.224,236.344
				c0.103-0.13,0.207-0.259,0.312-0.387"/>
			<path fill="none" stroke="#E6E7E8" stroke-width="4" stroke-miterlimit="10" stroke-dasharray="0.999,11.988" d="M194.89,228.597
				c53.168-26.935,230.568,56.203,414.54,196.948C799.735,571.137,927.632,725.236,903.785,777.96"/>
			<path fill="none" stroke="#E6E7E8" stroke-width="4" stroke-miterlimit="10" d="M900.729,783.106
				c-0.1,0.132-0.201,0.262-0.303,0.392"/>
		</g>
	</g>
	<g opacity="0.74">
		<g>
			<path fill="none" stroke="#E6E7E8" stroke-width="4" stroke-miterlimit="10" d="M72.975,650.473
				c-0.045-0.159-0.089-0.319-0.132-0.479"/>
			<path fill="none" stroke="#E6E7E8" stroke-width="4" stroke-miterlimit="10" stroke-dasharray="1.0028,12.0333" d="
				M72.416,638.059c9.875-58.109,183.114-149.049,407.228-211.012c231.988-64.14,433.855-73.834,462.822-23.658"/>
			<path fill="none" stroke="#E6E7E8" stroke-width="4" stroke-miterlimit="10" d="M944.871,408.895
				c0.048,0.158,0.095,0.317,0.141,0.477"/>
		</g>
	</g>
</g>
</svg>
