<?xml version="1.0" encoding="utf-8"?>
<!-- Generator: Adobe Illustrator 16.0.0, SVG Export Plug-In . SVG Version: 6.00 Build 0)  -->
<!DOCTYPE svg PUBLIC "-//W3C//DTD SVG 1.1//EN" "http://www.w3.org/Graphics/SVG/1.1/DTD/svg11.dtd">
<svg version="1.1" id="Layer_1" xmlns="http://www.w3.org/2000/svg" xmlns:xlink="http://www.w3.org/1999/xlink" x="0px" y="0px"
	 width="1024px" height="1024px" viewBox="0 0 1024 1024" enable-background="new 0 0 1024 1024" xml:space="preserve">
<rect x="-4341.136" y="-2471.335" display="none" width="4781.037" height="2764.835"/>
<g id="FG_2_">
	<g>
		<defs>
			<path id="SVGID_31_" d="M706.413,548.775c14.389-14.301,34.944-17.184,45.909-6.438c10.966,10.744,8.189,31.047-6.201,45.348
				s-34.945,17.182-45.908,6.438C689.247,583.379,692.023,563.074,706.413,548.775z"/>
		</defs>
		<clipPath id="SVGID_2_">
			<use xlink:href="#SVGID_31_"  overflow="visible"/>
		</clipPath>
		<polygon clip-path="url(#SVGID_2_)" fill="#46442D" points="708.612,551.863 738.684,527.459 755.902,565.936 		"/>
		<polygon clip-path="url(#SVGID_2_)" fill="#6B6331" points="695.58,537.447 708.612,551.863 738.684,527.459 		"/>
		<path clip-path="url(#SVGID_2_)" fill="#47452B" d="M683.352,580.992"/>
		<polygon clip-path="url(#SVGID_2_)" fill="#47452B" points="708.612,551.863 721.75,599.812 683.352,580.992 		"/>
		<polygon clip-path="url(#SVGID_2_)" fill="#26322C" points="721.75,599.812 708.612,551.863 755.902,565.936 		"/>
		<polygon clip-path="url(#SVGID_2_)" fill="#26322C" points="683.352,580.992 712.877,611.324 721.75,599.812 		"/>
		<line clip-path="url(#SVGID_2_)" fill="#736D2E" x1="695.58" y1="537.447" x2="708.612" y2="551.863"/>
		<polygon clip-path="url(#SVGID_2_)" fill="#292F32" points="738.684,527.459 772.473,565.488 755.902,565.936 		"/>
		<path clip-path="url(#SVGID_2_)" fill="#0B132D" d="M728.262,602.162"/>
		<polygon clip-path="url(#SVGID_2_)" fill="#0B132D" points="712.877,611.324 721.75,599.812 758.256,601.143 		"/>
		<g clip-path="url(#SVGID_2_)">
			<g>
				<path fill="#0B132D" d="M752.874,588.899c0.857,0,2.002-1.303,0.695-1.303C752.712,587.597,751.567,588.899,752.874,588.899
					L752.874,588.899z"/>
			</g>
		</g>
		<polygon clip-path="url(#SVGID_2_)" fill="#0D1225" points="721.75,599.812 755.902,565.936 758.256,601.143 		"/>
		<polygon clip-path="url(#SVGID_2_)" fill="#0D1321" points="755.902,565.936 772.473,565.488 758.256,601.143 		"/>
		<line clip-path="url(#SVGID_2_)" fill="#8E8239" x1="696.612" y1="565.754" x2="683.369" y2="581.053"/>
		<polygon clip-path="url(#SVGID_2_)" fill="#B4B0A6" points="708.836,551.936 738.906,527.529 756.129,566.01 		"/>
		<polygon clip-path="url(#SVGID_2_)" fill="#50514B" points="695.805,537.521 708.836,551.936 738.906,527.529 		"/>
		<path clip-path="url(#SVGID_2_)" fill="#47452B" d="M683.576,581.062"/>
		<polygon clip-path="url(#SVGID_2_)" fill="#B9B1A4" points="708.836,551.936 721.977,599.885 683.576,581.062 		"/>
		<path clip-path="url(#SVGID_2_)" fill="#26322C" d="M756.129,566.01"/>
		<polygon clip-path="url(#SVGID_2_)" fill="#6E6C67" points="721.977,599.885 708.836,551.936 756.129,566.01 		"/>
		<polygon clip-path="url(#SVGID_2_)" fill="#D0C8BD" points="683.576,581.062 713.101,611.396 721.977,599.885 		"/>
		<polygon clip-path="url(#SVGID_2_)" fill="#6E6C67" points="683.576,581.062 695.805,537.521 708.836,551.936 		"/>
		<polygon clip-path="url(#SVGID_2_)" fill="#E1DAD0" points="738.906,527.529 759.814,540.877 772.696,565.562 756.129,566.01 		
			"/>
		<path clip-path="url(#SVGID_2_)" fill="#0B132D" d="M728.485,602.238"/>
		<polygon clip-path="url(#SVGID_2_)" fill="#B8B4AA" points="712.877,611.324 721.75,599.812 758.256,601.143 		"/>
		<g clip-path="url(#SVGID_2_)">
			<g>
				<path fill="#0B132D" d="M753.098,588.97c0.857,0,2.002-1.303,0.695-1.303C752.936,587.667,751.791,588.97,753.098,588.97
					L753.098,588.97z"/>
			</g>
		</g>
		<polygon clip-path="url(#SVGID_2_)" fill="#413B34" points="721.977,599.885 756.129,566.01 758.48,601.215 		"/>
		<polygon clip-path="url(#SVGID_2_)" fill="#B4B1A0" points="756.01,565.754 772.696,565.562 758.48,601.215 		"/>
		<line clip-path="url(#SVGID_2_)" fill="#8E8239" x1="696.837" y1="565.828" x2="683.594" y2="581.125"/>
		<polygon clip-path="url(#SVGID_2_)" fill="#B2A295" points="712.958,611.424 694.905,598.547 703.316,590.682 		"/>
		<polygon clip-path="url(#SVGID_2_)" fill="#DED8CE" points="694.905,598.547 683.353,580.924 703.466,590.793 		"/>
		<polygon clip-path="url(#SVGID_2_)" fill="#777964" points="759.814,540.877 755.912,565.764 772.731,565.564 		"/>
		<polygon clip-path="url(#SVGID_2_)" fill="#A9A198" points="721.789,599.695 733.771,581.176 736.58,589.646 		"/>
		<polygon clip-path="url(#SVGID_2_)" fill="#5B5655" points="691.832,571.551 715.873,577.488 708.794,551.887 		"/>
		<polygon clip-path="url(#SVGID_2_)" fill="#787975" points="683.353,580.924 691.832,571.551 703.219,574.283 		"/>
		<g clip-path="url(#SVGID_2_)">
			<g>
				<path fill="#5B622B" d="M708.451,574.24c0.595,0,2.098-0.902,0.803-0.902C708.659,573.338,707.156,574.24,708.451,574.24
					L708.451,574.24z"/>
			</g>
		</g>
		<polygon clip-path="url(#SVGID_2_)" fill="#4A4944" points="691.832,571.551 693.973,562.012 708.794,551.887 		"/>
		<path clip-path="url(#SVGID_2_)" fill="#32311A" d="M683.221,581.127"/>
		<path clip-path="url(#SVGID_2_)" fill="#38371F" d="M683.353,580.924"/>
		<polygon clip-path="url(#SVGID_2_)" fill="#CFCBC3" points="683.221,581.127 687.002,556.67 693.973,562.012 		"/>
		<polygon clip-path="url(#SVGID_2_)" fill="#C5C4BB" points="695.625,537.338 687.002,556.67 688.798,558.914 		"/>
		<polygon clip-path="url(#SVGID_2_)" fill="#33312C" points="701.127,543.512 695.527,537.541 688.798,558.914 		"/>
		<polygon clip-path="url(#SVGID_2_)" fill="#31302A" points="695.625,537.338 716.584,528.619 714.553,535.803 		"/>
		<polygon clip-path="url(#SVGID_2_)" fill="#313228" points="738.556,527.568 716.398,528.619 714.553,535.803 		"/>
		<polygon clip-path="url(#SVGID_2_)" fill="#4E4A3F" points="758.52,601.514 746.654,600.957 757.87,596.029 		"/>
		<polygon clip-path="url(#SVGID_2_)" fill="#958B82" points="758.52,601.514 739.455,610.705 735.788,606.322 		"/>
		<polygon clip-path="url(#SVGID_2_)" fill="#6C625A" points="735.788,606.322 746.654,600.957 758.52,601.514 		"/>
		<polygon clip-path="url(#SVGID_2_)" fill="#CCC5B6" points="739.455,610.705 729.164,607.799 735.788,606.322 		"/>
		<polygon clip-path="url(#SVGID_2_)" fill="#877A71" points="758.52,601.514 762.799,597.271 760.908,594.754 		"/>
		<polygon clip-path="url(#SVGID_2_)" fill="#A39D95" points="712.958,611.424 729.164,607.799 739.455,610.705 		"/>
		<polygon clip-path="url(#SVGID_2_)" fill="#3E352D" points="760.908,594.754 766.468,587.984 762.799,597.271 		"/>
		<polygon clip-path="url(#SVGID_2_)" fill="#9D968F" points="772.731,565.564 766.468,587.984 764.67,585.373 		"/>
		<polygon clip-path="url(#SVGID_2_)" fill="#B2ADA0" points="760.908,594.754 757.564,584.998 766.468,587.984 		"/>
		<polygon clip-path="url(#SVGID_2_)" fill="#D0C9BC" points="755.902,565.936 743.284,562.174 750.301,568.695 		"/>
		<polygon clip-path="url(#SVGID_2_)" fill="#939387" points="743.284,562.174 746.396,544.223 755.902,565.936 		"/>
		<polygon clip-path="url(#SVGID_2_)" fill="#8C9483" points="738.906,527.529 748.761,544.834 755.902,565.936 		"/>
		<polygon clip-path="url(#SVGID_2_)" fill="#363636" points="701.127,543.512 718.633,544.023 708.751,552.008 		"/>
		<polygon clip-path="url(#SVGID_2_)" fill="#282922" points="708.696,552.078 714.553,535.803 739.093,527.459 		"/>
		<polygon clip-path="url(#SVGID_2_)" fill="#BCB8A7" points="759.814,540.877 748.761,544.834 755.902,565.936 		"/>
		<polygon clip-path="url(#SVGID_2_)" fill="#5B5E47" points="726.811,557.287 739.093,527.459 708.836,551.936 		"/>
		<path clip-path="url(#SVGID_2_)" fill="#26322C" d="M771.191,582.307"/>
		<polygon clip-path="url(#SVGID_2_)" fill="#93897F" points="763.755,574.164 767.09,583.885 761.213,584.217 		"/>
		<polygon clip-path="url(#SVGID_2_)" fill="#D5CFC1" points="761.228,584.186 767.07,583.861 765.763,589.531 761.617,590.309 
			758.821,588.434 		"/>
		<polygon clip-path="url(#SVGID_2_)" fill="#D0C8BD" points="758.821,588.434 761.65,590.309 752.43,590.805 		"/>
		<polygon clip-path="url(#SVGID_2_)" fill="#93897F" points="747.039,591.617 745.024,586.971 746.215,585.225 751.933,590.924 		
			"/>
		<polygon clip-path="url(#SVGID_2_)" fill="#E4E4EC" points="743.013,592.701 747.039,591.617 745.022,586.912 741.508,592.244 		
			"/>
		<polygon clip-path="url(#SVGID_2_)" fill="#F4EFE0" points="746.023,585.363 747.162,578.85 739.816,575.375 		"/>
		<polygon clip-path="url(#SVGID_2_)" fill="#E4E4EC" points="747.162,578.85 750.366,575.711 739.841,575.389 		"/>
		<polygon clip-path="url(#SVGID_2_)" fill="#D8D7DB" points="750.614,575.852 750.41,568.736 744.061,571.953 739.816,575.375 		
			"/>
		<polygon clip-path="url(#SVGID_2_)" fill="#555748" points="761.251,584.145 763.755,574.164 759.195,578.131 		"/>
		<polyline clip-path="url(#SVGID_2_)" fill="#EAE2CB" points="736.58,589.646 733.771,581.176 739.816,575.375 746.215,585.225 
			741.508,592.244 		"/>
		<polygon clip-path="url(#SVGID_2_)" fill="#EAEAEA" points="751.933,590.924 761.251,584.145 758.821,588.434 		"/>
		<path clip-path="url(#SVGID_2_)" fill="#26322C" d="M752.98,566.768"/>
		<polygon clip-path="url(#SVGID_2_)" fill="#B3AE9D" points="743.239,556.102 747.611,568.832 739.909,569.266 		"/>
		<polygon clip-path="url(#SVGID_2_)" fill="#8B8377" points="739.932,569.227 750.41,568.736 756.576,577.008 745.848,576.799 
			736.78,574.791 		"/>
		<polygon clip-path="url(#SVGID_2_)" fill="#ABAE9F" points="736.78,574.791 733.771,581.176 714.193,579.941 		"/>
		<polygon clip-path="url(#SVGID_2_)" fill="#F4EFE0" points="726.953,577.217 721.504,562.236 716.372,579.445 		"/>
		<polygon clip-path="url(#SVGID_2_)" fill="#EFE4D1" points="731.822,558.779 737.269,561.299 743.239,556.102 733.81,541.111 		
			"/>
		<polygon clip-path="url(#SVGID_2_)" fill="#555748" points="739.96,569.176 743.239,556.102 737.269,561.299 		"/>
		<polygon clip-path="url(#SVGID_2_)" fill="#EAEAEA" points="727.757,578.051 739.96,569.176 736.78,574.791 		"/>
		<polygon clip-path="url(#SVGID_2_)" fill="#E4E4EC" points="721.504,562.236 740.61,558.291 708.998,551.992 		"/>
		<polygon clip-path="url(#SVGID_2_)" fill="#939387" points="740.699,558.432 739.909,569.266 721.504,562.236 		"/>
	</g>
	<g>
		<defs>
			<path id="SVGID_33_" d="M723.459,538.395c9.883-9.82,25.432-10.395,34.729-1.281c9.298,9.113,8.822,24.459-1.056,34.277
				c-9.881,9.82-25.429,10.393-34.727,1.283C713.105,563.561,713.58,548.211,723.459,538.395z"/>
		</defs>
		<clipPath id="SVGID_4_">
			<use xlink:href="#SVGID_33_"  overflow="visible"/>
		</clipPath>
		<path clip-path="url(#SVGID_4_)" fill="#413B34" d="M731.92,543.105c5.765-5.727,15.258-5.639,21.211,0.199
			c5.955,5.832,6.109,15.201,0.351,20.93c-5.765,5.727-15.26,5.641-21.215-0.197C726.312,558.203,726.158,548.832,731.92,543.105z"
			/>
		<g clip-path="url(#SVGID_4_)">
			<path fill="#26322C" d="M778.087,564.201"/>
			<g>
				<g>
					<path fill="#5B622B" d="M713.597,553.201c0.595,0,2.097-0.902,0.803-0.902C713.805,552.299,712.303,553.201,713.597,553.201
						L713.597,553.201z"/>
				</g>
			</g>
			<polygon fill="#E4E4EC" points="760.646,576.568 766.207,574.008 752.895,568.824 			"/>
			<polygon fill="#D8D7DB" points="766.461,574.297 769.511,565.104 759.892,566.342 752.871,568.799 			"/>
			<path fill="#26322C" d="M773.71,563.748"/>
			<polygon fill="#B3AE9D" points="766.207,545.695 765.881,563.959 755.828,561.027 			"/>
			<polygon fill="#8B8377" points="755.874,560.986 769.511,565.104 766.649,574.146 753.021,569.023 749.258,566.678 			"/>
			<polygon fill="#ABAE9F" points="749.925,566.658 742.672,573.895 736.033,566.75 			"/>
			<polygon fill="#D8D7DB" points="727.58,565.021 727.026,556.043 730.086,553.824 736.2,566.762 			"/>
			<polygon fill="#A9A198" points="717.729,563.602 727.58,565.021 727.063,555.939 717.932,562.791 			"/>
			<polygon fill="#F4EFE0" points="729.688,553.949 735.557,543.705 725.372,533.529 			"/>
			<polygon fill="#E4E4EC" points="735.557,543.705 742.837,540.35 725.403,533.562 			"/>
			<polygon fill="#D8D7DB" points="743.169,540.73 747.162,528.686 734.564,530.312 725.372,533.529 			"/>
			<polygon fill="#B3AE9D" points="743.204,540.697 750.686,543.363 757.283,534.209 747.162,528.686 			"/>
			<polygon fill="#EFE4D1" points="750.361,543.947 756.155,549.641 766.207,545.695 757.283,534.209 			"/>
			<polygon fill="#555748" points="755.938,560.934 766.207,545.695 756.155,549.641 			"/>
			<polyline fill="#EAE2CB" points="711.254,555.52 725.372,533.529 730.086,553.824 717.932,562.791 710.838,555.193 			"/>
			<polygon fill="#EAEAEA" points="736.2,566.762 755.938,560.934 749.258,566.678 			"/>
		</g>
	</g>
</g>
</svg>
