<?xml version="1.0" encoding="utf-8"?>
<!-- Generator: Adobe Illustrator 16.0.0, SVG Export Plug-In . SVG Version: 6.00 Build 0)  -->
<!DOCTYPE svg PUBLIC "-//W3C//DTD SVG 1.1//EN" "http://www.w3.org/Graphics/SVG/1.1/DTD/svg11.dtd">
<svg version="1.1" id="Layer_1" xmlns="http://www.w3.org/2000/svg" xmlns:xlink="http://www.w3.org/1999/xlink" x="0px" y="0px"
	 width="1024px" height="1024px" viewBox="0 0 1024 1024" enable-background="new 0 0 1024 1024" xml:space="preserve">
<rect x="-3267.122" y="-1389.835" display="none" width="4781.037" height="2764.835"/>
<g id="Venus">
	<defs>
		<circle id="SVGID_7_" cx="517.27" cy="514.449" r="158.399"/>
	</defs>
	<clipPath id="SVGID_2_">
		<use xlink:href="#SVGID_7_"  overflow="visible"/>
	</clipPath>
	<circle clip-path="url(#SVGID_2_)" fill="#E89624" cx="517.27" cy="514.449" r="158.399"/>
	<polygon clip-path="url(#SVGID_2_)" fill="#FBB03A" points="517.344,402.006 681.207,423.268 610.756,590.033 585.752,538.428 	"/>
	<polygon clip-path="url(#SVGID_2_)" fill="#FFCE49" points="523.526,321.25 517.344,402.006 681.207,423.268 	"/>
	<polygon clip-path="url(#SVGID_2_)" fill="#C17129" points="517.344,402.006 463.681,506.17 411.585,581.035 372.024,508.354 
		350.646,406.211 	"/>
	<polygon clip-path="url(#SVGID_2_)" fill="#E89624" points="411.125,574.02 457.671,499.355 517.344,402.006 585.752,538.428 
		610.756,590.033 	"/>
	<polygon clip-path="url(#SVGID_2_)" fill="#A4742A" points="352.629,410.092 347.53,610.359 411.125,574.02 379.528,500.047 	"/>
	<polygon clip-path="url(#SVGID_2_)" fill="#F6AA37" points="352.629,410.092 526.125,344.02 517.344,402.006 	"/>
	<polygon clip-path="url(#SVGID_2_)" fill="#ED8E22" points="681.207,423.268 700.241,527.225 660.423,639.805 610.756,590.033 	"/>
	<polygon clip-path="url(#SVGID_2_)" fill="#9D6627" points="343.531,590.76 411.125,574.02 446.89,631.291 507.425,700.955 	"/>
	<polygon clip-path="url(#SVGID_2_)" fill="#C28B2D" points="411.125,574.02 626.865,584.945 507.425,700.955 471.385,663.49 
		445.396,631.635 	"/>
	<polygon clip-path="url(#SVGID_2_)" fill="#B4742A" points="610.756,590.033 660.423,639.805 507.425,700.955 552.341,651.561 	"/>
	<polygon clip-path="url(#SVGID_2_)" fill="#B0792B" points="343.531,590.76 330.836,496.645 379.528,500.047 	"/>
	<polygon clip-path="url(#SVGID_2_)" fill="#A16E29" points="330.836,496.645 352.407,408.988 379.528,500.047 	"/>
	<polygon clip-path="url(#SVGID_2_)" fill="#D78727" points="700.241,527.225 610.756,590.033 660.423,639.805 	"/>
	<polygon clip-path="url(#SVGID_2_)" fill="#E29D31" points="411.125,574.02 497.545,566.992 610.756,590.033 	"/>
	<polygon clip-path="url(#SVGID_2_)" fill="#FBB136" points="406.425,407.57 430.995,450.805 457.671,499.355 517.344,402.006 	"/>
	<polygon clip-path="url(#SVGID_2_)" fill="#F6AA37" points="352.407,408.988 406.425,407.57 430.995,450.805 	"/>
	<polygon clip-path="url(#SVGID_2_)" fill="#C47C2A" points="430.995,450.805 379.528,500.047 352.407,408.988 	"/>
	<polygon clip-path="url(#SVGID_2_)" fill="#ED8E22" points="430.995,450.805 440.089,441.871 406.425,407.57 	"/>
	<polygon clip-path="url(#SVGID_2_)" fill="#FFC549" points="440.089,441.871 517.344,402.006 406.425,407.57 	"/>
	<polygon clip-path="url(#SVGID_2_)" fill="#FFCE49" points="440.089,441.871 478.35,465.604 430.995,450.805 	"/>
	<polygon clip-path="url(#SVGID_2_)" fill="#F4A634" points="440.089,441.871 478.35,465.604 490.077,416.092 	"/>
	<polygon clip-path="url(#SVGID_2_)" fill="#F39B27" points="406.425,407.57 442.526,386.057 517.344,402.006 	"/>
	<polygon clip-path="url(#SVGID_2_)" fill="#FFCE49" points="406.425,407.57 352.407,408.988 442.526,386.057 	"/>
	<polygon clip-path="url(#SVGID_2_)" fill="#CD7F29" points="352.407,408.988 438.96,348.775 442.526,386.057 	"/>
	<polygon clip-path="url(#SVGID_2_)" fill="#DB6B27" points="523.526,321.25 438.96,348.775 437.17,360.93 	"/>
	<polygon clip-path="url(#SVGID_2_)" fill="#F39726" points="442.526,386.057 437.17,360.93 522.315,343.502 	"/>
	<polygon clip-path="url(#SVGID_2_)" fill="#FFC549" points="522.315,343.502 523.526,321.25 437.17,360.93 	"/>
	<polygon clip-path="url(#SVGID_2_)" fill="#FFDA4D" points="523.526,321.25 612.872,357.498 584.457,372.389 	"/>
	<polygon clip-path="url(#SVGID_2_)" fill="#F58723" points="681.207,423.268 612.325,356.92 584.457,372.389 	"/>
	<polygon clip-path="url(#SVGID_2_)" fill="#8E5523" points="506.599,701.967 473.836,663.658 521.887,683.791 	"/>
	<polygon clip-path="url(#SVGID_2_)" fill="#8E5523" points="506.599,701.967 422.368,670.148 425.423,645.893 	"/>
	<polygon clip-path="url(#SVGID_2_)" fill="#A4742A" points="425.423,645.893 473.836,663.658 506.599,701.967 	"/>
	<polygon clip-path="url(#SVGID_2_)" fill="#473321" points="422.368,670.148 401.527,629.781 425.423,645.893 	"/>
	<polygon clip-path="url(#SVGID_2_)" fill="#8E5523" points="425.423,645.893 445.396,631.635 473.836,663.658 	"/>
	<polygon clip-path="url(#SVGID_2_)" fill="#CE6C28" points="506.599,701.967 532.342,702.674 534.72,689.412 	"/>
	<polygon clip-path="url(#SVGID_2_)" fill="#A76533" points="521.887,683.791 534.72,689.412 506.599,701.967 	"/>
	<polygon clip-path="url(#SVGID_2_)" fill="#8C5D3A" points="343.531,590.76 401.527,629.781 422.368,670.148 	"/>
	<polygon clip-path="url(#SVGID_2_)" fill="#6C451B" points="534.72,689.412 572.097,686.635 532.342,702.674 	"/>
	<polygon clip-path="url(#SVGID_2_)" fill="#EC9C54" points="660.423,639.805 572.097,686.635 575.034,673.389 	"/>
	<polygon clip-path="url(#SVGID_2_)" fill="#AE6E29" points="534.72,689.412 552.341,651.561 572.097,686.635 	"/>
	<polygon clip-path="url(#SVGID_2_)" fill="#9D6627" points="575.034,673.389 552.341,651.561 572.097,686.635 	"/>
	<polygon clip-path="url(#SVGID_2_)" fill="#A16E29" points="473.836,663.658 552.341,651.561 521.887,683.791 	"/>
	<polygon clip-path="url(#SVGID_2_)" fill="#8E5523" points="521.887,683.791 534.72,689.412 552.341,651.561 	"/>
	<polygon clip-path="url(#SVGID_2_)" fill="#CC7629" points="610.756,590.033 585.752,538.428 585.406,584.232 	"/>
	<polygon clip-path="url(#SVGID_2_)" fill="#E47D25" points="681.207,423.268 655.69,504.717 610.756,590.033 	"/>
	<polygon clip-path="url(#SVGID_2_)" fill="#F39B27" points="522.315,343.502 565.009,398.615 517.344,402.006 	"/>
	<polygon clip-path="url(#SVGID_2_)" fill="#FBB136" points="584.457,372.389 522.315,343.502 523.526,321.25 	"/>
	<polygon clip-path="url(#SVGID_2_)" fill="#F58723" points="517.344,402.006 565.009,398.615 588.489,398.146 683.445,425.785 	"/>
	<polygon clip-path="url(#SVGID_2_)" fill="#F9A22D" points="588.489,398.146 584.457,372.389 565.009,398.615 	"/>
	<polygon clip-path="url(#SVGID_2_)" fill="#F6AA37" points="700.241,527.225 655.69,504.717 610.756,590.033 	"/>
	<polygon clip-path="url(#SVGID_2_)" fill="#ED8E22" points="497.545,566.992 517.344,402.006 457.671,499.355 	"/>
	<polygon clip-path="url(#SVGID_2_)" fill="#DA8427" points="585.752,538.428 585.406,584.232 497.545,566.992 	"/>
	<polygon clip-path="url(#SVGID_2_)" fill="#FFCE49" points="517.344,402.006 655.493,454.289 610.756,590.033 585.752,538.428 	"/>
	<polygon clip-path="url(#SVGID_2_)" fill="#ED8E22" points="585.752,538.428 681.207,423.268 610.756,590.033 	"/>
</g>
</svg>
