<?xml version="1.0" encoding="utf-8"?>
<!-- Generator: Adobe Illustrator 16.0.0, SVG Export Plug-In . SVG Version: 6.00 Build 0)  -->
<!DOCTYPE svg PUBLIC "-//W3C//DTD SVG 1.1//EN" "http://www.w3.org/Graphics/SVG/1.1/DTD/svg11.dtd">
<svg version="1.1" id="Layer_1" xmlns="http://www.w3.org/2000/svg" xmlns:xlink="http://www.w3.org/1999/xlink" x="0px" y="0px"
	 width="1024px" height="1024px" viewBox="0 0 1024 1024" enable-background="new 0 0 1024 1024" xml:space="preserve">
<rect x="-1104.61" y="-2471.335" display="none" width="4781.037" height="2764.835"/>
<g id="FG_3_">
	<g>
		<defs>
			<path id="SVGID_39_" d="M840.976,396.688c-14.983,14.752-39.278,14.752-54.262,0c-14.983-14.75-14.983-38.664,0-53.418
				c14.984-14.75,39.276-14.75,54.262,0.004C855.96,358.021,855.96,381.938,840.976,396.688z"/>
		</defs>
		<clipPath id="SVGID_2_">
			<use xlink:href="#SVGID_39_"  overflow="visible"/>
		</clipPath>
		<polygon clip-path="url(#SVGID_2_)" fill="#46442D" points="835.294,391.012 793.337,424.74 769.566,371.252 		"/>
		<polygon clip-path="url(#SVGID_2_)" fill="#6B6331" points="853.357,411.08 835.294,391.012 793.337,424.74 		"/>
		<path clip-path="url(#SVGID_2_)" fill="#47452B" d="M870.586,350.709"/>
		<polygon clip-path="url(#SVGID_2_)" fill="#47452B" points="835.294,391.012 817.25,324.393 870.586,350.709 		"/>
		<polygon clip-path="url(#SVGID_2_)" fill="#26322C" points="817.25,324.393 835.294,391.012 769.566,371.252 		"/>
		<polygon clip-path="url(#SVGID_2_)" fill="#26322C" points="870.586,350.709 829.655,308.461 817.25,324.393 		"/>
		<line clip-path="url(#SVGID_2_)" fill="#736D2E" x1="853.357" y1="411.08" x2="835.294" y2="391.012"/>
		<polygon clip-path="url(#SVGID_2_)" fill="#292F32" points="793.337,424.74 746.506,371.793 769.566,371.252 		"/>
		<path clip-path="url(#SVGID_2_)" fill="#0B132D" d="M808.203,321.102"/>
		<polygon clip-path="url(#SVGID_2_)" fill="#0B132D" points="829.655,308.461 817.25,324.393 766.468,322.373 		"/>
		<g clip-path="url(#SVGID_2_)">
			<g>
				<path fill="#0B132D" d="M773.059,340.948c0.858,0,2.002-1.303,0.696-1.303C772.897,339.646,771.753,340.948,773.059,340.948
					L773.059,340.948z"/>
			</g>
		</g>
		<polygon clip-path="url(#SVGID_2_)" fill="#0D1225" points="817.25,324.393 769.566,371.252 766.468,322.373 		"/>
		<polygon clip-path="url(#SVGID_2_)" fill="#0D1321" points="769.566,371.252 746.506,371.793 766.468,322.373 		"/>
		<line clip-path="url(#SVGID_2_)" fill="#8E8239" x1="852.064" y1="371.787" x2="870.559" y2="350.617"/>
		<polygon clip-path="url(#SVGID_2_)" fill="#CF8936" points="834.98,390.908 793.026,424.639 769.254,371.148 		"/>
		<polygon clip-path="url(#SVGID_2_)" fill="#634E1F" points="853.046,410.975 834.98,390.908 793.026,424.639 		"/>
		<path clip-path="url(#SVGID_2_)" fill="#47452B" d="M870.274,350.602"/>
		<polygon clip-path="url(#SVGID_2_)" fill="#99753C" points="834.98,390.908 816.94,324.289 870.274,350.602 		"/>
		<path clip-path="url(#SVGID_2_)" fill="#26322C" d="M769.254,371.148"/>
		<polygon clip-path="url(#SVGID_2_)" fill="#BA9D46" points="816.94,324.289 834.98,390.908 769.254,371.148 		"/>
		<polygon clip-path="url(#SVGID_2_)" fill="#AE7B3F" points="870.274,350.602 829.34,308.355 816.94,324.289 		"/>
		<polygon clip-path="url(#SVGID_2_)" fill="#8F703E" points="870.274,350.602 864.067,379.395 853.046,410.975 834.98,390.908 		
			"/>
		<polygon clip-path="url(#SVGID_2_)" fill="#5D431B" points="793.026,424.639 763.998,406.014 746.194,371.688 769.254,371.148 		
			"/>
		<path clip-path="url(#SVGID_2_)" fill="#0B132D" d="M807.893,321"/>
		<polygon clip-path="url(#SVGID_2_)" fill="#E1BE62" points="829.655,308.461 817.25,324.393 766.468,322.373 		"/>
		<g clip-path="url(#SVGID_2_)">
			<g>
				<path fill="#0B132D" d="M772.747,340.847c0.858,0,2.002-1.303,0.696-1.303C772.585,339.544,771.441,340.847,772.747,340.847
					L772.747,340.847z"/>
			</g>
		</g>
		<polygon clip-path="url(#SVGID_2_)" fill="#ECD087" points="816.94,324.289 769.254,371.148 764.702,354.611 762.088,345.885 
			766.156,322.275 		"/>
		<polygon clip-path="url(#SVGID_2_)" fill="#E1A03E" points="769.418,371.506 746.194,371.688 766.308,321.477 762.265,346.002 
			764.984,354.445 		"/>
		<line clip-path="url(#SVGID_2_)" fill="#8E8239" x1="851.752" y1="371.688" x2="870.247" y2="350.514"/>
		<polygon clip-path="url(#SVGID_2_)" fill="#7B4E21" points="829.541,308.322 854.596,326.279 842.854,337.152 		"/>
		<polygon clip-path="url(#SVGID_2_)" fill="#926F2D" points="854.596,326.279 870.586,350.797 842.646,336.998 		"/>
		<polygon clip-path="url(#SVGID_2_)" fill="#8F682C" points="763.998,406.014 769.551,371.486 746.146,371.686 		"/>
		<polygon clip-path="url(#SVGID_2_)" fill="#FFC440" points="816.924,324.32 800.434,350.209 796.566,338.436 		"/>
		<polygon clip-path="url(#SVGID_2_)" fill="#BCA381" points="858.739,363.764 825.318,355.406 835.043,390.979 		"/>
		<polygon clip-path="url(#SVGID_2_)" fill="#9D6327" points="870.586,350.797 858.739,363.764 842.912,359.918 		"/>
		<g clip-path="url(#SVGID_2_)">
			<g>
				<path fill="#5B622B" d="M834.673,361.029c0.596,0,2.098-0.902,0.804-0.902C834.881,360.127,833.379,361.029,834.673,361.029
					L834.673,361.029z"/>
			</g>
		</g>
		<polygon clip-path="url(#SVGID_2_)" fill="#89682C" points="858.739,363.764 855.718,376.996 835.043,390.979 		"/>
		<path clip-path="url(#SVGID_2_)" fill="#32311A" d="M870.769,350.514"/>
		<path clip-path="url(#SVGID_2_)" fill="#38371F" d="M870.586,350.797"/>
		<polygon clip-path="url(#SVGID_2_)" fill="#5B3C23" points="870.769,350.514 865.39,384.438 855.718,376.996 		"/>
		<polygon clip-path="url(#SVGID_2_)" fill="#423C38" points="853.294,411.232 865.39,384.438 862.472,382.254 		"/>
		<polygon clip-path="url(#SVGID_2_)" fill="#68615A" points="845.67,402.637 853.232,411.475 862.472,382.092 		"/>
		<polygon clip-path="url(#SVGID_2_)" fill="#5E452B" points="853.294,411.232 824.087,423.234 826.952,413.275 		"/>
		<polygon clip-path="url(#SVGID_2_)" fill="#6D4E20" points="793.517,424.588 824.346,423.236 826.952,413.275 		"/>
		<polygon clip-path="url(#SVGID_2_)" fill="#EDC569" points="766.101,321.855 782.605,322.688 766.976,329.471 		"/>
		<polygon clip-path="url(#SVGID_2_)" fill="#F79A36" points="766.101,321.855 792.67,309.189 797.751,315.295 		"/>
		<polygon clip-path="url(#SVGID_2_)" fill="#DFBB68" points="797.751,315.295 782.605,322.688 766.101,321.855 		"/>
		<polygon clip-path="url(#SVGID_2_)" fill="#3A3D25" points="792.67,309.189 806.977,313.275 797.751,315.295 		"/>
		<polygon clip-path="url(#SVGID_2_)" fill="#FAC050" points="766.101,321.855 760.127,327.727 762.743,331.23 		"/>
		<polygon clip-path="url(#SVGID_2_)" fill="#C9AD69" points="830.295,308.475 807.725,313.627 793.324,309.35 		"/>
		<polygon clip-path="url(#SVGID_2_)" fill="#F0C376" points="766.961,328.398 754.976,340.598 760.127,327.727 		"/>
		<polygon clip-path="url(#SVGID_2_)" fill="#FFEDCE" points="746.146,371.686 754.976,340.598 757.462,344.23 		"/>
		<polygon clip-path="url(#SVGID_2_)" fill="#F1CB6C" points="765.934,328.711 769.067,338.143 754.976,340.598 		"/>
		<polygon clip-path="url(#SVGID_2_)" fill="#CB8B2A" points="769.566,371.252 787.105,376.533 777.374,367.449 		"/>
		<polygon clip-path="url(#SVGID_2_)" fill="#AE792B" points="787.105,376.533 782.687,401.432 769.566,371.252 		"/>
		<polygon clip-path="url(#SVGID_2_)" fill="#B98D41" points="793.026,424.639 779.399,400.576 769.566,371.252 		"/>
		<polygon clip-path="url(#SVGID_2_)" fill="#AE8A5B" points="845.67,402.637 821.313,401.842 835.104,390.812 		"/>
		<polygon clip-path="url(#SVGID_2_)" fill="#9F7632" points="835.177,390.713 826.952,413.275 792.767,424.734 		"/>
		<polygon clip-path="url(#SVGID_2_)" fill="#E2B983" points="763.998,406.014 779.399,400.576 769.566,371.252 		"/>
		<polygon clip-path="url(#SVGID_2_)" fill="#B68441" points="810.002,383.395 792.767,424.734 834.98,390.908 		"/>
		<path clip-path="url(#SVGID_2_)" fill="#26322C" d="M748.373,348.453"/>
		<polygon clip-path="url(#SVGID_2_)" fill="#FFECDF" points="762.246,345.895 753.837,343.975 755.102,340.393 761.732,337.398 
			765.614,340.012 		"/>
		<polygon clip-path="url(#SVGID_2_)" fill="#EBC04F" points="765.614,340.012 761.729,337.252 775.232,336.615 		"/>
		<polygon clip-path="url(#SVGID_2_)" fill="#EBCBAB" points="787.633,334.164 782.022,335.646 784.81,342.193 789.726,334.807 		
			"/>
		<polygon clip-path="url(#SVGID_2_)" fill="#4F3A14" points="783.405,344.328 781.794,353.369 791.993,358.229 		"/>
		<polygon clip-path="url(#SVGID_2_)" fill="#DEC382" points="781.794,353.369 777.319,357.711 791.961,358.207 		"/>
		<polygon clip-path="url(#SVGID_2_)" fill="#F1CD54" points="796.566,338.436 800.434,350.209 791.993,358.229 783.143,344.527 
			789.726,334.807 		"/>
		<polygon clip-path="url(#SVGID_2_)" fill="#F7D678" points="775.208,336.588 762.216,345.949 765.614,340.012 		"/>
		<path clip-path="url(#SVGID_2_)" fill="#26322C" d="M773.633,370.109"/>
		<polygon clip-path="url(#SVGID_2_)" fill="#C79F37" points="786.792,376.447 777.218,367.393 777.503,357.527 791.773,358.062 
			796.218,359.053 		"/>
		<polygon clip-path="url(#SVGID_2_)" fill="#D9B86B" points="796.218,359.053 800.434,350.209 808.789,354.568 		"/>
		<polygon clip-path="url(#SVGID_2_)" fill="#F9C331" points="817.707,353.34 821.359,361.797 819.176,364.965 808.789,354.568 		
			"/>
		<polygon clip-path="url(#SVGID_2_)" fill="#A9A198" points="827.708,351.391 817.707,353.34 821.357,361.914 827.793,352.234 		
			"/>
		<polyline clip-path="url(#SVGID_2_)" fill="#AD924E" points="836.757,356.99 835.021,390.666 819.176,364.965 827.793,352.234 
			837.273,357.156 		"/>
		<polygon clip-path="url(#SVGID_2_)" fill="#E5BD60" points="808.789,354.568 791.763,366.832 796.218,359.053 		"/>
		<polygon clip-path="url(#SVGID_2_)" fill="#E8BF47" points="789.726,334.807 816.937,324.307 796.566,338.436 		"/>
		<polygon clip-path="url(#SVGID_2_)" fill="#D8B842" points="787.633,334.164 782.177,322.928 816.937,324.307 789.789,334.998 		
			"/>
		<polygon clip-path="url(#SVGID_2_)" fill="#E0B553" points="775.271,336.588 772.054,327.166 766.435,329.494 767.144,337.354 		
			"/>
		<polygon clip-path="url(#SVGID_2_)" fill="#BC9237" points="821.244,361.547 842.912,359.918 831.298,331.502 		"/>
		<polygon clip-path="url(#SVGID_2_)" fill="#BFA343" points="821.359,361.797 817.707,353.34 831.298,331.502 		"/>
		<polygon clip-path="url(#SVGID_2_)" fill="#FABF21" points="831.298,331.502 800.434,350.209 808.789,354.568 817.707,353.34 		
			"/>
		<polygon clip-path="url(#SVGID_2_)" fill="#5B3C23" points="842.912,359.918 842.646,336.998 855.962,343.09 		"/>
		<polygon clip-path="url(#SVGID_2_)" fill="#BA964A" points="819.176,364.965 810.002,383.395 808.789,354.568 		"/>
		<polygon clip-path="url(#SVGID_2_)" fill="#D4A951" points="791.763,366.832 786.792,376.447 810.002,383.395 		"/>
		<polygon clip-path="url(#SVGID_2_)" fill="#EAE2CB" points="777.319,357.711 769.566,371.252 777.497,367.545 		"/>
		<polygon clip-path="url(#SVGID_2_)" fill="#777964" points="781.794,353.369 762.216,345.949 777.319,357.711 		"/>
		<polygon clip-path="url(#SVGID_2_)" fill="#E6C15C" points="762.088,345.885 783.143,344.527 784.807,342.105 782.022,335.646 
			775.208,336.588 775.232,336.611 		"/>
		<polygon clip-path="url(#SVGID_2_)" fill="#A5762B" points="782.458,400.559 810.002,383.395 792.819,425.965 		"/>
	</g>
	<g>
		<defs>
			<ellipse id="SVGID_41_" cx="681.461" cy="638.967" rx="36.195" ry="35.635"/>
		</defs>
		<clipPath id="SVGID_4_">
			<use xlink:href="#SVGID_41_"  overflow="visible"/>
		</clipPath>
		<polygon clip-path="url(#SVGID_4_)" fill="#E0B553" points="673.35,578.215 680.235,570.775 675.377,567.029 668.659,571.514 		
			"/>
		<polygon clip-path="url(#SVGID_4_)" fill="#46442D" points="653.969,657.271 603.01,637.322 639.391,590.301 		"/>
		<polygon clip-path="url(#SVGID_4_)" fill="#6B6331" points="644.819,682.881 653.969,657.271 603.01,637.322 		"/>
		<path clip-path="url(#SVGID_4_)" fill="#47452B" d="M707.557,668.18"/>
		<polygon clip-path="url(#SVGID_4_)" fill="#47452B" points="653.969,657.271 704.965,608.777 707.557,668.18 		"/>
		<polygon clip-path="url(#SVGID_4_)" fill="#26322C" points="704.965,608.777 653.969,657.271 639.391,590.301 		"/>
		<polygon clip-path="url(#SVGID_4_)" fill="#26322C" points="707.557,668.18 725.387,611.74 704.965,608.777 		"/>
		<line clip-path="url(#SVGID_4_)" fill="#736D2E" x1="644.819" y1="682.881" x2="653.969" y2="657.271"/>
		<polygon clip-path="url(#SVGID_4_)" fill="#292F32" points="603.01,637.322 627.557,570.48 639.391,590.301 		"/>
		<path clip-path="url(#SVGID_4_)" fill="#0B132D" d="M703.472,599.277"/>
		<polygon clip-path="url(#SVGID_4_)" fill="#0B132D" points="725.387,611.74 704.965,608.777 681.792,563.551 		"/>
		<g clip-path="url(#SVGID_4_)">
			<g>
				<path fill="#0B132D" d="M668.75,579.065c0.857,0,2.002-1.303,0.696-1.303C668.589,577.763,667.444,579.065,668.75,579.065
					L668.75,579.065z"/>
			</g>
		</g>
		<polygon clip-path="url(#SVGID_4_)" fill="#0D1225" points="704.965,608.777 639.391,590.301 681.792,563.551 		"/>
		<polygon clip-path="url(#SVGID_4_)" fill="#0D1321" points="639.391,590.301 627.557,570.48 681.792,563.551 		"/>
		<line clip-path="url(#SVGID_4_)" fill="#8E8239" x1="679.499" y1="662.416" x2="707.625" y2="668.111"/>
		<polygon clip-path="url(#SVGID_4_)" fill="#D1BC9D" points="653.909,656.947 602.953,637 639.328,589.979 		"/>
		<polygon clip-path="url(#SVGID_4_)" fill="#AEAFA5" points="644.759,682.555 653.909,656.947 602.953,637 		"/>
		<path clip-path="url(#SVGID_4_)" fill="#47452B" d="M707.498,667.857"/>
		<polygon clip-path="url(#SVGID_4_)" fill="#B59F7B" points="653.909,656.947 704.904,608.455 707.498,667.857 		"/>
		<path clip-path="url(#SVGID_4_)" fill="#26322C" d="M639.328,589.979"/>
		<polygon clip-path="url(#SVGID_4_)" fill="#B69C74" points="704.904,608.455 653.909,656.947 639.328,589.979 		"/>
		<polygon clip-path="url(#SVGID_4_)" fill="#9B735F" points="707.498,667.857 725.326,611.42 704.904,608.455 		"/>
		<polygon clip-path="url(#SVGID_4_)" fill="#C5C6A0" points="707.498,667.857 678.567,676.619 644.759,682.555 653.909,656.947 		
			"/>
		<polygon clip-path="url(#SVGID_4_)" fill="#97969B" points="602.953,637 605.408,602.553 627.496,570.162 639.328,589.979 		"/>
		<path clip-path="url(#SVGID_4_)" fill="#0B132D" d="M703.411,598.955"/>
		<polygon clip-path="url(#SVGID_4_)" fill="#85674D" points="725.387,611.74 704.965,608.777 681.792,563.551 		"/>
		<g clip-path="url(#SVGID_4_)">
			<g>
				<path fill="#0B132D" d="M668.688,578.747c0.858,0,2.002-1.303,0.696-1.303C668.526,577.444,667.382,578.747,668.688,578.747
					L668.688,578.747z"/>
			</g>
		</g>
		<polygon clip-path="url(#SVGID_4_)" fill="#BD9D76" points="704.904,608.455 639.328,589.979 651.952,577.875 658.507,571.305 
			681.729,563.23 		"/>
		<polygon clip-path="url(#SVGID_4_)" fill="#B4AC99" points="639.088,590.297 627.496,570.162 682.522,562.973 658.491,571.518 
			652.24,578.043 		"/>
		<line clip-path="url(#SVGID_4_)" fill="#8E8239" x1="679.436" y1="662.098" x2="707.565" y2="667.793"/>
		<polygon clip-path="url(#SVGID_4_)" fill="#A09D97" points="725.453,611.576 721.643,642.232 706.094,637.357 		"/>
		<polygon clip-path="url(#SVGID_4_)" fill="#C7C2B5" points="721.643,642.232 707.477,668.221 706.128,637.098 		"/>
		<polygon clip-path="url(#SVGID_4_)" fill="#B3B4AD" points="605.408,602.553 639.171,590.402 627.479,570.115 		"/>
		<polygon clip-path="url(#SVGID_4_)" fill="#97724A" points="704.867,608.455 673.491,606.832 682.168,597.672 		"/>
		<polygon clip-path="url(#SVGID_4_)" fill="#FFFAEC" points="689.992,664.287 681.062,631.064 653.878,657.037 		"/>
		<polygon clip-path="url(#SVGID_4_)" fill="#D0C6AB" points="707.477,668.221 689.992,664.287 685.663,648.609 		"/>
		<g clip-path="url(#SVGID_4_)">
			<g>
				<path fill="#5B622B" d="M680.812,642.555c0.596,0,2.098-0.902,0.804-0.902C681.02,641.652,679.518,642.555,680.812,642.555
					L680.812,642.555z"/>
			</g>
		</g>
		<polygon clip-path="url(#SVGID_4_)" fill="#CAC29A" points="689.992,664.287 676.613,668.164 653.878,657.037 		"/>
		<path clip-path="url(#SVGID_4_)" fill="#32311A" d="M707.819,668.242"/>
		<path clip-path="url(#SVGID_4_)" fill="#38371F" d="M707.477,668.221"/>
		<polygon clip-path="url(#SVGID_4_)" fill="#ACB3AE" points="707.819,668.242 674.683,680.246 676.613,668.164 		"/>
		<polygon clip-path="url(#SVGID_4_)" fill="#A8B4A1" points="644.653,682.898 674.683,680.246 675.214,676.635 		"/>
		<polygon clip-path="url(#SVGID_4_)" fill="#92AC99" points="648.626,672.029 644.403,682.965 675.359,676.555 		"/>
		<polygon clip-path="url(#SVGID_4_)" fill="#ADBBB6" points="644.653,682.898 619.493,663.367 629.857,660.959 		"/>
		<polygon clip-path="url(#SVGID_4_)" fill="#A2A5A7" points="603.238,637.402 619.622,663.592 629.857,660.959 		"/>
		<polygon clip-path="url(#SVGID_4_)" fill="#9C989B" points="682.079,562.979 706.535,579.889 703.547,587.318 		"/>
		<polygon clip-path="url(#SVGID_4_)" fill="#B0ABA3" points="703.547,587.318 689.448,577.762 682.079,562.979 		"/>
		<polygon clip-path="url(#SVGID_4_)" fill="#957259" points="706.535,579.889 709.9,594.359 703.547,587.318 		"/>
		<polygon clip-path="url(#SVGID_4_)" fill="#849391" points="682.079,562.979 673.858,560.664 672.002,564.666 		"/>
		<polygon clip-path="url(#SVGID_4_)" fill="#8F888F" points="725.688,612.307 709.954,595.186 706.712,580.537 		"/>
		<polygon clip-path="url(#SVGID_4_)" fill="#8B998F" points="676.621,566.949 659.759,562.51 673.858,560.664 		"/>
		<polygon clip-path="url(#SVGID_4_)" fill="#FFEDCE" points="627.479,570.115 659.759,562.51 657.72,566.463 		"/>
		<polygon clip-path="url(#SVGID_4_)" fill="#B2AF9D" points="675.837,566.203 668.901,573.576 659.759,562.51 		"/>
		<polygon clip-path="url(#SVGID_4_)" fill="#CDB797" points="639.391,590.301 643.273,608.176 646.648,595.232 		"/>
		<polygon clip-path="url(#SVGID_4_)" fill="#AE9274" points="643.273,608.176 618.723,616.578 639.391,590.301 		"/>
		<polygon clip-path="url(#SVGID_4_)" fill="#978067" points="602.953,637 617.872,613.295 639.391,590.301 		"/>
		<polygon clip-path="url(#SVGID_4_)" fill="#CED0C5" points="648.626,672.029 637.359,650.424 654.054,657.006 		"/>
		<polygon clip-path="url(#SVGID_4_)" fill="#C3C6C5" points="654.181,657.021 629.857,660.959 602.735,636.822 		"/>
		<polygon clip-path="url(#SVGID_4_)" fill="#927873" points="605.408,602.553 617.872,613.295 639.391,590.301 		"/>
		<polygon clip-path="url(#SVGID_4_)" fill="#C3B7A1" points="648.371,631.494 602.735,636.822 653.909,656.947 		"/>
		<path clip-path="url(#SVGID_4_)" fill="#26322C" d="M649.45,560.623"/>
		<polygon clip-path="url(#SVGID_4_)" fill="#A2A999" points="658.575,571.451 656.165,563.18 660.008,562.52 665.961,566.82 
			665.519,571.488 		"/>
		<polygon clip-path="url(#SVGID_4_)" fill="#BFB59A" points="665.519,571.488 666.087,566.748 673.307,578.193 		"/>
		<polygon clip-path="url(#SVGID_4_)" fill="#EBCBAB" points="681.608,587.789 677.516,583.631 673.006,589.279 682.061,589.926 		
			"/>
		<polygon clip-path="url(#SVGID_4_)" fill="#BAA689" points="670.395,589.109 661.479,592.154 662.128,603.426 		"/>
		<polygon clip-path="url(#SVGID_4_)" fill="#DEC382" points="661.479,592.154 655.375,590.391 662.128,603.389 		"/>
		<polygon clip-path="url(#SVGID_4_)" fill="#B69169" points="682.168,597.672 673.491,606.832 662.128,603.426 670.09,588.979 
			682.061,589.926 		"/>
		<polygon clip-path="url(#SVGID_4_)" fill="#C2AC8D" points="673.323,578.16 658.512,571.451 665.519,571.488 		"/>
		<path clip-path="url(#SVGID_4_)" fill="#26322C" d="M642.415,593.285"/>
		<polygon clip-path="url(#SVGID_4_)" fill="#B68E65" points="643.196,607.857 646.623,595.068 655.628,590.463 662.171,603.152 
			663.467,607.51 		"/>
		<polygon clip-path="url(#SVGID_4_)" fill="#A9845B" points="663.467,607.51 673.491,606.832 673.68,616.254 		"/>
		<polygon clip-path="url(#SVGID_4_)" fill="#D3AF76" points="679.175,623.422 673.369,630.758 669.444,630.414 673.68,616.254 		
			"/>
		<polygon clip-path="url(#SVGID_4_)" fill="#A9A198" points="685.846,631.168 679.175,623.422 673.267,630.812 685.128,631.66 		
			"/>
		<polyline clip-path="url(#SVGID_4_)" fill="#C8A87A" points="685.269,641.807 654.146,656.861 669.444,630.414 685.128,631.66 
			685.37,642.34 		"/>
		<polygon clip-path="url(#SVGID_4_)" fill="#C5A77E" points="673.68,616.254 654.282,607.463 663.467,607.51 		"/>
		<polygon clip-path="url(#SVGID_4_)" fill="#A68666" points="682.061,589.926 704.888,608.463 682.168,597.672 		"/>
		<polygon clip-path="url(#SVGID_4_)" fill="#B6A790" points="681.608,587.789 689.027,577.508 704.888,608.463 681.921,590.074 		
			"/>
		<polygon clip-path="url(#SVGID_4_)" fill="#B5946C" points="673.537,630.535 685.663,648.609 705.484,624.512 		"/>
		<polygon clip-path="url(#SVGID_4_)" fill="#A6794E" points="673.369,630.758 679.175,623.422 705.484,624.512 		"/>
		<polygon clip-path="url(#SVGID_4_)" fill="#C9AE8A" points="705.484,624.512 673.491,606.832 673.68,616.254 679.175,623.422 		
			"/>
		<polygon clip-path="url(#SVGID_4_)" fill="#A47751" points="685.663,648.609 706.128,637.098 707.206,651.693 		"/>
		<polygon clip-path="url(#SVGID_4_)" fill="#C4A678" points="669.444,630.414 648.371,631.494 673.68,616.254 		"/>
		<polygon clip-path="url(#SVGID_4_)" fill="#DFCEAB" points="654.282,607.463 643.196,607.857 648.371,631.494 		"/>
		<polygon clip-path="url(#SVGID_4_)" fill="#EAE2CB" points="655.375,590.391 639.391,590.301 646.623,595.385 		"/>
		<polygon clip-path="url(#SVGID_4_)" fill="#777964" points="661.479,592.154 658.512,571.451 655.375,590.391 		"/>
		<polygon clip-path="url(#SVGID_4_)" fill="#B6926A" points="658.507,571.305 670.09,588.979 673.082,589.236 677.516,583.631 
			673.323,578.16 673.311,578.193 		"/>
		<polygon clip-path="url(#SVGID_4_)" fill="#B4A391" points="619.393,615.949 648.371,631.494 601.654,637.475 		"/>
		<polygon clip-path="url(#SVGID_4_)" fill="#BBAE97" points="679.689,556.285 689.448,577.762 674.54,565.852 		"/>
	</g>
	<g>
		<defs>
			
				<ellipse id="SVGID_43_" transform="matrix(0.7071 0.7071 -0.7071 0.7071 580.5129 118.1028)" cx="147.695" cy="759.787" rx="63.305" ry="62.32"/>
		</defs>
		<clipPath id="SVGID_6_">
			<use xlink:href="#SVGID_43_"  overflow="visible"/>
		</clipPath>
		<polygon clip-path="url(#SVGID_6_)" fill="#E0B553" points="106.112,786.891 94.948,787.318 95.813,794.027 104.545,795.766 		"/>
		<polygon clip-path="url(#SVGID_6_)" fill="#46442D" points="182.842,740.373 207.019,795.643 142.006,803.938 		"/>
		<polygon clip-path="url(#SVGID_6_)" fill="#6B6331" points="209.938,727.543 182.842,740.373 207.019,795.643 		"/>
		<path clip-path="url(#SVGID_6_)" fill="#47452B" d="M149.575,690.096"/>
		<polygon clip-path="url(#SVGID_6_)" fill="#47452B" points="182.842,740.373 105.292,738.42 149.575,690.096 		"/>
		<polygon clip-path="url(#SVGID_6_)" fill="#26322C" points="105.292,738.42 182.842,740.373 142.006,803.938 		"/>
		<polygon clip-path="url(#SVGID_6_)" fill="#26322C" points="149.575,690.096 91.685,720.191 105.292,738.42 		"/>
		<line clip-path="url(#SVGID_6_)" fill="#736D2E" x1="209.938" y1="727.543" x2="182.842" y2="740.373"/>
		<polygon clip-path="url(#SVGID_6_)" fill="#292F32" points="207.019,795.643 135.78,828.613 142.006,803.938 		"/>
		<path clip-path="url(#SVGID_6_)" fill="#0B132D" d="M99.052,746.988"/>
		<polygon clip-path="url(#SVGID_6_)" fill="#0B132D" points="91.685,720.191 105.292,738.42 88.105,791.736 		"/>
		<g clip-path="url(#SVGID_6_)">
			<g>
				<path fill="#0B132D" d="M109.235,790.698c0.857,0,2.002-1.303,0.696-1.303C109.074,789.396,107.929,790.698,109.235,790.698
					L109.235,790.698z"/>
			</g>
		</g>
		<polygon clip-path="url(#SVGID_6_)" fill="#0D1225" points="105.292,738.42 142.006,803.938 88.105,791.736 		"/>
		<polygon clip-path="url(#SVGID_6_)" fill="#0D1321" points="142.006,803.938 135.78,828.613 88.105,791.736 		"/>
		<line clip-path="url(#SVGID_6_)" fill="#8E8239" x1="166.959" y1="716.459" x2="149.472" y2="690.096"/>
		<polygon clip-path="url(#SVGID_6_)" fill="#7E7165" points="182.64,740.668 206.814,795.939 141.805,804.236 		"/>
		<polygon clip-path="url(#SVGID_6_)" fill="#837F84" points="209.734,727.842 182.64,740.668 206.814,795.939 		"/>
		<path clip-path="url(#SVGID_6_)" fill="#47452B" d="M149.369,690.393"/>
		<polygon clip-path="url(#SVGID_6_)" fill="#DBCAC5" points="182.64,740.668 105.091,738.719 149.369,690.393 		"/>
		<path clip-path="url(#SVGID_6_)" fill="#26322C" d="M141.805,804.236"/>
		<polygon clip-path="url(#SVGID_6_)" fill="#695B48" points="105.091,738.719 182.64,740.668 141.805,804.236 		"/>
		<polygon clip-path="url(#SVGID_6_)" fill="#DECEC0" points="149.369,690.393 91.479,720.49 105.091,738.719 		"/>
		<polygon clip-path="url(#SVGID_6_)" fill="#D1C4C8" points="149.369,690.393 178.751,706.117 209.734,727.842 182.64,740.668 		
			"/>
		<polygon clip-path="url(#SVGID_6_)" fill="#3F3A2F" points="206.814,795.939 178.047,820.875 135.578,828.908 141.805,804.236 		
			"/>
		<path clip-path="url(#SVGID_6_)" fill="#0B132D" d="M98.85,747.285"/>
		<polygon clip-path="url(#SVGID_6_)" fill="#8A786A" points="91.685,720.191 105.292,738.42 88.105,791.736 		"/>
		<g clip-path="url(#SVGID_6_)">
			<g>
				<path fill="#0B132D" d="M109.033,790.995c0.857,0,2.002-1.303,0.696-1.303C108.872,789.692,107.727,790.995,109.033,790.995
					L109.033,790.995z"/>
			</g>
		</g>
		<polygon clip-path="url(#SVGID_6_)" fill="#4F423F" points="105.091,738.719 141.805,804.236 122.529,803.83 112.3,803.844 
			87.904,792.037 		"/>
		<polygon clip-path="url(#SVGID_6_)" fill="#675E5C" points="142.238,804.178 135.578,828.908 87.082,791.623 112.479,803.691 
			122.435,803.477 		"/>
		<line clip-path="url(#SVGID_6_)" fill="#8E8239" x1="166.757" y1="716.76" x2="149.271" y2="690.393"/>
		<polygon clip-path="url(#SVGID_6_)" fill="#C5B3B2" points="91.503,720.266 118.372,699.34 126.69,715.262 		"/>
		<polygon clip-path="url(#SVGID_6_)" fill="#FFFBF6" points="118.372,699.34 149.672,690.123 126.463,715.436 		"/>
		<polygon clip-path="url(#SVGID_6_)" fill="#494139" points="185.8,797.713 161.757,786.398 157.258,803.143 		"/>
		<polygon clip-path="url(#SVGID_6_)" fill="#85796B" points="105.119,738.746 128.312,764.475 114.408,764.846 		"/>
		<polygon clip-path="url(#SVGID_6_)" fill="#FFFAEC" points="160.231,706.818 141.299,739.678 182.735,740.625 		"/>
		<polygon clip-path="url(#SVGID_6_)" fill="#E8D9D5" points="149.672,690.123 160.231,706.818 151.387,722.418 		"/>
		<g clip-path="url(#SVGID_6_)">
			<g>
				<path fill="#5B622B" d="M149.381,731.408c0.596,0,2.098-0.902,0.804-0.902C149.589,730.506,148.087,731.408,149.381,731.408
					L149.381,731.408z"/>
			</g>
		</g>
		<polygon clip-path="url(#SVGID_6_)" fill="#C3B9BC" points="160.231,706.818 173.681,714.229 182.735,740.625 		"/>
		<path clip-path="url(#SVGID_6_)" fill="#32311A" d="M149.42,689.84"/>
		<path clip-path="url(#SVGID_6_)" fill="#38371F" d="M149.672,690.123"/>
		<polygon clip-path="url(#SVGID_6_)" fill="#E0D6DE" points="149.42,689.84 184.609,706.311 173.681,714.229 		"/>
		<polygon clip-path="url(#SVGID_6_)" fill="#A8B4A1" points="210.088,727.654 184.609,706.311 181.382,708.717 		"/>
		<polygon clip-path="url(#SVGID_6_)" fill="#988D95" points="198.514,733.031 210.327,727.797 181.205,708.666 		"/>
		<polygon clip-path="url(#SVGID_6_)" fill="#ADBBB6" points="210.088,727.654 214.47,762.494 204.516,756.291 		"/>
		<polygon clip-path="url(#SVGID_6_)" fill="#A2A5A7" points="206.903,795.406 214.547,762.219 204.516,756.291 		"/>
		<polygon clip-path="url(#SVGID_6_)" fill="#AB9FA8" points="87.433,791.961 81.552,759.715 89.668,756.252 		"/>
		<polygon clip-path="url(#SVGID_6_)" fill="#BDAFB9" points="89.668,756.252 93.212,774.691 87.433,791.961 		"/>
		<polygon clip-path="url(#SVGID_6_)" fill="#77655E" points="81.552,759.715 90.206,745.811 89.668,756.252 		"/>
		<polygon clip-path="url(#SVGID_6_)" fill="#849391" points="87.433,791.961 92.032,800.17 96.603,798.502 		"/>
		<polygon clip-path="url(#SVGID_6_)" fill="#8F888F" points="91.889,719.514 90.808,745.129 81.92,759.072 		"/>
		<polygon clip-path="url(#SVGID_6_)" fill="#B2A9B0" points="94.78,793.121 104.466,809.723 92.032,800.17 		"/>
		<polygon clip-path="url(#SVGID_6_)" fill="#FFEDCE" points="135.559,828.957 104.466,809.723 109.136,808.234 		"/>
		<polygon clip-path="url(#SVGID_6_)" fill="#867D83" points="94.812,794.314 105.965,793.975 104.466,809.723 		"/>
		<polygon clip-path="url(#SVGID_6_)" fill="#847A69" points="142.006,803.938 152.915,786.98 140.189,794.438 		"/>
		<polygon clip-path="url(#SVGID_6_)" fill="#514738" points="152.915,786.98 178.602,799.568 142.006,803.938 		"/>
		<polygon clip-path="url(#SVGID_6_)" fill="#4C4235" points="206.814,795.939 176.703,802.789 142.006,803.938 		"/>
		<polygon clip-path="url(#SVGID_6_)" fill="#CED0C5" points="198.514,733.031 190.456,758.656 182.57,740.512 		"/>
		<polygon clip-path="url(#SVGID_6_)" fill="#C3C6C5" points="182.485,740.398 204.516,756.291 206.842,796.248 		"/>
		<polygon clip-path="url(#SVGID_6_)" fill="#3C3828" points="178.047,820.875 176.703,802.789 142.006,803.938 		"/>
		<polygon clip-path="url(#SVGID_6_)" fill="#887F86" points="167.115,764.826 206.842,796.248 182.64,740.668 		"/>
		<path clip-path="url(#SVGID_6_)" fill="#26322C" d="M111.029,819.23"/>
		<polygon clip-path="url(#SVGID_6_)" fill="#978E98" points="112.357,803.678 107.788,812.004 104.28,809.521 102.99,801.529 
			106.973,798.234 		"/>
		<polygon clip-path="url(#SVGID_6_)" fill="#87807E" points="106.973,798.234 102.833,801.49 106.13,786.938 		"/>
		<polygon clip-path="url(#SVGID_6_)" fill="#938374" points="107.14,772.986 107.089,779.418 115.008,778.533 108.45,770.969 		"/>
		<polygon clip-path="url(#SVGID_6_)" fill="#463A2D" points="116.907,780.701 126.231,785.277 134.515,775.98 		"/>
		<polygon clip-path="url(#SVGID_6_)" fill="#5F5447" points="126.231,785.277 129.615,791.41 134.484,776.012 		"/>
		<polygon clip-path="url(#SVGID_6_)" fill="#52463A" points="114.408,764.846 128.312,764.475 134.515,775.98 117.041,781.045 
			108.45,770.969 		"/>
		<polygon clip-path="url(#SVGID_6_)" fill="#887F85" points="106.093,786.953 112.403,803.729 106.973,798.234 		"/>
		<path clip-path="url(#SVGID_6_)" fill="#26322C" d="M141.975,799.254"/>
		<polygon clip-path="url(#SVGID_6_)" fill="#716453" points="152.728,787.285 140.084,794.588 129.477,791.152 134.269,776.166 
			136.655,771.758 		"/>
		<polygon clip-path="url(#SVGID_6_)" fill="#85796F" points="136.655,771.758 128.312,764.475 135.508,756.979 		"/>
		<polygon clip-path="url(#SVGID_6_)" fill="#9E9188" points="136.809,747.111 147.053,745.914 149.848,749.238 135.508,756.979 		
			"/>
		<polygon clip-path="url(#SVGID_6_)" fill="#A9A198" points="137.649,735.871 136.809,747.111 147.181,745.953 138.595,736.047 		
			"/>
		<polyline clip-path="url(#SVGID_6_)" fill="#978776" points="146.393,728.029 182.388,740.551 149.848,749.238 138.595,736.047 
			146.729,727.533 		"/>
		<polygon clip-path="url(#SVGID_6_)" fill="#968776" points="135.508,756.979 143.773,778.957 136.655,771.758 		"/>
		<polygon clip-path="url(#SVGID_6_)" fill="#7C6D62" points="108.45,770.969 105.104,738.725 114.408,764.846 		"/>
		<polygon clip-path="url(#SVGID_6_)" fill="#B6A790" points="107.14,772.986 93.342,775.221 105.104,738.725 108.679,770.959 		"/>
		<polygon clip-path="url(#SVGID_6_)" fill="#C5B6AD" points="146.752,745.957 151.387,722.418 117.151,725.748 		"/>
		<polygon clip-path="url(#SVGID_6_)" fill="#9A8A7B" points="147.053,745.914 136.809,747.111 117.151,725.748 		"/>
		<polygon clip-path="url(#SVGID_6_)" fill="#7C6B5B" points="117.151,725.748 128.312,764.475 135.508,756.979 136.809,747.111 		
			"/>
		<polygon clip-path="url(#SVGID_6_)" fill="#BFAF9E" points="151.387,722.418 126.463,715.436 136.999,703.219 		"/>
		<polygon clip-path="url(#SVGID_6_)" fill="#B9AA9B" points="149.848,749.238 167.115,764.826 135.508,756.979 		"/>
		<polygon clip-path="url(#SVGID_6_)" fill="#948577" points="143.773,778.957 152.728,787.285 167.115,764.826 		"/>
		<polygon clip-path="url(#SVGID_6_)" fill="#463A2D" points="129.615,791.41 142.006,803.938 140.334,794.338 		"/>
		<polygon clip-path="url(#SVGID_6_)" fill="#71676A" points="126.231,785.277 112.403,803.729 129.615,791.41 		"/>
		<polygon clip-path="url(#SVGID_6_)" fill="#5B4D3D" points="112.3,803.844 117.041,781.045 114.912,778.506 107.089,779.418 
			106.093,786.953 106.13,786.936 		"/>
		<polygon clip-path="url(#SVGID_6_)" fill="#716A5E" points="177.585,799.533 167.115,764.826 208.194,796.58 		"/>
		<polygon clip-path="url(#SVGID_6_)" fill="#8D7F89" points="84.076,799.041 93.212,774.691 95.552,795.596 		"/>
	</g>
	<ellipse fill="#AF9A8C" cx="367.225" cy="277.115" rx="17.92" ry="17.639"/>
	<ellipse fill="#AF9A8C" cx="398.729" cy="682.838" rx="8.369" ry="8.238"/>
	<ellipse fill="#AF9A8C" cx="832.372" cy="649.029" rx="8.369" ry="8.24"/>
</g>
</svg>
