<?xml version="1.0" encoding="utf-8"?>
<!-- Generator: Adobe Illustrator 16.0.0, SVG Export Plug-In . SVG Version: 6.00 Build 0)  -->
<!DOCTYPE svg PUBLIC "-//W3C//DTD SVG 1.1//EN" "http://www.w3.org/Graphics/SVG/1.1/DTD/svg11.dtd">
<svg version="1.1" id="Layer_1" xmlns="http://www.w3.org/2000/svg" xmlns:xlink="http://www.w3.org/1999/xlink" x="0px" y="0px"
	 width="1024px" height="1024px" viewBox="0 0 1024 1024" enable-background="new 0 0 1024 1024" xml:space="preserve">
<g id="BG">
	<path fill="#7E7165" d="M27.773,617.285c0-2.594,2.101-4.695,4.692-4.695c2.593,0,4.694,2.102,4.694,4.695
		c0,2.59-2.101,4.691-4.694,4.691C29.874,621.977,27.773,619.875,27.773,617.285z"/>
	<path fill="#7E7165" d="M892.587,406.143c0-2.594,2.101-4.695,4.693-4.695c2.592,0,4.693,2.102,4.693,4.695
		c0,2.59-2.102,4.693-4.693,4.693C894.688,410.836,892.587,408.732,892.587,406.143z"/>
	<circle fill="#7E7165" cx="165.951" cy="249.457" r="4.693"/>
	<circle fill="#7E7165" cx="874.627" cy="858.5" r="4.694"/>
	<circle fill="#7E7165" cx="635.876" cy="196.092" r="4.693"/>
	<circle fill="#7E7165" cx="560.675" cy="119.09" r="9.386"/>
	<circle fill="#7E7165" cx="965.605" cy="535.588" r="9.387"/>
	<circle fill="#7E7165" cx="548.396" cy="837.102" r="9.387"/>
	<circle fill="#7E7165" cx="92.114" cy="533.404" r="17.709"/>
	<circle fill="#7E7165" cx="927.489" cy="859.533" r="17.709"/>
	<circle fill="#7E7165" cx="337.963" cy="993.291" r="17.71"/>
	<circle fill="#7E7165" cx="452.459" cy="231.461" r="17.71"/>
</g>
</svg>
