<?xml version="1.0" encoding="utf-8"?>
<!-- Generator: Adobe Illustrator 16.0.0, SVG Export Plug-In . SVG Version: 6.00 Build 0)  -->
<!DOCTYPE svg PUBLIC "-//W3C//DTD SVG 1.1//EN" "http://www.w3.org/Graphics/SVG/1.1/DTD/svg11.dtd">
<svg version="1.1" id="Layer_1" xmlns="http://www.w3.org/2000/svg" xmlns:xlink="http://www.w3.org/1999/xlink" x="0px" y="0px"
	 width="1024px" height="1024px" viewBox="0 0 1024 1024" enable-background="new 0 0 1024 1024" xml:space="preserve">
<rect x="-4341.136" y="-1389.835" display="none" width="4781.037" height="2764.835"/>
<g id="Planet__x2B__Rings">
	<g opacity="0.74">
		<g>
			<path fill="none" stroke="#E6E7E8" stroke-width="4" stroke-miterlimit="10" d="M209.105,509.943
				c-0.003-0.165-0.003-0.33-0.001-0.495"/>
			<path fill="none" stroke="#E6E7E8" stroke-width="4" stroke-miterlimit="10" stroke-dasharray="1.0044,12.0531" d="
				M212.798,498.142c22.812-35.384,148.524-64.042,300.612-66.327c159.712-2.402,292.424,22.034,306.63,59.111"/>
			<path fill="none" stroke="#E6E7E8" stroke-width="4" stroke-miterlimit="10" d="M821.282,496.802
				c0.007,0.165,0.012,0.33,0.015,0.495"/>
		</g>
	</g>
	<g opacity="0.74">
		<g>
			<path fill="none" stroke="#E6E7E8" stroke-width="4" stroke-miterlimit="10" d="M248.012,367.162
				c0.08-0.145,0.162-0.289,0.246-0.432"/>
			<path fill="none" stroke="#E6E7E8" stroke-width="4" stroke-miterlimit="10" stroke-dasharray="0.9978,11.9732" d="
				M257.012,358.791c37.669-19.73,163.566,17.371,299.73,90.559c142.883,76.797,245.812,165.771,239.512,205.256"/>
			<path fill="none" stroke="#E6E7E8" stroke-width="4" stroke-miterlimit="10" d="M794.412,660.282
				c-0.075,0.146-0.152,0.292-0.232,0.437"/>
		</g>
	</g>
	<g>
		<defs>
			<ellipse id="SVGID_5_" cx="516.533" cy="515.936" rx="142.104" ry="140.236"/>
		</defs>
		<clipPath id="SVGID_2_">
			<use xlink:href="#SVGID_5_"  overflow="visible"/>
		</clipPath>
		<path clip-path="url(#SVGID_2_)" fill="#894920" d="M375.776,515.936c0-76.717,63.02-138.906,140.756-138.906
			c77.74,0,140.758,62.189,140.758,138.906c0,76.719-63.018,138.906-140.758,138.906
			C438.796,654.842,375.776,592.654,375.776,515.936z"/>
		<polygon clip-path="url(#SVGID_2_)" fill="#2F2113" points="433.09,656.59 582.048,658.205 575.834,606.479 506.402,631.234 		"/>
		<polygon clip-path="url(#SVGID_2_)" fill="#473321" points="646.107,591.996 609.644,613.162 625.772,588.84 		"/>
		<polygon clip-path="url(#SVGID_2_)" fill="#8C5D3A" points="580.105,658.07 611.318,609.594 646.107,591.996 		"/>
		<polygon clip-path="url(#SVGID_2_)" fill="#624D36" points="670.608,522.404 646.107,591.996 624.134,589.357 		"/>
		<polygon clip-path="url(#SVGID_2_)" fill="#46442D" points="421.271,520.547 435.024,386.041 574.692,439.973 		"/>
		<polygon clip-path="url(#SVGID_2_)" fill="#6B6331" points="353.255,516.074 421.271,520.547 435.024,386.041 		"/>
		<path clip-path="url(#SVGID_2_)" fill="#26322C" d="M574.692,439.973"/>
		<line clip-path="url(#SVGID_2_)" fill="#736D2E" x1="353.255" y1="516.074" x2="421.271" y2="520.547"/>
		<polygon clip-path="url(#SVGID_2_)" fill="#292F32" points="435.024,386.041 614.945,398.316 574.692,439.973 		"/>
		<path clip-path="url(#SVGID_2_)" fill="#0B132D" d="M596.695,598.055"/>
		<g clip-path="url(#SVGID_2_)">
			<g>
				<path fill="#0B132D" d="M623.7,502.89c0.857,0,2.002-1.303,0.695-1.303C623.538,501.587,622.394,502.89,623.7,502.89
					L623.7,502.89z"/>
			</g>
		</g>
		<polygon clip-path="url(#SVGID_2_)" fill="#0D1321" points="574.692,439.973 614.945,398.316 669.012,522.117 		"/>
		<polygon clip-path="url(#SVGID_2_)" fill="#DB6B27" points="422.012,520.18 435.77,385.674 575.435,439.607 		"/>
		<polygon clip-path="url(#SVGID_2_)" fill="#984221" points="353.255,516.074 422.012,520.18 435.77,385.674 		"/>
		<path clip-path="url(#SVGID_2_)" fill="#47452B" d="M432.11,654.703"/>
		<polygon clip-path="url(#SVGID_2_)" fill="#5E3419" points="433.09,656.59 422.012,520.18 575.281,607.756 506.402,631.234 		"/>
		<path clip-path="url(#SVGID_2_)" fill="#26322C" d="M575.435,439.607"/>
		<polygon clip-path="url(#SVGID_2_)" fill="#894920" points="575.281,607.756 503.737,566.877 422.012,520.18 480.326,489.564 
			575.435,439.607 		"/>
		<polygon clip-path="url(#SVGID_2_)" fill="#9D5324" points="433.09,656.59 353.255,516.074 381.645,517.77 422.012,520.18 		"/>
		<polygon clip-path="url(#SVGID_2_)" fill="#D37E40" points="435.77,385.674 521.507,367.836 615.689,397.949 575.435,439.607 		
			"/>
		<path clip-path="url(#SVGID_2_)" fill="#0B132D" d="M597.438,597.693"/>
		<polygon clip-path="url(#SVGID_2_)" fill="#603E1F" points="582.048,658.205 575.281,607.756 669.753,521.754 626.143,589.602 
			612.964,610.145 		"/>
		<g clip-path="url(#SVGID_2_)">
			<g>
				<path fill="#0B132D" d="M624.445,502.522c0.857,0,2.002-1.303,0.695-1.303C624.283,501.22,623.139,502.522,624.445,502.522
					L624.445,502.522z"/>
			</g>
		</g>
		<polygon clip-path="url(#SVGID_2_)" fill="#39281B" points="575.281,607.756 575.435,439.607 669.753,521.754 		"/>
		<polygon clip-path="url(#SVGID_2_)" fill="#E78439" points="575.435,439.607 615.689,397.949 669.753,521.754 		"/>
		<polygon clip-path="url(#SVGID_2_)" fill="#442F24" points="581.751,658.619 504.33,670.641 506.402,631.234 		"/>
		<polygon clip-path="url(#SVGID_2_)" fill="#613815" points="504.33,670.641 433.09,656.59 506.402,631.234 		"/>
		<polygon clip-path="url(#SVGID_2_)" fill="#F0994D" points="521.507,367.836 575.435,439.607 615.781,397.875 		"/>
		<polygon clip-path="url(#SVGID_2_)" fill="#482C1D" points="575.281,607.756 558.666,532.193 571.613,460.707 575.435,439.607 		
			"/>
		<polygon clip-path="url(#SVGID_2_)" fill="#D36027" points="428.834,610.756 464.422,589.908 503.737,566.877 422.012,520.18 		
			"/>
		<polygon clip-path="url(#SVGID_2_)" fill="#AA5125" points="433.09,656.59 428.834,610.756 464.422,589.908 		"/>
		<polygon clip-path="url(#SVGID_2_)" fill="#7F431D" points="464.422,589.908 506.402,631.234 433.09,656.59 		"/>
		<polygon clip-path="url(#SVGID_2_)" fill="#8B401E" points="464.422,589.908 456.521,582.482 428.834,610.756 		"/>
		<polygon clip-path="url(#SVGID_2_)" fill="#6E3B17" points="456.521,582.482 422.012,520.18 428.834,610.756 		"/>
		<polygon clip-path="url(#SVGID_2_)" fill="#9A5529" points="456.521,582.482 475.346,550.666 464.422,589.908 		"/>
		<polygon clip-path="url(#SVGID_2_)" fill="#974D22" points="456.521,582.482 475.346,550.666 434.049,542.156 		"/>
		<polygon clip-path="url(#SVGID_2_)" fill="#904B21" points="428.834,610.756 408.442,587.893 422.012,520.18 		"/>
		<path clip-path="url(#SVGID_2_)" fill="#32311A" d="M431.393,655.732"/>
		<polygon clip-path="url(#SVGID_2_)" fill="#624D36" points="428.834,610.756 433.09,656.59 410.206,581.705 		"/>
		<polygon clip-path="url(#SVGID_2_)" fill="#39281B" points="433.09,656.59 379.386,585.432 410.206,581.705 		"/>
		<polygon clip-path="url(#SVGID_2_)" fill="#DB6B27" points="353.255,516.074 379.386,585.432 389.502,586.633 		"/>
		<polygon clip-path="url(#SVGID_2_)" fill="#703616" points="410.206,581.705 389.502,586.633 381.645,517.77 		"/>
		<polygon clip-path="url(#SVGID_2_)" fill="#7D411E" points="381.645,517.77 353.255,516.074 389.502,586.633 		"/>
		<polygon clip-path="url(#SVGID_2_)" fill="#82331B" points="353.255,516.074 382.769,443.002 395.741,465.916 		"/>
		<polygon clip-path="url(#SVGID_2_)" fill="#652C13" points="434.983,386.631 382.304,443.465 395.741,465.916 		"/>
		<polygon clip-path="url(#SVGID_2_)" fill="#452F1E" points="670.608,522.404 639.583,550.039 655.215,510.301 		"/>
		<polygon clip-path="url(#SVGID_2_)" fill="#654128" points="626.143,589.602 639.583,550.039 670.608,522.404 		"/>
		<polygon clip-path="url(#SVGID_2_)" fill="#493317" points="626.143,589.602 612.457,573.463 639.583,550.039 		"/>
		<polygon clip-path="url(#SVGID_2_)" fill="#CE6C28" points="670.608,522.404 670.631,501.336 659.587,499.676 		"/>
		<polygon clip-path="url(#SVGID_2_)" fill="#A76533" points="655.215,510.301 659.587,499.676 670.608,522.404 		"/>
		<polygon clip-path="url(#SVGID_2_)" fill="#6C451B" points="659.587,499.676 656.461,469.176 670.631,501.336 		"/>
		<polygon clip-path="url(#SVGID_2_)" fill="#EC9C54" points="615.781,397.875 656.461,469.176 645.416,467.055 		"/>
		<polygon clip-path="url(#SVGID_2_)" fill="#EA8432" points="659.587,499.676 627.826,486.094 656.461,469.176 		"/>
		<polygon clip-path="url(#SVGID_2_)" fill="#614328" points="645.416,467.055 627.826,486.094 656.461,469.176 		"/>
		<polygon clip-path="url(#SVGID_2_)" fill="#C07F48" points="639.583,550.039 627.826,486.094 655.215,510.301 		"/>
		<polygon clip-path="url(#SVGID_2_)" fill="#80491E" points="655.215,510.301 659.587,499.676 627.826,486.094 		"/>
		<g clip-path="url(#SVGID_2_)">
			<g>
				<path fill="#6A6230" d="M696.052,517.142c0.763,0,2.042-1.158,0.734-1.158C696.023,515.983,694.744,517.142,696.052,517.142
					L696.052,517.142z"/>
			</g>
		</g>
		<polygon clip-path="url(#SVGID_2_)" fill="#B97036" points="575.435,439.607 533.734,461.461 571.613,460.707 		"/>
		<polygon clip-path="url(#SVGID_2_)" fill="#D47C28" points="533.734,461.461 496.408,409.031 575.435,439.607 		"/>
		<polygon clip-path="url(#SVGID_2_)" fill="#F79745" points="435.77,385.674 503.838,404.768 575.435,439.607 		"/>
		<polygon clip-path="url(#SVGID_2_)" fill="#A94F25" points="381.645,517.77 426.589,476.463 422.012,520.18 		"/>
		<polygon clip-path="url(#SVGID_2_)" fill="#512D13" points="395.741,465.916 381.645,517.77 353.255,516.074 		"/>
		<polygon clip-path="url(#SVGID_2_)" fill="#652C13" points="422.012,520.18 416.987,457.059 436.057,385.045 		"/>
		<polygon clip-path="url(#SVGID_2_)" fill="#D35827" points="416.987,457.059 426.589,476.463 395.741,465.916 		"/>
		<polygon clip-path="url(#SVGID_2_)" fill="#B97036" points="521.507,367.836 503.838,404.768 575.435,439.607 		"/>
		<polygon clip-path="url(#SVGID_2_)" fill="#9A5529" points="558.666,532.193 422.012,520.18 503.737,566.877 		"/>
		<polygon clip-path="url(#SVGID_2_)" fill="#DB6B27" points="558.666,532.193 571.613,460.707 533.734,461.461 		"/>
		<polygon clip-path="url(#SVGID_2_)" fill="#984221" points="480.326,489.564 436.057,385.045 422.012,520.18 		"/>
	</g>
	<g opacity="0.74">
		<g>
			<path fill="none" stroke="#E6E7E8" stroke-width="4" stroke-miterlimit="10" d="M793.089,664.715
				c-0.08,0.145-0.162,0.289-0.246,0.432"/>
			<path fill="none" stroke="#E6E7E8" stroke-width="4" stroke-miterlimit="10" stroke-dasharray="0.9978,11.9732" d="
				M784.09,673.086c-37.67,19.732-163.568-17.373-299.732-90.561c-142.878-76.795-245.807-165.768-239.51-205.25"/>
			<path fill="none" stroke="#E6E7E8" stroke-width="4" stroke-miterlimit="10" d="M246.688,371.599
				c0.075-0.146,0.153-0.292,0.233-0.437"/>
		</g>
	</g>
	<g opacity="0.74">
		<g>
			<path fill="none" stroke="#E6E7E8" stroke-width="4" stroke-miterlimit="10" d="M821.01,504.775
				c0.003,0.165,0.003,0.33,0.001,0.495"/>
			<path fill="none" stroke="#E6E7E8" stroke-width="4" stroke-miterlimit="10" stroke-dasharray="1.0014,12.0168" d="
				M817.338,516.547c-22.759,35.397-148.502,64.071-300.634,66.359c-159.723,2.398-290.718-21.483-304.725-58.508"/>
			<path fill="none" stroke="#E6E7E8" stroke-width="4" stroke-miterlimit="10" d="M210.756,518.536
				c-0.007-0.165-0.012-0.33-0.014-0.495"/>
		</g>
	</g>
</g>
</svg>
