<?xml version="1.0" encoding="utf-8"?>
<!-- Generator: Adobe Illustrator 16.0.0, SVG Export Plug-In . SVG Version: 6.00 Build 0)  -->
<!DOCTYPE svg PUBLIC "-//W3C//DTD SVG 1.1//EN" "http://www.w3.org/Graphics/SVG/1.1/DTD/svg11.dtd">
<svg version="1.1" id="Layer_1" xmlns="http://www.w3.org/2000/svg" xmlns:xlink="http://www.w3.org/1999/xlink" x="0px" y="0px"
	 width="1024px" height="1024px" viewBox="0 0 1024 1024" enable-background="new 0 0 1024 1024" xml:space="preserve">
<rect x="-2187.43" y="-2471.335" display="none" width="4781.037" height="2764.835"/>
<g id="FG_5_">
	<defs>
		<circle id="SVGID_37_" cx="810.354" cy="384.109" r="58.322"/>
	</defs>
	<clipPath id="SVGID_2_">
		<use xlink:href="#SVGID_37_"  overflow="visible"/>
	</clipPath>
	<polygon clip-path="url(#SVGID_2_)" fill="#B4B0A6" points="803.18,417.016 723.701,408.996 755.572,327.547 	"/>
	<polygon clip-path="url(#SVGID_2_)" fill="#50514B" points="800.758,457.107 803.18,417.016 723.701,408.996 	"/>
	<polygon clip-path="url(#SVGID_2_)" fill="#B9B1A4" points="803.18,417.016 854.933,327.637 882.677,411.127 	"/>
	<polygon clip-path="url(#SVGID_2_)" fill="#6E6C67" points="854.933,327.637 803.407,417.1 755.572,327.547 	"/>
	<polygon clip-path="url(#SVGID_2_)" fill="#6E6C67" points="885.73,410.26 800.758,457.107 803.18,417.016 	"/>
	<polygon clip-path="url(#SVGID_2_)" fill="#A9A198" points="854.882,327.652 810.268,337.879 818.706,321.377 	"/>
	<polygon clip-path="url(#SVGID_2_)" fill="#787975" points="883.287,411.547 856.709,413.037 844.432,392.398 	"/>
	<polygon clip-path="url(#SVGID_2_)" fill="#777964" points="859.17,412.906 844.432,392.398 836.562,385.711 807.257,404.152 
		803.407,417.1 	"/>
	<polygon clip-path="url(#SVGID_2_)" fill="#4A4944" points="859.17,412.906 839.539,423.9 803.407,417.1 	"/>
	<polygon clip-path="url(#SVGID_2_)" fill="#CFCBC3" points="883.287,411.547 841.742,441.869 839.539,423.9 	"/>
	<polygon clip-path="url(#SVGID_2_)" fill="#D0C9BC" points="755.79,327.98 768.484,351.865 767.959,332.094 	"/>
	<polygon clip-path="url(#SVGID_2_)" fill="#939387" points="768.484,351.865 737.505,373.633 755.79,327.98 	"/>
	<polygon clip-path="url(#SVGID_2_)" fill="#D8D7DB" points="723.701,408.996 734.982,369.297 755.79,327.98 	"/>
	<polygon clip-path="url(#SVGID_2_)" fill="#363636" points="801.751,443.01 777.141,414.223 803.407,417.1 	"/>
	<polygon clip-path="url(#SVGID_2_)" fill="#777964" points="803.407,417.1 771.116,432.334 723.328,408.826 	"/>
	<polygon clip-path="url(#SVGID_2_)" fill="#5B5E47" points="787.932,383.387 723.328,408.826 803.407,417.1 	"/>
	<polygon clip-path="url(#SVGID_2_)" fill="#F4EFE0" points="802.815,309.404 785.794,323.09 792.917,337.166 	"/>
	<polygon clip-path="url(#SVGID_2_)" fill="#E4E4EC" points="787.483,321.789 778.218,321.721 792.917,337.166 	"/>
	<polygon clip-path="url(#SVGID_2_)" fill="#EAE2CB" points="818.706,321.377 810.268,337.879 792.917,337.166 798.254,313.828 
		815.415,310.396 	"/>
	<path clip-path="url(#SVGID_2_)" fill="#26322C" d="M761.239,331.018"/>
	<polygon clip-path="url(#SVGID_2_)" fill="#B3AE9D" points="761.58,356.717 767.911,331.756 783.738,346.418 	"/>
	<polygon clip-path="url(#SVGID_2_)" fill="#8B8377" points="783.738,346.418 767.856,331.875 778.602,321.725 792.917,337.166 
		796.501,342.85 	"/>
	<polygon clip-path="url(#SVGID_2_)" fill="#ABAE9F" points="796.501,342.85 810.268,337.879 814.359,351.211 	"/>
	<polygon clip-path="url(#SVGID_2_)" fill="#F4EFE0" points="817.291,371.447 795.944,386.369 807.257,404.152 	"/>
	<polygon clip-path="url(#SVGID_2_)" fill="#777964" points="824.963,359.209 820.395,371.969 814.807,373.139 814.359,351.211 	"/>
	<polygon clip-path="url(#SVGID_2_)" fill="#E4E4EC" points="800.066,383.479 782.876,383.35 807.257,404.152 	"/>
	<polygon clip-path="url(#SVGID_2_)" fill="#D8D7DB" points="787.932,383.387 764.648,392.68 792.606,402.623 807.257,404.152 	"/>
	<polygon clip-path="url(#SVGID_2_)" fill="#B3AE9D" points="787.932,383.387 780.042,373.529 764.648,392.68 764.648,392.68 	"/>
	<polygon clip-path="url(#SVGID_2_)" fill="#EFE4D1" points="780.042,373.529 775.89,361.906 761.58,356.717 764.648,392.68 	"/>
	<polygon clip-path="url(#SVGID_2_)" fill="#777964" points="783.738,346.418 761.58,356.717 775.89,361.906 	"/>
	<polyline clip-path="url(#SVGID_2_)" fill="#EAE2CB" points="844.432,392.398 807.257,404.152 814.807,373.139 836.648,368.559 
		841.324,383.658 	"/>
	<polygon clip-path="url(#SVGID_2_)" fill="#EAEAEA" points="814.359,351.211 783.738,346.418 796.501,342.85 	"/>
	<polygon clip-path="url(#SVGID_2_)" fill="#ABAE9F" points="815.415,310.396 854.914,327.652 818.706,321.377 	"/>
	<polygon clip-path="url(#SVGID_2_)" fill="#6E6C67" points="820.395,371.969 844.432,392.398 862.264,350.252 	"/>
	<polygon clip-path="url(#SVGID_2_)" fill="#E4E4EC" points="820.395,371.969 825.7,357.043 862.264,350.252 	"/>
	<polygon clip-path="url(#SVGID_2_)" fill="#D8D7DB" points="862.264,350.252 810.268,337.879 814.359,351.211 824.963,359.209 	"/>
	<polygon clip-path="url(#SVGID_2_)" fill="#4A4944" points="844.432,392.398 868.276,367.906 875.71,388.244 	"/>
</g>
</svg>
