<?xml version="1.0" encoding="utf-8"?>
<!-- Generator: Adobe Illustrator 16.0.0, SVG Export Plug-In . SVG Version: 6.00 Build 0)  -->
<!DOCTYPE svg PUBLIC "-//W3C//DTD SVG 1.1//EN" "http://www.w3.org/Graphics/SVG/1.1/DTD/svg11.dtd">
<svg version="1.1" id="Layer_1" xmlns="http://www.w3.org/2000/svg" xmlns:xlink="http://www.w3.org/1999/xlink" x="0px" y="0px"
	 width="1024px" height="1024px" viewBox="0 0 1024 1024" enable-background="new 0 0 1024 1024" xml:space="preserve">
<g id="BG_2_">
	<defs>
		<path id="SVGID_35_" d="M358.419,340.975c-12.548-4.014-26.644,1.07-33.407,12.836c-1.189,2.068-2.081,4.227-2.692,6.418
			c-2.273,1.666-4.238,3.812-5.728,6.395c-5.707,9.932-2.181,22.547,7.882,28.18c6.404,3.586,13.908,3.479,19.99,0.365
			c11.586,2.148,23.777-3.027,29.923-13.711c0.553-0.965,1.043-1.953,1.47-2.949c3.492-1.775,6.519-4.541,8.601-8.162
			c5.711-9.93,2.182-22.543-7.879-28.178C370.804,338.934,364.135,338.705,358.419,340.975z"/>
	</defs>
	<clipPath id="SVGID_2_">
		<use xlink:href="#SVGID_35_"  overflow="visible"/>
	</clipPath>
	<polygon clip-path="url(#SVGID_2_)" fill="#46442D" points="372.791,367.875 370.86,402.043 334.92,389.971 	"/>
	<polygon clip-path="url(#SVGID_2_)" fill="#6B6331" points="390.227,368.145 372.791,367.875 370.86,402.043 	"/>
	<path clip-path="url(#SVGID_2_)" fill="#47452B" d="M368.686,333.969"/>
	<polygon clip-path="url(#SVGID_2_)" fill="#47452B" points="372.791,367.875 333.022,347.447 368.686,333.969 	"/>
	<polygon clip-path="url(#SVGID_2_)" fill="#26322C" points="333.022,347.447 372.791,367.875 334.92,389.971 	"/>
	<polygon clip-path="url(#SVGID_2_)" fill="#26322C" points="368.686,333.969 330.728,334.768 333.022,347.447 	"/>
	<line clip-path="url(#SVGID_2_)" fill="#736D2E" x1="390.227" y1="368.145" x2="372.791" y2="367.875"/>
	<polygon clip-path="url(#SVGID_2_)" fill="#292F32" points="370.86,402.043 325.222,400.959 334.92,389.971 	"/>
	<path clip-path="url(#SVGID_2_)" fill="#0B132D" d="M327.533,350.242"/>
	<polygon clip-path="url(#SVGID_2_)" fill="#0B132D" points="330.728,334.768 333.022,347.447 310.121,370.256 	"/>
	<g clip-path="url(#SVGID_2_)">
		<g>
			<path fill="#0B132D" d="M321.374,375.431c0.857,0,2.002-1.303,0.695-1.303C321.212,374.128,320.067,375.431,321.374,375.431
				L321.374,375.431z"/>
		</g>
	</g>
	<polygon clip-path="url(#SVGID_2_)" fill="#0D1225" points="333.022,347.447 334.92,389.971 310.121,370.256 	"/>
	<polygon clip-path="url(#SVGID_2_)" fill="#0D1321" points="334.92,389.971 325.222,400.959 310.121,370.256 	"/>
	<line clip-path="url(#SVGID_2_)" fill="#8E8239" x1="370.804" y1="351.734" x2="368.633" y2="333.941"/>
	<polygon clip-path="url(#SVGID_2_)" fill="#B4B0A6" points="372.608,367.977 370.677,402.146 334.736,390.072 	"/>
	<polygon clip-path="url(#SVGID_2_)" fill="#50514B" points="390.042,368.242 372.608,367.977 370.677,402.146 	"/>
	<path clip-path="url(#SVGID_2_)" fill="#47452B" d="M368.502,334.068"/>
	<polygon clip-path="url(#SVGID_2_)" fill="#B9B1A4" points="372.608,367.977 332.838,347.551 368.502,334.068 	"/>
	<path clip-path="url(#SVGID_2_)" fill="#26322C" d="M334.736,390.072"/>
	<polygon clip-path="url(#SVGID_2_)" fill="#4D4D3F" points="332.838,347.551 372.608,367.977 334.736,390.072 	"/>
	<polygon clip-path="url(#SVGID_2_)" fill="#D0C8BD" points="368.502,334.068 330.545,334.867 332.838,347.551 	"/>
	<polygon clip-path="url(#SVGID_2_)" fill="#6E6C67" points="368.502,334.068 390.042,368.242 372.608,367.977 	"/>
	<polygon clip-path="url(#SVGID_2_)" fill="#E1DAD0" points="370.677,402.146 349.203,407.617 325.037,401.062 334.736,390.072 	"/>
	<path clip-path="url(#SVGID_2_)" fill="#0B132D" d="M327.352,350.342"/>
	<polygon clip-path="url(#SVGID_2_)" fill="#B8B4AA" points="330.728,334.768 333.022,347.447 310.121,370.256 	"/>
	<g clip-path="url(#SVGID_2_)">
		<g>
			<path fill="#0B132D" d="M321.191,375.53c0.857,0,2.002-1.303,0.695-1.303C321.029,374.228,319.885,375.53,321.191,375.53
				L321.191,375.53z"/>
		</g>
	</g>
	<polygon clip-path="url(#SVGID_2_)" fill="#413B34" points="332.838,347.551 334.736,390.072 309.938,370.357 	"/>
	<polygon clip-path="url(#SVGID_2_)" fill="#B4B1A0" points="334.979,390.148 325.037,401.062 309.938,370.357 	"/>
	<line clip-path="url(#SVGID_2_)" fill="#8E8239" x1="370.622" y1="351.836" x2="368.449" y2="334.043"/>
	<polygon clip-path="url(#SVGID_2_)" fill="#B2A295" points="330.614,334.76 350.057,330.85 350.206,341.031 	"/>
	<polygon clip-path="url(#SVGID_2_)" fill="#DED8CE" points="350.057,330.85 368.731,334.008 350.04,341.062 	"/>
	<polygon clip-path="url(#SVGID_2_)" fill="#777964" points="349.203,407.617 335.027,390.08 325.018,401.08 	"/>
	<polygon clip-path="url(#SVGID_2_)" fill="#A9A198" points="333.079,347.545 338.151,366.467 330.83,363.172 	"/>
	<polygon clip-path="url(#SVGID_2_)" fill="#5B5655" points="369.836,345.146 351.393,357.113 372.666,367.979 	"/>
	<polygon clip-path="url(#SVGID_2_)" fill="#787975" points="368.731,334.008 369.836,345.146 361.157,350.863 	"/>
	<g clip-path="url(#SVGID_2_)">
		<g>
			<path fill="#5B622B" d="M357.684,355.252c0.595,0,2.098-0.902,0.803-0.902C357.892,354.35,356.389,355.252,357.684,355.252
				L357.684,355.252z"/>
		</g>
	</g>
	<polygon clip-path="url(#SVGID_2_)" fill="#4A4944" points="369.836,345.146 374.885,352.285 372.666,367.979 	"/>
	<path clip-path="url(#SVGID_2_)" fill="#32311A" d="M368.672,333.799"/>
	<path clip-path="url(#SVGID_2_)" fill="#38371F" d="M368.731,334.008"/>
	<polygon clip-path="url(#SVGID_2_)" fill="#CFCBC3" points="368.672,333.799 382.634,350.996 374.885,352.285 	"/>
	<polygon clip-path="url(#SVGID_2_)" fill="#C5C4BB" points="329.37,403.418 348.225,406.207 349.756,404.162 	"/>
	<polygon clip-path="url(#SVGID_2_)" fill="#33312C" points="333.456,397.309 329.569,403.453 349.756,404.162 	"/>
	<polygon clip-path="url(#SVGID_2_)" fill="#31302A" points="329.37,403.418 316.871,387.678 323.602,387.725 	"/>
	<polygon clip-path="url(#SVGID_2_)" fill="#313228" points="370.865,401.896 383.533,386.932 379.876,381.404 	"/>
	<polygon clip-path="url(#SVGID_2_)" fill="#4E4A3F" points="309.715,370.205 317.24,362.865 313.745,373.09 	"/>
	<polygon clip-path="url(#SVGID_2_)" fill="#958B82" points="309.715,370.205 315.107,352.33 320.231,352.6 	"/>
	<polygon clip-path="url(#SVGID_2_)" fill="#6C625A" points="320.231,352.6 317.24,362.865 309.715,370.205 	"/>
	<polygon clip-path="url(#SVGID_2_)" fill="#CCC5B6" points="315.107,352.33 323.248,347.426 320.231,352.6 	"/>
	<polygon clip-path="url(#SVGID_2_)" fill="#877A71" points="309.715,370.205 309.951,375.531 312.762,375.826 	"/>
	<polygon clip-path="url(#SVGID_2_)" fill="#A39D95" points="330.614,334.76 323.248,347.426 315.107,352.33 	"/>
	<polygon clip-path="url(#SVGID_2_)" fill="#3E352D" points="312.762,375.826 313.905,383.504 309.951,375.531 	"/>
	<polygon clip-path="url(#SVGID_2_)" fill="#9D968F" points="325.018,401.08 313.905,383.504 316.723,383.916 	"/>
	<polygon clip-path="url(#SVGID_2_)" fill="#B2ADA0" points="312.762,375.826 321.26,379.549 313.905,383.504 	"/>
	<polygon clip-path="url(#SVGID_2_)" fill="#D0C9BC" points="334.92,389.971 345.03,384.078 336.467,384.682 	"/>
	<polygon clip-path="url(#SVGID_2_)" fill="#939387" points="345.03,384.078 355.071,396.92 334.92,389.971 	"/>
	<polygon clip-path="url(#SVGID_2_)" fill="#8C9483" points="370.677,402.146 353.243,398.08 334.92,389.971 	"/>
	<polygon clip-path="url(#SVGID_2_)" fill="#363636" points="382.853,368.068 371.953,379.082 372.613,367.879 	"/>
	<polygon clip-path="url(#SVGID_2_)" fill="#282922" points="372.598,367.801 379.876,381.404 370.613,402.307 	"/>
	<polygon clip-path="url(#SVGID_2_)" fill="#BCB8A7" points="349.203,407.617 353.243,398.08 334.92,389.971 	"/>
	<polygon clip-path="url(#SVGID_2_)" fill="#5B5E47" points="358.213,376.371 370.613,402.307 372.608,367.977 	"/>
	<path clip-path="url(#SVGID_2_)" fill="#26322C" d="M314.826,389.984"/>
	<polygon clip-path="url(#SVGID_2_)" fill="#D5CFC1" points="319.589,382.408 316.277,386.381 313.302,382.119 315.286,378.969 
		318.217,378.287 	"/>
	<polygon clip-path="url(#SVGID_2_)" fill="#D0C8BD" points="318.217,378.287 315.267,378.992 320.501,372.723 	"/>
	<polygon clip-path="url(#SVGID_2_)" fill="#93897F" points="323.21,368.75 327.51,370.246 327.952,372.07 320.723,372.332 	"/>
	<polygon clip-path="url(#SVGID_2_)" fill="#E4E4EC" points="324.921,365.49 323.21,368.75 327.557,370.283 326.131,364.791 	"/>
	<polygon clip-path="url(#SVGID_2_)" fill="#F4EFE0" points="327.974,371.861 331.617,376.527 338.354,373.873 	"/>
	<polygon clip-path="url(#SVGID_2_)" fill="#E4E4EC" points="331.617,376.527 327.409,384.166 338.332,373.883 	"/>
	<polygon clip-path="url(#SVGID_2_)" fill="#D8D7DB" points="327.409,384.166 336.375,384.732 338.068,378.684 338.354,373.873 	"/>
	<polyline clip-path="url(#SVGID_2_)" fill="#EAE2CB" points="330.83,363.172 338.151,366.467 338.354,373.873 327.952,372.07 
		326.131,364.791 	"/>
	<polygon clip-path="url(#SVGID_2_)" fill="#EAEAEA" points="320.723,372.332 319.6,382.445 318.217,378.287 	"/>
	<path clip-path="url(#SVGID_2_)" fill="#26322C" d="M336.133,387.58"/>
	<polygon clip-path="url(#SVGID_2_)" fill="#B3AE9D" points="349.091,387.713 336.375,384.732 342.354,377.621 	"/>
	<polygon clip-path="url(#SVGID_2_)" fill="#ABAE9F" points="340.573,372.264 338.151,366.467 343.852,364.463 	"/>
	<polygon clip-path="url(#SVGID_2_)" fill="#413B34" points="340.669,351.602 352.751,361.727 353.324,364.115 343.852,364.463 	"/>
	<polygon clip-path="url(#SVGID_2_)" fill="#555748" points="342.385,377.707 349.091,387.713 358.213,376.371 	"/>
	<polygon clip-path="url(#SVGID_2_)" fill="#EAE2CB" points="368.417,366.047 358.213,376.371 353.324,364.115 351.543,356.928 
		359.17,366.287 	"/>
	<polygon clip-path="url(#SVGID_2_)" fill="#EAEAEA" points="343.852,364.463 342.385,377.707 340.573,372.264 	"/>
	<polygon clip-path="url(#SVGID_2_)" fill="#E4E4EC" points="379.435,351.588 382.634,350.996 386.912,363.498 	"/>
	<polygon clip-path="url(#SVGID_2_)" fill="#EAE2CB" points="382.634,350.996 401.26,356.18 386.912,363.498 	"/>
	<polygon clip-path="url(#SVGID_2_)" fill="#5B5655" points="385.444,351.664 374.698,341.24 382.634,350.996 	"/>
	<polygon clip-path="url(#SVGID_2_)" fill="#787975" points="374.698,341.24 396.183,343.49 385.138,351.623 	"/>
</g>
</svg>
