<?xml version="1.0" encoding="utf-8"?>
<!-- Generator: Adobe Illustrator 16.0.0, SVG Export Plug-In . SVG Version: 6.00 Build 0)  -->
<!DOCTYPE svg PUBLIC "-//W3C//DTD SVG 1.1//EN" "http://www.w3.org/Graphics/SVG/1.1/DTD/svg11.dtd">
<svg version="1.1" id="Layer_1" xmlns="http://www.w3.org/2000/svg" xmlns:xlink="http://www.w3.org/1999/xlink" x="0px" y="0px"
	 width="1024px" height="1024px" viewBox="0 0 1024 1024" enable-background="new 0 0 1024 1024" xml:space="preserve">
<g id="BG_1_">
	<g>
		<defs>
			<ellipse id="SVGID_29_" cx="830.437" cy="308.742" rx="59.114" ry="59.746"/>
		</defs>
		<clipPath id="SVGID_2_">
			<use xlink:href="#SVGID_29_"  overflow="visible"/>
		</clipPath>
		<polygon clip-path="url(#SVGID_2_)" fill="#E0B553" points="894.382,262.619 909.469,262.455 908.695,253.277 897.014,250.58 		
			"/>
		<polygon clip-path="url(#SVGID_2_)" fill="#46442D" points="788.116,323.129 758.731,246.881 846.941,238.025 		"/>
		<polygon clip-path="url(#SVGID_2_)" fill="#6B6331" points="750.806,339.594 788.116,323.129 758.731,246.881 		"/>
		<path clip-path="url(#SVGID_2_)" fill="#47452B" d="M830.068,392.914"/>
		<polygon clip-path="url(#SVGID_2_)" fill="#47452B" points="788.116,323.129 892.65,328.717 830.068,392.914 		"/>
		<polygon clip-path="url(#SVGID_2_)" fill="#26322C" points="892.65,328.717 788.116,323.129 846.941,238.025 		"/>
		<polygon clip-path="url(#SVGID_2_)" fill="#26322C" points="830.068,392.914 909.949,354.078 892.65,328.717 		"/>
		<line clip-path="url(#SVGID_2_)" fill="#736D2E" x1="750.806" y1="339.594" x2="788.116" y2="323.129"/>
		<polygon clip-path="url(#SVGID_2_)" fill="#292F32" points="758.731,246.881 856.786,204.631 846.941,238.025 		"/>
		<path clip-path="url(#SVGID_2_)" fill="#0B132D" d="M901.573,317.273"/>
		<polygon clip-path="url(#SVGID_2_)" fill="#0B132D" points="909.949,354.078 892.65,328.717 918.963,256.691 		"/>
		<g clip-path="url(#SVGID_2_)">
			<g>
				<path fill="#0B132D" d="M889.805,258.932c1.132,0,1.458-1.492,0.151-1.492C888.824,257.439,888.498,258.932,889.805,258.932
					L889.805,258.932z"/>
			</g>
		</g>
		<polygon clip-path="url(#SVGID_2_)" fill="#0D1225" points="892.65,328.717 846.941,238.025 918.963,256.691 		"/>
		<polygon clip-path="url(#SVGID_2_)" fill="#0D1321" points="846.941,238.025 856.786,204.631 918.963,256.691 		"/>
		<line clip-path="url(#SVGID_2_)" fill="#8E8239" x1="808.153" y1="356.322" x2="830.208" y2="392.918"/>
		<polygon clip-path="url(#SVGID_2_)" fill="#453D4D" points="788.409,322.732 759.022,246.482 847.232,237.627 		"/>
		<polygon clip-path="url(#SVGID_2_)" fill="#221519" points="751.1,339.195 788.409,322.732 759.022,246.482 		"/>
		<path clip-path="url(#SVGID_2_)" fill="#47452B" d="M830.361,392.516"/>
		<polygon clip-path="url(#SVGID_2_)" fill="#554746" points="788.409,322.732 892.943,328.32 830.361,392.516 		"/>
		<path clip-path="url(#SVGID_2_)" fill="#26322C" d="M847.232,237.627"/>
		<polygon clip-path="url(#SVGID_2_)" fill="#795F5F" points="892.943,328.32 788.409,322.732 847.232,237.627 		"/>
		<polygon clip-path="url(#SVGID_2_)" fill="#573F38" points="830.361,392.516 910.241,353.678 892.943,328.32 		"/>
		<polygon clip-path="url(#SVGID_2_)" fill="#3F323B" points="830.361,392.516 791.634,369.975 751.1,339.195 788.409,322.732 		"/>
		<polygon clip-path="url(#SVGID_2_)" fill="#38364F" points="759.022,246.482 799.301,213.578 857.08,204.232 847.232,237.627 		
			"/>
		<path clip-path="url(#SVGID_2_)" fill="#0B132D" d="M901.865,316.875"/>
		<polygon clip-path="url(#SVGID_2_)" fill="#3F2E29" points="909.949,354.078 892.65,328.717 918.963,256.691 		"/>
		<g clip-path="url(#SVGID_2_)">
			<g>
				<path fill="#0B132D" d="M890.085,258.492c1.102,0,1.484-1.41,0.173-1.41C889.156,257.082,888.774,258.492,890.085,258.492
					L890.085,258.492z"/>
			</g>
		</g>
		<polygon clip-path="url(#SVGID_2_)" fill="#47382D" points="892.943,328.32 847.232,237.627 873.218,238.908 887.025,239.277 
			919.254,256.293 		"/>
		<polygon clip-path="url(#SVGID_2_)" fill="#4E4A5C" points="846.644,237.691 857.08,204.232 920.339,256.889 886.774,239.477 
			873.327,239.393 		"/>
		<line clip-path="url(#SVGID_2_)" fill="#8E8239" x1="808.444" y1="355.924" x2="830.497" y2="392.521"/>
		<polygon clip-path="url(#SVGID_2_)" fill="#C09A8C" points="910.197,353.982 872.716,381.492 862.421,359.473 		"/>
		<polygon clip-path="url(#SVGID_2_)" fill="#4B3838" points="872.716,381.492 829.939,392.873 862.741,359.246 		"/>
		<polygon clip-path="url(#SVGID_2_)" fill="#6A6470" points="799.301,213.578 846.609,237.893 857.11,204.166 		"/>
		<polygon clip-path="url(#SVGID_2_)" fill="#43383E" points="892.905,328.279 863.112,292.338 881.899,292.352 		"/>
		<polygon clip-path="url(#SVGID_2_)" fill="#483535" points="816.668,369.715 844.138,325.643 788.279,322.791 		"/>
		<polygon clip-path="url(#SVGID_2_)" fill="#4B2E2D" points="829.939,392.873 816.668,369.715 829.514,348.789 		"/>
		<g clip-path="url(#SVGID_2_)">
			<g>
				<path fill="#5B622B" d="M831.82,337.826c0.808,0,2.024-1.227,0.716-1.227C831.729,336.6,830.512,337.826,831.82,337.826
					L831.82,337.826z"/>
			</g>
		</g>
		<polygon clip-path="url(#SVGID_2_)" fill="#4B3C46" points="816.668,369.715 798.949,359.109 788.279,322.791 		"/>
		<path clip-path="url(#SVGID_2_)" fill="#32311A" d="M830.261,393.266"/>
		<path clip-path="url(#SVGID_2_)" fill="#38371F" d="M829.939,392.873"/>
		<polygon clip-path="url(#SVGID_2_)" fill="#6C5965" points="830.261,393.266 783.743,369.488 798.949,359.109 		"/>
		<polygon clip-path="url(#SVGID_2_)" fill="#584143" points="750.613,339.434 783.743,369.488 788.241,366.332 		"/>
		<polygon clip-path="url(#SVGID_2_)" fill="#3A3A4C" points="766.54,332.545 750.293,339.23 788.474,366.408 		"/>
		<polygon clip-path="url(#SVGID_2_)" fill="#0F1530" points="750.613,339.434 746.734,291.783 759.804,300.611 		"/>
		<polygon clip-path="url(#SVGID_2_)" fill="#39384B" points="758.869,247.211 746.613,292.156 759.804,300.611 		"/>
		<polygon clip-path="url(#SVGID_2_)" fill="#472F29" points="919.883,256.41 925.934,300.586 914.776,305.002 		"/>
		<polygon clip-path="url(#SVGID_2_)" fill="#664C43" points="914.776,305.002 911.076,279.734 919.883,256.41 		"/>
		<polygon clip-path="url(#SVGID_2_)" fill="#030202" points="925.934,300.586 913.443,319.209 914.776,305.002 		"/>
		<polygon clip-path="url(#SVGID_2_)" fill="#645A5A" points="919.883,256.41 914.155,245.049 907.889,247.152 		"/>
		<polygon clip-path="url(#SVGID_2_)" fill="#251715" points="909.631,354.992 912.591,320.121 925.399,301.449 		"/>
		<polygon clip-path="url(#SVGID_2_)" fill="#5F4438" points="910.037,254.555 897.937,231.557 914.155,245.049 		"/>
		<polygon clip-path="url(#SVGID_2_)" fill="#4C3E3E" points="857.11,204.166 897.937,231.557 891.549,233.412 		"/>
		<polygon clip-path="url(#SVGID_2_)" fill="#3E2F34" points="910.062,252.928 894.992,252.971 897.937,231.557 		"/>
		<polygon clip-path="url(#SVGID_2_)" fill="#2C2836" points="846.941,238.025 831.232,260.732 848.835,251.045 		"/>
		<polygon clip-path="url(#SVGID_2_)" fill="#262334" points="831.232,260.732 797.305,242.605 846.941,238.025 		"/>
		<polygon clip-path="url(#SVGID_2_)" fill="#101821" points="759.022,246.482 800.055,238.285 846.941,238.025 		"/>
		<polygon clip-path="url(#SVGID_2_)" fill="#725D5F" points="766.54,332.545 778.913,297.92 788.492,322.951 		"/>
		<polygon clip-path="url(#SVGID_2_)" fill="#1E1D28" points="788.602,323.104 759.804,300.611 759.002,246.062 		"/>
		<polygon clip-path="url(#SVGID_2_)" fill="#07070D" points="799.301,213.578 800.055,238.285 846.941,238.025 		"/>
		<polygon clip-path="url(#SVGID_2_)" fill="#2E3248" points="810.771,290.391 759.002,246.062 788.409,322.732 		"/>
		<path clip-path="url(#SVGID_2_)" fill="#26322C" d="M889.635,218.354"/>
		<polygon clip-path="url(#SVGID_2_)" fill="#25181C" points="886.937,239.5 893.587,228.324 898.177,231.84 899.446,242.781 
			893.885,247.123 		"/>
		<polygon clip-path="url(#SVGID_2_)" fill="#3D2E30" points="893.885,247.123 899.659,242.844 894.36,262.553 		"/>
		<polygon clip-path="url(#SVGID_2_)" fill="#5F4C4C" points="892.183,281.529 892.624,272.77 881.888,273.678 890.294,284.232 		
			"/>
		<polygon clip-path="url(#SVGID_2_)" fill="#473D4A" points="879.449,270.648 867.138,264.057 855.417,276.414 		"/>
		<polygon clip-path="url(#SVGID_2_)" fill="#5A4C5F" points="867.138,264.057 862.929,255.572 855.457,276.375 		"/>
		<polygon clip-path="url(#SVGID_2_)" fill="#776C80" points="881.899,292.352 863.112,292.338 855.417,276.414 879.288,270.176 
			890.294,284.232 		"/>
		<polygon clip-path="url(#SVGID_2_)" fill="#49322A" points="894.409,262.535 886.875,239.43 893.885,247.123 		"/>
		<path clip-path="url(#SVGID_2_)" fill="#26322C" d="M846.712,244.414"/>
		<polygon clip-path="url(#SVGID_2_)" fill="#463645" points="831.5,260.32 848.987,250.848 863.101,255.924 855.759,276.178 
			852.28,282.094 		"/>
		<polygon clip-path="url(#SVGID_2_)" fill="#38252A" points="852.28,282.094 863.112,292.338 852.963,302.279 		"/>
		<polygon clip-path="url(#SVGID_2_)" fill="#826461" points="850.629,315.682 836.733,316.926 833.163,312.289 852.963,302.279 		
			"/>
		<polygon clip-path="url(#SVGID_2_)" fill="#A9A198" points="848.839,330.973 850.629,315.682 836.57,316.869 847.576,330.695 		
			"/>
		<polyline clip-path="url(#SVGID_2_)" fill="#635157" points="836.582,341.33 788.739,322.9 833.163,312.289 847.576,330.695 
			836.098,341.992 		"/>
		<polygon clip-path="url(#SVGID_2_)" fill="#3E2B36" points="852.963,302.279 843.096,272.014 852.28,282.094 		"/>
		<polygon clip-path="url(#SVGID_2_)" fill="#18141E" points="890.294,284.232 892.921,328.309 881.899,292.352 		"/>
		<polygon clip-path="url(#SVGID_2_)" fill="#271814" points="892.183,281.529 910.929,279.008 892.921,328.309 889.987,284.234 		
			"/>
		<polygon clip-path="url(#SVGID_2_)" fill="#271819" points="837.144,316.877 829.514,348.789 875.905,345.539 		"/>
		<polygon clip-path="url(#SVGID_2_)" fill="#503E42" points="836.733,316.926 850.629,315.682 875.905,345.539 		"/>
		<polygon clip-path="url(#SVGID_2_)" fill="#39323E" points="875.905,345.539 863.112,292.338 852.963,302.279 850.629,315.682 		
			"/>
		<polygon clip-path="url(#SVGID_2_)" fill="#392121" points="829.514,348.789 862.741,359.246 847.806,375.502 		"/>
		<polygon clip-path="url(#SVGID_2_)" fill="#231F2D" points="833.163,312.289 810.771,290.391 852.963,302.279 		"/>
		<polygon clip-path="url(#SVGID_2_)" fill="#A08884" points="843.096,272.014 831.5,260.32 810.771,290.391 		"/>
		<polygon clip-path="url(#SVGID_2_)" fill="#2F2226" points="862.929,255.572 846.941,238.025 848.64,251.176 		"/>
		<polygon clip-path="url(#SVGID_2_)" fill="#7B655F" points="867.138,264.057 886.875,239.43 862.929,255.572 		"/>
		<polygon clip-path="url(#SVGID_2_)" fill="#3A2A2C" points="887.025,239.277 879.288,270.176 882.014,273.717 892.624,272.77 
			894.409,262.535 894.362,262.557 		"/>
		<polygon clip-path="url(#SVGID_2_)" fill="#11163A" points="798.673,242.688 810.771,290.391 757.198,245.559 		"/>
		<polygon clip-path="url(#SVGID_2_)" fill="#1B0E0B" points="924.827,246.893 911.076,279.734 909.143,251.15 		"/>
	</g>
	<g id="Flat_Moons">
		<ellipse fill="#7E7165" cx="961.21" cy="460.578" rx="12.216" ry="12.348"/>
		<ellipse fill="#7E7165" cx="538.126" cy="843.283" rx="7.773" ry="7.857"/>
		<ellipse fill="#7E7165" cx="192.774" cy="575.615" rx="3.886" ry="3.93"/>
		<ellipse fill="#7E7165" cx="800.195" cy="180.561" rx="3.886" ry="3.926"/>
		<ellipse fill="#7E7165" cx="342.752" cy="248.996" rx="7.773" ry="7.857"/>
		<ellipse fill="#7E7165" cx="763.55" cy="202.447" rx="7.773" ry="7.857"/>
		<ellipse fill="#7E7165" cx="103.938" cy="385.383" rx="7.773" ry="7.855"/>
		<ellipse fill="#7E7165" cx="948.995" cy="843.281" rx="7.774" ry="7.855"/>
		<ellipse fill="#7E7165" cx="22.885" cy="608.721" rx="14.666" ry="14.822"/>
		<ellipse fill="#7E7165" cx="435.761" cy="875.521" rx="14.666" ry="14.822"/>
		<ellipse fill="#7E7165" cx="165.457" cy="875.521" rx="7.773" ry="7.857"/>
		<ellipse fill="#7E7165" cx="657.685" cy="970.824" rx="7.773" ry="7.857"/>
	</g>
</g>
</svg>
