<?xml version="1.0" encoding="utf-8"?>
<!-- Generator: Adobe Illustrator 16.0.0, SVG Export Plug-In . SVG Version: 6.00 Build 0)  -->
<!DOCTYPE svg PUBLIC "-//W3C//DTD SVG 1.1//EN" "http://www.w3.org/Graphics/SVG/1.1/DTD/svg11.dtd">
<svg version="1.1" id="Layer_1" xmlns="http://www.w3.org/2000/svg" xmlns:xlink="http://www.w3.org/1999/xlink" x="0px" y="0px"
	 width="1024px" height="1024px" viewBox="0 0 1024 1024" enable-background="new 0 0 1024 1024" xml:space="preserve">
<g id="BG_3_">
	<g id="Flat_Moons_1_">
		<ellipse fill="#7E7165" cx="602.941" cy="762.414" rx="4.255" ry="4.189"/>
		<ellipse fill="#7E7165" cx="298.34" cy="337.502" rx="4.254" ry="4.189"/>
		<path fill="#7E7165" d="M959.233,828.598c0-2.312,1.904-4.188,4.254-4.188s4.256,1.875,4.256,4.188
			c0,2.316-1.906,4.191-4.256,4.191S959.233,830.914,959.233,828.598z"/>
		<ellipse fill="#7E7165" cx="946.392" cy="791.883" rx="4.253" ry="4.188"/>
		<path fill="#7E7165" d="M970.113,347.812c0-2.314,1.903-4.189,4.253-4.189c2.351,0,4.255,1.875,4.255,4.189
			c0,2.311-1.904,4.188-4.255,4.188C972.016,352,970.113,350.123,970.113,347.812z"/>
		<ellipse fill="#7E7165" cx="601.387" cy="263.666" rx="4.254" ry="4.189"/>
		<ellipse fill="#7E7165" cx="139.825" cy="516.27" rx="9.498" ry="9.35"/>
		<ellipse fill="#7E7165" cx="553.21" cy="193.289" rx="9.497" ry="9.35"/>
		<path fill="#7E7165" d="M203.196,825.137c0-5.162,4.251-9.346,9.497-9.346c5.247,0,9.499,4.184,9.499,9.346
			c0,5.166-4.251,9.354-9.499,9.354C207.447,834.49,203.196,830.303,203.196,825.137z"/>
		<ellipse fill="#7E7165" cx="320.098" cy="658.379" rx="9.497" ry="9.352"/>
		<path fill="#7E7165" d="M706.892,473.26c0-5.162,4.25-9.348,9.497-9.348c5.246,0,9.497,4.186,9.497,9.348
			c0,5.166-4.251,9.352-9.497,9.352C711.142,482.611,706.892,478.426,706.892,473.26z"/>
		<path fill="#7E7165" d="M54.051,389.08c0-9.746,8.022-17.641,17.918-17.641c9.897,0,17.922,7.895,17.922,17.641
			c0,9.74-8.024,17.639-17.922,17.639C62.073,406.719,54.051,398.82,54.051,389.08z"/>
	</g>
	<g>
		<defs>
			<ellipse id="SVGID_45_" cx="336.355" cy="251.701" rx="30.87" ry="30.387"/>
		</defs>
		<clipPath id="SVGID_2_">
			<use xlink:href="#SVGID_45_"  overflow="visible"/>
		</clipPath>
		<polygon clip-path="url(#SVGID_2_)" fill="#E0B553" points="330.945,286.23 324.969,292.686 329.188,295.939 335.018,292.043 		
			"/>
		<polygon clip-path="url(#SVGID_2_)" fill="#46442D" points="347.77,217.602 392.008,234.916 360.428,275.736 		"/>
		<polygon clip-path="url(#SVGID_2_)" fill="#6B6331" points="355.716,195.369 347.77,217.602 392.008,234.916 		"/>
		<path clip-path="url(#SVGID_2_)" fill="#47452B" d="M301.249,208.131"/>
		<polygon clip-path="url(#SVGID_2_)" fill="#47452B" points="347.77,217.602 303.501,259.699 301.249,208.131 		"/>
		<polygon clip-path="url(#SVGID_2_)" fill="#26322C" points="303.501,259.699 347.77,217.602 360.428,275.736 		"/>
		<polygon clip-path="url(#SVGID_2_)" fill="#26322C" points="301.249,208.131 285.773,257.125 303.501,259.699 		"/>
		<line clip-path="url(#SVGID_2_)" fill="#736D2E" x1="355.716" y1="195.369" x2="347.77" y2="217.602"/>
		<polygon clip-path="url(#SVGID_2_)" fill="#292F32" points="392.008,234.916 370.698,292.939 360.428,275.736 		"/>
		<path clip-path="url(#SVGID_2_)" fill="#0B132D" d="M304.798,267.941"/>
		<polygon clip-path="url(#SVGID_2_)" fill="#0B132D" points="285.773,257.125 303.501,259.699 323.617,298.957 		"/>
		<g clip-path="url(#SVGID_2_)">
			<g>
				<path fill="#0B132D" d="M334.29,286.704c0.858,0,2.002-1.303,0.696-1.303C334.128,285.401,332.983,286.704,334.29,286.704
					L334.29,286.704z"/>
			</g>
		</g>
		<polygon clip-path="url(#SVGID_2_)" fill="#0D1225" points="303.501,259.699 360.428,275.736 323.617,298.957 		"/>
		<polygon clip-path="url(#SVGID_2_)" fill="#0D1321" points="360.428,275.736 370.698,292.939 323.617,298.957 		"/>
		<line clip-path="url(#SVGID_2_)" fill="#8E8239" x1="325.611" y1="213.129" x2="301.193" y2="208.186"/>
		<polygon clip-path="url(#SVGID_2_)" fill="#7E7165" points="347.823,217.881 392.059,235.197 360.48,276.016 		"/>
		<polygon clip-path="url(#SVGID_2_)" fill="#837F84" points="355.766,195.65 347.823,217.881 392.059,235.197 		"/>
		<path clip-path="url(#SVGID_2_)" fill="#47452B" d="M301.303,208.41"/>
		<polygon clip-path="url(#SVGID_2_)" fill="#DBCAC5" points="347.823,217.881 303.555,259.977 301.303,208.41 		"/>
		<path clip-path="url(#SVGID_2_)" fill="#26322C" d="M360.48,276.016"/>
		<polygon clip-path="url(#SVGID_2_)" fill="#695B48" points="303.555,259.977 347.823,217.881 360.48,276.016 		"/>
		<polygon clip-path="url(#SVGID_2_)" fill="#DECEC0" points="301.303,208.41 285.826,257.402 303.555,259.977 		"/>
		<polygon clip-path="url(#SVGID_2_)" fill="#D1C4C8" points="301.303,208.41 326.419,200.805 355.766,195.65 347.823,217.881 		"/>
		<polygon clip-path="url(#SVGID_2_)" fill="#3F3A2F" points="392.059,235.197 389.928,265.1 370.753,293.223 360.48,276.016 		"/>
		<path clip-path="url(#SVGID_2_)" fill="#0B132D" d="M304.851,268.221"/>
		<polygon clip-path="url(#SVGID_2_)" fill="#8A786A" points="285.773,257.125 303.501,259.699 323.617,298.957 		"/>
		<g clip-path="url(#SVGID_2_)">
			<g>
				<path fill="#0B132D" d="M334.345,286.983c0.858,0,2.002-1.303,0.696-1.303C334.184,285.681,333.039,286.983,334.345,286.983
					L334.345,286.983z"/>
			</g>
		</g>
		<polygon clip-path="url(#SVGID_2_)" fill="#4F423F" points="303.555,259.977 360.48,276.016 349.521,286.521 343.832,292.225 
			323.672,299.236 		"/>
		<polygon clip-path="url(#SVGID_2_)" fill="#675E5C" points="360.689,275.74 370.753,293.223 322.986,299.463 343.848,292.041 
			349.271,286.379 		"/>
		<line clip-path="url(#SVGID_2_)" fill="#8E8239" x1="325.665" y1="213.408" x2="301.246" y2="208.467"/>
		<polygon clip-path="url(#SVGID_2_)" fill="#C5B3B2" points="285.714,257.268 289.022,230.654 302.522,234.885 		"/>
		<polygon clip-path="url(#SVGID_2_)" fill="#FFFBF6" points="289.022,230.654 301.32,208.092 302.487,235.109 		"/>
		<polygon clip-path="url(#SVGID_2_)" fill="#494139" points="389.928,265.1 360.617,275.648 370.768,293.258 		"/>
		<polygon clip-path="url(#SVGID_2_)" fill="#85796B" points="303.585,259.977 330.827,261.385 323.292,269.338 		"/>
		<polygon clip-path="url(#SVGID_2_)" fill="#FFFAEC" points="316.496,211.508 324.252,240.35 347.854,217.803 		"/>
		<polygon clip-path="url(#SVGID_2_)" fill="#E8D9D5" points="301.32,208.092 316.496,211.508 320.259,225.121 		"/>
		<g clip-path="url(#SVGID_2_)">
			<g>
				<path fill="#5B622B" d="M323.719,231.217c0.595,0,2.098-0.902,0.804-0.902C323.928,230.314,322.425,231.217,323.719,231.217
					L323.719,231.217z"/>
			</g>
		</g>
		<polygon clip-path="url(#SVGID_2_)" fill="#C3B9BC" points="316.496,211.508 328.11,208.145 347.854,217.803 		"/>
		<path clip-path="url(#SVGID_2_)" fill="#32311A" d="M301.021,208.074"/>
		<path clip-path="url(#SVGID_2_)" fill="#38371F" d="M301.32,208.092"/>
		<polygon clip-path="url(#SVGID_2_)" fill="#E0D6DE" points="301.021,208.074 329.788,197.652 328.11,208.145 		"/>
		<polygon clip-path="url(#SVGID_2_)" fill="#A8B4A1" points="355.858,195.35 329.788,197.652 329.33,200.789 		"/>
		<polygon clip-path="url(#SVGID_2_)" fill="#988D95" points="352.411,204.787 356.072,195.295 329.204,200.859 		"/>
		<polygon clip-path="url(#SVGID_2_)" fill="#ADBBB6" points="355.858,195.35 377.7,212.307 368.702,214.396 		"/>
		<polygon clip-path="url(#SVGID_2_)" fill="#A2A5A7" points="391.813,234.848 377.588,212.111 368.702,214.396 		"/>
		<polygon clip-path="url(#SVGID_2_)" fill="#AB9FA8" points="323.37,299.455 302.138,284.775 304.729,278.324 		"/>
		<polygon clip-path="url(#SVGID_2_)" fill="#BDAFB9" points="304.729,278.324 316.973,286.621 323.37,299.455 		"/>
		<polygon clip-path="url(#SVGID_2_)" fill="#77655E" points="302.138,284.775 299.218,272.215 304.729,278.324 		"/>
		<polygon clip-path="url(#SVGID_2_)" fill="#849391" points="323.37,299.455 330.502,301.463 332.119,297.988 		"/>
		<polygon clip-path="url(#SVGID_2_)" fill="#8F888F" points="285.509,256.635 299.17,271.498 301.987,284.211 		"/>
		<polygon clip-path="url(#SVGID_2_)" fill="#B2A9B0" points="328.107,296.01 342.746,299.861 330.502,301.463 		"/>
		<polygon clip-path="url(#SVGID_2_)" fill="#FFEDCE" points="370.768,293.258 342.746,299.861 344.516,296.434 		"/>
		<polygon clip-path="url(#SVGID_2_)" fill="#867D83" points="328.788,296.656 334.81,290.256 342.746,299.861 		"/>
		<polygon clip-path="url(#SVGID_2_)" fill="#847A69" points="360.428,275.736 357.059,260.221 354.125,271.457 		"/>
		<polygon clip-path="url(#SVGID_2_)" fill="#514738" points="357.059,260.221 378.371,252.926 360.428,275.736 		"/>
		<polygon clip-path="url(#SVGID_2_)" fill="#4C4235" points="392.059,235.197 379.109,255.775 360.428,275.736 		"/>
		<polygon clip-path="url(#SVGID_2_)" fill="#CED0C5" points="352.411,204.787 362.191,223.541 347.697,217.83 		"/>
		<polygon clip-path="url(#SVGID_2_)" fill="#C3C6C5" points="347.586,217.814 368.702,214.396 392.246,235.348 		"/>
		<polygon clip-path="url(#SVGID_2_)" fill="#3C3828" points="389.928,265.1 379.109,255.775 360.428,275.736 		"/>
		<polygon clip-path="url(#SVGID_2_)" fill="#887F86" points="352.631,239.975 392.246,235.348 347.823,217.881 		"/>
		<path clip-path="url(#SVGID_2_)" fill="#26322C" d="M351.691,301.5"/>
		<polygon clip-path="url(#SVGID_2_)" fill="#978E98" points="343.773,292.104 345.867,299.279 342.531,299.852 337.36,296.119 
			337.743,292.066 		"/>
		<polygon clip-path="url(#SVGID_2_)" fill="#87807E" points="337.743,292.066 337.25,296.186 330.984,286.246 		"/>
		<polygon clip-path="url(#SVGID_2_)" fill="#938374" points="323.776,277.914 327.331,281.523 331.246,276.623 323.385,276.061 		
			"/>
		<polygon clip-path="url(#SVGID_2_)" fill="#463A2D" points="333.512,276.773 341.254,274.129 340.689,264.34 		"/>
		<polygon clip-path="url(#SVGID_2_)" fill="#5F5447" points="341.254,274.129 346.553,275.658 340.689,264.377 		"/>
		<polygon clip-path="url(#SVGID_2_)" fill="#52463A" points="323.292,269.338 330.827,261.385 340.689,264.34 333.775,276.889 
			323.385,276.061 		"/>
		<polygon clip-path="url(#SVGID_2_)" fill="#887F85" points="330.973,286.275 343.828,292.104 337.743,292.066 		"/>
		<path clip-path="url(#SVGID_2_)" fill="#26322C" d="M357.8,273.146"/>
		<polygon clip-path="url(#SVGID_2_)" fill="#716453" points="357.124,260.494 354.15,271.596 346.332,275.594 340.651,264.58 
			339.527,260.795 		"/>
		<polygon clip-path="url(#SVGID_2_)" fill="#85796F" points="339.527,260.795 330.827,261.385 330.661,253.205 		"/>
		<polygon clip-path="url(#SVGID_2_)" fill="#9E9188" points="325.89,246.986 330.93,240.615 334.335,240.91 330.661,253.205 		"/>
		<polygon clip-path="url(#SVGID_2_)" fill="#A9A198" points="320.101,240.262 325.89,246.986 331.019,240.568 320.722,239.834 		
			"/>
		<polyline clip-path="url(#SVGID_2_)" fill="#978776" points="320.603,231.023 347.62,217.953 334.335,240.91 320.722,239.834 
			320.512,230.562 		"/>
		<polygon clip-path="url(#SVGID_2_)" fill="#968776" points="330.661,253.205 347.501,260.842 339.527,260.795 		"/>
		<polygon clip-path="url(#SVGID_2_)" fill="#7C6D62" points="323.385,276.061 303.566,259.971 323.292,269.338 		"/>
		<polygon clip-path="url(#SVGID_2_)" fill="#B6A790" points="323.776,277.914 317.337,286.842 303.566,259.971 323.505,275.932 		
			"/>
		<polygon clip-path="url(#SVGID_2_)" fill="#C5B6AD" points="330.786,240.809 320.259,225.121 303.048,246.039 		"/>
		<polygon clip-path="url(#SVGID_2_)" fill="#9A8A7B" points="330.93,240.615 325.89,246.986 303.048,246.039 		"/>
		<polygon clip-path="url(#SVGID_2_)" fill="#7C6B5B" points="303.048,246.039 330.827,261.385 330.661,253.205 325.89,246.986 		
			"/>
		<polygon clip-path="url(#SVGID_2_)" fill="#BFAF9E" points="320.259,225.121 302.487,235.109 301.555,222.439 		"/>
		<polygon clip-path="url(#SVGID_2_)" fill="#B9AA9B" points="334.335,240.91 352.631,239.975 330.661,253.205 		"/>
		<polygon clip-path="url(#SVGID_2_)" fill="#948577" points="347.501,260.842 357.124,260.494 352.631,239.975 		"/>
		<polygon clip-path="url(#SVGID_2_)" fill="#463A2D" points="346.553,275.658 360.428,275.736 354.15,271.322 		"/>
		<polygon clip-path="url(#SVGID_2_)" fill="#71676A" points="341.254,274.129 343.828,292.104 346.553,275.658 		"/>
		<polygon clip-path="url(#SVGID_2_)" fill="#5B4D3D" points="343.832,292.225 333.775,276.889 331.179,276.66 327.331,281.523 
			330.973,286.275 330.981,286.246 		"/>
		<polygon clip-path="url(#SVGID_2_)" fill="#716A5E" points="377.785,253.471 352.631,239.975 393.186,234.783 		"/>
		<polygon clip-path="url(#SVGID_2_)" fill="#8D7F89" points="325.441,305.266 316.973,286.621 329.913,296.961 		"/>
	</g>
</g>
</svg>
