<?xml version="1.0" encoding="utf-8"?>
<!-- Generator: Adobe Illustrator 16.0.0, SVG Export Plug-In . SVG Version: 6.00 Build 0)  -->
<!DOCTYPE svg PUBLIC "-//W3C//DTD SVG 1.1//EN" "http://www.w3.org/Graphics/SVG/1.1/DTD/svg11.dtd">
<svg version="1.1" id="Layer_1" xmlns="http://www.w3.org/2000/svg" xmlns:xlink="http://www.w3.org/1999/xlink" x="0px" y="0px"
	 width="1194.811px" height="930.074px" viewBox="0 0 1194.811 930.074" enable-background="new 0 0 1194.811 930.074"
	 xml:space="preserve">
<g>
	<defs>
		<rect id="SVGID_1_" width="1194.811" height="930.073"/>
	</defs>
	<clipPath id="SVGID_2_">
		<use xlink:href="#SVGID_1_"  overflow="visible"/>
	</clipPath>
	<g opacity="0.8" clip-path="url(#SVGID_2_)">
		<g>
			<path fill="#B3927A" d="M133.274,1122.614c15.228,12.43,30.938,24.517,47.118,36.229
				c-143.817,49.992-279.938,91.788-403.429,123.558c-283.021,72.815-475.826,85.043-515.759,32.731
				c-10.274-13.462-10.458-32.268-0.549-55.898c68.5-163.349,588.182-491.913,1235.683-781.251
				c375.682-167.873,746.47-302.487,1044.055-379.048c283.021-72.811,475.825-85.045,515.757-32.729
				c10.275,13.464,10.456,32.27,0.549,55.896c-43.278,103.201-266.683,272.351-588.586,455.885
				c-6.575-21.02-14.191-41.911-22.833-62.603c195.369-129.209,299.264-235.808,261.376-285.01l-3.628-10.538
				c-70.137-91.096-599.46,48.989-1182.276,312.856c-582.812,263.885-998.424,551.64-928.282,642.735l3.637,10.531
				C-361.68,1240.773-153.125,1211.841,133.274,1122.614z"/>
			<path fill="#9D8075" d="M2240.5-31.596l5.438,15.795c77.484,100.615-240.535,361.359-762.856,649.868
				c-2.171-9.835-4.508-19.659-7.147-29.459c333.109-188.643,561.284-362.179,607.109-471.457
				c12.813-30.553,11.355-56.472-4.329-77.025c-63.957-83.795-334.635-35.199-550.436,20.313
				c-298.94,76.907-671.146,212.013-1048.047,380.436c-662.304,295.953-1174.644,621.352-1245.917,791.314
				c-12.814,30.558-11.355,56.473,4.328,77.022c63.958,83.797,334.634,35.206,550.437-20.313
				c127.406-32.777,268.149-76.158,416.86-128.153c11.796,8.011,23.815,15.835,36.067,23.446
				c-605.173,224.261-1079.727,319.66-1159.369,216.239l-5.444-15.782C-1027.942,1264.111-405.023,832.829,468.5,437.318
				C1342.026,41.825,2135.379-168.126,2240.5-31.596z"/>
		</g>
		<g>
			<path fill="#64544B" d="M1478.613,623.036c100.914-55.616,200.027-113.334,295.899-174.438
				c47.914-30.568,95.038-61.958,140.952-94.52c45.888-32.581,90.648-66.271,133.114-101.961
				c21.219-17.85,41.868-36.192,61.567-55.283c19.676-19.101,38.472-38.916,55.345-60.027c8.423-10.558,16.351-21.45,23.416-32.83
				c7.052-11.382,13.287-23.258,17.747-35.885c2.212-6.318,3.964-12.828,4.947-19.557c0.978-6.724,1.188-13.684,0.103-20.761
				c-1.073-7.061-3.522-14.261-7.711-20.986c-4.179-6.764-10.003-12.868-16.858-17.971c-6.849-5.099-14.553-9.194-22.496-12.492
				c-7.95-3.31-16.162-5.844-24.402-7.904c-16.515-4.089-33.162-6.269-49.636-7.568c-32.987-2.496-65.407-1.541-97.324,0.67
				c-31.921,2.275-63.373,5.991-94.479,10.505c-31.106,4.524-61.876,9.881-92.384,15.776
				c-61.006,11.836-120.957,25.868-180.246,41.089c-59.275,15.251-117.862,31.768-175.909,49.173
				c-58.052,17.41-115.561,35.722-172.632,54.729c-57.078,18.993-113.734,38.652-169.984,58.924
				c-224.923,81.201-444.18,170.874-658.178,267.354C342.447,507.295,236.75,557.24,132.58,609.055
				C28.416,660.876-74.241,714.547-174.845,770.561c-100.581,56.024-199.251,114.251-294.683,175.831
				c-47.706,30.797-94.543,62.49-140.103,95.4c-45.527,32.937-89.856,67.044-131.727,103.248
				c-20.914,18.118-41.195,36.774-60.395,56.257c-19.15,19.508-37.327,39.799-53.109,61.622
				c-7.861,10.919-15.125,22.225-21.202,34.142c-6.042,11.913-11.013,24.453-13.207,37.887c-1.071,6.71-1.403,13.658-0.471,20.744
				c0.935,7.068,3.201,14.296,7.2,21.106c3.968,6.812,9.667,13.098,16.419,18.308c6.747,5.229,14.411,9.445,22.328,12.832
				c15.909,6.766,32.671,10.537,49.211,13.076c16.579,2.497,33.096,3.678,49.453,4.162c32.732,0.915,64.877-0.867,96.579-3.767
				c31.699-2.944,62.959-7.138,93.906-12.042c30.944-4.919,61.568-10.581,91.944-16.751
				c60.752-12.359,120.534-26.709,179.662-42.224c59.121-15.535,117.569-32.279,175.502-49.878
				c115.856-35.229,229.565-73.997,341.816-114.896l-0.175-0.265c-112.47,40.563-226.493,78.804-342.43,113.828
				c-57.976,17.493-116.471,34.126-175.617,49.549c-59.153,15.405-118.958,29.634-179.7,41.879
				c-30.375,6.109-60.989,11.714-91.905,16.571c-30.922,4.844-62.149,8.975-93.78,11.856c-31.63,2.84-63.688,4.555-96.216,3.592
				c-16.257-0.509-32.644-1.708-49.019-4.202c-16.324-2.53-32.807-6.287-48.198-12.868c-7.66-3.29-14.995-7.353-21.395-12.325
				c-6.395-4.957-11.739-10.874-15.468-17.301c-3.756-6.425-5.902-13.284-6.785-20.066c-0.876-6.797-0.572-13.532,0.48-20.075
				c2.141-13.1,7.034-25.466,13.015-37.241c6.013-11.781,13.225-23.002,21.046-33.849c15.691-21.684,33.807-41.897,52.913-61.338
				c19.15-19.419,39.397-38.027,60.28-56.104c41.811-36.127,86.103-70.18,131.597-103.067
				c45.539-32.859,92.36-64.502,139.969-95.342c95.291-61.619,193.842-119.9,294.309-175.987
				C28.306,660.847,236.872,557.306,450.542,460.47c106.88-48.364,215.079-95.024,324.644-139.79
				c109.562-44.764,220.475-87.665,333.065-128.05c112.549-40.432,226.677-78.51,342.893-113.066
				c58.108-17.268,116.739-33.651,176.052-48.763c59.314-15.101,119.312-28.945,180.275-40.702
				c30.484-5.868,61.216-11.194,92.277-15.69c31.061-4.483,62.449-8.171,94.271-10.417c31.816-2.186,64.116-3.107,96.83-0.612
				c16.334,1.309,32.804,3.456,49.022,7.459c8.095,2.015,16.126,4.495,23.852,7.702c7.717,3.201,15.14,7.146,21.681,12.01
				c6.522,4.834,12.114,10.708,16.043,17.062c3.978,6.38,6.332,13.244,7.377,20.052c1.05,6.817,0.862,13.591-0.087,20.167
				c-0.953,6.584-2.665,12.989-4.837,19.218c-4.386,12.459-10.546,24.244-17.534,35.551c-7.005,11.311-14.881,22.157-23.254,32.683
				c-16.779,21.04-35.499,40.826-55.11,59.908c-19.636,19.068-40.23,37.405-61.4,55.252
				c-42.392,35.66-86.978,69.451-132.733,102.112c-45.775,32.646-92.776,64.13-140.569,94.795
				c-95.643,61.288-194.288,119.481-294.904,175.434L1478.613,623.036z"/>
		</g>
		<path fill="#6E5C53" d="M-516.294,1167.939c-9.841,23.461-8.95,42.888,2.732,58.079c26.131,33.978,102.048,41.921,225.64,23.609
			c115.535-17.118,269.679-57.007,445.77-115.352l-6.712-10.68c-175.396,58.115-328.776,97.822-443.556,114.829
			c-113.972,16.888-188.629,10.727-210.218-17.344c-16.527-21.493-3.707-57.463,37.076-104.025
			c41.295-47.149,109.207-103.451,201.847-167.345C-72.757,818.011,201.373,669.118,508.18,530.464
			c306.808-138.655,609.475-250.439,852.25-314.757c117.784-31.205,214.928-49.495,288.737-54.367
			c72.896-4.81,120.162,4.005,136.688,25.496c19.452,25.292-1.241,69.637-59.841,128.236
			c-58.234,58.238-154.003,129.999-276.947,207.531l9.194,9.517c123.565-77.923,219.921-150.153,278.654-208.888
			c63.223-63.224,83.362-110.776,59.862-141.333c-20.325-26.425-71.111-37.153-150.947-31.885
			c-74.718,4.932-172.75,23.367-291.372,54.793c-243.417,64.488-546.758,176.509-854.146,315.429
			C192.927,659.152-81.802,808.38-273.263,940.428c-93.302,64.351-161.806,121.178-203.612,168.906
			C-495.867,1131.018-509.016,1150.585-516.294,1167.939z"/>
		<path fill="#6E5C53" d="M-672.628,1232.727c-10.166,24.244-9.547,44.27,2.266,59.627c15.105,19.645,47.668,30.889,96.779,33.418
			c46.854,2.414,108.824-3.035,184.197-16.199c149.13-26.048,346.333-81.429,570.288-160.164l-2.594-3.978
			c-223.714,78.647-420.647,133.963-569.514,159.962c-152.034,26.553-247.149,21.405-275.062-14.888
			c-20.103-26.142-5.252-67.362,44.146-122.517c48.231-53.85,127.082-118.28,234.361-191.504
			c220.787-150.701,536.998-321.647,890.378-481.353c353.381-159.705,701.599-289.032,980.508-364.16
			c135.517-36.507,247.235-58.2,332.052-64.478c86.87-6.431,141.11,3.565,161.216,29.707
			c53.31,69.322-144.871,246.895-517.208,463.41l3.327,3.644c181.133-105.33,325.032-203.816,416.146-284.813
			c46.256-41.118,78.549-77.397,95.979-107.833c18.269-31.895,20.235-57.554,5.851-76.259
			c-41.923-54.512-219.358-42.957-499.624,32.539c-279.14,75.192-627.602,204.609-981.196,364.408
			c-353.592,159.8-670.022,330.871-890.994,481.698C-550.683,1081.76-646.706,1170.924-672.628,1232.727z"/>
	</g>
	
		<linearGradient id="SVGID_3_" gradientUnits="userSpaceOnUse" x1="521.7632" y1="409.4375" x2="581.0966" y2="543.3179" gradientTransform="matrix(1.5517 0.2717 0.2717 2.0345 -402.6808 -654.0752)">
		<stop  offset="0" style="stop-color:#B3927A;stop-opacity:0"/>
		<stop  offset="0.5043" style="stop-color:#BF9A76;stop-opacity:0.5"/>
		<stop  offset="1" style="stop-color:#CCA371;stop-opacity:0"/>
	</linearGradient>
	<polygon clip-path="url(#SVGID_2_)" fill="url(#SVGID_3_)" points="1385.095,303.891 -71.215,958.021 -216.013,635.65 
		1240.295,-18.481 	"/>
</g>
</svg>
