<?xml version="1.0" encoding="utf-8"?>
<!-- Generator: Adobe Illustrator 16.0.0, SVG Export Plug-In . SVG Version: 6.00 Build 0)  -->
<!DOCTYPE svg PUBLIC "-//W3C//DTD SVG 1.1//EN" "http://www.w3.org/Graphics/SVG/1.1/DTD/svg11.dtd">
<svg version="1.1" id="Layer_1" xmlns="http://www.w3.org/2000/svg" xmlns:xlink="http://www.w3.org/1999/xlink" x="0px" y="0px"
	 width="1500px" height="1500px" viewBox="0 0 1500 1500" enable-background="new 0 0 1500 1500" xml:space="preserve">
<g id="Saturn">
	<g id="FG">
		<g>
			<path fill="#B3927A" d="M383.476,887.542c-3.211-8.5-6.132-17.14-8.749-25.912c-58.595,51.09-111.118,100.408-155.503,146.221
				C117.497,1112.849,68.05,1190.896,86.945,1216.624c4.862,6.622,14.812,9.98,29.57,9.98
				c102.031,0,392.333-158.817,690.271-377.629c172.863-126.954,326.967-257.67,433.929-368.073
				c101.725-104.998,151.173-183.044,132.278-208.773c-4.863-6.621-14.813-9.977-29.572-9.977
				c-64.46,0-204.081,63.406-373.283,165.266c9.7,6.4,19.101,13.209,28.167,20.413c112.159-58.712,191.93-83.329,209.626-58.992
				l4.79,3.347c32.767,45.052-159.56,240.745-429.559,437.096c-270.006,196.349-515.447,319.002-548.212,273.946l-4.784-3.347
				C210.452,1072.767,272.281,991.082,383.476,887.542z"/>
			<path fill="#9E8075" d="M1466.012,212.521l-7.18-5.017c-36.188-49.767-245.539,37.012-515.154,203.909
				c4.742,2.621,9.441,5.306,14.06,8.111c174.414-105.628,317.425-170.252,385.683-170.252c19.085,0,32.528,5.125,39.952,15.232
				c30.266,41.21-55.843,145.298-133.406,225.36c-107.445,110.904-262.128,242.127-435.555,369.494
				c-304.75,223.811-591.734,380.124-697.896,380.124c-19.086,0-32.528-5.124-39.951-15.23
				c-30.267-41.211,55.842-145.301,133.407-225.361c45.793-47.267,100.189-98.231,160.936-151.005
				c-1.628-6.304-3.106-12.666-4.418-19.086C112.548,1041.354-43.84,1222.066-6.643,1273.217l7.17,5.02
				c49.111,67.529,416.974-116.306,821.66-410.592C1226.864,573.351,1515.12,280.046,1466.012,212.521z"/>
		</g>
		<g>
			<path fill="#392B22" d="M948.535,415.178c0,0,2.44-1.511,7.167-4.437c4.738-2.91,11.769-7.228,20.939-12.859
				c18.385-11.19,45.412-27.511,80.292-47.459c17.437-9.979,36.858-20.827,58.185-32.303c21.327-11.473,44.554-23.591,69.683-35.918
				c25.133-12.311,52.139-24.922,81.197-36.856c7.266-2.978,14.653-5.93,22.184-8.782c7.523-2.874,15.184-5.665,22.99-8.332
				c15.604-5.348,31.779-10.287,48.63-14.052c8.423-1.879,17.024-3.435,25.803-4.374c8.766-0.936,17.753-1.312,26.75-0.168
				c4.487,0.581,8.984,1.559,13.277,3.266c4.279,1.698,8.355,4.185,11.619,7.599c0.442,0.393,0.77,0.891,1.158,1.334
				c0.375,0.47,0.747,0.881,1.124,1.402l0.962,1.42l0.9,1.561c1.119,2.096,1.956,4.32,2.547,6.61
				c0.601,2.288,0.939,4.638,1.064,6.993c0.137,2.354,0.106,4.719-0.109,7.064c-0.37,4.704-1.363,9.332-2.604,13.885
				c-1.25,4.555-2.85,9.017-4.633,13.413c-3.584,8.789-7.928,17.314-12.686,25.665c-9.543,16.695-20.666,32.75-32.519,48.544
				c-23.802,31.543-50.646,62.033-79.077,92.182c-28.462,30.133-58.599,59.896-89.919,89.436
				c-62.693,59.031-130.008,117.285-200.031,174.456c-69.995,57.212-142.79,113.26-216.973,167.398
				c-74.172,54.155-149.738,106.417-225.621,155.575c-75.911,49.102-152.116,95.17-227.813,136.262
				c-37.854,20.527-75.62,39.741-113.293,57.057c-18.842,8.645-37.662,16.811-56.502,24.282
				c-18.836,7.474-37.696,14.265-56.641,19.923c-18.942,5.59-38.005,10.242-57.248,11.877c-9.595,0.754-19.308,0.764-28.696-1.352
				c-2.341-0.527-4.652-1.213-6.889-2.1c-2.234-0.887-4.422-1.926-6.443-3.252c-2.026-1.313-3.91-2.857-5.557-4.625
				c-0.843-0.891-1.568-1.793-2.302-2.844c-0.615-1.002-1.311-1.879-1.826-3.027c-2.258-4.34-3.276-9.053-3.513-13.756
				c-0.232-4.703,0.292-9.361,1.18-13.886c0.907-4.524,2.125-8.956,3.654-13.244c0.351-1.084,0.75-2.148,1.161-3.206
				c0.409-1.059,0.795-2.125,1.221-3.173c0.888-2.081,1.711-4.185,2.672-6.219c7.452-16.399,16.769-31.433,26.447-45.693
				c9.709-14.258,19.925-27.708,30.218-40.594c10.333-12.854,20.727-25.166,31.114-36.942c20.76-23.566,41.261-45.188,60.884-65.142
				c19.624-19.956,38.402-38.22,55.947-54.912c17.567-16.669,33.893-31.779,48.792-45.257
				c29.782-26.973,53.647-47.643,69.965-61.677c8.186-6.986,14.461-12.343,18.69-15.953c4.241-3.595,6.43-5.451,6.43-5.451
				l0.13,0.152c0,0-2.18,1.866-6.404,5.481c-4.212,3.629-10.462,9.014-18.614,16.039c-16.251,14.108-40.016,34.888-69.664,61.993
				c-29.603,27.146-65.268,60.455-104.41,100.43c-19.561,19.991-39.993,41.648-60.67,65.24
				c-10.345,11.789-20.693,24.11-30.977,36.967c-10.242,12.887-20.401,26.334-30.042,40.568
				c-9.609,14.232-18.845,29.231-26.184,45.492c-0.948,2.018-1.755,4.099-2.628,6.159c-0.418,1.037-0.796,2.089-1.197,3.135
				c-0.403,1.045-0.794,2.096-1.137,3.164c-1.497,4.23-2.679,8.583-3.553,13.001c-0.855,4.416-1.348,8.935-1.114,13.43
				c0.223,4.471,1.253,8.984,3.294,12.889c0.42,0.984,1.172,1.951,1.775,2.928c0.599,0.85,1.333,1.771,2.099,2.566
				c1.532,1.639,3.288,3.072,5.191,4.299c1.897,1.24,3.972,2.219,6.102,3.057c2.13,0.846,4.348,1.504,6.609,2.01
				c9.063,2.043,18.615,2.047,28.084,1.297c19.002-1.621,37.971-6.25,56.828-11.824c18.864-5.643,37.67-12.422,56.461-19.888
				c18.795-7.462,37.581-15.624,56.391-24.263c37.612-17.308,75.322-36.534,113.18-56.978
				c75.687-40.965,151.887-86.957,227.848-135.912c75.97-48.956,151.641-101.022,225.926-154.988
				c74.26-54.002,147.136-109.917,217.217-167.004c70.003-57.172,137.243-115.504,199.691-174.747
				c31.212-29.628,61.243-59.467,89.588-89.662c14.172-15.096,27.897-30.303,41.094-45.636
				c13.195-15.333,25.843-30.815,37.688-46.564c11.808-15.766,22.878-31.783,32.35-48.391c4.721-8.305,9.023-16.772,12.558-25.465
				c3.496-8.682,6.322-17.649,7.13-26.771c0.212-2.275,0.243-4.555,0.115-6.812c-0.117-2.259-0.438-4.497-1.004-6.661
				c-0.555-2.164-1.345-4.264-2.381-6.212l-0.811-1.416l-0.96-1.421c-0.293-0.403-0.685-0.847-1.021-1.268
				c-0.364-0.414-0.665-0.883-1.081-1.25c-3.049-3.195-6.889-5.559-10.992-7.193c-4.112-1.642-8.477-2.601-12.859-3.173
				c-8.789-1.13-17.669-0.777-26.351,0.141c-8.696,0.92-17.245,2.454-25.625,4.313c-16.769,3.726-32.902,8.629-48.473,13.945
				c-7.79,2.652-15.438,5.428-22.951,8.287c-7.521,2.838-14.899,5.776-22.158,8.741c-29.019,11.904-56.056,24.377-81.201,36.619
				c-25.147,12.244-48.397,24.287-69.749,35.691c-21.351,11.41-40.793,22.204-58.284,32.076
				c-34.97,19.769-62.075,35.953-80.513,47.05c-9.198,5.585-16.25,9.867-21.002,12.753c-4.742,2.903-7.189,4.401-7.189,4.401
				L948.535,415.178z"/>
		</g>
		<path fill="none" stroke="#6D5B52" stroke-width="8" stroke-miterlimit="10" d="M993.812,442.254
			c137.426-75.368,236.73-109.006,257.418-80.599c35.5,48.749-173.961,261.76-467.842,475.771
			c-293.883,214.015-560.902,347.983-596.403,299.234c-23.112-31.74,57.609-133.104,197.861-259.044"/>
		<path fill="none" stroke="#6D5B52" stroke-width="3" stroke-miterlimit="10" d="M977.315,433.327
			c192.663-113.949,336.524-170.204,362.926-133.951c39.778,54.626-202.201,298.608-540.474,544.947
			c-338.276,246.339-644.751,401.751-684.531,347.127c-27.762-38.125,81.714-168.481,265.384-327.5"/>
	</g>
</g>
</svg>
