<?xml version="1.0" encoding="utf-8"?>
<!-- Generator: Adobe Illustrator 16.0.0, SVG Export Plug-In . SVG Version: 6.00 Build 0)  -->
<!DOCTYPE svg PUBLIC "-//W3C//DTD SVG 1.1//EN" "http://www.w3.org/Graphics/SVG/1.1/DTD/svg11.dtd">
<svg version="1.1" id="Layer_1" xmlns="http://www.w3.org/2000/svg" xmlns:xlink="http://www.w3.org/1999/xlink" x="0px" y="0px"
	 width="1194.81px" height="930.073px" viewBox="0 0 1194.81 930.073" enable-background="new 0 0 1194.81 930.073"
	 xml:space="preserve">
<g>
	<defs>
		<rect id="SVGID_1_" x="-1239.367" width="1194.811" height="930.073"/>
	</defs>
	<clipPath id="SVGID_2_">
		<use xlink:href="#SVGID_1_"  overflow="visible"/>
	</clipPath>
	<g opacity="0.8" clip-path="url(#SVGID_2_)">
		<g>
			<path fill="#B3927A" d="M-1106.093,1122.614c15.228,12.43,30.938,24.517,47.118,36.229
				c-143.817,49.992-279.938,91.788-403.429,123.558c-283.021,72.815-475.826,85.043-515.759,32.731
				c-10.274-13.462-10.458-32.268-0.549-55.898c68.5-163.349,588.182-491.913,1235.683-781.251
				C-367.347,310.11,3.441,175.495,301.027,98.934c283.021-72.811,475.825-85.045,515.757-32.729
				c10.275,13.464,10.456,32.27,0.549,55.896C774.054,225.302,550.65,394.452,228.747,577.986
				c-6.575-21.02-14.191-41.911-22.833-62.603c195.369-129.209,299.264-235.808,261.376-285.01l-3.628-10.538
				c-70.137-91.096-599.46,48.989-1182.276,312.856c-582.812,263.885-998.424,551.64-928.282,642.735l3.637,10.531
				C-1601.047,1240.773-1392.492,1211.841-1106.093,1122.614z"/>
			<path fill="#9D8075" d="M1001.132-31.596l5.438,15.795c77.484,100.615-240.535,361.359-762.856,649.868
				c-2.171-9.835-4.508-19.659-7.147-29.459C569.675,415.965,797.85,242.43,843.675,133.151
				c12.813-30.553,11.355-56.472-4.329-77.025c-63.957-83.795-334.635-35.199-550.436,20.313
				C-10.03,153.346-382.235,288.453-759.136,456.875c-662.304,295.953-1174.644,621.352-1245.917,791.314
				c-12.814,30.558-11.355,56.473,4.328,77.022c63.958,83.797,334.634,35.206,550.437-20.313
				c127.406-32.777,268.149-76.158,416.86-128.153c11.796,8.011,23.815,15.835,36.067,23.446
				c-605.173,224.261-1079.727,319.66-1159.369,216.239l-5.444-15.782c-105.135-136.537,517.784-567.819,1391.307-963.331
				C102.659,41.825,896.012-168.126,1001.132-31.596z"/>
		</g>
		<g>
			<path fill="#64544B" d="M239.246,623.036C340.16,567.42,439.273,509.702,535.145,448.598
				c47.914-30.568,95.038-61.958,140.952-94.52c45.888-32.581,90.648-66.271,133.114-101.961
				c21.219-17.85,41.868-36.192,61.567-55.283c19.676-19.101,38.472-38.916,55.345-60.027c8.423-10.558,16.351-21.45,23.416-32.83
				c7.052-11.382,13.287-23.258,17.747-35.885c2.212-6.318,3.964-12.828,4.947-19.557c0.978-6.724,1.188-13.684,0.103-20.761
				c-1.073-7.061-3.522-14.261-7.711-20.986c-4.179-6.764-10.003-12.868-16.858-17.971c-6.849-5.099-14.553-9.194-22.496-12.492
				c-7.95-3.31-16.162-5.844-24.402-7.904c-16.515-4.089-33.162-6.269-49.636-7.568c-32.987-2.496-65.407-1.541-97.324,0.67
				c-31.921,2.275-63.373,5.991-94.479,10.505c-31.106,4.524-61.876,9.881-92.384,15.776
				C506.04-0.359,446.088,13.673,386.799,28.894C327.524,44.146,268.937,60.662,210.89,78.067
				c-58.052,17.41-115.561,35.722-172.632,54.729c-57.078,18.993-113.734,38.652-169.984,58.924
				c-224.923,81.201-444.18,170.874-658.178,267.354c-107.016,48.22-212.714,98.165-316.884,149.979
				c-104.164,51.821-206.821,105.492-307.424,161.506c-100.581,56.024-199.251,114.251-294.683,175.831
				c-47.706,30.797-94.543,62.49-140.103,95.4c-45.527,32.937-89.856,67.044-131.727,103.248
				c-20.914,18.118-41.195,36.774-60.395,56.257c-19.15,19.508-37.327,39.799-53.109,61.622
				c-7.861,10.919-15.125,22.225-21.202,34.142c-6.042,11.913-11.013,24.453-13.207,37.887c-1.071,6.71-1.403,13.658-0.471,20.744
				c0.935,7.068,3.201,14.296,7.2,21.106c3.968,6.812,9.667,13.098,16.419,18.308c6.747,5.229,14.411,9.445,22.328,12.832
				c15.909,6.766,32.671,10.537,49.211,13.076c16.579,2.497,33.096,3.678,49.453,4.162c32.732,0.915,64.877-0.867,96.579-3.767
				c31.699-2.944,62.959-7.138,93.906-12.042c30.944-4.919,61.568-10.581,91.944-16.751
				c60.752-12.359,120.534-26.709,179.662-42.224c59.121-15.535,117.569-32.279,175.502-49.878
				c115.856-35.229,229.565-73.997,341.816-114.896l-0.175-0.265c-112.47,40.563-226.493,78.804-342.43,113.828
				c-57.976,17.493-116.471,34.126-175.617,49.549c-59.153,15.405-118.958,29.634-179.7,41.879
				c-30.375,6.109-60.989,11.714-91.905,16.571c-30.922,4.844-62.149,8.975-93.78,11.856c-31.63,2.84-63.688,4.555-96.216,3.592
				c-16.257-0.509-32.644-1.708-49.019-4.202c-16.324-2.53-32.807-6.287-48.198-12.868c-7.66-3.29-14.995-7.353-21.395-12.325
				c-6.395-4.957-11.739-10.874-15.468-17.301c-3.756-6.425-5.902-13.284-6.785-20.066c-0.876-6.797-0.572-13.532,0.48-20.075
				c2.141-13.1,7.034-25.466,13.015-37.241c6.013-11.781,13.225-23.002,21.046-33.849c15.691-21.684,33.807-41.897,52.913-61.338
				c19.15-19.419,39.397-38.027,60.28-56.104c41.811-36.127,86.103-70.18,131.597-103.067
				c45.539-32.859,92.36-64.502,139.969-95.342c95.291-61.619,193.842-119.9,294.309-175.987
				c201.105-112.017,409.671-215.558,623.342-312.394c106.88-48.364,215.079-95.024,324.644-139.79
				c109.562-44.764,220.475-87.665,333.065-128.05c112.549-40.432,226.677-78.51,342.893-113.066
				C269.885,62.296,328.516,45.913,387.829,30.8C447.143,15.699,507.14,1.855,568.104-9.902
				c30.484-5.868,61.216-11.194,92.277-15.69c31.061-4.483,62.449-8.171,94.271-10.417c31.816-2.186,64.116-3.107,96.83-0.612
				c16.334,1.309,32.804,3.456,49.022,7.459c8.095,2.015,16.126,4.495,23.852,7.702c7.717,3.201,15.14,7.146,21.681,12.01
				c6.522,4.834,12.114,10.708,16.043,17.062c3.978,6.38,6.332,13.244,7.377,20.052c1.05,6.817,0.862,13.591-0.087,20.167
				c-0.953,6.584-2.665,12.989-4.837,19.218C960.148,79.508,953.988,91.292,947,102.6c-7.005,11.311-14.881,22.157-23.254,32.683
				c-16.779,21.04-35.499,40.826-55.11,59.908c-19.636,19.068-40.23,37.405-61.4,55.252
				c-42.392,35.66-86.978,69.451-132.733,102.112c-45.775,32.646-92.776,64.13-140.569,94.795
				c-95.643,61.288-194.288,119.481-294.904,175.434L239.246,623.036z"/>
		</g>
		<path fill="#6E5C53" d="M-1755.662,1167.939c-9.841,23.461-8.95,42.888,2.732,58.079c26.131,33.978,102.048,41.921,225.64,23.609
			c115.535-17.118,269.679-57.007,445.77-115.352l-6.712-10.68c-175.396,58.115-328.776,97.822-443.556,114.829
			c-113.972,16.888-188.629,10.727-210.218-17.344c-16.527-21.493-3.707-57.463,37.076-104.025
			c41.295-47.149,109.207-103.451,201.847-167.345c190.958-131.701,465.089-280.594,771.896-419.248
			c306.808-138.655,609.475-250.439,852.25-314.757c117.784-31.205,214.928-49.495,288.737-54.367
			c72.896-4.81,120.162,4.005,136.688,25.496c19.452,25.292-1.241,69.637-59.841,128.236
			c-58.234,58.238-154.003,129.999-276.947,207.531l9.194,9.517c123.565-77.923,219.921-150.153,278.654-208.888
			c63.223-63.224,83.362-110.776,59.862-141.333c-20.325-26.425-71.111-37.153-150.947-31.885
			c-74.718,4.932-172.75,23.367-291.372,54.793c-243.417,64.488-546.758,176.509-854.146,315.429
			c-307.387,138.916-582.116,288.143-773.577,420.191c-93.302,64.351-161.806,121.178-203.612,168.906
			C-1735.234,1131.018-1748.383,1150.585-1755.662,1167.939z"/>
		<path fill="#6E5C53" d="M-1911.996,1232.727c-10.166,24.244-9.547,44.27,2.266,59.627c15.105,19.645,47.668,30.889,96.779,33.418
			c46.854,2.414,108.824-3.035,184.197-16.199c149.13-26.048,346.333-81.429,570.288-160.164l-2.594-3.978
			c-223.714,78.647-420.647,133.963-569.514,159.962c-152.034,26.553-247.149,21.405-275.062-14.888
			c-20.103-26.142-5.252-67.362,44.146-122.517c48.231-53.85,127.082-118.28,234.361-191.504
			c220.787-150.701,536.998-321.647,890.378-481.353c353.381-159.705,701.599-289.032,980.508-364.16
			c135.517-36.507,247.235-58.2,332.052-64.478c86.87-6.431,141.11,3.565,161.216,29.707
			c53.31,69.322-144.871,246.895-517.208,463.41l3.327,3.644c181.133-105.33,325.032-203.816,416.146-284.813
			c46.256-41.118,78.549-77.397,95.979-107.833c18.269-31.895,20.235-57.554,5.851-76.259
			c-41.923-54.512-219.358-42.957-499.624,32.539C-37.643,202.08-386.105,331.497-739.7,491.295
			c-353.592,159.8-670.022,330.871-890.994,481.698C-1790.05,1081.76-1886.073,1170.924-1911.996,1232.727z"/>
	</g>
	
		<linearGradient id="SVGID_3_" gradientUnits="userSpaceOnUse" x1="-717.604" y1="409.4375" x2="-658.2706" y2="543.3179" gradientTransform="matrix(1.5517 0.2717 0.2717 2.0345 281.062 -317.3524)">
		<stop  offset="0" style="stop-color:#B3927A;stop-opacity:0"/>
		<stop  offset="0.5043" style="stop-color:#BF9A76;stop-opacity:0.5"/>
		<stop  offset="1" style="stop-color:#CCA371;stop-opacity:0"/>
	</linearGradient>
	<polygon clip-path="url(#SVGID_2_)" fill="url(#SVGID_3_)" points="145.728,303.891 -1310.583,958.021 -1455.38,635.65 
		0.928,-18.481 	"/>
</g>
<g>
	<defs>
		<rect id="SVGID_4_" width="1194.81" height="930.073"/>
	</defs>
	<clipPath id="SVGID_5_">
		<use xlink:href="#SVGID_4_"  overflow="visible"/>
	</clipPath>
	<g opacity="0.8" clip-path="url(#SVGID_5_)">
		<path fill="#B3927A" d="M1630.943,590.868c15.354,18.807,31.377,37.315,48.061,55.489
			c-186.395,24.943-361.455,41.867-518.748,49.783c-360.498,18.145-596.84-14.724-632.23-87.901
			c-9.105-18.831-4.68-41.633,13.156-67.778C664.457,359.72,1374.574,90.593,2229.669-99.463
			c496.129-110.27,978.113-181.501,1357.158-200.579c360.498-18.14,596.842,14.722,632.229,87.903
			c9.105,18.833,4.678,41.636-13.156,67.779c-77.887,114.187-390.055,263.648-824.975,406.167
			c-2.76-27.062-6.814-54.227-12.154-81.403c268.367-108.06,420.445-211.373,386.762-280.281l-1.783-13.65
			c-62.354-127.577-737.539-88.92-1508.062,86.305C1475.167,148.027,881.984,385.089,965.24,534.719
			C1009.253,613.823,1262.3,628.038,1630.943,590.868z"/>
		<path fill="#9D8075" d="M4466.324-284.915l2.674,20.459c68.891,140.915-380.42,377.826-1083.826,597.828
			c-0.195-12.438-0.594-24.905-1.365-37.417c449.744-145.929,768.77-299.521,851.242-420.431
			c23.057-33.806,27.703-65.53,13.803-94.282c-56.68-117.215-396.25-125.327-671.123-111.501
			c-380.771,19.161-864.592,90.638-1362.332,201.272C1340.751,65.414,640.302,332.525,512.035,520.584
			c-23.062,33.808-27.705,65.53-13.805,94.276c56.682,117.218,396.25,125.335,671.125,111.5
			c162.281-8.166,343.324-25.865,536.139-52.021c12.293,12.61,24.904,25.048,37.85,37.289
			C955.556,833.397,379.181,878.47,286.888,686.676c-109.133-226.785,764.285-579.569,1919.145-842.232
			C3360.896-418.194,4372.867-476.123,4466.324-284.915z"/>
		<g>
			<path fill="#64544B" d="M3382.494,318.917c135.867-42.354,270.078-87.697,401.203-137.938
				c65.539-25.146,130.326-51.483,193.939-79.534c63.586-28.082,126.08-57.787,186.291-90.479
				c30.094-16.354,59.615-33.446,88.176-51.679c28.531-18.25,56.176-37.583,81.814-58.957
				c12.803-10.695,25.088-21.916,36.453-33.939c11.346-12.031,21.83-24.861,30.348-39.039c4.24-7.099,7.967-14.544,10.822-22.443
				c2.846-7.895,4.818-16.267,5.256-25.098c0.445-8.81-0.736-18.128-4.143-27.302c-3.385-9.218-8.924-18.045-15.959-25.916
				c-7.025-7.863-15.336-14.724-24.135-20.679c-8.803-5.97-18.111-11.067-27.576-15.598c-18.973-9.031-38.578-15.785-58.193-21.431
				c-39.301-11.175-78.771-18.035-117.941-23.25c-39.191-5.139-78.17-8.418-116.93-10.645c-38.762-2.216-77.32-3.341-115.699-3.749
				c-76.75-0.759-152.768,1.4-228.279,5.162c-75.502,3.801-150.48,9.304-225.031,16.016
				c-74.555,6.717-148.676,14.658-222.436,23.551c-73.768,8.872-147.189,18.654-220.271,29.281
				c-292.266,42.657-579.764,96.965-862.584,160.814c-141.424,31.896-281.682,66.203-420.551,103.151
				c-138.863,36.959-276.361,76.529-411.951,119.44c-135.57,42.931-269.369,88.998-400.078,139.925
				c-65.346,25.475-129.861,52.248-193.131,80.81c-63.234,28.603-125.312,58.918-184.932,92.378
				c-29.789,16.755-58.945,34.318-86.994,53.147c-27.998,18.873-55.012,38.934-79.504,61.442
				c-12.211,11.27-23.799,23.155-34.1,36.073c-10.254,12.924-19.371,26.868-25.348,42.583c-2.953,7.858-5.074,16.18-5.699,24.988
				c-0.615,8.783,0.342,18.091,3.496,27.321c3.119,9.224,8.461,18.24,15.342,26.214c6.873,7.994,15.105,14.991,23.85,21.047
				c17.58,12.122,36.93,20.83,56.32,27.992c19.443,7.121,39.141,12.633,58.816,17.262c39.385,9.2,78.723,14.992,117.803,19.32
				c39.09,4.271,77.955,6.927,116.617,8.645c38.664,1.695,77.121,2.416,115.408,2.46c76.574,0.063,152.465-2.522,227.852-6.68
				c75.387-4.183,150.256-9.995,224.715-16.97c148.91-13.991,296.098-32.791,442.047-54.532l-0.146-0.363
				c-146.133,21.28-293.568,39.368-442.527,53.089c-74.484,6.835-149.381,12.502-224.77,16.543
				c-75.393,4.017-151.281,6.451-227.816,6.252c-38.268-0.115-76.701-0.903-115.314-2.666c-38.617-1.785-77.426-4.506-116.42-8.839
				c-38.977-4.384-78.195-10.234-117.32-19.441c-19.547-4.636-39.08-10.136-58.281-17.206
				c-19.129-7.096-38.145-15.719-55.145-27.485c-8.455-5.873-16.326-12.605-22.844-20.205c-6.512-7.58-11.516-16.062-14.441-24.763
				c-2.957-8.7-3.857-17.532-3.25-25.958c0.621-8.442,2.656-16.518,5.545-24.176c5.828-15.323,14.809-29.079,24.957-41.848
				c10.189-12.772,21.689-24.567,33.836-35.76c24.35-22.36,51.27-42.343,79.197-61.145c27.975-18.766,57.078-36.279,86.818-52.991
				c59.527-33.382,121.545-63.641,184.73-92.191c63.232-28.506,127.713-55.223,192.951-80.773
				c130.549-51.008,264.219-97.172,399.662-140.206C1618.08,6.115,1896.068-67.62,2178.582-131.979
				c141.295-32.103,283.766-61.817,427.422-88.902c143.65-27.083,288.479-51.579,434.713-72.615
				c146.193-21.103,293.717-38.965,442.896-52.052c74.59-6.53,149.59-11.86,225.104-15.485c75.512-3.61,151.539-5.531,228.221-4.687
				c38.34,0.436,76.846,1.589,115.549,3.827c38.693,2.254,77.59,5.551,116.652,10.7c39.045,5.222,78.359,12.092,117.33,23.199
				c19.445,5.622,38.842,12.292,57.479,21.146c9.299,4.44,18.406,9.427,26.959,15.217c8.549,5.783,16.557,12.392,23.27,19.895
				c6.699,7.462,12.012,15.952,15.197,24.611c3.234,8.705,4.389,17.594,3.967,26.09c-0.414,8.51-2.312,16.66-5.09,24.384
				c-2.781,7.731-6.438,15.059-10.604,22.062c-8.389,13.993-18.756,26.73-30.01,38.686c-11.273,11.957-23.486,23.135-36.221,33.802
				c-25.506,21.312-53.051,40.629-81.502,58.872c-28.475,18.221-57.93,35.319-87.959,51.682
				c-60.117,32.672-122.428,62.542-185.871,90.754c-63.469,28.188-128.129,54.669-193.545,79.962
				c-130.893,50.521-264.654,96.555-400.246,139.39L3382.494,318.917z"/>
		</g>
		<path fill="#6E5C53" d="M833.671,485.125c-17.707,25.958-21.434,49.686-11.051,70.959
			c23.219,47.576,113.125,75.959,267.215,84.355c144.045,7.847,340.443-2.314,567.959-29.384l-5.48-14.583
			c-226.619,26.963-422.049,37.094-565.152,29.298c-142.098-7.74-230.918-33.654-250.105-72.962
			c-14.684-30.094,9.721-70.454,70.588-116.716c61.629-46.848,157.729-98.193,285.635-152.608
			c263.643-112.166,632.189-224.572,1037.746-316.511c405.561-91.941,799.463-152.385,1109.154-170.197
			c150.25-8.643,272.328-6.761,362.85,5.592c89.404,12.201,144.426,34.555,159.109,64.647
			c17.287,35.416-18.719,83.963-104.117,140.388c-84.873,56.079-218.506,119.243-386.453,182.672l8.773,13.79
			c168.797-63.749,303.256-127.335,388.852-183.891c92.141-60.878,128.268-113.445,107.385-156.232
			c-18.062-37.003-76.869-62.542-174.781-75.905c-91.641-12.504-214.83-14.431-366.148-5.728
			c-310.512,17.86-705.289,78.425-1111.613,170.542C1817.71,44.764,1448.357,157.43,1184.019,269.889
			c-128.818,54.806-225.764,106.639-288.158,154.061C867.519,445.496,846.767,465.923,833.671,485.125z"/>
		<path fill="#6E5C53" d="M628.468,524.876c-18.295,26.824-22.498,51.214-12,72.718c13.424,27.506,50.047,49.164,108.855,64.366
			c56.102,14.505,132.441,23.231,226.906,25.937c186.908,5.348,439.244-12.919,729.723-52.83l-2.156-5.454
			c-290.168,39.866-542.158,58.116-728.732,52.777c-190.549-5.457-304.379-35.202-329.184-86.021
			c-17.863-36.604,10.297-82.817,83.713-137.347c71.68-53.242,183.029-111.719,330.953-173.805
			C1340.988,157.432,1765.91,28.74,2233.031-77.158c467.119-105.899,920.484-176.312,1276.574-198.273
			c173.02-10.675,313.578-9.306,417.768,4.065c106.717,13.695,169.883,39.202,187.752,75.807
			c47.371,97.069-236.355,262.96-740.461,432.92l3.127,5.231c245.232-82.682,443.721-166.287,574.006-241.778
			c66.143-38.322,114.188-74.242,142.805-106.764c29.994-34.081,38.719-64.646,25.936-90.837
			c-37.256-76.332-254.836-106.216-612.658-84.145c-356.387,21.98-810.068,92.443-1277.471,198.401
			c-467.402,105.961-892.617,234.75-1197.312,362.641C813.363,372.335,675.117,456.496,628.468,524.876z"/>
	</g>
	
		<radialGradient id="SVGID_6_" cx="2599.4741" cy="423.2646" r="2505.092" gradientTransform="matrix(0.9846 -0.1746 0.0303 0.1755 -66.6458 608.3021)" gradientUnits="userSpaceOnUse">
		<stop  offset="0" style="stop-color:#B3927A;stop-opacity:0"/>
		<stop  offset="0.3213" style="stop-color:#B99778;stop-opacity:0.2037"/>
		<stop  offset="0.7886" style="stop-color:#BF9A76;stop-opacity:0.5"/>
		<stop  offset="0.9099" style="stop-color:#C49E74;stop-opacity:0.2132"/>
		<stop  offset="1" style="stop-color:#CCA371;stop-opacity:0"/>
	</radialGradient>
	<path clip-path="url(#SVGID_5_)" fill="url(#SVGID_6_)" d="M4968.267-233.689c51.174,277.667-1018.016,707.457-2388.094,959.959
		C1210.089,978.775,57.939,958.376,6.763,680.709C-44.411,403.041,1024.777-26.75,2394.861-279.253
		C3764.941-531.758,4917.095-511.358,4968.267-233.689z"/>
</g>
</svg>
