<?xml version="1.0" encoding="utf-8"?>
<!-- Generator: Adobe Illustrator 16.0.0, SVG Export Plug-In . SVG Version: 6.00 Build 0)  -->
<!DOCTYPE svg PUBLIC "-//W3C//DTD SVG 1.1//EN" "http://www.w3.org/Graphics/SVG/1.1/DTD/svg11.dtd">
<svg version="1.1" id="Layer_1" xmlns="http://www.w3.org/2000/svg" xmlns:xlink="http://www.w3.org/1999/xlink" x="0px" y="0px"
	 width="1500px" height="1500px" viewBox="0 0 1500 1500" enable-background="new 0 0 1500 1500" xml:space="preserve">
<g id="Saturn">
	<g id="Planet">
		<defs>
			<path id="SVGID_1_" d="M1046.463,1010.281c-141.652,162.797-388.453,179.937-551.253,38.283
				c-162.793-141.65-179.936-388.451-38.28-551.248c141.653-162.797,388.454-179.937,551.248-38.284
				C1170.974,600.686,1188.117,847.486,1046.463,1010.281z"/>
		</defs>
		<clipPath id="SVGID_2_">
			<use xlink:href="#SVGID_1_"  overflow="visible"/>
		</clipPath>
		<polygon clip-path="url(#SVGID_2_)" fill="#46442D" points="957.732,916.054 683.194,1173.943 492.127,808.496 		"/>
		<polygon clip-path="url(#SVGID_2_)" fill="#6B6331" points="1092.845,1048.771 957.732,916.054 683.194,1173.943 		"/>
		<polygon clip-path="url(#SVGID_2_)" fill="#47452B" points="957.732,916.054 799.982,455.336 1182.824,615.058 		"/>
		<path clip-path="url(#SVGID_2_)" fill="#26322C" d="M492.127,808.496"/>
		<polygon clip-path="url(#SVGID_2_)" fill="#26322C" points="799.982,455.336 957.732,916.054 492.127,808.496 		"/>
		<polygon clip-path="url(#SVGID_2_)" fill="#26322C" points="1182.824,615.058 878.21,337.086 799.982,455.336 		"/>
		<line clip-path="url(#SVGID_2_)" fill="#736D2E" x1="1092.845" y1="1048.771" x2="957.732" y2="916.054"/>
		<polygon clip-path="url(#SVGID_2_)" fill="#292F32" points="683.194,1173.943 332.442,823.41 492.127,808.496 		"/>
		<path clip-path="url(#SVGID_2_)" fill="#0B132D" d="M735.603,436.503"/>
		<polygon clip-path="url(#SVGID_2_)" fill="#0B132D" points="878.21,337.086 799.982,455.336 446.716,465.599 		"/>
		<g clip-path="url(#SVGID_2_)">
			<g>
				<path fill="#0B132D" d="M503.273,589.174c0.84,0,2.01-1.275,0.703-1.275C503.136,587.898,501.966,589.174,503.273,589.174
					L503.273,589.174z"/>
			</g>
		</g>
		<polygon clip-path="url(#SVGID_2_)" fill="#0D1225" points="799.982,455.336 492.127,808.496 446.716,465.599 		"/>
		<polygon clip-path="url(#SVGID_2_)" fill="#0D1321" points="492.127,808.496 332.442,823.41 446.716,465.599 		"/>
		<line clip-path="url(#SVGID_2_)" fill="#8E8239" x1="1064.643" y1="772.538" x2="1182.6" y2="614.442"/>
		<polygon clip-path="url(#SVGID_2_)" fill="#D0A772" points="955.523,915.481 680.988,1173.372 489.917,807.925 		"/>
		<polygon clip-path="url(#SVGID_2_)" fill="#BD997D" points="1090.63,1048.203 955.523,915.481 680.988,1173.372 		"/>
		<polygon clip-path="url(#SVGID_2_)" fill="#E4B462" points="955.523,915.481 797.772,454.765 1180.615,614.483 		"/>
		<path clip-path="url(#SVGID_2_)" fill="#26322C" d="M489.917,807.925"/>
		<polygon clip-path="url(#SVGID_2_)" fill="#D3A45C" points="797.772,454.765 955.523,915.481 489.917,807.925 		"/>
		<polygon clip-path="url(#SVGID_2_)" fill="#AA875B" points="1180.615,614.483 875.998,336.515 797.772,454.765 		"/>
		<polygon clip-path="url(#SVGID_2_)" fill="#D1A571" points="1180.615,614.483 1090.63,1048.203 955.523,915.481 		"/>
		<polygon clip-path="url(#SVGID_2_)" fill="#DAAF61" points="680.988,1173.372 470.517,1056.116 330.229,822.837 489.917,807.925 
					"/>
		<path clip-path="url(#SVGID_2_)" fill="#0B132D" d="M733.398,435.929"/>
		<polygon clip-path="url(#SVGID_2_)" fill="#C39A60" points="875.998,336.515 797.772,454.765 444.508,465.026 		"/>
		<g clip-path="url(#SVGID_2_)">
			<g>
				<path fill="#0B132D" d="M501.057,588.585c0.813,0,2.022-1.234,0.715-1.234C500.958,587.351,499.75,588.585,501.057,588.585
					L501.057,588.585z"/>
			</g>
		</g>
		<polygon clip-path="url(#SVGID_2_)" fill="#E0B463" points="797.772,454.765 489.917,807.925 444.508,465.026 		"/>
		<polygon clip-path="url(#SVGID_2_)" fill="#ECBC68" points="489.917,807.925 330.229,822.837 444.508,465.026 		"/>
		<line clip-path="url(#SVGID_2_)" fill="#8E8239" x1="1062.433" y1="771.965" x2="1180.391" y2="613.867"/>
		<polygon clip-path="url(#SVGID_2_)" fill="#634647" points="877.374,336.179 1059.951,450.645 983.826,532.92 		"/>
		<polygon clip-path="url(#SVGID_2_)" fill="#A17D55" points="1059.951,450.645 1182.864,615.691 982.315,531.939 		"/>
		<polygon clip-path="url(#SVGID_2_)" fill="#A1826A" points="470.517,1056.116 490.018,809.261 329.902,822.824 		"/>
		<polygon clip-path="url(#SVGID_2_)" fill="#DFB262" points="797.772,454.765 694.037,643.581 490.018,809.261 		"/>
		<polygon clip-path="url(#SVGID_2_)" fill="#CD9F5F" points="1107.035,712.771 871.118,669.975 955.992,915.946 		"/>
		<polygon clip-path="url(#SVGID_2_)" fill="#CCA26C" points="1182.864,615.691 1107.035,712.771 995.362,693.298 		"/>
		<polygon clip-path="url(#SVGID_2_)" fill="#D7AA5D" points="995.362,693.298 1013.21,544.653 1182.864,615.691 		"/>
		<polygon clip-path="url(#SVGID_2_)" fill="#D7AA5D" points="995.362,693.298 997.887,722.25 1107.035,712.771 		"/>
		<polygon clip-path="url(#SVGID_2_)" fill="#D1A571" points="997.887,722.25 955.992,915.946 1107.035,712.771 		"/>
		<polygon clip-path="url(#SVGID_2_)" fill="#F2BE64" points="997.887,722.25 900.651,755.137 995.362,693.298 		"/>
		<polygon clip-path="url(#SVGID_2_)" fill="#DEB15A" points="997.887,722.25 900.651,755.137 970.752,847.556 		"/>
		<g clip-path="url(#SVGID_2_)">
			<g>
				<path fill="#5B622B" d="M940.906,702.155c0.596,0,2.098-0.902,0.804-0.902C941.114,701.252,939.612,702.155,940.906,702.155
					L940.906,702.155z"/>
			</g>
		</g>
		<polygon clip-path="url(#SVGID_2_)" fill="#BD997D" points="1107.035,712.771 1092.538,807.467 955.992,915.946 		"/>
		<polygon clip-path="url(#SVGID_2_)" fill="#917867" points="1107.035,712.771 1182.864,615.691 1092.538,807.467 		"/>
		<polygon clip-path="url(#SVGID_2_)" fill="#AF8D74" points="1183.988,613.622 1163.284,855.255 1092.538,807.467 		"/>
		<polygon clip-path="url(#SVGID_2_)" fill="#96766C" points="1092.506,1049.883 1163.284,855.255 1144.498,834.476 		"/>
		<polygon clip-path="url(#SVGID_2_)" fill="#C7A17C" points="1092.538,807.467 1144.498,834.476 1035.412,992.99 		"/>
		<polygon clip-path="url(#SVGID_2_)" fill="#B89477" points="1035.412,992.99 1093.318,1047.822 1144.498,834.476 		"/>
		<polygon clip-path="url(#SVGID_2_)" fill="#917867" points="1092.506,1049.883 895.778,1148.528 910.774,1076.957 		"/>
		<polygon clip-path="url(#SVGID_2_)" fill="#B3927A" points="684.358,1172.785 897.573,1148.407 910.774,1076.957 		"/>
		<polygon clip-path="url(#SVGID_2_)" fill="#5E5049" points="443.92,462.109 558.821,460.024 453.719,515.343 		"/>
		<polygon clip-path="url(#SVGID_2_)" fill="#3E3035" points="443.92,462.109 622.03,360.066 660.265,400.618 		"/>
		<polygon clip-path="url(#SVGID_2_)" fill="#846F61" points="660.265,400.618 558.821,460.024 443.92,462.109 		"/>
		<polygon clip-path="url(#SVGID_2_)" fill="#8F715D" points="622.03,360.066 723.257,381.949 660.265,400.618 		"/>
		<polygon clip-path="url(#SVGID_2_)" fill="#C9A06C" points="660.265,400.618 657.928,459.749 558.821,460.024 		"/>
		<polygon clip-path="url(#SVGID_2_)" fill="#393131" points="443.92,462.109 405.352,506.358 425.227,529.776 		"/>
		<polygon clip-path="url(#SVGID_2_)" fill="#917862" points="453.719,515.343 425.227,529.776 443.92,462.109 		"/>
		<polygon clip-path="url(#SVGID_2_)" fill="#795C50" points="877.374,336.179 723.257,381.949 622.03,360.066 		"/>
		<polygon clip-path="url(#SVGID_2_)" fill="#4C4142" points="425.227,529.776 375.918,599.536 405.352,506.358 		"/>
		<polygon clip-path="url(#SVGID_2_)" fill="#EC9C54" points="329.902,822.824 375.918,599.536 394.956,623.921 		"/>
		<polygon clip-path="url(#SVGID_2_)" fill="#846F61" points="425.227,529.776 466.262,615.659 375.918,599.536 		"/>
		<polygon clip-path="url(#SVGID_2_)" fill="#BF9C72" points="394.956,623.921 466.262,615.659 375.918,599.536 		"/>
		<polygon clip-path="url(#SVGID_2_)" fill="#B39065" points="558.821,460.024 466.262,615.659 453.719,515.343 		"/>
		<polygon clip-path="url(#SVGID_2_)" fill="#6D5B52" points="453.719,515.343 425.227,529.776 466.262,615.659 		"/>
		<g clip-path="url(#SVGID_2_)">
			<g>
				<path fill="#6A6230" d="M379.324,428.319c0.677,0,2.073-1.027,0.77-1.027C379.417,427.292,378.021,428.319,379.324,428.319
					L379.324,428.319z"/>
			</g>
		</g>
		<polygon clip-path="url(#SVGID_2_)" fill="#FFCB70" points="490.018,809.261 616.386,837.26 536.745,771.456 		"/>
		<polygon clip-path="url(#SVGID_2_)" fill="#D0A772" points="616.386,837.26 597.926,1014.829 490.018,809.261 		"/>
		<polygon clip-path="url(#SVGID_2_)" fill="#A1826A" points="680.988,1173.372 574.711,1010.385 490.018,809.261 		"/>
		<polygon clip-path="url(#SVGID_2_)" fill="#D2A878" points="1035.412,992.99 866.074,999.11 956.304,914.731 		"/>
		<polygon clip-path="url(#SVGID_2_)" fill="#A98770" points="910.774,1076.957 1036.144,991.226 1092.845,1048.771 		"/>
		<polygon clip-path="url(#SVGID_2_)" fill="#B89477" points="956.771,914.009 859.612,1046.703 679.234,1174.177 		"/>
		<polyline clip-path="url(#SVGID_2_)" fill="#917867" points="859.113,1047.553 910.774,1076.957 895.442,997.786 
			859.612,1046.703 		"/>
		<polygon clip-path="url(#SVGID_2_)" fill="#CFA467" points="470.517,1056.116 574.711,1010.385 492.127,808.496 		"/>
		<polygon clip-path="url(#SVGID_2_)" fill="#F7C663" points="694.037,643.581 955.523,915.481 871.118,669.975 		"/>
		<polyline clip-path="url(#SVGID_2_)" fill="#C59B63" points="696.532,644.833 616.386,837.26 536.745,771.456 694.037,643.581 		
			"/>
		<polygon clip-path="url(#SVGID_2_)" fill="#ECBC68" points="778.57,874.575 679.234,1174.177 955.523,915.481 		"/>
		<path opacity="0.1" clip-path="url(#SVGID_2_)" fill="#C59857" d="M518.279,1030.908c0,0,616.403-282.183,706.46-624.406
			l134.088,390.255c0,0-236.153,292.19-818.533,322.209C-42.084,1148.986,518.279,1030.908,518.279,1030.908z"/>
		<path opacity="0.19" clip-path="url(#SVGID_2_)" fill="#2B221D" d="M1114.553,504.675l16.339,11.338
			c0,0-331.204,439.157-764.074,540.825c-433.933,101.916,44.766-26.683,44.766-26.683S861.596,845.675,1114.553,504.675z"/>
	</g>
</g>
</svg>
