<?xml version="1.0" encoding="utf-8"?>
<!-- Generator: Adobe Illustrator 16.0.0, SVG Export Plug-In . SVG Version: 6.00 Build 0)  -->
<!DOCTYPE svg PUBLIC "-//W3C//DTD SVG 1.1//EN" "http://www.w3.org/Graphics/SVG/1.1/DTD/svg11.dtd">
<svg version="1.1" id="Layer_1" xmlns="http://www.w3.org/2000/svg" xmlns:xlink="http://www.w3.org/1999/xlink" x="0px" y="0px"
	 width="1500px" height="1500px" viewBox="0 0 1500 1500" enable-background="new 0 0 1500 1500" xml:space="preserve">
<g id="Saturn">
	<g id="BG">
		<circle fill="#7E7165" cx="47.385" cy="922.224" r="6.802"/>
		<path fill="#7E7165" d="M1293.938,616.221c0-3.759,3.045-6.804,6.802-6.804c3.756,0,6.802,3.045,6.802,6.804
			c0,3.754-3.046,6.801-6.802,6.801C1296.983,623.022,1293.938,619.976,1293.938,616.221z"/>
		<circle fill="#7E7165" cx="240.842" cy="389.14" r="6.801"/>
		<circle fill="#7E7165" cx="1267.91" cy="1271.813" r="6.802"/>
		<circle fill="#7E7165" cx="921.894" cy="311.8" r="6.802"/>
		<circle fill="#7E7165" cx="812.907" cy="200.202" r="13.603"/>
		<circle fill="#7E7165" cx="1399.761" cy="803.824" r="13.604"/>
		<circle fill="#7E7165" cx="795.111" cy="1240.8" r="13.604"/>
		<circle fill="#7E7165" cx="133.832" cy="800.661" r="25.667"/>
		<path fill="#7E7165" d="M1318.854,1273.309c0-14.178,11.489-25.668,25.667-25.668c14.175,0,25.666,11.49,25.666,25.668
			c0,14.174-11.491,25.664-25.666,25.664C1330.343,1298.973,1318.854,1287.482,1318.854,1273.309z"/>
		<circle fill="#7E7165" cx="490.136" cy="1467.16" r="25.667"/>
		<circle fill="#7E7165" cx="656.072" cy="363.059" r="25.667"/>
	</g>
</g>
</svg>
