<?xml version="1.0" encoding="utf-8"?>
<!-- Generator: Adobe Illustrator 16.0.1, SVG Export Plug-In . SVG Version: 6.00 Build 0)  -->
<!DOCTYPE svg PUBLIC "-//W3C//DTD SVG 1.1//EN" "http://www.w3.org/Graphics/SVG/1.1/DTD/svg11.dtd">
<svg version="1.1" id="Layer_1" xmlns="http://www.w3.org/2000/svg" xmlns:xlink="http://www.w3.org/1999/xlink" x="0px" y="0px"
	 width="1500px" height="1500px" viewBox="0 0 1500 1500" enable-background="new 0 0 1500 1500" xml:space="preserve">
<g id="Saturn">
	<g>
		<g id="Planet">
			<defs>
				<path id="SVGID_1_" d="M1053.684,996.4c-139.245,160.031-381.854,176.88-541.888,37.632
					C351.769,894.79,334.917,652.182,474.167,492.15c139.247-160.032,381.854-176.879,541.882-37.634
					C1176.079,593.764,1192.931,836.372,1053.684,996.4z"/>
			</defs>
			<clipPath id="SVGID_2_">
				<use xlink:href="#SVGID_1_"  overflow="visible"/>
			</clipPath>
			<path clip-path="url(#SVGID_2_)" fill="#C59857" d="M1048.222,991.648c-136.621,157.015-374.656,173.546-531.674,36.923
				c-157.011-136.619-173.544-374.654-36.92-531.669c136.622-157.016,374.657-173.545,531.669-36.924
				C1168.311,596.601,1184.844,834.636,1048.222,991.648z"/>
			<polygon clip-path="url(#SVGID_2_)" fill="#ECBC68" points="506.593,797.482 349.618,812.142 461.955,460.409 489,607.625 			"/>
			<path clip-path="url(#SVGID_2_)" fill="#26322C" d="M508.766,798.043"/>
			<polygon clip-path="url(#SVGID_2_)" fill="#8F715D" points="631.83,354.605 742.566,380.062 673.312,400.125 			"/>
			<path clip-path="url(#SVGID_2_)" fill="#0B132D" d="M748.104,432.371"/>
			<g clip-path="url(#SVGID_2_)">
				<g>
					<path fill="#0B132D" d="M519.716,582.458c0.84,0,2.01-1.275,0.703-1.275C519.579,581.183,518.409,582.458,519.716,582.458
						L519.716,582.458z"/>
				</g>
			</g>
			<line clip-path="url(#SVGID_2_)" fill="#8E8239" x1="1071.555" y1="762.697" x2="1187.508" y2="607.287"/>
			<polygon clip-path="url(#SVGID_2_)" fill="#D0A772" points="964.289,903.212 694.417,1156.721 506.593,797.482 630.913,826.319 
							"/>
			<polygon clip-path="url(#SVGID_2_)" fill="#BD997D" points="1097.1,1033.679 964.289,903.212 694.417,1156.721 			"/>
			<polygon clip-path="url(#SVGID_2_)" fill="#E4B462" points="964.289,903.212 809.218,450.322 1185.556,607.327 			"/>
			<path clip-path="url(#SVGID_2_)" fill="#26322C" d="M506.971,797.57"/>
			<polygon clip-path="url(#SVGID_2_)" fill="#D3A45C" points="809.218,450.322 882.917,661.667 964.289,903.212 630.913,826.319 
				506.593,797.482 			"/>
			<polygon clip-path="url(#SVGID_2_)" fill="#AA875B" points="1185.556,607.327 886.114,334.082 809.218,450.322 992.125,530.375 
				1021.221,541.95 			"/>
			<polygon clip-path="url(#SVGID_2_)" fill="#D1A571" points="1185.556,607.327 1097.1,1033.679 1041.504,979.063 964.289,903.212 
							"/>
			<polygon clip-path="url(#SVGID_2_)" fill="#DAAF61" points="694.417,1156.721 487.522,1041.457 349.618,812.142 506.593,797.482 
							"/>
			<path clip-path="url(#SVGID_2_)" fill="#0B132D" d="M745.937,431.807"/>
			<polygon clip-path="url(#SVGID_2_)" fill="#C39A60" points="886.114,334.082 809.218,450.322 671.375,455.625 461.955,460.409 
				674.046,397.095 			"/>
			<polygon clip-path="url(#SVGID_2_)" fill="#846F61" points="674.046,397.095 573.75,457.5 461.377,457.542 			"/>
			<g clip-path="url(#SVGID_2_)">
				<g>
					<path fill="#0B132D" d="M517.537,581.879c0.812,0,2.021-1.234,0.714-1.234C517.438,580.645,516.229,581.879,517.537,581.879
						L517.537,581.879z"/>
				</g>
			</g>
			<polygon clip-path="url(#SVGID_2_)" fill="#E0B463" points="809.218,450.322 506.593,797.482 483.34,608.482 461.955,460.409 
				573.667,455.75 671.375,455.625 			"/>
			<line clip-path="url(#SVGID_2_)" fill="#8E8239" x1="1069.382" y1="762.134" x2="1185.335" y2="606.721"/>
			<polygon clip-path="url(#SVGID_2_)" fill="#634647" points="886.114,334.082 1066.942,446.272 992.125,530.375 			"/>
			<polygon clip-path="url(#SVGID_2_)" fill="#A17D55" points="1066.942,446.272 1187.767,608.515 992.125,530.375 			"/>
			<polygon clip-path="url(#SVGID_2_)" fill="#A1826A" points="487.522,1041.457 506.593,797.482 349.296,812.129 			"/>
			<polygon clip-path="url(#SVGID_2_)" fill="#DFB262" points="809.218,450.322 707.245,635.931 552.625,761.633 506.593,797.482 
							"/>
			<polygon clip-path="url(#SVGID_2_)" fill="#CD9F5F" points="1113.226,703.946 882.917,661.667 964.289,903.212 			"/>
			<polygon clip-path="url(#SVGID_2_)" fill="#CCA26C" points="1187.767,608.515 1113.226,703.946 1003.45,684.803 			"/>
			<polygon clip-path="url(#SVGID_2_)" fill="#D7AA5D" points="1003.45,684.803 1021.221,541.95 1187.767,608.515 			"/>
			<polygon clip-path="url(#SVGID_2_)" fill="#D7AA5D" points="1003.45,684.803 1005.933,713.263 1113.226,703.946 			"/>
			<polygon clip-path="url(#SVGID_2_)" fill="#D1A571" points="1005.933,713.263 964.289,903.212 1113.226,703.946 			"/>
			<polygon clip-path="url(#SVGID_2_)" fill="#F2BE64" points="1005.933,713.263 910.349,745.592 1003.45,684.803 			"/>
			<polygon clip-path="url(#SVGID_2_)" fill="#DEB15A" points="1005.933,713.263 910.349,745.592 979.259,836.44 			"/>
			<polygon clip-path="url(#SVGID_2_)" fill="#BD997D" points="1113.226,703.946 1098.975,797.032 964.289,903.212 			"/>
			<polygon clip-path="url(#SVGID_2_)" fill="#917867" points="1113.226,703.946 1187.767,608.515 1098.975,797.032 			"/>
			<polygon clip-path="url(#SVGID_2_)" fill="#AF8D74" points="1188.872,606.48 1168.52,844.008 1098.975,797.032 			"/>
			<polygon clip-path="url(#SVGID_2_)" fill="#96766C" points="1097.1,1033.679 1168.52,844.008 1150.052,823.583 			"/>
			<polygon clip-path="url(#SVGID_2_)" fill="#C7A17C" points="1098.975,797.032 1150.052,823.583 1041.504,979.063 			"/>
			<polygon clip-path="url(#SVGID_2_)" fill="#B89477" points="1041.504,979.063 1097.1,1033.679 1150.052,823.583 			"/>
			<g clip-path="url(#SVGID_2_)">
				<polygon fill="#917867" points="1097.1,1033.679 905.558,1132.299 920.299,1061.944 				"/>
			</g>
			<polygon clip-path="url(#SVGID_2_)" fill="#B3927A" points="697.73,1156.144 907.323,1132.18 920.299,1061.944 			"/>
			<polygon clip-path="url(#SVGID_2_)" fill="#5E5049" points="461.377,457.542 573.667,455.75 471.009,509.871 			"/>
			<polygon clip-path="url(#SVGID_2_)" fill="#3E3035" points="461.377,457.542 637.375,357.25 674.046,397.095 			"/>
			<polygon clip-path="url(#SVGID_2_)" fill="#C9A06C" points="674.046,397.095 671.375,455.625 573.667,455.75 			"/>
			<polygon clip-path="url(#SVGID_2_)" fill="#393131" points="461.377,457.542 423.464,501.039 438.333,527.5 			"/>
			<polygon clip-path="url(#SVGID_2_)" fill="#917862" points="471.009,509.871 438.25,524 461.377,457.542 			"/>
			<polygon clip-path="url(#SVGID_2_)" fill="#795C50" points="886.114,334.082 736.071,378.665 637.375,357.25 			"/>
			<polygon clip-path="url(#SVGID_2_)" fill="#4C4142" points="438.25,524 394.53,592.634 423.464,501.039 			"/>
			<polygon clip-path="url(#SVGID_2_)" fill="#EC9C54" points="349.296,812.129 394.53,592.634 413.245,616.604 			"/>
			<polygon clip-path="url(#SVGID_2_)" fill="#846F61" points="438.25,524 483.34,608.482 394.53,592.634 			"/>
			<polygon clip-path="url(#SVGID_2_)" fill="#BF9C72" points="413.245,616.604 483.34,608.482 394.53,592.634 			"/>
			<polygon clip-path="url(#SVGID_2_)" fill="#B39065" points="573.667,455.75 483.34,608.482 471.009,509.871 			"/>
			<polygon clip-path="url(#SVGID_2_)" fill="#6D5B52" points="471.009,509.871 438.25,524 483.34,608.482 			"/>
			<g clip-path="url(#SVGID_2_)">
				<g>
					<path fill="#6A6230" d="M397.872,424.334c0.677,0,2.073-1.027,0.77-1.027C397.964,423.307,396.568,424.334,397.872,424.334
						L397.872,424.334z"/>
				</g>
			</g>
			<polygon clip-path="url(#SVGID_2_)" fill="#FFCB70" points="506.593,797.482 630.913,826.319 552.625,761.633 			"/>
			<polygon clip-path="url(#SVGID_2_)" fill="#A1826A" points="694.417,1156.721 589.946,996.503 506.593,797.482 			"/>
			<polygon clip-path="url(#SVGID_2_)" fill="#D2A878" points="1041.504,979.063 876.359,985.42 964.289,903.212 			"/>
			<polygon clip-path="url(#SVGID_2_)" fill="#A98770" points="920.299,1061.944 1041.504,979.063 1097.1,1033.679 			"/>
			<polygon clip-path="url(#SVGID_2_)" fill="#B89477" points="964.289,903.212 870.007,1032.204 692.693,1157.512 			"/>
			<polyline clip-path="url(#SVGID_2_)" fill="#917867" points="869.516,1033.04 920.299,1061.944 905.229,984.118 
				870.007,1032.204 			"/>
			<polygon clip-path="url(#SVGID_2_)" fill="#CFA467" points="487.522,1041.457 589.946,996.503 506.593,797.482 			"/>
			<polygon clip-path="url(#SVGID_2_)" fill="#F7C663" points="707.245,635.931 964.289,903.212 882.917,661.667 			"/>
			<polygon clip-path="url(#SVGID_2_)" fill="#C59B63" points="707.245,635.931 552.625,761.633 630.913,826.319 			"/>
			<polygon clip-path="url(#SVGID_2_)" fill="#ECBC68" points="790.341,863 692.693,1157.512 964.289,903.212 			"/>
			<path opacity="0.1" clip-path="url(#SVGID_2_)" fill="#C59857" d="M534.473,1016.678c0,0,605.931-277.389,694.458-613.798
				l131.811,383.625c0,0-232.142,287.227-804.627,316.735C-16.371,1132.75,534.473,1016.678,534.473,1016.678z"/>
			<path opacity="0.19" clip-path="url(#SVGID_2_)" fill="#2B221D" d="M1120.617,499.384l16.062,11.145
				c0,0-325.577,431.697-751.093,531.637c-426.56,100.185,44.005-26.229,44.005-26.229S871.957,834.591,1120.617,499.384z"/>
		</g>
		<g id="Rings">
			<g>
				<path fill="#B3927A" d="M397.232,880.129c-3.157-8.356-6.027-16.849-8.6-25.472c-57.6,50.222-104.504,94.32-148.135,139.354
					c-99.999,103.214-148.605,179.935-130.032,205.226c4.78,6.509,14.561,9.81,29.068,9.81
					c100.298,0,385.667-156.119,678.544-371.213c169.927-124.797,321.412-253.293,426.557-361.82
					c99.997-103.214,148.604-179.935,130.03-205.226c-4.781-6.509-14.562-9.808-29.069-9.808
					c-63.365,0-194.688,59.055-361.015,159.185c9.536,6.291,18.776,12.985,27.688,20.066
					c110.253-57.715,182.744-78.64,200.139-54.716l4.708,3.29c32.21,44.286-156.849,236.655-422.261,429.67
					c-265.418,193.013-506.689,313.583-538.898,269.292l-4.703-3.29C231.875,1057.825,287.927,981.911,397.232,880.129z"/>
				<path fill="#9E8075" d="M1466.105,212.194l-7.058-4.932c-35.572-48.922-236.85,33.574-501.885,197.635
					c4.661,2.576,9.281,5.216,13.821,7.974c171.451-103.833,307.515-164.551,374.614-164.551c18.761,0,31.975,5.038,39.273,14.973
					c29.751,40.51-54.894,142.83-131.14,221.531c-105.62,109.02-257.675,238.014-428.156,363.217
					c-299.572,220.009-581.681,373.666-686.04,373.666c-18.762,0-31.976-5.037-39.272-14.972
					c-29.752-40.511,54.894-142.832,131.141-221.532c45.015-46.464,93.05-91.777,152.764-143.654
					c-1.601-6.197-3.053-12.451-4.343-18.762c-249.626,208.944-397.92,381.801-361.355,432.082l7.048,4.935
					c48.277,66.382,409.89-114.33,807.701-403.616C1231.02,566.894,1514.378,278.572,1466.105,212.194z"/>
			</g>
			<g>
				<path fill="#392B22" d="M962.893,408.06c0,0,2.382-1.478,6.999-4.34c4.629-2.843,11.498-7.062,20.457-12.564
					c17.959-10.936,44.364-26.879,78.438-46.374c17.035-9.75,36.013-20.341,56.851-31.548
					c20.839-11.203,43.541-23.022,68.103-35.043c24.57-11.997,50.978-24.27,79.408-35.831c14.216-5.772,28.935-11.375,44.217-16.507
					c15.283-5.112,31.127-9.817,47.646-13.263c8.259-1.708,16.691-3.089,25.292-3.812c8.589-0.68,17.398-0.793,26.139,0.793
					c4.355,0.804,8.696,2.062,12.743,4.093c4.04,2.013,7.768,4.873,10.541,8.565c2.753,3.661,4.566,8.12,5.281,12.651
					c0.771,4.551,0.666,9.199,0.078,13.753c-1.209,9.13-4.183,17.943-7.777,26.471c-3.628,8.532-7.972,16.805-12.674,24.93
					c-9.443,16.239-20.361,31.884-31.992,47.277c-23.336,30.753-49.587,60.515-77.391,89.944
					c-27.827,29.42-57.28,58.486-87.884,87.339c-61.26,57.66-127.016,114.58-195.411,170.45
					c-68.369,55.91-139.462,110.698-211.905,163.631c-72.433,52.951-146.226,104.052-220.305,152.163
					c-37.042,24.05-74.184,47.307-111.273,69.635c-37.093,22.321-74.145,43.7-111.08,63.842
					c-36.933,20.144-73.764,39.037-110.491,56.122c-18.365,8.537-36.71,16.608-55.056,24.055
					c-18.35,7.43-36.699,14.26-55.122,20.056c-18.421,5.754-36.928,10.616-55.606,13.065c-9.33,1.169-18.731,1.757-28.031,0.824
					c-2.324-0.217-4.63-0.6-6.921-1.041c-2.282-0.497-4.543-1.091-6.75-1.869c-4.384-1.59-8.616-3.862-11.997-7.159
					c-3.392-3.259-5.878-7.403-7.244-11.839c-1.396-4.43-1.805-9.065-1.627-13.591c0.401-9.086,2.855-17.778,5.907-26.019
					c3.089-8.252,6.88-16.112,10.97-23.688c4.096-7.577,8.51-14.872,13.085-21.949c9.166-14.149,18.937-27.456,28.848-40.16
					c9.923-12.699,20.007-24.789,30.056-36.381c20.118-23.17,40.072-44.369,59.188-63.917c19.128-19.54,37.437-37.422,54.569-53.74
					c17.138-16.312,33.091-31.07,47.64-44.245c29.093-26.355,52.405-46.553,68.352-60.258
					c15.957-13.695,24.545-20.906,24.546-20.906l0.129,0.152c0,0-8.553,7.252-24.442,21.023
					c-15.878,13.781-39.089,34.09-68.046,60.579c-28.917,26.524-63.729,59.1-101.876,98.243
					c-19.053,19.585-38.935,40.819-58.967,64.012c-10.005,11.604-20.042,23.701-29.912,36.399
					c-9.857,12.703-19.568,26.001-28.659,40.116c-4.538,7.06-8.911,14.33-12.959,21.866c-4.043,7.535-7.78,15.339-10.807,23.49
					c-2.993,8.135-5.365,16.687-5.725,25.452c-0.161,4.365,0.25,8.78,1.572,12.935c1.287,4.151,3.612,7.983,6.765,11.004
					c3.139,3.051,7.117,5.182,11.304,6.694c2.108,0.742,4.283,1.312,6.486,1.792c2.216,0.425,4.453,0.797,6.72,1.007
					c9.066,0.907,18.343,0.332,27.571-0.83c18.484-2.431,36.904-7.272,55.25-13.012c18.35-5.782,36.649-12.603,54.957-20.024
					c18.304-7.438,36.614-15.505,54.95-24.037c36.664-17.085,73.451-35.972,110.387-56.036
					c73.852-40.19,148.229-85.229,222.395-133.126c74.166-47.911,148.065-98.817,220.607-151.581
					c72.521-52.799,143.694-107.455,212.149-163.24c68.372-55.876,134.056-112.871,195.071-170.742
					c30.497-28.941,59.845-58.083,87.556-87.564c13.854-14.74,27.286-29.576,40.189-44.547c12.914-14.96,25.302-30.06,36.907-45.42
					c11.587-15.365,22.455-30.974,31.828-47.131c4.668-8.083,8.972-16.302,12.551-24.745c3.54-8.438,6.48-17.122,7.663-25.999
					c0.578-4.426,0.677-8.907-0.051-13.231c-0.694-4.345-2.344-8.419-4.937-11.895c-2.587-3.454-6.076-6.148-9.925-8.073
					c-3.853-1.941-8.041-3.167-12.278-3.954c-8.506-1.557-17.196-1.466-25.69-0.802c-8.51,0.705-16.884,2.063-25.096,3.752
					c-16.428,3.406-32.229,8.075-47.477,13.154c-15.248,5.1-29.945,10.674-44.146,16.418c-28.39,11.531-54.826,23.669-79.408,35.593
					c-49.15,23.905-90.93,46.88-125.117,66.137c-34.164,19.314-60.647,35.121-78.66,45.962c-8.986,5.456-15.876,9.639-20.519,12.458
					c-4.631,2.839-7.021,4.304-7.021,4.304L962.893,408.06z"/>
			</g>
			<g>
				<defs>
					<path id="SVGID_3_" d="M397.232,880.129c-3.157-8.356-6.027-16.849-8.6-25.472c-57.6,50.222-104.504,94.32-148.135,139.354
						c-99.999,103.214-148.605,179.935-130.032,205.226c4.78,6.509,14.561,9.81,29.068,9.81
						c100.298,0,385.667-156.119,678.544-371.213c169.927-124.797,321.412-253.293,426.557-361.82
						c99.997-103.214,148.604-179.935,130.03-205.226c-4.781-6.509-14.562-9.808-29.069-9.808
						c-63.365,0-194.688,59.055-361.015,159.185c9.536,6.291,18.776,12.985,27.688,20.066
						c110.253-57.715,182.744-78.64,200.139-54.716l4.708,3.29c32.21,44.286-156.849,236.655-422.261,429.67
						c-265.418,193.013-506.689,313.583-538.898,269.292l-4.703-3.29C231.875,1057.825,287.927,981.911,397.232,880.129z"/>
				</defs>
				<clipPath id="SVGID_4_">
					<use xlink:href="#SVGID_3_"  overflow="visible"/>
				</clipPath>
				<path clip-path="url(#SVGID_4_)" fill="none" stroke="#6D5B52" stroke-width="8" stroke-miterlimit="10" d="M992.896,440.723
					c135.091-74.087,232.708-107.154,253.044-79.23c34.896,47.921-171.005,257.313-459.894,467.688
					c-288.891,210.379-551.373,342.071-586.271,294.151c-22.719-31.201,63.847-136.114,201.716-259.914"/>
				<path clip-path="url(#SVGID_4_)" fill="none" stroke="#6D5B52" stroke-width="3" stroke-miterlimit="10" d="M977.782,432.245
					c189.389-112.013,343.893-174.842,369.846-139.206c39.102,53.699-198.766,293.535-531.292,535.689
					c-332.529,242.154-633.797,394.926-672.902,341.229c-27.29-37.477,76.362-162.182,256.911-318.5"/>
			</g>
		</g>
	</g>
</g>
</svg>
