<?xml version="1.0" encoding="UTF-8" standalone="no"?>
<!-- Created with Inkscape (http://www.inkscape.org/) -->

<svg
   xmlns:dc="http://purl.org/dc/elements/1.1/"
   xmlns:cc="http://creativecommons.org/ns#"
   xmlns:rdf="http://www.w3.org/1999/02/22-rdf-syntax-ns#"
   xmlns:svg="http://www.w3.org/2000/svg"
   xmlns="http://www.w3.org/2000/svg"
   version="1.1"
   width="64"
   height="64"
   id="svg2">
  <metadata
     id="metadata8">
    <rdf:RDF>
      <cc:Work
         rdf:about="">
        <dc:format>image/svg+xml</dc:format>
        <dc:type
           rdf:resource="http://purl.org/dc/dcmitype/StillImage" />
        <dc:title></dc:title>
      </cc:Work>
    </rdf:RDF>
  </metadata>
  <defs
     id="defs6" />
  <g
     transform="translate(3.2542373,-84.610169)"
     id="g3160">
    <path
       d="m 41.924465,137.39589 c 6.543262,-6.9425 9.942323,-11.0044 9.929743,-21.9235 -0.01251,-10.8562 -5.013799,-15.35859 -9.541268,-19.845245 l 3.490866,-3.60106 c 7.026402,5.80534 11.175022,13.140055 11.123452,23.375855 -0.0535,10.62269 -4.11161,18.38697 -11.584942,25.24994 z"
       id="path3009-9"
       style="fill:#000000" />
    <path
       d="m 8.7643996,123.00007 c 0,0 -4.859659,-0.0888 -6.920817,0 -2.06115801,0.0888 -2.43033401,-2.07037 -2.43033401,-2.07037 l 0,-8.52963 c 0,0 0.332707,-2.41342 2.40000001,-2.4 2.067293,0.0134 6.918263,0 6.918263,0 l 10.7681224,-8.13001 3.893008,1.32586 0.08106,26.14876 -3.38956,1.38765 z"
       id="path3013-4"
       style="fill:#000000" />
    <path
       d="m 34.919401,130.94551 c 4.713386,-5.48223 6.802604,-7.70106 6.802604,-15.17857 0,-7.49477 -3.924699,-10.80164 -6.719355,-14.09765 l 3.309392,-3.143575 c 4.850792,4.007805 8.194256,10.126125 8.158654,17.192585 -0.04027,7.99355 -3.41379,13.46078 -8.57313,18.19875 z"
       id="path3009-1-8"
       style="fill:#000000" />
    <path
       d="m 27.632604,124.98149 c 2.446827,-2.7381 4.349869,-5.01723 4.349869,-9.36194 0,-4.5367 -2.37568,-6.5384 -4.067329,-8.53352 l 3.552388,-3.18203 c 2.936258,2.42599 5.724587,7.40868 5.70304,11.68611 -0.02335,4.63521 -2.676985,9.49197 -5.800013,12.35993 z"
       id="path3009-1-7-8"
       style="fill:#000000" />
  </g>
</svg>
