<?xml version="1.0" encoding="utf-8"?>
<!-- Generator: Adobe Illustrator 16.0.0, SVG Export Plug-In . SVG Version: 6.00 Build 0)  -->
<!DOCTYPE svg PUBLIC "-//W3C//DTD SVG 1.1//EN" "http://www.w3.org/Graphics/SVG/1.1/DTD/svg11.dtd">
<svg version="1.1" id="Layer_1" xmlns="http://www.w3.org/2000/svg" xmlns:xlink="http://www.w3.org/1999/xlink" x="0px" y="0px"
	 width="512px" height="512px" viewBox="0 0 512 512" enable-background="new 0 0 512 512" xml:space="preserve">
<g>
	<g opacity="0.1">
		<circle fill="#FFF8EA" cx="288.666" cy="177.875" r="2.75"/>
		<circle fill="#FFF3D0" cx="271.776" cy="203.485" r="2.943"/>
		<circle fill="#FFF3D0" cx="246" cy="359" r="3.5"/>
		<circle fill="#FFF3D0" cx="106" cy="201.5" r="3.5"/>
		<circle fill="#FFF3D0" cx="91.75" cy="180.25" r="2.75"/>
		<circle fill="#FFF8EA" cx="165.5" cy="157.5" r="2.25"/>
		<circle fill="#FFF3D0" cx="253.01" cy="497.101" r="1.75"/>
		<circle fill="#FFF3D0" cx="101.875" cy="178.875" r="1.375"/>
		<circle fill="#FFF3D0" cx="8.5" cy="407" r="3.5"/>
		<circle fill="#FFF3D0" cx="467.721" cy="89" r="2.5"/>
		<circle fill="#FFF3D0" cx="460.971" cy="75.25" r="1.75"/>
		<circle fill="#FFF3D0" cx="351.787" cy="36.562" r="1.99"/>
		<circle fill="#FFF3D0" cx="83.25" cy="48.489" r="2.75"/>
		<circle fill="#FFF8EA" cx="67.74" cy="130.376" r="2.225"/>
		<circle fill="#FFF3D0" cx="313.196" cy="108.906" r="3"/>
		<circle fill="#FFF3D0" cx="347.991" cy="152.438" r="2.812"/>
		<circle fill="#FFF3D0" cx="103.667" cy="353.834" r="1.667"/>
		<circle fill="#FFF3D0" cx="117.667" cy="346.834" r="1.333"/>
		<circle fill="#FFF8EA" cx="181.583" cy="260.342" r="3.833"/>
		<circle fill="#FFF3D0" cx="212.261" cy="483.434" r="3.333"/>
		<circle fill="#FFF3D0" cx="285.166" cy="214.375" r="2"/>
		<circle fill="#FFF8EA" cx="351.559" cy="301.806" r="2.896"/>
		<circle fill="#FFF3D0" cx="306.319" cy="429.9" r="2.75"/>
		<circle fill="#FFF8EA" cx="333.849" cy="440.573" r="3.252"/>
		<circle fill="#FFF3D0" cx="342.972" cy="428.857" r="2"/>
		<circle fill="#FFF8EA" cx="470.934" cy="437.651" r="2.83"/>
		<circle fill="#FFF3D0" cx="457.251" cy="453.792" r="2.125"/>
	</g>
	<g opacity="0.2">
		<circle fill="#FFF3D0" cx="494.165" cy="171.539" r="2.887"/>
		<circle fill="#FFF8EA" cx="228" cy="94.5" r="3"/>
		<circle fill="#FFF3D0" cx="175.75" cy="51.489" r="2"/>
		<circle fill="#FFF3D0" cx="6.75" cy="397.25" r="1.75"/>
		<circle fill="#FFF3D0" cx="429.5" cy="234" r="2"/>
		<circle fill="#FFF3D0" cx="434.596" cy="12.599" r="2.125"/>
		<circle fill="#FFF8EA" cx="163.667" cy="311.295" r="3.333"/>
		<circle fill="#FFF8EA" cx="152.5" cy="312.128" r="2.5"/>
		<circle fill="#FFF3D0" cx="233.594" cy="291.649" r="1.75"/>
		<circle fill="#FFF8EA" cx="197.54" cy="477.288" r="2.813"/>
		<circle fill="#FFF8EA" cx="97" cy="268.961" r="2.5"/>
		<circle fill="#FFF3D0" cx="459.988" cy="389.645" r="3.5"/>
	</g>
	<g opacity="0.4">
		<circle fill="#FFF3D0" cx="394.75" cy="334" r="2.75"/>
		<circle fill="#FFF8EA" cx="309.07" cy="28" r="3"/>
		<circle fill="#FFF3D0" cx="324" cy="384.02" r="2.125"/>
		<circle fill="#FFF3D0" cx="434.104" cy="484.816" r="2.038"/>
		<circle fill="#FFF3D0" cx="381.791" cy="454.091" r="2"/>
		<circle fill="#FFF8EA" cx="141" cy="145" r="1.5"/>
		<circle fill="#FFF3D0" cx="34.75" cy="320.667" r="3.25"/>
		<circle fill="#FFF8EA" cx="69.964" cy="63.333" r="1.317"/>
		<circle fill="#FFF3D0" cx="425.282" cy="91.5" r="2.218"/>
		<circle fill="#FFF8EA" cx="357.705" cy="159.75" r="2.438"/>
		<circle fill="#FFF3D0" cx="175.333" cy="284.295" r="1.667"/>
		<circle fill="#FFF3D0" cx="487.326" cy="275.628" r="2"/>
		<circle fill="#FFF8EA" cx="251.25" cy="219.125" r="1.75"/>
		<circle fill="#FFF3D0" cx="228" cy="203.485" r="2.501"/>
		<circle fill="#FFF3D0" cx="139.5" cy="427.15" r="3.119"/>
		<circle fill="#FFF3D0" cx="27.95" cy="157.944" r="2.125"/>
		<circle fill="#FFF3D0" cx="105.779" cy="496.542" r="2.437"/>
		<circle fill="#FFF3D0" cx="351.883" cy="461.924" r="1.75"/>
	</g>
</g>
<g opacity="0.1">
	<defs>
		<path id="SVGID_6_" opacity="0.1" d="M529.769,232.617c36.621,7.938,80.203,11.292,132.069,8.043
			c239.725-15.019,262.594-92.092,419.467-78.713L1081.3,24.186c-73.056-19.267-171.738-41.973-287.805-2.329
			C674,62.673,597.695,70.824,529.773,61.284L529.769,232.617z"/>
	</defs>
	<clipPath id="SVGID_2_">
		<use xlink:href="#SVGID_6_"  overflow="visible"/>
	</clipPath>
	<polygon clip-path="url(#SVGID_2_)" fill="#E6E7E8" points="306.07,173.812 459.988,-16.949 473.765,271.313 	"/>
	<polygon clip-path="url(#SVGID_2_)" fill="#F1F2F2" points="473.765,271.313 459.988,-16.949 644.729,7.324 	"/>
	<polygon clip-path="url(#SVGID_2_)" fill="#D1D3D4" points="473.765,271.313 644.729,7.324 879.993,258.706 	"/>
</g>
<g opacity="0.1">
	<defs>
		<path id="SVGID_8_" opacity="0.1" d="M1081.306,514.252c-36.621,8.583-80.203,12.209-132.069,8.696
			C709.512,506.71,686.643,423.38,529.77,437.845l0.005-148.943c73.056-20.831,173.172-47.081,287.805-2.518
			C938,333.197,1018,339.066,1081.301,329.011L1081.306,514.252z"/>
	</defs>
	<clipPath id="SVGID_3_">
		<use xlink:href="#SVGID_8_"  overflow="visible"/>
	</clipPath>
	<polygon clip-path="url(#SVGID_3_)" fill="#F1F2F2" points="731.081,542.458 698.834,244.428 502.208,491.328 	"/>
	<polygon clip-path="url(#SVGID_3_)" fill="#E6E7E8" points="502.208,491.328 698.834,244.428 387.598,270.67 	"/>
</g>
<g opacity="0.1">
	<defs>
		<path id="SVGID_14_" opacity="0.1" d="M529.773,698.766c155.992,59.793,327.486,99.787,479.984,76.897
			c26.969-4.048,50.717-8.571,71.549-13.49l-0.002-221.347c0,0-256.303,73.732-551.535,50.724L529.773,698.766z"/>
	</defs>
	<clipPath id="SVGID_5_">
		<use xlink:href="#SVGID_14_"  overflow="visible"/>
	</clipPath>
	<polygon clip-path="url(#SVGID_5_)" fill="#F1F2F2" points="58.023,320.941 -82.725,563.939 544.469,536.62 	"/>
</g>
</svg>
