<?xml version="1.0" encoding="utf-8"?>
<!-- Generator: Adobe Illustrator 16.0.0, SVG Export Plug-In . SVG Version: 6.00 Build 0)  -->
<!DOCTYPE svg PUBLIC "-//W3C//DTD SVG 1.1//EN" "http://www.w3.org/Graphics/SVG/1.1/DTD/svg11.dtd">
<svg version="1.1" id="Layer_1" xmlns="http://www.w3.org/2000/svg" xmlns:xlink="http://www.w3.org/1999/xlink" x="0px" y="0px"
	 width="551.532px" height="241.894px" viewBox="0 0 551.532 241.894" enable-background="new 0 0 551.532 241.894"
	 xml:space="preserve">
<g opacity="0.1">
	<defs>
		<path id="SVGID_6_" opacity="0.1" d="M-0.004,232.617c36.621,7.938,80.203,11.292,132.069,8.043
			c239.725-15.019,262.594-92.092,419.467-78.713l-0.005-137.761c-73.056-19.267-171.738-41.973-287.805-2.329
			C144.228,62.673,67.923,70.824,0.001,61.284L-0.004,232.617z"/>
	</defs>
	<clipPath id="SVGID_2_">
		<use xlink:href="#SVGID_6_"  overflow="visible"/>
	</clipPath>
	<polygon clip-path="url(#SVGID_2_)" fill="#F1F2F2" points="-56.008,271.313 -69.784,-16.949 114.957,7.324 	"/>
	<polygon clip-path="url(#SVGID_2_)" fill="#D1D3D4" points="-56.008,271.313 114.957,7.324 350.221,258.706 	"/>
	<polygon clip-path="url(#SVGID_2_)" fill="#F1F2F2" points="350.221,258.706 114.957,7.324 382.468,-16.949 	"/>
	<polygon clip-path="url(#SVGID_2_)" fill="#F1F2F2" points="350.221,258.706 382.468,-16.949 579.094,211.415 	"/>
	<polygon clip-path="url(#SVGID_2_)" fill="#E6E7E8" points="579.094,211.415 382.468,-16.949 693.704,7.324 	"/>
</g>
<g opacity="0.1">
	<defs>
		<path id="SVGID_10_" opacity="0.1" d="M564,154.193c32.228-15.133,85.227-48.076,262.228,7.756
			c101,31.859,235,40.486,289.305-14.921V16.314C794.228-34.311,564,57.19,564,57.19V154.193z"/>
	</defs>
	<clipPath id="SVGID_3_">
		<use xlink:href="#SVGID_10_"  overflow="visible"/>
	</clipPath>
	<polygon clip-path="url(#SVGID_3_)" fill="#F1F2F2" points="541.372,294.744 698.559,-87.29 368.493,115.502 	"/>
	<polygon clip-path="url(#SVGID_3_)" fill="#E6E7E8" points="541.372,294.744 698.559,-87.29 960.349,223.648 	"/>
</g>
<g opacity="0.1">
	<defs>
		<path id="SVGID_12_" opacity="0.1" d="M1115.531,353.778c-32.227-15.133-85.227-48.076-262.227,7.756
			c-101,31.859-235,40.486-289.305-14.922V215.899c321.305-50.625,551.531,40.875,551.531,40.875V353.778z"/>
	</defs>
	<clipPath id="SVGID_5_">
		<use xlink:href="#SVGID_12_"  overflow="visible"/>
	</clipPath>
	<polygon clip-path="url(#SVGID_5_)" fill="#F1F2F2" points="719.184,423.233 781.133,46.089 536.285,484.272 	"/>
	<polygon clip-path="url(#SVGID_5_)" fill="#E6E7E8" points="536.285,484.272 781.133,46.089 369.729,291.517 	"/>
</g>
</svg>
