<?xml version="1.0" encoding="utf-8"?>
<!-- Generator: Adobe Illustrator 16.0.0, SVG Export Plug-In . SVG Version: 6.00 Build 0)  -->
<!DOCTYPE svg PUBLIC "-//W3C//DTD SVG 1.1//EN" "http://www.w3.org/Graphics/SVG/1.1/DTD/svg11.dtd">
<svg version="1.1" id="Layer_1" xmlns="http://www.w3.org/2000/svg" xmlns:xlink="http://www.w3.org/1999/xlink" x="0px" y="0px"
	 width="551.305px" height="131.281px" viewBox="0 0 551.305 131.281" enable-background="new 0 0 551.305 131.281"
	 xml:space="preserve">
<g opacity="0.1">
	<defs>
		<path id="SVGID_52_" opacity="0.1" d="M-12.698,236.877c-155.991,59.793-327.486,99.787-479.983,76.897
			c-26.969-4.048-50.717-8.571-71.549-13.49l0.001-221.347c0,0,256.303,73.732,551.535,50.724L-12.698,236.877z"/>
	</defs>
	<clipPath id="SVGID_2_">
		<use xlink:href="#SVGID_52_"  overflow="visible"/>
	</clipPath>
	<polygon clip-path="url(#SVGID_2_)" fill="#F1F2F2" points="459.053,-140.947 599.801,102.051 -27.394,74.731 	"/>
	<polygon clip-path="url(#SVGID_2_)" fill="#E6E7E8" points="599.801,102.051 -27.394,74.731 138.047,410.569 	"/>
	<polygon clip-path="url(#SVGID_2_)" fill="#F1F2F2" points="-27.394,74.731 138.047,410.569 -343.461,53.958 	"/>
	<polygon clip-path="url(#SVGID_2_)" fill="#D1D3D4" points="-343.461,53.958 138.047,410.569 -390.377,466.479 	"/>
</g>
<g opacity="0.1">
	<defs>
		<path id="SVGID_56_" opacity="0.1" d="M0.114,277.292c31.515,3.367,63.218,3.379,95.498-5.045
			c84.531-22.059,156.318-58.832,246.555-55.635c34.396,1.219,131.65,22.584,209.25,20.178l0.002-40.736
			c-78.874-11.057-154.982-44.096-238.107-49.76c-52.846-3.6-106.513,27.629-151.994,50.506
			c-54.001,27.162-92.821,40.178-153.393,43.57c-2.679,0.15-5.358,0.301-8.039,0.451L0.114,277.292z"/>
	</defs>
	<clipPath id="SVGID_4_">
		<use xlink:href="#SVGID_56_"  overflow="visible"/>
	</clipPath>
	<polygon clip-path="url(#SVGID_4_)" fill="#E6E7E8" points="70.19,146.009 153.642,357.562 354.569,118.56 	"/>
	<polygon clip-path="url(#SVGID_4_)" fill="#D1D3D4" points="354.569,118.56 153.642,357.562 420.19,323.687 	"/>
	<polygon clip-path="url(#SVGID_4_)" fill="#F1F2F2" points="354.569,118.56 420.19,323.687 534.19,118.56 	"/>
	<polygon clip-path="url(#SVGID_4_)" fill="#E6E7E8" points="534.19,118.56 420.19,323.687 624.563,221.304 	"/>
</g>
<g opacity="0.1">
	<defs>
		<path id="SVGID_58_" opacity="0.1" d="M0-142.561c31.515-3.368,63.218-3.38,95.498,5.044
			c84.531,22.059,156.318,58.832,246.555,55.636c34.396-1.219,131.65-22.584,209.25-20.178l0.002,40.736
			c-78.874,11.057-154.982,44.096-238.107,49.759c-52.846,3.601-106.513-27.628-151.994-50.506
			c-54.001-27.162-92.821-40.177-153.393-43.569c-2.679-0.15-5.358-0.301-8.039-0.451L0-142.561z"/>
	</defs>
	<clipPath id="SVGID_6_">
		<use xlink:href="#SVGID_58_"  overflow="visible"/>
	</clipPath>
	<polygon clip-path="url(#SVGID_6_)" fill="#E6E7E8" points="70.076,-11.278 153.527,-222.83 354.455,16.171 	"/>
	<polygon clip-path="url(#SVGID_6_)" fill="#D1D3D4" points="354.455,16.171 153.527,-222.83 420.076,-188.956 	"/>
	<polygon clip-path="url(#SVGID_6_)" fill="#F1F2F2" points="354.455,16.171 420.076,-188.956 534.076,16.171 	"/>
	<polygon clip-path="url(#SVGID_6_)" fill="#E6E7E8" points="534.076,16.171 420.076,-188.956 624.449,-86.573 	"/>
</g>
<g opacity="0.1">
	<defs>
		<path id="SVGID_60_" opacity="0.1" d="M551.305,131.282c-31.515,3.369-63.218,3.381-95.498-5.043
			c-84.531-22.059-156.318-58.832-246.555-55.637C174.855,71.821,77.602,93.187,0.002,90.78L0,50.044
			C78.874,38.987,154.982,5.948,238.107,0.286c52.846-3.602,106.513,27.627,151.994,50.506
			c54.001,27.162,92.821,40.176,153.393,43.568c2.679,0.15,5.358,0.301,8.039,0.451L551.305,131.282z"/>
	</defs>
	<clipPath id="SVGID_8_">
		<use xlink:href="#SVGID_60_"  overflow="visible"/>
	</clipPath>
	<polygon clip-path="url(#SVGID_8_)" fill="#F1F2F2" points="481.229,0.001 397.777,211.552 653.046,144.679 	"/>
	<polygon clip-path="url(#SVGID_8_)" fill="#E6E7E8" points="481.229,0.001 397.777,211.552 196.85,-27.448 	"/>
	<polygon clip-path="url(#SVGID_8_)" fill="#D1D3D4" points="196.85,-27.448 397.777,211.552 131.229,177.679 	"/>
	<polygon clip-path="url(#SVGID_8_)" fill="#F1F2F2" points="196.85,-27.448 131.229,177.679 17.229,-27.448 	"/>
	<polygon clip-path="url(#SVGID_8_)" fill="#E6E7E8" points="17.229,-27.448 131.229,177.679 -73.145,75.296 	"/>
</g>
<g opacity="0.4">
	<defs>
		<rect id="SVGID_64_" x="687.125" y="-107.874" opacity="0.4" width="1044.104" height="571.891"/>
	</defs>
	<clipPath id="SVGID_10_">
		<use xlink:href="#SVGID_64_"  overflow="visible"/>
	</clipPath>
	<path opacity="0.2" clip-path="url(#SVGID_10_)" fill="#F1F2F2" d="M1333.421,125.549c1.234,0.314,2.462,0.636,3.687,0.964
		c47.629,12.774,87.391,35.983,118.179,68.979c34.142,37.303,53.202,73.804,35.344,130.808l-0.065,0.195
		c-8.133,22.329-27.762,60.723-67.857,67c-2.453,0.382-4.757-1.294-5.141-3.75c-0.385-2.456,1.294-4.758,3.75-5.143
		c35.475-5.553,53.283-40.613,60.756-61.091c16.577-53.021-0.489-85.959-33.396-121.912
		c-70.53-75.585-174.385-82.724-249.083-75.396c-83.944,7.863-156.129,61.001-225.938,112.389
		c-21.675,15.954-42.148,31.026-63.05,44.876c-63.744,43.023-137.43,69.104-207.449,73.413
		c-78.829,4.854-150.486-17.642-207.225-65.054c-1.906-1.593-2.16-4.431-0.566-6.338c1.592-1.907,4.431-2.16,6.338-0.567
		c120.579,100.758,289.742,68.114,403.9-8.935c20.747-13.751,41.133-28.756,62.716-44.644
		c70.798-52.115,144.005-106.004,230.415-114.102C1247.673,112.441,1292.969,115.236,1333.421,125.549z"/>
	<path opacity="0.2" clip-path="url(#SVGID_10_)" fill="#F1F2F2" d="M1001.162-2.01c-0.122-0.23-0.407-0.329-0.648-0.219
		c-77.587,35.53-207.158,7.973-285.969,9.601c-47.609,0.983-90.056,21.825-132.394,36.064c-26.284,8.84-53.462,17.981-81.576,25.199
		c-43.275,9.104-91.621-3.531-132.62-34.672c-0.219-0.168-0.533-0.123-0.699,0.097c-0.167,0.219-0.125,0.532,0.096,0.7
		c41.229,31.315,89.87,44.017,133.45,34.848c28.172-7.231,55.368-16.38,81.668-25.225c42.294-14.223,85.632-33.774,133.129-35.203
		c101.761-3.062,199.098,28.904,285.329-10.499c0.253-0.115,0.363-0.411,0.247-0.664C1001.173-1.991,1001.168-2,1001.162-2.01z"/>
	<path opacity="0.5" clip-path="url(#SVGID_10_)" fill="#F1F2F2" d="M289.894,7.07c-0.6-0.477-0.927-1.26-0.782-2.066
		c11.677-65.635,74.41-126.645,134.25-130.564c52.686-4.668,103.2,3.68,154.378,25.518c41.208,17.584,83.859,44.361,134.229,84.27
		c119.959,95.043,307.804,146.535,436.756,34.99c0.9-0.775,2.263-0.682,3.039,0.221c0.778,0.898,0.679,2.26-0.22,3.039
		c-60.403,52.246-138.427,73.389-225.634,61.145c-73.71-10.35-152.663-45.348-216.617-96.018
		c-79.104-62.676-168.454-119.244-285.6-108.867c-58.096,3.805-118.978,63.16-130.342,127.021c-0.207,1.172-1.325,1.951-2.496,1.742
		C290.491,7.438,290.164,7.285,289.894,7.07z"/>
</g>
<g opacity="0.1">
	<defs>
		<path id="SVGID_66_" opacity="0.1" d="M-564.227-17.793C-408.234,42-236.74,81.994-84.242,59.104
			c26.969-4.048,50.717-8.571,71.549-13.49l-0.002-221.347c0,0-256.303,73.732-551.535,50.724L-564.227-17.793z"/>
	</defs>
	<clipPath id="SVGID_12_">
		<use xlink:href="#SVGID_66_"  overflow="visible"/>
	</clipPath>
	<polygon clip-path="url(#SVGID_12_)" fill="#F1F2F2" points="-186.547,211.809 -233.463,-200.712 206.066,-11.967 	"/>
</g>
</svg>
