<?xml version="1.0" encoding="utf-8"?>
<!-- Generator: Adobe Illustrator 16.0.0, SVG Export Plug-In . SVG Version: 6.00 Build 0)  -->
<!DOCTYPE svg PUBLIC "-//W3C//DTD SVG 1.1//EN" "http://www.w3.org/Graphics/SVG/1.1/DTD/svg11.dtd">
<svg version="1.1" id="Layer_1" xmlns="http://www.w3.org/2000/svg" xmlns:xlink="http://www.w3.org/1999/xlink" x="0px" y="0px"
	 width="551.076px" height="131.282px" viewBox="0 0 551.076 131.282" enable-background="new 0 0 551.076 131.282"
	 xml:space="preserve">
<g opacity="0.1">
	<defs>
		<path id="SVGID_14_" opacity="0.1" d="M-564.341-163.802c155.992,59.793,327.486,99.787,479.984,76.897
			c26.969-4.048,50.717-8.571,71.549-13.49l-0.002-221.347c0,0-256.303,73.732-551.535,50.724L-564.341-163.802z"/>
	</defs>
	<clipPath id="SVGID_2_">
		<use xlink:href="#SVGID_14_"  overflow="visible"/>
	</clipPath>
	<polygon clip-path="url(#SVGID_2_)" fill="#F1F2F2" points="-186.661,65.8 -233.577,-346.721 205.952,-157.976 	"/>
</g>
<g opacity="0.1">
	<defs>
		<path id="SVGID_16_" opacity="0.1" d="M-12.812,90.868c-155.991,59.793-327.486,99.787-479.983,76.897
			c-26.969-4.048-50.717-8.571-71.549-13.49l0.001-221.347c0,0,256.303,73.732,551.535,50.724L-12.812,90.868z"/>
	</defs>
	<clipPath id="SVGID_3_">
		<use xlink:href="#SVGID_16_"  overflow="visible"/>
	</clipPath>
	<polygon clip-path="url(#SVGID_3_)" fill="#E6E7E8" points="599.687,-43.958 -27.508,-71.277 137.933,264.561 	"/>
	<polygon clip-path="url(#SVGID_3_)" fill="#F1F2F2" points="-27.508,-71.277 137.933,264.561 -343.575,-92.051 	"/>
	<polygon clip-path="url(#SVGID_3_)" fill="#D1D3D4" points="-343.575,-92.051 137.933,264.561 -390.491,320.47 	"/>
</g>
<g opacity="0.1">
	<defs>
		<path id="SVGID_20_" opacity="0.1" d="M0,131.283c31.515,3.367,63.218,3.379,95.498-5.045
			c84.531-22.059,156.318-58.832,246.555-55.635c34.396,1.219,131.65,22.584,209.25,20.178l0.002-40.736
			C472.431,38.988,396.322,5.949,313.197,0.285c-52.846-3.6-106.513,27.629-151.994,50.506
			C107.202,77.953,68.382,90.969,7.811,94.361c-2.679,0.15-5.358,0.301-8.039,0.451L0,131.283z"/>
	</defs>
	<clipPath id="SVGID_5_">
		<use xlink:href="#SVGID_20_"  overflow="visible"/>
	</clipPath>
	<polygon clip-path="url(#SVGID_5_)" fill="#F1F2F2" points="70.076,0 153.527,211.553 -101.741,144.678 	"/>
	<polygon clip-path="url(#SVGID_5_)" fill="#E6E7E8" points="70.076,0 153.527,211.553 354.455,-27.449 	"/>
	<polygon clip-path="url(#SVGID_5_)" fill="#D1D3D4" points="354.455,-27.449 153.527,211.553 420.076,177.678 	"/>
	<polygon clip-path="url(#SVGID_5_)" fill="#F1F2F2" points="354.455,-27.449 420.076,177.678 534.076,-27.449 	"/>
	<polygon clip-path="url(#SVGID_5_)" fill="#E6E7E8" points="534.076,-27.449 420.076,177.678 624.449,75.295 	"/>
</g>
<g opacity="0.1">
	<defs>
		<path id="SVGID_24_" opacity="0.1" d="M551.19-14.727c-31.515,3.369-63.218,3.381-95.498-5.043
			c-84.531-22.059-156.318-58.832-246.555-55.637c-34.396,1.219-131.65,22.584-209.25,20.178l-0.002-40.736
			c78.874-11.057,154.982-44.096,238.107-49.758c52.846-3.602,106.513,27.627,151.994,50.506
			c54.001,27.162,92.821,40.176,153.393,43.568c2.679,0.15,5.358,0.301,8.039,0.451L551.19-14.727z"/>
	</defs>
	<clipPath id="SVGID_7_">
		<use xlink:href="#SVGID_24_"  overflow="visible"/>
	</clipPath>
	<polygon clip-path="url(#SVGID_7_)" fill="#F1F2F2" points="481.114,-146.008 397.663,65.543 652.932,-1.33 	"/>
	<polygon clip-path="url(#SVGID_7_)" fill="#E6E7E8" points="481.114,-146.008 397.663,65.543 196.735,-173.457 	"/>
	<polygon clip-path="url(#SVGID_7_)" fill="#D1D3D4" points="196.735,-173.457 397.663,65.543 131.114,31.67 	"/>
	<polygon clip-path="url(#SVGID_7_)" fill="#F1F2F2" points="196.735,-173.457 131.114,31.67 17.114,-173.457 	"/>
	<polygon clip-path="url(#SVGID_7_)" fill="#E6E7E8" points="17.114,-173.457 131.114,31.67 -73.259,-70.713 	"/>
</g>
<g>
	<defs>
		<rect id="SVGID_28_" x="687.011" y="-253.883" width="1044.104" height="571.891"/>
	</defs>
	<clipPath id="SVGID_9_">
		<use xlink:href="#SVGID_28_"  overflow="visible"/>
	</clipPath>
	<path opacity="0.5" clip-path="url(#SVGID_9_)" fill="#DFF3FD" d="M1293.317,161.215c1.273,0,2.542-0.008,3.811-0.023
		c49.309-0.613,93.57-13.281,131.555-37.648c42.299-27.713,69.785-58.375,66.561-118.023l-0.016-0.205
		c-2.364-23.646-11.901-65.699-49.203-81.686c-2.283-0.977-4.93,0.078-5.908,2.363c-0.979,2.285,0.079,4.93,2.363,5.91
		c33.004,14.143,41.6,52.516,43.782,74.205c2.967,55.473-21.707,83.174-62.475,109.885c-87.016,55.82-189.415,37.084-259.988,11.531
		c-79.4-28.355-136.223-97.678-191.175-164.717c-17.062-20.814-33.178-40.477-50.011-59.061
		c-51.141-57.436-116.101-100.909-182.886-122.382c-75.188-24.176-150.181-20.077-216.872,11.85
		c-2.241,1.072-3.188,3.76-2.115,6.002c1.072,2.241,3.76,3.188,6.002,2.115c141.731-67.85,297.588,5.568,389.176,108.429
		c16.708,18.449,32.756,38.025,49.745,58.752c55.73,67.988,113.357,138.291,195.09,167.482
		C1206.989,152.734,1251.571,161.215,1293.317,161.215z"/>
	<path opacity="0.5" clip-path="url(#SVGID_9_)" fill="#DFF3FD" d="M1207.263,273.749c0.115,0,0.233-0.014,0.351-0.041
		c0.806-0.193,1.303-1.004,1.109-1.809c-6.98-29.086-31.337-64.65-72.395-105.705c-22.566-23.979-51.476-44.775-85.892-61.781
		c-29.943-14.797-63.362-26.443-99.327-34.617C922.691,63.2,893.058,57.88,864.4,52.735
		c-56.332-10.113-114.581-20.57-168.066-41.371C636.461-11.444,553.996-59.919,518.6-121.479c-0.415-0.719-1.329-0.965-2.049-0.553
		c-0.718,0.414-0.965,1.33-0.553,2.049C551.789-57.739,634.933-8.817,695.256,14.163C749.003,35.065,807.398,45.55,863.87,55.687
		c28.621,5.139,58.217,10.453,86.568,17.033c54.438,12.373,130.496,38.994,183.736,95.562
		c40.692,40.691,64.781,75.777,71.63,104.316C1205.97,273.286,1206.585,273.749,1207.263,273.749z"/>
	<path opacity="0.5" clip-path="url(#SVGID_9_)" fill="#DFF3FD" d="M983.667,366.244c0.262,0,0.482-0.205,0.498-0.471
		c2.638-44.184-18.566-82.244-63.022-113.123c-37.524-26.062-84.153-42.619-124.817-55.375
		c-45.532-13.939-91.467-18.779-135.889-23.461c-27.578-2.906-56.095-5.91-84.661-11.053c-43.137-9.74-81.832-41.357-106.143-86.74
		c-0.13-0.244-0.435-0.334-0.677-0.203c-0.243,0.129-0.335,0.432-0.204,0.676c24.447,45.639,63.384,77.438,106.824,87.246
		c28.625,5.154,57.16,8.16,84.755,11.068c44.376,4.678,90.262,9.512,135.698,23.422c90.095,28.264,192.788,72.844,187.138,167.482
		c-0.017,0.277,0.193,0.514,0.47,0.529C983.646,366.244,983.656,366.244,983.667,366.244z"/>
</g>
</svg>
