<?xml version="1.0" encoding="utf-8"?>
<!-- Generator: Adobe Illustrator 16.0.0, SVG Export Plug-In . SVG Version: 6.00 Build 0)  -->
<!DOCTYPE svg PUBLIC "-//W3C//DTD SVG 1.1//EN" "http://www.w3.org/Graphics/SVG/1.1/DTD/svg11.dtd">
<svg version="1.1" id="Layer_1" xmlns="http://www.w3.org/2000/svg" xmlns:xlink="http://www.w3.org/1999/xlink" x="0px" y="0px"
	 width="2048px" height="2048px" viewBox="0 0 2048 2048" enable-background="new 0 0 2048 2048" xml:space="preserve">
<g id="Sun">
	<defs>
		<path id="SVGID_1_" d="M1731.12,1733.084c-390.521,391.604-1023.702,391.604-1414.233-0.018
			c-390.521-391.607-390.521-1026.522,0-1418.155C707.418-76.691,1340.568-76.691,1731.12,314.96
			C2121.615,706.515,2121.65,1341.459,1731.12,1733.084z"/>
	</defs>
	<use xlink:href="#SVGID_1_"  overflow="visible" fill="#F5B81C"/>
	<clipPath id="SVGID_2_">
		<use xlink:href="#SVGID_1_"  overflow="visible"/>
	</clipPath>
	<polygon clip-path="url(#SVGID_2_)" fill="#904920" points="1799.111,1825.697 2007.586,1353.613 1927.927,1242.045 	"/>
	<polygon clip-path="url(#SVGID_2_)" fill="#FBCE2C" points="1382.08,-1.099 1175.414,340.468 567.906,641.962 276.033,247.011 	"/>
	<polygon clip-path="url(#SVGID_2_)" fill="#F3981F" points="1477.456,1467.234 740.915,2070.42 324.81,1116.685 	"/>
	<polygon clip-path="url(#SVGID_2_)" fill="#A34F24" points="1662.442,1678.131 1477.456,1467.234 740.915,2070.42 	"/>
	<polygon clip-path="url(#SVGID_2_)" fill="#E27E26" points="1478.923,1477.313 1159.508,281.131 1410.833,409.755 
		1609.506,509.727 2096.7,758.625 	"/>
	<polygon clip-path="url(#SVGID_2_)" fill="#ECA821" points="1159.508,281.131 1477.456,1467.234 324.81,1116.685 	"/>
	<polygon clip-path="url(#SVGID_2_)" fill="#F09121" points="2083.085,750.302 1366.566,-2.943 1159.508,281.131 1401.61,428.343 
		1609.506,509.727 	"/>
	<polygon clip-path="url(#SVGID_2_)" fill="#DC7427" points="2093.109,750.302 1956.559,1311.796 1662.442,1678.131 
		1477.456,1467.234 	"/>
	<polygon clip-path="url(#SVGID_2_)" fill="#A34E24" points="740.915,2070.42 232.8,1738.324 -78.847,1126.281 324.81,1116.685 	"/>
	<polygon clip-path="url(#SVGID_2_)" fill="#FCDB43" points="1159.508,281.131 327.682,1123.029 245.119,821.781 199.368,666.215 
		276.033,247.011 554.214,259.031 	"/>
	<polygon clip-path="url(#SVGID_2_)" fill="#FAB719" points="327.682,1123.029 -78.847,1126.281 276.033,247.011 202.147,666.37 
		250.083,818.809 	"/>
	<polygon clip-path="url(#SVGID_2_)" fill="#D95B26" points="1380.113,-3.538 1818.67,316.616 1609.506,509.727 	"/>
	<polygon clip-path="url(#SVGID_2_)" fill="#E37D25" points="1818.67,316.616 2098.771,764.183 1609.506,509.727 	"/>
	<polygon clip-path="url(#SVGID_2_)" fill="#EA7D24" points="232.8,1738.324 329.992,1122.673 -79.685,1126.204 	"/>
	<polygon clip-path="url(#SVGID_2_)" fill="#FFC541" points="1159.508,281.131 870.6,743.296 802.919,533.387 	"/>
	<polygon clip-path="url(#SVGID_2_)" fill="#ECA92A" points="1891.188,984.976 1614.164,916.423 1503.353,924.908 
		1477.456,1467.234 	"/>
	<polygon clip-path="url(#SVGID_2_)" fill="#E06926" points="2098.6,753.757 1891.188,984.976 1614.164,916.423 	"/>
	<polygon clip-path="url(#SVGID_2_)" fill="#D96D27" points="1891.188,984.976 1838.291,1220.925 1477.456,1467.234 	"/>
	<polygon clip-path="url(#SVGID_2_)" fill="#974021" points="2101.782,748.736 2007.586,1353.613 1838.291,1220.925 	"/>
	<polygon clip-path="url(#SVGID_2_)" fill="#A34F24" points="1662.442,1678.131 1798.019,1829.973 1956.559,1311.796 	"/>
	<polygon clip-path="url(#SVGID_2_)" fill="#9B4722" points="1799.111,1825.697 1284.645,2045.398 1334.792,1867.783 	"/>
	<polygon clip-path="url(#SVGID_2_)" fill="#B45026" points="693.172,2074.127 1289.163,2045.418 1334.792,1867.783 	"/>
	<polygon clip-path="url(#SVGID_2_)" fill="#FED730" points="276.033,247.011 554.214,259.031 433.773,313.472 266.671,359.979 	"/>
	<polygon clip-path="url(#SVGID_2_)" fill="#FDB61A" points="276.033,247.011 734.707,11.927 900.079,149.868 	"/>
	<polygon clip-path="url(#SVGID_2_)" fill="#FCD031" points="900.079,149.868 554.214,259.031 276.033,247.011 	"/>
	<polygon clip-path="url(#SVGID_2_)" fill="#F9BF50" points="276.033,247.011 165.026,342.434 210.846,404.924 	"/>
	<polygon clip-path="url(#SVGID_2_)" fill="#F7C22E" points="1393.271,-0.851 900.079,149.868 734.707,11.927 	"/>
	<polygon clip-path="url(#SVGID_2_)" fill="#EFC276" points="266.671,359.979 74.857,571.935 165.026,342.434 	"/>
	<polygon clip-path="url(#SVGID_2_)" fill="#FFF3B3" points="-79.685,1126.204 74.857,571.935 118.369,636.674 	"/>
	<polygon clip-path="url(#SVGID_2_)" fill="#FDDA32" points="266.671,359.979 301.359,518.986 74.857,571.935 	"/>
	<polygon clip-path="url(#SVGID_2_)" fill="#F5A31D" points="327.682,1123.029 637.27,1212.668 469.095,1052.428 	"/>
	<polygon clip-path="url(#SVGID_2_)" fill="#EE8E22" points="637.27,1212.668 553.933,1642.769 327.682,1123.029 	"/>
	<polygon clip-path="url(#SVGID_2_)" fill="#EE9C21" points="740.915,2070.42 502.407,1641.364 327.682,1123.029 	"/>
	<polygon clip-path="url(#SVGID_2_)" fill="#E38B25" points="1662.442,1678.131 1236.081,1663.93 1477.456,1467.234 	"/>
	<polygon clip-path="url(#SVGID_2_)" fill="#E07926" points="1477.456,1467.234 1334.792,1867.783 736.39,2072.125 	"/>
	<polygon clip-path="url(#SVGID_2_)" fill="#F9C434" points="232.8,1738.324 502.407,1641.364 327.682,1123.029 	"/>
	<polygon clip-path="url(#SVGID_2_)" fill="#E98B24" points="1040.047,1334.206 736.39,2072.125 1477.456,1467.234 	"/>
	<polygon clip-path="url(#SVGID_2_)" fill="#FEECE0" points="202.147,666.37 54.924,632.143 77.1,568.274 193.129,514.888 
		261.092,561.457 	"/>
	<polygon clip-path="url(#SVGID_2_)" fill="#FDD323" points="261.092,561.457 193.129,514.888 301.359,518.986 429.482,500.909 	"/>
	<polygon clip-path="url(#SVGID_2_)" fill="#FDD97C" points="646.534,457.232 548.315,483.676 597.097,600.38 683.122,468.663 	"/>
	<polygon clip-path="url(#SVGID_2_)" fill="#904920" points="567.906,641.962 544.324,799.608 722.824,886.273 	"/>
	<polygon clip-path="url(#SVGID_2_)" fill="#FAD03A" points="544.324,799.608 465.981,877.029 722.824,886.273 	"/>
	<polygon clip-path="url(#SVGID_2_)" fill="#FCD71F" points="802.919,533.387 870.6,743.296 722.824,886.273 567.906,641.962 
		597.097,600.38 683.122,468.663 	"/>
	<polygon clip-path="url(#SVGID_2_)" fill="#FEE233" points="429.482,500.909 202.147,666.37 261.092,561.457 	"/>
	<polygon clip-path="url(#SVGID_2_)" fill="#F4B31B" points="631.787,1211.117 469.095,1052.428 465.981,877.029 722.824,886.273 
		796.774,900.987 718.831,1039.698 	"/>
	<polygon clip-path="url(#SVGID_2_)" fill="#F7C529" points="796.774,900.987 870.6,743.296 1016.848,821.064 	"/>
	<polygon clip-path="url(#SVGID_2_)" fill="#EA9E22" points="1477.456,1467.234 1198.653,1006.385 1349.483,779.466 
		1515.478,867.194 	"/>
	<polygon clip-path="url(#SVGID_2_)" fill="#FACA27" points="1016.848,821.064 718.831,1039.698 796.774,900.987 	"/>
	<polygon clip-path="url(#SVGID_2_)" fill="#FCCF1E" points="683.122,468.663 1159.508,281.131 802.919,533.387 	"/>
	<polygon clip-path="url(#SVGID_2_)" fill="#FBCC1E" points="646.534,457.232 554.214,259.031 1159.508,281.131 683.122,468.663 	
		"/>
	<polygon clip-path="url(#SVGID_2_)" fill="#FCCB28" points="429.482,500.909 433.773,313.472 266.671,359.979 301.359,518.986 	"/>
	<polygon clip-path="url(#SVGID_2_)" fill="#EFA120" points="1238.8,945.986 1614.164,916.423 1401.61,428.343 	"/>
	<polygon clip-path="url(#SVGID_2_)" fill="#F5B81C" points="1401.61,428.343 870.6,743.296 1016.848,821.064 1238.8,945.986 	"/>
	<polygon clip-path="url(#SVGID_2_)" fill="#F3BA27" points="1172.956,799.139 1238.8,945.986 1198.653,1006.385 1016.848,821.064 	
		"/>
	<polygon clip-path="url(#SVGID_2_)" fill="#F0B11D" points="1238.8,945.986 1172.956,799.139 1401.61,428.343 	"/>
	<polygon clip-path="url(#SVGID_2_)" fill="#9E4422" points="1614.164,916.423 1609.506,509.727 1836.13,624.851 	"/>
	<polygon clip-path="url(#SVGID_2_)" fill="#EFA520" points="1198.653,1006.385 1040.047,1334.206 1016.848,821.064 	"/>
	<polygon clip-path="url(#SVGID_2_)" fill="#F5B71C" points="718.831,1039.698 631.787,1211.117 1040.047,1334.206 	"/>
	<polygon clip-path="url(#SVGID_2_)" fill="#FCD679" points="465.981,877.029 327.682,1123.029 469.095,1052.428 	"/>
	<polygon clip-path="url(#SVGID_2_)" fill="#DB9529" points="544.324,799.608 202.147,666.37 465.981,877.029 	"/>
	<polygon clip-path="url(#SVGID_2_)" fill="#FCD22A" points="202.147,666.37 567.906,641.962 597.097,600.38 548.315,483.676 
		429.482,500.909 	"/>
	<polygon clip-path="url(#SVGID_2_)" fill="#E58124" points="553.933,1642.769 1040.047,1334.206 737.297,2094.064 	"/>
</g>
</svg>
