<?xml version="1.0" encoding="utf-8"?>
<!-- Generator: Adobe Illustrator 16.0.0, SVG Export Plug-In . SVG Version: 6.00 Build 0)  -->
<!DOCTYPE svg PUBLIC "-//W3C//DTD SVG 1.1//EN" "http://www.w3.org/Graphics/SVG/1.1/DTD/svg11.dtd">
<svg version="1.1" id="Layer_1" xmlns="http://www.w3.org/2000/svg" xmlns:xlink="http://www.w3.org/1999/xlink" x="0px" y="0px"
	 width="256px" height="256px" viewBox="0 0 256 256" enable-background="new 0 0 256 256" xml:space="preserve">
<g id="asteroid_x5F_a">
	<polygon fill="#47394A" points="147.07,25.753 80.058,75.036 79.785,75.518 79.579,75.67 79.688,75.691 39.787,146.139 
		9.156,200.225 74.576,236.491 138.209,238.065 229.222,121.064 239.906,108.057 239.418,107.956 239.648,107.66 206.583,50.258 
		198.047,16.233 178.499,1.365 	"/>
	<polygon fill="#47394A" points="76.828,183.854 9.156,200.225 74.576,236.491 	"/>
	<path fill="#48452C" d="M8.827,202.146"/>
	<g>
		<g>
			<path fill="#0D152E" d="M188.765,50.056c0.857,0,2.002-1.303,0.695-1.303C188.603,48.753,187.458,50.056,188.765,50.056
				L188.765,50.056z"/>
		</g>
	</g>
	<polygon fill="#111526" points="79.579,75.67 239.164,108.291 178.479,2.935 	"/>
	<polygon fill="#6D5F71" points="138.209,238.065 105.873,150.76 80.058,75.036 39.787,146.139 9.156,200.225 	"/>
	<polygon fill="#47394A" points="80.058,75.036 105.873,150.76 138.209,238.065 239.648,107.66 	"/>
	<g>
		<g>
			<path fill="#0D152E" d="M189.252,49.42c0.857,0,2.002-1.303,0.695-1.303C189.09,48.117,187.945,49.42,189.252,49.42
				L189.252,49.42z"/>
		</g>
	</g>
	<polygon fill="#9B9198" points="80.058,75.036 239.648,107.66 206.583,50.258 178.959,2.301 147.07,25.753 	"/>
	<polygon fill="#3F374A" points="80.058,75.036 150.881,107.828 239.906,108.057 	"/>
	<polygon fill="#47394A" points="50.412,213.187 105.873,150.76 138.209,238.065 	"/>
	<polygon fill="#47394A" points="9.156,200.225 50.412,213.187 76.828,183.854 	"/>
	<polygon fill="#3F374A" points="76.828,183.854 39.787,146.139 9.156,200.225 	"/>
	<polygon fill="#524655" points="76.828,183.854 82.31,192.467 50.412,213.187 	"/>
	<polygon fill="#47394A" points="82.31,192.467 114.398,223.072 138.209,238.065 50.412,213.187 	"/>
	<polygon fill="#6D5F71" points="82.31,192.467 115.949,180.832 76.828,183.854 	"/>
	<polygon fill="#524655" points="82.31,192.467 115.949,180.832 114.398,223.072 	"/>
	<polygon fill="#3F374A" points="50.412,213.187 74.576,236.491 138.209,238.065 	"/>
	<polygon fill="#9B9198" points="178.499,1.365 147.07,25.753 187.167,18.308 	"/>
	<polygon fill="#817188" points="187.167,18.308 198.047,16.233 178.499,1.365 	"/>
	<polygon fill="#524655" points="147.07,25.753 206.583,50.258 187.167,18.308 	"/>
	<polygon fill="#6D5F71" points="187.167,18.308 198.047,16.233 206.583,50.258 	"/>
	<polygon fill="#3F374A" points="239.906,108.057 211.279,142.905 219.048,107.511 	"/>
	<polygon fill="#524655" points="150.881,107.828 138.209,238.065 105.873,150.76 	"/>
	<polygon fill="#524655" points="219.048,107.511 211.279,142.905 150.881,107.828 	"/>
</g>
<g>
	<defs>
		<path id="SVGID_1_" d="M458.705,10.042c-65.145-22.484-136.184,12.103-158.666,77.251
			c-22.479,65.148,12.108,136.186,77.254,158.666c65.149,22.483,136.186-12.106,158.666-77.252
			C558.441,103.558,523.853,32.52,458.705,10.042z M430.956,132.471c-2.47,7.157-10.272,10.957-17.427,8.486
			c-7.158-2.47-10.958-10.272-8.487-17.429c2.47-7.157,10.272-10.956,17.429-8.486C429.627,117.511,433.425,125.316,430.956,132.471
			z"/>
	</defs>
	<use xlink:href="#SVGID_1_"  overflow="visible" fill="#F09121"/>
	<clipPath id="SVGID_2_">
		<use xlink:href="#SVGID_1_"  overflow="visible"/>
	</clipPath>
	<path opacity="0.3" clip-path="url(#SVGID_2_)" fill="#FFFFFF" d="M295.019,201.333c0,0,173.706-191.495,378.699-181.853
		c0,0-275.944-22.229-405.602,86.308C138.461,214.323,295.019,201.333,295.019,201.333z"/>
</g>
</svg>
