<?xml version="1.0" encoding="utf-8"?>
<!-- Generator: Adobe Illustrator 16.0.0, SVG Export Plug-In . SVG Version: 6.00 Build 0)  -->
<!DOCTYPE svg PUBLIC "-//W3C//DTD SVG 1.1//EN" "http://www.w3.org/Graphics/SVG/1.1/DTD/svg11.dtd">
<svg version="1.1" id="Layer_1" xmlns="http://www.w3.org/2000/svg" xmlns:xlink="http://www.w3.org/1999/xlink" x="0px" y="0px"
	 width="2022.001px" height="2007.725px" viewBox="0 0 2022.001 2007.725" enable-background="new 0 0 2022.001 2007.725"
	 xml:space="preserve">
<g id="Sun">
	<defs>
		<path id="SVGID_33_" d="M1716.248,1711.868c-390.521,391.604-1023.702,391.604-1414.233-0.018
			c-390.521-391.607-390.521-1026.521,0-1418.155c390.531-391.602,1023.681-391.602,1414.233,0.049
			C2106.742,685.3,2106.777,1320.243,1716.248,1711.868z"/>
	</defs>
	<use xlink:href="#SVGID_33_"  overflow="visible" fill="#F5B81C"/>
	<clipPath id="SVGID_2_">
		<use xlink:href="#SVGID_33_"  overflow="visible"/>
	</clipPath>
	<polygon clip-path="url(#SVGID_2_)" fill="#904920" points="1784.238,1804.481 1992.713,1332.397 1913.055,1220.829 	"/>
	<polygon clip-path="url(#SVGID_2_)" fill="#FBCE2C" points="1367.207,-22.314 1160.541,319.253 553.033,620.746 261.161,225.796 	
		"/>
	<polygon clip-path="url(#SVGID_2_)" fill="#F3981F" points="1462.584,1446.019 726.042,2049.204 309.938,1095.468 	"/>
	<polygon clip-path="url(#SVGID_2_)" fill="#A34F24" points="1647.57,1656.915 1462.584,1446.019 726.042,2049.204 	"/>
	<polygon clip-path="url(#SVGID_2_)" fill="#E27E26" points="1464.051,1456.099 1144.635,259.915 1395.961,388.54 1594.633,488.511 
		2081.828,737.409 	"/>
	<polygon clip-path="url(#SVGID_2_)" fill="#ECA821" points="1144.635,259.915 1462.584,1446.019 309.938,1095.468 	"/>
	<polygon clip-path="url(#SVGID_2_)" fill="#F09121" points="2068.213,729.086 1351.693,-24.159 1144.635,259.915 1386.738,407.127 
		1594.633,488.511 	"/>
	<polygon clip-path="url(#SVGID_2_)" fill="#DC7427" points="2078.236,729.086 1941.686,1290.579 1647.57,1656.915 
		1462.584,1446.019 	"/>
	<polygon clip-path="url(#SVGID_2_)" fill="#A34E24" points="726.042,2049.204 217.928,1717.108 -93.719,1105.065 309.938,1095.468 
			"/>
	<polygon clip-path="url(#SVGID_2_)" fill="#FCDB43" points="1144.635,259.915 312.81,1101.813 230.246,800.565 184.496,644.999 
		261.161,225.796 539.342,237.815 	"/>
	<polygon clip-path="url(#SVGID_2_)" fill="#FAB719" points="312.81,1101.813 -93.719,1105.065 261.161,225.796 187.274,645.154 
		235.21,797.594 	"/>
	<polygon clip-path="url(#SVGID_2_)" fill="#D95B26" points="1365.24,-24.753 1803.797,295.4 1594.633,488.511 	"/>
	<polygon clip-path="url(#SVGID_2_)" fill="#E37D25" points="1803.797,295.4 2083.898,742.967 1594.633,488.511 	"/>
	<polygon clip-path="url(#SVGID_2_)" fill="#EA7D24" points="217.928,1717.108 315.12,1101.456 -94.557,1104.987 	"/>
	<polygon clip-path="url(#SVGID_2_)" fill="#FFC541" points="1144.635,259.915 855.728,722.08 788.047,512.171 	"/>
	<polygon clip-path="url(#SVGID_2_)" fill="#ECA92A" points="1876.316,963.76 1599.291,895.207 1488.48,903.692 1462.584,1446.019 	
		"/>
	<polygon clip-path="url(#SVGID_2_)" fill="#E06926" points="2083.727,732.542 1876.316,963.76 1599.291,895.207 	"/>
	<polygon clip-path="url(#SVGID_2_)" fill="#D96D27" points="1876.316,963.76 1823.418,1199.708 1462.584,1446.019 	"/>
	<polygon clip-path="url(#SVGID_2_)" fill="#974021" points="2086.91,727.521 1992.713,1332.397 1823.418,1199.708 	"/>
	<polygon clip-path="url(#SVGID_2_)" fill="#A34F24" points="1647.57,1656.915 1783.146,1808.757 1941.686,1290.579 	"/>
	<polygon clip-path="url(#SVGID_2_)" fill="#9B4722" points="1784.238,1804.481 1269.771,2024.183 1319.92,1846.567 	"/>
	<polygon clip-path="url(#SVGID_2_)" fill="#B45026" points="678.3,2052.911 1274.291,2024.202 1319.92,1846.567 	"/>
	<polygon clip-path="url(#SVGID_2_)" fill="#FED730" points="261.161,225.796 539.342,237.815 418.901,292.257 251.799,338.764 	"/>
	<polygon clip-path="url(#SVGID_2_)" fill="#FDB61A" points="261.161,225.796 719.834,-9.289 885.207,128.652 	"/>
	<polygon clip-path="url(#SVGID_2_)" fill="#FCD031" points="885.207,128.652 539.342,237.815 261.161,225.796 	"/>
	<polygon clip-path="url(#SVGID_2_)" fill="#F9BF50" points="261.161,225.796 150.154,321.219 195.974,383.708 	"/>
	<polygon clip-path="url(#SVGID_2_)" fill="#F7C22E" points="1378.398,-22.066 885.207,128.652 719.834,-9.289 	"/>
	<polygon clip-path="url(#SVGID_2_)" fill="#EFC276" points="251.799,338.764 59.985,550.72 150.154,321.219 	"/>
	<polygon clip-path="url(#SVGID_2_)" fill="#FFF3B3" points="-94.557,1104.987 59.985,550.72 103.497,615.459 	"/>
	<polygon clip-path="url(#SVGID_2_)" fill="#FDDA32" points="251.799,338.764 286.486,497.771 59.985,550.72 	"/>
	<polygon clip-path="url(#SVGID_2_)" fill="#F5A31D" points="312.81,1101.813 622.397,1191.452 454.223,1031.212 	"/>
	<polygon clip-path="url(#SVGID_2_)" fill="#EE8E22" points="622.397,1191.452 539.061,1621.554 312.81,1101.813 	"/>
	<polygon clip-path="url(#SVGID_2_)" fill="#EE9C21" points="726.042,2049.204 487.535,1620.149 312.81,1101.813 	"/>
	<polygon clip-path="url(#SVGID_2_)" fill="#E38B25" points="1647.57,1656.915 1221.209,1642.714 1462.584,1446.019 	"/>
	<polygon clip-path="url(#SVGID_2_)" fill="#E07926" points="1462.584,1446.019 1319.92,1846.567 721.518,2050.909 	"/>
	<polygon clip-path="url(#SVGID_2_)" fill="#F9C434" points="217.928,1717.108 487.535,1620.149 312.81,1101.813 	"/>
	<polygon clip-path="url(#SVGID_2_)" fill="#E98B24" points="1025.174,1312.991 721.518,2050.909 1462.584,1446.019 	"/>
	<polygon clip-path="url(#SVGID_2_)" fill="#FEECE0" points="187.274,645.154 40.052,610.927 62.228,547.059 178.257,493.673 
		246.22,540.241 	"/>
	<polygon clip-path="url(#SVGID_2_)" fill="#FDD323" points="246.22,540.241 178.257,493.673 286.486,497.771 414.61,479.693 	"/>
	<polygon clip-path="url(#SVGID_2_)" fill="#FDD97C" points="631.662,436.017 533.442,462.46 582.225,579.165 668.25,447.447 	"/>
	<polygon clip-path="url(#SVGID_2_)" fill="#904920" points="553.033,620.746 529.451,778.393 707.951,865.058 	"/>
	<polygon clip-path="url(#SVGID_2_)" fill="#FAD03A" points="529.451,778.393 451.108,855.813 707.951,865.058 	"/>
	<polygon clip-path="url(#SVGID_2_)" fill="#FCD71F" points="788.047,512.171 855.728,722.08 707.951,865.058 553.033,620.746 
		582.225,579.165 668.25,447.447 	"/>
	<polygon clip-path="url(#SVGID_2_)" fill="#FEE233" points="414.61,479.693 187.274,645.154 246.22,540.241 	"/>
	<polygon clip-path="url(#SVGID_2_)" fill="#F4B31B" points="616.914,1189.901 454.223,1031.212 451.108,855.813 707.951,865.058 
		781.901,879.771 703.958,1018.482 	"/>
	<polygon clip-path="url(#SVGID_2_)" fill="#F7C529" points="781.901,879.771 855.728,722.08 1001.976,799.849 	"/>
	<polygon clip-path="url(#SVGID_2_)" fill="#EA9E22" points="1462.584,1446.019 1183.781,985.169 1334.611,758.25 1500.605,845.979 
			"/>
	<polygon clip-path="url(#SVGID_2_)" fill="#FACA27" points="1001.976,799.849 703.958,1018.482 781.901,879.771 	"/>
	<polygon clip-path="url(#SVGID_2_)" fill="#FCCF1E" points="668.25,447.447 1144.635,259.915 788.047,512.171 	"/>
	<polygon clip-path="url(#SVGID_2_)" fill="#FBCC1E" points="631.662,436.017 539.342,237.815 1144.635,259.915 668.25,447.447 	"/>
	<polygon clip-path="url(#SVGID_2_)" fill="#FCCB28" points="414.61,479.693 418.901,292.257 251.799,338.764 286.486,497.771 	"/>
	<polygon clip-path="url(#SVGID_2_)" fill="#EFA120" points="1223.928,924.771 1599.291,895.207 1386.738,407.127 	"/>
	<polygon clip-path="url(#SVGID_2_)" fill="#F5B81C" points="1386.738,407.127 855.728,722.08 1001.976,799.849 1223.928,924.771 	
		"/>
	<polygon clip-path="url(#SVGID_2_)" fill="#F3BA27" points="1158.084,777.924 1223.928,924.771 1183.781,985.169 1001.976,799.849 
			"/>
	<polygon clip-path="url(#SVGID_2_)" fill="#F0B11D" points="1223.928,924.771 1158.084,777.924 1386.738,407.127 	"/>
	<polygon clip-path="url(#SVGID_2_)" fill="#9E4422" points="1599.291,895.207 1594.633,488.511 1821.258,603.635 	"/>
	<polygon clip-path="url(#SVGID_2_)" fill="#EFA520" points="1183.781,985.169 1025.174,1312.991 1001.976,799.849 	"/>
	<polygon clip-path="url(#SVGID_2_)" fill="#F5B71C" points="703.958,1018.482 616.914,1189.901 1025.174,1312.991 	"/>
	<polygon clip-path="url(#SVGID_2_)" fill="#FCD679" points="451.108,855.813 312.81,1101.813 454.223,1031.212 	"/>
	<polygon clip-path="url(#SVGID_2_)" fill="#DB9529" points="529.451,778.393 187.274,645.154 451.108,855.813 	"/>
	<polygon clip-path="url(#SVGID_2_)" fill="#FCD22A" points="187.274,645.154 553.033,620.746 582.225,579.165 533.442,462.46 
		414.61,479.693 	"/>
	<polygon clip-path="url(#SVGID_2_)" fill="#E58124" points="539.061,1621.554 1025.174,1312.991 722.425,2072.849 	"/>
</g>
</svg>
