<?xml version="1.0" encoding="utf-8"?>
<!-- Generator: Adobe Illustrator 16.0.0, SVG Export Plug-In . SVG Version: 6.00 Build 0)  -->
<!DOCTYPE svg PUBLIC "-//W3C//DTD SVG 1.1//EN" "http://www.w3.org/Graphics/SVG/1.1/DTD/svg11.dtd">
<svg version="1.1" id="Layer_1" xmlns="http://www.w3.org/2000/svg" xmlns:xlink="http://www.w3.org/1999/xlink" x="0px" y="0px"
	 width="256px" height="256px" viewBox="0 0 256 256" enable-background="new 0 0 256 256" xml:space="preserve">
<g id="Sun">
	<defs>
		<path id="SVGID_1_" d="M-341.88,1156.084c-390.521,391.604-1023.702,391.604-1414.233-0.018
			c-390.521-391.607-390.521-1026.522,0-1418.155c390.532-391.602,1023.682-391.602,1414.233,0.049
			C48.615,129.515,48.65,764.459-341.88,1156.084z"/>
	</defs>
	<use xlink:href="#SVGID_1_"  overflow="visible" fill="#F5B81C"/>
	<clipPath id="SVGID_2_">
		<use xlink:href="#SVGID_1_"  overflow="visible"/>
	</clipPath>
	<polygon clip-path="url(#SVGID_2_)" fill="#E27E26" points="-594.077,900.313 -913.492,-295.869 -662.167,-167.245 
		-463.494,-67.273 23.7,181.625 	"/>
	<polygon clip-path="url(#SVGID_2_)" fill="#F09121" points="10.085,173.302 -706.434,-579.943 -913.492,-295.869 -671.39,-148.657 
		-463.494,-67.273 	"/>
	<polygon clip-path="url(#SVGID_2_)" fill="#DC7427" points="20.109,173.302 -116.441,734.796 -410.558,1101.131 -595.544,890.234 	
		"/>
	<polygon clip-path="url(#SVGID_2_)" fill="#E37D25" points="-254.33,-260.384 25.771,187.183 -463.494,-67.273 	"/>
	<polygon clip-path="url(#SVGID_2_)" fill="#E06926" points="25.6,176.757 -181.812,407.976 -458.836,339.423 	"/>
	<polygon clip-path="url(#SVGID_2_)" fill="#974021" points="28.782,171.736 -65.414,776.613 -234.709,643.925 	"/>
</g>
<g id="asteroid_x5F_b">
	<polygon fill="#47394A" points="171.035,18.237 171.109,18.446 171.107,18.446 171.035,18.237 90.484,22.16 33.334,46.626 
		1.381,114.88 11.453,192.919 50.816,179.129 74.734,163.393 87.598,228.511 125.65,239.979 170.563,165.173 254.619,166.734 
		171.512,18.368 171.148,18.438 	"/>
	<path fill="#26322C" d="M171.033,19.048"/>
	<polygon fill="#817188" points="74.734,163.393 33.334,46.626 87.588,34.65 171.512,18.368 	"/>
	<polygon fill="#524655" points="11.453,192.919 50.816,179.129 74.734,163.393 33.334,46.626 	"/>
	<path fill="#26322C" d="M171.512,18.368"/>
	<polygon fill="#47394A" points="254.619,166.734 74.734,163.393 171.512,18.368 	"/>
	<polygon fill="#9B9198" points="254.619,166.734 202.412,108.102 171.035,18.237 	"/>
	<polygon fill="#3F374A" points="125.65,239.979 170.634,165.054 137.338,164.564 74.734,163.393 	"/>
	<polygon fill="#3F374A" points="146.674,204.419 136.316,201.697 125.65,239.979 	"/>
	<polygon fill="#47394A" points="136.316,201.697 100.135,185.838 74.734,163.393 125.65,239.979 	"/>
	<polygon fill="#524655" points="136.316,201.697 137.338,164.564 146.674,204.419 	"/>
	<polygon fill="#6D5F71" points="136.316,201.697 137.338,164.564 100.135,185.838 	"/>
	<polygon fill="#3F374A" points="125.65,239.979 87.598,228.511 74.734,163.393 	"/>
	<polygon fill="#47394A" points="11.453,192.919 1.381,114.88 24.469,128.206 	"/>
	<polygon fill="#9B9198" points="33.334,46.626 1.381,114.88 24.469,128.206 	"/>
	<polygon fill="#524655" points="171.035,18.237 145.185,57.747 178.174,38.806 	"/>
	<polygon fill="#6D5F71" points="145.185,57.747 87.588,34.65 171.035,18.237 	"/>
	<polygon fill="#9B9198" points="33.334,46.626 90.484,22.16 171.035,18.237 87.588,34.65 	"/>
	<polygon fill="#47394A" points="50.816,179.129 52.256,136.129 74.734,163.393 	"/>
	<polygon fill="#3F374A" points="24.469,128.206 50.816,179.129 11.453,192.919 	"/>
	<polygon fill="#3F374A" points="74.734,163.393 52.256,136.129 41.493,114.547 33.334,46.626 	"/>
	<polyline fill="#47394A" points="41.265,114.277 24.469,128.206 52.256,136.129 41.493,114.547 	"/>
	<polygon fill="#3F374A" points="202.412,108.102 74.734,163.393 137.338,164.564 170.634,165.054 	"/>
	<polygon fill="#817188" points="202.412,108.102 178.174,38.806 145.185,57.747 	"/>
</g>
</svg>
