<?xml version="1.0" encoding="utf-8"?>
<!-- Generator: Adobe Illustrator 16.0.0, SVG Export Plug-In . SVG Version: 6.00 Build 0)  -->
<!DOCTYPE svg PUBLIC "-//W3C//DTD SVG 1.1//EN" "http://www.w3.org/Graphics/SVG/1.1/DTD/svg11.dtd">
<svg version="1.1" id="Layer_1" xmlns="http://www.w3.org/2000/svg" xmlns:xlink="http://www.w3.org/1999/xlink" x="0px" y="0px"
	 width="1044.104px" height="571.891px" viewBox="0 0 1044.104 571.891" enable-background="new 0 0 1044.104 571.891"
	 xml:space="preserve">
<g opacity="0.4">
	<defs>
		<rect id="SVGID_62_" y="-608.685" opacity="0.4" width="1044.104" height="571.891"/>
	</defs>
	<clipPath id="SVGID_2_">
		<use xlink:href="#SVGID_62_"  overflow="visible"/>
	</clipPath>
	<path opacity="0.2" clip-path="url(#SVGID_2_)" fill="#F1F2F2" d="M748.377-178.486c0.016,0.261,0.233,0.469,0.499,0.469
		c85.335,0,191.668,79.002,264.001,110.335c43.695,18.928,90.966,17.651,135.388,22.333c27.578,2.906,56.095,5.91,84.661,11.053
		c43.137,9.74,81.832,41.357,106.143,86.74c0.13,0.244,0.435,0.334,0.677,0.203c0.243-0.129,0.335-0.432,0.204-0.676
		c-24.447-45.639-63.384-77.438-106.824-87.246c-28.625-5.154-57.16-8.16-84.755-11.068c-44.376-4.678-91.919-4.945-135.698-23.422
		c-93.796-39.585-168.986-109.175-263.794-109.251c-0.277-0.001-0.501,0.223-0.501,0.5
		C748.375-178.507,748.376-178.497,748.377-178.486z"/>
</g>
<g opacity="0.4">
	<defs>
		<rect id="SVGID_64_" opacity="0.4" width="1044.104" height="571.891"/>
	</defs>
	<clipPath id="SVGID_4_">
		<use xlink:href="#SVGID_64_"  overflow="visible"/>
	</clipPath>
	<path opacity="0.2" clip-path="url(#SVGID_4_)" fill="#F1F2F2" d="M646.296,233.423c1.234,0.314,2.462,0.636,3.687,0.964
		c47.629,12.774,87.391,35.983,118.179,68.979c34.142,37.303,53.202,73.804,35.344,130.808l-0.065,0.195
		c-8.133,22.329-27.762,60.723-67.857,67c-2.453,0.382-4.757-1.294-5.141-3.75c-0.385-2.456,1.294-4.758,3.75-5.143
		c35.475-5.553,53.283-40.613,60.756-61.091c16.577-53.021-0.489-85.959-33.396-121.912
		c-70.53-75.585-174.385-82.724-249.083-75.396c-83.944,7.863-156.129,61.001-225.938,112.389
		c-21.675,15.954-42.148,31.026-63.05,44.876c-63.744,43.023-137.43,69.104-207.449,73.413
		c-78.829,4.854-150.486-17.642-207.225-65.054c-1.906-1.593-2.16-4.431-0.566-6.338c1.592-1.907,4.431-2.16,6.338-0.567
		c120.579,100.758,289.742,68.114,403.9-8.935c20.747-13.751,41.133-28.756,62.716-44.644
		c70.798-52.115,144.005-106.004,230.415-114.102C560.548,220.315,605.844,223.11,646.296,233.423z"/>
	<path opacity="0.5" clip-path="url(#SVGID_4_)" fill="#F1F2F2" d="M832.984,360.998c1.28,0,2.044,1.516,1.767,2.768
		c-0.275,1.254-1.484,1.768-2.769,1.768c-104.494,0-124.994,169.857,64.506,169.857c43.503,0,80.035-4.038,123.236-15.628
		c13.413-3.598,26.082-6.998,38.729-9.73c38.714-8.709,79.026-7.408,113.488,3.668c38.799,12.469,69.015,36.734,87.383,70.176
		c0.617,1.123,0.206,2.535-0.918,3.152s-2.535,0.205-3.152-0.918c-39.035-71.066-126.468-87.141-195.802-71.543
		c-12.554,2.713-25.169,6.098-38.525,9.682c-43.812,11.754-81.657,17.142-126.439,17.142
		C709.488,541.391,711.488,360.998,832.984,360.998z"/>
	<path opacity="0.2" clip-path="url(#SVGID_4_)" fill="#F1F2F2" d="M555.828,44.259c-0.115,0-0.233,0.014-0.351,0.041
		c-0.806,0.193-1.303,1.004-1.109,1.809c6.98,29.086,31.337,64.65,72.395,105.705c22.566,23.979,51.476,44.775,85.892,61.781
		c29.943,14.797,63.362,26.443,99.327,34.617c28.418,6.596,58.052,11.916,86.709,17.061c56.332,10.113,114.581,20.57,168.066,41.371
		c59.873,22.809,142.338,71.283,177.734,132.844c0.415,0.719,1.329,0.965,2.049,0.553c0.718-0.414,0.965-1.33,0.553-2.049
		c-35.791-62.244-118.935-111.166-179.258-134.146c-53.747-20.902-112.143-31.387-168.614-41.523
		c-28.621-5.139-58.217-10.453-86.568-17.033c-54.438-12.373-130.496-38.994-183.736-95.562
		c-40.692-40.691-64.781-75.777-71.63-104.316C557.121,44.722,556.506,44.259,555.828,44.259z"/>
	<path opacity="0.5" clip-path="url(#SVGID_4_)" fill="#F1F2F2" d="M745.187,125.057c-0.529-0.58-0.83-1.366-0.775-2.211
		c0.108-1.652,1.537-2.907,3.189-2.799c13.612,0.887,41.415-7.654,53.384-13.154c45.802-21.064,78.649-57.511,129.216-69.654
		c67.445-17.045,139.049-8.862,200.19,1.392c1.636,0.274,2.736,1.822,2.463,3.455c-0.273,1.635-1.819,2.737-3.454,2.463
		c-60.528-10.151-131.359-18.265-197.763-1.484c-49.435,11.872-82.905,48.474-128.146,69.28
		c-12.005,5.518-42.584,14.584-56.281,13.69C746.401,125.982,745.689,125.615,745.187,125.057z"/>
	<path opacity="0.2" clip-path="url(#SVGID_4_)" fill="#F1F2F2" d="M314.037,105.864c-0.122-0.23-0.407-0.329-0.648-0.219
		c-77.587,35.53-207.158,7.973-285.969,9.601c-47.609,0.983-90.056,21.825-132.394,36.064c-26.284,8.84-53.462,17.981-81.576,25.199
		c-43.275,9.104-91.621-3.531-132.62-34.672c-0.219-0.168-0.533-0.123-0.699,0.097c-0.167,0.219-0.125,0.532,0.096,0.7
		c41.229,31.315,89.87,44.017,133.45,34.848c28.172-7.231,55.368-16.38,81.668-25.225c42.294-14.223,85.632-33.774,133.129-35.203
		c101.761-3.062,199.098,28.904,285.329-10.499c0.253-0.115,0.363-0.411,0.247-0.664
		C314.048,105.883,314.043,105.874,314.037,105.864z"/>
	<path opacity="0.4" clip-path="url(#SVGID_4_)" fill="#F1F2F2" d="M498.663,387.507c0.443,0.298,0.807,0.839,0.657,1.393
		c-17.373,64.521-119.608,162.395-292.396,37.646c-86.407-62.385-221.718-84.818-305.107-0.305
		c-0.583,0.588-1.533,0.596-2.122,0.014c-0.589-0.581-0.596-1.532-0.014-2.122c39.061-39.586,92.062-58.548,153.272-54.836
		c51.735,3.137,109.394,21.755,155.643,54.758c162.9,116.242,269.34,29.757,287.74-35.446c0.227-0.799,0.812-1.428,1.639-1.347
		C498.23,387.284,498.465,387.373,498.663,387.507z"/>
	<path opacity="0.5" clip-path="url(#SVGID_4_)" fill="#F1F2F2" d="M-397.231,114.944c-0.6-0.477-0.927-1.26-0.782-2.066
		c11.677-65.635,74.41-126.645,134.25-130.564c52.686-4.668,103.2,3.68,154.378,25.518c41.208,17.584,83.859,44.361,134.229,84.27
		c119.959,95.043,307.804,146.535,436.756,34.99c0.9-0.775,2.263-0.682,3.039,0.221c0.778,0.898,0.679,2.26-0.22,3.039
		c-60.403,52.246-138.427,73.389-225.634,61.145c-73.71-10.35-152.663-45.348-216.617-96.018
		C-56.937,32.802-146.287-23.767-263.433-13.39c-58.096,3.805-118.978,63.16-130.342,127.021c-0.207,1.172-1.325,1.951-2.496,1.742
		C-396.634,115.312-396.961,115.159-397.231,114.944z"/>
</g>
</svg>
