<?xml version="1.0" encoding="utf-8"?>
<!-- Generator: Adobe Illustrator 16.0.0, SVG Export Plug-In . SVG Version: 6.00 Build 0)  -->
<!DOCTYPE svg PUBLIC "-//W3C//DTD SVG 1.1//EN" "http://www.w3.org/Graphics/SVG/1.1/DTD/svg11.dtd">
<svg version="1.1" id="Layer_1" xmlns="http://www.w3.org/2000/svg" xmlns:xlink="http://www.w3.org/1999/xlink" x="0px" y="0px"
	 width="551.532px" height="242.703px" viewBox="0 0 551.532 242.703" enable-background="new 0 0 551.532 242.703"
	 xml:space="preserve">
<g opacity="0.1">
	<defs>
		<path id="SVGID_8_" opacity="0.1" d="M551.533-25.244c-36.621,8.583-80.203,12.209-132.069,8.696
			C179.739-32.786,156.87-116.116-0.003-101.651l0.005-148.943c73.056-20.831,173.172-47.081,287.805-2.518
			c120.421,46.813,200.421,52.683,263.722,42.627L551.533-25.244z"/>
	</defs>
	<clipPath id="SVGID_2_">
		<use xlink:href="#SVGID_8_"  overflow="visible"/>
	</clipPath>
	<polygon clip-path="url(#SVGID_2_)" fill="#F1F2F2" points="607.537,16.594 621.313,-295.068 436.572,-268.826 	"/>
	<polygon clip-path="url(#SVGID_2_)" fill="#D1D3D4" points="607.537,16.594 436.572,-268.826 201.309,2.962 	"/>
	<polygon clip-path="url(#SVGID_2_)" fill="#F1F2F2" points="201.309,2.962 436.572,-268.826 169.062,-295.068 	"/>
	<polygon clip-path="url(#SVGID_2_)" fill="#F1F2F2" points="201.309,2.962 169.062,-295.068 -27.564,-48.168 	"/>
</g>
<g opacity="0.1">
	<defs>
		<path id="SVGID_14_" opacity="0.1" d="M0.001,159.27c155.992,59.793,327.486,99.787,479.984,76.897
			c26.969-4.048,50.717-8.571,71.549-13.49L551.532,1.33c0,0-256.303,73.732-551.535,50.724L0.001,159.27z"/>
	</defs>
	<clipPath id="SVGID_3_">
		<use xlink:href="#SVGID_14_"  overflow="visible"/>
	</clipPath>
	<polygon clip-path="url(#SVGID_3_)" fill="#F1F2F2" points="-471.749,-218.555 -612.497,24.443 14.696,-2.876 	"/>
	<polygon clip-path="url(#SVGID_3_)" fill="#E6E7E8" points="-612.497,24.443 14.696,-2.876 -150.743,332.962 	"/>
	<polygon clip-path="url(#SVGID_3_)" fill="#F1F2F2" points="14.696,-2.876 -150.743,332.962 330.765,-23.649 	"/>
	<polygon clip-path="url(#SVGID_3_)" fill="#D1D3D4" points="330.765,-23.649 -150.743,332.962 377.681,388.871 	"/>
	<polygon clip-path="url(#SVGID_3_)" fill="#F1F2F2" points="377.681,388.871 330.765,-23.649 770.294,165.096 	"/>
	<polygon clip-path="url(#SVGID_3_)" fill="#E6E7E8" points="770.294,165.096 330.765,-23.649 567.813,-115.282 	"/>
</g>
<g opacity="0.1">
	<defs>
		<path id="SVGID_16_" opacity="0.1" d="M551.529,413.939c-155.991,59.793-327.486,99.787-479.983,76.897
			c-26.969-4.048-50.717-8.571-71.549-13.49L-0.002,256c0,0,256.303,73.732,551.535,50.724L551.529,413.939z"/>
	</defs>
	<clipPath id="SVGID_5_">
		<use xlink:href="#SVGID_16_"  overflow="visible"/>
	</clipPath>
	<polygon clip-path="url(#SVGID_5_)" fill="#F1F2F2" points="1023.28,36.115 1164.028,279.113 536.834,251.794 	"/>
	<polygon clip-path="url(#SVGID_5_)" fill="#F1F2F2" points="536.834,251.794 702.274,587.632 220.767,231.021 	"/>
	<polygon clip-path="url(#SVGID_5_)" fill="#D1D3D4" points="220.767,231.021 702.274,587.632 173.851,643.541 	"/>
	<polygon clip-path="url(#SVGID_5_)" fill="#F1F2F2" points="173.851,643.541 220.767,231.021 -218.764,419.766 	"/>
	<polygon clip-path="url(#SVGID_5_)" fill="#E6E7E8" points="-218.764,419.766 220.767,231.021 -16.283,139.388 	"/>
</g>
<g opacity="0.1">
	<defs>
		<path id="SVGID_18_" opacity="0.1" d="M1115.304-113.991c-31.515-3.368-63.218-3.38-95.498,5.044
			c-84.531,22.059-156.318,58.832-246.555,55.636c-34.396-1.219-131.65-22.584-209.25-20.178l-0.002,40.736
			c78.874,11.057,154.982,44.096,238.107,49.759c52.846,3.601,106.513-27.628,151.994-50.506
			c54.001-27.162,92.821-40.177,153.393-43.569c2.679-0.15,5.358-0.301,8.039-0.451L1115.304-113.991z"/>
	</defs>
	<clipPath id="SVGID_7_">
		<use xlink:href="#SVGID_18_"  overflow="visible"/>
	</clipPath>
	<polygon clip-path="url(#SVGID_7_)" fill="#E6E7E8" points="581.228,44.74 695.228,-160.387 490.854,-58.004 	"/>
</g>
<g opacity="0.1">
	<defs>
		<path id="SVGID_22_" opacity="0.1" d="M564.228,34.502c31.515-3.368,63.218-3.38,95.498,5.044
			c84.531,22.059,156.318,58.832,246.555,55.636c34.396-1.219,131.65-22.584,209.25-20.178l0.002,40.736
			c-78.874,11.057-154.982,44.096-238.107,49.759c-52.846,3.601-106.513-27.628-151.994-50.506
			c-54.001-27.162-92.821-40.177-153.393-43.569c-2.679-0.15-5.358-0.301-8.039-0.451L564.228,34.502z"/>
	</defs>
	<clipPath id="SVGID_9_">
		<use xlink:href="#SVGID_22_"  overflow="visible"/>
	</clipPath>
	<polygon clip-path="url(#SVGID_9_)" fill="#F1F2F2" points="634.304,165.784 717.755,-45.768 462.486,21.106 	"/>
</g>
<g opacity="0.1">
	<defs>
		<path id="SVGID_24_" opacity="0.1" d="M1115.532,308.345c-31.515,3.369-63.218,3.381-95.498-5.043
			c-84.531-22.059-156.318-58.832-246.555-55.637c-34.396,1.219-131.65,22.584-209.25,20.178l-0.002-40.736
			c78.874-11.057,154.982-44.096,238.107-49.758c52.846-3.602,106.513,27.627,151.994,50.506
			c54.001,27.162,92.821,40.176,153.393,43.568c2.679,0.15,5.358,0.301,8.039,0.451L1115.532,308.345z"/>
	</defs>
	<clipPath id="SVGID_11_">
		<use xlink:href="#SVGID_24_"  overflow="visible"/>
	</clipPath>
	<polygon clip-path="url(#SVGID_11_)" fill="#E6E7E8" points="581.456,149.614 695.456,354.741 491.083,252.358 	"/>
</g>
</svg>
