<?xml version="1.0" encoding="utf-8"?>
<!-- Generator: Adobe Illustrator 16.0.0, SVG Export Plug-In . SVG Version: 6.00 Build 0)  -->
<!DOCTYPE svg PUBLIC "-//W3C//DTD SVG 1.1//EN" "http://www.w3.org/Graphics/SVG/1.1/DTD/svg11.dtd">
<svg version="1.1" id="Layer_1" xmlns="http://www.w3.org/2000/svg" xmlns:xlink="http://www.w3.org/1999/xlink" x="0px" y="0px"
	 width="1044.104px" height="571.629px" viewBox="0 0 1044.104 571.629" enable-background="new 0 0 1044.104 571.629"
	 xml:space="preserve">
<g opacity="0.1">
	<defs>
		<path id="SVGID_10_" opacity="0.1" d="M-687.353,154.193c32.228-15.133,85.227-48.076,262.228,7.756
			c101,31.859,235,40.486,289.305-14.921V16.314C-457.125-34.311-687.353,57.19-687.353,57.19V154.193z"/>
	</defs>
	<clipPath id="SVGID_2_">
		<use xlink:href="#SVGID_10_"  overflow="visible"/>
	</clipPath>
	<polygon clip-path="url(#SVGID_2_)" fill="#E6E7E8" points="-108.105,284.688 -352.953,-153.496 58.451,91.932 	"/>
</g>
<g opacity="0.1">
	<defs>
		<path id="SVGID_12_" opacity="0.1" d="M-135.821,353.778c-32.227-15.133-85.227-48.076-262.227,7.756
			c-101,31.859-235,40.486-289.305-14.922V215.899c321.305-50.625,551.531,40.875,551.531,40.875V353.778z"/>
	</defs>
	<clipPath id="SVGID_3_">
		<use xlink:href="#SVGID_12_"  overflow="visible"/>
	</clipPath>
	<polygon clip-path="url(#SVGID_3_)" fill="#F1F2F2" points="-113.192,494.329 -270.38,112.294 59.687,315.087 	"/>
</g>
<g>
	<defs>
		<rect id="SVGID_26_" width="1044.104" height="571.891"/>
	</defs>
	<clipPath id="SVGID_5_">
		<use xlink:href="#SVGID_26_"  overflow="visible"/>
	</clipPath>
	<path opacity="0.5" clip-path="url(#SVGID_5_)" fill="#DFF3FD" d="M437.797,415.098c-1.273,0-2.542-0.008-3.811-0.023
		c-49.309-0.613-93.57-13.281-131.555-37.648c-42.299-27.713-69.785-58.375-66.561-118.023l0.016-0.205
		c2.364-23.646,11.901-65.699,49.203-81.686c2.283-0.977,4.93,0.078,5.908,2.363c0.979,2.285-0.079,4.93-2.363,5.91
		c-33.004,14.143-41.6,52.516-43.782,74.205c-2.967,55.473,21.707,83.174,62.475,109.885
		c87.016,55.82,189.415,37.084,259.988,11.531c79.4-28.355,136.223-97.678,191.175-164.717
		c17.062-20.814,33.178-40.477,50.011-59.061C859.642,100.193,924.602,56.72,991.387,35.247
		c75.188-24.176,150.181-20.077,216.872,11.85c2.241,1.072,3.188,3.76,2.115,6.002c-1.072,2.241-3.76,3.188-6.002,2.115
		c-141.731-67.85-297.588,5.568-389.176,108.429c-16.708,18.449-32.756,38.025-49.745,58.752
		c-55.73,67.988-113.357,138.291-195.09,167.482C524.125,406.617,479.543,415.098,437.797,415.098z"/>
	<path opacity="0.5" clip-path="url(#SVGID_5_)" fill="#DFF3FD" d="M337.775,98.847c0.534,0.383,1.064,0.768,1.592,1.155
		c20.493,15.083,35.244,33.703,43.848,55.342c9.404,24.339,11.713,45.462-7.574,69.505l-0.068,0.082
		c-8.102,9.205-24.743,23.973-45.193,19.461c-1.25-0.277-2.044-1.516-1.767-2.768c0.275-1.254,1.515-2.043,2.769-1.768
		c18.092,3.992,33.233-9.516,40.67-17.955c17.923-22.369,15.905-41.404,6.84-64.863c-19.706-49.572-68.281-72.503-105.559-83.006
		c-41.82-11.982-86.492,0.004-129.693,11.594c-13.413,3.598-26.082,6.998-38.729,9.73c-38.714,8.71-79.026,7.408-113.488-3.667
		c-38.799-12.469-69.015-36.735-87.383-70.176c-0.617-1.124-0.206-2.535,0.918-3.152s2.535-0.206,3.152,0.917
		C-52.856,90.346,34.576,106.42,103.91,90.823c12.554-2.713,25.169-6.098,38.525-9.681c43.812-11.754,89.116-23.909,132.167-11.576
		C299.024,76.448,320.27,86.295,337.775,98.847z"/>
	<path opacity="0.5" clip-path="url(#SVGID_5_)" fill="#DFF3FD" d="M523.852,527.632c-0.115,0-0.233-0.014-0.351-0.041
		c-0.806-0.193-1.303-1.004-1.109-1.809c6.98-29.086,31.337-64.65,72.395-105.705c22.566-23.979,51.476-44.775,85.892-61.781
		c29.943-14.797,63.362-26.443,99.327-34.617c28.418-6.596,58.052-11.916,86.709-17.061c56.332-10.113,114.581-20.57,168.066-41.371
		c59.873-22.809,142.338-71.283,177.734-132.844c0.415-0.719,1.329-0.965,2.049-0.553c0.718,0.414,0.965,1.33,0.553,2.049
		c-35.791,62.244-118.935,111.166-179.259,134.146c-53.746,20.902-112.142,31.387-168.613,41.523
		c-28.621,5.139-58.217,10.453-86.568,17.033c-54.438,12.373-130.496,38.994-183.736,95.562
		c-40.692,40.691-64.781,75.777-71.63,104.316C525.145,527.169,524.529,527.632,523.852,527.632z"/>
	<path opacity="0.5" clip-path="url(#SVGID_5_)" fill="#DFF3FD" d="M-53.152,416.814c-0.383-0.685-0.497-1.518-0.252-2.328
		c0.479-1.585,2.155-2.482,3.741-2.002c13.057,3.951,26.199,7.531,38.907,10.995c48.641,13.251,94.581,25.767,135.631,57.694
		c55.414,42.055,93.714,103.105,123.865,157.274c0.807,1.449,0.284,3.275-1.162,4.081c-1.447,0.807-3.273,0.287-4.08-1.161
		c-29.849-53.627-67.721-114.03-122.277-155.437c-40.132-31.213-85.509-43.575-133.554-56.662
		c-12.747-3.475-25.932-7.066-39.069-11.043C-52.178,417.992-52.787,417.473-53.152,416.814z"/>
	<path opacity="0.5" clip-path="url(#SVGID_5_)" fill="#DFF3FD" d="M747.447,620.127c-0.262,0-0.482-0.205-0.498-0.471
		c-2.638-44.184,18.566-82.244,63.022-113.123c37.524-26.062,84.153-42.619,124.817-55.375
		c45.532-13.939,91.467-18.779,135.889-23.461c27.578-2.906,56.095-5.91,84.661-11.053c43.137-9.74,81.832-41.357,106.143-86.74
		c0.13-0.244,0.435-0.334,0.677-0.203c0.243,0.129,0.335,0.432,0.204,0.676c-24.447,45.639-63.384,77.438-106.824,87.246
		c-28.625,5.154-57.16,8.16-84.755,11.068c-44.377,4.678-90.262,9.512-135.698,23.422
		c-90.095,28.264-192.788,72.844-187.138,167.482c0.017,0.277-0.193,0.514-0.47,0.529
		C747.468,620.127,747.458,620.127,747.447,620.127z"/>
	<path opacity="0.5" clip-path="url(#SVGID_5_)" fill="#DFF3FD" d="M459.354,277.643c-0.534,0-1.051-0.285-1.321-0.789
		c-22.009-40.871-14.152-101.301,16.812-129.316c26.737-25.33,57.917-42.619,95.294-52.832
		c30.096-8.222,64.954-12.052,109.703-12.052c106.574,0,231.366-53.127,253.513-169.771c0.155-0.813,0.939-1.35,1.754-1.193
		c0.813,0.154,1.348,0.939,1.193,1.754c-10.374,54.637-43.815,99.916-96.709,130.945C794.887,70.612,736.66,85.653,679.843,85.653
		c-70.278,0-143.508,7.763-202.959,64.085c-30.062,27.199-37.624,85.924-16.21,125.693c0.394,0.73,0.12,1.639-0.609,2.031
		C459.839,277.586,459.595,277.643,459.354,277.643z"/>
	<path opacity="0.5" clip-path="url(#SVGID_5_)" fill="#DFF3FD" d="M-132.012,486.854c-0.6-0.477-0.927-1.26-0.782-2.066
		c11.677-65.635,74.41-126.645,134.25-130.564c52.686-4.668,103.2,3.68,154.378,25.518c41.208,17.584,83.859,44.361,134.229,84.27
		c119.959,95.043,307.804,146.535,436.756,34.99c0.9-0.775,2.263-0.682,3.039,0.221c0.778,0.898,0.679,2.26-0.22,3.039
		c-60.403,52.246-138.427,73.389-225.634,61.145c-73.71-10.35-152.663-45.348-216.617-96.018
		c-79.104-62.676-168.454-119.244-285.6-108.867c-58.096,3.805-118.978,63.16-130.342,127.021c-0.207,1.172-1.325,1.951-2.496,1.742
		C-131.414,487.222-131.741,487.069-132.012,486.854z"/>
</g>
<g>
	<defs>
		<rect id="SVGID_28_" y="608.685" width="1044.104" height="571.891"/>
	</defs>
	<clipPath id="SVGID_7_">
		<use xlink:href="#SVGID_28_"  overflow="visible"/>
	</clipPath>
	<path opacity="0.5" clip-path="url(#SVGID_7_)" fill="#DFF3FD" d="M584.749,886.327c0.534,0,1.051-0.285,1.321-0.789
		c22.009-40.871,14.152-101.301-16.812-129.316c-26.737-25.33-57.917-42.619-95.294-52.832
		c-30.096-8.222-64.954-12.052-109.703-12.052c-106.574,0-231.366-53.127-253.513-169.771c-0.155-0.813-0.939-1.35-1.754-1.193
		c-0.813,0.154-1.348,0.939-1.193,1.754c10.374,54.637,43.815,99.916,96.709,130.945c44.707,26.225,102.934,41.266,159.751,41.266
		c70.278,0,143.508,7.763,202.959,64.085c30.062,27.199,37.624,85.924,16.21,125.693c-0.394,0.73-0.12,1.639,0.609,2.031
		C584.265,886.271,584.509,886.327,584.749,886.327z"/>
</g>
</svg>
