<?xml version="1.0" encoding="utf-8"?>
<!-- Generator: Adobe Illustrator 16.0.0, SVG Export Plug-In . SVG Version: 6.00 Build 0)  -->
<!DOCTYPE svg PUBLIC "-//W3C//DTD SVG 1.1//EN" "http://www.w3.org/Graphics/SVG/1.1/DTD/svg11.dtd">
<svg version="1.1" id="Layer_1" xmlns="http://www.w3.org/2000/svg" xmlns:xlink="http://www.w3.org/1999/xlink" x="0px" y="0px"
	 width="551.305px" height="131.281px" viewBox="0 0 551.305 131.281" enable-background="new 0 0 551.305 131.281"
	 xml:space="preserve">
<g opacity="0.1">
	<defs>
		<path id="SVGID_14_" opacity="0.1" d="M-564.227-17.793C-408.234,42-236.74,81.994-84.242,59.104
			c26.969-4.048,50.717-8.571,71.549-13.49l-0.002-221.347c0,0-256.303,73.732-551.535,50.724L-564.227-17.793z"/>
	</defs>
	<clipPath id="SVGID_2_">
		<use xlink:href="#SVGID_14_"  overflow="visible"/>
	</clipPath>
	<polygon clip-path="url(#SVGID_2_)" fill="#F1F2F2" points="-186.547,211.809 -233.463,-200.712 206.066,-11.967 	"/>
</g>
<g opacity="0.1">
	<defs>
		<path id="SVGID_16_" opacity="0.1" d="M-12.698,236.877c-155.991,59.793-327.486,99.787-479.983,76.897
			c-26.969-4.048-50.717-8.571-71.549-13.49l0.001-221.347c0,0,256.303,73.732,551.535,50.724L-12.698,236.877z"/>
	</defs>
	<clipPath id="SVGID_3_">
		<use xlink:href="#SVGID_16_"  overflow="visible"/>
	</clipPath>
	<polygon clip-path="url(#SVGID_3_)" fill="#F1F2F2" points="459.053,-140.947 599.801,102.051 -27.394,74.731 	"/>
	<polygon clip-path="url(#SVGID_3_)" fill="#E6E7E8" points="599.801,102.051 -27.394,74.731 138.047,410.569 	"/>
	<polygon clip-path="url(#SVGID_3_)" fill="#F1F2F2" points="-27.394,74.731 138.047,410.569 -343.461,53.958 	"/>
	<polygon clip-path="url(#SVGID_3_)" fill="#D1D3D4" points="-343.461,53.958 138.047,410.569 -390.377,466.479 	"/>
</g>
<g opacity="0.1">
	<defs>
		<path id="SVGID_20_" opacity="0.1" d="M0.114,277.292c31.515,3.367,63.218,3.379,95.498-5.045
			c84.531-22.059,156.318-58.832,246.555-55.635c34.396,1.219,131.65,22.584,209.25,20.178l0.002-40.736
			c-78.874-11.057-154.982-44.096-238.107-49.76c-52.846-3.6-106.513,27.629-151.994,50.506
			c-54.001,27.162-92.821,40.178-153.393,43.57c-2.679,0.15-5.358,0.301-8.039,0.451L0.114,277.292z"/>
	</defs>
	<clipPath id="SVGID_5_">
		<use xlink:href="#SVGID_20_"  overflow="visible"/>
	</clipPath>
	<polygon clip-path="url(#SVGID_5_)" fill="#E6E7E8" points="70.19,146.009 153.642,357.562 354.569,118.56 	"/>
	<polygon clip-path="url(#SVGID_5_)" fill="#D1D3D4" points="354.569,118.56 153.642,357.562 420.19,323.687 	"/>
	<polygon clip-path="url(#SVGID_5_)" fill="#F1F2F2" points="354.569,118.56 420.19,323.687 534.19,118.56 	"/>
	<polygon clip-path="url(#SVGID_5_)" fill="#E6E7E8" points="534.19,118.56 420.19,323.687 624.563,221.304 	"/>
</g>
<g opacity="0.1">
	<defs>
		<path id="SVGID_22_" opacity="0.1" d="M0-142.561c31.515-3.368,63.218-3.38,95.498,5.044
			c84.531,22.059,156.318,58.832,246.555,55.636c34.396-1.219,131.65-22.584,209.25-20.178l0.002,40.736
			c-78.874,11.057-154.982,44.096-238.107,49.759c-52.846,3.601-106.513-27.628-151.994-50.506
			c-54.001-27.162-92.821-40.177-153.393-43.569c-2.679-0.15-5.358-0.301-8.039-0.451L0-142.561z"/>
	</defs>
	<clipPath id="SVGID_7_">
		<use xlink:href="#SVGID_22_"  overflow="visible"/>
	</clipPath>
	<polygon clip-path="url(#SVGID_7_)" fill="#E6E7E8" points="70.076,-11.278 153.527,-222.83 354.455,16.171 	"/>
	<polygon clip-path="url(#SVGID_7_)" fill="#D1D3D4" points="354.455,16.171 153.527,-222.83 420.076,-188.956 	"/>
	<polygon clip-path="url(#SVGID_7_)" fill="#F1F2F2" points="354.455,16.171 420.076,-188.956 534.076,16.171 	"/>
	<polygon clip-path="url(#SVGID_7_)" fill="#E6E7E8" points="534.076,16.171 420.076,-188.956 624.449,-86.573 	"/>
</g>
<g opacity="0.1">
	<defs>
		<path id="SVGID_24_" opacity="0.1" d="M551.305,131.282c-31.515,3.369-63.218,3.381-95.498-5.043
			c-84.531-22.059-156.318-58.832-246.555-55.637C174.855,71.821,77.602,93.187,0.002,90.78L0,50.044
			C78.874,38.987,154.982,5.948,238.107,0.286c52.846-3.602,106.513,27.627,151.994,50.506
			c54.001,27.162,92.821,40.176,153.393,43.568c2.679,0.15,5.358,0.301,8.039,0.451L551.305,131.282z"/>
	</defs>
	<clipPath id="SVGID_9_">
		<use xlink:href="#SVGID_24_"  overflow="visible"/>
	</clipPath>
	<polygon clip-path="url(#SVGID_9_)" fill="#F1F2F2" points="481.229,0.001 397.777,211.552 653.046,144.679 	"/>
	<polygon clip-path="url(#SVGID_9_)" fill="#E6E7E8" points="481.229,0.001 397.777,211.552 196.85,-27.448 	"/>
	<polygon clip-path="url(#SVGID_9_)" fill="#D1D3D4" points="196.85,-27.448 397.777,211.552 131.229,177.679 	"/>
	<polygon clip-path="url(#SVGID_9_)" fill="#F1F2F2" points="196.85,-27.448 131.229,177.679 17.229,-27.448 	"/>
	<polygon clip-path="url(#SVGID_9_)" fill="#E6E7E8" points="17.229,-27.448 131.229,177.679 -73.145,75.296 	"/>
</g>
<g>
	<defs>
		<rect id="SVGID_28_" x="687.125" y="-107.874" width="1044.104" height="571.891"/>
	</defs>
	<clipPath id="SVGID_11_">
		<use xlink:href="#SVGID_28_"  overflow="visible"/>
	</clipPath>
	<path opacity="0.5" clip-path="url(#SVGID_11_)" fill="#DFF3FD" d="M1293.432,307.224c1.273,0,2.542-0.008,3.811-0.023
		c49.309-0.613,93.57-13.281,131.555-37.648c42.299-27.713,69.785-58.375,66.561-118.023l-0.016-0.205
		c-2.364-23.646-11.901-65.699-49.203-81.686c-2.283-0.977-4.93,0.078-5.908,2.363c-0.979,2.285,0.079,4.93,2.363,5.91
		c33.004,14.143,41.6,52.516,43.782,74.205c2.967,55.473-21.707,83.174-62.475,109.885c-87.016,55.82-189.415,37.084-259.988,11.531
		c-79.4-28.355-136.223-97.678-191.175-164.717c-17.062-20.814-33.178-40.477-50.011-59.061
		C871.587-7.681,806.627-51.154,739.842-72.627c-75.188-24.176-150.181-20.077-216.872,11.85c-2.241,1.072-3.188,3.76-2.115,6.002
		c1.072,2.241,3.76,3.188,6.002,2.115c141.731-67.85,297.588,5.568,389.176,108.429c16.708,18.449,32.756,38.025,49.745,58.752
		c55.73,67.988,113.357,138.291,195.09,167.482C1207.104,298.743,1251.686,307.224,1293.432,307.224z"/>
	<path opacity="0.5" clip-path="url(#SVGID_11_)" fill="#DFF3FD" d="M1207.377,419.758c0.115,0,0.233-0.014,0.351-0.041
		c0.806-0.193,1.303-1.004,1.109-1.809c-6.98-29.086-31.337-64.65-72.395-105.705c-22.566-23.979-51.476-44.775-85.892-61.781
		c-29.943-14.797-63.362-26.443-99.327-34.617c-28.418-6.596-58.052-11.916-86.709-17.061
		c-56.332-10.113-114.581-20.57-168.066-41.371C636.575,134.564,554.11,86.09,518.714,24.529c-0.415-0.719-1.329-0.965-2.049-0.553
		c-0.718,0.414-0.965,1.33-0.553,2.049C551.903,88.27,635.047,137.191,695.37,160.172c53.747,20.902,112.143,31.387,168.614,41.523
		c28.621,5.139,58.217,10.453,86.568,17.033c54.438,12.373,130.496,38.994,183.736,95.562
		c40.692,40.691,64.781,75.777,71.63,104.316C1206.084,419.295,1206.699,419.758,1207.377,419.758z"/>
</g>
</svg>
