<?xml version="1.0" encoding="utf-8"?>
<!-- Generator: Adobe Illustrator 16.0.0, SVG Export Plug-In . SVG Version: 6.00 Build 0)  -->
<!DOCTYPE svg PUBLIC "-//W3C//DTD SVG 1.1//EN" "http://www.w3.org/Graphics/SVG/1.1/DTD/svg11.dtd">
<svg version="1.1" id="Layer_1" xmlns="http://www.w3.org/2000/svg" xmlns:xlink="http://www.w3.org/1999/xlink" x="0px" y="0px"
	 width="551.533px" height="133.391px" viewBox="0 0 551.533 133.391" enable-background="new 0 0 551.533 133.391"
	 xml:space="preserve">
<g opacity="0.1">
	<defs>
		<path id="SVGID_8_" opacity="0.1" d="M-12.466,90.854c-36.621,8.583-80.203,12.209-132.069,8.696
			C-384.26,83.312-407.129-0.018-564.002,14.447l0.005-148.943c73.056-20.831,173.172-47.081,287.805-2.518
			C-155.771-90.2-75.771-84.331-12.471-94.387L-12.466,90.854z"/>
	</defs>
	<clipPath id="SVGID_2_">
		<use xlink:href="#SVGID_8_"  overflow="visible"/>
	</clipPath>
	<polygon clip-path="url(#SVGID_2_)" fill="#E6E7E8" points="211.232,27.275 57.314,-178.97 43.538,132.692 	"/>
	<polygon clip-path="url(#SVGID_2_)" fill="#F1F2F2" points="43.538,132.692 57.314,-178.97 -127.427,-152.728 	"/>
	<polygon clip-path="url(#SVGID_2_)" fill="#D1D3D4" points="43.538,132.692 -127.427,-152.728 -362.69,119.061 	"/>
</g>
<g opacity="0.1">
	<defs>
		<path id="SVGID_12_" opacity="0.1" d="M551.532-69.619c-32.227-15.133-85.227-48.076-262.227,7.756
			c-101,31.859-235,40.486-289.305-14.922v-130.713c321.305-50.625,551.531,40.875,551.531,40.875V-69.619z"/>
	</defs>
	<clipPath id="SVGID_3_">
		<use xlink:href="#SVGID_12_"  overflow="visible"/>
	</clipPath>
	<polygon clip-path="url(#SVGID_3_)" fill="#F1F2F2" points="574.161,70.932 416.974,-311.104 747.04,-108.311 	"/>
	<polygon clip-path="url(#SVGID_3_)" fill="#E6E7E8" points="574.161,70.932 416.974,-311.104 155.185,-0.164 	"/>
	<polygon clip-path="url(#SVGID_3_)" fill="#F1F2F2" points="155.185,-0.164 217.134,-377.309 -27.714,60.875 	"/>
	<polygon clip-path="url(#SVGID_3_)" fill="#E6E7E8" points="-27.714,60.875 217.134,-377.309 -194.271,-131.881 	"/>
</g>
<g opacity="0.1">
	<defs>
		<path id="SVGID_14_" opacity="0.1" d="M-563.998,275.368c155.992,59.793,327.486,99.787,479.984,76.897
			c26.969-4.048,50.717-8.571,71.549-13.49l-0.002-221.347c0,0-256.303,73.732-551.535,50.724L-563.998,275.368z"/>
	</defs>
	<clipPath id="SVGID_5_">
		<use xlink:href="#SVGID_14_"  overflow="visible"/>
	</clipPath>
	<polygon clip-path="url(#SVGID_5_)" fill="#F1F2F2" points="-186.318,504.97 -233.234,92.449 206.295,281.194 	"/>
	<polygon clip-path="url(#SVGID_5_)" fill="#E6E7E8" points="206.295,281.194 -233.234,92.449 3.814,0.816 	"/>
</g>
<g opacity="0.1">
	<defs>
		<path id="SVGID_18_" opacity="0.1" d="M551.305,2.107c-31.515-3.368-63.218-3.38-95.498,5.044
			C371.275,29.21,299.488,65.983,209.252,62.787c-34.396-1.219-131.65-22.584-209.25-20.178L0,83.346
			c78.874,11.057,154.982,44.096,238.107,49.759c52.846,3.601,106.513-27.628,151.994-50.506
			c54.001-27.162,92.821-40.177,153.393-43.569c2.679-0.15,5.358-0.301,8.039-0.451L551.305,2.107z"/>
	</defs>
	<clipPath id="SVGID_7_">
		<use xlink:href="#SVGID_18_"  overflow="visible"/>
	</clipPath>
	<polygon clip-path="url(#SVGID_7_)" fill="#F1F2F2" points="481.229,133.39 397.777,-78.162 653.046,-11.288 	"/>
	<polygon clip-path="url(#SVGID_7_)" fill="#E6E7E8" points="481.229,133.39 397.777,-78.162 196.85,160.839 	"/>
	<polygon clip-path="url(#SVGID_7_)" fill="#D1D3D4" points="196.85,160.839 397.777,-78.162 131.229,-44.288 	"/>
	<polygon clip-path="url(#SVGID_7_)" fill="#F1F2F2" points="196.85,160.839 131.229,-44.288 17.229,160.839 	"/>
	<polygon clip-path="url(#SVGID_7_)" fill="#E6E7E8" points="17.229,160.839 131.229,-44.288 -73.145,58.095 	"/>
</g>
<g opacity="0.1">
	<defs>
		<path id="SVGID_22_" opacity="0.1" d="M0.229,150.601c31.515-3.368,63.218-3.38,95.498,5.044
			c84.531,22.059,156.318,58.832,246.555,55.636c34.396-1.219,131.65-22.584,209.25-20.178l0.002,40.736
			c-78.874,11.057-154.982,44.096-238.107,49.759c-52.846,3.601-106.513-27.628-151.994-50.506
			C107.431,203.93,68.61,190.915,8.039,187.522c-2.679-0.15-5.358-0.301-8.039-0.451L0.229,150.601z"/>
	</defs>
	<clipPath id="SVGID_9_">
		<use xlink:href="#SVGID_22_"  overflow="visible"/>
	</clipPath>
	<polygon clip-path="url(#SVGID_9_)" fill="#F1F2F2" points="70.305,281.883 153.756,70.331 -101.513,137.205 	"/>
	<polygon clip-path="url(#SVGID_9_)" fill="#E6E7E8" points="70.305,281.883 153.756,70.331 354.684,309.332 	"/>
	<polygon clip-path="url(#SVGID_9_)" fill="#D1D3D4" points="354.684,309.332 153.756,70.331 420.305,104.205 	"/>
	<polygon clip-path="url(#SVGID_9_)" fill="#F1F2F2" points="354.684,309.332 420.305,104.205 534.305,309.332 	"/>
	<polygon clip-path="url(#SVGID_9_)" fill="#E6E7E8" points="534.305,309.332 420.305,104.205 624.678,206.588 	"/>
</g>
<g>
	<defs>
		<rect id="SVGID_28_" x="687.354" y="185.287" width="1044.104" height="571.891"/>
	</defs>
	<clipPath id="SVGID_11_">
		<use xlink:href="#SVGID_28_"  overflow="visible"/>
	</clipPath>
</g>
</svg>
