<?xml version="1.0" encoding="utf-8"?>
<!-- Generator: Adobe Illustrator 16.0.0, SVG Export Plug-In . SVG Version: 6.00 Build 0)  -->
<!DOCTYPE svg PUBLIC "-//W3C//DTD SVG 1.1//EN" "http://www.w3.org/Graphics/SVG/1.1/DTD/svg11.dtd">
<svg version="1.1" id="Layer_1" xmlns="http://www.w3.org/2000/svg" xmlns:xlink="http://www.w3.org/1999/xlink" x="0px" y="0px"
	 width="256px" height="256px" viewBox="0 0 256 256" enable-background="new 0 0 256 256" xml:space="preserve">
<g>
	<defs>
		<path id="SVGID_1_" d="M168.705,10.042C103.561-12.442,32.521,22.145,10.039,87.293c-22.479,65.148,12.108,136.186,77.254,158.666
			c65.149,22.483,136.186-12.106,158.666-77.252C268.441,103.558,233.853,32.52,168.705,10.042z M140.956,132.471
			c-2.47,7.157-10.272,10.957-17.427,8.486c-7.158-2.47-10.958-10.272-8.487-17.429c2.47-7.157,10.272-10.956,17.429-8.486
			C139.627,117.511,143.425,125.316,140.956,132.471z"/>
	</defs>
	<use xlink:href="#SVGID_1_"  overflow="visible" fill="#F09121"/>
	<clipPath id="SVGID_2_">
		<use xlink:href="#SVGID_1_"  overflow="visible"/>
	</clipPath>
	<g id="Ocean" clip-path="url(#SVGID_2_)">
		<polygon fill="#FBCC1E" points="234.339,13.722 176.764,69.936 265.858,179.472 		"/>
		<polygon fill="#FBCC1E" points="181.316,70.699 258.819,165.268 129.463,218.547 		"/>
		<polygon fill="#FBCC1E" points="0.611,81.11 35.212,108.153 28.414,216.696 		"/>
		<polygon fill="#FCD71F" points="35.212,108.153 136.731,211.833 28.414,216.696 		"/>
		<polygon fill="#EA9E22" points="136.731,211.833 137.426,261.605 28.414,216.696 		"/>
		<polygon fill="#FDDA32" points="181.316,70.699 103.449,90.762 35.212,108.153 93.88,-6.151 		"/>
		<polygon fill="#FCD71F" points="35.212,108.153 103.449,90.762 181.316,70.699 160.133,138.026 136.731,211.833 		"/>
		<polygon fill="#FEE233" points="93.88,-6.151 0.611,81.11 35.212,108.153 		"/>
		<polygon fill="#FEE233" points="93.88,-6.151 230.613,27.302 181.316,70.699 		"/>
		<polygon fill="#F5B81C" points="254.236,161.766 212.89,223.886 137.436,261.504 136.731,211.833 201.791,183.3 		"/>
		<polygon fill="#FCDB43" points="0.542,80.678 40.345,27.102 63.889,52.614 		"/>
		<polygon fill="#FEE233" points="40.345,27.102 93.88,-6.151 63.547,53.058 		"/>
		<polygon fill="#EFA520" points="212.89,223.886 136.731,211.833 136.57,262.668 		"/>
		<polygon fill="#FBCC1E" points="35.212,108.153 123.477,122.954 136.731,211.833 		"/>
		<polygon fill="#F5B81C" points="0.611,81.11 28.414,216.696 -2.057,199.218 		"/>
	</g>
	<g id="Land" display="none" clip-path="url(#SVGID_2_)">
		<polygon display="inline" fill="#5D5728" points="122.43,18.968 113.104,51.226 103.449,90.762 131.063,82.018 159.047,77.6 
			181.316,70.699 		"/>
		<polygon display="inline" fill="#393720" points="93.88,-6.151 122.43,18.968 113.104,51.226 		"/>
		<polygon display="inline" fill="#3A3922" points="113.104,51.226 68.228,43.829 96.119,-6.567 		"/>
		<polygon display="inline" fill="#524D22" points="113.104,51.226 122.688,52.9 122.43,18.968 		"/>
		<polygon display="inline" fill="#5B522A" points="122.688,52.9 181.316,70.699 122.43,18.968 		"/>
		<polygon display="inline" fill="#5D5E2B" points="122.688,52.9 131.063,82.018 113.104,51.226 		"/>
		<polygon display="inline" fill="#5C632C" points="122.688,52.9 131.063,82.018 160.715,64.339 		"/>
		<polygon display="inline" fill="#6C6432" points="122.43,18.968 151.312,25.757 181.316,70.699 		"/>
		<polygon display="inline" fill="#625A2C" points="122.43,18.968 93.88,-6.151 151.312,25.757 		"/>
		<polygon display="inline" fill="#746E2E" points="93.88,-6.151 167.795,5.08 151.312,25.757 		"/>
		<polygon display="inline" fill="#6D682B" points="230.613,27.302 167.795,5.08 160.921,10.374 191.776,17.867 		"/>
		<polygon display="inline" fill="#524D22" points="151.312,25.757 160.921,10.374 217.123,55.572 		"/>
		<polygon display="inline" fill="#6B6230" points="217.123,55.572 191.776,17.867 160.921,10.374 		"/>
		<polygon display="inline" fill="#5C632C" points="245.698,75.564 251.813,94.84 230.08,88.465 		"/>
		<polygon display="inline" fill="#5D5E2B" points="254.134,160.71 251.82,94.282 230.08,88.465 		"/>
		<polygon display="inline" fill="#5D5728" points="137.149,211.834 148.88,173.501 126.614,196.482 		"/>
		<polygon display="inline" fill="#3A3922" points="148.88,173.501 201.791,183.3 137.149,211.834 		"/>
		<polygon display="inline" fill="#5D5E2B" points="201.791,183.3 201.318,190.598 137.149,211.834 		"/>
		<polygon display="inline" fill="#524D22" points="103.449,90.762 68.228,43.829 113.104,51.226 		"/>
		<polygon display="inline" fill="#5C632C" points="159.047,77.6 157.094,102.183 181.316,70.699 		"/>
		<polygon display="inline" fill="#393720" points="86.771,67.112 103.449,90.762 99.278,100.333 93.475,119.008 		"/>
		<polygon display="inline" fill="#5D5728" points="93.475,119.008 131.753,118.405 99.278,100.333 		"/>
		<polygon display="inline" fill="#6C6432" points="99.278,100.333 103.449,90.762 131.534,118.694 		"/>
		<polygon display="inline" fill="#746E2E" points="103.449,90.762 88.528,80.946 86.771,67.112 		"/>
		<polygon display="inline" fill="#5C632C" points="117.382,118.492 131.753,118.405 119.275,141.988 		"/>
		<polygon display="inline" fill="#6C6432" points="119.275,141.988 160.133,138.026 148.88,173.501 		"/>
		<polygon display="inline" fill="#5D5E2B" points="119.275,141.988 83.132,166.433 126.614,196.482 		"/>
		<polygon display="inline" fill="#393720" points="119.275,141.988 148.88,173.501 126.614,196.482 		"/>
		<polygon display="inline" fill="#524D22" points="160.133,138.026 201.791,183.3 148.88,173.501 		"/>
		<polygon display="inline" fill="#6C6432" points="111.741,254.396 111.784,242.725 121.341,242.481 		"/>
		<polygon display="inline" fill="#3A3922" points="111.741,254.396 137.786,244.083 121.341,242.481 		"/>
		<polygon display="inline" fill="#625A2C" points="111.784,242.725 137.593,223.342 121.341,242.481 		"/>
		<polygon display="inline" fill="#6B6230" points="201.318,190.598 178.742,218.021 137.149,211.834 		"/>
		<polygon display="inline" fill="#524D22" points="178.742,218.021 137.786,244.083 137.149,211.834 		"/>
		<polygon display="inline" fill="#524D22" points="126.614,196.482 137.149,211.834 123.931,232.927 		"/>
		<polygon display="inline" fill="#393720" points="137.149,211.834 137.593,223.342 124.468,233.29 123.931,232.927 		"/>
		<polygon display="inline" fill="#6C6432" points="101.97,179.453 123.931,232.927 126.614,196.482 		"/>
		<polygon display="inline" fill="#524D22" points="121.341,242.481 137.786,244.083 137.593,223.342 		"/>
	</g>
	<g clip-path="url(#SVGID_2_)">
		<g>
			<polygon fill="#E37D25" points="148.422,-9.103 84.349,-14.809 55.729,43.829 74.494,68.835 80.976,119.008 104.925,119.008 
				106.776,141.988 121.578,119.008 90.95,90.762 145.447,76.72 144.594,102.183 168.817,70.699 159.756,35.245 204.623,55.572 			
				"/>
			<polygon fill="#E37D25" points="91.235,183.749 105.398,208.844 99.242,254.396 125.287,244.083 188.819,190.598 
				147.634,138.026 106.776,141.988 70.633,166.433 			"/>
			<polygon fill="#E37D25" points="220.753,122.411 257.469,128.204 251.729,83.198 			"/>
			<polygon fill="#E37D25" points="233.479,124.419 255.438,166.66 257.469,128.204 			"/>
			<polygon fill="#E37D25" points="233.252,50.729 223.47,89.804 246.838,78.936 			"/>
		</g>
		<polygon fill="#E37D25" points="84.349,-14.809 55.729,43.829 168.817,70.699 		"/>
		<polygon fill="#D95B26" points="55.729,43.829 90.95,90.762 168.817,70.699 		"/>
		<polygon fill="#9E4422" points="90.95,90.762 74.494,68.833 80.976,119.008 		"/>
		<polygon fill="#E27E26" points="80.976,119.008 121.578,119.008 90.95,90.762 		"/>
		<polygon fill="#9E4422" points="121.578,119.008 104.925,119.008 106.776,141.988 		"/>
		<polygon fill="#E27E26" points="168.817,70.699 144.594,102.183 145.447,76.72 		"/>
		<polygon fill="#F09121" points="168.817,70.699 84.349,-14.809 148.422,-9.103 		"/>
		<polygon fill="#EFA120" points="148.422,-9.103 204.623,55.572 159.756,35.245 		"/>
		<polygon fill="#E27E26" points="106.776,141.988 70.633,166.433 124.65,211.834 		"/>
		<polygon fill="#D96D27" points="106.776,141.988 147.634,138.026 124.65,211.834 		"/>
		<polygon fill="#D95B26" points="147.634,138.026 188.819,190.598 124.65,211.834 		"/>
		<polygon fill="#B45026" points="124.65,211.834 91.235,183.749 125.287,244.083 		"/>
		<polygon fill="#A34E24" points="125.287,244.083 99.242,254.396 105.398,208.843 		"/>
		<polygon fill="#974021" points="125.287,244.083 124.65,211.834 188.819,190.598 		"/>
		<polygon fill="#B45026" points="251.729,83.198 220.753,122.411 257.469,128.204 		"/>
		<polygon fill="#974021" points="257.469,128.204 233.479,124.419 255.438,166.66 		"/>
		<polygon fill="#D95B26" points="246.838,78.936 223.47,89.804 233.252,50.729 		"/>
	</g>
	<path opacity="0.3" clip-path="url(#SVGID_2_)" fill="#FFFFFF" d="M5.019,201.333c0,0,173.706-191.495,378.699-181.853
		c0,0-275.944-22.229-405.602,86.308C-151.539,214.323,5.019,201.333,5.019,201.333z"/>
	<circle opacity="0.3" clip-path="url(#SVGID_2_)" fill="#FFFFFF" cx="127.999" cy="128" r="19.88"/>
	<path opacity="0.3" clip-path="url(#SVGID_2_)" fill="#FFFFFF" d="M170.599,4.572C102.42-18.956,28.094,17.231,4.573,85.41
		c-23.536,68.171,12.658,142.498,80.837,166.026c68.164,23.534,142.49-12.667,166.011-80.838
		C274.941,102.434,238.763,28.093,170.599,4.572z M238.164,166.022c-20.995,60.849-87.337,93.161-148.18,72.155
		C29.13,217.176-3.178,150.833,17.83,89.985C38.824,29.13,105.167-3.17,166.021,17.83
		C226.864,38.825,259.158,105.18,238.164,166.022z"/>
</g>
</svg>
