<?xml version="1.0" encoding="utf-8"?>
<!-- Generator: Adobe Illustrator 16.0.0, SVG Export Plug-In . SVG Version: 6.00 Build 0)  -->
<!DOCTYPE svg PUBLIC "-//W3C//DTD SVG 1.1//EN" "http://www.w3.org/Graphics/SVG/1.1/DTD/svg11.dtd">
<svg version="1.1" id="Layer_1" xmlns="http://www.w3.org/2000/svg" xmlns:xlink="http://www.w3.org/1999/xlink" x="0px" y="0px"
	 width="1044.104px" height="571.629px" viewBox="0 0 1044.104 571.629" enable-background="new 0 0 1044.104 571.629"
	 xml:space="preserve">
<g opacity="0.1">
	<defs>
		<path id="SVGID_48_" opacity="0.1" d="M-687.353,154.193c32.228-15.133,85.227-48.076,262.228,7.756
			c101,31.859,235,40.486,289.305-14.921V16.314C-457.125-34.311-687.353,57.19-687.353,57.19V154.193z"/>
	</defs>
	<clipPath id="SVGID_2_">
		<use xlink:href="#SVGID_48_"  overflow="visible"/>
	</clipPath>
	<polygon clip-path="url(#SVGID_2_)" fill="#E6E7E8" points="-108.105,284.688 -352.953,-153.496 58.451,91.932 	"/>
</g>
<g opacity="0.1">
	<defs>
		<path id="SVGID_50_" opacity="0.1" d="M-135.821,353.778c-32.227-15.133-85.227-48.076-262.227,7.756
			c-101,31.859-235,40.486-289.305-14.922V215.899c321.305-50.625,551.531,40.875,551.531,40.875V353.778z"/>
	</defs>
	<clipPath id="SVGID_4_">
		<use xlink:href="#SVGID_50_"  overflow="visible"/>
	</clipPath>
	<polygon clip-path="url(#SVGID_4_)" fill="#F1F2F2" points="-113.192,494.329 -270.38,112.294 59.687,315.087 	"/>
</g>
<g opacity="0.4">
	<defs>
		<rect id="SVGID_62_" opacity="0.4" width="1044.104" height="571.891"/>
	</defs>
	<clipPath id="SVGID_6_">
		<use xlink:href="#SVGID_62_"  overflow="visible"/>
	</clipPath>
	<path opacity="0.5" clip-path="url(#SVGID_6_)" fill="#F1F2F2" d="M437.797,415.098c-1.273,0-2.542-0.008-3.811-0.023
		c-49.309-0.613-93.57-13.281-131.555-37.648c-42.299-27.713-69.785-58.375-66.561-118.023l0.016-0.205
		c2.364-23.646,11.901-65.699,49.203-81.686c2.283-0.977,4.93,0.078,5.908,2.363c0.979,2.285-0.079,4.93-2.363,5.91
		c-33.004,14.143-41.6,52.516-43.782,74.205c-2.967,55.473,21.707,83.174,62.475,109.885
		c87.016,55.82,189.415,37.084,259.988,11.531c79.4-28.355,136.223-97.678,191.175-164.717
		c17.062-20.814,33.178-40.477,50.011-59.061C859.642,100.193,924.602,56.72,991.387,35.247
		c75.188-24.176,150.181-20.077,216.872,11.85c2.241,1.072,3.188,3.76,2.115,6.002c-1.072,2.241-3.76,3.188-6.002,2.115
		c-141.731-67.85-297.588,5.568-389.176,108.429c-16.708,18.449-32.756,38.025-49.745,58.752
		c-55.73,67.988-113.357,138.291-195.09,167.482C524.125,406.617,479.543,415.098,437.797,415.098z"/>
	<path opacity="0.3" clip-path="url(#SVGID_6_)" fill="#F1F2F2" d="M330.379,244.393c-1.28,0-2.044-1.516-1.767-2.768
		c0.275-1.254,1.484-1.768,2.769-1.768C435.875,239.857,456.375,70,266.875,70c-43.503,0-80.035,4.038-123.236,15.627
		c-13.413,3.598-26.082,6.998-38.729,9.73c-38.714,8.71-79.026,7.408-113.488-3.667c-38.799-12.469-69.015-36.735-87.383-70.176
		c-0.617-1.124-0.206-2.535,0.918-3.152s2.535-0.206,3.152,0.917C-52.856,90.346,34.576,106.42,103.91,90.823
		c12.554-2.713,25.169-6.098,38.525-9.681C186.248,69.388,224.093,64,268.875,64C453.875,64,451.875,244.393,330.379,244.393z"/>
	<path opacity="0.35" clip-path="url(#SVGID_6_)" fill="#F1F2F2" d="M523.852,527.632c-0.115,0-0.233-0.014-0.351-0.041
		c-0.806-0.193-1.303-1.004-1.109-1.809c6.98-29.086,31.337-64.65,72.395-105.705c22.566-23.979,51.476-44.775,85.892-61.781
		c29.943-14.797,63.362-26.443,99.327-34.617c28.418-6.596,58.052-11.916,86.709-17.061c56.332-10.113,114.581-20.57,168.066-41.371
		c59.873-22.809,142.338-71.283,177.734-132.844c0.415-0.719,1.329-0.965,2.049-0.553c0.718,0.414,0.965,1.33,0.553,2.049
		c-35.791,62.244-118.935,111.166-179.258,134.146c-53.747,20.902-112.143,31.387-168.614,41.523
		c-28.621,5.139-58.217,10.453-86.568,17.033c-54.438,12.373-130.496,38.994-183.736,95.562
		c-40.692,40.691-64.781,75.777-71.63,104.316C525.145,527.169,524.529,527.632,523.852,527.632z"/>
	<path opacity="0.5" clip-path="url(#SVGID_6_)" fill="#F1F2F2" d="M298.917,446.834c0.529,0.58,0.83,1.366,0.775,2.211
		c-0.108,1.652-1.537,2.907-3.189,2.799c-13.612-0.887-41.415,7.654-53.384,13.154c-45.802,21.064-78.649,57.511-129.216,69.654
		c-67.445,17.045-139.049,8.862-200.19-1.392c-1.636-0.274-2.736-1.822-2.463-3.455c0.273-1.635,1.819-2.737,3.454-2.463
		c60.528,10.151,131.359,18.265,197.763,1.484c49.435-11.872,82.905-48.474,128.146-69.28c12.005-5.518,42.584-14.584,56.281-13.69
		C297.702,445.908,298.414,446.275,298.917,446.834z"/>
	<path opacity="0.2" clip-path="url(#SVGID_6_)" fill="#F1F2F2" d="M748.377,430.198c0.016,0.261,0.233,0.469,0.499,0.469
		c85.335,0,191.668,79.002,264.001,110.335c43.695,18.928,90.966,17.651,135.388,22.333c27.578,2.906,56.095,5.91,84.661,11.053
		c43.137,9.74,81.832,41.357,106.143,86.74c0.13,0.244,0.435,0.334,0.677,0.203c0.243-0.129,0.335-0.432,0.204-0.676
		c-24.447-45.639-63.384-77.438-106.824-87.246c-28.625-5.154-57.16-8.16-84.755-11.068c-44.376-4.678-91.919-4.945-135.698-23.422
		c-93.796-39.585-168.986-109.175-263.794-109.251c-0.277-0.001-0.501,0.223-0.501,0.5
		C748.375,430.178,748.376,430.188,748.377,430.198z"/>
	<path opacity="0.4" clip-path="url(#SVGID_6_)" fill="#F1F2F2" d="M580.129,295.476c-0.526-0.09-1.079-0.435-1.17-1
		C568.375,228.5,621.541,97.333,830.271,140.347c104.381,21.51,237.006-13.458,278.454-124.716c0.291-0.775,1.154-1.172,1.93-0.881
		c0.776,0.289,1.171,1.153,0.882,1.93c-19.415,52.114-59.996,91.124-117.354,112.815c-48.48,18.332-108.705,24.97-164.416,13.811
		C633.541,104,571.875,226.5,581.801,293.519c0.121,0.821-0.156,1.636-0.942,1.899C580.615,295.502,580.365,295.517,580.129,295.476
		z"/>
	<path opacity="0.1" clip-path="url(#SVGID_6_)" fill="#F1F2F2" d="M-132.012,486.854c-0.6-0.477-0.927-1.26-0.782-2.066
		c11.677-65.635,74.41-126.645,134.25-130.564c52.686-4.668,103.2,3.68,154.378,25.518c41.208,17.584,83.859,44.361,134.229,84.27
		c119.959,95.043,307.804,146.535,436.756,34.99c0.9-0.775,2.263-0.682,3.039,0.221c0.778,0.898,0.679,2.26-0.22,3.039
		c-60.403,52.246-138.427,73.389-225.634,61.145c-73.71-10.35-152.663-45.348-216.617-96.018
		c-79.104-62.676-168.454-119.244-285.6-108.867c-58.096,3.805-118.978,63.16-130.342,127.021c-0.207,1.172-1.325,1.951-2.496,1.742
		C-131.414,487.222-131.741,487.069-132.012,486.854z"/>
</g>
</svg>
