<?xml version="1.0" encoding="utf-8"?>
<!-- Generator: Adobe Illustrator 16.0.0, SVG Export Plug-In . SVG Version: 6.00 Build 0)  -->
<!DOCTYPE svg PUBLIC "-//W3C//DTD SVG 1.1//EN" "http://www.w3.org/Graphics/SVG/1.1/DTD/svg11.dtd">
<svg version="1.1" id="Layer_1" xmlns="http://www.w3.org/2000/svg" xmlns:xlink="http://www.w3.org/1999/xlink" x="0px" y="0px"
	 width="551.305px" height="133.391px" viewBox="0 0 551.305 133.391" enable-background="new 0 0 551.305 133.391"
	 xml:space="preserve">
<g opacity="0.1">
	<defs>
		<path id="SVGID_52_" opacity="0.1" d="M-12.698,381.546c-155.991,59.793-327.486,99.787-479.983,76.897
			c-26.969-4.048-50.717-8.571-71.549-13.49l0.001-221.347c0,0,256.303,73.732,551.535,50.724L-12.698,381.546z"/>
	</defs>
	<clipPath id="SVGID_2_">
		<use xlink:href="#SVGID_52_"  overflow="visible"/>
	</clipPath>
	<polygon clip-path="url(#SVGID_2_)" fill="#F1F2F2" points="459.053,3.722 599.801,246.72 -27.394,219.4 	"/>
</g>
<g opacity="0.1">
	<defs>
		<path id="SVGID_54_" opacity="0.1" d="M551.076-146.385c-31.515-3.368-63.218-3.38-95.498,5.044
			c-84.531,22.059-156.318,58.832-246.555,55.636c-34.396-1.219-131.65-22.584-209.25-20.178l-0.002,40.736
			C78.646-54.09,154.754-21.051,237.879-15.388c52.846,3.601,106.513-27.628,151.994-50.506
			c54.001-27.162,92.821-40.177,153.393-43.569c2.679-0.15,5.358-0.301,8.039-0.451L551.076-146.385z"/>
	</defs>
	<clipPath id="SVGID_4_">
		<use xlink:href="#SVGID_54_"  overflow="visible"/>
	</clipPath>
	<polygon clip-path="url(#SVGID_4_)" fill="#E6E7E8" points="481,-15.103 397.549,-226.654 196.621,12.347 	"/>
	<polygon clip-path="url(#SVGID_4_)" fill="#D1D3D4" points="196.621,12.347 397.549,-226.654 131,-192.78 	"/>
	<polygon clip-path="url(#SVGID_4_)" fill="#F1F2F2" points="196.621,12.347 131,-192.78 17,12.347 	"/>
	<polygon clip-path="url(#SVGID_4_)" fill="#E6E7E8" points="17,12.347 131,-192.78 -73.373,-90.397 	"/>
</g>
<g opacity="0.1">
	<defs>
		<path id="SVGID_58_" opacity="0.1" d="M0,2.108c31.515-3.368,63.218-3.38,95.498,5.044
			c84.531,22.059,156.318,58.832,246.555,55.636c34.396-1.219,131.65-22.584,209.25-20.178l0.002,40.736
			c-78.874,11.057-154.982,44.096-238.107,49.759c-52.846,3.601-106.513-27.628-151.994-50.506
			C107.202,55.438,68.382,42.423,7.811,39.03c-2.679-0.15-5.358-0.301-8.039-0.451L0,2.108z"/>
	</defs>
	<clipPath id="SVGID_6_">
		<use xlink:href="#SVGID_58_"  overflow="visible"/>
	</clipPath>
	<polygon clip-path="url(#SVGID_6_)" fill="#F1F2F2" points="70.076,133.391 153.527,-78.161 -101.741,-11.287 	"/>
	<polygon clip-path="url(#SVGID_6_)" fill="#E6E7E8" points="70.076,133.391 153.527,-78.161 354.455,160.84 	"/>
	<polygon clip-path="url(#SVGID_6_)" fill="#D1D3D4" points="354.455,160.84 153.527,-78.161 420.076,-44.287 	"/>
	<polygon clip-path="url(#SVGID_6_)" fill="#F1F2F2" points="354.455,160.84 420.076,-44.287 534.076,160.84 	"/>
	<polygon clip-path="url(#SVGID_6_)" fill="#E6E7E8" points="534.076,160.84 420.076,-44.287 624.449,58.096 	"/>
</g>
<g opacity="0.1">
	<defs>
		<path id="SVGID_60_" opacity="0.1" d="M551.305,275.951c-31.515,3.369-63.218,3.381-95.498-5.043
			c-84.531-22.059-156.318-58.832-246.555-55.637c-34.396,1.219-131.65,22.584-209.25,20.178L0,194.713
			c78.874-11.057,154.982-44.096,238.107-49.758c52.846-3.602,106.513,27.627,151.994,50.506
			c54.001,27.162,92.821,40.176,153.393,43.568c2.679,0.15,5.358,0.301,8.039,0.451L551.305,275.951z"/>
	</defs>
	<clipPath id="SVGID_8_">
		<use xlink:href="#SVGID_60_"  overflow="visible"/>
	</clipPath>
	<polygon clip-path="url(#SVGID_8_)" fill="#E6E7E8" points="481.229,144.67 397.777,356.221 196.85,117.221 	"/>
	<polygon clip-path="url(#SVGID_8_)" fill="#D1D3D4" points="196.85,117.221 397.777,356.221 131.229,322.348 	"/>
	<polygon clip-path="url(#SVGID_8_)" fill="#F1F2F2" points="196.85,117.221 131.229,322.348 17.229,117.221 	"/>
	<polygon clip-path="url(#SVGID_8_)" fill="#E6E7E8" points="17.229,117.221 131.229,322.348 -73.145,219.965 	"/>
</g>
<g opacity="0.4">
	<defs>
		<rect id="SVGID_64_" x="687.125" y="36.795" opacity="0.4" width="1044.104" height="571.891"/>
	</defs>
	<clipPath id="SVGID_10_">
		<use xlink:href="#SVGID_64_"  overflow="visible"/>
	</clipPath>
	<path opacity="0.5" clip-path="url(#SVGID_10_)" fill="#F1F2F2" d="M289.894,151.739c-0.6-0.477-0.927-1.26-0.782-2.066
		c11.677-65.635,74.41-126.645,134.25-130.564c52.686-4.668,103.2,3.68,154.378,25.518c41.208,17.584,83.859,44.361,134.229,84.27
		c119.959,95.043,307.804,146.535,436.756,34.99c0.9-0.775,2.263-0.682,3.039,0.221c0.778,0.898,0.679,2.26-0.22,3.039
		c-60.403,52.246-138.427,73.389-225.634,61.145c-73.71-10.35-152.663-45.348-216.617-96.018
		c-79.104-62.676-168.454-119.244-285.6-108.867c-58.096,3.805-118.978,63.16-130.342,127.021c-0.207,1.172-1.325,1.951-2.496,1.742
		C290.491,152.106,290.164,151.954,289.894,151.739z"/>
</g>
<g opacity="0.1">
	<defs>
		<path id="SVGID_66_" opacity="0.1" d="M-564.227,126.876c155.992,59.793,327.486,99.787,479.984,76.897
			c26.969-4.048,50.717-8.571,71.549-13.49l-0.002-221.347c0,0-256.303,73.732-551.535,50.724L-564.227,126.876z"/>
	</defs>
	<clipPath id="SVGID_12_">
		<use xlink:href="#SVGID_66_"  overflow="visible"/>
	</clipPath>
	<polygon clip-path="url(#SVGID_12_)" fill="#F1F2F2" points="-186.547,356.478 -233.463,-56.043 206.066,132.702 	"/>
	<polygon clip-path="url(#SVGID_12_)" fill="#E6E7E8" points="206.066,132.702 -233.463,-56.043 3.586,-147.676 	"/>
</g>
</svg>
