<?xml version="1.0" encoding="utf-8"?>
<!-- Generator: Adobe Illustrator 16.0.0, SVG Export Plug-In . SVG Version: 6.00 Build 0)  -->
<!DOCTYPE svg PUBLIC "-//W3C//DTD SVG 1.1//EN" "http://www.w3.org/Graphics/SVG/1.1/DTD/svg11.dtd">
<svg version="1.1" id="Layer_1" xmlns="http://www.w3.org/2000/svg" xmlns:xlink="http://www.w3.org/1999/xlink" x="0px" y="0px"
	 width="1044.104px" height="571.891px" viewBox="0 0 1044.104 571.891" enable-background="new 0 0 1044.104 571.891"
	 xml:space="preserve">
<g>
	<defs>
		<rect id="SVGID_26_" y="-608.685" width="1044.104" height="571.891"/>
	</defs>
	<clipPath id="SVGID_2_">
		<use xlink:href="#SVGID_26_"  overflow="visible"/>
	</clipPath>
	<path opacity="0.5" clip-path="url(#SVGID_2_)" fill="#DFF3FD" d="M-53.152-191.87c-0.383-0.685-0.497-1.518-0.252-2.328
		c0.479-1.585,2.155-2.482,3.741-2.002c13.057,3.951,26.199,7.531,38.907,10.995c48.641,13.251,94.581,25.767,135.631,57.694
		C180.289-85.456,218.589-24.405,248.74,29.764c0.807,1.449,0.284,3.275-1.162,4.081c-1.447,0.807-3.273,0.287-4.08-1.161
		c-29.849-53.627-67.721-114.03-122.277-155.437c-40.132-31.213-85.509-43.575-133.554-56.662
		c-12.747-3.475-25.932-7.066-39.069-11.043C-52.178-190.692-52.787-191.212-53.152-191.87z"/>
	<path opacity="0.5" clip-path="url(#SVGID_2_)" fill="#DFF3FD" d="M747.447,11.442c-0.262,0-0.482-0.205-0.498-0.471
		c-2.638-44.184,18.566-82.244,63.022-113.123c37.524-26.062,84.153-42.619,124.817-55.375
		c45.532-13.939,91.467-18.779,135.889-23.461c27.578-2.906,56.095-5.91,84.661-11.053c43.137-9.74,81.832-41.357,106.143-86.74
		c0.13-0.244,0.435-0.334,0.677-0.203c0.243,0.129,0.335,0.432,0.204,0.676c-24.447,45.639-63.384,77.438-106.824,87.246
		c-28.625,5.154-57.16,8.16-84.755,11.068c-44.377,4.678-90.262,9.512-135.698,23.422C844.99-128.308,742.297-83.728,747.947,10.911
		c0.017,0.277-0.193,0.514-0.47,0.529C747.468,11.442,747.458,11.442,747.447,11.442z"/>
</g>
<g>
	<defs>
		<rect id="SVGID_28_" width="1044.104" height="571.891"/>
	</defs>
	<clipPath id="SVGID_3_">
		<use xlink:href="#SVGID_28_"  overflow="visible"/>
	</clipPath>
	<path opacity="0.5" clip-path="url(#SVGID_3_)" fill="#DFF3FD" d="M606.307,415.098c1.273,0,2.542-0.008,3.811-0.023
		c49.309-0.613,93.57-13.281,131.555-37.648c42.299-27.713,69.785-58.375,66.561-118.023l-0.016-0.205
		c-2.364-23.646-11.901-65.699-49.203-81.686c-2.283-0.977-4.93,0.078-5.908,2.363c-0.979,2.285,0.079,4.93,2.363,5.91
		c33.004,14.143,41.6,52.516,43.782,74.205c2.967,55.473-21.707,83.174-62.475,109.885c-87.016,55.82-189.415,37.084-259.988,11.531
		c-79.4-28.355-136.223-97.678-191.175-164.717c-17.062-20.814-33.178-40.477-50.011-59.061
		C184.462,100.193,119.502,56.72,52.717,35.247C-22.471,11.071-97.464,15.17-164.155,47.097c-2.241,1.072-3.188,3.76-2.115,6.002
		c1.072,2.241,3.76,3.188,6.002,2.115c141.731-67.85,297.588,5.568,389.176,108.429c16.708,18.449,32.756,38.025,49.745,58.752
		c55.73,67.988,113.357,138.291,195.09,167.482C519.979,406.617,564.561,415.098,606.307,415.098z"/>
	<path opacity="0.5" clip-path="url(#SVGID_3_)" fill="#DFF3FD" d="M706.328,98.848c-0.534,0.383-1.064,0.768-1.592,1.154
		c-20.493,15.084-35.244,33.703-43.848,55.342c-9.404,24.34-11.713,45.463,7.574,69.506l0.068,0.082
		c8.102,9.205,24.743,23.973,45.193,19.461c1.25-0.277,2.044-1.516,1.767-2.768c-0.275-1.254-1.515-2.043-2.769-1.768
		c-18.092,3.992-33.233-9.516-40.67-17.955c-17.923-22.369-15.905-41.404-6.84-64.863c19.706-49.572,68.281-72.502,105.559-83.006
		c41.82-11.982,86.492,0.004,129.693,11.594c13.413,3.598,26.082,6.998,38.729,9.73c38.714,8.711,79.026,7.408,113.488-3.666
		c38.799-12.469,69.015-36.736,87.383-70.176c0.617-1.125,0.206-2.535-0.918-3.152s-2.535-0.207-3.152,0.916
		c-39.035,71.066-126.468,87.141-195.802,71.543c-12.554-2.713-25.169-6.098-38.525-9.68
		c-43.812-11.754-89.116-23.91-132.167-11.576C745.079,76.447,723.834,86.295,706.328,98.848z"/>
	<path opacity="0.5" clip-path="url(#SVGID_3_)" fill="#DFF3FD" d="M520.252,527.632c0.115,0,0.233-0.014,0.351-0.041
		c0.806-0.193,1.303-1.004,1.109-1.809c-6.98-29.086-31.337-64.65-72.395-105.705c-22.566-23.979-51.476-44.775-85.892-61.781
		c-29.943-14.797-63.362-26.443-99.327-34.617c-28.418-6.596-58.052-11.916-86.709-17.061
		c-56.332-10.113-114.581-20.57-168.066-41.371c-59.873-22.809-142.338-71.283-177.734-132.844
		c-0.415-0.719-1.329-0.965-2.049-0.553c-0.718,0.414-0.965,1.33-0.553,2.049c35.791,62.244,118.935,111.166,179.258,134.146
		c53.747,20.902,112.143,31.387,168.614,41.523c28.621,5.139,58.217,10.453,86.568,17.033
		c54.438,12.373,130.496,38.994,183.736,95.562c40.692,40.691,64.781,75.777,71.63,104.316
		C518.959,527.169,519.574,527.632,520.252,527.632z"/>
	<path opacity="0.5" clip-path="url(#SVGID_3_)" fill="#DFF3FD" d="M1097.256,416.814c0.383-0.685,0.497-1.518,0.252-2.328
		c-0.479-1.585-2.155-2.482-3.741-2.002c-13.057,3.951-26.199,7.531-38.907,10.995c-48.641,13.251-94.581,25.767-135.631,57.694
		c-55.414,42.055-93.714,103.105-123.865,157.274c-0.807,1.449-0.284,3.275,1.162,4.081c1.447,0.807,3.273,0.287,4.08-1.161
		c29.849-53.627,67.721-114.03,122.277-155.437c40.132-31.213,85.509-43.575,133.554-56.662
		c12.747-3.475,25.932-7.066,39.069-11.043C1096.281,417.992,1096.891,417.473,1097.256,416.814z"/>
	<path opacity="0.5" clip-path="url(#SVGID_3_)" fill="#DFF3FD" d="M296.656,620.127c0.262,0,0.482-0.205,0.498-0.471
		c2.638-44.184-18.566-82.244-63.022-113.123c-37.524-26.062-84.153-42.619-124.817-55.375
		c-45.532-13.939-91.467-18.779-135.889-23.461c-27.578-2.906-56.095-5.91-84.661-11.053c-43.137-9.74-81.832-41.357-106.143-86.74
		c-0.13-0.244-0.435-0.334-0.677-0.203c-0.243,0.129-0.335,0.432-0.204,0.676c24.447,45.639,63.384,77.438,106.824,87.246
		c28.625,5.154,57.16,8.16,84.755,11.068c44.376,4.678,90.262,9.512,135.698,23.422c90.095,28.264,192.788,72.844,187.138,167.482
		c-0.017,0.277,0.193,0.514,0.47,0.529C296.636,620.127,296.646,620.127,296.656,620.127z"/>
	<path opacity="0.5" clip-path="url(#SVGID_3_)" fill="#DFF3FD" d="M584.749,277.643c0.534,0,1.051-0.285,1.321-0.789
		c22.009-40.871,14.152-101.301-16.812-129.316c-26.737-25.33-57.917-42.619-95.294-52.832
		c-30.096-8.222-64.954-12.052-109.703-12.052c-106.574,0-231.366-53.127-253.513-169.771c-0.155-0.813-0.939-1.35-1.754-1.193
		c-0.813,0.154-1.348,0.939-1.193,1.754c10.374,54.637,43.815,99.916,96.709,130.945c44.707,26.225,102.934,41.266,159.751,41.266
		c70.278,0,143.508,7.763,202.959,64.085c30.062,27.199,37.624,85.924,16.21,125.693c-0.394,0.73-0.12,1.639,0.609,2.031
		C584.265,277.586,584.509,277.643,584.749,277.643z"/>
	<path opacity="0.5" clip-path="url(#SVGID_3_)" fill="#DFF3FD" d="M1176.115,486.854c0.6-0.477,0.927-1.26,0.782-2.066
		c-11.677-65.635-74.41-126.645-134.25-130.564c-52.686-4.668-103.2,3.68-154.378,25.518
		c-41.208,17.584-83.859,44.361-134.229,84.27c-119.959,95.043-307.804,146.535-436.756,34.99c-0.9-0.775-2.263-0.682-3.039,0.221
		c-0.778,0.898-0.679,2.26,0.22,3.039c60.403,52.246,138.427,73.389,225.634,61.145c73.71-10.35,152.663-45.348,216.617-96.018
		c79.104-62.676,168.454-119.244,285.6-108.867c58.096,3.805,118.977,63.16,130.342,127.021c0.207,1.172,1.325,1.951,2.496,1.742
		C1175.518,487.222,1175.845,487.069,1176.115,486.854z"/>
</g>
</svg>
