<?xml version="1.0" encoding="utf-8"?>
<!-- Generator: Adobe Illustrator 16.0.0, SVG Export Plug-In . SVG Version: 6.00 Build 0)  -->
<!DOCTYPE svg PUBLIC "-//W3C//DTD SVG 1.1//EN" "http://www.w3.org/Graphics/SVG/1.1/DTD/svg11.dtd">
<svg version="1.1" id="Layer_1" xmlns="http://www.w3.org/2000/svg" xmlns:xlink="http://www.w3.org/1999/xlink" x="0px" y="0px"
	 width="551.076px" height="131.282px" viewBox="0 0 551.076 131.282" enable-background="new 0 0 551.076 131.282"
	 xml:space="preserve">
<g opacity="0.1">
	<defs>
		<path id="SVGID_52_" opacity="0.1" d="M-12.812,90.868c-155.991,59.793-327.486,99.787-479.983,76.897
			c-26.969-4.048-50.717-8.571-71.549-13.49l0.001-221.347c0,0,256.303,73.732,551.535,50.724L-12.812,90.868z"/>
	</defs>
	<clipPath id="SVGID_2_">
		<use xlink:href="#SVGID_52_"  overflow="visible"/>
	</clipPath>
	<polygon clip-path="url(#SVGID_2_)" fill="#E6E7E8" points="599.687,-43.958 -27.508,-71.277 137.933,264.561 	"/>
	<polygon clip-path="url(#SVGID_2_)" fill="#F1F2F2" points="-27.508,-71.277 137.933,264.561 -343.575,-92.051 	"/>
	<polygon clip-path="url(#SVGID_2_)" fill="#D1D3D4" points="-343.575,-92.051 137.933,264.561 -390.491,320.47 	"/>
</g>
<g opacity="0.1">
	<defs>
		<path id="SVGID_56_" opacity="0.1" d="M0,131.283c31.515,3.367,63.218,3.379,95.498-5.045
			c84.531-22.059,156.318-58.832,246.555-55.635c34.396,1.219,131.65,22.584,209.25,20.178l0.002-40.736
			C472.431,38.988,396.322,5.949,313.197,0.285c-52.846-3.6-106.513,27.629-151.994,50.506
			C107.202,77.953,68.382,90.969,7.811,94.361c-2.679,0.15-5.358,0.301-8.039,0.451L0,131.283z"/>
	</defs>
	<clipPath id="SVGID_4_">
		<use xlink:href="#SVGID_56_"  overflow="visible"/>
	</clipPath>
	<polygon clip-path="url(#SVGID_4_)" fill="#F1F2F2" points="70.076,0 153.527,211.553 -101.741,144.678 	"/>
	<polygon clip-path="url(#SVGID_4_)" fill="#E6E7E8" points="70.076,0 153.527,211.553 354.455,-27.449 	"/>
	<polygon clip-path="url(#SVGID_4_)" fill="#D1D3D4" points="354.455,-27.449 153.527,211.553 420.076,177.678 	"/>
	<polygon clip-path="url(#SVGID_4_)" fill="#F1F2F2" points="354.455,-27.449 420.076,177.678 534.076,-27.449 	"/>
	<polygon clip-path="url(#SVGID_4_)" fill="#E6E7E8" points="534.076,-27.449 420.076,177.678 624.449,75.295 	"/>
</g>
<g opacity="0.1">
	<defs>
		<path id="SVGID_60_" opacity="0.1" d="M551.19-14.727c-31.515,3.369-63.218,3.381-95.498-5.043
			c-84.531-22.059-156.318-58.832-246.555-55.637c-34.396,1.219-131.65,22.584-209.25,20.178l-0.002-40.736
			c78.874-11.057,154.982-44.096,238.107-49.758c52.846-3.602,106.513,27.627,151.994,50.506
			c54.001,27.162,92.821,40.176,153.393,43.568c2.679,0.15,5.358,0.301,8.039,0.451L551.19-14.727z"/>
	</defs>
	<clipPath id="SVGID_6_">
		<use xlink:href="#SVGID_60_"  overflow="visible"/>
	</clipPath>
	<polygon clip-path="url(#SVGID_6_)" fill="#F1F2F2" points="481.114,-146.008 397.663,65.543 652.932,-1.33 	"/>
	<polygon clip-path="url(#SVGID_6_)" fill="#E6E7E8" points="481.114,-146.008 397.663,65.543 196.735,-173.457 	"/>
	<polygon clip-path="url(#SVGID_6_)" fill="#D1D3D4" points="196.735,-173.457 397.663,65.543 131.114,31.67 	"/>
	<polygon clip-path="url(#SVGID_6_)" fill="#F1F2F2" points="196.735,-173.457 131.114,31.67 17.114,-173.457 	"/>
	<polygon clip-path="url(#SVGID_6_)" fill="#E6E7E8" points="17.114,-173.457 131.114,31.67 -73.259,-70.713 	"/>
</g>
<g opacity="0.4">
	<defs>
		<rect id="SVGID_64_" x="687.011" y="-253.883" opacity="0.4" width="1044.104" height="571.891"/>
	</defs>
	<clipPath id="SVGID_8_">
		<use xlink:href="#SVGID_64_"  overflow="visible"/>
	</clipPath>
	<path opacity="0.2" clip-path="url(#SVGID_8_)" fill="#F1F2F2" d="M1333.307-20.46c1.234,0.314,2.462,0.636,3.687,0.964
		c47.629,12.774,87.391,35.983,118.179,68.979c34.142,37.303,53.202,73.804,35.344,130.808l-0.065,0.195
		c-8.133,22.329-27.762,60.723-67.857,67c-2.453,0.382-4.757-1.294-5.141-3.75c-0.385-2.456,1.294-4.758,3.75-5.143
		c35.475-5.553,53.283-40.613,60.756-61.091c16.577-53.021-0.489-85.959-33.396-121.912
		c-70.53-75.585-174.385-82.724-249.083-75.396c-83.944,7.863-156.129,61.001-225.938,112.389
		c-21.675,15.954-42.148,31.026-63.05,44.876c-63.744,43.023-137.43,69.104-207.449,73.413
		c-78.829,4.854-150.486-17.642-207.225-65.054c-1.906-1.593-2.16-4.431-0.566-6.338c1.592-1.907,4.431-2.16,6.338-0.567
		c120.579,100.758,289.742,68.114,403.9-8.935c20.747-13.751,41.133-28.756,62.716-44.644
		C1039.003,33.22,1112.21-20.669,1198.62-28.767C1247.559-33.567,1292.854-30.772,1333.307-20.46z"/>
</g>
<g opacity="0.1">
	<defs>
		<path id="SVGID_66_" opacity="0.1" d="M-564.341-163.802c155.992,59.793,327.486,99.787,479.984,76.897
			c26.969-4.048,50.717-8.571,71.549-13.49l-0.002-221.347c0,0-256.303,73.732-551.535,50.724L-564.341-163.802z"/>
	</defs>
	<clipPath id="SVGID_10_">
		<use xlink:href="#SVGID_66_"  overflow="visible"/>
	</clipPath>
	<polygon clip-path="url(#SVGID_10_)" fill="#F1F2F2" points="-186.661,65.8 -233.577,-346.721 205.952,-157.976 	"/>
</g>
</svg>
