<?xml version="1.0" encoding="utf-8"?>
<!-- Generator: Adobe Illustrator 16.0.0, SVG Export Plug-In . SVG Version: 6.00 Build 0)  -->
<!DOCTYPE svg PUBLIC "-//W3C//DTD SVG 1.1//EN" "http://www.w3.org/Graphics/SVG/1.1/DTD/svg11.dtd">
<svg version="1.1" id="Layer_1" xmlns="http://www.w3.org/2000/svg" xmlns:xlink="http://www.w3.org/1999/xlink" x="0px" y="0px"
	 width="512px" height="512px" viewBox="0 0 512 512" enable-background="new 0 0 512 512" xml:space="preserve">
<g opacity="0.5">
	<g opacity="0.1">
		<path fill="#FFF8EA" d="M291.416,193.511c0,1.519-1.231,2.75-2.75,2.75s-2.75-1.231-2.75-2.75c0-0.083,0.004-22.837,0.011-22.919
			c0.125-1.402,1.304-2.502,2.739-2.502c1.407,0,2.568,1.058,2.73,2.421C291.409,170.619,291.416,193.399,291.416,193.511z"/>
		<path fill="#FFF3D0" d="M274.72,225.177c0,1.626-1.317,2.943-2.943,2.943s-2.943-1.317-2.943-2.943
			c0-0.144,0.011-29.597,0.031-29.735c0.205-1.425,1.431-2.52,2.912-2.52c1.504,0,2.743,1.127,2.921,2.582
			C274.712,195.623,274.72,225.055,274.72,225.177z"/>
		<path fill="#FFF3D0" d="M249.5,359c0,1.933-1.566,3.5-3.5,3.5s-3.5-1.567-3.5-3.5c0-0.144,0.009-26.87,0.025-27.01
			c0.21-1.733,1.686-3.075,3.475-3.075c1.764,0,3.224,1.306,3.465,3.003C249.488,332.08,249.5,358.831,249.5,359z"/>
		<path fill="#FFF3D0" d="M109.5,214.685c0,1.933-1.566,3.5-3.5,3.5s-3.5-1.567-3.5-3.5c0-0.106,0.005-28.572,0.014-28.677
			c0.16-1.785,1.659-3.185,3.486-3.185c1.801,0,3.285,1.36,3.479,3.11C109.492,186.062,109.5,214.553,109.5,214.685z"/>
		<path fill="#FFF3D0" d="M94.5,207.771c0,1.518-1.231,2.75-2.75,2.75s-2.75-1.232-2.75-2.75c0-0.105,0.006-38.092,0.018-38.193
			c0.154-1.373,1.319-2.439,2.732-2.439s2.578,1.066,2.732,2.439C94.494,169.68,94.5,207.666,94.5,207.771z"/>
		<path fill="#FFF8EA" d="M167.75,157.5c0,1.242-1.008,2.25-2.25,2.25s-2.25-1.008-2.25-2.25c0-0.129,0.011-36.088,0.031-36.211
			c0.18-1.062,1.105-1.872,2.219-1.872c1.158,0,2.112,0.876,2.236,2.001C167.746,121.5,167.75,157.416,167.75,157.5z"/>
		<path fill="#FFF3D0" d="M254.76,504.27c0,0.966-0.783,1.75-1.75,1.75s-1.75-0.784-1.75-1.75c0-0.122,0.013-27.16,0.037-27.274
			c0.164-0.795,0.868-1.395,1.713-1.395c0.85,0,1.559,0.606,1.717,1.408C254.749,477.119,254.76,504.152,254.76,504.27z"/>
		<path fill="#FFF3D0" d="M103.25,190.28c0,0.759-0.615,1.375-1.375,1.375s-1.375-0.616-1.375-1.375
			c0-0.131,0.018-23.067,0.053-23.188c0.164-0.575,0.693-0.997,1.322-0.997c0.672,0,1.232,0.482,1.352,1.12
			C103.242,167.299,103.25,190.193,103.25,190.28z"/>
		<path fill="#FFF3D0" d="M12,417.844c0,1.933-1.566,3.5-3.5,3.5s-3.5-1.567-3.5-3.5c0-0.279,0.033-22.238,0.094-22.498
			c0.366-1.542,1.752-2.689,3.406-2.689c1.709,0,3.132,1.225,3.439,2.844C11.979,395.713,12,417.62,12,417.844z"/>
		<path fill="#FFF3D0" d="M470.221,103.092c0,1.381-1.119,2.5-2.5,2.5s-2.5-1.119-2.5-2.5c0-0.084,0.004-23.352,0.012-23.434
			c0.126-1.264,1.191-2.25,2.488-2.25c1.208,0,2.216,0.856,2.449,1.996C470.203,79.566,470.221,102.919,470.221,103.092z"/>
		<path fill="#FFF3D0" d="M462.721,81.75c0,0.966-0.783,1.75-1.75,1.75s-1.75-0.784-1.75-1.75c0-0.112,0.011-13.221,0.031-13.328
			c0.153-0.809,0.864-1.422,1.719-1.422c0.859,0,1.574,0.62,1.722,1.438C462.711,68.539,462.721,81.643,462.721,81.75z"/>
		<path fill="#FFF3D0" d="M353.776,45.058c0,1.099-0.891,1.989-1.989,1.989c-1.1,0-1.99-0.891-1.99-1.989
			c0-0.085,0.006-13.18,0.017-13.263c0.123-0.98,0.959-1.737,1.974-1.737c0.965,0,1.77,0.687,1.951,1.599
			C353.764,31.783,353.776,44.924,353.776,45.058z"/>
		<path fill="#FFF3D0" d="M86,59.456c0,1.519-1.231,2.75-2.75,2.75s-2.75-1.231-2.75-2.75c0-0.122,0.008-22.176,0.023-22.294
			c0.176-1.348,1.33-2.391,2.727-2.391c1.375,0,2.516,1.011,2.719,2.33C85.989,37.238,86,59.312,86,59.456z"/>
		<path fill="#FFF8EA" d="M69.965,144.879c0,1.229-0.996,2.225-2.226,2.225c-1.229,0-2.225-0.996-2.225-2.225
			c0-0.132,0.012-24.818,0.034-24.943c0.183-1.045,1.094-1.838,2.19-1.838c1.144,0,2.086,0.862,2.211,1.973
			C69.959,120.152,69.965,144.793,69.965,144.879z"/>
		<path fill="#FFF3D0" d="M316.196,119.017c0,1.657-1.343,3-3,3s-3-1.343-3-3c0-0.097,0.005-14.413,0.014-14.509
			c0.145-1.521,1.426-2.713,2.986-2.713c1.538,0,2.806,1.158,2.979,2.648C316.189,104.559,316.196,118.897,316.196,119.017z"/>
		<path fill="#FFF3D0" d="M350.804,152.438c0,1.553-1.26,2.812-2.812,2.812s-2.812-1.26-2.812-2.812
			c0-0.084,0.004-15.352,0.011-15.434c0.126-1.436,1.333-2.563,2.802-2.563c1.468,0,2.673,1.125,2.801,2.56
			C350.8,137.084,350.804,152.353,350.804,152.438z"/>
		<path fill="#FFF3D0" d="M105.333,353.834c0,0.92-0.746,1.666-1.667,1.666c-0.92,0-1.666-0.746-1.666-1.666
			c0-0.097,0.008-25.173,0.023-25.265c0.135-0.785,0.818-1.384,1.643-1.384c0.829,0,1.517,0.604,1.646,1.397
			C105.326,328.671,105.333,353.742,105.333,353.834z"/>
		<path fill="#FFF3D0" d="M119,346.834c0,0.736-0.598,1.333-1.334,1.333s-1.333-0.597-1.333-1.333
			c0-0.101,0.011-16.431,0.032-16.525c0.134-0.596,0.666-1.04,1.301-1.04c0.553,0,1.026,0.336,1.229,0.814
			C118.963,330.242,119,346.649,119,346.834z"/>
		<path fill="#FFF8EA" d="M185.417,271.159c0,2.117-1.716,3.834-3.833,3.834s-3.834-1.717-3.834-3.834
			c0-0.145,0.008-21.923,0.023-22.063c0.212-1.916,1.837-3.406,3.811-3.406c1.934,0,3.533,1.432,3.795,3.295
			C185.404,249.16,185.417,270.976,185.417,271.159z"/>
		<path fill="#FFF3D0" d="M215.594,489.231c0,1.842-1.492,3.334-3.334,3.334c-1.84,0-3.332-1.492-3.332-3.334
			c0-0.104,0.004-24.096,0.014-24.197c0.156-1.695,1.582-3.024,3.318-3.024c1.696,0,3.096,1.265,3.307,2.902
			C215.585,465.053,215.594,489.085,215.594,489.231z"/>
		<path fill="#FFF3D0" d="M287.166,234.746c0,1.104-0.896,2-2,2s-2-0.896-2-2c0-0.133,0.013-28.006,0.038-28.131
			c0.182-0.918,0.99-1.611,1.962-1.611c1.018,0,1.856,0.76,1.983,1.742C287.16,206.83,287.166,234.658,287.166,234.746z"/>
		<path fill="#FFF8EA" d="M351.53,281.651c1.507-0.014,2.756,1.124,2.909,2.593c0.01,0.091,0.015,28.95,0.016,29.043
			c0.016,1.6-1.268,2.909-2.867,2.925s-2.909-1.268-2.925-2.866c-0.001-0.098,0.003-28.962,0.012-29.057
			C348.805,282.822,350.028,281.667,351.53,281.651z"/>
		<path fill="#FFF3D0" d="M306.282,415.836c1.439-0.019,2.635,1.07,2.773,2.477c0.008,0.078,0.013,16.7,0.014,16.78
			c0.021,1.518-1.194,2.766-2.714,2.785c-1.519,0.021-2.766-1.193-2.785-2.712c-0.002-0.111,0.003-16.764,0.015-16.872
			C303.729,416.928,304.876,415.855,306.282,415.836z"/>
		<path fill="#FFF8EA" d="M333.802,427.178c1.617-0.023,2.974,1.138,3.248,2.68c0.03,0.171,0.047,14.181,0.05,14.359
			c0.026,1.797-1.408,3.272-3.204,3.298c-1.796,0.026-3.271-1.407-3.298-3.204c-0.002-0.134,0.004-14.101,0.018-14.23
			C330.786,428.469,332.14,427.202,333.802,427.178z"/>
		<path fill="#FFF3D0" d="M342.945,417.61c0.975-0.013,1.796,0.675,1.986,1.597c0.025,0.122,0.039,14.771,0.041,14.9
			c0.014,1.104-0.869,2.011-1.974,2.026c-1.105,0.015-2.012-0.869-2.027-1.973c-0.001-0.109,0.007-14.739,0.022-14.845
			C341.135,418.362,341.951,417.624,342.945,417.61z"/>
		<path fill="#FFF8EA" d="M470.853,448.278c-1.562-0.044-2.794-1.347-2.748-2.909c0.003-0.1,0.011-25.797,0.023-25.894
			c0.188-1.421,1.423-2.495,2.886-2.453c1.442,0.041,2.603,1.152,2.737,2.552c0.012,0.117,0.016,25.835,0.012,25.955
			C473.718,447.094,472.415,448.323,470.853,448.278z"/>
		<path fill="#FFF3D0" d="M457.274,461.576c-1.174,0.013-2.136-0.929-2.147-2.102c-0.001-0.111,0.006-14.235,0.021-14.342
			c0.146-1.021,1.019-1.811,2.08-1.82c1.052-0.011,1.933,0.741,2.114,1.742c0.021,0.117,0.033,14.252,0.034,14.375
			C459.389,460.603,458.448,461.563,457.274,461.576z"/>
	</g>
	<g opacity="0.2">
		<path fill="#FFF3D0" d="M497.052,201.865c0,1.594-1.292,2.887-2.887,2.887s-2.888-1.293-2.888-2.887
			c0-0.101,0.005-48.18,0.015-48.277c0.148-1.455,1.378-2.59,2.873-2.59c1.477,0,2.693,1.107,2.866,2.537
			C497.045,153.65,497.052,201.746,497.052,201.865z"/>
		<path fill="#FFF8EA" d="M231,109.159c0,1.657-1.344,3-3,3s-3-1.343-3-3c0-0.108,0.006-23.533,0.018-23.638
			c0.158-1.508,1.434-2.682,2.982-2.682c1.51,0,2.76,1.117,2.969,2.569C230.99,85.55,231,109.013,231,109.159z"/>
		<path fill="#FFF3D0" d="M177.75,67.182c0,1.104-0.896,2-2,2s-2-0.896-2-2c0-0.102,0.008-29.952,0.021-30.049
			c0.145-0.963,0.976-1.702,1.979-1.702c0.957,0,1.757,0.672,1.953,1.569C177.734,37.139,177.75,67.033,177.75,67.182z"/>
		<path fill="#FFF3D0" d="M8.5,423.119c0,0.967-0.783,1.75-1.75,1.75S5,424.086,5,423.119c0-0.108,0.01-67.162,0.029-67.265
			c0.148-0.816,0.863-1.434,1.721-1.434c0.836,0,1.535,0.586,1.709,1.371C8.486,355.914,8.5,422.989,8.5,423.119z"/>
		<path fill="#FFF3D0" d="M431.5,243.25c0,1.104-0.896,2-2,2s-2-0.896-2-2c0-0.147,0.016-22.791,0.046-22.93
			c0.196-0.898,0.997-1.57,1.954-1.57c0.932,0,1.715,0.637,1.938,1.5C431.479,220.41,431.5,243.078,431.5,243.25z"/>
		<path fill="#FFF3D0" d="M436.721,64.781c0,1.174-0.951,2.125-2.125,2.125s-2.125-0.951-2.125-2.125
			c0-0.111,0.009-54.742,0.025-54.85c0.158-1.017,1.038-1.795,2.1-1.795c1.094,0,1.993,0.826,2.111,1.887
			C436.716,10.102,436.721,64.701,436.721,64.781z"/>
		<path fill="#FFF8EA" d="M167,333.873c0,1.841-1.492,3.333-3.333,3.333s-3.333-1.492-3.333-3.333
			c0-0.122,0.006-45.397,0.019-45.516c0.18-1.672,1.595-2.974,3.314-2.974c1.679,0,3.067,1.24,3.3,2.854
			C166.988,288.395,167,333.71,167,333.873z"/>
		<path fill="#FFF8EA" d="M155,337.303c0,1.381-1.119,2.5-2.5,2.5s-2.5-1.119-2.5-2.5c0-0.127,0.01-50.601,0.027-50.723
			c0.18-1.203,1.219-2.126,2.473-2.126c1.208,0,2.217,0.857,2.449,1.996C154.982,286.613,155,337.13,155,337.303z"/>
		<path fill="#FFF3D0" d="M233.562,263.241c0.854-0.016,1.575,0.583,1.744,1.389c0.022,0.106,0.035,42.157,0.037,42.271
			c0.018,0.967-0.753,1.764-1.719,1.78c-0.967,0.017-1.764-0.752-1.781-1.718c0-0.073,0.002-42.086,0.01-42.156
			C231.945,263.939,232.67,263.257,233.562,263.241z"/>
		<path fill="#FFF8EA" d="M197.615,446.056c1.359,0.037,2.467,1.031,2.693,2.32c0.033,0.184,0.047,39.502,0.042,39.696
			c-0.042,1.552-1.335,2.777-2.888,2.736c-1.552-0.044-2.777-1.336-2.735-2.89c0.003-0.098,0.011-39.323,0.022-39.418
			C194.935,447.09,196.16,446.016,197.615,446.056z"/>
		<path fill="#FFF8EA" d="M99.5,276.358c0,1.381-1.119,2.5-2.5,2.5s-2.5-1.119-2.5-2.5c0-0.097,0.006-14.987,0.016-15.081
			c0.143-1.246,1.199-2.215,2.484-2.215c1.268,0,2.316,0.945,2.479,2.168C99.492,261.34,99.5,276.246,99.5,276.358z"/>
		<path fill="#FFF3D0" d="M460.054,406.401c-1.932,0.035-3.529-1.502-3.564-3.435c-0.003-0.14,0.003-42.29,0.017-42.425
			c0.171-1.743,1.625-3.12,3.418-3.153c1.8-0.033,3.31,1.3,3.535,3.048c0.017,0.127,0.026,42.27,0.029,42.4
			C463.523,404.769,461.984,406.365,460.054,406.401z"/>
	</g>
	<g opacity="0.4">
		<path fill="#FFF3D0" d="M397.5,358.006c0,1.519-1.231,2.75-2.75,2.75s-2.75-1.231-2.75-2.75c0-0.107,0.006-68.392,0.018-68.495
			c0.157-1.37,1.321-2.434,2.732-2.434c1.414,0,2.579,1.067,2.732,2.441C397.494,289.62,397.5,357.901,397.5,358.006z"/>
		<path fill="#FFF8EA" d="M312.07,69.693c0,1.656-1.343,3-3,3s-3-1.344-3-3c0-0.088,0.004-48.082,0.011-48.166
			c0.131-1.537,1.419-2.742,2.989-2.742c1.573,0,2.862,1.209,2.989,2.75C312.066,21.617,312.07,69.609,312.07,69.693z"/>
		<path fill="#FFF3D0" d="M326.125,411.497c0,1.174-0.951,2.125-2.125,2.125s-2.125-0.951-2.125-2.125
			c0-0.097,0.007-78.314,0.02-78.408c0.139-1.038,1.028-1.839,2.105-1.839c1.084,0,1.979,0.812,2.108,1.86
			C326.119,333.197,326.125,411.407,326.125,411.497z"/>
		<path fill="#FFF3D0" d="M436.142,499.034c0,1.126-0.912,2.038-2.038,2.038c-1.125,0-2.037-0.912-2.037-2.038
			c0-0.134,0.013-90.751,0.037-90.877c0.183-0.939,1.009-1.647,2-1.647c1.014,0,1.854,0.739,2.012,1.707
			C436.133,408.324,436.142,498.922,436.142,499.034z"/>
		<path fill="#FFF3D0" d="M383.791,473.758c0,1.104-0.896,2-2,2s-2-0.896-2-2c0-0.116,0.01-54.178,0.029-54.289
			c0.162-0.941,0.982-1.658,1.971-1.658c1.008,0,1.841,0.744,1.979,1.714C383.784,419.618,383.791,473.661,383.791,473.758z"/>
		<path fill="#FFF8EA" d="M142.5,145c0,0.828-0.672,1.5-1.5,1.5s-1.5-0.672-1.5-1.5c0-0.105,0.011-39.127,0.031-39.227
			c0.143-0.682,0.746-1.192,1.469-1.192c0.744,0,1.361,0.542,1.48,1.253C142.493,105.914,142.5,144.916,142.5,145z"/>
		<path fill="#FFF3D0" d="M38,358.945c0,1.795-1.455,3.25-3.25,3.25s-3.25-1.455-3.25-3.25c0-0.056,0.002-120.138,0.004-120.193
			c0.088-1.717,1.508-3.083,3.246-3.083c1.749,0,3.176,1.382,3.247,3.113C37.999,238.827,38,358.899,38,358.945z"/>
		<path fill="#FFF8EA" d="M71.281,103.457c0,0.729-0.59,1.318-1.316,1.318c-0.729,0-1.318-0.59-1.318-1.318
			c0-0.069,0.006-52.236,0.016-52.303c0.1-0.631,0.645-1.113,1.303-1.113c0.637,0,1.168,0.452,1.29,1.053
			C71.272,51.18,71.281,103.367,71.281,103.457z"/>
		<path fill="#FFF3D0" d="M427.5,128.282c0,1.226-0.993,2.219-2.218,2.219c-1.226,0-2.219-0.993-2.219-2.219
			c0-0.091,0.006-53.152,0.017-53.239c0.131-1.1,1.067-1.953,2.202-1.953c1.096,0,2.006,0.795,2.186,1.84
			C427.489,75.053,427.5,128.152,427.5,128.282z"/>
		<path fill="#FFF8EA" d="M360.143,205.252c0,1.346-1.092,2.438-2.438,2.438s-2.438-1.092-2.438-2.438
			c0-0.085,0.005-75.734,0.014-75.817c0.126-1.228,1.164-2.185,2.424-2.185c1.261,0,2.3,0.959,2.425,2.186
			C360.139,129.519,360.143,205.168,360.143,205.252z"/>
		<path fill="#FFF3D0" d="M177,318.576c0,0.92-0.746,1.666-1.666,1.666c-0.921,0-1.667-0.746-1.667-1.666
			c0-0.133,0.016-86.158,0.045-86.282c0.175-0.734,0.834-1.28,1.622-1.28c0.799,0,1.468,0.563,1.629,1.316
			C176.987,232.443,177,318.456,177,318.576z"/>
		<path fill="#FFF3D0" d="M489.326,286.253c0,1.104-0.896,2-2,2s-2-0.896-2-2c0-0.116,0.01-39.815,0.029-39.927
			c0.162-0.941,0.982-1.658,1.971-1.658c0.978,0,1.791,0.701,1.966,1.627C489.314,246.416,489.326,286.126,489.326,286.253z"/>
		<path fill="#FFF8EA" d="M253,253.629c0,0.967-0.783,1.75-1.75,1.75s-1.75-0.783-1.75-1.75c0-0.108,0.01-78.723,0.029-78.825
			c0.148-0.815,0.862-1.433,1.721-1.433c0.841,0,1.543,0.592,1.711,1.383C252.986,174.872,253,253.503,253,253.629z"/>
		<path fill="#FFF3D0" d="M227.961,178.548c1.293-0.021,2.372,0.946,2.521,2.202c0.01,0.086,0.016,40.085,0.018,40.172
			c0.021,1.381-1.081,2.518-2.461,2.539c-1.381,0.021-2.518-1.082-2.539-2.463c-0.002-0.104,0.003-40.119,0.014-40.221
			C225.647,179.539,226.686,178.568,227.961,178.548z"/>
		<path fill="#FFF3D0" d="M139.512,386.145c1.626,0.007,2.955,1.256,3.096,2.844c0.008,0.095,0.012,55.831,0.012,55.928
			c-0.007,1.723-1.408,3.113-3.13,3.107c-1.724-0.007-3.114-1.409-3.108-3.131c0.001-0.109,0.007-55.858,0.018-55.965
			C136.566,387.358,137.898,386.14,139.512,386.145z"/>
		<path fill="#FFF3D0" d="M27.967,131.752c1.117,0.008,2.025,0.876,2.104,1.973c0.004,0.055,0.006,65.438,0.006,65.494
			c-0.01,1.174-0.969,2.118-2.145,2.108c-1.172-0.011-2.115-0.97-2.105-2.144c0-0.031,0-65.387,0.002-65.418
			C25.887,132.635,26.826,131.742,27.967,131.752z"/>
		<path fill="#FFF3D0" d="M105.806,405.555c1.239,0.014,2.253,0.951,2.394,2.149c0.013,0.103,0.019,96.057,0.018,96.163
			c-0.014,1.347-1.119,2.426-2.465,2.411c-1.345-0.016-2.425-1.118-2.41-2.464c0.001-0.109,0.01-96.067,0.024-96.173
			C103.537,406.45,104.57,405.54,105.806,405.555z"/>
		<path fill="#FFF3D0" d="M351.895,425.637c0.854,0.006,1.563,0.624,1.71,1.438c0.019,0.105,0.028,48.773,0.027,48.885
			c-0.006,0.966-0.794,1.744-1.761,1.737c-0.967-0.006-1.745-0.795-1.738-1.762c0.001-0.104,0.011-48.766,0.029-48.865
			C350.312,426.25,351.032,425.632,351.895,425.637z"/>
	</g>
</g>
<g opacity="0.1">
	<defs>
		<path id="SVGID_8_" opacity="0.1" d="M1081.306-25.244c-36.621,8.583-80.203,12.209-132.069,8.696
			c-239.725-16.238-262.594-99.568-419.467-85.104l0.005-148.943c73.056-20.831,173.172-47.081,287.805-2.518
			C938-206.299,1018-200.43,1081.301-210.485L1081.306-25.244z"/>
	</defs>
	<clipPath id="SVGID_2_">
		<use xlink:href="#SVGID_8_"  overflow="visible"/>
	</clipPath>
	<polygon clip-path="url(#SVGID_2_)" fill="#F1F2F2" points="731.081,2.962 698.834,-295.068 502.208,-48.168 	"/>
</g>
<g opacity="0.1">
	<defs>
		<path id="SVGID_14_" opacity="0.1" d="M529.773,159.27c155.992,59.793,327.486,99.787,479.984,76.897
			c26.969-4.048,50.717-8.571,71.549-13.49L1081.305,1.33c0,0-256.303,73.732-551.535,50.724L529.773,159.27z"/>
	</defs>
	<clipPath id="SVGID_3_">
		<use xlink:href="#SVGID_14_"  overflow="visible"/>
	</clipPath>
	<polygon clip-path="url(#SVGID_3_)" fill="#F1F2F2" points="58.023,-218.555 -82.725,24.443 544.469,-2.876 	"/>
	<polygon clip-path="url(#SVGID_3_)" fill="#E6E7E8" points="-82.725,24.443 544.469,-2.876 379.029,332.962 	"/>
	<polygon clip-path="url(#SVGID_3_)" fill="#F1F2F2" points="544.469,-2.876 379.029,332.962 860.537,-23.649 	"/>
	<polygon clip-path="url(#SVGID_3_)" fill="#D1D3D4" points="860.537,-23.649 379.029,332.962 907.453,388.871 	"/>
</g>
<g opacity="0.1">
	<defs>
		<path id="SVGID_16_" opacity="0.1" d="M1081.302,413.939c-155.991,59.793-327.486,99.787-479.983,76.897
			c-26.969-4.048-50.717-8.571-71.549-13.49L529.771,256c0,0,256.303,73.732,551.535,50.724L1081.302,413.939z"/>
	</defs>
	<clipPath id="SVGID_5_">
		<use xlink:href="#SVGID_16_"  overflow="visible"/>
	</clipPath>
	<polygon clip-path="url(#SVGID_5_)" fill="#F1F2F2" points="703.623,643.541 750.539,231.021 311.009,419.766 	"/>
	<polygon clip-path="url(#SVGID_5_)" fill="#E6E7E8" points="311.009,419.766 750.539,231.021 513.489,139.388 	"/>
</g>
</svg>
