<?xml version="1.0" encoding="utf-8"?>
<!-- Generator: Adobe Illustrator 16.0.0, SVG Export Plug-In . SVG Version: 6.00 Build 0)  -->
<!DOCTYPE svg PUBLIC "-//W3C//DTD SVG 1.1//EN" "http://www.w3.org/Graphics/SVG/1.1/DTD/svg11.dtd">
<svg version="1.1" id="Layer_1" xmlns="http://www.w3.org/2000/svg" xmlns:xlink="http://www.w3.org/1999/xlink" x="0px" y="0px"
	 width="256px" height="256px" viewBox="0 0 256 256" enable-background="new 0 0 256 256" xml:space="preserve">
<g id="Sun">
	<defs>
		<path id="SVGID_1_" d="M-341.88,1444.084c-390.521,391.604-1023.702,391.604-1414.233-0.018
			c-390.521-391.607-390.521-1026.522,0-1418.155C-1365.582-365.691-732.432-365.691-341.88,25.96
			C48.615,417.515,48.65,1052.459-341.88,1444.084z"/>
	</defs>
	<use xlink:href="#SVGID_1_"  overflow="visible" fill="#F5B81C"/>
	<clipPath id="SVGID_2_">
		<use xlink:href="#SVGID_1_"  overflow="visible"/>
	</clipPath>
	<polygon clip-path="url(#SVGID_2_)" fill="#E27E26" points="-594.077,1188.313 -913.492,-7.869 -662.167,120.755 -463.494,220.727 
		23.7,469.625 	"/>
	<polygon clip-path="url(#SVGID_2_)" fill="#F09121" points="10.085,461.302 -706.434,-291.943 -913.492,-7.869 -671.39,139.343 
		-463.494,220.727 	"/>
	<polygon clip-path="url(#SVGID_2_)" fill="#E37D25" points="-254.33,27.616 25.771,475.183 -463.494,220.727 	"/>
</g>
<g id="asteroid_x5F_c">
	<polygon fill="#524655" points="194.479,48.064 194.479,48.066 116.569,32.338 1.646,76.705 44.369,224.21 205.683,219.615 
		205.721,219.493 205.868,219.775 241.812,156.103 255.004,60.285 	"/>
	<polygon fill="#47394A" points="200.697,116.232 255.004,60.285 241.812,156.103 	"/>
	<polygon fill="#524655" points="205.683,219.615 116.569,32.338 255.004,60.285 	"/>
	<polygon fill="#47394A" points="116.569,32.338 165.5,115.333 205.683,219.615 44.369,224.21 	"/>
	<polygon fill="#9B9198" points="116.569,32.338 44.369,224.21 1.646,76.705 	"/>
	<polygon fill="#47394A" points="116.569,32.338 97.91,128.063 72.334,192.667 44.369,224.21 	"/>
	<polygon fill="#6D5F71" points="238.862,112.327 200.697,116.232 165.5,115.333 174.676,160.166 205.868,219.775 	"/>
	<polygon fill="#3F374A" points="255.004,60.285 238.862,112.327 200.697,116.232 	"/>
	<polygon fill="#9B9198" points="200.697,116.232 194.479,48.064 255.004,60.285 	"/>
	<polygon fill="#9B9198" points="200.697,116.232 203.865,128.838 238.862,112.327 	"/>
	<polygon fill="#47394A" points="203.865,128.838 205.868,219.775 238.862,112.327 	"/>
	<polygon fill="#817188" points="203.865,128.838 174.676,160.166 200.697,116.232 	"/>
	<polygon fill="#524655" points="203.865,128.838 174.676,160.166 205.158,187.673 	"/>
	<polygon fill="#3F374A" points="238.862,112.327 241.812,156.103 205.868,219.775 	"/>
	<polygon fill="#9B9198" points="1.646,76.705 43.623,60.5 9.58,104.095 	"/>
	<polygon fill="#524655" points="43.623,60.5 44.369,224.21 9.58,104.095 	"/>
	<polygon fill="#3F374A" points="44.369,224.21 89.008,222.938 72.334,192.667 	"/>
	<polygon fill="#3F374A" points="97.91,128.063 205.683,219.615 174.676,160.166 165.5,115.333 	"/>
	<polygon fill="#524655" points="97.91,128.063 72.334,192.667 89.008,222.938 	"/>
</g>
</svg>
