<?xml version="1.0" encoding="utf-8"?>
<!-- Generator: Adobe Illustrator 16.0.0, SVG Export Plug-In . SVG Version: 6.00 Build 0)  -->
<!DOCTYPE svg PUBLIC "-//W3C//DTD SVG 1.1//EN" "http://www.w3.org/Graphics/SVG/1.1/DTD/svg11.dtd">
<svg version="1.1" id="Layer_1" xmlns="http://www.w3.org/2000/svg" xmlns:xlink="http://www.w3.org/1999/xlink" x="0px" y="0px"
	 width="512px" height="512px" viewBox="0 0 512 512" enable-background="new 0 0 512 512" xml:space="preserve">
<rect x="-64.393" y="-151.387" display="none" fill="#272727" width="647.968" height="823.458"/>
<image display="none" overflow="visible" width="1089" height="461" xlink:href="../img/stars.png"  transform="matrix(0.9999 0 0 0.9999 -288 26)">
</image>
<circle fill="#FFF2CF" cx="495.875" cy="173.25" r="4.25"/>
<circle fill="#FFF2CF" cx="344.75" cy="205" r="2.75"/>
<circle fill="#FFF8E9" cx="288.666" cy="177.875" r="2.75"/>
<circle fill="#FFF2CF" cx="273.416" cy="205.125" r="4.25"/>
<circle fill="#FFF8E9" cx="313.25" cy="328.75" r="4.25"/>
<circle fill="#FFF2CF" cx="332.625" cy="330.875" r="2.125"/>
<circle fill="#FFF2CF" cx="246" cy="359" r="3.5"/>
<circle fill="#FFF2CF" cx="106" cy="201.5" r="3.5"/>
<circle fill="#FFF2CF" cx="91.75" cy="180.25" r="2.75"/>
<circle fill="#FFF8E9" cx="228" cy="94.5" r="3"/>
<circle fill="#FFF2CF" cx="432.326" cy="354.628" r="4"/>
<circle fill="#FFF2CF" cx="381.791" cy="454.091" r="2"/>
<circle fill="#FFF8E9" cx="165.5" cy="157.5" r="2.25"/>
<circle fill="#FFF2CF" cx="253.01" cy="497.101" r="1.75"/>
<circle fill="#FFF2CF" cx="101.875" cy="178.875" r="1.375"/>
<circle fill="#FFF8E9" cx="141" cy="145" r="1.5"/>
<circle fill="#FFF2CF" cx="175.75" cy="51.489" r="2"/>
<circle fill="#FFF2CF" cx="34.75" cy="302.25" r="3.25"/>
<circle fill="#FFF2CF" cx="8.5" cy="407" r="3.5"/>
<circle fill="#FFF2CF" cx="6.75" cy="397.25" r="1.75"/>
<circle fill="#FFF2CF" cx="429.5" cy="234" r="2"/>
<circle fill="#FFF2CF" cx="467.721" cy="89" r="2.5"/>
<circle fill="#FFF2CF" cx="460.971" cy="75.25" r="1.75"/>
<circle fill="#FFF8E9" cx="398.817" cy="80.75" r="3.75"/>
<circle fill="#FFF2CF" cx="348.969" cy="33.745" r="4.219"/>
<circle fill="#FFF8E9" cx="123" cy="85.239" r="6"/>
<circle fill="#FFF2CF" cx="83.25" cy="48.489" r="2.75"/>
<circle fill="#FFF2CF" cx="434.596" cy="12.599" r="2.125"/>
<circle fill="#FFF8E9" cx="64.938" cy="127.574" r="4.688"/>
<circle fill="#FFF2CF" cx="234.7" cy="61.75" r="3.5"/>
<circle fill="#FFF2CF" cx="313.196" cy="108.906" r="3"/>
<circle fill="#FFF8E9" cx="357.705" cy="159.75" r="2.438"/>
<circle fill="#FFF2CF" cx="347.991" cy="152.438" r="2.813"/>
<circle fill="#FFF2CF" cx="103.666" cy="353.834" r="1.667"/>
<circle fill="#FFF2CF" cx="117.667" cy="346.834" r="1.333"/>
<circle fill="#FFF8E9" cx="173.667" cy="200.875" r="3.833"/>
<circle fill="#FFF8E9" cx="163.667" cy="311.295" r="3.333"/>
<circle fill="#FFF8E9" cx="152.5" cy="312.128" r="2.5"/>
<circle fill="#FFF2CF" cx="175.333" cy="284.295" r="1.667"/>
<circle fill="#FFF2CF" cx="212.261" cy="483.434" r="3.333"/>
<circle fill="#FFF2CF" cx="487.326" cy="275.628" r="2"/>
<circle fill="#FFF2CF" cx="285.166" cy="214.375" r="2"/>
<circle fill="#FFF8E9" cx="251.25" cy="219.125" r="1.75"/>
<circle fill="#FFF8E9" cx="353.455" cy="303.281" r="4.25"/>
<circle fill="#FFF2CF" cx="306.319" cy="429.9" r="2.75"/>
<circle fill="#FFF8E9" cx="335.248" cy="441.661" r="4.25"/>
<circle fill="#FFF2CF" cx="246.403" cy="283.25" r="2.5"/>
<circle fill="#FFF2CF" cx="233.594" cy="291.649" r="1.75"/>
<circle fill="#FFF2CF" cx="219.464" cy="366.221" r="3.75"/>
<circle fill="#FFF2CF" cx="160.763" cy="444.083" r="4.219"/>
<circle fill="#FFF2CF" cx="27.95" cy="157.944" r="2.125"/>
<circle fill="#FFF2CF" cx="105.779" cy="496.542" r="2.437"/>
<circle fill="#FFF8E9" cx="197.54" cy="477.288" r="2.813"/>
<circle fill="#FFF2CF" cx="342.972" cy="428.857" r="2"/>
<circle fill="#FFF2CF" cx="351.883" cy="461.924" r="1.75"/>
<circle fill="#FFF8E9" cx="97" cy="268.961" r="2.5"/>
<circle fill="#FFF8E9" cx="471.182" cy="440.158" r="4.25"/>
<circle fill="#FFF2CF" cx="457.251" cy="453.792" r="2.125"/>
<circle fill="#FFF2CF" cx="459.988" cy="389.645" r="3.5"/>
</svg>
