<?xml version="1.0" encoding="utf-8"?>
<!-- Generator: Adobe Illustrator 16.0.0, SVG Export Plug-In . SVG Version: 6.00 Build 0)  -->
<!DOCTYPE svg PUBLIC "-//W3C//DTD SVG 1.1//EN" "http://www.w3.org/Graphics/SVG/1.1/DTD/svg11.dtd">
<svg version="1.1" id="Layer_1" xmlns="http://www.w3.org/2000/svg" xmlns:xlink="http://www.w3.org/1999/xlink" x="0px" y="0px"
	 width="2400px" height="2400px" viewBox="0 0 2400 2400" enable-background="new 0 0 2400 2400" xml:space="preserve">
<rect x="-2358.537" y="-342.335" display="none" width="4781.037" height="2764.835"/>
<g id="Sun">
	<defs>
		<path id="SVGID_53_" d="M2046.423,2048.772c-467.455,468.749-1225.371,468.749-1692.837-0.021
			c-467.454-468.754-467.454-1228.745,0-1697.53c467.466-468.748,1225.346-468.748,1692.837,0.059
			C2513.845,819.972,2513.886,1579.998,2046.423,2048.772z"/>
	</defs>
	<use xlink:href="#SVGID_53_"  overflow="visible" fill="#B54E09"/>
	<clipPath id="SVGID_2_">
		<use xlink:href="#SVGID_53_"  overflow="visible"/>
	</clipPath>
	<polygon clip-path="url(#SVGID_2_)" fill="#F39712" points="1742.786,1730.552 861.147,2452.564 363.07,1310.943 	"/>
	<polygon clip-path="url(#SVGID_2_)" fill="#A34D08" points="1964.215,1982.993 1742.786,1730.552 861.147,2452.564 	"/>
	<polygon clip-path="url(#SVGID_2_)" fill="#E37D13" points="1744.542,1742.615 1362.203,310.788 1900.85,584.416 2484.021,882.347 
			"/>
	<polygon clip-path="url(#SVGID_2_)" fill="#EDA717" points="1362.203,310.788 1742.786,1730.552 363.07,1310.943 	"/>
	<polygon clip-path="url(#SVGID_2_)" fill="#F09018" points="2467.724,872.384 1610.052,-29.25 1362.203,310.788 1663.039,464.751 
		1900.85,584.416 	"/>
	<polygon clip-path="url(#SVGID_2_)" fill="#DC7312" points="2479.724,872.384 2316.271,1544.491 1964.215,1982.993 
		1742.786,1730.552 	"/>
	<polygon clip-path="url(#SVGID_2_)" fill="#A34B09" points="861.147,2452.564 252.935,2055.045 -120.106,1322.432 363.07,1310.943 
			"/>
	<polygon clip-path="url(#SVGID_2_)" fill="#FBCE29" points="1628.622,-27.042 1362.203,310.788 637.667,284.333 304.685,269.947 	
		"/>
	<polygon clip-path="url(#SVGID_2_)" fill="#FDDB41" points="1362.203,310.788 366.508,1318.537 267.68,957.945 212.917,771.733 
		298.148,267.811 637.667,284.333 	"/>
	<polygon clip-path="url(#SVGID_2_)" fill="#FBB71A" points="366.508,1318.537 -120.106,1322.432 301.321,250.74 216.242,771.917 
		273.621,954.388 	"/>
	<polygon clip-path="url(#SVGID_2_)" fill="#DA590C" points="1626.267,-29.96 2151.219,353.263 1900.85,584.416 	"/>
	<polygon clip-path="url(#SVGID_2_)" fill="#E57C0F" points="2151.219,353.263 2486.5,889 1900.85,584.416 	"/>
	<polygon clip-path="url(#SVGID_2_)" fill="#EB7C11" points="252.935,2055.045 369.273,1318.111 -121.109,1322.338 	"/>
	<polygon clip-path="url(#SVGID_2_)" fill="#FFC440" points="1362.203,310.788 1016.38,863.999 935.366,612.738 	"/>
	<polygon clip-path="url(#SVGID_2_)" fill="#ECA92B" points="2238.023,1153.289 1906.426,1071.231 1773.784,1081.388 
		1742.786,1730.552 	"/>
	<polygon clip-path="url(#SVGID_2_)" fill="#E2680B" points="2486.294,876.521 2238.023,1153.289 1906.426,1071.231 	"/>
	<polygon clip-path="url(#SVGID_2_)" fill="#DA6B0D" points="2238.023,1153.289 2174.705,1435.72 1742.786,1730.552 	"/>
	<polygon clip-path="url(#SVGID_2_)" fill="#983D0A" points="2490.104,870.511 2377.352,1594.547 2174.705,1435.72 	"/>
	<polygon clip-path="url(#SVGID_2_)" fill="#904608" points="2127.809,2159.63 2377.352,1594.547 2315.195,1545.831 	"/>
	<polygon clip-path="url(#SVGID_2_)" fill="#A34D08" points="1964.215,1982.993 2126.5,2164.75 2315.195,1545.831 	"/>
	<polygon clip-path="url(#SVGID_2_)" fill="#9B440B" points="2127.809,2159.63 1511.992,2422.613 1572.018,2210.008 	"/>
	<polygon clip-path="url(#SVGID_2_)" fill="#B54E09" points="871.414,2451.48 1517.399,2422.637 1572.018,2210.008 	"/>
	<polygon clip-path="url(#SVGID_2_)" fill="#FED72F" points="296.954,258.83 637.667,284.333 315.319,421.4 	"/>
	<polygon clip-path="url(#SVGID_2_)" fill="#FFB718" points="296.954,258.83 853.716,-11.449 960.513,122.83 	"/>
	<polygon clip-path="url(#SVGID_2_)" fill="#FCCF2E" points="960.513,122.83 637.667,284.333 296.954,258.83 	"/>
	<polygon clip-path="url(#SVGID_2_)" fill="#FAC050" points="296.954,258.83 171.81,384.167 226.655,458.968 	"/>
	<polygon clip-path="url(#SVGID_2_)" fill="#F8C22D" points="1642.018,-26.744 1155.517,79.086 867.413,-8.045 	"/>
	<polygon clip-path="url(#SVGID_2_)" fill="#F0C376" points="315.022,398.507 63.877,658.88 171.81,384.167 	"/>
	<polygon clip-path="url(#SVGID_2_)" fill="#FFF3B3" points="-121.109,1322.338 63.877,658.88 115.961,736.373 	"/>
	<polygon clip-path="url(#SVGID_2_)" fill="#FEDB31" points="293.479,405.169 359.154,606.47 63.877,658.88 	"/>
	<polygon clip-path="url(#SVGID_2_)" fill="#F6A310" points="366.508,1318.537 737.085,1425.835 535.779,1234.027 	"/>
	<polygon clip-path="url(#SVGID_2_)" fill="#EF8D10" points="737.085,1425.835 637.331,1940.665 366.508,1318.537 	"/>
	<polygon clip-path="url(#SVGID_2_)" fill="#EE9B16" points="861.147,2452.564 575.654,1938.985 366.508,1318.537 	"/>
	<polygon clip-path="url(#SVGID_2_)" fill="#E48B19" points="1964.215,1982.993 1453.861,1965.995 1742.786,1730.552 	"/>
	<polygon clip-path="url(#SVGID_2_)" fill="#E1780E" points="1742.786,1730.552 1572.018,2210.008 855.731,2454.605 	"/>
	<polygon clip-path="url(#SVGID_2_)" fill="#F9C434" points="252.935,2055.045 575.654,1938.985 366.508,1318.537 	"/>
	<polygon clip-path="url(#SVGID_2_)" fill="#E98A13" points="1219.207,1571.317 855.731,2454.605 1742.786,1730.552 	"/>
	<polygon clip-path="url(#SVGID_2_)" fill="#FFECDF" points="216.242,771.917 40.017,730.948 66.562,654.498 205.448,590.595 
		286.8,646.337 	"/>
	<polygon clip-path="url(#SVGID_2_)" fill="#FDD323" points="286.8,646.337 205.371,587.487 488.363,573.862 	"/>
	<polygon clip-path="url(#SVGID_2_)" fill="#FDD97C" points="748.174,521.58 630.605,553.233 688.998,692.929 791.97,535.264 	"/>
	<polygon clip-path="url(#SVGID_2_)" fill="#904608" points="654.056,742.702 625.828,931.404 839.493,1035.142 	"/>
	<polygon clip-path="url(#SVGID_2_)" fill="#FAD038" points="625.828,931.404 532.051,1024.077 839.493,1035.142 	"/>
	<polygon clip-path="url(#SVGID_2_)" fill="#FDD721" points="935.366,612.738 1016.38,863.999 839.493,1035.142 654.056,742.702 
		791.97,535.264 	"/>
	<polygon clip-path="url(#SVGID_2_)" fill="#FFE234" points="487.841,573.279 216.242,771.917 286.8,646.337 	"/>
	<polygon clip-path="url(#SVGID_2_)" fill="#F5B315" points="730.521,1423.979 535.779,1234.027 532.051,1024.077 839.493,1035.142 
		928.011,1052.755 834.712,1218.79 	"/>
	<polygon clip-path="url(#SVGID_2_)" fill="#F8C529" points="928.011,1052.755 1016.38,863.999 1191.439,957.087 	"/>
	<polygon clip-path="url(#SVGID_2_)" fill="#F5BB2A" points="1378.3,930.843 1457.115,1106.619 1409.061,1178.916 1191.439,957.087 
			"/>
	<polygon clip-path="url(#SVGID_2_)" fill="#EA9D1A" points="1742.786,1730.552 1409.061,1178.916 1589.603,907.294 
		1788.298,1012.305 	"/>
	<polygon clip-path="url(#SVGID_2_)" fill="#FAC924" points="1191.439,957.087 834.712,1218.79 928.011,1052.755 	"/>
	<polygon clip-path="url(#SVGID_2_)" fill="#FCCE1C" points="791.97,535.264 1362.203,310.788 935.366,612.738 	"/>
	<polygon clip-path="url(#SVGID_2_)" fill="#FACB1C" points="748.174,521.58 637.667,284.333 1362.203,310.788 793.309,539.343 	"/>
	<polygon clip-path="url(#SVGID_2_)" fill="#FCCA25" points="489.118,573.279 421.728,372.224 303.971,421.922 318.871,589.66 	"/>
	<polygon clip-path="url(#SVGID_2_)" fill="#F0A113" points="1457.115,1106.619 1906.426,1071.231 1663.039,464.751 	"/>
	<polygon clip-path="url(#SVGID_2_)" fill="#F1B118" points="1457.115,1106.619 1378.3,930.843 1663.039,464.751 	"/>
	<polygon clip-path="url(#SVGID_2_)" fill="#F7B81D" points="1663.039,464.751 1016.38,863.999 1191.439,957.087 1378.3,930.843 	
		"/>
	<polygon clip-path="url(#SVGID_2_)" fill="#9E410B" points="1906.426,1071.231 1900.85,584.416 2172.119,722.219 	"/>
	<polygon clip-path="url(#SVGID_2_)" fill="#EFA41A" points="1409.061,1178.916 1219.207,1571.317 1191.439,957.087 	"/>
	<polygon clip-path="url(#SVGID_2_)" fill="#F6B71D" points="834.712,1218.79 730.521,1423.979 1219.207,1571.317 	"/>
	<polygon clip-path="url(#SVGID_2_)" fill="#FCD679" points="532.051,1024.077 366.508,1318.537 535.779,1234.027 	"/>
	<polygon clip-path="url(#SVGID_2_)" fill="#DB9429" points="625.828,931.404 216.242,771.917 532.051,1024.077 	"/>
	<polygon clip-path="url(#SVGID_2_)" fill="#FCD127" points="216.242,771.917 654.056,742.702 688.962,691.075 630.605,553.233 
		487.841,573.279 488.363,573.805 	"/>
	<polygon clip-path="url(#SVGID_2_)" fill="#E7800E" points="637.331,1940.665 1219.207,1571.317 856.817,2480.867 	"/>
</g>
</svg>
