<?xml version="1.0" encoding="utf-8"?>
<!-- Generator: Adobe Illustrator 16.0.0, SVG Export Plug-In . SVG Version: 6.00 Build 0)  -->
<!DOCTYPE svg PUBLIC "-//W3C//DTD SVG 1.1//EN" "http://www.w3.org/Graphics/SVG/1.1/DTD/svg11.dtd">
<svg version="1.1" xmlns="http://www.w3.org/2000/svg" xmlns:xlink="http://www.w3.org/1999/xlink" x="0px" y="0px"
	 width="1401.859px" height="522.728px" viewBox="0 0 1401.859 522.728" enable-background="new 0 0 1401.859 522.728"
	 xml:space="preserve">
<g id="Layer_1">
	<g opacity="0.8">
		<polygon fill="#E3E6EA" points="1348.969,223.243 1181.727,51.272 1032.721,84.94 988.709,5.274 982.988,4.632 742.916,77.476 
			540.91,147.237 513.281,202.79 335.953,264.896 236.471,316.647 237.268,316.704 236.413,316.819 0,397.774 250.135,517.376 
			496.64,522.728 758.298,501.237 1216.381,508.907 1401.859,429.987 		"/>
		<g>
			<polygon fill="#C4DCE8" points="250.135,517.376 496.64,522.728 0,397.774 			"/>
			<polygon fill="#CEDFE9" points="988.709,5.274 1047.25,300.122 1032.721,84.94 			"/>
			<polygon fill="#DBE4E9" points="758.298,501.237 1047.25,300.122 988.709,5.274 982.988,4.632 			"/>
			<polygon fill="#D6E2E9" points="758.298,501.237 1216.381,508.907 1047.25,300.122 			"/>
			<polygon fill="#DBE4E9" points="1216.381,508.907 1401.859,429.987 1348.969,223.243 			"/>
			<polygon fill="#CEDFE9" points="1047.25,300.122 1348.969,223.243 1181.727,51.272 			"/>
			<polygon fill="#E8E7E8" points="1047.25,300.122 1216.381,508.907 1348.969,223.243 			"/>
			<polygon fill="#CEDFE9" points="0,397.774 496.64,522.728 642.422,291.679 540.91,147.237 513.281,202.79 335.953,264.896 
				237.32,316.698 236.413,316.819 			"/>
			<polygon fill="#D6E2E9" points="540.91,147.237 641.823,292.394 742.916,77.476 			"/>
			<polygon fill="#DBE4E9" points="641.823,292.394 335.953,264.896 513.281,202.79 			"/>
			<polygon fill="#DBE4E9" points="236.471,316.647 405.812,311.354 335.953,264.896 			"/>
			<polygon fill="#E3E6EA" points="641.823,292.394 405.812,311.354 496.64,522.728 			"/>
			<polygon fill="#DBE4E9" points="0,397.774 496.64,522.728 405.812,311.354 			"/>
			<polygon fill="#D6E2E9" points="496.64,522.728 758.298,501.237 641.823,292.394 			"/>
			<polygon fill="#E3E6EA" points="641.823,292.394 758.298,501.237 982.988,4.632 742.916,77.476 			"/>
			<polygon fill="#E3E6EA" points="1047.25,300.122 1181.727,51.272 1032.721,84.94 			"/>
			<polygon fill="#E3E6EA" points="1047.25,300.122 1216.381,508.907 1348.969,223.243 			"/>
		</g>
	</g>
</g>
<g id="Layer_2">
</g>
</svg>
