<?xml version="1.0" encoding="utf-8"?>
<!-- Generator: Adobe Illustrator 16.0.0, SVG Export Plug-In . SVG Version: 6.00 Build 0)  -->
<!DOCTYPE svg PUBLIC "-//W3C//DTD SVG 1.1//EN" "http://www.w3.org/Graphics/SVG/1.1/DTD/svg11.dtd">
<svg version="1.1" id="Layer_1" xmlns="http://www.w3.org/2000/svg" xmlns:xlink="http://www.w3.org/1999/xlink" x="0px" y="0px"
	 width="1500px" height="1500px" viewBox="0 0 1500 1500" enable-background="new 0 0 1500 1500" xml:space="preserve">
<g id="Uranus">
	<g id="FG_4_">
		<g>
			<defs>
				<circle id="SVGID_1_" cx="1273.845" cy="536.718" r="65.345"/>
			</defs>
			<clipPath id="SVGID_2_">
				<use xlink:href="#SVGID_1_"  overflow="visible"/>
			</clipPath>
			<polygon clip-path="url(#SVGID_2_)" fill="#E0B553" points="1292.546,455.791 1304.008,443.22 1295.922,436.882 
				1284.744,444.466 			"/>
			<polygon clip-path="url(#SVGID_2_)" fill="#46442D" points="1260.293,589.452 1175.481,555.728 1236.025,476.228 			"/>
			<polygon clip-path="url(#SVGID_2_)" fill="#6B6331" points="1245.065,632.743 1260.293,589.452 1175.481,555.728 			"/>
			<path clip-path="url(#SVGID_2_)" fill="#47452B" d="M1349.483,607.895"/>
			<polygon clip-path="url(#SVGID_2_)" fill="#47452B" points="1260.293,589.452 1345.167,507.468 1349.483,607.895 			"/>
			<polygon clip-path="url(#SVGID_2_)" fill="#26322C" points="1345.167,507.468 1260.293,589.452 1236.025,476.228 			"/>
			<polygon clip-path="url(#SVGID_2_)" fill="#26322C" points="1349.483,607.895 1379.158,512.476 1345.167,507.468 			"/>
			<line clip-path="url(#SVGID_2_)" fill="#736D2E" x1="1245.065" y1="632.743" x2="1260.293" y2="589.452"/>
			<polygon clip-path="url(#SVGID_2_)" fill="#292F32" points="1175.481,555.728 1216.334,442.721 1236.025,476.228 			"/>
			<path clip-path="url(#SVGID_2_)" fill="#0B132D" d="M1342.685,491.409"/>
			<polygon clip-path="url(#SVGID_2_)" fill="#0B132D" points="1379.158,512.476 1345.167,507.468 1306.598,431.01 			"/>
			<g clip-path="url(#SVGID_2_)">
				<g>
					<path fill="#0B132D" d="M1285.123,456.784c0.858,0,2.002-1.303,0.696-1.303
						C1284.961,455.481,1283.816,456.784,1285.123,456.784L1285.123,456.784z"/>
				</g>
			</g>
			<polygon clip-path="url(#SVGID_2_)" fill="#0D1225" points="1345.167,507.468 1236.025,476.228 1306.598,431.01 			"/>
			<polygon clip-path="url(#SVGID_2_)" fill="#0D1321" points="1236.025,476.228 1216.334,442.721 1306.598,431.01 			"/>
			<line clip-path="url(#SVGID_2_)" fill="#8E8239" x1="1302.782" y1="598.153" x2="1349.596" y2="607.783"/>
			<polygon clip-path="url(#SVGID_2_)" fill="#D1BC9D" points="1260.194,588.906 1175.38,555.183 1235.925,475.685 			"/>
			<polygon clip-path="url(#SVGID_2_)" fill="#AEAFA5" points="1244.963,632.198 1260.194,588.906 1175.38,555.183 			"/>
			<path clip-path="url(#SVGID_2_)" fill="#47452B" d="M1349.383,607.351"/>
			<polygon clip-path="url(#SVGID_2_)" fill="#B59F7B" points="1260.194,588.906 1345.067,506.925 1349.383,607.351 			"/>
			<path clip-path="url(#SVGID_2_)" fill="#26322C" d="M1235.925,475.685"/>
			<polygon clip-path="url(#SVGID_2_)" fill="#B69C74" points="1345.067,506.925 1260.194,588.906 1235.925,475.685 			"/>
			<polygon clip-path="url(#SVGID_2_)" fill="#9B735F" points="1349.383,607.351 1379.056,511.933 1345.067,506.925 			"/>
			<polygon clip-path="url(#SVGID_2_)" fill="#C5C6A0" points="1349.383,607.351 1301.232,622.161 1244.963,632.198 
				1260.194,588.906 			"/>
			<polygon clip-path="url(#SVGID_2_)" fill="#97969B" points="1175.38,555.183 1179.467,496.944 1216.232,442.174 
				1235.925,475.685 			"/>
			<path clip-path="url(#SVGID_2_)" fill="#0B132D" d="M1342.583,490.864"/>
			<polygon clip-path="url(#SVGID_2_)" fill="#85674D" points="1379.158,512.476 1345.167,507.468 1306.598,431.01 			"/>
			<g clip-path="url(#SVGID_2_)">
				<g>
					<path fill="#0B132D" d="M1285.024,456.242c0.858,0,2.002-1.303,0.696-1.303
						C1284.862,454.939,1283.718,456.242,1285.024,456.242L1285.024,456.242z"/>
				</g>
			</g>
			<polygon clip-path="url(#SVGID_2_)" fill="#BD9D76" points="1345.067,506.925 1235.925,475.685 1256.935,455.223 
				1267.845,444.114 1306.498,430.462 			"/>
			<polygon clip-path="url(#SVGID_2_)" fill="#B4AC99" points="1235.526,476.221 1216.232,442.174 1307.814,430.022 
				1267.815,444.473 1257.417,455.505 			"/>
			<line clip-path="url(#SVGID_2_)" fill="#8E8239" x1="1302.676" y1="597.613" x2="1349.494" y2="607.243"/>
			<polygon clip-path="url(#SVGID_2_)" fill="#A09D97" points="1379.271,512.2 1372.927,564.028 1347.045,555.779 			"/>
			<polygon clip-path="url(#SVGID_2_)" fill="#C7C2B5" points="1372.927,564.028 1349.352,607.969 1347.105,555.351 			"/>
			<polygon clip-path="url(#SVGID_2_)" fill="#B3B4AD" points="1179.467,496.944 1235.658,476.4 1216.202,442.102 			"/>
			<polygon clip-path="url(#SVGID_2_)" fill="#97724A" points="1345.007,506.925 1292.781,504.176 1307.226,488.69 			"/>
			<polygon clip-path="url(#SVGID_2_)" fill="#FFFAEC" points="1320.251,601.313 1305.386,545.148 1260.14,589.058 			"/>
			<polygon clip-path="url(#SVGID_2_)" fill="#D0C6AB" points="1349.352,607.969 1320.251,601.313 1313.042,574.807 			"/>
			<g clip-path="url(#SVGID_2_)">
				<g>
					<path fill="#5B622B" d="M1305.239,564.261c0.596,0,2.098-0.902,0.804-0.902
						C1305.447,563.358,1303.945,564.261,1305.239,564.261L1305.239,564.261z"/>
				</g>
			</g>
			<polygon clip-path="url(#SVGID_2_)" fill="#CAC29A" points="1320.251,601.313 1297.981,607.865 1260.14,589.058 			"/>
			<path clip-path="url(#SVGID_2_)" fill="#32311A" d="M1349.918,608.003"/>
			<path clip-path="url(#SVGID_2_)" fill="#38371F" d="M1349.352,607.969"/>
			<polygon clip-path="url(#SVGID_2_)" fill="#ACB3AE" points="1349.918,608.003 1294.771,628.301 1297.981,607.865 			"/>
			<polygon clip-path="url(#SVGID_2_)" fill="#A8B4A1" points="1244.786,632.781 1294.771,628.301 1295.652,622.194 			"/>
			<polygon clip-path="url(#SVGID_2_)" fill="#92AC99" points="1251.4,614.408 1244.374,632.892 1295.892,622.058 			"/>
			<polygon clip-path="url(#SVGID_2_)" fill="#ADBBB6" points="1244.786,632.781 1202.91,599.757 1220.16,595.688 			"/>
			<polygon clip-path="url(#SVGID_2_)" fill="#A2A5A7" points="1175.857,555.863 1203.125,600.142 1220.16,595.688 			"/>
			<polygon clip-path="url(#SVGID_2_)" fill="#9C989B" points="1307.076,430.033 1347.781,458.625 1342.809,471.187 			"/>
			<polygon clip-path="url(#SVGID_2_)" fill="#B0ABA3" points="1342.809,471.187 1319.344,455.03 1307.076,430.033 			"/>
			<polygon clip-path="url(#SVGID_2_)" fill="#957259" points="1347.781,458.625 1353.382,483.087 1342.809,471.187 			"/>
			<polygon clip-path="url(#SVGID_2_)" fill="#849391" points="1307.076,430.033 1293.398,426.123 1290.306,432.892 			"/>
			<polygon clip-path="url(#SVGID_2_)" fill="#8F888F" points="1379.662,513.433 1353.473,484.483 1348.078,459.723 			"/>
			<polygon clip-path="url(#SVGID_2_)" fill="#8B998F" points="1297.994,436.744 1269.926,429.244 1293.398,426.123 			"/>
			<polygon clip-path="url(#SVGID_2_)" fill="#FFEDCE" points="1216.202,442.102 1269.926,429.244 1266.534,435.923 			"/>
			<polygon clip-path="url(#SVGID_2_)" fill="#B2AF9D" points="1296.687,435.487 1285.144,447.95 1269.926,429.244 			"/>
			<polygon clip-path="url(#SVGID_2_)" fill="#CDB797" points="1236.025,476.228 1242.487,506.45 1248.105,484.565 			"/>
			<polygon clip-path="url(#SVGID_2_)" fill="#AE9274" points="1242.487,506.45 1201.628,520.657 1236.025,476.228 			"/>
			<polygon clip-path="url(#SVGID_2_)" fill="#978067" points="1175.38,555.183 1200.215,515.101 1236.025,476.228 			"/>
			<polygon clip-path="url(#SVGID_2_)" fill="#CED0C5" points="1251.4,614.408 1232.646,577.878 1260.437,589.005 			"/>
			<polygon clip-path="url(#SVGID_2_)" fill="#C3C6C5" points="1260.643,589.032 1220.16,595.688 1175.022,554.88 			"/>
			<polygon clip-path="url(#SVGID_2_)" fill="#927873" points="1179.467,496.944 1200.215,515.101 1236.025,476.228 			"/>
			<polygon clip-path="url(#SVGID_2_)" fill="#C3B7A1" points="1250.976,545.873 1175.022,554.88 1260.194,588.906 			"/>
			<path clip-path="url(#SVGID_2_)" fill="#26322C" d="M1252.773,426.054"/>
			<polygon clip-path="url(#SVGID_2_)" fill="#A2A999" points="1267.962,444.357 1263.946,430.373 1270.341,429.264 
				1280.25,436.533 1279.518,444.419 			"/>
			<polygon clip-path="url(#SVGID_2_)" fill="#BFB59A" points="1279.518,444.419 1280.463,436.404 1292.479,455.759 			"/>
			<polygon clip-path="url(#SVGID_2_)" fill="#EBCBAB" points="1306.293,471.979 1299.484,464.956 1291.976,474.5 1307.049,475.593 
							"/>
			<polygon clip-path="url(#SVGID_2_)" fill="#BAA689" points="1287.628,474.211 1272.792,479.356 1273.872,498.419 			"/>
			<polygon clip-path="url(#SVGID_2_)" fill="#DEC382" points="1272.792,479.356 1262.63,476.377 1273.872,498.355 			"/>
			<polygon clip-path="url(#SVGID_2_)" fill="#B69169" points="1307.226,488.69 1292.781,504.176 1273.872,498.419 
				1287.123,473.987 1307.049,475.593 			"/>
			<polygon clip-path="url(#SVGID_2_)" fill="#C2AC8D" points="1292.5,455.705 1267.855,444.357 1279.518,444.419 			"/>
			<path clip-path="url(#SVGID_2_)" fill="#26322C" d="M1241.062,481.273"/>
			<polygon clip-path="url(#SVGID_2_)" fill="#B68E65" points="1242.359,505.913 1248.063,484.287 1263.049,476.504 
				1273.943,497.959 1276.097,505.327 			"/>
			<polygon clip-path="url(#SVGID_2_)" fill="#A9845B" points="1276.097,505.327 1292.781,504.176 1293.099,520.109 			"/>
			<polygon clip-path="url(#SVGID_2_)" fill="#D3AF76" points="1302.244,532.221 1292.583,544.629 1286.053,544.05 
				1293.099,520.109 			"/>
			<polygon clip-path="url(#SVGID_2_)" fill="#A9A198" points="1313.349,545.323 1302.244,532.221 1292.409,544.72 
				1312.152,546.153 			"/>
			<polyline clip-path="url(#SVGID_2_)" fill="#C8A87A" points="1312.386,563.308 1260.583,588.765 1286.053,544.05 
				1312.152,546.153 1312.554,564.209 			"/>
			<polygon clip-path="url(#SVGID_2_)" fill="#C5A77E" points="1293.099,520.109 1260.813,505.239 1276.097,505.327 			"/>
			<polygon clip-path="url(#SVGID_2_)" fill="#A68666" points="1307.049,475.593 1345.041,506.934 1307.226,488.69 			"/>
			<polygon clip-path="url(#SVGID_2_)" fill="#B6A790" points="1306.293,471.979 1318.641,454.599 1345.041,506.934 
				1306.814,475.847 			"/>
			<polygon clip-path="url(#SVGID_2_)" fill="#B5946C" points="1292.859,544.253 1313.042,574.807 1346.034,534.067 			"/>
			<polygon clip-path="url(#SVGID_2_)" fill="#A6794E" points="1292.583,544.629 1302.244,532.221 1346.034,534.067 			"/>
			<polygon clip-path="url(#SVGID_2_)" fill="#C9AE8A" points="1346.034,534.067 1292.781,504.176 1293.099,520.109 
				1302.244,532.221 			"/>
			<polygon clip-path="url(#SVGID_2_)" fill="#A47751" points="1313.042,574.807 1347.105,555.351 1348.9,580.023 			"/>
			<polygon clip-path="url(#SVGID_2_)" fill="#C4A678" points="1286.053,544.05 1250.976,545.873 1293.099,520.109 			"/>
			<polygon clip-path="url(#SVGID_2_)" fill="#DFCEAB" points="1260.813,505.239 1242.359,505.913 1250.976,545.873 			"/>
			<polygon clip-path="url(#SVGID_2_)" fill="#EAE2CB" points="1262.63,476.377 1236.025,476.228 1248.063,484.827 			"/>
			<polygon clip-path="url(#SVGID_2_)" fill="#777964" points="1272.792,479.356 1267.855,444.357 1262.63,476.377 			"/>
			<polygon clip-path="url(#SVGID_2_)" fill="#B6926A" points="1267.845,444.114 1287.123,473.987 1292.105,474.428 
				1299.484,464.956 1292.5,455.705 1292.483,455.759 			"/>
			<polygon clip-path="url(#SVGID_2_)" fill="#B4A391" points="1202.744,519.592 1250.976,545.873 1173.224,555.987 			"/>
			<polygon clip-path="url(#SVGID_2_)" fill="#BBAE97" points="1303.103,418.719 1319.344,455.03 1294.531,434.894 			"/>
			
				<linearGradient id="SVGID_3_" gradientUnits="userSpaceOnUse" x1="1310.4067" y1="-109.4644" x2="1722.9238" y2="-109.4644" gradientTransform="matrix(0.9747 -0.2237 0.2237 0.9747 -181.5231 965.42)">
				<stop  offset="0" style="stop-color:#26A9E0"/>
				<stop  offset="0.2221" style="stop-color:#297FC4"/>
				<stop  offset="0.4416" style="stop-color:#2B5DAE"/>
				<stop  offset="0.6494" style="stop-color:#2D459E"/>
				<stop  offset="0.8407" style="stop-color:#2E3694"/>
				<stop  offset="1" style="stop-color:#2E3191"/>
			</linearGradient>
			<circle opacity="0.4" clip-path="url(#SVGID_2_)" fill="url(#SVGID_3_)" cx="1272.283" cy="519.448" r="206.267"/>
		</g>
		<g>
			<defs>
				<path id="SVGID_4_" d="M86.463,563.05c0-22.488,18.228-40.714,40.711-40.714c22.485,0,40.711,18.227,40.711,40.714
					c0,22.48-18.227,40.709-40.711,40.709C104.691,603.759,86.463,585.53,86.463,563.05z"/>
			</defs>
			<clipPath id="SVGID_5_">
				<use xlink:href="#SVGID_4_"  overflow="visible"/>
			</clipPath>
			<polygon clip-path="url(#SVGID_5_)" fill="#E0B553" points="142.55,513.433 149.873,505.4 144.706,501.351 137.565,506.198 			
				"/>
			<polygon clip-path="url(#SVGID_5_)" fill="#46442D" points="121.94,598.832 67.752,577.286 106.436,526.489 			"/>
			<polygon clip-path="url(#SVGID_5_)" fill="#6B6331" points="112.21,626.496 121.94,598.832 67.752,577.286 			"/>
			<path clip-path="url(#SVGID_5_)" fill="#47452B" d="M178.928,610.616"/>
			<polygon clip-path="url(#SVGID_5_)" fill="#47452B" points="121.94,598.832 176.171,546.448 178.928,610.616 			"/>
			<polygon clip-path="url(#SVGID_5_)" fill="#26322C" points="176.171,546.448 121.94,598.832 106.436,526.489 			"/>
			<polygon clip-path="url(#SVGID_5_)" fill="#26322C" points="178.928,610.616 197.887,549.648 176.171,546.448 			"/>
			<line clip-path="url(#SVGID_5_)" fill="#736D2E" x1="112.21" y1="626.496" x2="121.94" y2="598.832"/>
			<polygon clip-path="url(#SVGID_5_)" fill="#292F32" points="67.752,577.286 93.854,505.08 106.436,526.489 			"/>
			<path clip-path="url(#SVGID_5_)" fill="#0B132D" d="M174.583,536.186"/>
			<polygon clip-path="url(#SVGID_5_)" fill="#0B132D" points="197.887,549.648 176.171,546.448 151.528,497.597 			"/>
			<g clip-path="url(#SVGID_5_)">
				<g>
					<path fill="#0B132D" d="M137.681,514.302c0.858,0,2.002-1.303,0.696-1.303C137.52,513,136.375,514.302,137.681,514.302
						L137.681,514.302z"/>
				</g>
			</g>
			<polygon clip-path="url(#SVGID_5_)" fill="#0D1225" points="176.171,546.448 106.436,526.489 151.528,497.597 			"/>
			<polygon clip-path="url(#SVGID_5_)" fill="#0D1321" points="106.436,526.489 93.854,505.08 151.528,497.597 			"/>
			<line clip-path="url(#SVGID_5_)" fill="#8E8239" x1="149.088" y1="604.393" x2="178.998" y2="610.541"/>
			<polygon clip-path="url(#SVGID_5_)" fill="#7E7165" points="121.879,598.485 67.688,576.939 106.372,526.143 			"/>
			<polygon clip-path="url(#SVGID_5_)" fill="#837F84" points="112.146,626.146 121.879,598.485 67.688,576.939 			"/>
			<path clip-path="url(#SVGID_5_)" fill="#47452B" d="M178.866,610.269"/>
			<polygon clip-path="url(#SVGID_5_)" fill="#DBCAC5" points="121.879,598.485 176.106,546.101 178.866,610.269 			"/>
			<path clip-path="url(#SVGID_5_)" fill="#26322C" d="M106.372,526.143"/>
			<polygon clip-path="url(#SVGID_5_)" fill="#695B48" points="176.106,546.101 121.879,598.485 106.372,526.143 			"/>
			<polygon clip-path="url(#SVGID_5_)" fill="#DECEC0" points="178.866,610.269 197.824,549.304 176.106,546.101 			"/>
			<polygon clip-path="url(#SVGID_5_)" fill="#D1C4C8" points="178.866,610.269 148.099,619.731 112.146,626.146 121.879,598.485 
							"/>
			<polygon clip-path="url(#SVGID_5_)" fill="#3F3A2F" points="67.688,576.939 70.298,539.727 93.788,504.732 106.372,526.143 			
				"/>
			<path clip-path="url(#SVGID_5_)" fill="#0B132D" d="M174.52,535.841"/>
			<polygon clip-path="url(#SVGID_5_)" fill="#8A786A" points="197.887,549.648 176.171,546.448 151.528,497.597 			"/>
			<g clip-path="url(#SVGID_5_)">
				<g>
					<path fill="#0B132D" d="M137.615,513.956c0.858,0,2.002-1.303,0.696-1.303C137.453,512.653,136.309,513.956,137.615,513.956
						L137.615,513.956z"/>
				</g>
			</g>
			<polygon clip-path="url(#SVGID_5_)" fill="#4F423F" points="176.106,546.101 106.372,526.143 119.797,513.068 126.767,505.97 
				151.46,497.25 			"/>
			<polygon clip-path="url(#SVGID_5_)" fill="#675E5C" points="106.115,526.485 93.788,504.732 152.303,496.968 126.748,506.202 
				120.104,513.249 			"/>
			<line clip-path="url(#SVGID_5_)" fill="#8E8239" x1="149.021" y1="604.048" x2="178.934" y2="610.199"/>
			<polygon clip-path="url(#SVGID_5_)" fill="#C5B3B2" points="197.96,549.474 193.908,582.59 177.371,577.321 			"/>
			<polygon clip-path="url(#SVGID_5_)" fill="#FFFBF6" points="193.908,582.59 178.844,610.664 177.408,577.042 			"/>
			<polygon clip-path="url(#SVGID_5_)" fill="#494139" points="70.298,539.727 106.203,526.6 93.771,504.684 			"/>
			<polygon clip-path="url(#SVGID_5_)" fill="#85796B" points="176.066,546.101 142.7,544.347 151.929,534.454 			"/>
			<polygon clip-path="url(#SVGID_5_)" fill="#FFFAEC" points="160.252,606.412 150.752,570.525 121.843,598.581 			"/>
			<polygon clip-path="url(#SVGID_5_)" fill="#E8D9D5" points="178.844,610.664 160.252,606.412 155.645,589.476 			"/>
			<g clip-path="url(#SVGID_5_)">
				<g>
					<path fill="#5B622B" d="M150.513,582.9c0.595,0,2.098-0.902,0.804-0.902C150.722,581.998,149.219,582.9,150.513,582.9
						L150.513,582.9z"/>
				</g>
			</g>
			<polygon clip-path="url(#SVGID_5_)" fill="#C3B9BC" points="160.252,606.412 146.024,610.599 121.843,598.581 			"/>
			<path clip-path="url(#SVGID_5_)" fill="#32311A" d="M179.209,610.685"/>
			<path clip-path="url(#SVGID_5_)" fill="#38371F" d="M178.844,610.664"/>
			<polygon clip-path="url(#SVGID_5_)" fill="#E0D6DE" points="179.209,610.685 143.971,623.655 146.024,610.599 			"/>
			<polygon clip-path="url(#SVGID_5_)" fill="#A8B4A1" points="112.033,626.521 143.971,623.655 144.533,619.753 			"/>
			<polygon clip-path="url(#SVGID_5_)" fill="#988D95" points="116.258,614.776 111.773,626.588 144.688,619.665 			"/>
			<polygon clip-path="url(#SVGID_5_)" fill="#ADBBB6" points="112.033,626.521 85.28,605.415 96.299,602.817 			"/>
			<polygon clip-path="url(#SVGID_5_)" fill="#A2A5A7" points="67.99,577.372 85.414,605.663 96.299,602.817 			"/>
			<polygon clip-path="url(#SVGID_5_)" fill="#AB9FA8" points="151.833,496.974 177.839,515.244 174.667,523.269 			"/>
			<polygon clip-path="url(#SVGID_5_)" fill="#BDAFB9" points="174.667,523.269 159.671,512.945 151.833,496.974 			"/>
			<polygon clip-path="url(#SVGID_5_)" fill="#77655E" points="177.839,515.244 181.422,530.873 174.667,523.269 			"/>
			<polygon clip-path="url(#SVGID_5_)" fill="#849391" points="151.833,496.974 143.093,494.476 141.116,498.8 			"/>
			<polygon clip-path="url(#SVGID_5_)" fill="#8F888F" points="198.21,550.263 181.479,531.765 178.029,515.944 			"/>
			<polygon clip-path="url(#SVGID_5_)" fill="#B2A9B0" points="146.029,501.263 128.099,496.47 143.093,494.476 			"/>
			<polygon clip-path="url(#SVGID_5_)" fill="#FFEDCE" points="93.771,504.684 128.099,496.47 125.929,500.738 			"/>
			<polygon clip-path="url(#SVGID_5_)" fill="#867D83" points="145.194,500.46 137.819,508.42 128.099,496.47 			"/>
			<polygon clip-path="url(#SVGID_5_)" fill="#847A69" points="106.436,526.489 110.566,545.8 114.155,531.815 			"/>
			<polygon clip-path="url(#SVGID_5_)" fill="#514738" points="110.566,545.8 84.457,554.875 106.436,526.489 			"/>
			<polygon clip-path="url(#SVGID_5_)" fill="#4C4235" points="67.688,576.939 83.555,551.33 106.436,526.489 			"/>
			<polygon clip-path="url(#SVGID_5_)" fill="#CED0C5" points="116.258,614.776 104.277,591.44 122.032,598.545 			"/>
			<polygon clip-path="url(#SVGID_5_)" fill="#C3C6C5" points="122.167,598.563 96.299,602.817 67.459,576.745 			"/>
			<polygon clip-path="url(#SVGID_5_)" fill="#3C3828" points="70.298,539.727 83.555,551.33 106.436,526.489 			"/>
			<polygon clip-path="url(#SVGID_5_)" fill="#887F86" points="115.99,570.992 67.459,576.745 121.879,598.485 			"/>
			<path clip-path="url(#SVGID_5_)" fill="#26322C" d="M117.137,494.434"/>
			<polygon clip-path="url(#SVGID_5_)" fill="#978E98" points="126.839,506.127 124.276,497.19 128.361,496.482 134.694,501.125 
				134.225,506.167 			"/>
			<polygon clip-path="url(#SVGID_5_)" fill="#87807E" points="134.225,506.167 134.827,501.046 142.506,513.415 			"/>
			<polygon clip-path="url(#SVGID_5_)" fill="#938374" points="151.334,523.779 146.98,519.288 142.184,525.387 151.815,526.085 			
				"/>
			<polygon clip-path="url(#SVGID_5_)" fill="#463A2D" points="139.409,525.199 129.926,528.488 130.617,540.668 			"/>
			<polygon clip-path="url(#SVGID_5_)" fill="#5F5447" points="129.926,528.488 123.434,526.587 130.617,540.628 			"/>
			<polygon clip-path="url(#SVGID_5_)" fill="#52463A" points="151.929,534.454 142.7,544.347 130.617,540.668 139.084,525.058 
				151.815,526.085 			"/>
			<polygon clip-path="url(#SVGID_5_)" fill="#887F85" points="142.519,513.376 126.772,506.125 134.225,506.167 			"/>
			<path clip-path="url(#SVGID_5_)" fill="#26322C" d="M109.654,529.715"/>
			<polygon clip-path="url(#SVGID_5_)" fill="#716453" points="110.483,545.46 114.128,531.637 123.704,526.666 130.659,540.375 
				132.038,545.081 			"/>
			<polygon clip-path="url(#SVGID_5_)" fill="#85796F" points="132.038,545.081 142.7,544.347 142.901,554.526 			"/>
			<polygon clip-path="url(#SVGID_5_)" fill="#9E9188" points="148.745,562.264 142.573,570.194 138.401,569.825 142.901,554.526 
							"/>
			<polygon clip-path="url(#SVGID_5_)" fill="#A9A198" points="155.841,570.636 148.745,562.264 142.461,570.254 155.076,571.168 
							"/>
			<polyline clip-path="url(#SVGID_5_)" fill="#978776" points="155.224,582.126 122.129,598.392 138.401,569.825 155.076,571.168 
				155.332,582.705 			"/>
			<polygon clip-path="url(#SVGID_5_)" fill="#968776" points="142.901,554.526 122.272,545.027 132.038,545.081 			"/>
			<polygon clip-path="url(#SVGID_5_)" fill="#7C6D62" points="151.815,526.085 176.09,546.109 151.929,534.454 			"/>
			<polygon clip-path="url(#SVGID_5_)" fill="#B6A790" points="151.334,523.779 159.223,512.668 176.09,546.109 151.667,526.246 			
				"/>
			<polygon clip-path="url(#SVGID_5_)" fill="#C5B6AD" points="142.75,569.953 155.645,589.476 176.724,563.447 			"/>
			<polygon clip-path="url(#SVGID_5_)" fill="#9A8A7B" points="142.573,570.194 148.745,562.264 176.724,563.447 			"/>
			<polygon clip-path="url(#SVGID_5_)" fill="#7C6B5B" points="176.724,563.447 142.7,544.347 142.901,554.526 148.745,562.264 			
				"/>
			<polygon clip-path="url(#SVGID_5_)" fill="#BFAF9E" points="155.645,589.476 177.408,577.042 178.556,592.813 			"/>
			<polygon clip-path="url(#SVGID_5_)" fill="#B9AA9B" points="138.401,569.825 115.99,570.992 142.901,554.526 			"/>
			<polygon clip-path="url(#SVGID_5_)" fill="#948577" points="122.272,545.027 110.483,545.46 115.99,570.992 			"/>
			<polygon clip-path="url(#SVGID_5_)" fill="#463A2D" points="123.434,526.587 106.436,526.489 114.128,531.983 			"/>
			<polygon clip-path="url(#SVGID_5_)" fill="#71676A" points="129.926,528.488 126.772,506.125 123.434,526.587 			"/>
			<polygon clip-path="url(#SVGID_5_)" fill="#5B4D3D" points="126.767,505.97 139.084,525.058 142.267,525.34 146.98,519.288 
				142.519,513.376 142.51,513.415 			"/>
			<polygon clip-path="url(#SVGID_5_)" fill="#716A5E" points="85.173,554.195 115.99,570.992 66.31,577.449 			"/>
			<polygon clip-path="url(#SVGID_5_)" fill="#8D7F89" points="149.293,489.746 159.671,512.945 143.816,500.081 			"/>
			<circle opacity="0.3" clip-path="url(#SVGID_5_)" fill="#D8CEC5" cx="142.64" cy="556.51" r="116.434"/>
		</g>
		<circle fill="#7E7165" cx="965.616" cy="992.697" r="25.797"/>
		<g>
			<defs>
				<path id="SVGID_6_" d="M1180.297,1182.96c-4.9-17.248,6.234-35.519,24.866-40.812c18.633-5.294,37.71,4.395,42.61,21.643
					c4.899,17.242-6.234,35.514-24.868,40.808C1204.274,1209.892,1185.195,1200.203,1180.297,1182.96z"/>
			</defs>
			<clipPath id="SVGID_7_">
				<use xlink:href="#SVGID_6_"  overflow="visible"/>
			</clipPath>
			<polygon clip-path="url(#SVGID_7_)" fill="#E0B553" points="1215.965,1131.7 1220.284,1123.815 1215.12,1121.925 
				1210.258,1127.325 			"/>
			<polygon clip-path="url(#SVGID_7_)" fill="#46442D" points="1217.494,1202.052 1167.893,1198.286 1188.881,1150.216 			"/>
			<polygon clip-path="url(#SVGID_7_)" fill="#6B6331" points="1215.458,1225.561 1217.494,1202.052 1167.893,1198.286 			"/>
			<path clip-path="url(#SVGID_7_)" fill="#47452B" d="M1267.288,1197.673"/>
			<polygon clip-path="url(#SVGID_7_)" fill="#47452B" points="1217.494,1202.052 1251.022,1149.107 1267.288,1197.673 			"/>
			<polygon clip-path="url(#SVGID_7_)" fill="#26322C" points="1251.022,1149.107 1217.494,1202.052 1188.881,1150.216 			"/>
			<polygon clip-path="url(#SVGID_7_)" fill="#26322C" points="1267.288,1197.673 1269.715,1146.448 1251.022,1149.107 			"/>
			<line clip-path="url(#SVGID_7_)" fill="#736D2E" x1="1215.458" y1="1225.561" x2="1217.494" y2="1202.052"/>
			<polygon clip-path="url(#SVGID_7_)" fill="#292F32" points="1167.893,1198.286 1173.79,1136.758 1188.881,1150.216 			"/>
			<path clip-path="url(#SVGID_7_)" fill="#0B132D" d="M1247.47,1141.61"/>
			<polygon clip-path="url(#SVGID_7_)" fill="#0B132D" points="1269.715,1146.448 1251.022,1149.107 1219.956,1117.44 			"/>
			<g clip-path="url(#SVGID_7_)">
				<g>
					<path fill="#0B132D" d="M1211.918,1133.583c0.858,0,2.002-1.303,0.696-1.303
						C1211.756,1132.28,1210.612,1133.583,1211.918,1133.583L1211.918,1133.583z"/>
				</g>
			</g>
			<polygon clip-path="url(#SVGID_7_)" fill="#0D1225" points="1251.022,1149.107 1188.881,1150.216 1219.956,1117.44 			"/>
			<polygon clip-path="url(#SVGID_7_)" fill="#0D1321" points="1188.881,1150.216 1173.79,1136.758 1219.956,1117.44 			"/>
			<line clip-path="url(#SVGID_7_)" fill="#8E8239" x1="1241.204" y1="1199.927" x2="1267.33" y2="1197.6"/>
			<polygon clip-path="url(#SVGID_7_)" fill="#7E7165" points="1217.368,1201.801 1167.764,1198.033 1188.753,1149.965 			"/>
			<polygon clip-path="url(#SVGID_7_)" fill="#837F84" points="1215.33,1225.307 1217.368,1201.801 1167.764,1198.033 			"/>
			<path clip-path="url(#SVGID_7_)" fill="#47452B" d="M1267.161,1197.422"/>
			<polygon clip-path="url(#SVGID_7_)" fill="#DBCAC5" points="1217.368,1201.801 1250.892,1148.856 1267.161,1197.422 			"/>
			<path clip-path="url(#SVGID_7_)" fill="#26322C" d="M1188.753,1149.965"/>
			<polygon clip-path="url(#SVGID_7_)" fill="#695B48" points="1250.892,1148.856 1217.368,1201.801 1188.753,1149.965 			"/>
			<polygon clip-path="url(#SVGID_7_)" fill="#DECEC0" points="1267.161,1197.422 1269.588,1146.2 1250.892,1148.856 			"/>
			<polygon clip-path="url(#SVGID_7_)" fill="#D1C4C8" points="1267.161,1197.422 1243.726,1211.924 1215.33,1225.307 
				1217.368,1201.801 			"/>
			<polygon clip-path="url(#SVGID_7_)" fill="#3F3A2F" points="1167.764,1198.033 1161.818,1168.877 1173.66,1136.507 
				1188.753,1149.965 			"/>
			<path clip-path="url(#SVGID_7_)" fill="#0B132D" d="M1247.342,1141.36"/>
			<polygon clip-path="url(#SVGID_7_)" fill="#8A786A" points="1269.715,1146.448 1251.022,1149.107 1219.956,1117.44 			"/>
			<g clip-path="url(#SVGID_7_)">
				<g>
					<path fill="#0B132D" d="M1211.789,1133.333c0.858,0,2.002-1.303,0.696-1.303
						C1211.627,1132.031,1210.482,1133.333,1211.789,1133.333L1211.789,1133.333z"/>
				</g>
			</g>
			<polygon clip-path="url(#SVGID_7_)" fill="#4F423F" points="1250.892,1148.856 1188.753,1149.965 1197.03,1136.778 
				1201.259,1129.692 1219.823,1117.19 			"/>
			<polygon clip-path="url(#SVGID_7_)" fill="#675E5C" points="1188.616,1150.289 1173.66,1136.507 1220.46,1116.775 
				1201.295,1129.875 1197.324,1136.843 			"/>
			<line clip-path="url(#SVGID_7_)" fill="#8E8239" x1="1241.073" y1="1199.678" x2="1267.202" y2="1197.353"/>
			<polygon clip-path="url(#SVGID_7_)" fill="#C5B3B2" points="1269.738,1146.298 1273.596,1172.651 1258.743,1172.505 			"/>
			<polygon clip-path="url(#SVGID_7_)" fill="#FFFBF6" points="1273.596,1172.651 1267.229,1197.73 1258.713,1172.282 			"/>
			<polygon clip-path="url(#SVGID_7_)" fill="#494139" points="1161.818,1168.877 1188.713,1150.357 1173.635,1136.474 			"/>
			<polygon clip-path="url(#SVGID_7_)" fill="#85796B" points="1250.859,1148.866 1222.826,1155.375 1228.319,1145.615 			"/>
			<polygon clip-path="url(#SVGID_7_)" fill="#FFFAEC" points="1250.895,1198.847 1235.203,1173.558 1217.358,1201.882 			"/>
			<polygon clip-path="url(#SVGID_7_)" fill="#E8D9D5" points="1267.229,1197.73 1250.895,1198.847 1243.387,1186.941 			"/>
			<g clip-path="url(#SVGID_7_)">
				<g>
					<path fill="#5B622B" d="M1237.534,1183.117c0.596,0,2.098-0.902,0.804-0.902
						C1237.742,1182.214,1236.24,1183.117,1237.534,1183.117L1237.534,1183.117z"/>
				</g>
			</g>
			<polygon clip-path="url(#SVGID_7_)" fill="#C3B9BC" points="1250.895,1198.847 1240.017,1205.408 1217.358,1201.882 			"/>
			<path clip-path="url(#SVGID_7_)" fill="#32311A" d="M1267.536,1197.661"/>
			<path clip-path="url(#SVGID_7_)" fill="#38371F" d="M1267.229,1197.73"/>
			<polygon clip-path="url(#SVGID_7_)" fill="#E0D6DE" points="1267.536,1197.661 1241.16,1215.905 1240.017,1205.408 			"/>
			<polygon clip-path="url(#SVGID_7_)" fill="#A8B4A1" points="1215.316,1225.623 1241.16,1215.905 1240.776,1212.78 			"/>
			<polygon clip-path="url(#SVGID_7_)" fill="#988D95" points="1216.26,1215.62 1215.117,1225.734 1240.884,1212.675 			"/>
			<polygon clip-path="url(#SVGID_7_)" fill="#ADBBB6" points="1215.316,1225.623 1188.547,1215.733 1197.113,1211.146 			"/>
			<polygon clip-path="url(#SVGID_7_)" fill="#A2A5A7" points="1168.109,1198.295 1188.713,1215.892 1197.113,1211.146 			"/>
			<polygon clip-path="url(#SVGID_7_)" fill="#AB9FA8" points="1220.073,1116.891 1245.604,1124.781 1244.725,1131.683 			"/>
			<polygon clip-path="url(#SVGID_7_)" fill="#BDAFB9" points="1244.725,1131.683 1230.047,1127.294 1220.073,1116.891 			"/>
			<polygon clip-path="url(#SVGID_7_)" fill="#77655E" points="1245.604,1124.781 1251.979,1135.925 1244.725,1131.683 			"/>
			<polygon clip-path="url(#SVGID_7_)" fill="#849391" points="1220.073,1116.891 1212.285,1117.032 1211.589,1120.814 			"/>
			<polygon clip-path="url(#SVGID_7_)" fill="#8F888F" points="1270.117,1146.845 1252.221,1136.596 1245.915,1125.273 			"/>
			<polygon clip-path="url(#SVGID_7_)" fill="#B2A9B0" points="1216.197,1121.547 1200.293,1122.092 1212.285,1117.032 			"/>
			<polygon clip-path="url(#SVGID_7_)" fill="#FFEDCE" points="1173.635,1136.474 1200.293,1122.092 1199.425,1125.877 			"/>
			<polygon clip-path="url(#SVGID_7_)" fill="#867D83" points="1215.33,1121.127 1210.953,1128.969 1200.293,1122.092 			"/>
			<polygon clip-path="url(#SVGID_7_)" fill="#847A69" points="1188.881,1150.216 1196.513,1164.056 1196.439,1152.484 			"/>
			<polygon clip-path="url(#SVGID_7_)" fill="#514738" points="1196.513,1164.056 1176.853,1177.162 1188.881,1150.216 			"/>
			<polygon clip-path="url(#SVGID_7_)" fill="#4C4235" points="1167.764,1198.033 1175.333,1174.656 1188.881,1150.216 			"/>
			<polygon clip-path="url(#SVGID_7_)" fill="#CED0C5" points="1216.26,1215.62 1201.246,1200.542 1217.508,1201.811 			"/>
			<polygon clip-path="url(#SVGID_7_)" fill="#C3C6C5" points="1217.623,1201.792 1197.113,1211.146 1167.532,1197.938 			"/>
			<polygon clip-path="url(#SVGID_7_)" fill="#3C3828" points="1161.818,1168.877 1175.333,1174.656 1188.881,1150.216 			"/>
			<polygon clip-path="url(#SVGID_7_)" fill="#887F86" points="1206.497,1182.1 1167.532,1197.938 1217.368,1201.801 			"/>
			<path clip-path="url(#SVGID_7_)" fill="#26322C" d="M1190.766,1123.111"/>
			<polygon clip-path="url(#SVGID_7_)" fill="#978E98" points="1201.354,1129.795 1197.283,1123.544 1200.514,1122.04 
				1206.773,1124.11 1207.483,1128.087 			"/>
			<polygon clip-path="url(#SVGID_7_)" fill="#87807E" points="1207.483,1128.087 1206.867,1124.017 1215.925,1131.697 			"/>
			<polygon clip-path="url(#SVGID_7_)" fill="#938374" points="1225.499,1137.568 1220.913,1135.148 1218.267,1140.955 
				1226.4,1139.223 			"/>
			<polygon clip-path="url(#SVGID_7_)" fill="#463A2D" points="1215.926,1141.464 1208.785,1146.219 1212.012,1155.399 			"/>
			<polygon clip-path="url(#SVGID_7_)" fill="#5F5447" points="1208.785,1146.219 1202.99,1146.29 1212.003,1155.368 			"/>
			<polygon clip-path="url(#SVGID_7_)" fill="#52463A" points="1228.319,1145.615 1222.826,1155.375 1212.012,1155.399 
				1215.626,1141.433 1226.4,1139.223 			"/>
			<polygon clip-path="url(#SVGID_7_)" fill="#887F85" points="1215.927,1131.664 1201.297,1129.809 1207.483,1128.087 			"/>
			<path clip-path="url(#SVGID_7_)" fill="#26322C" d="M1192.252,1151.933"/>
			<polygon clip-path="url(#SVGID_7_)" fill="#716453" points="1196.37,1163.815 1196.378,1152.354 1203.231,1146.287 
				1211.981,1155.164 1214.15,1158.448 			"/>
			<polygon clip-path="url(#SVGID_7_)" fill="#85796F" points="1214.15,1158.448 1222.826,1155.375 1225.211,1163.136 			"/>
			<polygon clip-path="url(#SVGID_7_)" fill="#9E9188" points="1231.739,1167.694 1228.353,1175.23 1224.814,1175.929 
				1225.211,1163.136 			"/>
			<polygon clip-path="url(#SVGID_7_)" fill="#A9A198" points="1239.444,1172.445 1231.739,1167.694 1228.273,1175.302 
				1238.927,1173.033 			"/>
			<polyline clip-path="url(#SVGID_7_)" fill="#978776" points="1241.437,1181.404 1217.554,1201.671 1224.814,1175.929 
				1238.927,1173.033 1241.652,1181.821 			"/>
			<polygon clip-path="url(#SVGID_7_)" fill="#968776" points="1225.211,1163.136 1206.045,1160.707 1214.15,1158.448 			"/>
			<polygon clip-path="url(#SVGID_7_)" fill="#7C6D62" points="1226.4,1139.223 1250.881,1148.866 1228.319,1145.615 			"/>
			<polygon clip-path="url(#SVGID_7_)" fill="#B6A790" points="1225.499,1137.568 1229.616,1127.189 1250.881,1148.866 
				1226.313,1139.38 			"/>
			<polygon clip-path="url(#SVGID_7_)" fill="#C5B6AD" points="1228.447,1175.003 1243.387,1186.941 1255.184,1162.014 			"/>
			<polygon clip-path="url(#SVGID_7_)" fill="#9A8A7B" points="1228.353,1175.23 1231.739,1167.694 1255.184,1162.014 			"/>
			<polygon clip-path="url(#SVGID_7_)" fill="#7C6B5B" points="1255.184,1162.014 1222.826,1155.375 1225.211,1163.136 
				1231.739,1167.694 			"/>
			<polygon clip-path="url(#SVGID_7_)" fill="#BFAF9E" points="1243.387,1186.941 1258.713,1172.282 1263.1,1184.106 			"/>
			<polygon clip-path="url(#SVGID_7_)" fill="#B9AA9B" points="1224.814,1175.929 1206.497,1182.1 1225.211,1163.136 			"/>
			<polygon clip-path="url(#SVGID_7_)" fill="#948577" points="1206.045,1160.707 1196.37,1163.815 1206.497,1182.1 			"/>
			<polygon clip-path="url(#SVGID_7_)" fill="#463A2D" points="1202.99,1146.29 1188.881,1150.216 1196.454,1152.62 			"/>
			<polygon clip-path="url(#SVGID_7_)" fill="#71676A" points="1208.785,1146.219 1201.297,1129.809 1202.99,1146.29 			"/>
			<polygon clip-path="url(#SVGID_7_)" fill="#5B4D3D" points="1201.259,1129.692 1215.626,1141.433 1218.325,1140.899 
				1220.913,1135.148 1215.927,1131.664 1215.928,1131.696 			"/>
			<polygon clip-path="url(#SVGID_7_)" fill="#716A5E" points="1177.297,1176.472 1206.497,1182.1 1166.733,1198.749 			"/>
			<polygon clip-path="url(#SVGID_7_)" fill="#8D7F89" points="1216.392,1111.944 1230.047,1127.294 1214.105,1121.161 			"/>
			
				<ellipse transform="matrix(0.9619 -0.2733 0.2733 0.9619 -271.6476 379.2197)" opacity="0.3" clip-path="url(#SVGID_7_)" fill="#D8CEC5" cx="1225.427" cy="1164.719" rx="100.309" ry="92.836"/>
		</g>
	</g>
</g>
</svg>
