<?xml version="1.0" encoding="utf-8"?>
<!-- Generator: Adobe Illustrator 16.0.0, SVG Export Plug-In . SVG Version: 6.00 Build 0)  -->
<!DOCTYPE svg PUBLIC "-//W3C//DTD SVG 1.1//EN" "http://www.w3.org/Graphics/SVG/1.1/DTD/svg11.dtd">
<svg version="1.1" xmlns="http://www.w3.org/2000/svg" xmlns:xlink="http://www.w3.org/1999/xlink" x="0px" y="0px"
	 width="1442.332px" height="538.711px" viewBox="0 0 1442.332 538.711" enable-background="new 0 0 1442.332 538.711"
	 xml:space="preserve">
<g id="Layer_1">
	<polygon fill="#CDE9F4" points="1412.051,171.092 1186.244,0 599.66,238.451 541.262,173.754 0,387.01 106.418,492.41 
		105.965,492.502 106.613,492.604 106.904,492.892 107.619,492.761 349.773,530.66 349.748,530.678 640.682,534.527 
		710.264,521.768 716.508,520.654 921.186,538.711 1079.537,510.463 1442.332,340.844 	"/>
	<g opacity="0.8">
		<polygon fill="#C0E5F4" points="0,387.01 541.262,173.754 106.904,492.892 		"/>
		<polygon fill="#B3E2F0" points="599.66,238.451 942.781,302.047 716.508,520.654 710.264,521.768 		"/>
		<polygon fill="#C9E6F3" points="599.66,238.451 1186.244,0 942.781,302.047 		"/>
		<polygon fill="#9DDAEA" points="1186.244,0 1412.051,171.092 1442.332,340.844 		"/>
		<polygon fill="#C0E5F4" points="942.781,302.047 1442.332,340.844 1079.537,510.463 		"/>
		<polygon fill="#D0E9F2" points="349.748,530.678 512.744,418.682 640.682,534.527 		"/>
		<polygon fill="#C0E5F4" points="512.744,418.682 349.863,530.675 275.725,458.254 		"/>
		<polygon fill="#C6E6EF" points="105.965,492.502 275.725,458.254 349.863,530.675 		"/>
		<polygon fill="#B3E2F0" points="106.904,492.892 541.262,173.754 512.744,418.682 		"/>
		<polygon fill="#D0E9F2" points="541.262,173.754 599.66,238.451 512.744,418.682 		"/>
		<polygon fill="#B8E4F5" points="921.186,538.711 1079.537,510.463 942.781,302.047 716.508,520.654 		"/>
		<g>
			<polygon fill="#C6E6EF" points="512.744,418.682 688.049,456.744 599.66,238.451 			"/>
			<polygon fill="#C0E5F4" points="640.682,534.527 710.264,521.768 688.049,456.744 512.744,418.682 			"/>
		</g>
		<polygon fill="#B3E2F0" points="942.781,302.047 1442.332,340.844 1023.561,182.759 		"/>
		<polygon fill="#CDE9F4" points="1442.332,340.844 1186.244,0 1023.561,182.759 		"/>
	</g>
</g>
<g id="Layer_2">
</g>
</svg>
