<?xml version="1.0" encoding="utf-8"?>
<!-- Generator: Adobe Illustrator 16.0.0, SVG Export Plug-In . SVG Version: 6.00 Build 0)  -->
<!DOCTYPE svg PUBLIC "-//W3C//DTD SVG 1.1//EN" "http://www.w3.org/Graphics/SVG/1.1/DTD/svg11.dtd">
<svg version="1.1" xmlns="http://www.w3.org/2000/svg" xmlns:xlink="http://www.w3.org/1999/xlink" x="0px" y="0px"
	 width="964.292px" height="395.168px" viewBox="0 0 964.292 395.168" enable-background="new 0 0 964.292 395.168"
	 xml:space="preserve">
<g id="Layer_1">
	<g opacity="0.8">
		<polygon fill="#C9E6F3" points="411.34,395.168 605.68,120.771 435.047,71.998 429.447,72.529 409.075,215.391 		"/>
		<polygon fill="#B8E4F5" points="411.34,395.168 841.133,379.16 708.658,198.059 605.68,120.771 		"/>
		<polygon fill="#B3E2F0" points="841.133,379.16 964.292,256.379 793.441,152.111 		"/>
		<polygon fill="#CDE9F4" points="605.68,120.771 793.441,152.111 719.965,10.49 		"/>
		<polygon fill="#C0E5F4" points="124.283,194.426 263.141,250.896 234.883,165.521 		"/>
		<polygon fill="#D0E9F2" points="263.141,250.896 124.381,194.395 140.273,231.234 		"/>
		<polygon fill="#B3E2F0" points="0.026,298.24 140.436,231.357 124.381,194.395 		"/>
		<polygon fill="#B8E4F5" points="263.141,250.896 140.781,231.092 0,297.83 		"/>
		<polygon fill="#C0E5F4" points="0,297.83 241.936,386.848 263.141,250.896 		"/>
		<polygon fill="#CDE9F4" points="241.936,386.848 411.34,395.168 263.141,250.896 		"/>
		<polygon fill="#C6E6EF" points="494.916,116.891 719.965,10.49 605.68,120.771 435.047,71.998 		"/>
		<g>
			<polygon fill="#B3E2F0" points="263.141,250.896 234.725,165.428 409.075,215.391 411.34,395.168 			"/>
			<polygon fill="#C0E5F4" points="333.56,137.904 429.447,72.529 409.075,215.391 235.311,165.725 			"/>
		</g>
		<polygon fill="#C0E5F4" points="793.324,152.438 841.016,379.488 708.658,198.059 728.746,167.66 		"/>
		<polygon fill="#B3E2F0" points="605.68,120.771 793.441,152.111 708.658,198.059 		"/>
	</g>
</g>
<g id="Layer_2">
</g>
</svg>
