<?xml version="1.0" encoding="utf-8"?>
<!-- Generator: Adobe Illustrator 16.0.0, SVG Export Plug-In . SVG Version: 6.00 Build 0)  -->
<!DOCTYPE svg PUBLIC "-//W3C//DTD SVG 1.1//EN" "http://www.w3.org/Graphics/SVG/1.1/DTD/svg11.dtd">
<svg version="1.1" id="Layer_1" xmlns="http://www.w3.org/2000/svg" xmlns:xlink="http://www.w3.org/1999/xlink" x="0px" y="0px"
	 width="1500px" height="1500px" viewBox="0 0 1500 1500" enable-background="new 0 0 1500 1500" xml:space="preserve">
<g id="Uranus">
	<g id="MG">
		<g opacity="0.74">
			<g>
				<path fill="none" stroke="#E6E7E8" stroke-width="4" stroke-miterlimit="10" d="M273.92,346.308
					c0.102-0.13,0.204-0.26,0.307-0.389"/>
				<path fill="none" stroke="#E6E7E8" stroke-width="4" stroke-miterlimit="10" stroke-dasharray="1.0009,12.0105" d="
					M283.032,337.821c70.082-47.556,330.893,74.812,601.585,285.173c277.176,215.398,462.393,443.539,422.469,518.008"/>
				<path fill="none" stroke="#E6E7E8" stroke-width="4" stroke-miterlimit="10" d="M1303.846,1146.063
					c-0.1,0.132-0.2,0.263-0.301,0.393"/>
			</g>
		</g>
		<g opacity="0.74">
			<g>
				<path fill="none" stroke="#E6E7E8" stroke-width="4" stroke-miterlimit="10" d="M117.217,506.757
					c0.049-0.158,0.099-0.315,0.149-0.472"/>
				<path fill="none" stroke="#E6E7E8" stroke-width="4" stroke-miterlimit="10" stroke-dasharray="1.0009,12.0105" d="
					M122.741,495.597c48.746-69.263,335.975-46.991,663.551,54.104c335.423,103.511,589.325,251.449,578.305,335.221"/>
				<path fill="none" stroke="#E6E7E8" stroke-width="4" stroke-miterlimit="10" d="M1363.355,890.802
					c-0.047,0.158-0.094,0.316-0.143,0.474"/>
			</g>
		</g>
		<g opacity="0.74">
			<g>
				<path fill="none" stroke="#E6E7E8" stroke-width="4" stroke-miterlimit="10" d="M182.945,1098.79
					c-0.086-0.141-0.171-0.282-0.256-0.424"/>
				<path fill="none" stroke="#E6E7E8" stroke-width="4" stroke-miterlimit="10" stroke-dasharray="1.0009,12.0105" d="
					M178.225,1087.268c-19.74-82.365,186.858-283.146,479.273-462.091c299.413-183.235,578.267-275.934,633.834-212.28"/>
				<path fill="none" stroke="#E6E7E8" stroke-width="4" stroke-miterlimit="10" d="M1294.922,417.716
					c0.088,0.14,0.175,0.28,0.261,0.421"/>
			</g>
		</g>
		<g>
			<defs>
				<circle id="SVGID_1_" cx="748.743" cy="752.493" r="313.89"/>
			</defs>
			<clipPath id="SVGID_2_">
				<use xlink:href="#SVGID_1_"  overflow="visible"/>
			</clipPath>
			<polygon clip-path="url(#SVGID_2_)" fill="#46442D" points="594.545,879.635 435.479,628.913 743.615,538.008 			"/>
			<polygon clip-path="url(#SVGID_2_)" fill="#6B6331" points="473.267,963.202 594.545,879.635 435.479,628.913 			"/>
			<path clip-path="url(#SVGID_2_)" fill="#47452B" d="M793.794,1098.941"/>
			<polygon clip-path="url(#SVGID_2_)" fill="#47452B" points="594.545,879.635 971.152,828.973 793.794,1098.941 			"/>
			<path clip-path="url(#SVGID_2_)" fill="#26322C" d="M743.615,538.008"/>
			<polygon clip-path="url(#SVGID_2_)" fill="#26322C" points="971.152,828.973 594.545,879.635 743.615,538.008 			"/>
			<polygon clip-path="url(#SVGID_2_)" fill="#26322C" points="793.794,1098.941 1050.883,907.282 971.152,828.973 			"/>
			<line clip-path="url(#SVGID_2_)" fill="#736D2E" x1="473.267" y1="963.202" x2="594.545" y2="879.635"/>
			<polygon clip-path="url(#SVGID_2_)" fill="#292F32" points="435.479,628.913 754.929,412.898 743.615,538.008 			"/>
			<path clip-path="url(#SVGID_2_)" fill="#0B132D" d="M994.808,782.342"/>
			<polygon clip-path="url(#SVGID_2_)" fill="#0B132D" points="1050.883,907.282 971.152,828.973 1013.641,555.684 			"/>
			<g clip-path="url(#SVGID_2_)">
				<g>
					<path fill="#0B132D" d="M910.691,581.244c0.857,0,2.002-1.303,0.696-1.303C910.53,579.941,909.385,581.244,910.691,581.244
						L910.691,581.244z"/>
				</g>
			</g>
			<polygon clip-path="url(#SVGID_2_)" fill="#0D1225" points="971.152,828.973 743.615,538.008 1013.641,555.684 			"/>
			<polygon clip-path="url(#SVGID_2_)" fill="#0D1321" points="743.615,538.008 754.929,412.898 1013.641,555.684 			"/>
			<line clip-path="url(#SVGID_2_)" fill="#8E8239" x1="689.607" y1="983.88" x2="794.299" y2="1098.859"/>
			<polygon clip-path="url(#SVGID_2_)" fill="#6888C5" points="595.301,878.025 436.237,627.304 744.373,536.398 			"/>
			<polygon clip-path="url(#SVGID_2_)" fill="#4A63AD" points="474.022,961.586 595.301,878.025 436.237,627.304 			"/>
			<path clip-path="url(#SVGID_2_)" fill="#47452B" d="M794.549,1097.332"/>
			<polygon clip-path="url(#SVGID_2_)" fill="#506DB3" points="595.301,878.025 971.906,827.366 794.549,1097.332 			"/>
			<path clip-path="url(#SVGID_2_)" fill="#26322C" d="M744.373,536.398"/>
			<polygon clip-path="url(#SVGID_2_)" fill="#536CB2" points="971.906,827.366 595.301,878.025 744.373,536.398 			"/>
			<polygon clip-path="url(#SVGID_2_)" fill="#303C76" points="794.549,1097.332 1051.635,905.671 971.906,827.366 			"/>
			<polygon clip-path="url(#SVGID_2_)" fill="#5876B9" points="794.549,1097.332 474.022,961.586 595.301,878.025 			"/>
			<polygon clip-path="url(#SVGID_2_)" fill="#506DB3" points="436.237,627.304 556.372,483.404 755.684,411.281 744.373,536.398 
							"/>
			<path clip-path="url(#SVGID_2_)" fill="#0B132D" d="M995.567,780.737"/>
			<polygon clip-path="url(#SVGID_2_)" fill="#2A3367" points="1051.635,905.671 971.906,827.366 1014.401,554.064 			"/>
			<g clip-path="url(#SVGID_2_)">
				<g>
					<path fill="#0B132D" d="M911.441,579.634c0.857,0,2.002-1.303,0.696-1.303C911.28,578.332,910.135,579.634,911.441,579.634
						L911.441,579.634z"/>
				</g>
			</g>
			<polygon clip-path="url(#SVGID_2_)" fill="#36468A" points="971.906,827.366 744.373,536.398 1014.401,554.064 			"/>
			<polygon clip-path="url(#SVGID_2_)" fill="#485BA8" points="744.373,536.398 755.684,411.281 1014.401,554.064 			"/>
			<line clip-path="url(#SVGID_2_)" fill="#8E8239" x1="690.36" y1="982.269" x2="795.051" y2="1097.251"/>
			<polygon clip-path="url(#SVGID_2_)" fill="#242E62" points="1051.701,906.774 937.685,1029.654 885.3,958.478 			"/>
			<polygon clip-path="url(#SVGID_2_)" fill="#2B3671" points="937.685,1029.654 793.3,1098.872 886.274,957.469 			"/>
			<polygon clip-path="url(#SVGID_2_)" fill="#576CB2" points="556.372,483.404 743.33,536.265 755.739,411.037 			"/>
			<polygon clip-path="url(#SVGID_2_)" fill="#4F6AB1" points="729.495,1025.656 796.034,850.766 594.874,878.314 			"/>
			<polygon clip-path="url(#SVGID_2_)" fill="#4963AC" points="793.3,1098.872 729.495,1025.656 760.394,942.749 			"/>
			<polygon clip-path="url(#SVGID_2_)" fill="#3D52A3" points="760.394,942.749 872.097,979.278 793.3,1098.872 			"/>
			<polygon clip-path="url(#SVGID_2_)" fill="#515CA8" points="760.394,942.749 737.779,940.254 729.495,1025.656 			"/>
			<polygon clip-path="url(#SVGID_2_)" fill="#5F72B5" points="737.779,940.254 594.874,878.314 729.495,1025.656 			"/>
			<polygon clip-path="url(#SVGID_2_)" fill="#5873B7" points="737.779,940.254 726.366,860.418 760.394,942.749 			"/>
			<polygon clip-path="url(#SVGID_2_)" fill="#4C5DA9" points="737.779,940.254 726.366,860.418 645.333,900.155 			"/>
			<g clip-path="url(#SVGID_2_)">
				<g>
					<path fill="#5B622B" d="M761.238,900.337c0.596,0,2.098-0.902,0.804-0.902C761.446,899.435,759.944,900.337,761.238,900.337
						L761.238,900.337z"/>
				</g>
			</g>
			<polygon clip-path="url(#SVGID_2_)" fill="#4D66AE" points="729.495,1025.656 658.785,999.978 594.874,878.314 			"/>
			<path clip-path="url(#SVGID_2_)" fill="#32311A" d="M794.729,1100.056"/>
			<path clip-path="url(#SVGID_2_)" fill="#38371F" d="M793.3,1098.872"/>
			<polygon clip-path="url(#SVGID_2_)" fill="#303C76" points="729.495,1025.656 793.3,1098.872 658.785,999.978 			"/>
			<polygon clip-path="url(#SVGID_2_)" fill="#334488" points="794.729,1100.056 611.967,1047.063 658.785,999.978 			"/>
			<polygon clip-path="url(#SVGID_2_)" fill="#4153A3" points="472.467,962.769 611.967,1047.063 630.613,1035.8 			"/>
			<polygon clip-path="url(#SVGID_2_)" fill="#5F72B5" points="658.785,999.978 630.613,1035.8 524.339,927.58 			"/>
			<polygon clip-path="url(#SVGID_2_)" fill="#4660AB" points="524.339,927.58 473.931,963.708 630.613,1035.8 			"/>
			<polygon clip-path="url(#SVGID_2_)" fill="#506DB3" points="472.467,962.769 424.699,796.325 477.57,818.836 			"/>
			<polygon clip-path="url(#SVGID_2_)" fill="#44538C" points="436.209,629.979 424.539,797.726 477.57,818.836 			"/>
			<polygon clip-path="url(#SVGID_2_)" fill="#2A3367" points="1016.726,554.063 1001.946,642.761 974.413,553.435 			"/>
			<polygon clip-path="url(#SVGID_2_)" fill="#28336B" points="1016.726,554.063 1069.756,706.716 1033.136,729.906 			"/>
			<polygon clip-path="url(#SVGID_2_)" fill="#364588" points="1033.136,729.906 1001.946,642.761 1016.726,554.063 			"/>
			<polygon clip-path="url(#SVGID_2_)" fill="#2A3367" points="1069.756,706.716 1038.5,781.221 1033.136,729.906 			"/>
			<polygon clip-path="url(#SVGID_2_)" fill="#455AA7" points="1033.136,729.906 988.02,719.036 1001.946,642.761 			"/>
			<polygon clip-path="url(#SVGID_2_)" fill="#2D3368" points="1016.726,554.063 988.219,517.611 967.384,529.304 			"/>
			<polygon clip-path="url(#SVGID_2_)" fill="#394999" points="974.413,553.435 967.384,529.304 1016.726,554.063 			"/>
			<polygon clip-path="url(#SVGID_2_)" fill="#1A2048" points="1051.701,906.774 1038.5,781.221 1069.756,706.716 			"/>
			<polygon clip-path="url(#SVGID_2_)" fill="#3E51A2" points="967.384,529.304 920.797,480.68 988.219,517.611 			"/>
			<polygon clip-path="url(#SVGID_2_)" fill="#2B326A" points="755.739,411.037 920.797,480.68 899.34,491.579 			"/>
			<polygon clip-path="url(#SVGID_2_)" fill="#394999" points="967.384,529.304 895.524,547.689 920.797,480.68 			"/>
			<polygon clip-path="url(#SVGID_2_)" fill="#5F72B5" points="899.34,491.579 895.524,547.689 920.797,480.68 			"/>
			<polygon clip-path="url(#SVGID_2_)" fill="#5167AF" points="1001.946,642.761 895.524,547.689 974.413,553.435 			"/>
			<polygon clip-path="url(#SVGID_2_)" fill="#515CA8" points="974.413,553.435 967.384,529.304 895.524,547.689 			"/>
			<g clip-path="url(#SVGID_2_)">
				<g>
					<path fill="#6A6230" d="M1052.175,510.675c1.128,0,1.462-1.48,0.154-1.48C1051.201,509.195,1050.867,510.675,1052.175,510.675
						L1052.175,510.675z"/>
				</g>
			</g>
			<polygon clip-path="url(#SVGID_2_)" fill="#73B3D2" points="743.33,536.265 703.785,629.169 765.723,578.015 			"/>
			<polygon clip-path="url(#SVGID_2_)" fill="#5873B7" points="703.785,629.169 569.936,587.737 743.33,536.265 			"/>
			<polygon clip-path="url(#SVGID_2_)" fill="#73B3D2" points="436.237,627.304 576.667,570.559 743.33,536.265 			"/>
			<polygon clip-path="url(#SVGID_2_)" fill="#515CA8" points="524.339,927.58 543.779,796.395 595.763,878.741 			"/>
			<polygon clip-path="url(#SVGID_2_)" fill="#6479BA" points="477.57,818.836 525.587,928.417 473.267,963.202 			"/>
			<polygon clip-path="url(#SVGID_2_)" fill="#6081C0" points="596.255,879.209 508.121,784.125 435.867,625.831 			"/>
			<polyline clip-path="url(#SVGID_2_)" fill="#5572B6" points="507.537,783.613 477.57,818.836 540.61,819.189 508.121,784.125 			
				"/>
			<polygon clip-path="url(#SVGID_2_)" fill="#515CA8" points="556.372,483.404 576.667,570.559 743.615,538.008 			"/>
			<polygon clip-path="url(#SVGID_2_)" fill="#5F79BB" points="841.576,718.609 725.538,860.719 973.524,828.97 			"/>
			<polyline clip-path="url(#SVGID_2_)" fill="#4F64AD" points="840.259,720.332 703.785,629.169 765.723,578.015 841.576,718.609 
							"/>
			<polygon clip-path="url(#SVGID_2_)" fill="#5773B7" points="651.974,748.194 435.867,625.831 595.301,878.025 			"/>
			<polygon clip-path="url(#SVGID_2_)" fill="#5F79BB" points="744.373,536.398 896.859,730.655 839.892,718.883 			"/>
			<polygon clip-path="url(#SVGID_2_)" fill="#5F72B5" points="896.859,730.655 895.721,544.563 744.373,536.398 			"/>
			<polygon clip-path="url(#SVGID_2_)" fill="#415AA7" points="896.859,730.655 1001.946,642.761 894.96,546.461 			"/>
			<polygon clip-path="url(#SVGID_2_)" fill="#4F64AD" points="652.518,751.363 703.785,629.169 572.089,586.273 651.974,748.194 
							"/>
			<polygon clip-path="url(#SVGID_2_)" fill="#303C76" points="650.401,746.778 726.366,859.713 594.545,878.929 			"/>
			<polyline clip-path="url(#SVGID_2_)" fill="#515CA8" points="650.401,746.778 841.576,718.609 704.372,627.899 650.753,748.19 
							"/>
			<polygon clip-path="url(#SVGID_2_)" fill="#73B3D2" points="650.456,746.831 726.475,859.888 705.31,793.455 			"/>
			<polygon clip-path="url(#SVGID_2_)" fill="#515CA8" points="705.31,793.455 841.576,718.609 726.475,859.888 			"/>
		</g>
		<g opacity="0.74">
			<g>
				<path fill="none" stroke="#E6E7E8" stroke-width="4" stroke-miterlimit="10" d="M1299.912,1154.469
					c-0.101,0.13-0.204,0.26-0.306,0.389"/>
				<path fill="none" stroke="#E6E7E8" stroke-width="4" stroke-miterlimit="10" stroke-dasharray="1.0009,12.0104" d="
					M1290.8,1162.956c-70.079,47.56-330.889-74.815-601.584-285.178c-277.171-215.397-462.386-443.531-422.467-518"/>
				<path fill="none" stroke="#E6E7E8" stroke-width="4" stroke-miterlimit="10" d="M269.989,354.717
					c0.1-0.132,0.2-0.263,0.301-0.393"/>
			</g>
		</g>
		<g opacity="0.74">
			<g>
				<path fill="none" stroke="#E6E7E8" stroke-width="4" stroke-miterlimit="10" d="M1301.402,424.364
					c0.086,0.141,0.171,0.282,0.256,0.424"/>
				<path fill="none" stroke="#E6E7E8" stroke-width="4" stroke-miterlimit="10" stroke-dasharray="1.0009,12.0104" d="
					M1306.123,435.887c19.739,82.359-186.866,283.141-479.278,462.083c-299.413,183.233-578.262,275.93-633.832,212.282"/>
				<path fill="none" stroke="#E6E7E8" stroke-width="4" stroke-miterlimit="10" d="M189.423,1105.433
					c-0.088-0.14-0.175-0.279-0.261-0.42"/>
			</g>
		</g>
		<g opacity="0.74">
			<g>
				<path fill="none" stroke="#E6E7E8" stroke-width="4" stroke-miterlimit="10" d="M1362.65,900.061
					c-0.049,0.158-0.098,0.315-0.149,0.472"/>
				<path fill="none" stroke="#E6E7E8" stroke-width="4" stroke-miterlimit="10" stroke-dasharray="1.0009,12.0104" d="
					M1357.126,911.22c-48.745,69.259-335.975,46.979-663.551-54.111c-335.421-103.515-589.323-251.45-578.303-335.22"/>
				<path fill="none" stroke="#E6E7E8" stroke-width="4" stroke-miterlimit="10" d="M116.513,516.01
					c0.047-0.158,0.094-0.316,0.143-0.474"/>
			</g>
		</g>
	</g>
</g>
</svg>
