<?xml version="1.0" encoding="utf-8"?>
<!-- Generator: Adobe Illustrator 16.0.0, SVG Export Plug-In . SVG Version: 6.00 Build 0)  -->
<!DOCTYPE svg PUBLIC "-//W3C//DTD SVG 1.1//EN" "http://www.w3.org/Graphics/SVG/1.1/DTD/svg11.dtd">
<svg version="1.1" xmlns="http://www.w3.org/2000/svg" xmlns:xlink="http://www.w3.org/1999/xlink" x="0px" y="0px"
	 width="1625.287px" height="660.697px" viewBox="0 0 1625.287 660.697" enable-background="new 0 0 1625.287 660.697"
	 xml:space="preserve">
<g id="Layer_1">
	<g opacity="0.8">
		<polygon fill="#E3E6EA" points="1436.164,438.459 1147.929,345.277 997.307,242.238 937.713,204.695 931.229,203.198 
			862.842,245.239 537.082,0 494.449,97.029 385.984,182.795 162.645,245.693 163.559,245.92 162.545,245.998 0,416.58 
			201.664,582.269 484.844,659.6 844.32,644.418 1032.824,660.151 1625.287,660.697 		"/>
		<g>
			<polygon fill="#C4DCE8" points="201.664,582.269 484.844,659.6 0,416.58 			"/>
			<polygon fill="#CEDFE9" points="937.713,204.695 1044.299,497.886 997.307,242.238 			"/>
			<polygon fill="#DBE4E9" points="844.32,644.418 1044.299,497.886 937.713,204.695 931.229,203.198 			"/>
			<polygon fill="#D6E2E9" points="844.32,644.418 1032.824,660.151 1044.299,497.886 			"/>
			<polygon fill="#DBE4E9" points="1032.824,660.151 1625.287,654.149 1436.164,438.459 			"/>
			<polygon fill="#CEDFE9" points="1044.299,497.886 1436.164,438.459 1147.929,345.277 			"/>
			<polygon fill="#E8E7E8" points="1044.299,497.886 1032.824,660.151 1436.164,438.459 			"/>
			<polygon fill="#CEDFE9" points="0,416.58 484.844,659.6 627.658,279.222 537.082,0 494.449,97.029 385.984,182.795 
				163.622,245.916 162.545,245.998 			"/>
			<polygon fill="#D6E2E9" points="537.082,0 626.827,280.432 862.842,245.239 			"/>
			<polygon fill="#DBE4E9" points="626.827,280.432 385.984,182.795 494.449,97.029 			"/>
			<polygon fill="#DBE4E9" points="162.645,245.693 353.244,218.537 385.984,182.795 			"/>
			<polygon fill="#E3E6EA" points="626.827,280.432 353.244,218.537 0,416.58 			"/>
			<polygon fill="#DBE4E9" points="0,416.58 484.844,659.6 626.827,280.432 			"/>
			<polygon fill="#D6E2E9" points="484.844,659.6 844.32,644.418 626.827,280.432 			"/>
			<polygon fill="#E3E6EA" points="626.827,280.432 844.32,644.418 931.229,203.198 862.842,245.239 			"/>
			<polygon fill="#E3E6EA" points="1044.299,497.886 1147.929,345.277 997.307,242.238 			"/>
			<polygon fill="#E3E6EA" points="1044.299,497.886 1032.824,660.151 1436.164,438.459 			"/>
		</g>
	</g>
</g>
<g id="Layer_2">
</g>
</svg>
