<?xml version="1.0" encoding="utf-8"?>
<!-- Generator: Adobe Illustrator 16.0.0, SVG Export Plug-In . SVG Version: 6.00 Build 0)  -->
<!DOCTYPE svg PUBLIC "-//W3C//DTD SVG 1.1//EN" "http://www.w3.org/Graphics/SVG/1.1/DTD/svg11.dtd">
<svg version="1.1" id="Layer_1" xmlns="http://www.w3.org/2000/svg" xmlns:xlink="http://www.w3.org/1999/xlink" x="0px" y="0px"
	 width="1500px" height="1500px" viewBox="0 0 1500 1500" enable-background="new 0 0 1500 1500" xml:space="preserve">
<g id="Uranus">
	<g id="MG">
		<g opacity="0.74">
			<g>
				<path fill="none" stroke="#E6E7E8" stroke-width="4" stroke-miterlimit="10" d="M273.92,346.308
					c0.102-0.13,0.204-0.26,0.307-0.389"/>
				<path fill="none" stroke="#E6E7E8" stroke-width="4" stroke-miterlimit="10" stroke-dasharray="1.0009,12.0105" d="
					M283.032,337.821c70.082-47.556,330.893,74.812,601.585,285.173c277.176,215.398,462.393,443.539,422.469,518.008"/>
				<path fill="none" stroke="#E6E7E8" stroke-width="4" stroke-miterlimit="10" d="M1303.846,1146.063
					c-0.1,0.132-0.2,0.263-0.301,0.393"/>
			</g>
		</g>
		<g opacity="0.74">
			<g>
				<path fill="none" stroke="#E6E7E8" stroke-width="4" stroke-miterlimit="10" d="M117.217,506.757
					c0.049-0.158,0.099-0.315,0.149-0.472"/>
				<path fill="none" stroke="#E6E7E8" stroke-width="4" stroke-miterlimit="10" stroke-dasharray="1.0009,12.0105" d="
					M122.741,495.597c48.746-69.263,335.975-46.991,663.551,54.104c335.423,103.511,589.325,251.449,578.305,335.221"/>
				<path fill="none" stroke="#E6E7E8" stroke-width="4" stroke-miterlimit="10" d="M1363.355,890.802
					c-0.047,0.158-0.094,0.316-0.143,0.474"/>
			</g>
		</g>
		<g opacity="0.74">
			<g>
				<path fill="none" stroke="#E6E7E8" stroke-width="4" stroke-miterlimit="10" d="M182.945,1098.79
					c-0.086-0.141-0.171-0.282-0.256-0.424"/>
				<path fill="none" stroke="#E6E7E8" stroke-width="4" stroke-miterlimit="10" stroke-dasharray="1.0009,12.0105" d="
					M178.225,1087.268c-19.74-82.365,186.858-283.146,479.273-462.091c299.413-183.235,578.267-275.934,633.834-212.28"/>
				<path fill="none" stroke="#E6E7E8" stroke-width="4" stroke-miterlimit="10" d="M1294.922,417.716
					c0.088,0.14,0.175,0.28,0.261,0.421"/>
			</g>
		</g>
		<g>
			<defs>
				<circle id="SVGID_1_" cx="748.743" cy="752.493" r="313.89"/>
			</defs>
			<clipPath id="SVGID_2_">
				<use xlink:href="#SVGID_1_"  overflow="visible"/>
			</clipPath>
			<circle clip-path="url(#SVGID_2_)" fill="#536CB2" cx="748.743" cy="752.493" r="313.89"/>
			<polygon clip-path="url(#SVGID_2_)" fill="#303C76" points="794.549,1097.332 1051.635,905.671 971,821.667 872.097,979.278 			
				"/>
			<polygon clip-path="url(#SVGID_2_)" fill="#2A3367" points="1051.635,905.671 971.906,827.366 1014.401,554.064 
				1046.894,730.545 			"/>
			<polygon clip-path="url(#SVGID_2_)" fill="#292F32" points="435.479,628.913 754.929,412.898 743.615,538.008 			"/>
			<polygon clip-path="url(#SVGID_2_)" fill="#6888C5" points="595.301,878.025 436.237,627.304 744.373,536.398 			"/>
			<polygon clip-path="url(#SVGID_2_)" fill="#4A63AD" points="474.022,961.586 595.301,878.025 436.237,627.304 			"/>
			<polygon clip-path="url(#SVGID_2_)" fill="#506DB3" points="584.063,873.813 971.906,827.366 793.794,1098.941 			"/>
			<polygon clip-path="url(#SVGID_2_)" fill="#536CB2" points="971.906,827.366 595.301,878.025 648.333,746.5 702,629.583 
				744.373,536.398 			"/>
			<polygon clip-path="url(#SVGID_2_)" fill="#5876B9" points="794.549,1097.332 474.022,961.586 595.301,878.025 			"/>
			<polygon clip-path="url(#SVGID_2_)" fill="#334488" points="793.794,1098.941 611.967,1047.063 674.833,982.5 			"/>
			<polygon clip-path="url(#SVGID_2_)" fill="#506DB3" points="436.237,627.304 556.372,483.404 755.684,411.281 744.373,536.398 
							"/>
			<polygon clip-path="url(#SVGID_2_)" fill="#36468A" points="971.906,827.366 894.5,735.917 744.373,536.398 1014.401,554.064 
				1009.333,642.333 			"/>
			<polygon clip-path="url(#SVGID_2_)" fill="#5F72B5" points="894.5,735.917 895.524,547.689 731.833,530.833 			"/>
			<polygon clip-path="url(#SVGID_2_)" fill="#485BA8" points="744.373,536.398 750,408.875 1014.401,554.064 895.524,547.689 			
				"/>
			<polygon clip-path="url(#SVGID_2_)" fill="#242E62" points="1051.635,905.671 937.685,1029.654 872.097,979.278 			"/>
			<polygon clip-path="url(#SVGID_2_)" fill="#2B3671" points="937.685,1029.654 793.3,1098.872 872.097,979.278 			"/>
			<polygon clip-path="url(#SVGID_2_)" fill="#576CB2" points="549.375,484.5 744.373,536.398 759.375,407.5 			"/>
			<polygon clip-path="url(#SVGID_2_)" fill="#4F6AB1" points="729.495,1025.656 796.034,850.766 722.563,856.938 594.874,878.314 
							"/>
			<polygon clip-path="url(#SVGID_2_)" fill="#4963AC" points="793.3,1098.872 729.495,1025.656 760.394,942.749 			"/>
			<polygon clip-path="url(#SVGID_2_)" fill="#3D52A3" points="760.394,942.749 872.097,979.278 793.3,1098.872 			"/>
			<polygon clip-path="url(#SVGID_2_)" fill="#515CA8" points="760.394,942.749 737.779,940.254 729.495,1025.656 			"/>
			<polygon clip-path="url(#SVGID_2_)" fill="#5F72B5" points="737.779,940.254 594.874,878.314 729.495,1025.656 			"/>
			<polygon clip-path="url(#SVGID_2_)" fill="#5873B7" points="737.779,940.254 722.563,856.938 760.394,942.749 			"/>
			<polygon clip-path="url(#SVGID_2_)" fill="#4C5DA9" points="737.779,940.254 722.563,856.938 645.333,900.155 			"/>
			<polygon clip-path="url(#SVGID_2_)" fill="#4D66AE" points="729.495,1025.656 658.785,999.978 594.874,878.314 			"/>
			<polygon clip-path="url(#SVGID_2_)" fill="#303C76" points="729.495,1025.656 793.3,1098.872 658.785,999.978 			"/>
			<polygon clip-path="url(#SVGID_2_)" fill="#4153A3" points="472.467,962.769 611.967,1047.063 630.613,1035.8 			"/>
			<polygon clip-path="url(#SVGID_2_)" fill="#5F72B5" points="658.785,999.978 630.613,1035.8 524.339,927.58 			"/>
			<polygon clip-path="url(#SVGID_2_)" fill="#4660AB" points="524.339,927.58 473.931,963.708 630.613,1035.8 			"/>
			<polygon clip-path="url(#SVGID_2_)" fill="#506DB3" points="472.467,962.769 424.699,796.325 477.57,818.836 			"/>
			<polygon clip-path="url(#SVGID_2_)" fill="#44538C" points="436.209,629.979 424.539,797.726 477.57,818.836 			"/>
			<polygon clip-path="url(#SVGID_2_)" fill="#2A3367" points="1014.401,554.064 1000.5,642 974.413,553.435 			"/>
			<polygon clip-path="url(#SVGID_2_)" fill="#28336B" points="1014.401,554.064 1081.833,728.5 1030.333,727.167 			"/>
			<polygon clip-path="url(#SVGID_2_)" fill="#364588" points="1030.333,727.167 1000.5,642 1014.401,554.064 			"/>
			<polygon clip-path="url(#SVGID_2_)" fill="#2A3367" points="1069.756,706.716 1038.5,781.221 1030.333,727.167 			"/>
			<polygon clip-path="url(#SVGID_2_)" fill="#455AA7" points="1030.333,727.167 993.062,722.778 1000.5,642 			"/>
			<polygon clip-path="url(#SVGID_2_)" fill="#2D3368" points="1014.401,554.064 988.219,517.611 967.167,532.5 			"/>
			<polygon clip-path="url(#SVGID_2_)" fill="#394999" points="974.413,553.435 967.167,532.5 1014.401,554.064 			"/>
			<polygon clip-path="url(#SVGID_2_)" fill="#1A2048" points="1051.635,905.671 1038.5,781.221 1069.756,706.716 			"/>
			<polygon clip-path="url(#SVGID_2_)" fill="#3E51A2" points="967.167,532.5 920.797,480.68 988.219,517.611 			"/>
			<polygon clip-path="url(#SVGID_2_)" fill="#2B326A" points="747.375,408 920.797,480.68 899.34,491.579 			"/>
			<polygon clip-path="url(#SVGID_2_)" fill="#394999" points="967.167,532.5 895.524,547.689 920.797,480.68 			"/>
			<polygon clip-path="url(#SVGID_2_)" fill="#5F72B5" points="899.34,491.579 895.524,547.689 920.797,480.68 			"/>
			<polygon clip-path="url(#SVGID_2_)" fill="#5167AF" points="1000.5,642 895.524,547.689 974.413,553.435 			"/>
			<polygon clip-path="url(#SVGID_2_)" fill="#515CA8" points="974.413,553.435 967.167,532.5 895.524,547.689 			"/>
			<polygon clip-path="url(#SVGID_2_)" fill="#73B3D2" points="744.373,536.398 702,629.583 766.542,577.833 			"/>
			<polygon clip-path="url(#SVGID_2_)" fill="#5873B7" points="702,629.583 575.5,591.25 744.373,536.398 			"/>
			<polygon clip-path="url(#SVGID_2_)" fill="#73B3D2" points="436.237,627.304 576.667,570.559 744.373,536.398 575.5,591.25 			
				"/>
			<polygon clip-path="url(#SVGID_2_)" fill="#515CA8" points="524.339,927.58 543.779,796.395 595.763,878.741 			"/>
			<polygon clip-path="url(#SVGID_2_)" fill="#6479BA" points="477.57,818.836 525.587,928.417 473.267,963.202 			"/>
			<polygon clip-path="url(#SVGID_2_)" fill="#6081C0" points="596.255,879.209 508.121,784.125 435.867,625.831 			"/>
			<polyline clip-path="url(#SVGID_2_)" fill="#5572B6" points="507.537,783.613 477.57,818.836 540.61,819.189 508.121,784.125 			
				"/>
			<polygon clip-path="url(#SVGID_2_)" fill="#515CA8" points="556.372,483.404 576.667,570.559 744.373,536.398 			"/>
			<polygon clip-path="url(#SVGID_2_)" fill="#5F79BB" points="838.455,719.148 722.563,856.938 971.906,827.366 			"/>
			<polygon clip-path="url(#SVGID_2_)" fill="#4F64AD" points="766.542,577.833 702,629.583 838.455,719.148 			"/>
			<polygon clip-path="url(#SVGID_2_)" fill="#5773B7" points="648.333,746.5 435.867,625.831 595.301,878.025 			"/>
			<polygon clip-path="url(#SVGID_2_)" fill="#5F79BB" points="744.373,536.398 894.5,735.917 838.455,719.148 766.542,577.833 			
				"/>
			<polygon clip-path="url(#SVGID_2_)" fill="#415AA7" points="894.5,735.917 1000.5,642 895.524,547.689 			"/>
			<polygon clip-path="url(#SVGID_2_)" fill="#4F64AD" points="648.333,746.5 702,629.583 575.5,591.25 			"/>
			<polygon clip-path="url(#SVGID_2_)" fill="#303C76" points="648.333,746.5 722.563,856.938 594.545,878.929 			"/>
			<polygon clip-path="url(#SVGID_2_)" fill="#515CA8" points="648.333,746.5 702,629.583 838.455,719.148 			"/>
			<polygon clip-path="url(#SVGID_2_)" fill="#73B3D2" points="648.333,746.5 722.563,856.938 705.31,793.455 			"/>
			<polygon clip-path="url(#SVGID_2_)" fill="#515CA8" points="705.31,793.455 838.455,719.148 722.563,856.938 			"/>
		</g>
		<g opacity="0.74">
			<g>
				<path fill="none" stroke="#E6E7E8" stroke-width="4" stroke-miterlimit="10" d="M1299.912,1154.469
					c-0.101,0.13-0.204,0.26-0.306,0.389"/>
				<path fill="none" stroke="#E6E7E8" stroke-width="4" stroke-miterlimit="10" stroke-dasharray="1.0009,12.0104" d="
					M1290.8,1162.956c-70.079,47.56-330.889-74.815-601.584-285.178c-277.171-215.397-462.386-443.531-422.467-518"/>
				<path fill="none" stroke="#E6E7E8" stroke-width="4" stroke-miterlimit="10" d="M269.989,354.717
					c0.1-0.132,0.2-0.263,0.301-0.393"/>
			</g>
		</g>
		<g opacity="0.74">
			<g>
				<path fill="none" stroke="#E6E7E8" stroke-width="4" stroke-miterlimit="10" d="M1301.402,424.364
					c0.086,0.141,0.171,0.282,0.256,0.424"/>
				<path fill="none" stroke="#E6E7E8" stroke-width="4" stroke-miterlimit="10" stroke-dasharray="1.0009,12.0104" d="
					M1306.123,435.887c19.739,82.359-186.866,283.141-479.278,462.083c-299.413,183.233-578.262,275.93-633.832,212.282"/>
				<path fill="none" stroke="#E6E7E8" stroke-width="4" stroke-miterlimit="10" d="M189.423,1105.433
					c-0.088-0.14-0.175-0.279-0.261-0.42"/>
			</g>
		</g>
		<g opacity="0.74">
			<g>
				<path fill="none" stroke="#E6E7E8" stroke-width="4" stroke-miterlimit="10" d="M1362.65,900.061
					c-0.049,0.158-0.098,0.315-0.149,0.472"/>
				<path fill="none" stroke="#E6E7E8" stroke-width="4" stroke-miterlimit="10" stroke-dasharray="1.0009,12.0104" d="
					M1357.126,911.22c-48.745,69.259-335.975,46.979-663.551-54.111c-335.421-103.515-589.323-251.45-578.303-335.22"/>
				<path fill="none" stroke="#E6E7E8" stroke-width="4" stroke-miterlimit="10" d="M116.513,516.01
					c0.047-0.158,0.094-0.316,0.143-0.474"/>
			</g>
		</g>
	</g>
</g>
</svg>
