<?xml version="1.0" encoding="utf-8"?>
<!-- Generator: Adobe Illustrator 16.0.0, SVG Export Plug-In . SVG Version: 6.00 Build 0)  -->
<!DOCTYPE svg PUBLIC "-//W3C//DTD SVG 1.1//EN" "http://www.w3.org/Graphics/SVG/1.1/DTD/svg11.dtd">
<svg version="1.1" xmlns="http://www.w3.org/2000/svg" xmlns:xlink="http://www.w3.org/1999/xlink" x="0px" y="0px"
	 width="1371.549px" height="476.812px" viewBox="0 0 1371.549 476.812" enable-background="new 0 0 1371.549 476.812"
	 xml:space="preserve">
<g id="Layer_1">
	<g opacity="0.8">
		<path fill="#C0E5F4" d="M1189.07,274.841L893.016,140.107l-136.467,22.366l-60.455-64.123L394.352,87.476l0.102,0.255
			L145.096,0.098l-0.127-0.095l-0.027,0.041l-0.064-0.022l0.053,0.04L0,220.683l0.746-0.464L28.75,420.431l200.609,56.385
			l317.654-20.479l566.547-17.775l257.988-128.559L1189.07,274.841z"/>
		<polygon fill="#C6E6EF" points="144.877,0.021 462.924,239.2 394.453,87.73 		"/>
		<polygon fill="#B5E2F3" points="28.75,420.431 229.359,476.815 0.723,220.048 		"/>
		<polygon fill="#D0E9F2" points="547.014,456.337 832.955,321.987 696.094,98.351 600.121,236.626 		"/>
		<polygon fill="#B8E4F5" points="547.014,456.337 1113.561,438.562 908.977,389.011 832.955,321.987 		"/>
		<polygon fill="#B5E2F3" points="1113.561,438.562 1371.549,310.003 1189.07,274.841 		"/>
		<polygon fill="#CDE9F4" points="832.955,321.987 1189.07,274.841 893.016,140.107 		"/>
		<polygon fill="#FFFFFF" points="832.955,321.987 1113.561,438.562 1189.07,274.841 		"/>
		<polygon fill="#D0E9F2" points="462.924,239.2 144.969,0.003 126.928,141.419 		"/>
		<polygon fill="#B3E2F0" points="0,220.683 127.021,141.737 144.969,0.003 		"/>
		<polygon fill="#B8E4F5" points="462.924,239.2 127.408,141.345 0.723,220.048 		"/>
		<polygon fill="#C0E5F4" points="0.723,220.048 229.359,476.815 462.924,239.2 		"/>
		<polygon fill="#B3E2F0" points="229.359,476.815 547.014,456.337 462.924,239.2 		"/>
		<polygon fill="#C6E6EF" points="756.549,162.474 893.016,140.107 832.955,321.987 696.094,98.351 		"/>
		<g>
			<polygon fill="#C9E6F3" points="462.924,239.2 394.352,87.476 600.121,236.626 547.014,456.337 			"/>
			<polygon fill="#C0E5F4" points="696.094,98.351 600.121,236.626 394.744,88.323 			"/>
		</g>
		<polygon fill="#B3E2F0" points="832.955,321.987 1189.07,274.841 908.5,389.191 		"/>
		<polygon fill="#C0E5F4" points="1176.727,277.224 1189.07,274.841 1113.561,438.562 908.5,389.191 932.258,376.552 		"/>
	</g>
</g>
<g id="Layer_2">
</g>
</svg>
