<?xml version="1.0" encoding="utf-8"?>
<!-- Generator: Adobe Illustrator 16.0.0, SVG Export Plug-In . SVG Version: 6.00 Build 0)  -->
<!DOCTYPE svg PUBLIC "-//W3C//DTD SVG 1.1//EN" "http://www.w3.org/Graphics/SVG/1.1/DTD/svg11.dtd">
<svg version="1.1" id="Layer_1" xmlns="http://www.w3.org/2000/svg" xmlns:xlink="http://www.w3.org/1999/xlink" x="0px" y="0px"
	 width="282.799px" height="959.905px" viewBox="0 0 282.799 959.905" enable-background="new 0 0 282.799 959.905"
	 xml:space="preserve">
<g>
	<polygon fill="#FFEC92" points="261.422,541.623 83.926,327.949 87.226,316.422 87.226,316.422 160.878,201.51 282.799,0 
		164.61,40.086 157.145,51.619 0,399.869 0.152,400.145 0.152,400.145 76.444,393.189 85.382,409.252 168.226,547.048 
		168.417,548.092 167.777,563.152 177.689,959.905 194.914,838.515 234.729,656.788 262.887,544.841 262.885,544.837 	"/>
	<g>
		<g>
			<polygon fill="#FFEEBB" points="164.61,40.086 282.799,0 160.878,201.51 126.979,213.02 157.145,51.619 			"/>
			<polygon fill="#FFEC9B" points="0,399.869 157.145,51.619 126.979,213.02 0.152,400.145 			"/>
		</g>
		<g>
			<polygon fill="#FFF9C0" points="87.226,316.422 83.926,327.949 82.349,324.483 			"/>
			<polygon fill="#FFEC92" points="160.878,201.51 87.226,316.422 128.124,212.631 			"/>
			<polygon fill="#FFEEBB" points="127.908,212.022 87.226,316.422 82.349,324.483 83.926,327.949 76.444,393.189 0.152,400.145 			
				"/>
		</g>
		<polygon fill="#FFEC9F" points="76.444,393.189 83.926,327.949 261.422,541.623 85.382,409.252 		"/>
		<polygon fill="#FFEEC2" points="85.382,409.252 261.422,541.623 262.885,544.837 168.417,548.092 168.226,547.048 		"/>
		<polygon fill="#FFECA5" points="168.417,548.092 262.885,544.837 262.887,544.841 234.729,656.788 167.777,563.152 		"/>
		<g>
			<polygon fill="#FFEEBB" points="234.729,656.788 194.914,838.515 167.777,563.152 			"/>
			<polygon fill="#FFEC92" points="167.777,563.152 170.497,571.589 194.914,838.515 177.689,959.905 			"/>
		</g>
	</g>
</g>
</svg>
