<?xml version="1.0" encoding="utf-8"?>
<!-- Generator: Adobe Illustrator 16.0.0, SVG Export Plug-In . SVG Version: 6.00 Build 0)  -->
<!DOCTYPE svg PUBLIC "-//W3C//DTD SVG 1.1//EN" "http://www.w3.org/Graphics/SVG/1.1/DTD/svg11.dtd">
<svg version="1.1" id="Layer_1" xmlns="http://www.w3.org/2000/svg" xmlns:xlink="http://www.w3.org/1999/xlink" x="0px" y="0px"
	 width="946.079px" height="402.732px" viewBox="0 0 946.079 402.732" enable-background="new 0 0 946.079 402.732"
	 xml:space="preserve">
<g>
	<polygon fill="#D6BB77" points="926.063,227.625 925.422,227.559 926,227.455 840.519,143.979 734.323,162.521 664.914,107.872 
		532,82.057 455.737,4.817 450.04,5.642 275.883,33.712 178.68,178.917 44.803,201.613 44.741,201.573 43.241,201.784 0,357.351 
		0,388.573 218.686,398.54 511.403,389.534 665.86,398.54 946.079,311.091 	"/>
	<g>
		<g>
			<g>
				<polygon fill="#BB9E5D" points="665.86,398.54 511.403,389.534 946.079,311.091 				"/>
				<polygon fill="#E7CE87" points="450.04,5.642 186.965,317.905 275.883,33.712 				"/>
				<polygon fill="#CBAF67" points="218.686,398.54 186.965,317.905 450.04,5.642 455.737,4.817 				"/>
				<polygon fill="#E7CE87" points="186.965,317.905 43.241,201.784 178.68,178.917 				"/>
				<polygon fill="#E8E7E8" points="186.965,317.905 0,388.573 43.241,201.784 				"/>
				<polygon fill="#D6BB77" points="946.079,311.091 511.403,389.534 568.038,255.464 664.914,107.872 734.323,162.521 
					840.519,143.979 925.152,227.531 926.063,227.625 				"/>
				<polygon fill="#E7CE87" points="664.914,107.872 568.659,256.159 532,82.057 				"/>
				<polygon fill="#E7CE87" points="568.659,256.159 840.519,143.979 734.323,162.521 				"/>
				<polygon fill="#DDC382" points="926,227.455 795.777,254.954 840.519,143.979 				"/>
				<polygon fill="#C5A863" points="568.659,256.159 795.777,254.954 946.079,311.091 				"/>
				<polygon fill="#C5A863" points="946.079,311.091 511.403,389.534 568.659,256.159 				"/>
				<polygon fill="#CBAF67" points="511.403,389.534 218.686,398.54 568.659,256.159 				"/>
				<polygon fill="#D6BB77" points="568.659,256.159 218.686,398.54 455.737,4.817 532,82.057 				"/>
				<polygon fill="#DDC382" points="186.965,317.905 178.68,178.917 275.883,33.712 				"/>
				<polygon fill="#DDC382" points="186.965,317.905 0,388.573 43.241,201.784 44.741,201.573 				"/>
				<polygon fill="#C5A863" points="218.686,398.54 0,388.573 186.965,317.905 				"/>
			</g>
		</g>
	</g>
</g>
</svg>
