<?xml version="1.0" encoding="utf-8"?>
<!-- Generator: Adobe Illustrator 16.0.0, SVG Export Plug-In . SVG Version: 6.00 Build 0)  -->
<!DOCTYPE svg PUBLIC "-//W3C//DTD SVG 1.1//EN" "http://www.w3.org/Graphics/SVG/1.1/DTD/svg11.dtd">
<svg version="1.1" id="Layer_1" xmlns="http://www.w3.org/2000/svg" xmlns:xlink="http://www.w3.org/1999/xlink" x="0px" y="0px"
	 width="938.4px" height="633.107px" viewBox="0 0 938.4 633.107" enable-background="new 0 0 938.4 633.107" xml:space="preserve">
<g>
	<g>
		<path fill="#FFFFFF" d="M581.324,64.053c1.119,0,1.469-1.457,0.16-1.457C580.365,62.596,580.016,64.053,581.324,64.053
			L581.324,64.053z"/>
	</g>
</g>
<g>
	<polygon fill="#BE792D" points="856.4,304.055 676.4,134.277 550.4,48.277 388.402,0.002 254.4,66.277 137.067,166.277 
		64.497,281.361 0,509.898 82.495,541.396 143.154,574.551 221.812,574.551 304.623,597.648 396.4,633.168 475.814,633.107 
		568.901,603.859 627.298,578.217 720.11,633.277 873.498,571.711 938.4,519.66 	"/>
	<g>
		<g>
			<g>
				<polygon fill="#A26C4E" points="64.497,281.361 0,509.898 82.495,541.396 				"/>
				<polygon fill="#97664C" points="64.497,281.361 143.154,574.551 82.495,541.396 				"/>
				<polygon fill="#BD7B4B" points="143.154,574.551 64.497,281.361 137.067,166.277 221.812,574.551 				"/>
				<polygon fill="#A26C4E" points="221.812,574.551 137.067,166.277 266.366,380.283 				"/>
				<polygon fill="#8B5E49" points="221.812,574.551 304.623,597.648 266.366,380.283 				"/>
				<polygon fill="#CF8544" points="137.067,166.277 254.4,66.277 266.366,380.283 				"/>
				<polygon fill="#A26C4E" points="254.4,66.277 372.812,62.975 382.286,362.5 				"/>
				<polygon fill="#A26C4E" points="266.366,380.283 296.665,398.064 254.4,66.277 				"/>
				<polygon fill="#BD7B4B" points="382.286,362.5 254.4,66.277 296.665,398.064 				"/>
				<polygon fill="#97664C" points="296.665,398.064 304.623,597.648 266.366,380.283 				"/>
				<polygon fill="#97664C" points="296.665,398.064 396.4,633.168 382.286,362.5 				"/>
				<polygon fill="#8B5E49" points="296.665,398.064 304.623,597.648 396.4,633.168 				"/>
				<polygon fill="#CF8544" points="372.812,62.975 388.402,0.002 550.4,48.277 371.586,247.9 				"/>
				<polygon fill="#BD7B4B" points="550.4,48.277 382.286,362.5 371.586,247.9 				"/>
				<polygon fill="#CF8544" points="550.4,48.277 676.4,134.277 499.475,344.357 382.286,362.5 				"/>
				<polygon fill="#8B5E49" points="396.4,633.168 499.475,344.357 382.286,362.5 				"/>
				<polygon fill="#8B5E49" points="499.475,344.357 568.901,603.859 475.814,633.107 				"/>
				<polygon fill="#97664C" points="396.4,633.168 475.814,633.107 499.475,344.357 				"/>
				<polygon fill="#97664C" points="568.901,603.859 545.509,406.455 499.475,344.357 				"/>
				<polygon fill="#BD7B4B" points="545.509,406.455 676.4,134.277 499.475,344.357 				"/>
				<polygon fill="#CF8544" points="676.4,134.277 856.4,304.055 627.298,383.594 				"/>
				<polygon fill="#CF8544" points="545.509,406.455 594.366,440.617 676.4,134.277 				"/>
				<polygon fill="#A26C4E" points="594.366,440.617 676.4,134.277 627.298,383.594 				"/>
				<polygon fill="#8B5E49" points="627.298,383.594 627.298,578.217 568.901,603.859 594.366,440.617 				"/>
				<polygon fill="#A26C4E" points="545.509,406.455 568.901,603.859 594.366,440.617 				"/>
				<polygon fill="#97664C" points="627.298,383.594 720.11,633.277 627.298,578.217 				"/>
				<polygon fill="#A26C4E" points="720.11,633.277 856.4,304.055 627.298,383.594 				"/>
				<polygon fill="#BD7B4B" points="856.4,304.055 938.4,519.66 873.498,571.711 				"/>
				<polygon fill="#97664C" points="873.498,571.711 720.11,633.277 856.4,304.055 				"/>
				<polygon fill="#BD7B4B" points="254.4,66.277 388.402,0.002 372.812,62.975 				"/>
			</g>
		</g>
	</g>
	<polygon opacity="0.4" fill="#CF8544" points="856.4,304.055 676.4,134.277 550.4,48.277 388.402,0.002 254.4,66.277 
		137.067,166.277 64.497,281.361 0,509.898 82.495,541.396 143.154,574.551 221.812,574.551 304.623,597.648 396.4,633.168 
		475.814,633.107 568.901,603.859 627.298,578.217 720.11,633.277 873.498,571.711 938.4,519.66 	"/>
</g>
</svg>
