<?xml version="1.0" encoding="utf-8"?>
<!-- Generator: Adobe Illustrator 16.0.0, SVG Export Plug-In . SVG Version: 6.00 Build 0)  -->
<!DOCTYPE svg PUBLIC "-//W3C//DTD SVG 1.1//EN" "http://www.w3.org/Graphics/SVG/1.1/DTD/svg11.dtd">
<svg version="1.1" id="Layer_1" xmlns="http://www.w3.org/2000/svg" xmlns:xlink="http://www.w3.org/1999/xlink" x="0px" y="0px"
	 width="739.02px" height="280.834px" viewBox="0 0 739.02 280.834" enable-background="new 0 0 739.02 280.834"
	 xml:space="preserve">
<path fill="#DDC280" d="M664.168,157.449L497.02,67.643L408.07,47.506L318.116,0h-4.099h-0.435h-67.96h-16.147l87.03,94.936l0,0
	L229.145,0.111L229.157,0l-0.092,0.025L229.042,0l-0.004,0.033L109.715,32.94l-0.003-0.003l-0.004,0.005l-0.073,0.021l0.033,0.033
	L0,179.041l0.544-0.458l45.06,102.251l230.561-6.935l126.777,6.935l126.686-13.66l209.393-54.932l-65.551-54.793H664.168z
	 M120.229,77.721l-0.013-0.057l0.047,0.028L120.229,77.721z"/>
<g>
	<g>
		<polygon fill="#BB9E5D" points="45.604,280.834 276.164,273.899 0.531,178.555 		"/>
		<polygon fill="#CBAF67" points="402.941,280.834 434.585,153.66 318.116,0 313.583,0 316.525,95.566 		"/>
		<polygon fill="#BB9E5D" points="402.941,280.834 529.627,267.174 506.136,193.125 434.585,153.66 		"/>
		<polygon fill="#CBAF67" points="529.627,267.174 739.02,212.242 673.469,157.449 		"/>
		<polygon fill="#DDC382" points="434.585,153.66 673.469,157.449 497.02,67.643 		"/>
		<polygon fill="#C5A863" points="434.585,153.66 529.627,267.174 673.469,157.449 		"/>
		<polygon fill="#E7CE87" points="109.635,32.963 213.972,135.286 229.157,0 		"/>
		<polygon fill="#D6BB77" points="213.972,135.286 109.712,32.938 120.122,77.606 		"/>
		<polygon fill="#E7CE87" points="0,179.041 120.239,77.766 109.712,32.938 		"/>
		<polygon fill="#DDC382" points="213.972,135.286 120.519,77.477 0.531,178.555 		"/>
		<polygon fill="#D6BB77" points="0.531,178.555 276.164,273.899 213.972,135.286 		"/>
		<polygon fill="#BB9E5D" points="276.164,273.899 402.941,280.834 213.972,135.286 		"/>
		<polygon fill="#E7CE87" points="408.07,47.506 497.02,67.643 434.585,153.66 318.116,0 		"/>
		<g>
			<polygon fill="#D6BB77" points="213.972,135.286 229.042,0 316.576,95.012 402.941,280.834 			"/>
			<polygon fill="#E7CE87" points="245.623,0 314.018,0 316.576,95.012 229.476,0 			"/>
		</g>
		<polygon fill="#D6BB77" points="434.585,153.66 664.168,157.449 505.895,193.625 		"/>
		<polygon fill="#CBAF67" points="664.168,157.449 673.469,157.449 529.627,267.174 503.77,193.25 		"/>
	</g>
</g>
</svg>
