<?xml version="1.0" encoding="utf-8"?>
<!-- Generator: Adobe Illustrator 16.0.0, SVG Export Plug-In . SVG Version: 6.00 Build 0)  -->
<!DOCTYPE svg PUBLIC "-//W3C//DTD SVG 1.1//EN" "http://www.w3.org/Graphics/SVG/1.1/DTD/svg11.dtd">
<svg version="1.1" id="Layer_1" xmlns="http://www.w3.org/2000/svg" xmlns:xlink="http://www.w3.org/1999/xlink" x="0px" y="0px"
	 width="916.689px" height="311.219px" viewBox="0 0 916.689 311.219" enable-background="new 0 0 916.689 311.219"
	 xml:space="preserve">
<g>
	<path fill="#C5A863" d="M880.071,61.43L880.071,61.43l-260.59-21.782l-97.92,9.428L440.559,0l-5.129,0.162l0.019,0.575
		l-76.896,20.968l-156.365,8.278l-0.574-0.281l-0.031,0.175L98.287,115.359l-0.022-0.004l-0.009,0.011l-0.078,0.019l0.057,0.009
		L0,242.217l0.702-0.484l84.742,53.594l201.385,15.893h207.789l0,0l374.932-69.002l47.14-157.475L880.071,61.43z"/>
	<g>
		<polygon fill="#BB9E5D" points="85.444,295.326 286.829,311.219 0.6,241.667 		"/>
		<polygon fill="#D6BB77" points="494.618,311.219 572.31,173.82 440.559,0 435.43,0.162 438.76,108.105 		"/>
		<polygon fill="#BB9E5D" points="494.618,311.219 869.55,242.217 653.25,218.466 572.31,173.82 		"/>
		<polygon fill="#CBAF67" points="869.55,242.217 916.689,84.742 880.071,61.43 		"/>
		<polygon fill="#E7CE87" points="572.31,173.82 880.071,61.43 619.481,39.647 		"/>
		<polygon fill="#E7CE87" points="98.178,115.385 322.751,153.037 201.747,29.839 		"/>
		<polygon fill="#DDC382" points="322.751,153.037 98.265,115.355 110.042,165.886 		"/>
		<polygon fill="#D6BB77" points="0,242.217 110.175,166.066 98.265,115.355 		"/>
		<polygon fill="#CBAF67" points="322.751,153.037 110.488,165.738 0.6,241.667 		"/>
		<polygon fill="#C5A863" points="0.6,241.667 286.829,311.219 322.751,153.037 		"/>
		<polygon fill="#BB9E5D" points="286.829,311.219 494.618,311.219 322.751,153.037 		"/>
		<polygon fill="#DDC382" points="521.562,49.075 619.481,39.647 572.31,173.82 440.559,0 		"/>
		<g>
			<polygon fill="#DDC382" points="322.751,153.037 201.613,29.702 438.325,107.032 494.618,311.219 			"/>
			<polygon fill="#E7CE87" points="358.552,21.705 435.922,0.607 438.816,107.478 202.107,30.147 			"/>
		</g>
		<polygon fill="#CBAF67" points="572.31,173.82 869.55,65.99 652.861,218.721 		"/>
		<polygon fill="#C5A863" points="869.55,65.99 880.071,61.43 869.55,242.217 652.861,218.721 671.517,202.768 		"/>
	</g>
	<path opacity="0.2" fill="#52382C" d="M880.071,61.43L880.071,61.43l-260.59-21.782l-97.92,9.428L440.559,0l-5.129,0.162
		l0.019,0.575l-76.896,20.968l-156.365,8.278l-0.574-0.281l-0.031,0.175L98.287,115.359l-0.022-0.004l-0.009,0.011l-0.078,0.019
		l0.057,0.009L0,242.217l0.702-0.484l84.742,53.594l201.385,15.893h207.789l0,0l374.932-69.002l47.14-157.475L880.071,61.43z"/>
</g>
</svg>
