<?xml version="1.0" encoding="utf-8"?>
<!-- Generator: Adobe Illustrator 16.0.0, SVG Export Plug-In . SVG Version: 6.00 Build 0)  -->
<!DOCTYPE svg PUBLIC "-//W3C//DTD SVG 1.1//EN" "http://www.w3.org/Graphics/SVG/1.1/DTD/svg11.dtd">
<svg version="1.1" id="Layer_1" xmlns="http://www.w3.org/2000/svg" xmlns:xlink="http://www.w3.org/1999/xlink" x="0px" y="0px"
	 width="322.799px" height="866.896px" viewBox="0 0 322.799 866.896" enable-background="new 0 0 322.799 866.896"
	 xml:space="preserve">
<g>
	<polygon fill="#FFEC92" points="146.562,46.631 138.04,36.215 0,0 139.166,181.984 203.221,265.747 206.986,276.157 
		84.446,489.143 82.776,492.045 82.774,492.049 100.906,593.148 130.338,757.267 149.999,866.896 131.291,518.594 130.561,504.992 
		130.779,504.05 225.34,369.598 235.541,355.092 322.624,231.271 322.799,231.023 	"/>
	<g>
		<g>
			<polygon fill="#FFEEBB" points="138.04,36.215 0,0 139.166,181.984 177.857,192.379 146.562,46.631 			"/>
			<polygon fill="#FFEC9B" points="322.799,231.023 146.562,46.631 177.857,192.379 322.624,231.271 			"/>
		</g>
		<g>
			<polygon fill="#FFF9C0" points="203.221,265.747 206.986,276.157 208.787,273.027 			"/>
			<polygon fill="#FFEC92" points="139.166,181.984 203.221,265.747 176.552,192.027 			"/>
			<polygon fill="#FFEEBB" points="176.552,192.027 203.221,265.747 208.787,273.027 206.986,276.157 235.541,355.092 
				322.624,231.271 			"/>
		</g>
		<polygon fill="#FFEC9F" points="235.541,355.092 206.986,276.157 84.446,489.143 225.34,369.598 		"/>
		<polygon fill="#FFEEC2" points="225.34,369.598 84.446,489.143 82.776,492.045 130.561,504.992 130.779,504.05 		"/>
		<polygon fill="#FFECA5" points="130.561,504.992 82.776,492.045 82.774,492.049 100.906,593.148 131.291,518.594 		"/>
		<g>
			<polygon fill="#FFEEBB" points="100.906,593.148 130.338,757.267 128.186,526.213 			"/>
			<polygon fill="#FFEC92" points="131.291,518.594 128.186,526.213 130.338,757.267 149.999,866.896 			"/>
		</g>
	</g>
</g>
</svg>
