<?xml version="1.0" encoding="utf-8"?>
<!-- Generator: Adobe Illustrator 16.0.0, SVG Export Plug-In . SVG Version: 6.00 Build 0)  -->
<!DOCTYPE svg PUBLIC "-//W3C//DTD SVG 1.1//EN" "http://www.w3.org/Graphics/SVG/1.1/DTD/svg11.dtd">
<svg version="1.1" id="Layer_1" xmlns="http://www.w3.org/2000/svg" xmlns:xlink="http://www.w3.org/1999/xlink" x="0px" y="0px"
	 width="286.227px" height="155.057px" viewBox="0 0 286.227 155.057" enable-background="new 0 0 286.227 155.057"
	 xml:space="preserve">
<g>
	<polygon fill="#A26628" points="229.098,155.058 0,133.058 80.769,155.058 	"/>
	<path fill="#C07C2E" d="M251.378,80.386L133.281,0.001l-27.84,10.801L66.954,35.011L0,133.058l80.769,22h148.329l22.515-74.541
		L251.378,80.386z M154.484,26.724l43.966,24.361l-43.936-24.322L154.484,26.724z"/>
	<polygon fill="#A26628" points="251.574,80.604 251.612,80.517 251.527,80.466 133.281,0.001 105.441,10.802 66.954,35.011 
		0,133.058 229.098,155.058 286.227,144.058 	"/>
	<g>
		<g>
			<line fill="#A26628" x1="229.135" y1="155.058" x2="251.598" y2="80.685"/>
			<polygon fill="#BD7B4B" points="251.612,80.517 80.769,155.058 229.098,155.058 			"/>
			<polygon fill="#97664C" points="154.515,26.763 251.612,80.517 80.769,155.058 			"/>
			<polygon fill="#A26C4E" points="154.515,26.763 133.281,0.001 80.769,155.058 80.769,155.058 			"/>
		</g>
		<g>
			<polygon fill="#D18643" points="251.58,80.524 153.959,26.433 133.281,0.001 			"/>
		</g>
		<polygon fill="#BD7B4B" points="133.281,0.001 105.441,10.802 80.769,155.058 		"/>
		<polygon fill="#A26C4E" points="105.441,10.802 0,133.058 80.769,155.058 		"/>
		<polygon fill="#D18643" points="105.441,10.802 66.954,35.011 0,133.058 		"/>
	</g>
	<polygon fill="#D18643" points="251.58,80.524 286.227,144.058 229.098,155.058 	"/>
</g>
</svg>
