<?xml version="1.0" encoding="utf-8"?>
<!-- Generator: Adobe Illustrator 16.0.0, SVG Export Plug-In . SVG Version: 6.00 Build 0)  -->
<!DOCTYPE svg PUBLIC "-//W3C//DTD SVG 1.1//EN" "http://www.w3.org/Graphics/SVG/1.1/DTD/svg11.dtd">
<svg version="1.1" id="Layer_1" xmlns="http://www.w3.org/2000/svg" xmlns:xlink="http://www.w3.org/1999/xlink" x="0px" y="0px"
	 width="1500px" height="1500px" viewBox="0 0 1500 1500" enable-background="new 0 0 1500 1500" xml:space="preserve">
<g id="Venus">
	<defs>
		<circle id="SVGID_1_" cx="750" cy="749.999" r="229.564"/>
	</defs>
	<clipPath id="SVGID_2_">
		<use xlink:href="#SVGID_1_"  overflow="visible"/>
	</clipPath>
	<circle clip-path="url(#SVGID_2_)" fill="#E89624" cx="750" cy="749.999" r="229.564"/>
	<polygon clip-path="url(#SVGID_2_)" fill="#FBB03A" points="750.107,587.039 987.59,617.851 885.487,859.541 849.25,784.75 	"/>
	<polygon clip-path="url(#SVGID_2_)" fill="#FFCE49" points="759.067,470 750.107,587.039 987.59,617.851 	"/>
	<polygon clip-path="url(#SVGID_2_)" fill="#C17129" points="750.107,587.039 672.333,738 596.833,846.5 539.5,741.167 
		508.516,593.131 	"/>
	<polygon clip-path="url(#SVGID_2_)" fill="#E89624" points="596.167,836.333 663.625,728.125 750.107,587.039 849.25,784.75 
		885.487,859.541 	"/>
	<polygon clip-path="url(#SVGID_2_)" fill="#A4742A" points="511.391,598.756 504,889 596.167,836.333 550.375,729.125 	"/>
	<polygon clip-path="url(#SVGID_2_)" fill="#F6AA37" points="511.391,598.756 762.833,503 750.107,587.039 	"/>
	<polygon clip-path="url(#SVGID_2_)" fill="#ED8E22" points="987.59,617.851 1015.177,768.515 957.469,931.673 885.487,859.541 	"/>
	<polygon clip-path="url(#SVGID_2_)" fill="#9D6627" points="498.205,860.593 596.167,836.333 648,919.333 735.732,1020.298 	"/>
	<polygon clip-path="url(#SVGID_2_)" fill="#C28B2D" points="596.167,836.333 908.833,852.167 735.732,1020.298 683.5,966 
		645.833,919.833 	"/>
	<polygon clip-path="url(#SVGID_2_)" fill="#B4742A" points="885.487,859.541 957.469,931.673 735.732,1020.298 800.827,948.711 	
		"/>
	<polygon clip-path="url(#SVGID_2_)" fill="#B0792B" points="498.205,860.593 479.806,724.194 550.375,729.125 	"/>
	<polygon clip-path="url(#SVGID_2_)" fill="#A16E29" points="479.806,724.194 511.069,597.159 550.375,729.125 	"/>
	<polygon clip-path="url(#SVGID_2_)" fill="#D78727" points="1015.177,768.515 885.487,859.541 957.469,931.673 	"/>
	<polygon clip-path="url(#SVGID_2_)" fill="#E29D31" points="596.167,836.333 721.413,826.149 885.487,859.541 	"/>
	<polygon clip-path="url(#SVGID_2_)" fill="#FBB136" points="589.355,595.104 624.964,657.761 663.625,728.125 750.107,587.039 	"/>
	<polygon clip-path="url(#SVGID_2_)" fill="#F6AA37" points="511.069,597.159 589.355,595.104 624.964,657.761 	"/>
	<polygon clip-path="url(#SVGID_2_)" fill="#C47C2A" points="624.964,657.761 550.375,729.125 511.069,597.159 	"/>
	<polygon clip-path="url(#SVGID_2_)" fill="#ED8E22" points="624.964,657.761 638.144,644.814 589.355,595.104 	"/>
	<polygon clip-path="url(#SVGID_2_)" fill="#FFC549" points="638.144,644.814 750.107,587.039 589.355,595.104 	"/>
	<polygon clip-path="url(#SVGID_2_)" fill="#FFCE49" points="638.144,644.814 693.594,679.208 624.964,657.761 	"/>
	<polygon clip-path="url(#SVGID_2_)" fill="#F4A634" points="638.144,644.814 693.594,679.208 710.59,607.453 	"/>
	<polygon clip-path="url(#SVGID_2_)" fill="#F39B27" points="589.355,595.104 641.675,563.924 750.107,587.039 	"/>
	<polygon clip-path="url(#SVGID_2_)" fill="#FFCE49" points="589.355,595.104 511.069,597.159 641.675,563.924 	"/>
	<polygon clip-path="url(#SVGID_2_)" fill="#CD7F29" points="511.069,597.159 636.508,509.893 641.675,563.924 	"/>
	<polygon clip-path="url(#SVGID_2_)" fill="#DB6B27" points="759.067,470 636.508,509.893 633.913,527.508 	"/>
	<polygon clip-path="url(#SVGID_2_)" fill="#F39726" points="641.675,563.924 633.913,527.508 757.313,502.25 	"/>
	<polygon clip-path="url(#SVGID_2_)" fill="#FFC549" points="757.313,502.25 759.067,470 633.913,527.508 	"/>
	<polygon clip-path="url(#SVGID_2_)" fill="#FFDA4D" points="759.067,470 888.555,522.533 847.374,544.115 	"/>
	<polygon clip-path="url(#SVGID_2_)" fill="#F58723" points="987.59,617.851 887.762,521.697 847.374,544.115 	"/>
	<polygon clip-path="url(#SVGID_2_)" fill="#8E5523" points="734.536,1021.765 687.053,966.244 756.691,995.422 	"/>
	<polygon clip-path="url(#SVGID_2_)" fill="#8E5523" points="734.536,1021.765 612.462,975.65 616.889,940.497 	"/>
	<polygon clip-path="url(#SVGID_2_)" fill="#A4742A" points="616.889,940.497 687.053,966.244 734.536,1021.765 	"/>
	<polygon clip-path="url(#SVGID_2_)" fill="#473321" points="612.462,975.65 582.257,917.146 616.889,940.497 	"/>
	<polygon clip-path="url(#SVGID_2_)" fill="#8E5523" points="616.889,940.497 645.833,919.833 687.053,966.244 	"/>
	<polygon clip-path="url(#SVGID_2_)" fill="#CE6C28" points="734.536,1021.765 771.844,1022.788 775.29,1003.568 	"/>
	<polygon clip-path="url(#SVGID_2_)" fill="#A76533" points="756.691,995.422 775.29,1003.568 734.536,1021.765 	"/>
	<polygon clip-path="url(#SVGID_2_)" fill="#8C5D3A" points="498.205,860.593 582.257,917.146 612.462,975.65 	"/>
	<polygon clip-path="url(#SVGID_2_)" fill="#6C451B" points="775.29,1003.568 829.458,999.544 771.844,1022.788 	"/>
	<polygon clip-path="url(#SVGID_2_)" fill="#EC9C54" points="957.469,931.673 829.458,999.544 833.716,980.348 	"/>
	<polygon clip-path="url(#SVGID_2_)" fill="#AE6E29" points="775.29,1003.568 800.827,948.711 829.458,999.544 	"/>
	<polygon clip-path="url(#SVGID_2_)" fill="#9D6627" points="833.716,980.348 800.827,948.711 829.458,999.544 	"/>
	<polygon clip-path="url(#SVGID_2_)" fill="#A16E29" points="687.053,966.244 800.827,948.711 756.691,995.422 	"/>
	<polygon clip-path="url(#SVGID_2_)" fill="#8E5523" points="756.691,995.422 775.29,1003.568 800.827,948.711 	"/>
	<polygon clip-path="url(#SVGID_2_)" fill="#CC7629" points="885.487,859.541 849.25,784.75 848.749,851.135 	"/>
	<polygon clip-path="url(#SVGID_2_)" fill="#E47D25" points="987.59,617.851 950.609,735.896 885.487,859.541 	"/>
	<polygon clip-path="url(#SVGID_2_)" fill="#F39B27" points="757.313,502.25 819.188,582.125 750.107,587.039 	"/>
	<polygon clip-path="url(#SVGID_2_)" fill="#FBB136" points="847.374,544.115 757.313,502.25 759.067,470 	"/>
	<polygon clip-path="url(#SVGID_2_)" fill="#F58723" points="750.107,587.039 819.188,582.125 853.217,581.444 990.833,621.5 	"/>
	<polygon clip-path="url(#SVGID_2_)" fill="#F9A22D" points="853.217,581.444 847.374,544.115 819.188,582.125 	"/>
	<polygon clip-path="url(#SVGID_2_)" fill="#F6AA37" points="1015.177,768.515 950.609,735.896 885.487,859.541 	"/>
	<polygon clip-path="url(#SVGID_2_)" fill="#ED8E22" points="721.413,826.149 750.107,587.039 663.625,728.125 	"/>
	<polygon clip-path="url(#SVGID_2_)" fill="#DA8427" points="849.25,784.75 848.749,851.135 721.413,826.149 	"/>
	<polygon clip-path="url(#SVGID_2_)" fill="#FFCE49" points="750.107,587.039 950.324,662.811 885.487,859.541 849.25,784.75 	"/>
	<polygon clip-path="url(#SVGID_2_)" fill="#ED8E22" points="849.25,784.75 987.59,617.851 885.487,859.541 	"/>
</g>
</svg>
