<?xml version="1.0" encoding="utf-8"?>
<!-- Generator: Adobe Illustrator 16.0.0, SVG Export Plug-In . SVG Version: 6.00 Build 0)  -->
<!DOCTYPE svg PUBLIC "-//W3C//DTD SVG 1.1//EN" "http://www.w3.org/Graphics/SVG/1.1/DTD/svg11.dtd">
<svg version="1.1" id="Layer_1" xmlns="http://www.w3.org/2000/svg" xmlns:xlink="http://www.w3.org/1999/xlink" x="0px" y="0px"
	 width="749.774px" height="199.209px" viewBox="0 0 749.774 199.209" enable-background="new 0 0 749.774 199.209"
	 xml:space="preserve">
<g>
	<path fill="#DDC280" d="M701.695,76.179L701.4,76.16l0.25-0.055L613.153,59.67l-36.545-46.981l-72.611-5.999L379.227,80.284
		L278.542,60.973l-4.094,0.359l-42.275,38.272L133,112.297L0,154.006v29.109l133,7.862l222.932,8.231l257.222-8.231l115.494-22.417
		l21.126-42.709L701.695,76.179z"/>
	<g>
		<polygon fill="#BB9E5D" points="728.647,168.561 613.153,190.978 749.773,125.852 		"/>
		<polygon fill="#BCA159" points="274.448,61.332 239.643,137.913 232.173,99.604 		"/>
		<polygon fill="#C5A863" points="355.932,199.209 239.643,137.913 274.448,61.332 278.542,60.973 		"/>
		<polygon fill="#BB9E5D" points="355.932,199.209 133,190.978 239.643,137.913 		"/>
		<polygon fill="#CBAF67" points="133,190.978 0,183.115 0,154.006 		"/>
		<polygon fill="#DDC382" points="239.643,137.913 0,154.006 133,112.297 		"/>
		<polygon fill="#E8E7E8" points="239.643,137.913 133,190.978 0,154.006 		"/>
		<polygon fill="#DDC382" points="749.773,125.852 613.153,190.978 434.38,106.347 503.997,6.689 576.608,12.688 613.153,59.67 
			701.04,76.139 701.695,76.179 		"/>
		<polygon fill="#E7CE87" points="503.997,6.689 434.826,106.65 379.227,80.284 		"/>
		<polygon fill="#D6BB77" points="434.826,106.65 613.153,59.67 576.608,12.688 		"/>
		<polygon fill="#E7CE87" points="701.65,76.105 605.23,97.403 613.153,59.67 		"/>
		<polygon fill="#E7CE87" points="434.826,106.65 605.23,97.403 749.773,125.852 		"/>
		<g>
			<g>
				<path fill="#E8E7E8" d="M362.399,0.444c0.587,0,2.1-0.889,0.807-0.889C362.619-0.444,361.106,0.444,362.399,0.444L362.399,0.444
					z"/>
			</g>
		</g>
		<polygon fill="#D6BB77" points="749.773,125.852 613.153,190.978 434.826,106.65 		"/>
		<polygon fill="#C5A863" points="613.153,190.978 355.932,199.209 434.826,106.65 		"/>
		<polygon fill="#DDC280" points="434.826,106.65 355.932,199.209 278.542,60.973 379.227,80.284 		"/>
		<polygon fill="#E7CE87" points="239.643,137.913 133,112.297 232.173,99.604 		"/>
		<polygon fill="#CBAF69" points="239.643,137.913 133,190.978 0,154.006 		"/>
	</g>
	<path opacity="0.2" fill="#52382C" d="M701.695,76.179L701.4,76.16l0.25-0.055L613.153,59.67l-36.545-46.981l-72.611-5.999
		L379.227,80.284L278.542,60.973l-4.094,0.359l-42.275,38.272L133,112.297L0,154.006v29.109l133,7.862l222.932,8.231l257.222-8.231
		l115.494-22.417l21.126-42.709L701.695,76.179z"/>
</g>
</svg>
