<?xml version="1.0" encoding="utf-8"?>
<!-- Generator: Adobe Illustrator 16.0.0, SVG Export Plug-In . SVG Version: 6.00 Build 0)  -->
<!DOCTYPE svg PUBLIC "-//W3C//DTD SVG 1.1//EN" "http://www.w3.org/Graphics/SVG/1.1/DTD/svg11.dtd">
<svg version="1.1" id="Layer_1" xmlns="http://www.w3.org/2000/svg" xmlns:xlink="http://www.w3.org/1999/xlink" x="0px" y="0px"
	 width="300.324px" height="330.916px" viewBox="0 0 300.324 330.916" enable-background="new 0 0 300.324 330.916"
	 xml:space="preserve">
<g>
	<polygon fill="#D18643" points="264.783,71.011 200.85,5.182 106.398,0 13.699,73.456 0,262.046 94.184,295.038 98,330.916 
		194.667,330.916 252.02,295.038 300.324,262.046 	"/>
	<g>
		<g>
			<g>
				<polygon fill="#97664C" points="0,262.046 80.48,85.021 94.184,291.367 				"/>
				<polygon fill="#A26C4E" points="94.184,291.367 80.48,85.021 149.273,278.039 				"/>
				<polygon fill="#D18643" points="80.48,85.021 13.699,73.456 106.398,0 				"/>
				<polygon fill="#BD7B4B" points="13.699,73.456 0,262.046 80.48,85.021 				"/>
				<polygon fill="#BD7B4B" points="80.48,85.021 106.398,0 200.85,5.182 143.796,62.506 				"/>
				<polygon fill="#8B5E49" points="80.48,85.021 142.665,62.506 149.273,278.039 				"/>
				<polygon fill="#A26C4E" points="149.273,278.039 264.783,71.011 142.665,62.506 				"/>
				<polygon fill="#8B5E49" points="149.273,278.039 192.812,270.931 264.783,71.011 				"/>
				<polygon fill="#97664C" points="264.783,71.011 252.02,295.038 192.812,270.931 				"/>
				<polygon fill="#A26C4E" points="264.783,71.011 300.324,262.046 252.02,295.038 				"/>
				<polygon fill="#CF8544" points="200.85,5.182 264.783,71.011 142.665,62.506 				"/>
			</g>
		</g>
	</g>
</g>
</svg>
