<?xml version="1.0" encoding="utf-8"?>
<!-- Generator: Adobe Illustrator 16.0.0, SVG Export Plug-In . SVG Version: 6.00 Build 0)  -->
<!DOCTYPE svg PUBLIC "-//W3C//DTD SVG 1.1//EN" "http://www.w3.org/Graphics/SVG/1.1/DTD/svg11.dtd">
<svg version="1.1" id="Layer_1" xmlns="http://www.w3.org/2000/svg" xmlns:xlink="http://www.w3.org/1999/xlink" x="0px" y="0px"
	 width="478px" height="635.562px" viewBox="0 0 478 635.562" enable-background="new 0 0 478 635.562" xml:space="preserve">
<polygon fill="#FFEC92" points="349.015,0 320,39.549 349.015,155.562 206.555,195.562 220.602,295.562 121.013,333.562 
	76.492,293.562 12,317.78 63.929,311.562 110.105,359.562 180,351.562 102.305,473.562 180,635.562 132.413,467.562 293.638,307.78 
	277.379,247.562 349.015,277.562 349.015,361.562 472,427.562 382,345.562 396,235.562 293.638,215.562 384,169.562 "/>
<polygon fill="#FFEEBB" points="320,39.549 384,169.562 349.015,0 "/>
<polygon fill="#FFEC92" points="384,169.562 349.015,155.562 320,39.549 "/>
<polygon fill="#FFEEBB" points="384,169.562 206.555,195.562 349.015,155.562 "/>
<polygon fill="#FFEC92" points="293.638,215.562 206.555,195.562 384,169.562 "/>
<polygon fill="#FFEC92" points="206.555,195.562 220.602,295.562 233.15,367.727 277.379,247.562 "/>
<polygon fill="#FFEC92" points="277.379,247.562 293.638,307.78 233.15,367.727 "/>
<polygon fill="#FFEEBB" points="233.15,367.727 220.602,295.562 121.013,333.562 180,351.562 "/>
<polygon fill="#FFEC92" points="121.013,333.562 110.105,359.562 180,351.562 "/>
<polygon fill="#FFEEBB" points="110.105,359.562 63.929,311.562 121.013,333.562 "/>
<polygon fill="#FFEC92" points="121.013,333.562 63.929,311.562 12,317.78 76.492,293.562 "/>
<polygon fill="#FFEC92" points="233.15,367.727 180,351.562 102.305,473.562 132.413,467.562 "/>
<polygon fill="#FFEEBB" points="102.305,473.562 180,635.562 132.413,467.562 "/>
<polygon fill="#FFEEBB" points="349.015,277.562 277.379,247.562 206.555,195.562 293.638,215.562 396,235.562 "/>
<polygon fill="#FFEC92" points="396,235.562 349.015,277.562 382,345.562 "/>
<polygon fill="#FFEEBB" points="349.015,277.562 349.015,361.562 472,427.562 382,345.562 "/>
</svg>
